G04 #@! TF.GenerationSoftware,KiCad,Pcbnew,(5.0.0)*
G04 #@! TF.CreationDate,2018-10-04T20:09:54-05:00*
G04 #@! TF.ProjectId,ClockBoard,436C6F636B426F6172642E6B69636164,rev?*
G04 #@! TF.SameCoordinates,Original*
G04 #@! TF.FileFunction,Copper,L1,Top,Signal*
G04 #@! TF.FilePolarity,Positive*
%FSLAX46Y46*%
G04 Gerber Fmt 4.6, Leading zero omitted, Abs format (unit mm)*
G04 Created by KiCad (PCBNEW (5.0.0)) date 10/04/18 20:09:54*
%MOMM*%
%LPD*%
G01*
G04 APERTURE LIST*
G04 #@! TA.AperFunction,ComponentPad*
%ADD10C,1.524000*%
G04 #@! TD*
G04 #@! TA.AperFunction,SMDPad,CuDef*
%ADD11R,1.200000X0.750000*%
G04 #@! TD*
G04 #@! TA.AperFunction,ComponentPad*
%ADD12R,1.700000X1.700000*%
G04 #@! TD*
G04 #@! TA.AperFunction,ComponentPad*
%ADD13O,1.700000X1.700000*%
G04 #@! TD*
G04 #@! TA.AperFunction,SMDPad,CuDef*
%ADD14R,1.200000X0.900000*%
G04 #@! TD*
G04 #@! TA.AperFunction,ComponentPad*
%ADD15R,1.600000X1.600000*%
G04 #@! TD*
G04 #@! TA.AperFunction,ComponentPad*
%ADD16O,1.600000X1.600000*%
G04 #@! TD*
G04 #@! TA.AperFunction,SMDPad,CuDef*
%ADD17R,1.750000X0.450000*%
G04 #@! TD*
G04 #@! TA.AperFunction,SMDPad,CuDef*
%ADD18R,2.540000X6.350000*%
G04 #@! TD*
G04 #@! TA.AperFunction,BGAPad,CuDef*
%ADD19C,10.160000*%
G04 #@! TD*
G04 #@! TA.AperFunction,ComponentPad*
%ADD20C,1.700000*%
G04 #@! TD*
G04 #@! TA.AperFunction,ViaPad*
%ADD21C,0.600000*%
G04 #@! TD*
G04 #@! TA.AperFunction,Conductor*
%ADD22C,0.406400*%
G04 #@! TD*
G04 #@! TA.AperFunction,Conductor*
%ADD23C,0.762000*%
G04 #@! TD*
G04 #@! TA.AperFunction,Conductor*
%ADD24C,0.254000*%
G04 #@! TD*
G04 APERTURE END LIST*
D10*
G04 #@! TO.P,U2,1*
G04 #@! TO.N,N/C*
X142240000Y-78740000D03*
G04 #@! TO.P,U2,2*
X144780000Y-78740000D03*
G04 #@! TO.P,U2,3*
G04 #@! TO.N,VBat*
X147320000Y-78740000D03*
G04 #@! TO.P,U2,4*
G04 #@! TO.N,N/C*
X149860000Y-78740000D03*
G04 #@! TO.P,U2,5*
G04 #@! TO.N,GPS_TX*
X152400000Y-78740000D03*
G04 #@! TO.P,U2,6*
G04 #@! TO.N,GPS_RX*
X154940000Y-78740000D03*
G04 #@! TO.P,U2,7*
G04 #@! TO.N,GND*
X157480000Y-78740000D03*
G04 #@! TO.P,U2,8*
G04 #@! TO.N,+5V*
X160020000Y-78740000D03*
G04 #@! TO.P,U2,9*
G04 #@! TO.N,N/C*
X162560000Y-78740000D03*
G04 #@! TD*
D11*
G04 #@! TO.P,C2,1*
G04 #@! TO.N,Net-(C2-Pad1)*
X140792200Y-91414600D03*
G04 #@! TO.P,C2,2*
G04 #@! TO.N,GND*
X142692200Y-91414600D03*
G04 #@! TD*
G04 #@! TO.P,C3,1*
G04 #@! TO.N,Net-(C3-Pad1)*
X126136400Y-94310200D03*
G04 #@! TO.P,C3,2*
G04 #@! TO.N,GND*
X128036400Y-94310200D03*
G04 #@! TD*
G04 #@! TO.P,C4,1*
G04 #@! TO.N,Net-(C4-Pad1)*
X126136400Y-75514200D03*
G04 #@! TO.P,C4,2*
G04 #@! TO.N,GND*
X128036400Y-75514200D03*
G04 #@! TD*
G04 #@! TO.P,C5,1*
G04 #@! TO.N,Net-(C5-Pad1)*
X145719800Y-95842308D03*
G04 #@! TO.P,C5,2*
G04 #@! TO.N,GND*
X143819800Y-95842308D03*
G04 #@! TD*
G04 #@! TO.P,C6,1*
G04 #@! TO.N,+5V*
X145719800Y-97485200D03*
G04 #@! TO.P,C6,2*
G04 #@! TO.N,GND*
X143819800Y-97485200D03*
G04 #@! TD*
G04 #@! TO.P,C7,1*
G04 #@! TO.N,Reset*
X160599200Y-101696750D03*
G04 #@! TO.P,C7,2*
G04 #@! TO.N,RTS*
X158699200Y-101696750D03*
G04 #@! TD*
D12*
G04 #@! TO.P,J1,1*
G04 #@! TO.N,RTS*
X126517400Y-109194600D03*
D13*
G04 #@! TO.P,J1,2*
G04 #@! TO.N,IC_RX*
X126517400Y-106654600D03*
G04 #@! TO.P,J1,3*
G04 #@! TO.N,IC_TX*
X126517400Y-104114600D03*
G04 #@! TD*
D14*
G04 #@! TO.P,R1,1*
G04 #@! TO.N,+5V*
X135466000Y-109194600D03*
G04 #@! TO.P,R1,2*
G04 #@! TO.N,Reset*
X133266000Y-109194600D03*
G04 #@! TD*
G04 #@! TO.P,R2,1*
G04 #@! TO.N,IC_RX*
X135466000Y-106654600D03*
G04 #@! TO.P,R2,2*
G04 #@! TO.N,Net-(R2-Pad2)*
X133266000Y-106654600D03*
G04 #@! TD*
G04 #@! TO.P,R3,1*
G04 #@! TO.N,IC_TX*
X135466000Y-104114600D03*
G04 #@! TO.P,R3,2*
G04 #@! TO.N,Net-(R3-Pad2)*
X133266000Y-104114600D03*
G04 #@! TD*
D15*
G04 #@! TO.P,U1,1*
G04 #@! TO.N,Reset*
X130530600Y-109194600D03*
D16*
G04 #@! TO.P,U1,15*
G04 #@! TO.N,N/C*
X138150600Y-76174600D03*
G04 #@! TO.P,U1,2*
G04 #@! TO.N,Net-(R2-Pad2)*
X130530600Y-106654600D03*
G04 #@! TO.P,U1,16*
G04 #@! TO.N,CS*
X138150600Y-78714600D03*
G04 #@! TO.P,U1,3*
G04 #@! TO.N,Net-(R3-Pad2)*
X130530600Y-104114600D03*
G04 #@! TO.P,U1,17*
G04 #@! TO.N,CLK*
X138150600Y-81254600D03*
G04 #@! TO.P,U1,4*
G04 #@! TO.N,GPS_RX*
X130530600Y-101574600D03*
G04 #@! TO.P,U1,18*
G04 #@! TO.N,DIN*
X138150600Y-83794600D03*
G04 #@! TO.P,U1,5*
G04 #@! TO.N,GPS_TX*
X130530600Y-99034600D03*
G04 #@! TO.P,U1,19*
G04 #@! TO.N,N/C*
X138150600Y-86334600D03*
G04 #@! TO.P,U1,6*
X130530600Y-96494600D03*
G04 #@! TO.P,U1,20*
G04 #@! TO.N,+5V*
X138150600Y-88874600D03*
G04 #@! TO.P,U1,7*
X130530600Y-93954600D03*
G04 #@! TO.P,U1,21*
G04 #@! TO.N,Net-(C2-Pad1)*
X138150600Y-91414600D03*
G04 #@! TO.P,U1,8*
G04 #@! TO.N,GND*
X130530600Y-91414600D03*
G04 #@! TO.P,U1,22*
X138150600Y-93954600D03*
G04 #@! TO.P,U1,9*
G04 #@! TO.N,Net-(C3-Pad1)*
X130530600Y-88874600D03*
G04 #@! TO.P,U1,23*
G04 #@! TO.N,N/C*
X138150600Y-96494600D03*
G04 #@! TO.P,U1,10*
G04 #@! TO.N,Net-(C4-Pad1)*
X130530600Y-86334600D03*
G04 #@! TO.P,U1,24*
G04 #@! TO.N,N/C*
X138150600Y-99034600D03*
G04 #@! TO.P,U1,11*
X130530600Y-83794600D03*
G04 #@! TO.P,U1,25*
X138150600Y-101574600D03*
G04 #@! TO.P,U1,12*
X130530600Y-81254600D03*
G04 #@! TO.P,U1,26*
X138150600Y-104114600D03*
G04 #@! TO.P,U1,13*
X130530600Y-78714600D03*
G04 #@! TO.P,U1,27*
X138150600Y-106654600D03*
G04 #@! TO.P,U1,14*
X130530600Y-76174600D03*
G04 #@! TO.P,U1,28*
X138150600Y-109194600D03*
G04 #@! TD*
D17*
G04 #@! TO.P,U3,1*
G04 #@! TO.N,IC_RX*
X155651200Y-102992150D03*
G04 #@! TO.P,U3,2*
G04 #@! TO.N,N/C*
X155651200Y-102342150D03*
G04 #@! TO.P,U3,3*
G04 #@! TO.N,RTS*
X155651200Y-101692150D03*
G04 #@! TO.P,U3,4*
G04 #@! TO.N,N/C*
X155651200Y-101042150D03*
G04 #@! TO.P,U3,5*
G04 #@! TO.N,IC_TX*
X155651200Y-100392150D03*
G04 #@! TO.P,U3,6*
G04 #@! TO.N,N/C*
X155651200Y-99742150D03*
G04 #@! TO.P,U3,7*
G04 #@! TO.N,GND*
X155651200Y-99092150D03*
G04 #@! TO.P,U3,8*
G04 #@! TO.N,N/C*
X155651200Y-98442150D03*
G04 #@! TO.P,U3,9*
X155651200Y-97792150D03*
G04 #@! TO.P,U3,10*
X155651200Y-97142150D03*
G04 #@! TO.P,U3,11*
X155651200Y-96492150D03*
G04 #@! TO.P,U3,12*
X155651200Y-95842150D03*
G04 #@! TO.P,U3,13*
X155651200Y-95192150D03*
G04 #@! TO.P,U3,14*
X155651200Y-94542150D03*
G04 #@! TO.P,U3,15*
G04 #@! TO.N,D+*
X148451200Y-94542150D03*
G04 #@! TO.P,U3,16*
G04 #@! TO.N,D-*
X148451200Y-95192150D03*
G04 #@! TO.P,U3,17*
G04 #@! TO.N,Net-(C5-Pad1)*
X148451200Y-95842150D03*
G04 #@! TO.P,U3,18*
G04 #@! TO.N,GND*
X148451200Y-96492150D03*
G04 #@! TO.P,U3,19*
G04 #@! TO.N,+5V*
X148451200Y-97142150D03*
G04 #@! TO.P,U3,20*
X148451200Y-97792150D03*
G04 #@! TO.P,U3,21*
G04 #@! TO.N,GND*
X148451200Y-98442150D03*
G04 #@! TO.P,U3,22*
G04 #@! TO.N,Net-(D1-Pad1)*
X148451200Y-99092150D03*
G04 #@! TO.P,U3,23*
G04 #@! TO.N,Net-(D2-Pad1)*
X148451200Y-99742150D03*
G04 #@! TO.P,U3,24*
G04 #@! TO.N,N/C*
X148451200Y-100392150D03*
G04 #@! TO.P,U3,25*
G04 #@! TO.N,GND*
X148451200Y-101042150D03*
G04 #@! TO.P,U3,26*
X148451200Y-101692150D03*
G04 #@! TO.P,U3,27*
G04 #@! TO.N,N/C*
X148451200Y-102342150D03*
G04 #@! TO.P,U3,28*
X148451200Y-102992150D03*
G04 #@! TD*
D12*
G04 #@! TO.P,J4,1*
G04 #@! TO.N,+5V*
X163253802Y-113538000D03*
D13*
G04 #@! TO.P,J4,2*
G04 #@! TO.N,D-*
X160713802Y-113538000D03*
G04 #@! TO.P,J4,3*
G04 #@! TO.N,D+*
X158173802Y-113538000D03*
G04 #@! TO.P,J4,4*
G04 #@! TO.N,N/C*
X155633802Y-113538000D03*
G04 #@! TO.P,J4,5*
G04 #@! TO.N,GND*
X153093802Y-113538000D03*
G04 #@! TD*
D18*
G04 #@! TO.P,BT1,1*
G04 #@! TO.N,VBat*
X126746000Y-119735600D03*
X141986000Y-119735600D03*
D19*
G04 #@! TO.P,BT1,2*
G04 #@! TO.N,GND*
X134366000Y-119735600D03*
G04 #@! TD*
D20*
G04 #@! TO.P,J2,CS*
G04 #@! TO.N,CS*
X147320000Y-73660000D03*
G04 #@! TO.P,J2,CLK*
G04 #@! TO.N,CLK*
X149860000Y-73660000D03*
G04 #@! TO.P,J2,DIN*
G04 #@! TO.N,DIN*
X144780000Y-73660000D03*
G04 #@! TO.P,J2,GND*
G04 #@! TO.N,GND*
X147320000Y-124460000D03*
G04 #@! TO.P,J2,VCC*
G04 #@! TO.N,+5V*
X149860000Y-124460000D03*
G04 #@! TD*
D21*
G04 #@! TO.N,+5V*
X142138400Y-96316800D03*
X135686800Y-111404400D03*
G04 #@! TO.N,GND*
X126060200Y-114173000D03*
X144373600Y-112369600D03*
X125730000Y-99314000D03*
G04 #@! TO.N,Net-(C3-Pad1)*
X126136400Y-94310200D03*
G04 #@! TO.N,Net-(C4-Pad1)*
X126136400Y-75514200D03*
G04 #@! TO.N,Reset*
X141046200Y-106070400D03*
X160578800Y-105308400D03*
G04 #@! TO.N,RTS*
X153509600Y-107238800D03*
G04 #@! TO.N,Net-(D1-Pad1)*
X145796000Y-118211600D03*
G04 #@! TO.N,Net-(D2-Pad1)*
X146507200Y-115671600D03*
G04 #@! TO.N,IC_RX*
X140403664Y-105359200D03*
X155651200Y-105054400D03*
G04 #@! TO.N,IC_TX*
X140741400Y-102844600D03*
X152908000Y-100431600D03*
G04 #@! TO.N,D-*
X150774400Y-110591600D03*
G04 #@! TO.N,D+*
X151892000Y-112115600D03*
G04 #@! TD*
D22*
G04 #@! TO.N,+5V*
X142138400Y-96926400D02*
X142138400Y-96316800D01*
X142798800Y-98856800D02*
X142138400Y-98196400D01*
X142138400Y-98196400D02*
X142138400Y-96926400D01*
X145129600Y-98856800D02*
X142798800Y-98856800D01*
X135458200Y-110058800D02*
X135458200Y-111175800D01*
X135458200Y-111175800D02*
X135686800Y-111404400D01*
X135466000Y-109194600D02*
X135466000Y-110051000D01*
X135466000Y-110051000D02*
X135458200Y-110058800D01*
X145719800Y-97485200D02*
X145719800Y-98266600D01*
X145719800Y-98266600D02*
X145129600Y-98856800D01*
X148451200Y-97792150D02*
X148451200Y-97434400D01*
X148451200Y-97434400D02*
X148451200Y-97142150D01*
X145719800Y-97485200D02*
X148400400Y-97485200D01*
X148400400Y-97485200D02*
X148451200Y-97434400D01*
X148445242Y-97798108D02*
X148451200Y-97792150D01*
G04 #@! TO.N,Net-(C2-Pad1)*
X138150600Y-91414600D02*
X140792200Y-91414600D01*
G04 #@! TO.N,Net-(C5-Pad1)*
X148451200Y-95842150D02*
X145719958Y-95842150D01*
X145719958Y-95842150D02*
X145719800Y-95842308D01*
G04 #@! TO.N,Reset*
X140716000Y-106400600D02*
X141046200Y-106070400D01*
X139954000Y-107162600D02*
X140716000Y-106400600D01*
X139954000Y-107162600D02*
X139192000Y-107924600D01*
X134686000Y-107924600D02*
X133416000Y-109194600D01*
X139192000Y-107924600D02*
X134686000Y-107924600D01*
X133416000Y-109194600D02*
X133266000Y-109194600D01*
X133266000Y-109194600D02*
X130530600Y-109194600D01*
X160578800Y-105308400D02*
X160578800Y-101717150D01*
X160578800Y-101717150D02*
X160599200Y-101696750D01*
G04 #@! TO.N,RTS*
X155651200Y-101692150D02*
X154475438Y-101692150D01*
X154475438Y-101692150D02*
X154076400Y-102091188D01*
X154076400Y-102091188D02*
X154076400Y-106672000D01*
X154076400Y-106672000D02*
X153509600Y-107238800D01*
X158699200Y-101696750D02*
X155655800Y-101696750D01*
X155655800Y-101696750D02*
X155651200Y-101692150D01*
G04 #@! TO.N,Net-(D1-Pad1)*
X145796000Y-118211600D02*
X145796000Y-99618800D01*
X145796000Y-99618800D02*
X146322650Y-99092150D01*
X146322650Y-99092150D02*
X148451200Y-99092150D01*
G04 #@! TO.N,Net-(D2-Pad1)*
X146507200Y-115671600D02*
X146507200Y-100177600D01*
X146507200Y-100177600D02*
X146942650Y-99742150D01*
X146942650Y-99742150D02*
X147169800Y-99742150D01*
X147169800Y-99742150D02*
X148451200Y-99742150D01*
G04 #@! TO.N,IC_RX*
X137439400Y-105384600D02*
X135458200Y-105384600D01*
X135458200Y-105384600D02*
X127787400Y-105384600D01*
X135466000Y-106654600D02*
X135466000Y-105798200D01*
X135458200Y-105790400D02*
X135458200Y-105384600D01*
X135466000Y-105798200D02*
X135458200Y-105790400D01*
X137439400Y-105384600D02*
X140378264Y-105384600D01*
X136886000Y-105384600D02*
X137439400Y-105384600D01*
X127787400Y-105384600D02*
X126517400Y-106654600D01*
X135466000Y-106654600D02*
X135616000Y-106654600D01*
X140378264Y-105384600D02*
X140403664Y-105359200D01*
X155651200Y-103623550D02*
X155651200Y-105054400D01*
X155651200Y-102992150D02*
X155651200Y-103623550D01*
X155630650Y-102971600D02*
X155651200Y-102992150D01*
G04 #@! TO.N,IC_TX*
X127787400Y-102844600D02*
X135534400Y-102844600D01*
X135466000Y-104114600D02*
X135466000Y-102913000D01*
X135534400Y-102844600D02*
X140741400Y-102844600D01*
X135466000Y-102913000D02*
X135534400Y-102844600D01*
X127720601Y-102911399D02*
X127787400Y-102844600D01*
X127584200Y-103047800D02*
X127720601Y-102911399D01*
X127367399Y-103264601D02*
X127584200Y-103047800D01*
X127367399Y-103264601D02*
X126517400Y-104114600D01*
X152908000Y-100431600D02*
X152947450Y-100392150D01*
X152947450Y-100392150D02*
X155651200Y-100392150D01*
G04 #@! TO.N,D-*
X150774400Y-110337600D02*
X150774400Y-110591600D01*
X150774400Y-96339588D02*
X150774400Y-110337600D01*
X150585206Y-96150394D02*
X150774400Y-96339588D01*
X150114000Y-95679188D02*
X150585206Y-96150394D01*
X148451200Y-95192150D02*
X149626962Y-95192150D01*
X149626962Y-95192150D02*
X150114000Y-95679188D01*
G04 #@! TO.N,D+*
X151409605Y-96088405D02*
X151477601Y-96156401D01*
X151841200Y-112115600D02*
X151892000Y-112115600D01*
X148451200Y-94542150D02*
X149834554Y-94542150D01*
X151380810Y-96088405D02*
X151409605Y-96088405D01*
X149834554Y-94542150D02*
X151380810Y-96088405D01*
X151477601Y-96156401D02*
X151477601Y-111752001D01*
X151477601Y-111752001D02*
X151841200Y-112115600D01*
G04 #@! TO.N,Net-(R2-Pad2)*
X133266000Y-106654600D02*
X130530600Y-106654600D01*
G04 #@! TO.N,Net-(R3-Pad2)*
X133266000Y-104114600D02*
X130530600Y-104114600D01*
D23*
G04 #@! TO.N,VBat*
X141198600Y-124434600D02*
X141224000Y-124434600D01*
X141224000Y-124434600D02*
X141986000Y-123672600D01*
X141986000Y-123672600D02*
X141986000Y-119735600D01*
X139369800Y-126263400D02*
X141198600Y-124434600D01*
X128498600Y-126263400D02*
X139369800Y-126263400D01*
X126771400Y-124536200D02*
X128498600Y-126263400D01*
X126771400Y-123698000D02*
X126771400Y-124536200D01*
X126746000Y-119735600D02*
X126746000Y-123672600D01*
X126746000Y-123672600D02*
X126771400Y-123698000D01*
X143637000Y-93446600D02*
X147320000Y-89763600D01*
X147320000Y-89763600D02*
X147320000Y-78740000D01*
X142681002Y-93446600D02*
X143637000Y-93446600D01*
X141986000Y-93472000D02*
X142655602Y-93472000D01*
X142655602Y-93472000D02*
X142681002Y-93446600D01*
X140919200Y-94538800D02*
X141986000Y-93472000D01*
X140919200Y-100253800D02*
X140919200Y-94538800D01*
X144475200Y-103809800D02*
X140919200Y-100253800D01*
X144475200Y-110964118D02*
X144475200Y-103809800D01*
X141986000Y-119735600D02*
X141986000Y-113453318D01*
X141986000Y-113453318D02*
X144475200Y-110964118D01*
D22*
G04 #@! TO.N,DIN*
X144780000Y-73660000D02*
X140360400Y-73660000D01*
X140360400Y-73660000D02*
X139903200Y-74117200D01*
X139903200Y-74117200D02*
X139903200Y-83312000D01*
X139903200Y-83312000D02*
X139420600Y-83794600D01*
X139420600Y-83794600D02*
X138150600Y-83794600D01*
G04 #@! TD*
D24*
G04 #@! TO.N,GND*
G36*
X164347367Y-71644983D02*
X164832227Y-71836952D01*
X165254117Y-72143473D01*
X165586519Y-72545278D01*
X165808555Y-73017128D01*
X165910340Y-73550706D01*
X165914001Y-73667195D01*
X165914000Y-124431312D01*
X165845017Y-124977367D01*
X165653047Y-125462228D01*
X165346529Y-125884115D01*
X164944722Y-126216519D01*
X164472870Y-126438556D01*
X163939295Y-126540340D01*
X163822837Y-126544000D01*
X140166830Y-126544000D01*
X141633202Y-125077629D01*
X141773371Y-124983971D01*
X141815883Y-124920347D01*
X142471750Y-124264481D01*
X142535371Y-124221971D01*
X142539935Y-124215139D01*
X148629000Y-124215139D01*
X148629000Y-124704861D01*
X148816408Y-125157306D01*
X149162694Y-125503592D01*
X149615139Y-125691000D01*
X150104861Y-125691000D01*
X150557306Y-125503592D01*
X150903592Y-125157306D01*
X151091000Y-124704861D01*
X151091000Y-124215139D01*
X150903592Y-123762694D01*
X150557306Y-123416408D01*
X150104861Y-123229000D01*
X149615139Y-123229000D01*
X149162694Y-123416408D01*
X148816408Y-123762694D01*
X148629000Y-124215139D01*
X142539935Y-124215139D01*
X142703788Y-123969917D01*
X142748000Y-123747648D01*
X142748000Y-123747647D01*
X142762928Y-123672600D01*
X142748000Y-123597553D01*
X142748000Y-123299064D01*
X143256000Y-123299064D01*
X143404659Y-123269494D01*
X143530686Y-123185286D01*
X143614894Y-123059259D01*
X143644464Y-122910600D01*
X143644464Y-121348804D01*
X155159360Y-121348804D01*
X155159360Y-121679396D01*
X155285872Y-121984824D01*
X155519636Y-122218588D01*
X155825064Y-122345100D01*
X156155656Y-122345100D01*
X156461084Y-122218588D01*
X156694848Y-121984824D01*
X156821360Y-121679396D01*
X156821360Y-121348804D01*
X159559360Y-121348804D01*
X159559360Y-121679396D01*
X159685872Y-121984824D01*
X159919636Y-122218588D01*
X160225064Y-122345100D01*
X160555656Y-122345100D01*
X160861084Y-122218588D01*
X161094848Y-121984824D01*
X161221360Y-121679396D01*
X161221360Y-121348804D01*
X161094848Y-121043376D01*
X160861084Y-120809612D01*
X160555656Y-120683100D01*
X160225064Y-120683100D01*
X159919636Y-120809612D01*
X159685872Y-121043376D01*
X159559360Y-121348804D01*
X156821360Y-121348804D01*
X156694848Y-121043376D01*
X156461084Y-120809612D01*
X156155656Y-120683100D01*
X155825064Y-120683100D01*
X155519636Y-120809612D01*
X155285872Y-121043376D01*
X155159360Y-121348804D01*
X143644464Y-121348804D01*
X143644464Y-116560600D01*
X143614894Y-116411941D01*
X143530686Y-116285914D01*
X143404659Y-116201706D01*
X143256000Y-116172136D01*
X142748000Y-116172136D01*
X142748000Y-113768948D01*
X144960950Y-111555999D01*
X145024571Y-111513489D01*
X145097901Y-111403743D01*
X145192987Y-111261437D01*
X145192987Y-111261436D01*
X145192988Y-111261435D01*
X145211800Y-111166859D01*
X145211800Y-117842444D01*
X145115000Y-118076141D01*
X145115000Y-118347059D01*
X145218676Y-118597356D01*
X145410244Y-118788924D01*
X145660541Y-118892600D01*
X145931459Y-118892600D01*
X146181756Y-118788924D01*
X146373324Y-118597356D01*
X146477000Y-118347059D01*
X146477000Y-118076141D01*
X146380200Y-117842444D01*
X146380200Y-116352600D01*
X146642659Y-116352600D01*
X146892956Y-116248924D01*
X147084524Y-116057356D01*
X147188200Y-115807059D01*
X147188200Y-115536141D01*
X147091400Y-115302444D01*
X147091400Y-113538000D01*
X154378686Y-113538000D01*
X154474226Y-114018312D01*
X154746301Y-114425501D01*
X155153490Y-114697576D01*
X155512563Y-114769000D01*
X155755041Y-114769000D01*
X156114114Y-114697576D01*
X156521303Y-114425501D01*
X156793378Y-114018312D01*
X156888918Y-113538000D01*
X156918686Y-113538000D01*
X157014226Y-114018312D01*
X157286301Y-114425501D01*
X157693490Y-114697576D01*
X158052563Y-114769000D01*
X158295041Y-114769000D01*
X158654114Y-114697576D01*
X159061303Y-114425501D01*
X159333378Y-114018312D01*
X159428918Y-113538000D01*
X159458686Y-113538000D01*
X159554226Y-114018312D01*
X159826301Y-114425501D01*
X160233490Y-114697576D01*
X160592563Y-114769000D01*
X160835041Y-114769000D01*
X161194114Y-114697576D01*
X161601303Y-114425501D01*
X161873378Y-114018312D01*
X161968918Y-113538000D01*
X161873378Y-113057688D01*
X161626361Y-112688000D01*
X162015338Y-112688000D01*
X162015338Y-114388000D01*
X162044908Y-114536659D01*
X162129116Y-114662686D01*
X162255143Y-114746894D01*
X162403802Y-114776464D01*
X164103802Y-114776464D01*
X164252461Y-114746894D01*
X164378488Y-114662686D01*
X164462696Y-114536659D01*
X164492266Y-114388000D01*
X164492266Y-112688000D01*
X164462696Y-112539341D01*
X164378488Y-112413314D01*
X164252461Y-112329106D01*
X164103802Y-112299536D01*
X162403802Y-112299536D01*
X162255143Y-112329106D01*
X162129116Y-112413314D01*
X162044908Y-112539341D01*
X162015338Y-112688000D01*
X161626361Y-112688000D01*
X161601303Y-112650499D01*
X161194114Y-112378424D01*
X160835041Y-112307000D01*
X160592563Y-112307000D01*
X160233490Y-112378424D01*
X159826301Y-112650499D01*
X159554226Y-113057688D01*
X159458686Y-113538000D01*
X159428918Y-113538000D01*
X159333378Y-113057688D01*
X159061303Y-112650499D01*
X158654114Y-112378424D01*
X158295041Y-112307000D01*
X158052563Y-112307000D01*
X157693490Y-112378424D01*
X157286301Y-112650499D01*
X157014226Y-113057688D01*
X156918686Y-113538000D01*
X156888918Y-113538000D01*
X156793378Y-113057688D01*
X156521303Y-112650499D01*
X156114114Y-112378424D01*
X155755041Y-112307000D01*
X155512563Y-112307000D01*
X155153490Y-112378424D01*
X154746301Y-112650499D01*
X154474226Y-113057688D01*
X154378686Y-113538000D01*
X147091400Y-113538000D01*
X147091400Y-102117150D01*
X147187736Y-102117150D01*
X147187736Y-102567150D01*
X147207627Y-102667150D01*
X147187736Y-102767150D01*
X147187736Y-103217150D01*
X147217306Y-103365809D01*
X147301514Y-103491836D01*
X147427541Y-103576044D01*
X147576200Y-103605614D01*
X149326200Y-103605614D01*
X149474859Y-103576044D01*
X149600886Y-103491836D01*
X149685094Y-103365809D01*
X149714664Y-103217150D01*
X149714664Y-102767150D01*
X149694773Y-102667150D01*
X149714664Y-102567150D01*
X149714664Y-102117150D01*
X149685094Y-101968491D01*
X149600886Y-101842464D01*
X149474859Y-101758256D01*
X149326200Y-101728686D01*
X147576200Y-101728686D01*
X147427541Y-101758256D01*
X147301514Y-101842464D01*
X147217306Y-101968491D01*
X147187736Y-102117150D01*
X147091400Y-102117150D01*
X147091400Y-100419583D01*
X147184633Y-100326350D01*
X147187736Y-100326350D01*
X147187736Y-100617150D01*
X147217306Y-100765809D01*
X147301514Y-100891836D01*
X147427541Y-100976044D01*
X147576200Y-101005614D01*
X149326200Y-101005614D01*
X149474859Y-100976044D01*
X149600886Y-100891836D01*
X149685094Y-100765809D01*
X149714664Y-100617150D01*
X149714664Y-100167150D01*
X149694773Y-100067150D01*
X149714664Y-99967150D01*
X149714664Y-99517150D01*
X149694773Y-99417150D01*
X149714664Y-99317150D01*
X149714664Y-98867150D01*
X149685094Y-98718491D01*
X149600886Y-98592464D01*
X149474859Y-98508256D01*
X149326200Y-98478686D01*
X147576200Y-98478686D01*
X147429079Y-98507950D01*
X146380187Y-98507950D01*
X146322650Y-98496505D01*
X146260538Y-98508860D01*
X146270104Y-98494543D01*
X146304000Y-98324137D01*
X146304000Y-98324136D01*
X146315445Y-98266600D01*
X146311877Y-98248664D01*
X146319800Y-98248664D01*
X146468459Y-98219094D01*
X146594486Y-98134886D01*
X146638242Y-98069400D01*
X147198129Y-98069400D01*
X147217306Y-98165809D01*
X147301514Y-98291836D01*
X147427541Y-98376044D01*
X147576200Y-98405614D01*
X149326200Y-98405614D01*
X149474859Y-98376044D01*
X149600886Y-98291836D01*
X149685094Y-98165809D01*
X149714664Y-98017150D01*
X149714664Y-97567150D01*
X149694773Y-97467150D01*
X149714664Y-97367150D01*
X149714664Y-96917150D01*
X149685094Y-96768491D01*
X149600886Y-96642464D01*
X149474859Y-96558256D01*
X149326200Y-96528686D01*
X147576200Y-96528686D01*
X147427541Y-96558256D01*
X147301514Y-96642464D01*
X147217306Y-96768491D01*
X147190948Y-96901000D01*
X146638242Y-96901000D01*
X146594486Y-96835514D01*
X146468459Y-96751306D01*
X146319800Y-96721736D01*
X145119800Y-96721736D01*
X144971141Y-96751306D01*
X144845114Y-96835514D01*
X144760906Y-96961541D01*
X144731336Y-97110200D01*
X144731336Y-97860200D01*
X144760906Y-98008859D01*
X144845114Y-98134886D01*
X144953147Y-98207071D01*
X144887618Y-98272600D01*
X143040783Y-98272600D01*
X142722600Y-97954418D01*
X142722600Y-96685956D01*
X142819400Y-96452259D01*
X142819400Y-96181341D01*
X142715724Y-95931044D01*
X142524156Y-95739476D01*
X142273859Y-95635800D01*
X142002941Y-95635800D01*
X141752644Y-95739476D01*
X141681200Y-95810920D01*
X141681200Y-95467308D01*
X144731336Y-95467308D01*
X144731336Y-96217308D01*
X144760906Y-96365967D01*
X144845114Y-96491994D01*
X144971141Y-96576202D01*
X145119800Y-96605772D01*
X146319800Y-96605772D01*
X146468459Y-96576202D01*
X146594486Y-96491994D01*
X146638348Y-96426350D01*
X147429079Y-96426350D01*
X147576200Y-96455614D01*
X149326200Y-96455614D01*
X149474859Y-96426044D01*
X149600886Y-96341836D01*
X149685094Y-96215809D01*
X149708213Y-96099584D01*
X149741593Y-96132964D01*
X149741596Y-96132966D01*
X150190200Y-96581571D01*
X150190201Y-110222442D01*
X150093400Y-110456141D01*
X150093400Y-110727059D01*
X150197076Y-110977356D01*
X150388644Y-111168924D01*
X150638941Y-111272600D01*
X150893402Y-111272600D01*
X150893402Y-111694460D01*
X150881956Y-111752001D01*
X150922277Y-111954703D01*
X150927298Y-111979944D01*
X151056417Y-112173186D01*
X151105198Y-112205780D01*
X151253796Y-112354378D01*
X151314676Y-112501356D01*
X151506244Y-112692924D01*
X151756541Y-112796600D01*
X152027459Y-112796600D01*
X152277756Y-112692924D01*
X152469324Y-112501356D01*
X152573000Y-112251059D01*
X152573000Y-111980141D01*
X152469324Y-111729844D01*
X152277756Y-111538276D01*
X152061801Y-111448825D01*
X152061801Y-108891596D01*
X160909000Y-108891596D01*
X160909000Y-109548404D01*
X161160350Y-110155216D01*
X161624784Y-110619650D01*
X162231596Y-110871000D01*
X162888404Y-110871000D01*
X163495216Y-110619650D01*
X163959650Y-110155216D01*
X164211000Y-109548404D01*
X164211000Y-108891596D01*
X163959650Y-108284784D01*
X163495216Y-107820350D01*
X162888404Y-107569000D01*
X162231596Y-107569000D01*
X161624784Y-107820350D01*
X161160350Y-108284784D01*
X160909000Y-108891596D01*
X152061801Y-108891596D01*
X152061801Y-100296141D01*
X152227000Y-100296141D01*
X152227000Y-100567059D01*
X152330676Y-100817356D01*
X152522244Y-101008924D01*
X152772541Y-101112600D01*
X153043459Y-101112600D01*
X153293756Y-101008924D01*
X153326330Y-100976350D01*
X154387736Y-100976350D01*
X154387736Y-101113950D01*
X154247495Y-101141846D01*
X154054253Y-101270965D01*
X154021658Y-101319747D01*
X153703999Y-101637407D01*
X153655215Y-101670003D01*
X153526096Y-101863246D01*
X153494014Y-102024534D01*
X153480755Y-102091188D01*
X153492200Y-102148724D01*
X153492201Y-106430016D01*
X153357541Y-106564676D01*
X153123844Y-106661476D01*
X152932276Y-106853044D01*
X152828600Y-107103341D01*
X152828600Y-107374259D01*
X152932276Y-107624556D01*
X153123844Y-107816124D01*
X153374141Y-107919800D01*
X153645059Y-107919800D01*
X153895356Y-107816124D01*
X154086924Y-107624556D01*
X154183724Y-107390859D01*
X154448806Y-107125778D01*
X154497585Y-107093185D01*
X154626704Y-106899943D01*
X154660600Y-106729537D01*
X154672045Y-106672001D01*
X154660600Y-106614465D01*
X154660600Y-103582620D01*
X154776200Y-103605614D01*
X155067000Y-103605614D01*
X155067001Y-104685242D01*
X154970200Y-104918941D01*
X154970200Y-105189859D01*
X155073876Y-105440156D01*
X155265444Y-105631724D01*
X155515741Y-105735400D01*
X155786659Y-105735400D01*
X156036956Y-105631724D01*
X156228524Y-105440156D01*
X156332200Y-105189859D01*
X156332200Y-104918941D01*
X156235400Y-104685244D01*
X156235400Y-103605614D01*
X156526200Y-103605614D01*
X156674859Y-103576044D01*
X156800886Y-103491836D01*
X156885094Y-103365809D01*
X156914664Y-103217150D01*
X156914664Y-102767150D01*
X156894773Y-102667150D01*
X156914664Y-102567150D01*
X156914664Y-102280950D01*
X157780758Y-102280950D01*
X157824514Y-102346436D01*
X157950541Y-102430644D01*
X158099200Y-102460214D01*
X159299200Y-102460214D01*
X159447859Y-102430644D01*
X159573886Y-102346436D01*
X159649200Y-102233720D01*
X159724514Y-102346436D01*
X159850541Y-102430644D01*
X159994601Y-102459299D01*
X159994600Y-104939244D01*
X159897800Y-105172941D01*
X159897800Y-105443859D01*
X160001476Y-105694156D01*
X160193044Y-105885724D01*
X160443341Y-105989400D01*
X160714259Y-105989400D01*
X160964556Y-105885724D01*
X161156124Y-105694156D01*
X161259800Y-105443859D01*
X161259800Y-105172941D01*
X161163000Y-104939244D01*
X161163000Y-102460214D01*
X161199200Y-102460214D01*
X161347859Y-102430644D01*
X161473886Y-102346436D01*
X161558094Y-102220409D01*
X161587664Y-102071750D01*
X161587664Y-101321750D01*
X161558094Y-101173091D01*
X161473886Y-101047064D01*
X161347859Y-100962856D01*
X161199200Y-100933286D01*
X159999200Y-100933286D01*
X159850541Y-100962856D01*
X159724514Y-101047064D01*
X159649200Y-101159780D01*
X159573886Y-101047064D01*
X159447859Y-100962856D01*
X159299200Y-100933286D01*
X158099200Y-100933286D01*
X157950541Y-100962856D01*
X157824514Y-101047064D01*
X157780758Y-101112550D01*
X156914664Y-101112550D01*
X156914664Y-100817150D01*
X156894773Y-100717150D01*
X156914664Y-100617150D01*
X156914664Y-100167150D01*
X156894773Y-100067150D01*
X156914664Y-99967150D01*
X156914664Y-99517150D01*
X156885094Y-99368491D01*
X156800886Y-99242464D01*
X156674859Y-99158256D01*
X156526200Y-99128686D01*
X154776200Y-99128686D01*
X154627541Y-99158256D01*
X154501514Y-99242464D01*
X154417306Y-99368491D01*
X154387736Y-99517150D01*
X154387736Y-99807950D01*
X153181915Y-99807950D01*
X153043459Y-99750600D01*
X152772541Y-99750600D01*
X152522244Y-99854276D01*
X152330676Y-100045844D01*
X152227000Y-100296141D01*
X152061801Y-100296141D01*
X152061801Y-96213937D01*
X152073246Y-96156401D01*
X152059810Y-96088857D01*
X152027905Y-95928458D01*
X151898786Y-95735216D01*
X151858025Y-95707981D01*
X151830790Y-95667220D01*
X151695234Y-95576645D01*
X150435737Y-94317150D01*
X154387736Y-94317150D01*
X154387736Y-94767150D01*
X154407627Y-94867150D01*
X154387736Y-94967150D01*
X154387736Y-95417150D01*
X154407627Y-95517150D01*
X154387736Y-95617150D01*
X154387736Y-96067150D01*
X154407627Y-96167150D01*
X154387736Y-96267150D01*
X154387736Y-96717150D01*
X154407627Y-96817150D01*
X154387736Y-96917150D01*
X154387736Y-97367150D01*
X154407627Y-97467150D01*
X154387736Y-97567150D01*
X154387736Y-98017150D01*
X154407627Y-98117150D01*
X154387736Y-98217150D01*
X154387736Y-98667150D01*
X154417306Y-98815809D01*
X154501514Y-98941836D01*
X154627541Y-99026044D01*
X154776200Y-99055614D01*
X156526200Y-99055614D01*
X156674859Y-99026044D01*
X156800886Y-98941836D01*
X156885094Y-98815809D01*
X156914664Y-98667150D01*
X156914664Y-98217150D01*
X156894773Y-98117150D01*
X156914664Y-98017150D01*
X156914664Y-97567150D01*
X156894773Y-97467150D01*
X156914664Y-97367150D01*
X156914664Y-96917150D01*
X156894773Y-96817150D01*
X156914664Y-96717150D01*
X156914664Y-96267150D01*
X156894773Y-96167150D01*
X156914664Y-96067150D01*
X156914664Y-95617150D01*
X156894773Y-95517150D01*
X156914664Y-95417150D01*
X156914664Y-94967150D01*
X156894773Y-94867150D01*
X156914664Y-94767150D01*
X156914664Y-94317150D01*
X156885094Y-94168491D01*
X156800886Y-94042464D01*
X156674859Y-93958256D01*
X156526200Y-93928686D01*
X154776200Y-93928686D01*
X154627541Y-93958256D01*
X154501514Y-94042464D01*
X154417306Y-94168491D01*
X154387736Y-94317150D01*
X150435737Y-94317150D01*
X150288335Y-94169749D01*
X150255739Y-94120965D01*
X150062497Y-93991846D01*
X149892091Y-93957950D01*
X149892090Y-93957950D01*
X149834554Y-93946505D01*
X149777018Y-93957950D01*
X149473321Y-93957950D01*
X149326200Y-93928686D01*
X147576200Y-93928686D01*
X147427541Y-93958256D01*
X147301514Y-94042464D01*
X147217306Y-94168491D01*
X147187736Y-94317150D01*
X147187736Y-94767150D01*
X147207627Y-94867150D01*
X147187736Y-94967150D01*
X147187736Y-95257950D01*
X146638136Y-95257950D01*
X146594486Y-95192622D01*
X146468459Y-95108414D01*
X146319800Y-95078844D01*
X145119800Y-95078844D01*
X144971141Y-95108414D01*
X144845114Y-95192622D01*
X144760906Y-95318649D01*
X144731336Y-95467308D01*
X141681200Y-95467308D01*
X141681200Y-94854430D01*
X142301631Y-94234000D01*
X142580559Y-94234000D01*
X142655602Y-94248927D01*
X142730645Y-94234000D01*
X142730650Y-94234000D01*
X142858345Y-94208600D01*
X143561957Y-94208600D01*
X143637000Y-94223527D01*
X143712043Y-94208600D01*
X143712048Y-94208600D01*
X143934317Y-94164388D01*
X144186371Y-93995971D01*
X144228883Y-93932347D01*
X147805750Y-90355481D01*
X147869371Y-90312971D01*
X148037788Y-90060917D01*
X148082000Y-89838648D01*
X148082000Y-89838647D01*
X148096928Y-89763600D01*
X148082000Y-89688553D01*
X148082000Y-79594447D01*
X148288989Y-79387458D01*
X148463000Y-78967357D01*
X148463000Y-78512643D01*
X148717000Y-78512643D01*
X148717000Y-78967357D01*
X148891011Y-79387458D01*
X149212542Y-79708989D01*
X149632643Y-79883000D01*
X150087357Y-79883000D01*
X150507458Y-79708989D01*
X150828989Y-79387458D01*
X151003000Y-78967357D01*
X151003000Y-78512643D01*
X151257000Y-78512643D01*
X151257000Y-78967357D01*
X151431011Y-79387458D01*
X151752542Y-79708989D01*
X152172643Y-79883000D01*
X152627357Y-79883000D01*
X153047458Y-79708989D01*
X153368989Y-79387458D01*
X153543000Y-78967357D01*
X153543000Y-78512643D01*
X153797000Y-78512643D01*
X153797000Y-78967357D01*
X153971011Y-79387458D01*
X154292542Y-79708989D01*
X154712643Y-79883000D01*
X155167357Y-79883000D01*
X155587458Y-79708989D01*
X155908989Y-79387458D01*
X156083000Y-78967357D01*
X156083000Y-78512643D01*
X158877000Y-78512643D01*
X158877000Y-78967357D01*
X159051011Y-79387458D01*
X159372542Y-79708989D01*
X159792643Y-79883000D01*
X160247357Y-79883000D01*
X160667458Y-79708989D01*
X160988989Y-79387458D01*
X161163000Y-78967357D01*
X161163000Y-78512643D01*
X161417000Y-78512643D01*
X161417000Y-78967357D01*
X161591011Y-79387458D01*
X161912542Y-79708989D01*
X162332643Y-79883000D01*
X162787357Y-79883000D01*
X163207458Y-79708989D01*
X163528989Y-79387458D01*
X163703000Y-78967357D01*
X163703000Y-78512643D01*
X163528989Y-78092542D01*
X163207458Y-77771011D01*
X162787357Y-77597000D01*
X162332643Y-77597000D01*
X161912542Y-77771011D01*
X161591011Y-78092542D01*
X161417000Y-78512643D01*
X161163000Y-78512643D01*
X160988989Y-78092542D01*
X160667458Y-77771011D01*
X160247357Y-77597000D01*
X159792643Y-77597000D01*
X159372542Y-77771011D01*
X159051011Y-78092542D01*
X158877000Y-78512643D01*
X156083000Y-78512643D01*
X155908989Y-78092542D01*
X155587458Y-77771011D01*
X155167357Y-77597000D01*
X154712643Y-77597000D01*
X154292542Y-77771011D01*
X153971011Y-78092542D01*
X153797000Y-78512643D01*
X153543000Y-78512643D01*
X153368989Y-78092542D01*
X153047458Y-77771011D01*
X152627357Y-77597000D01*
X152172643Y-77597000D01*
X151752542Y-77771011D01*
X151431011Y-78092542D01*
X151257000Y-78512643D01*
X151003000Y-78512643D01*
X150828989Y-78092542D01*
X150507458Y-77771011D01*
X150087357Y-77597000D01*
X149632643Y-77597000D01*
X149212542Y-77771011D01*
X148891011Y-78092542D01*
X148717000Y-78512643D01*
X148463000Y-78512643D01*
X148288989Y-78092542D01*
X147967458Y-77771011D01*
X147547357Y-77597000D01*
X147092643Y-77597000D01*
X146672542Y-77771011D01*
X146351011Y-78092542D01*
X146177000Y-78512643D01*
X146177000Y-78967357D01*
X146351011Y-79387458D01*
X146558001Y-79594448D01*
X146558000Y-89447969D01*
X143321370Y-92684600D01*
X142756044Y-92684600D01*
X142681001Y-92669673D01*
X142605958Y-92684600D01*
X142605954Y-92684600D01*
X142478259Y-92710000D01*
X142061042Y-92710000D01*
X141985999Y-92695073D01*
X141910956Y-92710000D01*
X141910952Y-92710000D01*
X141688683Y-92754212D01*
X141436629Y-92922629D01*
X141394118Y-92986251D01*
X140433451Y-93946919D01*
X140369830Y-93989429D01*
X140327319Y-94053051D01*
X140327318Y-94053052D01*
X140201413Y-94241483D01*
X140142273Y-94538800D01*
X140157201Y-94613848D01*
X140157200Y-100178757D01*
X140142273Y-100253800D01*
X140157200Y-100328843D01*
X140157200Y-100328847D01*
X140201412Y-100551116D01*
X140369829Y-100803171D01*
X140433453Y-100845683D01*
X143713201Y-104125432D01*
X143713200Y-108462350D01*
X143639650Y-108284784D01*
X143175216Y-107820350D01*
X142568404Y-107569000D01*
X141911596Y-107569000D01*
X141304784Y-107820350D01*
X140840350Y-108284784D01*
X140589000Y-108891596D01*
X140589000Y-109548404D01*
X140840350Y-110155216D01*
X141304784Y-110619650D01*
X141911596Y-110871000D01*
X142568404Y-110871000D01*
X143175216Y-110619650D01*
X143639650Y-110155216D01*
X143713200Y-109977650D01*
X143713200Y-110648487D01*
X141500251Y-112861437D01*
X141436630Y-112903947D01*
X141394119Y-112967569D01*
X141394118Y-112967570D01*
X141268213Y-113156001D01*
X141209073Y-113453318D01*
X141224001Y-113528366D01*
X141224001Y-116172136D01*
X140716000Y-116172136D01*
X140567341Y-116201706D01*
X140441314Y-116285914D01*
X140357106Y-116411941D01*
X140327536Y-116560600D01*
X140327536Y-122910600D01*
X140357106Y-123059259D01*
X140441314Y-123185286D01*
X140567341Y-123269494D01*
X140716000Y-123299064D01*
X141224000Y-123299064D01*
X141224000Y-123356969D01*
X140789400Y-123791570D01*
X140649229Y-123885229D01*
X140606718Y-123948851D01*
X139054170Y-125501400D01*
X128814231Y-125501400D01*
X127533400Y-124220570D01*
X127533400Y-123773042D01*
X127548327Y-123697999D01*
X127533400Y-123622956D01*
X127533400Y-123622952D01*
X127508000Y-123495257D01*
X127508000Y-123299064D01*
X128016000Y-123299064D01*
X128164659Y-123269494D01*
X128290686Y-123185286D01*
X128374894Y-123059259D01*
X128404464Y-122910600D01*
X128404464Y-116560600D01*
X128374894Y-116411941D01*
X128290686Y-116285914D01*
X128164659Y-116201706D01*
X128016000Y-116172136D01*
X125476000Y-116172136D01*
X125327341Y-116201706D01*
X125201314Y-116285914D01*
X125117106Y-116411941D01*
X125087536Y-116560600D01*
X125087536Y-122910600D01*
X125117106Y-123059259D01*
X125201314Y-123185286D01*
X125327341Y-123269494D01*
X125476000Y-123299064D01*
X125984001Y-123299064D01*
X125984001Y-123597552D01*
X125969073Y-123672600D01*
X126009400Y-123875338D01*
X126009400Y-124461157D01*
X125994473Y-124536200D01*
X126009400Y-124611243D01*
X126009400Y-124611248D01*
X126053613Y-124833517D01*
X126172863Y-125011987D01*
X126222030Y-125085571D01*
X126285651Y-125128081D01*
X127701569Y-126544000D01*
X125758688Y-126544000D01*
X125212633Y-126475017D01*
X124727772Y-126283047D01*
X124305885Y-125976529D01*
X123973481Y-125574722D01*
X123751444Y-125102870D01*
X123649660Y-124569295D01*
X123646000Y-124452837D01*
X123646000Y-108344600D01*
X125278936Y-108344600D01*
X125278936Y-110044600D01*
X125308506Y-110193259D01*
X125392714Y-110319286D01*
X125518741Y-110403494D01*
X125667400Y-110433064D01*
X127367400Y-110433064D01*
X127516059Y-110403494D01*
X127642086Y-110319286D01*
X127726294Y-110193259D01*
X127755864Y-110044600D01*
X127755864Y-108344600D01*
X127726294Y-108195941D01*
X127642086Y-108069914D01*
X127516059Y-107985706D01*
X127367400Y-107956136D01*
X125667400Y-107956136D01*
X125518741Y-107985706D01*
X125392714Y-108069914D01*
X125308506Y-108195941D01*
X125278936Y-108344600D01*
X123646000Y-108344600D01*
X123646000Y-104114600D01*
X125262284Y-104114600D01*
X125357824Y-104594912D01*
X125629899Y-105002101D01*
X126037088Y-105274176D01*
X126396161Y-105345600D01*
X126638639Y-105345600D01*
X126997712Y-105274176D01*
X127220507Y-105125309D01*
X126875168Y-105470649D01*
X126638639Y-105423600D01*
X126396161Y-105423600D01*
X126037088Y-105495024D01*
X125629899Y-105767099D01*
X125357824Y-106174288D01*
X125262284Y-106654600D01*
X125357824Y-107134912D01*
X125629899Y-107542101D01*
X126037088Y-107814176D01*
X126396161Y-107885600D01*
X126638639Y-107885600D01*
X126997712Y-107814176D01*
X127404901Y-107542101D01*
X127676976Y-107134912D01*
X127772516Y-106654600D01*
X127701351Y-106296832D01*
X128029384Y-105968800D01*
X129568461Y-105968800D01*
X129418122Y-106193797D01*
X129326463Y-106654600D01*
X129418122Y-107115403D01*
X129679147Y-107506053D01*
X130069797Y-107767078D01*
X130414282Y-107835600D01*
X130646918Y-107835600D01*
X130991403Y-107767078D01*
X131382053Y-107506053D01*
X131560626Y-107238800D01*
X132304230Y-107238800D01*
X132307106Y-107253259D01*
X132391314Y-107379286D01*
X132517341Y-107463494D01*
X132666000Y-107493064D01*
X133866000Y-107493064D01*
X134014659Y-107463494D01*
X134140686Y-107379286D01*
X134224894Y-107253259D01*
X134254464Y-107104600D01*
X134254464Y-106204600D01*
X134224894Y-106055941D01*
X134166669Y-105968800D01*
X134565331Y-105968800D01*
X134507106Y-106055941D01*
X134477536Y-106204600D01*
X134477536Y-107104600D01*
X134507106Y-107253259D01*
X134572738Y-107351484D01*
X134458057Y-107374296D01*
X134264815Y-107503415D01*
X134232222Y-107552194D01*
X133428281Y-108356136D01*
X132666000Y-108356136D01*
X132517341Y-108385706D01*
X132391314Y-108469914D01*
X132307106Y-108595941D01*
X132304230Y-108610400D01*
X131719064Y-108610400D01*
X131719064Y-108394600D01*
X131689494Y-108245941D01*
X131605286Y-108119914D01*
X131479259Y-108035706D01*
X131330600Y-108006136D01*
X129730600Y-108006136D01*
X129581941Y-108035706D01*
X129455914Y-108119914D01*
X129371706Y-108245941D01*
X129342136Y-108394600D01*
X129342136Y-109994600D01*
X129371706Y-110143259D01*
X129455914Y-110269286D01*
X129581941Y-110353494D01*
X129730600Y-110383064D01*
X131330600Y-110383064D01*
X131479259Y-110353494D01*
X131605286Y-110269286D01*
X131689494Y-110143259D01*
X131719064Y-109994600D01*
X131719064Y-109778800D01*
X132304230Y-109778800D01*
X132307106Y-109793259D01*
X132391314Y-109919286D01*
X132517341Y-110003494D01*
X132666000Y-110033064D01*
X133866000Y-110033064D01*
X134014659Y-110003494D01*
X134140686Y-109919286D01*
X134224894Y-109793259D01*
X134254464Y-109644600D01*
X134254464Y-109182319D01*
X134477536Y-108959247D01*
X134477536Y-109644600D01*
X134507106Y-109793259D01*
X134591314Y-109919286D01*
X134717341Y-110003494D01*
X134866000Y-110033064D01*
X134867674Y-110033064D01*
X134862555Y-110058800D01*
X134874000Y-110116337D01*
X134874001Y-111118259D01*
X134862555Y-111175800D01*
X134886908Y-111298225D01*
X134907897Y-111403743D01*
X135017142Y-111567241D01*
X135109476Y-111790156D01*
X135301044Y-111981724D01*
X135551341Y-112085400D01*
X135822259Y-112085400D01*
X136072556Y-111981724D01*
X136264124Y-111790156D01*
X136367800Y-111539859D01*
X136367800Y-111268941D01*
X136264124Y-111018644D01*
X136072556Y-110827076D01*
X136042400Y-110814585D01*
X136042400Y-110147750D01*
X136050200Y-110108537D01*
X136050200Y-110108536D01*
X136061645Y-110051000D01*
X136058077Y-110033064D01*
X136066000Y-110033064D01*
X136214659Y-110003494D01*
X136340686Y-109919286D01*
X136424894Y-109793259D01*
X136454464Y-109644600D01*
X136454464Y-108744600D01*
X136424894Y-108595941D01*
X136366669Y-108508800D01*
X137188461Y-108508800D01*
X137038122Y-108733797D01*
X136946463Y-109194600D01*
X137038122Y-109655403D01*
X137299147Y-110046053D01*
X137689797Y-110307078D01*
X138034282Y-110375600D01*
X138266918Y-110375600D01*
X138611403Y-110307078D01*
X139002053Y-110046053D01*
X139263078Y-109655403D01*
X139354737Y-109194600D01*
X139263078Y-108733797D01*
X139112739Y-108508800D01*
X139134464Y-108508800D01*
X139192000Y-108520245D01*
X139249536Y-108508800D01*
X139249537Y-108508800D01*
X139419943Y-108474904D01*
X139613185Y-108345785D01*
X139645781Y-108297001D01*
X140407776Y-107535007D01*
X140407778Y-107535004D01*
X141169776Y-106773007D01*
X141198258Y-106744525D01*
X141431956Y-106647724D01*
X141623524Y-106456156D01*
X141727200Y-106205859D01*
X141727200Y-105934941D01*
X141623524Y-105684644D01*
X141431956Y-105493076D01*
X141181659Y-105389400D01*
X141084664Y-105389400D01*
X141084664Y-105223741D01*
X140980988Y-104973444D01*
X140789420Y-104781876D01*
X140539123Y-104678200D01*
X140268205Y-104678200D01*
X140017908Y-104781876D01*
X139999384Y-104800400D01*
X139112739Y-104800400D01*
X139263078Y-104575403D01*
X139354737Y-104114600D01*
X139263078Y-103653797D01*
X139112739Y-103428800D01*
X140372244Y-103428800D01*
X140605941Y-103525600D01*
X140876859Y-103525600D01*
X141127156Y-103421924D01*
X141318724Y-103230356D01*
X141422400Y-102980059D01*
X141422400Y-102709141D01*
X141318724Y-102458844D01*
X141127156Y-102267276D01*
X140876859Y-102163600D01*
X140605941Y-102163600D01*
X140372244Y-102260400D01*
X139112739Y-102260400D01*
X139263078Y-102035403D01*
X139354737Y-101574600D01*
X139263078Y-101113797D01*
X139002053Y-100723147D01*
X138611403Y-100462122D01*
X138266918Y-100393600D01*
X138034282Y-100393600D01*
X137689797Y-100462122D01*
X137299147Y-100723147D01*
X137038122Y-101113797D01*
X136946463Y-101574600D01*
X137038122Y-102035403D01*
X137188461Y-102260400D01*
X135591935Y-102260400D01*
X135534399Y-102248955D01*
X135476863Y-102260400D01*
X131492739Y-102260400D01*
X131643078Y-102035403D01*
X131734737Y-101574600D01*
X131643078Y-101113797D01*
X131382053Y-100723147D01*
X130991403Y-100462122D01*
X130646918Y-100393600D01*
X130414282Y-100393600D01*
X130069797Y-100462122D01*
X129679147Y-100723147D01*
X129418122Y-101113797D01*
X129326463Y-101574600D01*
X129418122Y-102035403D01*
X129568461Y-102260400D01*
X127844935Y-102260400D01*
X127787399Y-102248955D01*
X127729863Y-102260400D01*
X127559457Y-102294296D01*
X127366215Y-102423415D01*
X127333620Y-102472197D01*
X127211794Y-102594024D01*
X126994997Y-102810821D01*
X126994991Y-102810825D01*
X126875168Y-102930648D01*
X126638639Y-102883600D01*
X126396161Y-102883600D01*
X126037088Y-102955024D01*
X125629899Y-103227099D01*
X125357824Y-103634288D01*
X125262284Y-104114600D01*
X123646000Y-104114600D01*
X123646000Y-99034600D01*
X129326463Y-99034600D01*
X129418122Y-99495403D01*
X129679147Y-99886053D01*
X130069797Y-100147078D01*
X130414282Y-100215600D01*
X130646918Y-100215600D01*
X130991403Y-100147078D01*
X131382053Y-99886053D01*
X131643078Y-99495403D01*
X131734737Y-99034600D01*
X136946463Y-99034600D01*
X137038122Y-99495403D01*
X137299147Y-99886053D01*
X137689797Y-100147078D01*
X138034282Y-100215600D01*
X138266918Y-100215600D01*
X138611403Y-100147078D01*
X139002053Y-99886053D01*
X139263078Y-99495403D01*
X139354737Y-99034600D01*
X139263078Y-98573797D01*
X139002053Y-98183147D01*
X138611403Y-97922122D01*
X138266918Y-97853600D01*
X138034282Y-97853600D01*
X137689797Y-97922122D01*
X137299147Y-98183147D01*
X137038122Y-98573797D01*
X136946463Y-99034600D01*
X131734737Y-99034600D01*
X131643078Y-98573797D01*
X131382053Y-98183147D01*
X130991403Y-97922122D01*
X130646918Y-97853600D01*
X130414282Y-97853600D01*
X130069797Y-97922122D01*
X129679147Y-98183147D01*
X129418122Y-98573797D01*
X129326463Y-99034600D01*
X123646000Y-99034600D01*
X123646000Y-96494600D01*
X129326463Y-96494600D01*
X129418122Y-96955403D01*
X129679147Y-97346053D01*
X130069797Y-97607078D01*
X130414282Y-97675600D01*
X130646918Y-97675600D01*
X130991403Y-97607078D01*
X131382053Y-97346053D01*
X131643078Y-96955403D01*
X131734737Y-96494600D01*
X136946463Y-96494600D01*
X137038122Y-96955403D01*
X137299147Y-97346053D01*
X137689797Y-97607078D01*
X138034282Y-97675600D01*
X138266918Y-97675600D01*
X138611403Y-97607078D01*
X139002053Y-97346053D01*
X139263078Y-96955403D01*
X139354737Y-96494600D01*
X139263078Y-96033797D01*
X139002053Y-95643147D01*
X138611403Y-95382122D01*
X138266918Y-95313600D01*
X138034282Y-95313600D01*
X137689797Y-95382122D01*
X137299147Y-95643147D01*
X137038122Y-96033797D01*
X136946463Y-96494600D01*
X131734737Y-96494600D01*
X131643078Y-96033797D01*
X131382053Y-95643147D01*
X130991403Y-95382122D01*
X130646918Y-95313600D01*
X130414282Y-95313600D01*
X130069797Y-95382122D01*
X129679147Y-95643147D01*
X129418122Y-96033797D01*
X129326463Y-96494600D01*
X123646000Y-96494600D01*
X123646000Y-93935200D01*
X125147936Y-93935200D01*
X125147936Y-94685200D01*
X125177506Y-94833859D01*
X125261714Y-94959886D01*
X125387741Y-95044094D01*
X125536400Y-95073664D01*
X126736400Y-95073664D01*
X126885059Y-95044094D01*
X127011086Y-94959886D01*
X127095294Y-94833859D01*
X127124864Y-94685200D01*
X127124864Y-93954600D01*
X129326463Y-93954600D01*
X129418122Y-94415403D01*
X129679147Y-94806053D01*
X130069797Y-95067078D01*
X130414282Y-95135600D01*
X130646918Y-95135600D01*
X130991403Y-95067078D01*
X131382053Y-94806053D01*
X131643078Y-94415403D01*
X131734737Y-93954600D01*
X131643078Y-93493797D01*
X131382053Y-93103147D01*
X130991403Y-92842122D01*
X130646918Y-92773600D01*
X130414282Y-92773600D01*
X130069797Y-92842122D01*
X129679147Y-93103147D01*
X129418122Y-93493797D01*
X129326463Y-93954600D01*
X127124864Y-93954600D01*
X127124864Y-93935200D01*
X127095294Y-93786541D01*
X127011086Y-93660514D01*
X126885059Y-93576306D01*
X126736400Y-93546736D01*
X125536400Y-93546736D01*
X125387741Y-93576306D01*
X125261714Y-93660514D01*
X125177506Y-93786541D01*
X125147936Y-93935200D01*
X123646000Y-93935200D01*
X123646000Y-91414600D01*
X136946463Y-91414600D01*
X137038122Y-91875403D01*
X137299147Y-92266053D01*
X137689797Y-92527078D01*
X138034282Y-92595600D01*
X138266918Y-92595600D01*
X138611403Y-92527078D01*
X139002053Y-92266053D01*
X139180626Y-91998800D01*
X139873758Y-91998800D01*
X139917514Y-92064286D01*
X140043541Y-92148494D01*
X140192200Y-92178064D01*
X141392200Y-92178064D01*
X141540859Y-92148494D01*
X141666886Y-92064286D01*
X141751094Y-91938259D01*
X141780664Y-91789600D01*
X141780664Y-91039600D01*
X141751094Y-90890941D01*
X141666886Y-90764914D01*
X141540859Y-90680706D01*
X141392200Y-90651136D01*
X140192200Y-90651136D01*
X140043541Y-90680706D01*
X139917514Y-90764914D01*
X139873758Y-90830400D01*
X139180626Y-90830400D01*
X139002053Y-90563147D01*
X138611403Y-90302122D01*
X138266918Y-90233600D01*
X138034282Y-90233600D01*
X137689797Y-90302122D01*
X137299147Y-90563147D01*
X137038122Y-90953797D01*
X136946463Y-91414600D01*
X123646000Y-91414600D01*
X123646000Y-88874600D01*
X129326463Y-88874600D01*
X129418122Y-89335403D01*
X129679147Y-89726053D01*
X130069797Y-89987078D01*
X130414282Y-90055600D01*
X130646918Y-90055600D01*
X130991403Y-89987078D01*
X131382053Y-89726053D01*
X131643078Y-89335403D01*
X131734737Y-88874600D01*
X136946463Y-88874600D01*
X137038122Y-89335403D01*
X137299147Y-89726053D01*
X137689797Y-89987078D01*
X138034282Y-90055600D01*
X138266918Y-90055600D01*
X138611403Y-89987078D01*
X139002053Y-89726053D01*
X139263078Y-89335403D01*
X139354737Y-88874600D01*
X139263078Y-88413797D01*
X139002053Y-88023147D01*
X138611403Y-87762122D01*
X138266918Y-87693600D01*
X138034282Y-87693600D01*
X137689797Y-87762122D01*
X137299147Y-88023147D01*
X137038122Y-88413797D01*
X136946463Y-88874600D01*
X131734737Y-88874600D01*
X131643078Y-88413797D01*
X131382053Y-88023147D01*
X130991403Y-87762122D01*
X130646918Y-87693600D01*
X130414282Y-87693600D01*
X130069797Y-87762122D01*
X129679147Y-88023147D01*
X129418122Y-88413797D01*
X129326463Y-88874600D01*
X123646000Y-88874600D01*
X123646000Y-86334600D01*
X129326463Y-86334600D01*
X129418122Y-86795403D01*
X129679147Y-87186053D01*
X130069797Y-87447078D01*
X130414282Y-87515600D01*
X130646918Y-87515600D01*
X130991403Y-87447078D01*
X131382053Y-87186053D01*
X131643078Y-86795403D01*
X131734737Y-86334600D01*
X136946463Y-86334600D01*
X137038122Y-86795403D01*
X137299147Y-87186053D01*
X137689797Y-87447078D01*
X138034282Y-87515600D01*
X138266918Y-87515600D01*
X138611403Y-87447078D01*
X139002053Y-87186053D01*
X139263078Y-86795403D01*
X139354737Y-86334600D01*
X139263078Y-85873797D01*
X139002053Y-85483147D01*
X138611403Y-85222122D01*
X138266918Y-85153600D01*
X138034282Y-85153600D01*
X137689797Y-85222122D01*
X137299147Y-85483147D01*
X137038122Y-85873797D01*
X136946463Y-86334600D01*
X131734737Y-86334600D01*
X131643078Y-85873797D01*
X131382053Y-85483147D01*
X130991403Y-85222122D01*
X130646918Y-85153600D01*
X130414282Y-85153600D01*
X130069797Y-85222122D01*
X129679147Y-85483147D01*
X129418122Y-85873797D01*
X129326463Y-86334600D01*
X123646000Y-86334600D01*
X123646000Y-83794600D01*
X129326463Y-83794600D01*
X129418122Y-84255403D01*
X129679147Y-84646053D01*
X130069797Y-84907078D01*
X130414282Y-84975600D01*
X130646918Y-84975600D01*
X130991403Y-84907078D01*
X131382053Y-84646053D01*
X131643078Y-84255403D01*
X131734737Y-83794600D01*
X131643078Y-83333797D01*
X131382053Y-82943147D01*
X130991403Y-82682122D01*
X130646918Y-82613600D01*
X130414282Y-82613600D01*
X130069797Y-82682122D01*
X129679147Y-82943147D01*
X129418122Y-83333797D01*
X129326463Y-83794600D01*
X123646000Y-83794600D01*
X123646000Y-81254600D01*
X129326463Y-81254600D01*
X129418122Y-81715403D01*
X129679147Y-82106053D01*
X130069797Y-82367078D01*
X130414282Y-82435600D01*
X130646918Y-82435600D01*
X130991403Y-82367078D01*
X131382053Y-82106053D01*
X131643078Y-81715403D01*
X131734737Y-81254600D01*
X131643078Y-80793797D01*
X131382053Y-80403147D01*
X130991403Y-80142122D01*
X130646918Y-80073600D01*
X130414282Y-80073600D01*
X130069797Y-80142122D01*
X129679147Y-80403147D01*
X129418122Y-80793797D01*
X129326463Y-81254600D01*
X123646000Y-81254600D01*
X123646000Y-78714600D01*
X129326463Y-78714600D01*
X129418122Y-79175403D01*
X129679147Y-79566053D01*
X130069797Y-79827078D01*
X130414282Y-79895600D01*
X130646918Y-79895600D01*
X130991403Y-79827078D01*
X131382053Y-79566053D01*
X131643078Y-79175403D01*
X131734737Y-78714600D01*
X131643078Y-78253797D01*
X131382053Y-77863147D01*
X130991403Y-77602122D01*
X130646918Y-77533600D01*
X130414282Y-77533600D01*
X130069797Y-77602122D01*
X129679147Y-77863147D01*
X129418122Y-78253797D01*
X129326463Y-78714600D01*
X123646000Y-78714600D01*
X123646000Y-75139200D01*
X125147936Y-75139200D01*
X125147936Y-75889200D01*
X125177506Y-76037859D01*
X125261714Y-76163886D01*
X125387741Y-76248094D01*
X125536400Y-76277664D01*
X126736400Y-76277664D01*
X126885059Y-76248094D01*
X126995051Y-76174600D01*
X129326463Y-76174600D01*
X129418122Y-76635403D01*
X129679147Y-77026053D01*
X130069797Y-77287078D01*
X130414282Y-77355600D01*
X130646918Y-77355600D01*
X130991403Y-77287078D01*
X131382053Y-77026053D01*
X131643078Y-76635403D01*
X131734737Y-76174600D01*
X136946463Y-76174600D01*
X137038122Y-76635403D01*
X137299147Y-77026053D01*
X137689797Y-77287078D01*
X138034282Y-77355600D01*
X138266918Y-77355600D01*
X138611403Y-77287078D01*
X139002053Y-77026053D01*
X139263078Y-76635403D01*
X139319000Y-76354262D01*
X139319000Y-78534940D01*
X139263078Y-78253797D01*
X139002053Y-77863147D01*
X138611403Y-77602122D01*
X138266918Y-77533600D01*
X138034282Y-77533600D01*
X137689797Y-77602122D01*
X137299147Y-77863147D01*
X137038122Y-78253797D01*
X136946463Y-78714600D01*
X137038122Y-79175403D01*
X137299147Y-79566053D01*
X137689797Y-79827078D01*
X138034282Y-79895600D01*
X138266918Y-79895600D01*
X138611403Y-79827078D01*
X139002053Y-79566053D01*
X139263078Y-79175403D01*
X139319001Y-78894260D01*
X139319001Y-81074941D01*
X139263078Y-80793797D01*
X139002053Y-80403147D01*
X138611403Y-80142122D01*
X138266918Y-80073600D01*
X138034282Y-80073600D01*
X137689797Y-80142122D01*
X137299147Y-80403147D01*
X137038122Y-80793797D01*
X136946463Y-81254600D01*
X137038122Y-81715403D01*
X137299147Y-82106053D01*
X137689797Y-82367078D01*
X138034282Y-82435600D01*
X138266918Y-82435600D01*
X138611403Y-82367078D01*
X139002053Y-82106053D01*
X139263078Y-81715403D01*
X139319001Y-81434259D01*
X139319001Y-83070016D01*
X139179822Y-83209196D01*
X139002053Y-82943147D01*
X138611403Y-82682122D01*
X138266918Y-82613600D01*
X138034282Y-82613600D01*
X137689797Y-82682122D01*
X137299147Y-82943147D01*
X137038122Y-83333797D01*
X136946463Y-83794600D01*
X137038122Y-84255403D01*
X137299147Y-84646053D01*
X137689797Y-84907078D01*
X138034282Y-84975600D01*
X138266918Y-84975600D01*
X138611403Y-84907078D01*
X139002053Y-84646053D01*
X139180626Y-84378800D01*
X139363064Y-84378800D01*
X139420600Y-84390245D01*
X139478136Y-84378800D01*
X139478137Y-84378800D01*
X139648543Y-84344904D01*
X139841785Y-84215785D01*
X139874381Y-84167001D01*
X140275606Y-83765778D01*
X140324385Y-83733185D01*
X140453504Y-83539943D01*
X140487400Y-83369537D01*
X140498845Y-83312001D01*
X140487400Y-83254465D01*
X140487400Y-78512643D01*
X141097000Y-78512643D01*
X141097000Y-78967357D01*
X141271011Y-79387458D01*
X141592542Y-79708989D01*
X142012643Y-79883000D01*
X142467357Y-79883000D01*
X142887458Y-79708989D01*
X143208989Y-79387458D01*
X143383000Y-78967357D01*
X143383000Y-78512643D01*
X143637000Y-78512643D01*
X143637000Y-78967357D01*
X143811011Y-79387458D01*
X144132542Y-79708989D01*
X144552643Y-79883000D01*
X145007357Y-79883000D01*
X145427458Y-79708989D01*
X145748989Y-79387458D01*
X145923000Y-78967357D01*
X145923000Y-78512643D01*
X145748989Y-78092542D01*
X145427458Y-77771011D01*
X145007357Y-77597000D01*
X144552643Y-77597000D01*
X144132542Y-77771011D01*
X143811011Y-78092542D01*
X143637000Y-78512643D01*
X143383000Y-78512643D01*
X143208989Y-78092542D01*
X142887458Y-77771011D01*
X142467357Y-77597000D01*
X142012643Y-77597000D01*
X141592542Y-77771011D01*
X141271011Y-78092542D01*
X141097000Y-78512643D01*
X140487400Y-78512643D01*
X140487400Y-74359183D01*
X140602383Y-74244200D01*
X143689558Y-74244200D01*
X143736408Y-74357306D01*
X144082694Y-74703592D01*
X144535139Y-74891000D01*
X145024861Y-74891000D01*
X145477306Y-74703592D01*
X145823592Y-74357306D01*
X146011000Y-73904861D01*
X146011000Y-73415139D01*
X146089000Y-73415139D01*
X146089000Y-73904861D01*
X146276408Y-74357306D01*
X146622694Y-74703592D01*
X147075139Y-74891000D01*
X147564861Y-74891000D01*
X148017306Y-74703592D01*
X148363592Y-74357306D01*
X148551000Y-73904861D01*
X148551000Y-73415139D01*
X148629000Y-73415139D01*
X148629000Y-73904861D01*
X148816408Y-74357306D01*
X149162694Y-74703592D01*
X149615139Y-74891000D01*
X150104861Y-74891000D01*
X150557306Y-74703592D01*
X150903592Y-74357306D01*
X151091000Y-73904861D01*
X151091000Y-73415139D01*
X150903592Y-72962694D01*
X150557306Y-72616408D01*
X150104861Y-72429000D01*
X149615139Y-72429000D01*
X149162694Y-72616408D01*
X148816408Y-72962694D01*
X148629000Y-73415139D01*
X148551000Y-73415139D01*
X148363592Y-72962694D01*
X148017306Y-72616408D01*
X147564861Y-72429000D01*
X147075139Y-72429000D01*
X146622694Y-72616408D01*
X146276408Y-72962694D01*
X146089000Y-73415139D01*
X146011000Y-73415139D01*
X145823592Y-72962694D01*
X145477306Y-72616408D01*
X145024861Y-72429000D01*
X144535139Y-72429000D01*
X144082694Y-72616408D01*
X143736408Y-72962694D01*
X143689558Y-73075800D01*
X140417935Y-73075800D01*
X140360399Y-73064355D01*
X140302863Y-73075800D01*
X140132457Y-73109696D01*
X139939215Y-73238815D01*
X139906622Y-73287594D01*
X139530798Y-73663419D01*
X139482015Y-73696015D01*
X139352896Y-73889258D01*
X139324422Y-74032408D01*
X139307555Y-74117200D01*
X139319000Y-74174736D01*
X139319000Y-75994938D01*
X139263078Y-75713797D01*
X139002053Y-75323147D01*
X138611403Y-75062122D01*
X138266918Y-74993600D01*
X138034282Y-74993600D01*
X137689797Y-75062122D01*
X137299147Y-75323147D01*
X137038122Y-75713797D01*
X136946463Y-76174600D01*
X131734737Y-76174600D01*
X131643078Y-75713797D01*
X131382053Y-75323147D01*
X130991403Y-75062122D01*
X130646918Y-74993600D01*
X130414282Y-74993600D01*
X130069797Y-75062122D01*
X129679147Y-75323147D01*
X129418122Y-75713797D01*
X129326463Y-76174600D01*
X126995051Y-76174600D01*
X127011086Y-76163886D01*
X127095294Y-76037859D01*
X127124864Y-75889200D01*
X127124864Y-75139200D01*
X127095294Y-74990541D01*
X127011086Y-74864514D01*
X126885059Y-74780306D01*
X126736400Y-74750736D01*
X125536400Y-74750736D01*
X125387741Y-74780306D01*
X125261714Y-74864514D01*
X125177506Y-74990541D01*
X125147936Y-75139200D01*
X123646000Y-75139200D01*
X123646000Y-73688687D01*
X123714983Y-73142633D01*
X123906952Y-72657773D01*
X124213473Y-72235883D01*
X124615278Y-71903481D01*
X125087128Y-71681445D01*
X125620706Y-71579660D01*
X125737163Y-71576000D01*
X163801313Y-71576000D01*
X164347367Y-71644983D01*
X164347367Y-71644983D01*
G37*
X164347367Y-71644983D02*
X164832227Y-71836952D01*
X165254117Y-72143473D01*
X165586519Y-72545278D01*
X165808555Y-73017128D01*
X165910340Y-73550706D01*
X165914001Y-73667195D01*
X165914000Y-124431312D01*
X165845017Y-124977367D01*
X165653047Y-125462228D01*
X165346529Y-125884115D01*
X164944722Y-126216519D01*
X164472870Y-126438556D01*
X163939295Y-126540340D01*
X163822837Y-126544000D01*
X140166830Y-126544000D01*
X141633202Y-125077629D01*
X141773371Y-124983971D01*
X141815883Y-124920347D01*
X142471750Y-124264481D01*
X142535371Y-124221971D01*
X142539935Y-124215139D01*
X148629000Y-124215139D01*
X148629000Y-124704861D01*
X148816408Y-125157306D01*
X149162694Y-125503592D01*
X149615139Y-125691000D01*
X150104861Y-125691000D01*
X150557306Y-125503592D01*
X150903592Y-125157306D01*
X151091000Y-124704861D01*
X151091000Y-124215139D01*
X150903592Y-123762694D01*
X150557306Y-123416408D01*
X150104861Y-123229000D01*
X149615139Y-123229000D01*
X149162694Y-123416408D01*
X148816408Y-123762694D01*
X148629000Y-124215139D01*
X142539935Y-124215139D01*
X142703788Y-123969917D01*
X142748000Y-123747648D01*
X142748000Y-123747647D01*
X142762928Y-123672600D01*
X142748000Y-123597553D01*
X142748000Y-123299064D01*
X143256000Y-123299064D01*
X143404659Y-123269494D01*
X143530686Y-123185286D01*
X143614894Y-123059259D01*
X143644464Y-122910600D01*
X143644464Y-121348804D01*
X155159360Y-121348804D01*
X155159360Y-121679396D01*
X155285872Y-121984824D01*
X155519636Y-122218588D01*
X155825064Y-122345100D01*
X156155656Y-122345100D01*
X156461084Y-122218588D01*
X156694848Y-121984824D01*
X156821360Y-121679396D01*
X156821360Y-121348804D01*
X159559360Y-121348804D01*
X159559360Y-121679396D01*
X159685872Y-121984824D01*
X159919636Y-122218588D01*
X160225064Y-122345100D01*
X160555656Y-122345100D01*
X160861084Y-122218588D01*
X161094848Y-121984824D01*
X161221360Y-121679396D01*
X161221360Y-121348804D01*
X161094848Y-121043376D01*
X160861084Y-120809612D01*
X160555656Y-120683100D01*
X160225064Y-120683100D01*
X159919636Y-120809612D01*
X159685872Y-121043376D01*
X159559360Y-121348804D01*
X156821360Y-121348804D01*
X156694848Y-121043376D01*
X156461084Y-120809612D01*
X156155656Y-120683100D01*
X155825064Y-120683100D01*
X155519636Y-120809612D01*
X155285872Y-121043376D01*
X155159360Y-121348804D01*
X143644464Y-121348804D01*
X143644464Y-116560600D01*
X143614894Y-116411941D01*
X143530686Y-116285914D01*
X143404659Y-116201706D01*
X143256000Y-116172136D01*
X142748000Y-116172136D01*
X142748000Y-113768948D01*
X144960950Y-111555999D01*
X145024571Y-111513489D01*
X145097901Y-111403743D01*
X145192987Y-111261437D01*
X145192987Y-111261436D01*
X145192988Y-111261435D01*
X145211800Y-111166859D01*
X145211800Y-117842444D01*
X145115000Y-118076141D01*
X145115000Y-118347059D01*
X145218676Y-118597356D01*
X145410244Y-118788924D01*
X145660541Y-118892600D01*
X145931459Y-118892600D01*
X146181756Y-118788924D01*
X146373324Y-118597356D01*
X146477000Y-118347059D01*
X146477000Y-118076141D01*
X146380200Y-117842444D01*
X146380200Y-116352600D01*
X146642659Y-116352600D01*
X146892956Y-116248924D01*
X147084524Y-116057356D01*
X147188200Y-115807059D01*
X147188200Y-115536141D01*
X147091400Y-115302444D01*
X147091400Y-113538000D01*
X154378686Y-113538000D01*
X154474226Y-114018312D01*
X154746301Y-114425501D01*
X155153490Y-114697576D01*
X155512563Y-114769000D01*
X155755041Y-114769000D01*
X156114114Y-114697576D01*
X156521303Y-114425501D01*
X156793378Y-114018312D01*
X156888918Y-113538000D01*
X156918686Y-113538000D01*
X157014226Y-114018312D01*
X157286301Y-114425501D01*
X157693490Y-114697576D01*
X158052563Y-114769000D01*
X158295041Y-114769000D01*
X158654114Y-114697576D01*
X159061303Y-114425501D01*
X159333378Y-114018312D01*
X159428918Y-113538000D01*
X159458686Y-113538000D01*
X159554226Y-114018312D01*
X159826301Y-114425501D01*
X160233490Y-114697576D01*
X160592563Y-114769000D01*
X160835041Y-114769000D01*
X161194114Y-114697576D01*
X161601303Y-114425501D01*
X161873378Y-114018312D01*
X161968918Y-113538000D01*
X161873378Y-113057688D01*
X161626361Y-112688000D01*
X162015338Y-112688000D01*
X162015338Y-114388000D01*
X162044908Y-114536659D01*
X162129116Y-114662686D01*
X162255143Y-114746894D01*
X162403802Y-114776464D01*
X164103802Y-114776464D01*
X164252461Y-114746894D01*
X164378488Y-114662686D01*
X164462696Y-114536659D01*
X164492266Y-114388000D01*
X164492266Y-112688000D01*
X164462696Y-112539341D01*
X164378488Y-112413314D01*
X164252461Y-112329106D01*
X164103802Y-112299536D01*
X162403802Y-112299536D01*
X162255143Y-112329106D01*
X162129116Y-112413314D01*
X162044908Y-112539341D01*
X162015338Y-112688000D01*
X161626361Y-112688000D01*
X161601303Y-112650499D01*
X161194114Y-112378424D01*
X160835041Y-112307000D01*
X160592563Y-112307000D01*
X160233490Y-112378424D01*
X159826301Y-112650499D01*
X159554226Y-113057688D01*
X159458686Y-113538000D01*
X159428918Y-113538000D01*
X159333378Y-113057688D01*
X159061303Y-112650499D01*
X158654114Y-112378424D01*
X158295041Y-112307000D01*
X158052563Y-112307000D01*
X157693490Y-112378424D01*
X157286301Y-112650499D01*
X157014226Y-113057688D01*
X156918686Y-113538000D01*
X156888918Y-113538000D01*
X156793378Y-113057688D01*
X156521303Y-112650499D01*
X156114114Y-112378424D01*
X155755041Y-112307000D01*
X155512563Y-112307000D01*
X155153490Y-112378424D01*
X154746301Y-112650499D01*
X154474226Y-113057688D01*
X154378686Y-113538000D01*
X147091400Y-113538000D01*
X147091400Y-102117150D01*
X147187736Y-102117150D01*
X147187736Y-102567150D01*
X147207627Y-102667150D01*
X147187736Y-102767150D01*
X147187736Y-103217150D01*
X147217306Y-103365809D01*
X147301514Y-103491836D01*
X147427541Y-103576044D01*
X147576200Y-103605614D01*
X149326200Y-103605614D01*
X149474859Y-103576044D01*
X149600886Y-103491836D01*
X149685094Y-103365809D01*
X149714664Y-103217150D01*
X149714664Y-102767150D01*
X149694773Y-102667150D01*
X149714664Y-102567150D01*
X149714664Y-102117150D01*
X149685094Y-101968491D01*
X149600886Y-101842464D01*
X149474859Y-101758256D01*
X149326200Y-101728686D01*
X147576200Y-101728686D01*
X147427541Y-101758256D01*
X147301514Y-101842464D01*
X147217306Y-101968491D01*
X147187736Y-102117150D01*
X147091400Y-102117150D01*
X147091400Y-100419583D01*
X147184633Y-100326350D01*
X147187736Y-100326350D01*
X147187736Y-100617150D01*
X147217306Y-100765809D01*
X147301514Y-100891836D01*
X147427541Y-100976044D01*
X147576200Y-101005614D01*
X149326200Y-101005614D01*
X149474859Y-100976044D01*
X149600886Y-100891836D01*
X149685094Y-100765809D01*
X149714664Y-100617150D01*
X149714664Y-100167150D01*
X149694773Y-100067150D01*
X149714664Y-99967150D01*
X149714664Y-99517150D01*
X149694773Y-99417150D01*
X149714664Y-99317150D01*
X149714664Y-98867150D01*
X149685094Y-98718491D01*
X149600886Y-98592464D01*
X149474859Y-98508256D01*
X149326200Y-98478686D01*
X147576200Y-98478686D01*
X147429079Y-98507950D01*
X146380187Y-98507950D01*
X146322650Y-98496505D01*
X146260538Y-98508860D01*
X146270104Y-98494543D01*
X146304000Y-98324137D01*
X146304000Y-98324136D01*
X146315445Y-98266600D01*
X146311877Y-98248664D01*
X146319800Y-98248664D01*
X146468459Y-98219094D01*
X146594486Y-98134886D01*
X146638242Y-98069400D01*
X147198129Y-98069400D01*
X147217306Y-98165809D01*
X147301514Y-98291836D01*
X147427541Y-98376044D01*
X147576200Y-98405614D01*
X149326200Y-98405614D01*
X149474859Y-98376044D01*
X149600886Y-98291836D01*
X149685094Y-98165809D01*
X149714664Y-98017150D01*
X149714664Y-97567150D01*
X149694773Y-97467150D01*
X149714664Y-97367150D01*
X149714664Y-96917150D01*
X149685094Y-96768491D01*
X149600886Y-96642464D01*
X149474859Y-96558256D01*
X149326200Y-96528686D01*
X147576200Y-96528686D01*
X147427541Y-96558256D01*
X147301514Y-96642464D01*
X147217306Y-96768491D01*
X147190948Y-96901000D01*
X146638242Y-96901000D01*
X146594486Y-96835514D01*
X146468459Y-96751306D01*
X146319800Y-96721736D01*
X145119800Y-96721736D01*
X144971141Y-96751306D01*
X144845114Y-96835514D01*
X144760906Y-96961541D01*
X144731336Y-97110200D01*
X144731336Y-97860200D01*
X144760906Y-98008859D01*
X144845114Y-98134886D01*
X144953147Y-98207071D01*
X144887618Y-98272600D01*
X143040783Y-98272600D01*
X142722600Y-97954418D01*
X142722600Y-96685956D01*
X142819400Y-96452259D01*
X142819400Y-96181341D01*
X142715724Y-95931044D01*
X142524156Y-95739476D01*
X142273859Y-95635800D01*
X142002941Y-95635800D01*
X141752644Y-95739476D01*
X141681200Y-95810920D01*
X141681200Y-95467308D01*
X144731336Y-95467308D01*
X144731336Y-96217308D01*
X144760906Y-96365967D01*
X144845114Y-96491994D01*
X144971141Y-96576202D01*
X145119800Y-96605772D01*
X146319800Y-96605772D01*
X146468459Y-96576202D01*
X146594486Y-96491994D01*
X146638348Y-96426350D01*
X147429079Y-96426350D01*
X147576200Y-96455614D01*
X149326200Y-96455614D01*
X149474859Y-96426044D01*
X149600886Y-96341836D01*
X149685094Y-96215809D01*
X149708213Y-96099584D01*
X149741593Y-96132964D01*
X149741596Y-96132966D01*
X150190200Y-96581571D01*
X150190201Y-110222442D01*
X150093400Y-110456141D01*
X150093400Y-110727059D01*
X150197076Y-110977356D01*
X150388644Y-111168924D01*
X150638941Y-111272600D01*
X150893402Y-111272600D01*
X150893402Y-111694460D01*
X150881956Y-111752001D01*
X150922277Y-111954703D01*
X150927298Y-111979944D01*
X151056417Y-112173186D01*
X151105198Y-112205780D01*
X151253796Y-112354378D01*
X151314676Y-112501356D01*
X151506244Y-112692924D01*
X151756541Y-112796600D01*
X152027459Y-112796600D01*
X152277756Y-112692924D01*
X152469324Y-112501356D01*
X152573000Y-112251059D01*
X152573000Y-111980141D01*
X152469324Y-111729844D01*
X152277756Y-111538276D01*
X152061801Y-111448825D01*
X152061801Y-108891596D01*
X160909000Y-108891596D01*
X160909000Y-109548404D01*
X161160350Y-110155216D01*
X161624784Y-110619650D01*
X162231596Y-110871000D01*
X162888404Y-110871000D01*
X163495216Y-110619650D01*
X163959650Y-110155216D01*
X164211000Y-109548404D01*
X164211000Y-108891596D01*
X163959650Y-108284784D01*
X163495216Y-107820350D01*
X162888404Y-107569000D01*
X162231596Y-107569000D01*
X161624784Y-107820350D01*
X161160350Y-108284784D01*
X160909000Y-108891596D01*
X152061801Y-108891596D01*
X152061801Y-100296141D01*
X152227000Y-100296141D01*
X152227000Y-100567059D01*
X152330676Y-100817356D01*
X152522244Y-101008924D01*
X152772541Y-101112600D01*
X153043459Y-101112600D01*
X153293756Y-101008924D01*
X153326330Y-100976350D01*
X154387736Y-100976350D01*
X154387736Y-101113950D01*
X154247495Y-101141846D01*
X154054253Y-101270965D01*
X154021658Y-101319747D01*
X153703999Y-101637407D01*
X153655215Y-101670003D01*
X153526096Y-101863246D01*
X153494014Y-102024534D01*
X153480755Y-102091188D01*
X153492200Y-102148724D01*
X153492201Y-106430016D01*
X153357541Y-106564676D01*
X153123844Y-106661476D01*
X152932276Y-106853044D01*
X152828600Y-107103341D01*
X152828600Y-107374259D01*
X152932276Y-107624556D01*
X153123844Y-107816124D01*
X153374141Y-107919800D01*
X153645059Y-107919800D01*
X153895356Y-107816124D01*
X154086924Y-107624556D01*
X154183724Y-107390859D01*
X154448806Y-107125778D01*
X154497585Y-107093185D01*
X154626704Y-106899943D01*
X154660600Y-106729537D01*
X154672045Y-106672001D01*
X154660600Y-106614465D01*
X154660600Y-103582620D01*
X154776200Y-103605614D01*
X155067000Y-103605614D01*
X155067001Y-104685242D01*
X154970200Y-104918941D01*
X154970200Y-105189859D01*
X155073876Y-105440156D01*
X155265444Y-105631724D01*
X155515741Y-105735400D01*
X155786659Y-105735400D01*
X156036956Y-105631724D01*
X156228524Y-105440156D01*
X156332200Y-105189859D01*
X156332200Y-104918941D01*
X156235400Y-104685244D01*
X156235400Y-103605614D01*
X156526200Y-103605614D01*
X156674859Y-103576044D01*
X156800886Y-103491836D01*
X156885094Y-103365809D01*
X156914664Y-103217150D01*
X156914664Y-102767150D01*
X156894773Y-102667150D01*
X156914664Y-102567150D01*
X156914664Y-102280950D01*
X157780758Y-102280950D01*
X157824514Y-102346436D01*
X157950541Y-102430644D01*
X158099200Y-102460214D01*
X159299200Y-102460214D01*
X159447859Y-102430644D01*
X159573886Y-102346436D01*
X159649200Y-102233720D01*
X159724514Y-102346436D01*
X159850541Y-102430644D01*
X159994601Y-102459299D01*
X159994600Y-104939244D01*
X159897800Y-105172941D01*
X159897800Y-105443859D01*
X160001476Y-105694156D01*
X160193044Y-105885724D01*
X160443341Y-105989400D01*
X160714259Y-105989400D01*
X160964556Y-105885724D01*
X161156124Y-105694156D01*
X161259800Y-105443859D01*
X161259800Y-105172941D01*
X161163000Y-104939244D01*
X161163000Y-102460214D01*
X161199200Y-102460214D01*
X161347859Y-102430644D01*
X161473886Y-102346436D01*
X161558094Y-102220409D01*
X161587664Y-102071750D01*
X161587664Y-101321750D01*
X161558094Y-101173091D01*
X161473886Y-101047064D01*
X161347859Y-100962856D01*
X161199200Y-100933286D01*
X159999200Y-100933286D01*
X159850541Y-100962856D01*
X159724514Y-101047064D01*
X159649200Y-101159780D01*
X159573886Y-101047064D01*
X159447859Y-100962856D01*
X159299200Y-100933286D01*
X158099200Y-100933286D01*
X157950541Y-100962856D01*
X157824514Y-101047064D01*
X157780758Y-101112550D01*
X156914664Y-101112550D01*
X156914664Y-100817150D01*
X156894773Y-100717150D01*
X156914664Y-100617150D01*
X156914664Y-100167150D01*
X156894773Y-100067150D01*
X156914664Y-99967150D01*
X156914664Y-99517150D01*
X156885094Y-99368491D01*
X156800886Y-99242464D01*
X156674859Y-99158256D01*
X156526200Y-99128686D01*
X154776200Y-99128686D01*
X154627541Y-99158256D01*
X154501514Y-99242464D01*
X154417306Y-99368491D01*
X154387736Y-99517150D01*
X154387736Y-99807950D01*
X153181915Y-99807950D01*
X153043459Y-99750600D01*
X152772541Y-99750600D01*
X152522244Y-99854276D01*
X152330676Y-100045844D01*
X152227000Y-100296141D01*
X152061801Y-100296141D01*
X152061801Y-96213937D01*
X152073246Y-96156401D01*
X152059810Y-96088857D01*
X152027905Y-95928458D01*
X151898786Y-95735216D01*
X151858025Y-95707981D01*
X151830790Y-95667220D01*
X151695234Y-95576645D01*
X150435737Y-94317150D01*
X154387736Y-94317150D01*
X154387736Y-94767150D01*
X154407627Y-94867150D01*
X154387736Y-94967150D01*
X154387736Y-95417150D01*
X154407627Y-95517150D01*
X154387736Y-95617150D01*
X154387736Y-96067150D01*
X154407627Y-96167150D01*
X154387736Y-96267150D01*
X154387736Y-96717150D01*
X154407627Y-96817150D01*
X154387736Y-96917150D01*
X154387736Y-97367150D01*
X154407627Y-97467150D01*
X154387736Y-97567150D01*
X154387736Y-98017150D01*
X154407627Y-98117150D01*
X154387736Y-98217150D01*
X154387736Y-98667150D01*
X154417306Y-98815809D01*
X154501514Y-98941836D01*
X154627541Y-99026044D01*
X154776200Y-99055614D01*
X156526200Y-99055614D01*
X156674859Y-99026044D01*
X156800886Y-98941836D01*
X156885094Y-98815809D01*
X156914664Y-98667150D01*
X156914664Y-98217150D01*
X156894773Y-98117150D01*
X156914664Y-98017150D01*
X156914664Y-97567150D01*
X156894773Y-97467150D01*
X156914664Y-97367150D01*
X156914664Y-96917150D01*
X156894773Y-96817150D01*
X156914664Y-96717150D01*
X156914664Y-96267150D01*
X156894773Y-96167150D01*
X156914664Y-96067150D01*
X156914664Y-95617150D01*
X156894773Y-95517150D01*
X156914664Y-95417150D01*
X156914664Y-94967150D01*
X156894773Y-94867150D01*
X156914664Y-94767150D01*
X156914664Y-94317150D01*
X156885094Y-94168491D01*
X156800886Y-94042464D01*
X156674859Y-93958256D01*
X156526200Y-93928686D01*
X154776200Y-93928686D01*
X154627541Y-93958256D01*
X154501514Y-94042464D01*
X154417306Y-94168491D01*
X154387736Y-94317150D01*
X150435737Y-94317150D01*
X150288335Y-94169749D01*
X150255739Y-94120965D01*
X150062497Y-93991846D01*
X149892091Y-93957950D01*
X149892090Y-93957950D01*
X149834554Y-93946505D01*
X149777018Y-93957950D01*
X149473321Y-93957950D01*
X149326200Y-93928686D01*
X147576200Y-93928686D01*
X147427541Y-93958256D01*
X147301514Y-94042464D01*
X147217306Y-94168491D01*
X147187736Y-94317150D01*
X147187736Y-94767150D01*
X147207627Y-94867150D01*
X147187736Y-94967150D01*
X147187736Y-95257950D01*
X146638136Y-95257950D01*
X146594486Y-95192622D01*
X146468459Y-95108414D01*
X146319800Y-95078844D01*
X145119800Y-95078844D01*
X144971141Y-95108414D01*
X144845114Y-95192622D01*
X144760906Y-95318649D01*
X144731336Y-95467308D01*
X141681200Y-95467308D01*
X141681200Y-94854430D01*
X142301631Y-94234000D01*
X142580559Y-94234000D01*
X142655602Y-94248927D01*
X142730645Y-94234000D01*
X142730650Y-94234000D01*
X142858345Y-94208600D01*
X143561957Y-94208600D01*
X143637000Y-94223527D01*
X143712043Y-94208600D01*
X143712048Y-94208600D01*
X143934317Y-94164388D01*
X144186371Y-93995971D01*
X144228883Y-93932347D01*
X147805750Y-90355481D01*
X147869371Y-90312971D01*
X148037788Y-90060917D01*
X148082000Y-89838648D01*
X148082000Y-89838647D01*
X148096928Y-89763600D01*
X148082000Y-89688553D01*
X148082000Y-79594447D01*
X148288989Y-79387458D01*
X148463000Y-78967357D01*
X148463000Y-78512643D01*
X148717000Y-78512643D01*
X148717000Y-78967357D01*
X148891011Y-79387458D01*
X149212542Y-79708989D01*
X149632643Y-79883000D01*
X150087357Y-79883000D01*
X150507458Y-79708989D01*
X150828989Y-79387458D01*
X151003000Y-78967357D01*
X151003000Y-78512643D01*
X151257000Y-78512643D01*
X151257000Y-78967357D01*
X151431011Y-79387458D01*
X151752542Y-79708989D01*
X152172643Y-79883000D01*
X152627357Y-79883000D01*
X153047458Y-79708989D01*
X153368989Y-79387458D01*
X153543000Y-78967357D01*
X153543000Y-78512643D01*
X153797000Y-78512643D01*
X153797000Y-78967357D01*
X153971011Y-79387458D01*
X154292542Y-79708989D01*
X154712643Y-79883000D01*
X155167357Y-79883000D01*
X155587458Y-79708989D01*
X155908989Y-79387458D01*
X156083000Y-78967357D01*
X156083000Y-78512643D01*
X158877000Y-78512643D01*
X158877000Y-78967357D01*
X159051011Y-79387458D01*
X159372542Y-79708989D01*
X159792643Y-79883000D01*
X160247357Y-79883000D01*
X160667458Y-79708989D01*
X160988989Y-79387458D01*
X161163000Y-78967357D01*
X161163000Y-78512643D01*
X161417000Y-78512643D01*
X161417000Y-78967357D01*
X161591011Y-79387458D01*
X161912542Y-79708989D01*
X162332643Y-79883000D01*
X162787357Y-79883000D01*
X163207458Y-79708989D01*
X163528989Y-79387458D01*
X163703000Y-78967357D01*
X163703000Y-78512643D01*
X163528989Y-78092542D01*
X163207458Y-77771011D01*
X162787357Y-77597000D01*
X162332643Y-77597000D01*
X161912542Y-77771011D01*
X161591011Y-78092542D01*
X161417000Y-78512643D01*
X161163000Y-78512643D01*
X160988989Y-78092542D01*
X160667458Y-77771011D01*
X160247357Y-77597000D01*
X159792643Y-77597000D01*
X159372542Y-77771011D01*
X159051011Y-78092542D01*
X158877000Y-78512643D01*
X156083000Y-78512643D01*
X155908989Y-78092542D01*
X155587458Y-77771011D01*
X155167357Y-77597000D01*
X154712643Y-77597000D01*
X154292542Y-77771011D01*
X153971011Y-78092542D01*
X153797000Y-78512643D01*
X153543000Y-78512643D01*
X153368989Y-78092542D01*
X153047458Y-77771011D01*
X152627357Y-77597000D01*
X152172643Y-77597000D01*
X151752542Y-77771011D01*
X151431011Y-78092542D01*
X151257000Y-78512643D01*
X151003000Y-78512643D01*
X150828989Y-78092542D01*
X150507458Y-77771011D01*
X150087357Y-77597000D01*
X149632643Y-77597000D01*
X149212542Y-77771011D01*
X148891011Y-78092542D01*
X148717000Y-78512643D01*
X148463000Y-78512643D01*
X148288989Y-78092542D01*
X147967458Y-77771011D01*
X147547357Y-77597000D01*
X147092643Y-77597000D01*
X146672542Y-77771011D01*
X146351011Y-78092542D01*
X146177000Y-78512643D01*
X146177000Y-78967357D01*
X146351011Y-79387458D01*
X146558001Y-79594448D01*
X146558000Y-89447969D01*
X143321370Y-92684600D01*
X142756044Y-92684600D01*
X142681001Y-92669673D01*
X142605958Y-92684600D01*
X142605954Y-92684600D01*
X142478259Y-92710000D01*
X142061042Y-92710000D01*
X141985999Y-92695073D01*
X141910956Y-92710000D01*
X141910952Y-92710000D01*
X141688683Y-92754212D01*
X141436629Y-92922629D01*
X141394118Y-92986251D01*
X140433451Y-93946919D01*
X140369830Y-93989429D01*
X140327319Y-94053051D01*
X140327318Y-94053052D01*
X140201413Y-94241483D01*
X140142273Y-94538800D01*
X140157201Y-94613848D01*
X140157200Y-100178757D01*
X140142273Y-100253800D01*
X140157200Y-100328843D01*
X140157200Y-100328847D01*
X140201412Y-100551116D01*
X140369829Y-100803171D01*
X140433453Y-100845683D01*
X143713201Y-104125432D01*
X143713200Y-108462350D01*
X143639650Y-108284784D01*
X143175216Y-107820350D01*
X142568404Y-107569000D01*
X141911596Y-107569000D01*
X141304784Y-107820350D01*
X140840350Y-108284784D01*
X140589000Y-108891596D01*
X140589000Y-109548404D01*
X140840350Y-110155216D01*
X141304784Y-110619650D01*
X141911596Y-110871000D01*
X142568404Y-110871000D01*
X143175216Y-110619650D01*
X143639650Y-110155216D01*
X143713200Y-109977650D01*
X143713200Y-110648487D01*
X141500251Y-112861437D01*
X141436630Y-112903947D01*
X141394119Y-112967569D01*
X141394118Y-112967570D01*
X141268213Y-113156001D01*
X141209073Y-113453318D01*
X141224001Y-113528366D01*
X141224001Y-116172136D01*
X140716000Y-116172136D01*
X140567341Y-116201706D01*
X140441314Y-116285914D01*
X140357106Y-116411941D01*
X140327536Y-116560600D01*
X140327536Y-122910600D01*
X140357106Y-123059259D01*
X140441314Y-123185286D01*
X140567341Y-123269494D01*
X140716000Y-123299064D01*
X141224000Y-123299064D01*
X141224000Y-123356969D01*
X140789400Y-123791570D01*
X140649229Y-123885229D01*
X140606718Y-123948851D01*
X139054170Y-125501400D01*
X128814231Y-125501400D01*
X127533400Y-124220570D01*
X127533400Y-123773042D01*
X127548327Y-123697999D01*
X127533400Y-123622956D01*
X127533400Y-123622952D01*
X127508000Y-123495257D01*
X127508000Y-123299064D01*
X128016000Y-123299064D01*
X128164659Y-123269494D01*
X128290686Y-123185286D01*
X128374894Y-123059259D01*
X128404464Y-122910600D01*
X128404464Y-116560600D01*
X128374894Y-116411941D01*
X128290686Y-116285914D01*
X128164659Y-116201706D01*
X128016000Y-116172136D01*
X125476000Y-116172136D01*
X125327341Y-116201706D01*
X125201314Y-116285914D01*
X125117106Y-116411941D01*
X125087536Y-116560600D01*
X125087536Y-122910600D01*
X125117106Y-123059259D01*
X125201314Y-123185286D01*
X125327341Y-123269494D01*
X125476000Y-123299064D01*
X125984001Y-123299064D01*
X125984001Y-123597552D01*
X125969073Y-123672600D01*
X126009400Y-123875338D01*
X126009400Y-124461157D01*
X125994473Y-124536200D01*
X126009400Y-124611243D01*
X126009400Y-124611248D01*
X126053613Y-124833517D01*
X126172863Y-125011987D01*
X126222030Y-125085571D01*
X126285651Y-125128081D01*
X127701569Y-126544000D01*
X125758688Y-126544000D01*
X125212633Y-126475017D01*
X124727772Y-126283047D01*
X124305885Y-125976529D01*
X123973481Y-125574722D01*
X123751444Y-125102870D01*
X123649660Y-124569295D01*
X123646000Y-124452837D01*
X123646000Y-108344600D01*
X125278936Y-108344600D01*
X125278936Y-110044600D01*
X125308506Y-110193259D01*
X125392714Y-110319286D01*
X125518741Y-110403494D01*
X125667400Y-110433064D01*
X127367400Y-110433064D01*
X127516059Y-110403494D01*
X127642086Y-110319286D01*
X127726294Y-110193259D01*
X127755864Y-110044600D01*
X127755864Y-108344600D01*
X127726294Y-108195941D01*
X127642086Y-108069914D01*
X127516059Y-107985706D01*
X127367400Y-107956136D01*
X125667400Y-107956136D01*
X125518741Y-107985706D01*
X125392714Y-108069914D01*
X125308506Y-108195941D01*
X125278936Y-108344600D01*
X123646000Y-108344600D01*
X123646000Y-104114600D01*
X125262284Y-104114600D01*
X125357824Y-104594912D01*
X125629899Y-105002101D01*
X126037088Y-105274176D01*
X126396161Y-105345600D01*
X126638639Y-105345600D01*
X126997712Y-105274176D01*
X127220507Y-105125309D01*
X126875168Y-105470649D01*
X126638639Y-105423600D01*
X126396161Y-105423600D01*
X126037088Y-105495024D01*
X125629899Y-105767099D01*
X125357824Y-106174288D01*
X125262284Y-106654600D01*
X125357824Y-107134912D01*
X125629899Y-107542101D01*
X126037088Y-107814176D01*
X126396161Y-107885600D01*
X126638639Y-107885600D01*
X126997712Y-107814176D01*
X127404901Y-107542101D01*
X127676976Y-107134912D01*
X127772516Y-106654600D01*
X127701351Y-106296832D01*
X128029384Y-105968800D01*
X129568461Y-105968800D01*
X129418122Y-106193797D01*
X129326463Y-106654600D01*
X129418122Y-107115403D01*
X129679147Y-107506053D01*
X130069797Y-107767078D01*
X130414282Y-107835600D01*
X130646918Y-107835600D01*
X130991403Y-107767078D01*
X131382053Y-107506053D01*
X131560626Y-107238800D01*
X132304230Y-107238800D01*
X132307106Y-107253259D01*
X132391314Y-107379286D01*
X132517341Y-107463494D01*
X132666000Y-107493064D01*
X133866000Y-107493064D01*
X134014659Y-107463494D01*
X134140686Y-107379286D01*
X134224894Y-107253259D01*
X134254464Y-107104600D01*
X134254464Y-106204600D01*
X134224894Y-106055941D01*
X134166669Y-105968800D01*
X134565331Y-105968800D01*
X134507106Y-106055941D01*
X134477536Y-106204600D01*
X134477536Y-107104600D01*
X134507106Y-107253259D01*
X134572738Y-107351484D01*
X134458057Y-107374296D01*
X134264815Y-107503415D01*
X134232222Y-107552194D01*
X133428281Y-108356136D01*
X132666000Y-108356136D01*
X132517341Y-108385706D01*
X132391314Y-108469914D01*
X132307106Y-108595941D01*
X132304230Y-108610400D01*
X131719064Y-108610400D01*
X131719064Y-108394600D01*
X131689494Y-108245941D01*
X131605286Y-108119914D01*
X131479259Y-108035706D01*
X131330600Y-108006136D01*
X129730600Y-108006136D01*
X129581941Y-108035706D01*
X129455914Y-108119914D01*
X129371706Y-108245941D01*
X129342136Y-108394600D01*
X129342136Y-109994600D01*
X129371706Y-110143259D01*
X129455914Y-110269286D01*
X129581941Y-110353494D01*
X129730600Y-110383064D01*
X131330600Y-110383064D01*
X131479259Y-110353494D01*
X131605286Y-110269286D01*
X131689494Y-110143259D01*
X131719064Y-109994600D01*
X131719064Y-109778800D01*
X132304230Y-109778800D01*
X132307106Y-109793259D01*
X132391314Y-109919286D01*
X132517341Y-110003494D01*
X132666000Y-110033064D01*
X133866000Y-110033064D01*
X134014659Y-110003494D01*
X134140686Y-109919286D01*
X134224894Y-109793259D01*
X134254464Y-109644600D01*
X134254464Y-109182319D01*
X134477536Y-108959247D01*
X134477536Y-109644600D01*
X134507106Y-109793259D01*
X134591314Y-109919286D01*
X134717341Y-110003494D01*
X134866000Y-110033064D01*
X134867674Y-110033064D01*
X134862555Y-110058800D01*
X134874000Y-110116337D01*
X134874001Y-111118259D01*
X134862555Y-111175800D01*
X134886908Y-111298225D01*
X134907897Y-111403743D01*
X135017142Y-111567241D01*
X135109476Y-111790156D01*
X135301044Y-111981724D01*
X135551341Y-112085400D01*
X135822259Y-112085400D01*
X136072556Y-111981724D01*
X136264124Y-111790156D01*
X136367800Y-111539859D01*
X136367800Y-111268941D01*
X136264124Y-111018644D01*
X136072556Y-110827076D01*
X136042400Y-110814585D01*
X136042400Y-110147750D01*
X136050200Y-110108537D01*
X136050200Y-110108536D01*
X136061645Y-110051000D01*
X136058077Y-110033064D01*
X136066000Y-110033064D01*
X136214659Y-110003494D01*
X136340686Y-109919286D01*
X136424894Y-109793259D01*
X136454464Y-109644600D01*
X136454464Y-108744600D01*
X136424894Y-108595941D01*
X136366669Y-108508800D01*
X137188461Y-108508800D01*
X137038122Y-108733797D01*
X136946463Y-109194600D01*
X137038122Y-109655403D01*
X137299147Y-110046053D01*
X137689797Y-110307078D01*
X138034282Y-110375600D01*
X138266918Y-110375600D01*
X138611403Y-110307078D01*
X139002053Y-110046053D01*
X139263078Y-109655403D01*
X139354737Y-109194600D01*
X139263078Y-108733797D01*
X139112739Y-108508800D01*
X139134464Y-108508800D01*
X139192000Y-108520245D01*
X139249536Y-108508800D01*
X139249537Y-108508800D01*
X139419943Y-108474904D01*
X139613185Y-108345785D01*
X139645781Y-108297001D01*
X140407776Y-107535007D01*
X140407778Y-107535004D01*
X141169776Y-106773007D01*
X141198258Y-106744525D01*
X141431956Y-106647724D01*
X141623524Y-106456156D01*
X141727200Y-106205859D01*
X141727200Y-105934941D01*
X141623524Y-105684644D01*
X141431956Y-105493076D01*
X141181659Y-105389400D01*
X141084664Y-105389400D01*
X141084664Y-105223741D01*
X140980988Y-104973444D01*
X140789420Y-104781876D01*
X140539123Y-104678200D01*
X140268205Y-104678200D01*
X140017908Y-104781876D01*
X139999384Y-104800400D01*
X139112739Y-104800400D01*
X139263078Y-104575403D01*
X139354737Y-104114600D01*
X139263078Y-103653797D01*
X139112739Y-103428800D01*
X140372244Y-103428800D01*
X140605941Y-103525600D01*
X140876859Y-103525600D01*
X141127156Y-103421924D01*
X141318724Y-103230356D01*
X141422400Y-102980059D01*
X141422400Y-102709141D01*
X141318724Y-102458844D01*
X141127156Y-102267276D01*
X140876859Y-102163600D01*
X140605941Y-102163600D01*
X140372244Y-102260400D01*
X139112739Y-102260400D01*
X139263078Y-102035403D01*
X139354737Y-101574600D01*
X139263078Y-101113797D01*
X139002053Y-100723147D01*
X138611403Y-100462122D01*
X138266918Y-100393600D01*
X138034282Y-100393600D01*
X137689797Y-100462122D01*
X137299147Y-100723147D01*
X137038122Y-101113797D01*
X136946463Y-101574600D01*
X137038122Y-102035403D01*
X137188461Y-102260400D01*
X135591935Y-102260400D01*
X135534399Y-102248955D01*
X135476863Y-102260400D01*
X131492739Y-102260400D01*
X131643078Y-102035403D01*
X131734737Y-101574600D01*
X131643078Y-101113797D01*
X131382053Y-100723147D01*
X130991403Y-100462122D01*
X130646918Y-100393600D01*
X130414282Y-100393600D01*
X130069797Y-100462122D01*
X129679147Y-100723147D01*
X129418122Y-101113797D01*
X129326463Y-101574600D01*
X129418122Y-102035403D01*
X129568461Y-102260400D01*
X127844935Y-102260400D01*
X127787399Y-102248955D01*
X127729863Y-102260400D01*
X127559457Y-102294296D01*
X127366215Y-102423415D01*
X127333620Y-102472197D01*
X127211794Y-102594024D01*
X126994997Y-102810821D01*
X126994991Y-102810825D01*
X126875168Y-102930648D01*
X126638639Y-102883600D01*
X126396161Y-102883600D01*
X126037088Y-102955024D01*
X125629899Y-103227099D01*
X125357824Y-103634288D01*
X125262284Y-104114600D01*
X123646000Y-104114600D01*
X123646000Y-99034600D01*
X129326463Y-99034600D01*
X129418122Y-99495403D01*
X129679147Y-99886053D01*
X130069797Y-100147078D01*
X130414282Y-100215600D01*
X130646918Y-100215600D01*
X130991403Y-100147078D01*
X131382053Y-99886053D01*
X131643078Y-99495403D01*
X131734737Y-99034600D01*
X136946463Y-99034600D01*
X137038122Y-99495403D01*
X137299147Y-99886053D01*
X137689797Y-100147078D01*
X138034282Y-100215600D01*
X138266918Y-100215600D01*
X138611403Y-100147078D01*
X139002053Y-99886053D01*
X139263078Y-99495403D01*
X139354737Y-99034600D01*
X139263078Y-98573797D01*
X139002053Y-98183147D01*
X138611403Y-97922122D01*
X138266918Y-97853600D01*
X138034282Y-97853600D01*
X137689797Y-97922122D01*
X137299147Y-98183147D01*
X137038122Y-98573797D01*
X136946463Y-99034600D01*
X131734737Y-99034600D01*
X131643078Y-98573797D01*
X131382053Y-98183147D01*
X130991403Y-97922122D01*
X130646918Y-97853600D01*
X130414282Y-97853600D01*
X130069797Y-97922122D01*
X129679147Y-98183147D01*
X129418122Y-98573797D01*
X129326463Y-99034600D01*
X123646000Y-99034600D01*
X123646000Y-96494600D01*
X129326463Y-96494600D01*
X129418122Y-96955403D01*
X129679147Y-97346053D01*
X130069797Y-97607078D01*
X130414282Y-97675600D01*
X130646918Y-97675600D01*
X130991403Y-97607078D01*
X131382053Y-97346053D01*
X131643078Y-96955403D01*
X131734737Y-96494600D01*
X136946463Y-96494600D01*
X137038122Y-96955403D01*
X137299147Y-97346053D01*
X137689797Y-97607078D01*
X138034282Y-97675600D01*
X138266918Y-97675600D01*
X138611403Y-97607078D01*
X139002053Y-97346053D01*
X139263078Y-96955403D01*
X139354737Y-96494600D01*
X139263078Y-96033797D01*
X139002053Y-95643147D01*
X138611403Y-95382122D01*
X138266918Y-95313600D01*
X138034282Y-95313600D01*
X137689797Y-95382122D01*
X137299147Y-95643147D01*
X137038122Y-96033797D01*
X136946463Y-96494600D01*
X131734737Y-96494600D01*
X131643078Y-96033797D01*
X131382053Y-95643147D01*
X130991403Y-95382122D01*
X130646918Y-95313600D01*
X130414282Y-95313600D01*
X130069797Y-95382122D01*
X129679147Y-95643147D01*
X129418122Y-96033797D01*
X129326463Y-96494600D01*
X123646000Y-96494600D01*
X123646000Y-93935200D01*
X125147936Y-93935200D01*
X125147936Y-94685200D01*
X125177506Y-94833859D01*
X125261714Y-94959886D01*
X125387741Y-95044094D01*
X125536400Y-95073664D01*
X126736400Y-95073664D01*
X126885059Y-95044094D01*
X127011086Y-94959886D01*
X127095294Y-94833859D01*
X127124864Y-94685200D01*
X127124864Y-93954600D01*
X129326463Y-93954600D01*
X129418122Y-94415403D01*
X129679147Y-94806053D01*
X130069797Y-95067078D01*
X130414282Y-95135600D01*
X130646918Y-95135600D01*
X130991403Y-95067078D01*
X131382053Y-94806053D01*
X131643078Y-94415403D01*
X131734737Y-93954600D01*
X131643078Y-93493797D01*
X131382053Y-93103147D01*
X130991403Y-92842122D01*
X130646918Y-92773600D01*
X130414282Y-92773600D01*
X130069797Y-92842122D01*
X129679147Y-93103147D01*
X129418122Y-93493797D01*
X129326463Y-93954600D01*
X127124864Y-93954600D01*
X127124864Y-93935200D01*
X127095294Y-93786541D01*
X127011086Y-93660514D01*
X126885059Y-93576306D01*
X126736400Y-93546736D01*
X125536400Y-93546736D01*
X125387741Y-93576306D01*
X125261714Y-93660514D01*
X125177506Y-93786541D01*
X125147936Y-93935200D01*
X123646000Y-93935200D01*
X123646000Y-91414600D01*
X136946463Y-91414600D01*
X137038122Y-91875403D01*
X137299147Y-92266053D01*
X137689797Y-92527078D01*
X138034282Y-92595600D01*
X138266918Y-92595600D01*
X138611403Y-92527078D01*
X139002053Y-92266053D01*
X139180626Y-91998800D01*
X139873758Y-91998800D01*
X139917514Y-92064286D01*
X140043541Y-92148494D01*
X140192200Y-92178064D01*
X141392200Y-92178064D01*
X141540859Y-92148494D01*
X141666886Y-92064286D01*
X141751094Y-91938259D01*
X141780664Y-91789600D01*
X141780664Y-91039600D01*
X141751094Y-90890941D01*
X141666886Y-90764914D01*
X141540859Y-90680706D01*
X141392200Y-90651136D01*
X140192200Y-90651136D01*
X140043541Y-90680706D01*
X139917514Y-90764914D01*
X139873758Y-90830400D01*
X139180626Y-90830400D01*
X139002053Y-90563147D01*
X138611403Y-90302122D01*
X138266918Y-90233600D01*
X138034282Y-90233600D01*
X137689797Y-90302122D01*
X137299147Y-90563147D01*
X137038122Y-90953797D01*
X136946463Y-91414600D01*
X123646000Y-91414600D01*
X123646000Y-88874600D01*
X129326463Y-88874600D01*
X129418122Y-89335403D01*
X129679147Y-89726053D01*
X130069797Y-89987078D01*
X130414282Y-90055600D01*
X130646918Y-90055600D01*
X130991403Y-89987078D01*
X131382053Y-89726053D01*
X131643078Y-89335403D01*
X131734737Y-88874600D01*
X136946463Y-88874600D01*
X137038122Y-89335403D01*
X137299147Y-89726053D01*
X137689797Y-89987078D01*
X138034282Y-90055600D01*
X138266918Y-90055600D01*
X138611403Y-89987078D01*
X139002053Y-89726053D01*
X139263078Y-89335403D01*
X139354737Y-88874600D01*
X139263078Y-88413797D01*
X139002053Y-88023147D01*
X138611403Y-87762122D01*
X138266918Y-87693600D01*
X138034282Y-87693600D01*
X137689797Y-87762122D01*
X137299147Y-88023147D01*
X137038122Y-88413797D01*
X136946463Y-88874600D01*
X131734737Y-88874600D01*
X131643078Y-88413797D01*
X131382053Y-88023147D01*
X130991403Y-87762122D01*
X130646918Y-87693600D01*
X130414282Y-87693600D01*
X130069797Y-87762122D01*
X129679147Y-88023147D01*
X129418122Y-88413797D01*
X129326463Y-88874600D01*
X123646000Y-88874600D01*
X123646000Y-86334600D01*
X129326463Y-86334600D01*
X129418122Y-86795403D01*
X129679147Y-87186053D01*
X130069797Y-87447078D01*
X130414282Y-87515600D01*
X130646918Y-87515600D01*
X130991403Y-87447078D01*
X131382053Y-87186053D01*
X131643078Y-86795403D01*
X131734737Y-86334600D01*
X136946463Y-86334600D01*
X137038122Y-86795403D01*
X137299147Y-87186053D01*
X137689797Y-87447078D01*
X138034282Y-87515600D01*
X138266918Y-87515600D01*
X138611403Y-87447078D01*
X139002053Y-87186053D01*
X139263078Y-86795403D01*
X139354737Y-86334600D01*
X139263078Y-85873797D01*
X139002053Y-85483147D01*
X138611403Y-85222122D01*
X138266918Y-85153600D01*
X138034282Y-85153600D01*
X137689797Y-85222122D01*
X137299147Y-85483147D01*
X137038122Y-85873797D01*
X136946463Y-86334600D01*
X131734737Y-86334600D01*
X131643078Y-85873797D01*
X131382053Y-85483147D01*
X130991403Y-85222122D01*
X130646918Y-85153600D01*
X130414282Y-85153600D01*
X130069797Y-85222122D01*
X129679147Y-85483147D01*
X129418122Y-85873797D01*
X129326463Y-86334600D01*
X123646000Y-86334600D01*
X123646000Y-83794600D01*
X129326463Y-83794600D01*
X129418122Y-84255403D01*
X129679147Y-84646053D01*
X130069797Y-84907078D01*
X130414282Y-84975600D01*
X130646918Y-84975600D01*
X130991403Y-84907078D01*
X131382053Y-84646053D01*
X131643078Y-84255403D01*
X131734737Y-83794600D01*
X131643078Y-83333797D01*
X131382053Y-82943147D01*
X130991403Y-82682122D01*
X130646918Y-82613600D01*
X130414282Y-82613600D01*
X130069797Y-82682122D01*
X129679147Y-82943147D01*
X129418122Y-83333797D01*
X129326463Y-83794600D01*
X123646000Y-83794600D01*
X123646000Y-81254600D01*
X129326463Y-81254600D01*
X129418122Y-81715403D01*
X129679147Y-82106053D01*
X130069797Y-82367078D01*
X130414282Y-82435600D01*
X130646918Y-82435600D01*
X130991403Y-82367078D01*
X131382053Y-82106053D01*
X131643078Y-81715403D01*
X131734737Y-81254600D01*
X131643078Y-80793797D01*
X131382053Y-80403147D01*
X130991403Y-80142122D01*
X130646918Y-80073600D01*
X130414282Y-80073600D01*
X130069797Y-80142122D01*
X129679147Y-80403147D01*
X129418122Y-80793797D01*
X129326463Y-81254600D01*
X123646000Y-81254600D01*
X123646000Y-78714600D01*
X129326463Y-78714600D01*
X129418122Y-79175403D01*
X129679147Y-79566053D01*
X130069797Y-79827078D01*
X130414282Y-79895600D01*
X130646918Y-79895600D01*
X130991403Y-79827078D01*
X131382053Y-79566053D01*
X131643078Y-79175403D01*
X131734737Y-78714600D01*
X131643078Y-78253797D01*
X131382053Y-77863147D01*
X130991403Y-77602122D01*
X130646918Y-77533600D01*
X130414282Y-77533600D01*
X130069797Y-77602122D01*
X129679147Y-77863147D01*
X129418122Y-78253797D01*
X129326463Y-78714600D01*
X123646000Y-78714600D01*
X123646000Y-75139200D01*
X125147936Y-75139200D01*
X125147936Y-75889200D01*
X125177506Y-76037859D01*
X125261714Y-76163886D01*
X125387741Y-76248094D01*
X125536400Y-76277664D01*
X126736400Y-76277664D01*
X126885059Y-76248094D01*
X126995051Y-76174600D01*
X129326463Y-76174600D01*
X129418122Y-76635403D01*
X129679147Y-77026053D01*
X130069797Y-77287078D01*
X130414282Y-77355600D01*
X130646918Y-77355600D01*
X130991403Y-77287078D01*
X131382053Y-77026053D01*
X131643078Y-76635403D01*
X131734737Y-76174600D01*
X136946463Y-76174600D01*
X137038122Y-76635403D01*
X137299147Y-77026053D01*
X137689797Y-77287078D01*
X138034282Y-77355600D01*
X138266918Y-77355600D01*
X138611403Y-77287078D01*
X139002053Y-77026053D01*
X139263078Y-76635403D01*
X139319000Y-76354262D01*
X139319000Y-78534940D01*
X139263078Y-78253797D01*
X139002053Y-77863147D01*
X138611403Y-77602122D01*
X138266918Y-77533600D01*
X138034282Y-77533600D01*
X137689797Y-77602122D01*
X137299147Y-77863147D01*
X137038122Y-78253797D01*
X136946463Y-78714600D01*
X137038122Y-79175403D01*
X137299147Y-79566053D01*
X137689797Y-79827078D01*
X138034282Y-79895600D01*
X138266918Y-79895600D01*
X138611403Y-79827078D01*
X139002053Y-79566053D01*
X139263078Y-79175403D01*
X139319001Y-78894260D01*
X139319001Y-81074941D01*
X139263078Y-80793797D01*
X139002053Y-80403147D01*
X138611403Y-80142122D01*
X138266918Y-80073600D01*
X138034282Y-80073600D01*
X137689797Y-80142122D01*
X137299147Y-80403147D01*
X137038122Y-80793797D01*
X136946463Y-81254600D01*
X137038122Y-81715403D01*
X137299147Y-82106053D01*
X137689797Y-82367078D01*
X138034282Y-82435600D01*
X138266918Y-82435600D01*
X138611403Y-82367078D01*
X139002053Y-82106053D01*
X139263078Y-81715403D01*
X139319001Y-81434259D01*
X139319001Y-83070016D01*
X139179822Y-83209196D01*
X139002053Y-82943147D01*
X138611403Y-82682122D01*
X138266918Y-82613600D01*
X138034282Y-82613600D01*
X137689797Y-82682122D01*
X137299147Y-82943147D01*
X137038122Y-83333797D01*
X136946463Y-83794600D01*
X137038122Y-84255403D01*
X137299147Y-84646053D01*
X137689797Y-84907078D01*
X138034282Y-84975600D01*
X138266918Y-84975600D01*
X138611403Y-84907078D01*
X139002053Y-84646053D01*
X139180626Y-84378800D01*
X139363064Y-84378800D01*
X139420600Y-84390245D01*
X139478136Y-84378800D01*
X139478137Y-84378800D01*
X139648543Y-84344904D01*
X139841785Y-84215785D01*
X139874381Y-84167001D01*
X140275606Y-83765778D01*
X140324385Y-83733185D01*
X140453504Y-83539943D01*
X140487400Y-83369537D01*
X140498845Y-83312001D01*
X140487400Y-83254465D01*
X140487400Y-78512643D01*
X141097000Y-78512643D01*
X141097000Y-78967357D01*
X141271011Y-79387458D01*
X141592542Y-79708989D01*
X142012643Y-79883000D01*
X142467357Y-79883000D01*
X142887458Y-79708989D01*
X143208989Y-79387458D01*
X143383000Y-78967357D01*
X143383000Y-78512643D01*
X143637000Y-78512643D01*
X143637000Y-78967357D01*
X143811011Y-79387458D01*
X144132542Y-79708989D01*
X144552643Y-79883000D01*
X145007357Y-79883000D01*
X145427458Y-79708989D01*
X145748989Y-79387458D01*
X145923000Y-78967357D01*
X145923000Y-78512643D01*
X145748989Y-78092542D01*
X145427458Y-77771011D01*
X145007357Y-77597000D01*
X144552643Y-77597000D01*
X144132542Y-77771011D01*
X143811011Y-78092542D01*
X143637000Y-78512643D01*
X143383000Y-78512643D01*
X143208989Y-78092542D01*
X142887458Y-77771011D01*
X142467357Y-77597000D01*
X142012643Y-77597000D01*
X141592542Y-77771011D01*
X141271011Y-78092542D01*
X141097000Y-78512643D01*
X140487400Y-78512643D01*
X140487400Y-74359183D01*
X140602383Y-74244200D01*
X143689558Y-74244200D01*
X143736408Y-74357306D01*
X144082694Y-74703592D01*
X144535139Y-74891000D01*
X145024861Y-74891000D01*
X145477306Y-74703592D01*
X145823592Y-74357306D01*
X146011000Y-73904861D01*
X146011000Y-73415139D01*
X146089000Y-73415139D01*
X146089000Y-73904861D01*
X146276408Y-74357306D01*
X146622694Y-74703592D01*
X147075139Y-74891000D01*
X147564861Y-74891000D01*
X148017306Y-74703592D01*
X148363592Y-74357306D01*
X148551000Y-73904861D01*
X148551000Y-73415139D01*
X148629000Y-73415139D01*
X148629000Y-73904861D01*
X148816408Y-74357306D01*
X149162694Y-74703592D01*
X149615139Y-74891000D01*
X150104861Y-74891000D01*
X150557306Y-74703592D01*
X150903592Y-74357306D01*
X151091000Y-73904861D01*
X151091000Y-73415139D01*
X150903592Y-72962694D01*
X150557306Y-72616408D01*
X150104861Y-72429000D01*
X149615139Y-72429000D01*
X149162694Y-72616408D01*
X148816408Y-72962694D01*
X148629000Y-73415139D01*
X148551000Y-73415139D01*
X148363592Y-72962694D01*
X148017306Y-72616408D01*
X147564861Y-72429000D01*
X147075139Y-72429000D01*
X146622694Y-72616408D01*
X146276408Y-72962694D01*
X146089000Y-73415139D01*
X146011000Y-73415139D01*
X145823592Y-72962694D01*
X145477306Y-72616408D01*
X145024861Y-72429000D01*
X144535139Y-72429000D01*
X144082694Y-72616408D01*
X143736408Y-72962694D01*
X143689558Y-73075800D01*
X140417935Y-73075800D01*
X140360399Y-73064355D01*
X140302863Y-73075800D01*
X140132457Y-73109696D01*
X139939215Y-73238815D01*
X139906622Y-73287594D01*
X139530798Y-73663419D01*
X139482015Y-73696015D01*
X139352896Y-73889258D01*
X139324422Y-74032408D01*
X139307555Y-74117200D01*
X139319000Y-74174736D01*
X139319000Y-75994938D01*
X139263078Y-75713797D01*
X139002053Y-75323147D01*
X138611403Y-75062122D01*
X138266918Y-74993600D01*
X138034282Y-74993600D01*
X137689797Y-75062122D01*
X137299147Y-75323147D01*
X137038122Y-75713797D01*
X136946463Y-76174600D01*
X131734737Y-76174600D01*
X131643078Y-75713797D01*
X131382053Y-75323147D01*
X130991403Y-75062122D01*
X130646918Y-74993600D01*
X130414282Y-74993600D01*
X130069797Y-75062122D01*
X129679147Y-75323147D01*
X129418122Y-75713797D01*
X129326463Y-76174600D01*
X126995051Y-76174600D01*
X127011086Y-76163886D01*
X127095294Y-76037859D01*
X127124864Y-75889200D01*
X127124864Y-75139200D01*
X127095294Y-74990541D01*
X127011086Y-74864514D01*
X126885059Y-74780306D01*
X126736400Y-74750736D01*
X125536400Y-74750736D01*
X125387741Y-74780306D01*
X125261714Y-74864514D01*
X125177506Y-74990541D01*
X125147936Y-75139200D01*
X123646000Y-75139200D01*
X123646000Y-73688687D01*
X123714983Y-73142633D01*
X123906952Y-72657773D01*
X124213473Y-72235883D01*
X124615278Y-71903481D01*
X125087128Y-71681445D01*
X125620706Y-71579660D01*
X125737163Y-71576000D01*
X163801313Y-71576000D01*
X164347367Y-71644983D01*
G04 #@! TD*
M02*
