G04 #@! TF.GenerationSoftware,KiCad,Pcbnew,(5.0.2)-1*
G04 #@! TF.CreationDate,2020-05-31T20:08:57-05:00*
G04 #@! TF.ProjectId,ClockBoard,436c6f63-6b42-46f6-9172-642e6b696361,rev?*
G04 #@! TF.SameCoordinates,Original*
G04 #@! TF.FileFunction,Paste,Top*
G04 #@! TF.FilePolarity,Positive*
%FSLAX46Y46*%
G04 Gerber Fmt 4.6, Leading zero omitted, Abs format (unit mm)*
G04 Created by KiCad (PCBNEW (5.0.2)-1) date 5/31/2020 8:08:57 PM*
%MOMM*%
%LPD*%
G01*
G04 APERTURE LIST*
%ADD10R,1.200000X0.750000*%
%ADD11R,1.200000X0.900000*%
%ADD12R,1.750000X0.450000*%
%ADD13R,2.540000X6.350000*%
%ADD14C,10.160000*%
G04 APERTURE END LIST*
D10*
G04 #@! TO.C,C2*
X140792200Y-91414600D03*
X142692200Y-91414600D03*
G04 #@! TD*
G04 #@! TO.C,C3*
X126136400Y-94310200D03*
X128036400Y-94310200D03*
G04 #@! TD*
G04 #@! TO.C,C4*
X126136400Y-75514200D03*
X128036400Y-75514200D03*
G04 #@! TD*
G04 #@! TO.C,C5*
X145719800Y-95842308D03*
X143819800Y-95842308D03*
G04 #@! TD*
G04 #@! TO.C,C6*
X145719800Y-97485200D03*
X143819800Y-97485200D03*
G04 #@! TD*
G04 #@! TO.C,C7*
X160599200Y-101696750D03*
X158699200Y-101696750D03*
G04 #@! TD*
D11*
G04 #@! TO.C,R1*
X135466000Y-109194600D03*
X133266000Y-109194600D03*
G04 #@! TD*
G04 #@! TO.C,R2*
X135466000Y-106654600D03*
X133266000Y-106654600D03*
G04 #@! TD*
G04 #@! TO.C,R3*
X135466000Y-104114600D03*
X133266000Y-104114600D03*
G04 #@! TD*
D12*
G04 #@! TO.C,U3*
X155651200Y-102992150D03*
X155651200Y-102342150D03*
X155651200Y-101692150D03*
X155651200Y-101042150D03*
X155651200Y-100392150D03*
X155651200Y-99742150D03*
X155651200Y-99092150D03*
X155651200Y-98442150D03*
X155651200Y-97792150D03*
X155651200Y-97142150D03*
X155651200Y-96492150D03*
X155651200Y-95842150D03*
X155651200Y-95192150D03*
X155651200Y-94542150D03*
X148451200Y-94542150D03*
X148451200Y-95192150D03*
X148451200Y-95842150D03*
X148451200Y-96492150D03*
X148451200Y-97142150D03*
X148451200Y-97792150D03*
X148451200Y-98442150D03*
X148451200Y-99092150D03*
X148451200Y-99742150D03*
X148451200Y-100392150D03*
X148451200Y-101042150D03*
X148451200Y-101692150D03*
X148451200Y-102342150D03*
X148451200Y-102992150D03*
G04 #@! TD*
D13*
G04 #@! TO.C,BT1*
X126746000Y-119735600D03*
X141986000Y-119735600D03*
D14*
X134366000Y-119735600D03*
G04 #@! TD*
M02*
