G04 #@! TF.GenerationSoftware,KiCad,Pcbnew,(5.0.0)*
G04 #@! TF.CreationDate,2018-10-04T20:09:54-05:00*
G04 #@! TF.ProjectId,ClockBoard,436C6F636B426F6172642E6B69636164,rev?*
G04 #@! TF.SameCoordinates,Original*
G04 #@! TF.FileFunction,Legend,Top*
G04 #@! TF.FilePolarity,Positive*
%FSLAX46Y46*%
G04 Gerber Fmt 4.6, Leading zero omitted, Abs format (unit mm)*
G04 Created by KiCad (PCBNEW (5.0.0)) date 10/04/18 20:09:54*
%MOMM*%
%LPD*%
G01*
G04 APERTURE LIST*
%ADD10C,0.120000*%
%ADD11C,0.150000*%
G04 APERTURE END LIST*
D10*
G04 #@! TO.C,C2*
X141392200Y-90814600D02*
X142092200Y-90814600D01*
X142092200Y-92014600D02*
X141392200Y-92014600D01*
G04 #@! TO.C,C3*
X126736400Y-93710200D02*
X127436400Y-93710200D01*
X127436400Y-94910200D02*
X126736400Y-94910200D01*
G04 #@! TO.C,C4*
X126736400Y-74914200D02*
X127436400Y-74914200D01*
X127436400Y-76114200D02*
X126736400Y-76114200D01*
G04 #@! TO.C,C5*
X145119800Y-96442308D02*
X144419800Y-96442308D01*
X144419800Y-95242308D02*
X145119800Y-95242308D01*
G04 #@! TO.C,C6*
X145119800Y-98085200D02*
X144419800Y-98085200D01*
X144419800Y-96885200D02*
X145119800Y-96885200D01*
G04 #@! TO.C,C7*
X159999200Y-102296750D02*
X159299200Y-102296750D01*
X159299200Y-101096750D02*
X159999200Y-101096750D01*
G04 #@! TO.C,R1*
X133866000Y-108514600D02*
X134866000Y-108514600D01*
X134866000Y-109874600D02*
X133866000Y-109874600D01*
G04 #@! TO.C,R2*
X133866000Y-105974600D02*
X134866000Y-105974600D01*
X134866000Y-107334600D02*
X133866000Y-107334600D01*
G04 #@! TO.C,R3*
X133866000Y-103434600D02*
X134866000Y-103434600D01*
X134866000Y-104794600D02*
X133866000Y-104794600D01*
D11*
G04 #@! TO.C,U3*
X154926200Y-104092150D02*
X154926200Y-103517150D01*
X149176200Y-104092150D02*
X149176200Y-103442150D01*
X149176200Y-93442150D02*
X149176200Y-94092150D01*
X154926200Y-93442150D02*
X154926200Y-94092150D01*
X154926200Y-104092150D02*
X149176200Y-104092150D01*
X154926200Y-93442150D02*
X149176200Y-93442150D01*
X154926200Y-103517150D02*
X156526200Y-103517150D01*
G04 #@! TO.C,BT1*
X139192000Y-112115600D02*
X129540000Y-112115600D01*
X140716000Y-113639600D02*
X139192000Y-112115600D01*
X128016000Y-113639600D02*
X129540000Y-112115600D01*
X128016000Y-124815600D02*
X128016000Y-113639600D01*
X140716000Y-124815600D02*
X140716000Y-113639600D01*
G04 #@! TO.C,J2*
X163830000Y-127000000D02*
G75*
G03X166370000Y-124460000I0J2540000D01*
G01*
X125730000Y-71120000D02*
G75*
G03X123190000Y-73660000I0J-2540000D01*
G01*
X123190000Y-124460000D02*
G75*
G03X125730000Y-127000000I2540000J0D01*
G01*
X123190000Y-73660000D02*
X123190000Y-124460000D01*
X125730000Y-127000000D02*
X163830000Y-127000000D01*
X166370000Y-124460000D02*
X166370000Y-73660000D01*
X166370000Y-73660000D02*
G75*
G03X163830000Y-71120000I-2540000J0D01*
G01*
X163830000Y-71120000D02*
X125730000Y-71120000D01*
G04 #@! TO.C,C2*
X141575533Y-90521742D02*
X141527914Y-90569361D01*
X141385057Y-90616980D01*
X141289819Y-90616980D01*
X141146961Y-90569361D01*
X141051723Y-90474123D01*
X141004104Y-90378885D01*
X140956485Y-90188409D01*
X140956485Y-90045552D01*
X141004104Y-89855076D01*
X141051723Y-89759838D01*
X141146961Y-89664600D01*
X141289819Y-89616980D01*
X141385057Y-89616980D01*
X141527914Y-89664600D01*
X141575533Y-89712219D01*
X141956485Y-89712219D02*
X142004104Y-89664600D01*
X142099342Y-89616980D01*
X142337438Y-89616980D01*
X142432676Y-89664600D01*
X142480295Y-89712219D01*
X142527914Y-89807457D01*
X142527914Y-89902695D01*
X142480295Y-90045552D01*
X141908866Y-90616980D01*
X142527914Y-90616980D01*
G04 #@! TO.C,C3*
X126919733Y-93417342D02*
X126872114Y-93464961D01*
X126729257Y-93512580D01*
X126634019Y-93512580D01*
X126491161Y-93464961D01*
X126395923Y-93369723D01*
X126348304Y-93274485D01*
X126300685Y-93084009D01*
X126300685Y-92941152D01*
X126348304Y-92750676D01*
X126395923Y-92655438D01*
X126491161Y-92560200D01*
X126634019Y-92512580D01*
X126729257Y-92512580D01*
X126872114Y-92560200D01*
X126919733Y-92607819D01*
X127253066Y-92512580D02*
X127872114Y-92512580D01*
X127538780Y-92893533D01*
X127681638Y-92893533D01*
X127776876Y-92941152D01*
X127824495Y-92988771D01*
X127872114Y-93084009D01*
X127872114Y-93322104D01*
X127824495Y-93417342D01*
X127776876Y-93464961D01*
X127681638Y-93512580D01*
X127395923Y-93512580D01*
X127300685Y-93464961D01*
X127253066Y-93417342D01*
G04 #@! TO.C,C4*
X126919733Y-74621342D02*
X126872114Y-74668961D01*
X126729257Y-74716580D01*
X126634019Y-74716580D01*
X126491161Y-74668961D01*
X126395923Y-74573723D01*
X126348304Y-74478485D01*
X126300685Y-74288009D01*
X126300685Y-74145152D01*
X126348304Y-73954676D01*
X126395923Y-73859438D01*
X126491161Y-73764200D01*
X126634019Y-73716580D01*
X126729257Y-73716580D01*
X126872114Y-73764200D01*
X126919733Y-73811819D01*
X127776876Y-74049914D02*
X127776876Y-74716580D01*
X127538780Y-73668961D02*
X127300685Y-74383247D01*
X127919733Y-74383247D01*
G04 #@! TO.C,C5*
X144603133Y-97449450D02*
X144555514Y-97497069D01*
X144412657Y-97544688D01*
X144317419Y-97544688D01*
X144174561Y-97497069D01*
X144079323Y-97401831D01*
X144031704Y-97306593D01*
X143984085Y-97116117D01*
X143984085Y-96973260D01*
X144031704Y-96782784D01*
X144079323Y-96687546D01*
X144174561Y-96592308D01*
X144317419Y-96544688D01*
X144412657Y-96544688D01*
X144555514Y-96592308D01*
X144603133Y-96639927D01*
X145507895Y-96544688D02*
X145031704Y-96544688D01*
X144984085Y-97020879D01*
X145031704Y-96973260D01*
X145126942Y-96925641D01*
X145365038Y-96925641D01*
X145460276Y-96973260D01*
X145507895Y-97020879D01*
X145555514Y-97116117D01*
X145555514Y-97354212D01*
X145507895Y-97449450D01*
X145460276Y-97497069D01*
X145365038Y-97544688D01*
X145126942Y-97544688D01*
X145031704Y-97497069D01*
X144984085Y-97449450D01*
G04 #@! TO.C,C6*
X144603133Y-99092342D02*
X144555514Y-99139961D01*
X144412657Y-99187580D01*
X144317419Y-99187580D01*
X144174561Y-99139961D01*
X144079323Y-99044723D01*
X144031704Y-98949485D01*
X143984085Y-98759009D01*
X143984085Y-98616152D01*
X144031704Y-98425676D01*
X144079323Y-98330438D01*
X144174561Y-98235200D01*
X144317419Y-98187580D01*
X144412657Y-98187580D01*
X144555514Y-98235200D01*
X144603133Y-98282819D01*
X145460276Y-98187580D02*
X145269800Y-98187580D01*
X145174561Y-98235200D01*
X145126942Y-98282819D01*
X145031704Y-98425676D01*
X144984085Y-98616152D01*
X144984085Y-98997104D01*
X145031704Y-99092342D01*
X145079323Y-99139961D01*
X145174561Y-99187580D01*
X145365038Y-99187580D01*
X145460276Y-99139961D01*
X145507895Y-99092342D01*
X145555514Y-98997104D01*
X145555514Y-98759009D01*
X145507895Y-98663771D01*
X145460276Y-98616152D01*
X145365038Y-98568533D01*
X145174561Y-98568533D01*
X145079323Y-98616152D01*
X145031704Y-98663771D01*
X144984085Y-98759009D01*
G04 #@! TO.C,C7*
X159482533Y-103303892D02*
X159434914Y-103351511D01*
X159292057Y-103399130D01*
X159196819Y-103399130D01*
X159053961Y-103351511D01*
X158958723Y-103256273D01*
X158911104Y-103161035D01*
X158863485Y-102970559D01*
X158863485Y-102827702D01*
X158911104Y-102637226D01*
X158958723Y-102541988D01*
X159053961Y-102446750D01*
X159196819Y-102399130D01*
X159292057Y-102399130D01*
X159434914Y-102446750D01*
X159482533Y-102494369D01*
X159815866Y-102399130D02*
X160482533Y-102399130D01*
X160053961Y-103399130D01*
G04 #@! TO.C,R1*
X134199333Y-111096980D02*
X133866000Y-110620790D01*
X133627904Y-111096980D02*
X133627904Y-110096980D01*
X134008857Y-110096980D01*
X134104095Y-110144600D01*
X134151714Y-110192219D01*
X134199333Y-110287457D01*
X134199333Y-110430314D01*
X134151714Y-110525552D01*
X134104095Y-110573171D01*
X134008857Y-110620790D01*
X133627904Y-110620790D01*
X135151714Y-111096980D02*
X134580285Y-111096980D01*
X134866000Y-111096980D02*
X134866000Y-110096980D01*
X134770761Y-110239838D01*
X134675523Y-110335076D01*
X134580285Y-110382695D01*
G04 #@! TO.C,R2*
X134199333Y-108556980D02*
X133866000Y-108080790D01*
X133627904Y-108556980D02*
X133627904Y-107556980D01*
X134008857Y-107556980D01*
X134104095Y-107604600D01*
X134151714Y-107652219D01*
X134199333Y-107747457D01*
X134199333Y-107890314D01*
X134151714Y-107985552D01*
X134104095Y-108033171D01*
X134008857Y-108080790D01*
X133627904Y-108080790D01*
X134580285Y-107652219D02*
X134627904Y-107604600D01*
X134723142Y-107556980D01*
X134961238Y-107556980D01*
X135056476Y-107604600D01*
X135104095Y-107652219D01*
X135151714Y-107747457D01*
X135151714Y-107842695D01*
X135104095Y-107985552D01*
X134532666Y-108556980D01*
X135151714Y-108556980D01*
G04 #@! TO.C,R3*
X134199333Y-106016980D02*
X133866000Y-105540790D01*
X133627904Y-106016980D02*
X133627904Y-105016980D01*
X134008857Y-105016980D01*
X134104095Y-105064600D01*
X134151714Y-105112219D01*
X134199333Y-105207457D01*
X134199333Y-105350314D01*
X134151714Y-105445552D01*
X134104095Y-105493171D01*
X134008857Y-105540790D01*
X133627904Y-105540790D01*
X134532666Y-105016980D02*
X135151714Y-105016980D01*
X134818380Y-105397933D01*
X134961238Y-105397933D01*
X135056476Y-105445552D01*
X135104095Y-105493171D01*
X135151714Y-105588409D01*
X135151714Y-105826504D01*
X135104095Y-105921742D01*
X135056476Y-105969361D01*
X134961238Y-106016980D01*
X134675523Y-106016980D01*
X134580285Y-105969361D01*
X134532666Y-105921742D01*
G04 #@! TO.C,U3*
X151289295Y-104469530D02*
X151289295Y-105279054D01*
X151336914Y-105374292D01*
X151384533Y-105421911D01*
X151479771Y-105469530D01*
X151670247Y-105469530D01*
X151765485Y-105421911D01*
X151813104Y-105374292D01*
X151860723Y-105279054D01*
X151860723Y-104469530D01*
X152241676Y-104469530D02*
X152860723Y-104469530D01*
X152527390Y-104850483D01*
X152670247Y-104850483D01*
X152765485Y-104898102D01*
X152813104Y-104945721D01*
X152860723Y-105040959D01*
X152860723Y-105279054D01*
X152813104Y-105374292D01*
X152765485Y-105421911D01*
X152670247Y-105469530D01*
X152384533Y-105469530D01*
X152289295Y-105421911D01*
X152241676Y-105374292D01*
G04 #@! TO.C,BT1*
X143994285Y-121848571D02*
X144137142Y-121896190D01*
X144184761Y-121943809D01*
X144232380Y-122039047D01*
X144232380Y-122181904D01*
X144184761Y-122277142D01*
X144137142Y-122324761D01*
X144041904Y-122372380D01*
X143660952Y-122372380D01*
X143660952Y-121372380D01*
X143994285Y-121372380D01*
X144089523Y-121420000D01*
X144137142Y-121467619D01*
X144184761Y-121562857D01*
X144184761Y-121658095D01*
X144137142Y-121753333D01*
X144089523Y-121800952D01*
X143994285Y-121848571D01*
X143660952Y-121848571D01*
X144518095Y-121372380D02*
X145089523Y-121372380D01*
X144803809Y-122372380D02*
X144803809Y-121372380D01*
X145946666Y-122372380D02*
X145375238Y-122372380D01*
X145660952Y-122372380D02*
X145660952Y-121372380D01*
X145565714Y-121515238D01*
X145470476Y-121610476D01*
X145375238Y-121658095D01*
G04 #@! TO.C,J2*
X124126666Y-129093980D02*
X124126666Y-129808266D01*
X124079047Y-129951123D01*
X123983809Y-130046361D01*
X123840952Y-130093980D01*
X123745714Y-130093980D01*
X124555238Y-129189219D02*
X124602857Y-129141600D01*
X124698095Y-129093980D01*
X124936190Y-129093980D01*
X125031428Y-129141600D01*
X125079047Y-129189219D01*
X125126666Y-129284457D01*
X125126666Y-129379695D01*
X125079047Y-129522552D01*
X124507619Y-130093980D01*
X125126666Y-130093980D01*
G04 #@! TD*
M02*
