M48
;DRILL file {KiCad (5.0.0)} date 10/04/18 20:09:56
;FORMAT={-:-/ absolute / inch / decimal}
FMAT,2
INCH,TZ
T1C0.0157
T2C0.0300
T3C0.0315
T4C0.0394
%
G90
G05
M72
T1
X4.95Y-3.91
X4.963Y-4.495
X4.966Y-2.973
X4.966Y-3.713
X5.342Y-4.386
X5.5277Y-4.148
X5.541Y-4.049
X5.553Y-4.176
X5.596Y-3.792
X5.684Y-4.424
X5.74Y-4.654
X5.768Y-4.554
X5.936Y-4.354
X5.98Y-4.414
X6.02Y-3.954
X6.0437Y-4.222
X6.128Y-4.136
X6.322Y-4.146
T2
X5.6Y-3.1
X5.7Y-3.1
X5.8Y-3.1
X5.9Y-3.1
X6.Y-3.1
X6.1Y-3.1
X6.2Y-3.1
X6.3Y-3.1
X6.4Y-3.1
T3
X5.139Y-2.999
X5.139Y-3.099
X5.139Y-3.199
X5.139Y-3.299
X5.139Y-3.399
X5.139Y-3.499
X5.139Y-3.599
X5.139Y-3.699
X5.139Y-3.799
X5.139Y-3.899
X5.139Y-3.999
X5.139Y-4.099
X5.139Y-4.199
X5.139Y-4.299
X5.439Y-2.999
X5.439Y-3.099
X5.439Y-3.199
X5.439Y-3.299
X5.439Y-3.399
X5.439Y-3.499
X5.439Y-3.599
X5.439Y-3.699
X5.439Y-3.799
X5.439Y-3.899
X5.439Y-3.999
X5.439Y-4.099
X5.439Y-4.199
X5.439Y-4.299
T4
X6.0273Y-4.47
X6.1273Y-4.47
X6.2273Y-4.47
X6.3273Y-4.47
X6.4273Y-4.47
X4.981Y-4.099
X4.981Y-4.199
X4.981Y-4.299
X5.7Y-2.9
X5.8Y-2.9
X5.8Y-4.9
X5.9Y-2.9
X5.9Y-4.9
T0
M30
