G04 #@! TF.GenerationSoftware,KiCad,Pcbnew,(5.0.0)*
G04 #@! TF.CreationDate,2018-10-04T20:09:54-05:00*
G04 #@! TF.ProjectId,ClockBoard,436C6F636B426F6172642E6B69636164,rev?*
G04 #@! TF.SameCoordinates,Original*
G04 #@! TF.FileFunction,Copper,L2,Bot,Signal*
G04 #@! TF.FilePolarity,Positive*
%FSLAX46Y46*%
G04 Gerber Fmt 4.6, Leading zero omitted, Abs format (unit mm)*
G04 Created by KiCad (PCBNEW (5.0.0)) date 10/04/18 20:09:54*
%MOMM*%
%LPD*%
G01*
G04 APERTURE LIST*
G04 #@! TA.AperFunction,ComponentPad*
%ADD10C,1.524000*%
G04 #@! TD*
G04 #@! TA.AperFunction,SMDPad,CuDef*
%ADD11R,1.200000X0.750000*%
G04 #@! TD*
G04 #@! TA.AperFunction,SMDPad,CuDef*
%ADD12R,0.600000X0.800000*%
G04 #@! TD*
G04 #@! TA.AperFunction,ComponentPad*
%ADD13R,1.700000X1.700000*%
G04 #@! TD*
G04 #@! TA.AperFunction,ComponentPad*
%ADD14O,1.700000X1.700000*%
G04 #@! TD*
G04 #@! TA.AperFunction,SMDPad,CuDef*
%ADD15R,1.200000X0.900000*%
G04 #@! TD*
G04 #@! TA.AperFunction,SMDPad,CuDef*
%ADD16R,1.300000X1.550000*%
G04 #@! TD*
G04 #@! TA.AperFunction,ComponentPad*
%ADD17R,1.600000X1.600000*%
G04 #@! TD*
G04 #@! TA.AperFunction,ComponentPad*
%ADD18O,1.600000X1.600000*%
G04 #@! TD*
G04 #@! TA.AperFunction,SMDPad,CuDef*
%ADD19R,2.000000X7.875000*%
G04 #@! TD*
G04 #@! TA.AperFunction,SMDPad,CuDef*
%ADD20R,0.500000X2.300000*%
G04 #@! TD*
G04 #@! TA.AperFunction,SMDPad,CuDef*
%ADD21R,2.000000X2.500000*%
G04 #@! TD*
G04 #@! TA.AperFunction,ComponentPad*
%ADD22C,1.700000*%
G04 #@! TD*
G04 #@! TA.AperFunction,ViaPad*
%ADD23C,0.600000*%
G04 #@! TD*
G04 #@! TA.AperFunction,Conductor*
%ADD24C,0.406400*%
G04 #@! TD*
G04 #@! TA.AperFunction,Conductor*
%ADD25C,0.762000*%
G04 #@! TD*
G04 #@! TA.AperFunction,Conductor*
%ADD26C,0.254000*%
G04 #@! TD*
G04 APERTURE END LIST*
D10*
G04 #@! TO.P,U2,1*
G04 #@! TO.N,N/C*
X142240000Y-78740000D03*
G04 #@! TO.P,U2,2*
X144780000Y-78740000D03*
G04 #@! TO.P,U2,3*
G04 #@! TO.N,VBat*
X147320000Y-78740000D03*
G04 #@! TO.P,U2,4*
G04 #@! TO.N,N/C*
X149860000Y-78740000D03*
G04 #@! TO.P,U2,5*
G04 #@! TO.N,GPS_TX*
X152400000Y-78740000D03*
G04 #@! TO.P,U2,6*
G04 #@! TO.N,GPS_RX*
X154940000Y-78740000D03*
G04 #@! TO.P,U2,7*
G04 #@! TO.N,GND*
X157480000Y-78740000D03*
G04 #@! TO.P,U2,8*
G04 #@! TO.N,+5V*
X160020000Y-78740000D03*
G04 #@! TO.P,U2,9*
G04 #@! TO.N,N/C*
X162560000Y-78740000D03*
G04 #@! TD*
D11*
G04 #@! TO.P,C1,1*
G04 #@! TO.N,+5V*
X127609600Y-100787200D03*
G04 #@! TO.P,C1,2*
G04 #@! TO.N,GND*
X125709600Y-100787200D03*
G04 #@! TD*
D12*
G04 #@! TO.P,D1,1*
G04 #@! TO.N,Net-(D1-Pad1)*
X144868000Y-118973600D03*
G04 #@! TO.P,D1,2*
G04 #@! TO.N,Net-(D1-Pad2)*
X143168000Y-118973600D03*
G04 #@! TD*
G04 #@! TO.P,D2,1*
G04 #@! TO.N,Net-(D2-Pad1)*
X144868000Y-116433600D03*
G04 #@! TO.P,D2,2*
G04 #@! TO.N,Net-(D2-Pad2)*
X143168000Y-116433600D03*
G04 #@! TD*
G04 #@! TO.P,D3,1*
G04 #@! TO.N,GND*
X144868000Y-113893600D03*
G04 #@! TO.P,D3,2*
G04 #@! TO.N,Net-(D3-Pad2)*
X143168000Y-113893600D03*
G04 #@! TD*
D13*
G04 #@! TO.P,J1,1*
G04 #@! TO.N,RTS*
X126517400Y-109194600D03*
D14*
G04 #@! TO.P,J1,2*
G04 #@! TO.N,IC_RX*
X126517400Y-106654600D03*
G04 #@! TO.P,J1,3*
G04 #@! TO.N,IC_TX*
X126517400Y-104114600D03*
G04 #@! TD*
D15*
G04 #@! TO.P,R4,1*
G04 #@! TO.N,+5V*
X137838000Y-118973600D03*
G04 #@! TO.P,R4,2*
G04 #@! TO.N,Net-(D1-Pad2)*
X140038000Y-118973600D03*
G04 #@! TD*
G04 #@! TO.P,R5,1*
G04 #@! TO.N,+5V*
X137838000Y-116433600D03*
G04 #@! TO.P,R5,2*
G04 #@! TO.N,Net-(D2-Pad2)*
X140038000Y-116433600D03*
G04 #@! TD*
G04 #@! TO.P,R6,1*
G04 #@! TO.N,+5V*
X137838000Y-113893600D03*
G04 #@! TO.P,R6,2*
G04 #@! TO.N,Net-(D3-Pad2)*
X140038000Y-113893600D03*
G04 #@! TD*
D16*
G04 #@! TO.P,SW1,1*
G04 #@! TO.N,GND*
X126056000Y-112318800D03*
X126056000Y-120268800D03*
G04 #@! TO.P,SW1,2*
G04 #@! TO.N,Reset*
X130556000Y-112318800D03*
X130556000Y-120268800D03*
G04 #@! TD*
D17*
G04 #@! TO.P,U1,1*
G04 #@! TO.N,Reset*
X130530600Y-109194600D03*
D18*
G04 #@! TO.P,U1,15*
G04 #@! TO.N,N/C*
X138150600Y-76174600D03*
G04 #@! TO.P,U1,2*
G04 #@! TO.N,Net-(R2-Pad2)*
X130530600Y-106654600D03*
G04 #@! TO.P,U1,16*
G04 #@! TO.N,CS*
X138150600Y-78714600D03*
G04 #@! TO.P,U1,3*
G04 #@! TO.N,Net-(R3-Pad2)*
X130530600Y-104114600D03*
G04 #@! TO.P,U1,17*
G04 #@! TO.N,CLK*
X138150600Y-81254600D03*
G04 #@! TO.P,U1,4*
G04 #@! TO.N,GPS_RX*
X130530600Y-101574600D03*
G04 #@! TO.P,U1,18*
G04 #@! TO.N,DIN*
X138150600Y-83794600D03*
G04 #@! TO.P,U1,5*
G04 #@! TO.N,GPS_TX*
X130530600Y-99034600D03*
G04 #@! TO.P,U1,19*
G04 #@! TO.N,N/C*
X138150600Y-86334600D03*
G04 #@! TO.P,U1,6*
X130530600Y-96494600D03*
G04 #@! TO.P,U1,20*
G04 #@! TO.N,+5V*
X138150600Y-88874600D03*
G04 #@! TO.P,U1,7*
X130530600Y-93954600D03*
G04 #@! TO.P,U1,21*
G04 #@! TO.N,Net-(C2-Pad1)*
X138150600Y-91414600D03*
G04 #@! TO.P,U1,8*
G04 #@! TO.N,GND*
X130530600Y-91414600D03*
G04 #@! TO.P,U1,22*
X138150600Y-93954600D03*
G04 #@! TO.P,U1,9*
G04 #@! TO.N,Net-(C3-Pad1)*
X130530600Y-88874600D03*
G04 #@! TO.P,U1,23*
G04 #@! TO.N,N/C*
X138150600Y-96494600D03*
G04 #@! TO.P,U1,10*
G04 #@! TO.N,Net-(C4-Pad1)*
X130530600Y-86334600D03*
G04 #@! TO.P,U1,24*
G04 #@! TO.N,N/C*
X138150600Y-99034600D03*
G04 #@! TO.P,U1,11*
X130530600Y-83794600D03*
G04 #@! TO.P,U1,25*
X138150600Y-101574600D03*
G04 #@! TO.P,U1,12*
X130530600Y-81254600D03*
G04 #@! TO.P,U1,26*
X138150600Y-104114600D03*
G04 #@! TO.P,U1,13*
X130530600Y-78714600D03*
G04 #@! TO.P,U1,27*
X138150600Y-106654600D03*
G04 #@! TO.P,U1,14*
X130530600Y-76174600D03*
G04 #@! TO.P,U1,28*
X138150600Y-109194600D03*
G04 #@! TD*
D19*
G04 #@! TO.P,Y1,1*
G04 #@! TO.N,Net-(C3-Pad1)*
X126136400Y-90773500D03*
G04 #@! TO.P,Y1,2*
G04 #@! TO.N,Net-(C4-Pad1)*
X126136400Y-78898500D03*
G04 #@! TD*
D13*
G04 #@! TO.P,J4,1*
G04 #@! TO.N,+5V*
X163253802Y-113538000D03*
D14*
G04 #@! TO.P,J4,2*
G04 #@! TO.N,D-*
X160713802Y-113538000D03*
G04 #@! TO.P,J4,3*
G04 #@! TO.N,D+*
X158173802Y-113538000D03*
G04 #@! TO.P,J4,4*
G04 #@! TO.N,N/C*
X155633802Y-113538000D03*
G04 #@! TO.P,J4,5*
G04 #@! TO.N,GND*
X153093802Y-113538000D03*
G04 #@! TD*
D20*
G04 #@! TO.P,J3,1*
G04 #@! TO.N,+5V*
X159790360Y-118664100D03*
D21*
G04 #@! TO.P,J3,*
G04 #@! TO.N,*
X162640360Y-118764100D03*
D20*
G04 #@! TO.P,J3,2*
G04 #@! TO.N,D-*
X158990360Y-118664100D03*
G04 #@! TO.P,J3,3*
G04 #@! TO.N,D+*
X158190360Y-118664100D03*
G04 #@! TO.P,J3,4*
G04 #@! TO.N,N/C*
X157390360Y-118664100D03*
G04 #@! TO.P,J3,5*
G04 #@! TO.N,GND*
X156590360Y-118664100D03*
D21*
G04 #@! TO.P,J3,*
G04 #@! TO.N,*
X162640360Y-124264100D03*
X153740360Y-118764100D03*
X153740360Y-124264100D03*
G04 #@! TD*
D22*
G04 #@! TO.P,J2,CS*
G04 #@! TO.N,CS*
X147320000Y-73660000D03*
G04 #@! TO.P,J2,CLK*
G04 #@! TO.N,CLK*
X149860000Y-73660000D03*
G04 #@! TO.P,J2,DIN*
G04 #@! TO.N,DIN*
X144780000Y-73660000D03*
G04 #@! TO.P,J2,GND*
G04 #@! TO.N,GND*
X147320000Y-124460000D03*
G04 #@! TO.P,J2,VCC*
G04 #@! TO.N,+5V*
X149860000Y-124460000D03*
G04 #@! TD*
D23*
G04 #@! TO.N,+5V*
X142138400Y-96316800D03*
X135686800Y-111404400D03*
G04 #@! TO.N,GND*
X126060200Y-114173000D03*
X144373600Y-112369600D03*
X125730000Y-99314000D03*
G04 #@! TO.N,Net-(C3-Pad1)*
X126136400Y-94310200D03*
G04 #@! TO.N,Net-(C4-Pad1)*
X126136400Y-75514200D03*
G04 #@! TO.N,Reset*
X141046200Y-106070400D03*
X160578800Y-105308400D03*
G04 #@! TO.N,RTS*
X153509600Y-107238800D03*
G04 #@! TO.N,Net-(D1-Pad1)*
X145796000Y-118211600D03*
G04 #@! TO.N,Net-(D2-Pad1)*
X146507200Y-115671600D03*
G04 #@! TO.N,IC_RX*
X140403664Y-105359200D03*
X155651200Y-105054400D03*
G04 #@! TO.N,IC_TX*
X140741400Y-102844600D03*
X152908000Y-100431600D03*
G04 #@! TO.N,D-*
X150774400Y-110591600D03*
G04 #@! TO.N,D+*
X151892000Y-112115600D03*
G04 #@! TD*
D24*
G04 #@! TO.N,+5V*
X163253802Y-113901602D02*
X163253802Y-115158002D01*
X163253802Y-115158002D02*
X163095804Y-115316000D01*
X163095804Y-115316000D02*
X160992924Y-115316000D01*
X160992924Y-115316000D02*
X159781922Y-116527002D01*
X159781922Y-118655662D02*
X159790360Y-118664100D01*
X159781922Y-116527002D02*
X159781922Y-118655662D01*
D25*
G04 #@! TO.N,GND*
X126056000Y-112318800D02*
X126056000Y-114168800D01*
X126056000Y-114168800D02*
X126060200Y-114173000D01*
X126056000Y-116484400D02*
X126056000Y-114177200D01*
X126056000Y-114177200D02*
X126060200Y-114173000D01*
X156559359Y-117444900D02*
X156559359Y-118664100D01*
X153720521Y-115366800D02*
X155803600Y-115366800D01*
X155803600Y-115366800D02*
X156559359Y-116122559D01*
X156559359Y-116122559D02*
X156559359Y-117444900D01*
X153093802Y-113538000D02*
X153093802Y-114740081D01*
X153093802Y-114740081D02*
X153720521Y-115366800D01*
D24*
X144868000Y-113893600D02*
X144868000Y-112864000D01*
X144868000Y-112864000D02*
X144373600Y-112369600D01*
D25*
X126056000Y-116484400D02*
X126056000Y-120268800D01*
D24*
X125709600Y-100787200D02*
X125709600Y-99334400D01*
X125709600Y-99334400D02*
X125730000Y-99314000D01*
G04 #@! TO.N,Net-(C3-Pad1)*
X126136400Y-90773500D02*
X128631700Y-90773500D01*
X128631700Y-90773500D02*
X130530600Y-88874600D01*
G04 #@! TO.N,Net-(C4-Pad1)*
X126136400Y-78898500D02*
X126136400Y-81940400D01*
X126136400Y-81940400D02*
X129730601Y-85534601D01*
X129730601Y-85534601D02*
X130530600Y-86334600D01*
G04 #@! TO.N,Reset*
X149402800Y-105965610D02*
X149806010Y-105965610D01*
X141150990Y-105965610D02*
X149402800Y-105965610D01*
X141046200Y-106070400D02*
X141150990Y-105965610D01*
D25*
X130556000Y-112318800D02*
X130556000Y-120268800D01*
D24*
X150368373Y-105968800D02*
X159918400Y-105968800D01*
X159918400Y-105968800D02*
X160578800Y-105308400D01*
X149806010Y-105965610D02*
X150365183Y-105965610D01*
X150365183Y-105965610D02*
X150368373Y-105968800D01*
X130556000Y-112318800D02*
X130556000Y-109220000D01*
X130556000Y-109220000D02*
X130530600Y-109194600D01*
G04 #@! TO.N,RTS*
X126517400Y-109194600D02*
X127787400Y-107924600D01*
X141147800Y-107238800D02*
X153509600Y-107238800D01*
X127787400Y-107924600D02*
X140462000Y-107924600D01*
X140462000Y-107924600D02*
X141147800Y-107238800D01*
X126517400Y-109194600D02*
X126542800Y-109194600D01*
G04 #@! TO.N,Net-(D1-Pad1)*
X144868000Y-118973600D02*
X145034000Y-118973600D01*
X145034000Y-118973600D02*
X145796000Y-118211600D01*
G04 #@! TO.N,Net-(D1-Pad2)*
X140038000Y-118973600D02*
X143168000Y-118973600D01*
G04 #@! TO.N,Net-(D2-Pad1)*
X144868000Y-116433600D02*
X145745200Y-116433600D01*
X145745200Y-116433600D02*
X146507200Y-115671600D01*
G04 #@! TO.N,Net-(D2-Pad2)*
X143168000Y-116433600D02*
X140038000Y-116433600D01*
G04 #@! TO.N,Net-(D3-Pad2)*
X143168000Y-113893600D02*
X140038000Y-113893600D01*
G04 #@! TO.N,IC_RX*
X150619556Y-105362390D02*
X155444810Y-105362390D01*
X140403664Y-105359200D02*
X150616366Y-105359200D01*
X150616366Y-105359200D02*
X150619556Y-105362390D01*
X155444810Y-105362390D02*
X155651200Y-105156000D01*
X155651200Y-105156000D02*
X155651200Y-105054400D01*
G04 #@! TO.N,IC_TX*
X140741400Y-102844600D02*
X150495000Y-102844600D01*
X150495000Y-102844600D02*
X150520400Y-102819200D01*
X150520400Y-102819200D02*
X152908000Y-100431600D01*
G04 #@! TO.N,D-*
X158981922Y-117195600D02*
X158981922Y-117427002D01*
X158981922Y-115633482D02*
X158981922Y-117195600D01*
X158981922Y-118655662D02*
X158990360Y-118664100D01*
X158981922Y-117195600D02*
X158981922Y-118655662D01*
X160713802Y-113538000D02*
X160713802Y-113901602D01*
X160713802Y-113901602D02*
X158981922Y-115633482D01*
X160713802Y-113538000D02*
X160713802Y-112335919D01*
X160713802Y-112335919D02*
X159731483Y-111353600D01*
X159731483Y-111353600D02*
X151536400Y-111353600D01*
X151536400Y-111353600D02*
X151074399Y-110891599D01*
X151074399Y-110891599D02*
X150774400Y-110591600D01*
G04 #@! TO.N,D+*
X158173802Y-117418882D02*
X158173802Y-118647542D01*
X158173802Y-118647542D02*
X158190360Y-118664100D01*
X158173802Y-113901602D02*
X158173802Y-114960400D01*
X158173802Y-114960400D02*
X158173802Y-117418882D01*
X158173802Y-113538000D02*
X158173802Y-114960400D01*
X151892000Y-112115600D02*
X156751402Y-112115600D01*
X156751402Y-112115600D02*
X158173802Y-113538000D01*
X158173802Y-117418882D02*
X158181922Y-117427002D01*
G04 #@! TO.N,GPS_RX*
X150317200Y-100279200D02*
X154940000Y-95656400D01*
X154940000Y-95656400D02*
X154940000Y-78740000D01*
X131826000Y-100279200D02*
X150317200Y-100279200D01*
X130530600Y-101574600D02*
X131826000Y-100279200D01*
G04 #@! TO.N,GPS_TX*
X130530600Y-99034600D02*
X131826000Y-97739200D01*
X131826000Y-97739200D02*
X150622000Y-97739200D01*
X150622000Y-97739200D02*
X152400000Y-95961200D01*
X152400000Y-95961200D02*
X152400000Y-78740000D01*
G04 #@! TO.N,CS*
X147320000Y-73660000D02*
X147320000Y-76250800D01*
X147320000Y-76250800D02*
X146961210Y-76609590D01*
X146961210Y-76609590D02*
X140814410Y-76609590D01*
X140814410Y-76609590D02*
X140109590Y-77314410D01*
X140109590Y-77314410D02*
X140109590Y-78432010D01*
X139827000Y-78714600D02*
X138150600Y-78714600D01*
X140109590Y-78432010D02*
X139827000Y-78714600D01*
G04 #@! TO.N,CLK*
X149860000Y-73660000D02*
X149860000Y-76708000D01*
X149860000Y-76708000D02*
X149352000Y-77216000D01*
X149352000Y-77216000D02*
X141224000Y-77216000D01*
X141224000Y-77216000D02*
X140716000Y-77724000D01*
X140716000Y-77724000D02*
X140716000Y-80772000D01*
X140716000Y-80772000D02*
X140233400Y-81254600D01*
X140233400Y-81254600D02*
X138150600Y-81254600D01*
G04 #@! TD*
D26*
G04 #@! TO.N,+5V*
G36*
X164283698Y-71892958D02*
X164708893Y-72061305D01*
X165078858Y-72330101D01*
X165370356Y-72682462D01*
X165565067Y-73096244D01*
X165657093Y-73578662D01*
X165660001Y-73671195D01*
X165660000Y-124415333D01*
X165597042Y-124913699D01*
X165428697Y-125338889D01*
X165159899Y-125708859D01*
X164807541Y-126000355D01*
X164393756Y-126195067D01*
X163911339Y-126287093D01*
X163818836Y-126290000D01*
X125774667Y-126290000D01*
X125276301Y-126227042D01*
X124851111Y-126058697D01*
X124481141Y-125789899D01*
X124189645Y-125437541D01*
X123994933Y-125023756D01*
X123902907Y-124541339D01*
X123900000Y-124448836D01*
X123900000Y-124164615D01*
X145835000Y-124164615D01*
X145835000Y-124755385D01*
X146061078Y-125301185D01*
X146478815Y-125718922D01*
X147024615Y-125945000D01*
X147615385Y-125945000D01*
X148161185Y-125718922D01*
X148578922Y-125301185D01*
X148805000Y-124755385D01*
X148805000Y-124164615D01*
X148578922Y-123618815D01*
X148161185Y-123201078D01*
X147709781Y-123014100D01*
X152092920Y-123014100D01*
X152092920Y-125514100D01*
X152142203Y-125761865D01*
X152282551Y-125971909D01*
X152492595Y-126112257D01*
X152740360Y-126161540D01*
X154740360Y-126161540D01*
X154988125Y-126112257D01*
X155198169Y-125971909D01*
X155338517Y-125761865D01*
X155387800Y-125514100D01*
X155387800Y-123014100D01*
X160992920Y-123014100D01*
X160992920Y-125514100D01*
X161042203Y-125761865D01*
X161182551Y-125971909D01*
X161392595Y-126112257D01*
X161640360Y-126161540D01*
X163640360Y-126161540D01*
X163888125Y-126112257D01*
X164098169Y-125971909D01*
X164238517Y-125761865D01*
X164287800Y-125514100D01*
X164287800Y-123014100D01*
X164238517Y-122766335D01*
X164098169Y-122556291D01*
X163888125Y-122415943D01*
X163640360Y-122366660D01*
X161640360Y-122366660D01*
X161392595Y-122415943D01*
X161182551Y-122556291D01*
X161042203Y-122766335D01*
X160992920Y-123014100D01*
X155387800Y-123014100D01*
X155338517Y-122766335D01*
X155198169Y-122556291D01*
X154988125Y-122415943D01*
X154740360Y-122366660D01*
X152740360Y-122366660D01*
X152492595Y-122415943D01*
X152282551Y-122556291D01*
X152142203Y-122766335D01*
X152092920Y-123014100D01*
X147709781Y-123014100D01*
X147615385Y-122975000D01*
X147024615Y-122975000D01*
X146478815Y-123201078D01*
X146061078Y-123618815D01*
X145835000Y-124164615D01*
X123900000Y-124164615D01*
X123900000Y-111543800D01*
X124758560Y-111543800D01*
X124758560Y-113093800D01*
X124807843Y-113341565D01*
X124948191Y-113551609D01*
X125040001Y-113612955D01*
X125040001Y-114068732D01*
X125020096Y-114168800D01*
X125020931Y-114173000D01*
X125020096Y-114177200D01*
X125040001Y-114277268D01*
X125040000Y-116384335D01*
X125040000Y-116384336D01*
X125040001Y-118974645D01*
X124948191Y-119035991D01*
X124807843Y-119246035D01*
X124758560Y-119493800D01*
X124758560Y-121043800D01*
X124807843Y-121291565D01*
X124948191Y-121501609D01*
X125158235Y-121641957D01*
X125406000Y-121691240D01*
X126706000Y-121691240D01*
X126953765Y-121641957D01*
X127163809Y-121501609D01*
X127304157Y-121291565D01*
X127353440Y-121043800D01*
X127353440Y-119493800D01*
X127304157Y-119246035D01*
X127163809Y-119035991D01*
X127072000Y-118974646D01*
X127072000Y-114294178D01*
X127096104Y-114173000D01*
X127072000Y-114051822D01*
X127072000Y-113612954D01*
X127163809Y-113551609D01*
X127304157Y-113341565D01*
X127353440Y-113093800D01*
X127353440Y-111543800D01*
X127304157Y-111296035D01*
X127163809Y-111085991D01*
X126953765Y-110945643D01*
X126706000Y-110896360D01*
X125406000Y-110896360D01*
X125158235Y-110945643D01*
X124948191Y-111085991D01*
X124807843Y-111296035D01*
X124758560Y-111543800D01*
X123900000Y-111543800D01*
X123900000Y-104114600D01*
X125003308Y-104114600D01*
X125118561Y-104694018D01*
X125446775Y-105185225D01*
X125745161Y-105384600D01*
X125446775Y-105583975D01*
X125118561Y-106075182D01*
X125003308Y-106654600D01*
X125118561Y-107234018D01*
X125446775Y-107725225D01*
X125465019Y-107737416D01*
X125419635Y-107746443D01*
X125209591Y-107886791D01*
X125069243Y-108096835D01*
X125019960Y-108344600D01*
X125019960Y-110044600D01*
X125069243Y-110292365D01*
X125209591Y-110502409D01*
X125419635Y-110642757D01*
X125667400Y-110692040D01*
X127367400Y-110692040D01*
X127615165Y-110642757D01*
X127825209Y-110502409D01*
X127965557Y-110292365D01*
X128014840Y-110044600D01*
X128014840Y-108882554D01*
X128134594Y-108762800D01*
X129083160Y-108762800D01*
X129083160Y-109994600D01*
X129132443Y-110242365D01*
X129272791Y-110452409D01*
X129482835Y-110592757D01*
X129717801Y-110639494D01*
X129717800Y-110933795D01*
X129658235Y-110945643D01*
X129448191Y-111085991D01*
X129307843Y-111296035D01*
X129258560Y-111543800D01*
X129258560Y-113093800D01*
X129307843Y-113341565D01*
X129448191Y-113551609D01*
X129540000Y-113612954D01*
X129540001Y-118974645D01*
X129448191Y-119035991D01*
X129307843Y-119246035D01*
X129258560Y-119493800D01*
X129258560Y-121043800D01*
X129307843Y-121291565D01*
X129448191Y-121501609D01*
X129658235Y-121641957D01*
X129906000Y-121691240D01*
X131206000Y-121691240D01*
X131453765Y-121641957D01*
X131663809Y-121501609D01*
X131804157Y-121291565D01*
X131853440Y-121043800D01*
X131853440Y-119493800D01*
X131804157Y-119246035D01*
X131663809Y-119035991D01*
X131572000Y-118974646D01*
X131572000Y-115983600D01*
X138790560Y-115983600D01*
X138790560Y-116883600D01*
X138839843Y-117131365D01*
X138980191Y-117341409D01*
X139190235Y-117481757D01*
X139438000Y-117531040D01*
X140638000Y-117531040D01*
X140885765Y-117481757D01*
X141095809Y-117341409D01*
X141142321Y-117271800D01*
X142397089Y-117271800D01*
X142410191Y-117291409D01*
X142620235Y-117431757D01*
X142868000Y-117481040D01*
X143468000Y-117481040D01*
X143715765Y-117431757D01*
X143925809Y-117291409D01*
X144018000Y-117153436D01*
X144110191Y-117291409D01*
X144320235Y-117431757D01*
X144568000Y-117481040D01*
X145168000Y-117481040D01*
X145213276Y-117472034D01*
X145003345Y-117681965D01*
X144906545Y-117915661D01*
X144896046Y-117926160D01*
X144568000Y-117926160D01*
X144320235Y-117975443D01*
X144110191Y-118115791D01*
X144018000Y-118253764D01*
X143925809Y-118115791D01*
X143715765Y-117975443D01*
X143468000Y-117926160D01*
X142868000Y-117926160D01*
X142620235Y-117975443D01*
X142410191Y-118115791D01*
X142397089Y-118135400D01*
X141142321Y-118135400D01*
X141095809Y-118065791D01*
X140885765Y-117925443D01*
X140638000Y-117876160D01*
X139438000Y-117876160D01*
X139190235Y-117925443D01*
X138980191Y-118065791D01*
X138839843Y-118275835D01*
X138790560Y-118523600D01*
X138790560Y-119423600D01*
X138839843Y-119671365D01*
X138980191Y-119881409D01*
X139190235Y-120021757D01*
X139438000Y-120071040D01*
X140638000Y-120071040D01*
X140885765Y-120021757D01*
X141095809Y-119881409D01*
X141142321Y-119811800D01*
X142397089Y-119811800D01*
X142410191Y-119831409D01*
X142620235Y-119971757D01*
X142868000Y-120021040D01*
X143468000Y-120021040D01*
X143715765Y-119971757D01*
X143925809Y-119831409D01*
X144018000Y-119693436D01*
X144110191Y-119831409D01*
X144320235Y-119971757D01*
X144568000Y-120021040D01*
X145168000Y-120021040D01*
X145415765Y-119971757D01*
X145625809Y-119831409D01*
X145766157Y-119621365D01*
X145814458Y-119378535D01*
X146091939Y-119101055D01*
X146325635Y-119004255D01*
X146588655Y-118741235D01*
X146731000Y-118397583D01*
X146731000Y-118025617D01*
X146588655Y-117681965D01*
X146420790Y-117514100D01*
X152092920Y-117514100D01*
X152092920Y-120014100D01*
X152142203Y-120261865D01*
X152282551Y-120471909D01*
X152492595Y-120612257D01*
X152740360Y-120661540D01*
X154740360Y-120661540D01*
X154988125Y-120612257D01*
X155198169Y-120471909D01*
X155338517Y-120261865D01*
X155387800Y-120014100D01*
X155387800Y-117514100D01*
X155338517Y-117266335D01*
X155198169Y-117056291D01*
X154988125Y-116915943D01*
X154740360Y-116866660D01*
X152740360Y-116866660D01*
X152492595Y-116915943D01*
X152282551Y-117056291D01*
X152142203Y-117266335D01*
X152092920Y-117514100D01*
X146420790Y-117514100D01*
X146325635Y-117418945D01*
X145981983Y-117276600D01*
X145803618Y-117276600D01*
X145827749Y-117271800D01*
X145827754Y-117271800D01*
X146072249Y-117223167D01*
X146349508Y-117037908D01*
X146396272Y-116967922D01*
X146803139Y-116561055D01*
X147036835Y-116464255D01*
X147299855Y-116201235D01*
X147442200Y-115857583D01*
X147442200Y-115485617D01*
X147299855Y-115141965D01*
X147036835Y-114878945D01*
X146693183Y-114736600D01*
X146321217Y-114736600D01*
X145977565Y-114878945D01*
X145714545Y-115141965D01*
X145617745Y-115375661D01*
X145501007Y-115492400D01*
X145415765Y-115435443D01*
X145168000Y-115386160D01*
X144568000Y-115386160D01*
X144320235Y-115435443D01*
X144110191Y-115575791D01*
X144018000Y-115713764D01*
X143925809Y-115575791D01*
X143715765Y-115435443D01*
X143468000Y-115386160D01*
X142868000Y-115386160D01*
X142620235Y-115435443D01*
X142410191Y-115575791D01*
X142397089Y-115595400D01*
X141142321Y-115595400D01*
X141095809Y-115525791D01*
X140885765Y-115385443D01*
X140638000Y-115336160D01*
X139438000Y-115336160D01*
X139190235Y-115385443D01*
X138980191Y-115525791D01*
X138839843Y-115735835D01*
X138790560Y-115983600D01*
X131572000Y-115983600D01*
X131572000Y-113612954D01*
X131663809Y-113551609D01*
X131735978Y-113443600D01*
X138790560Y-113443600D01*
X138790560Y-114343600D01*
X138839843Y-114591365D01*
X138980191Y-114801409D01*
X139190235Y-114941757D01*
X139438000Y-114991040D01*
X140638000Y-114991040D01*
X140885765Y-114941757D01*
X141095809Y-114801409D01*
X141142321Y-114731800D01*
X142397089Y-114731800D01*
X142410191Y-114751409D01*
X142620235Y-114891757D01*
X142868000Y-114941040D01*
X143468000Y-114941040D01*
X143715765Y-114891757D01*
X143925809Y-114751409D01*
X144018000Y-114613436D01*
X144110191Y-114751409D01*
X144320235Y-114891757D01*
X144568000Y-114941040D01*
X145168000Y-114941040D01*
X145415765Y-114891757D01*
X145625809Y-114751409D01*
X145766157Y-114541365D01*
X145815440Y-114293600D01*
X145815440Y-113493600D01*
X145766157Y-113245835D01*
X145706200Y-113156104D01*
X145706200Y-112946548D01*
X145722620Y-112863999D01*
X145706200Y-112781450D01*
X145706200Y-112781446D01*
X145657567Y-112536951D01*
X145472308Y-112259692D01*
X145402321Y-112212928D01*
X145263055Y-112073662D01*
X145166255Y-111839965D01*
X144903235Y-111576945D01*
X144559583Y-111434600D01*
X144187617Y-111434600D01*
X143843965Y-111576945D01*
X143580945Y-111839965D01*
X143438600Y-112183617D01*
X143438600Y-112555583D01*
X143567128Y-112865878D01*
X143468000Y-112846160D01*
X142868000Y-112846160D01*
X142620235Y-112895443D01*
X142410191Y-113035791D01*
X142397089Y-113055400D01*
X141142321Y-113055400D01*
X141095809Y-112985791D01*
X140885765Y-112845443D01*
X140638000Y-112796160D01*
X139438000Y-112796160D01*
X139190235Y-112845443D01*
X138980191Y-112985791D01*
X138839843Y-113195835D01*
X138790560Y-113443600D01*
X131735978Y-113443600D01*
X131804157Y-113341565D01*
X131853440Y-113093800D01*
X131853440Y-111543800D01*
X131804157Y-111296035D01*
X131663809Y-111085991D01*
X131453765Y-110945643D01*
X131394200Y-110933795D01*
X131394200Y-110629389D01*
X131578365Y-110592757D01*
X131788409Y-110452409D01*
X131928757Y-110242365D01*
X131978040Y-109994600D01*
X131978040Y-108762800D01*
X136773377Y-108762800D01*
X136687487Y-109194600D01*
X136798860Y-109754509D01*
X137116023Y-110229177D01*
X137590691Y-110546340D01*
X138009267Y-110629600D01*
X138291933Y-110629600D01*
X138710509Y-110546340D01*
X139185177Y-110229177D01*
X139502340Y-109754509D01*
X139613713Y-109194600D01*
X139527823Y-108762800D01*
X140367421Y-108762800D01*
X140335000Y-108841072D01*
X140335000Y-109598928D01*
X140625019Y-110299096D01*
X141160904Y-110834981D01*
X141861072Y-111125000D01*
X142618928Y-111125000D01*
X143319096Y-110834981D01*
X143748460Y-110405617D01*
X149839400Y-110405617D01*
X149839400Y-110777583D01*
X149981745Y-111121235D01*
X150244765Y-111384255D01*
X150478462Y-111481055D01*
X150885328Y-111887921D01*
X150932092Y-111957908D01*
X150957000Y-111974551D01*
X150957000Y-112301583D01*
X151099345Y-112645235D01*
X151362365Y-112908255D01*
X151678894Y-113039365D01*
X151579710Y-113538000D01*
X151694963Y-114117418D01*
X152023177Y-114608625D01*
X152076905Y-114644525D01*
X152057898Y-114740081D01*
X152136752Y-115136504D01*
X152250296Y-115306434D01*
X152361308Y-115472576D01*
X152446140Y-115529259D01*
X152931341Y-116014460D01*
X152988026Y-116099295D01*
X153324098Y-116323851D01*
X153620456Y-116382800D01*
X153620457Y-116382800D01*
X153720521Y-116402704D01*
X153820585Y-116382800D01*
X155382760Y-116382800D01*
X155543359Y-116543400D01*
X155543360Y-117344832D01*
X155543359Y-117344836D01*
X155543360Y-118764165D01*
X155602309Y-119060523D01*
X155692920Y-119196132D01*
X155692920Y-119814100D01*
X155742203Y-120061865D01*
X155882551Y-120271909D01*
X156092595Y-120412257D01*
X156177271Y-120429100D01*
X155774540Y-120429100D01*
X155375757Y-120594282D01*
X155070542Y-120899497D01*
X154905360Y-121298280D01*
X154905360Y-121729920D01*
X155070542Y-122128703D01*
X155375757Y-122433918D01*
X155774540Y-122599100D01*
X156206180Y-122599100D01*
X156604963Y-122433918D01*
X156910178Y-122128703D01*
X157075360Y-121729920D01*
X157075360Y-121298280D01*
X159305360Y-121298280D01*
X159305360Y-121729920D01*
X159470542Y-122128703D01*
X159775757Y-122433918D01*
X160174540Y-122599100D01*
X160606180Y-122599100D01*
X161004963Y-122433918D01*
X161310178Y-122128703D01*
X161475360Y-121729920D01*
X161475360Y-121298280D01*
X161310178Y-120899497D01*
X161004963Y-120594282D01*
X160606180Y-120429100D01*
X160174540Y-120429100D01*
X159775757Y-120594282D01*
X159470542Y-120899497D01*
X159305360Y-121298280D01*
X157075360Y-121298280D01*
X156910178Y-120899497D01*
X156604963Y-120594282D01*
X156232887Y-120440163D01*
X156340360Y-120461540D01*
X156840360Y-120461540D01*
X156990360Y-120431703D01*
X157140360Y-120461540D01*
X157640360Y-120461540D01*
X157790360Y-120431703D01*
X157940360Y-120461540D01*
X158440360Y-120461540D01*
X158590360Y-120431703D01*
X158740360Y-120461540D01*
X159240360Y-120461540D01*
X159488125Y-120412257D01*
X159698169Y-120271909D01*
X159838517Y-120061865D01*
X159887800Y-119814100D01*
X159887800Y-117514100D01*
X160992920Y-117514100D01*
X160992920Y-120014100D01*
X161042203Y-120261865D01*
X161182551Y-120471909D01*
X161392595Y-120612257D01*
X161640360Y-120661540D01*
X163640360Y-120661540D01*
X163888125Y-120612257D01*
X164098169Y-120471909D01*
X164238517Y-120261865D01*
X164287800Y-120014100D01*
X164287800Y-117514100D01*
X164238517Y-117266335D01*
X164098169Y-117056291D01*
X163888125Y-116915943D01*
X163640360Y-116866660D01*
X161640360Y-116866660D01*
X161392595Y-116915943D01*
X161182551Y-117056291D01*
X161042203Y-117266335D01*
X160992920Y-117514100D01*
X159887800Y-117514100D01*
X159838517Y-117266335D01*
X159820122Y-117238805D01*
X159820122Y-115980675D01*
X160777798Y-115023000D01*
X160860058Y-115023000D01*
X161293220Y-114936839D01*
X161784427Y-114608625D01*
X162112641Y-114117418D01*
X162227894Y-113538000D01*
X162112641Y-112958582D01*
X161784427Y-112467375D01*
X161565469Y-112321072D01*
X161552002Y-112253370D01*
X161552002Y-112253365D01*
X161503369Y-112008870D01*
X161318110Y-111731611D01*
X161248126Y-111684849D01*
X160382555Y-110819278D01*
X160335791Y-110749292D01*
X160058532Y-110564033D01*
X159814037Y-110515400D01*
X159814032Y-110515400D01*
X159731483Y-110498980D01*
X159648934Y-110515400D01*
X151883593Y-110515400D01*
X151663855Y-110295662D01*
X151567055Y-110061965D01*
X151304035Y-109798945D01*
X150960383Y-109656600D01*
X150588417Y-109656600D01*
X150244765Y-109798945D01*
X149981745Y-110061965D01*
X149839400Y-110405617D01*
X143748460Y-110405617D01*
X143854981Y-110299096D01*
X144145000Y-109598928D01*
X144145000Y-108841072D01*
X160655000Y-108841072D01*
X160655000Y-109598928D01*
X160945019Y-110299096D01*
X161480904Y-110834981D01*
X162181072Y-111125000D01*
X162938928Y-111125000D01*
X163639096Y-110834981D01*
X164174981Y-110299096D01*
X164465000Y-109598928D01*
X164465000Y-108841072D01*
X164174981Y-108140904D01*
X163639096Y-107605019D01*
X162938928Y-107315000D01*
X162181072Y-107315000D01*
X161480904Y-107605019D01*
X160945019Y-108140904D01*
X160655000Y-108841072D01*
X144145000Y-108841072D01*
X143854981Y-108140904D01*
X143791077Y-108077000D01*
X153089921Y-108077000D01*
X153323617Y-108173800D01*
X153695583Y-108173800D01*
X154039235Y-108031455D01*
X154302255Y-107768435D01*
X154444600Y-107424783D01*
X154444600Y-107052817D01*
X154342779Y-106807000D01*
X159835851Y-106807000D01*
X159918400Y-106823420D01*
X160000949Y-106807000D01*
X160000954Y-106807000D01*
X160245449Y-106758367D01*
X160522708Y-106573108D01*
X160569471Y-106503122D01*
X160874739Y-106197855D01*
X161108435Y-106101055D01*
X161371455Y-105838035D01*
X161513800Y-105494383D01*
X161513800Y-105122417D01*
X161371455Y-104778765D01*
X161108435Y-104515745D01*
X160764783Y-104373400D01*
X160392817Y-104373400D01*
X160049165Y-104515745D01*
X159786145Y-104778765D01*
X159689345Y-105012461D01*
X159571207Y-105130600D01*
X156586200Y-105130600D01*
X156586200Y-104868417D01*
X156443855Y-104524765D01*
X156180835Y-104261745D01*
X155837183Y-104119400D01*
X155465217Y-104119400D01*
X155121565Y-104261745D01*
X154859120Y-104524190D01*
X150714957Y-104524190D01*
X150698920Y-104521000D01*
X150698915Y-104521000D01*
X150616366Y-104504580D01*
X150533817Y-104521000D01*
X140823343Y-104521000D01*
X140589647Y-104424200D01*
X140217681Y-104424200D01*
X139874029Y-104566545D01*
X139611009Y-104829565D01*
X139468664Y-105173217D01*
X139468664Y-105545183D01*
X139611009Y-105888835D01*
X139874029Y-106151855D01*
X140111200Y-106250094D01*
X140111200Y-106256383D01*
X140253545Y-106600035D01*
X140427358Y-106773848D01*
X140114807Y-107086400D01*
X139527823Y-107086400D01*
X139613713Y-106654600D01*
X139502340Y-106094691D01*
X139185177Y-105620023D01*
X138832842Y-105384600D01*
X139185177Y-105149177D01*
X139502340Y-104674509D01*
X139613713Y-104114600D01*
X139502340Y-103554691D01*
X139185177Y-103080023D01*
X138832842Y-102844600D01*
X139111184Y-102658617D01*
X139806400Y-102658617D01*
X139806400Y-103030583D01*
X139948745Y-103374235D01*
X140211765Y-103637255D01*
X140555417Y-103779600D01*
X140927383Y-103779600D01*
X141161079Y-103682800D01*
X150412451Y-103682800D01*
X150495000Y-103699220D01*
X150577549Y-103682800D01*
X150577554Y-103682800D01*
X150822049Y-103634167D01*
X151099308Y-103448908D01*
X151146072Y-103378921D01*
X151171471Y-103353522D01*
X153203939Y-101321055D01*
X153437635Y-101224255D01*
X153700655Y-100961235D01*
X153843000Y-100617583D01*
X153843000Y-100245617D01*
X153700655Y-99901965D01*
X153437635Y-99638945D01*
X153093983Y-99496600D01*
X152722017Y-99496600D01*
X152378365Y-99638945D01*
X152115345Y-99901965D01*
X152018545Y-100135661D01*
X150147807Y-102006400D01*
X141161079Y-102006400D01*
X140927383Y-101909600D01*
X140555417Y-101909600D01*
X140211765Y-102051945D01*
X139948745Y-102314965D01*
X139806400Y-102658617D01*
X139111184Y-102658617D01*
X139185177Y-102609177D01*
X139502340Y-102134509D01*
X139613713Y-101574600D01*
X139522770Y-101117400D01*
X150234651Y-101117400D01*
X150317200Y-101133820D01*
X150399749Y-101117400D01*
X150399754Y-101117400D01*
X150644249Y-101068767D01*
X150921508Y-100883508D01*
X150968272Y-100813521D01*
X155474325Y-96307469D01*
X155544308Y-96260708D01*
X155729567Y-95983449D01*
X155778200Y-95738954D01*
X155778200Y-95738950D01*
X155794620Y-95656401D01*
X155778200Y-95573852D01*
X155778200Y-79877457D01*
X156124320Y-79531337D01*
X156210000Y-79324487D01*
X156295680Y-79531337D01*
X156688663Y-79924320D01*
X157202119Y-80137000D01*
X157757881Y-80137000D01*
X158271337Y-79924320D01*
X158664320Y-79531337D01*
X158877000Y-79017881D01*
X158877000Y-78462119D01*
X161163000Y-78462119D01*
X161163000Y-79017881D01*
X161375680Y-79531337D01*
X161768663Y-79924320D01*
X162282119Y-80137000D01*
X162837881Y-80137000D01*
X163351337Y-79924320D01*
X163744320Y-79531337D01*
X163957000Y-79017881D01*
X163957000Y-78462119D01*
X163744320Y-77948663D01*
X163351337Y-77555680D01*
X162837881Y-77343000D01*
X162282119Y-77343000D01*
X161768663Y-77555680D01*
X161375680Y-77948663D01*
X161163000Y-78462119D01*
X158877000Y-78462119D01*
X158664320Y-77948663D01*
X158271337Y-77555680D01*
X157757881Y-77343000D01*
X157202119Y-77343000D01*
X156688663Y-77555680D01*
X156295680Y-77948663D01*
X156210000Y-78155513D01*
X156124320Y-77948663D01*
X155731337Y-77555680D01*
X155217881Y-77343000D01*
X154662119Y-77343000D01*
X154148663Y-77555680D01*
X153755680Y-77948663D01*
X153670000Y-78155513D01*
X153584320Y-77948663D01*
X153191337Y-77555680D01*
X152677881Y-77343000D01*
X152122119Y-77343000D01*
X151608663Y-77555680D01*
X151215680Y-77948663D01*
X151130000Y-78155513D01*
X151044320Y-77948663D01*
X150651337Y-77555680D01*
X150330576Y-77422817D01*
X150394321Y-77359072D01*
X150464308Y-77312308D01*
X150649567Y-77035049D01*
X150698200Y-76790554D01*
X150698200Y-76790550D01*
X150714620Y-76708001D01*
X150698200Y-76625452D01*
X150698200Y-74920158D01*
X150701185Y-74918922D01*
X151118922Y-74501185D01*
X151345000Y-73955385D01*
X151345000Y-73364615D01*
X151118922Y-72818815D01*
X150701185Y-72401078D01*
X150155385Y-72175000D01*
X149564615Y-72175000D01*
X149018815Y-72401078D01*
X148601078Y-72818815D01*
X148590000Y-72845560D01*
X148578922Y-72818815D01*
X148161185Y-72401078D01*
X147615385Y-72175000D01*
X147024615Y-72175000D01*
X146478815Y-72401078D01*
X146061078Y-72818815D01*
X146050000Y-72845560D01*
X146038922Y-72818815D01*
X145621185Y-72401078D01*
X145075385Y-72175000D01*
X144484615Y-72175000D01*
X143938815Y-72401078D01*
X143521078Y-72818815D01*
X143295000Y-73364615D01*
X143295000Y-73955385D01*
X143521078Y-74501185D01*
X143938815Y-74918922D01*
X144484615Y-75145000D01*
X145075385Y-75145000D01*
X145621185Y-74918922D01*
X146038922Y-74501185D01*
X146050000Y-74474440D01*
X146061078Y-74501185D01*
X146478815Y-74918922D01*
X146481800Y-74920159D01*
X146481801Y-75771390D01*
X140896958Y-75771390D01*
X140814409Y-75754970D01*
X140731860Y-75771390D01*
X140731856Y-75771390D01*
X140487361Y-75820023D01*
X140487359Y-75820024D01*
X140487360Y-75820024D01*
X140280087Y-75958519D01*
X140280086Y-75958520D01*
X140210102Y-76005282D01*
X140163340Y-76075266D01*
X139575268Y-76663338D01*
X139507488Y-76708628D01*
X139613713Y-76174600D01*
X139502340Y-75614691D01*
X139185177Y-75140023D01*
X138710509Y-74822860D01*
X138291933Y-74739600D01*
X138009267Y-74739600D01*
X137590691Y-74822860D01*
X137116023Y-75140023D01*
X136798860Y-75614691D01*
X136687487Y-76174600D01*
X136798860Y-76734509D01*
X137116023Y-77209177D01*
X137468358Y-77444600D01*
X137116023Y-77680023D01*
X136798860Y-78154691D01*
X136687487Y-78714600D01*
X136798860Y-79274509D01*
X137116023Y-79749177D01*
X137468358Y-79984600D01*
X137116023Y-80220023D01*
X136798860Y-80694691D01*
X136687487Y-81254600D01*
X136798860Y-81814509D01*
X137116023Y-82289177D01*
X137468358Y-82524600D01*
X137116023Y-82760023D01*
X136798860Y-83234691D01*
X136687487Y-83794600D01*
X136798860Y-84354509D01*
X137116023Y-84829177D01*
X137468358Y-85064600D01*
X137116023Y-85300023D01*
X136798860Y-85774691D01*
X136687487Y-86334600D01*
X136798860Y-86894509D01*
X137116023Y-87369177D01*
X137590691Y-87686340D01*
X138009267Y-87769600D01*
X138291933Y-87769600D01*
X138710509Y-87686340D01*
X139185177Y-87369177D01*
X139502340Y-86894509D01*
X139613713Y-86334600D01*
X139502340Y-85774691D01*
X139185177Y-85300023D01*
X138832842Y-85064600D01*
X139185177Y-84829177D01*
X139502340Y-84354509D01*
X139613713Y-83794600D01*
X139502340Y-83234691D01*
X139185177Y-82760023D01*
X138832842Y-82524600D01*
X139185177Y-82289177D01*
X139316392Y-82092800D01*
X140150851Y-82092800D01*
X140233400Y-82109220D01*
X140315949Y-82092800D01*
X140315954Y-82092800D01*
X140560449Y-82044167D01*
X140837708Y-81858908D01*
X140884472Y-81788921D01*
X141250321Y-81423072D01*
X141320308Y-81376308D01*
X141505567Y-81099049D01*
X141554200Y-80854554D01*
X141554200Y-80854550D01*
X141570620Y-80772001D01*
X141554200Y-80689452D01*
X141554200Y-79968035D01*
X141962119Y-80137000D01*
X142517881Y-80137000D01*
X143031337Y-79924320D01*
X143424320Y-79531337D01*
X143510000Y-79324487D01*
X143595680Y-79531337D01*
X143988663Y-79924320D01*
X144502119Y-80137000D01*
X145057881Y-80137000D01*
X145571337Y-79924320D01*
X145964320Y-79531337D01*
X146050000Y-79324487D01*
X146135680Y-79531337D01*
X146528663Y-79924320D01*
X147042119Y-80137000D01*
X147597881Y-80137000D01*
X148111337Y-79924320D01*
X148504320Y-79531337D01*
X148590000Y-79324487D01*
X148675680Y-79531337D01*
X149068663Y-79924320D01*
X149582119Y-80137000D01*
X150137881Y-80137000D01*
X150651337Y-79924320D01*
X151044320Y-79531337D01*
X151130000Y-79324487D01*
X151215680Y-79531337D01*
X151561801Y-79877458D01*
X151561800Y-95614006D01*
X150274807Y-96901000D01*
X139532875Y-96901000D01*
X139613713Y-96494600D01*
X139502340Y-95934691D01*
X139185177Y-95460023D01*
X138832842Y-95224600D01*
X139185177Y-94989177D01*
X139502340Y-94514509D01*
X139613713Y-93954600D01*
X139502340Y-93394691D01*
X139185177Y-92920023D01*
X138832842Y-92684600D01*
X139185177Y-92449177D01*
X139502340Y-91974509D01*
X139613713Y-91414600D01*
X139502340Y-90854691D01*
X139185177Y-90380023D01*
X138710509Y-90062860D01*
X138291933Y-89979600D01*
X138009267Y-89979600D01*
X137590691Y-90062860D01*
X137116023Y-90380023D01*
X136798860Y-90854691D01*
X136687487Y-91414600D01*
X136798860Y-91974509D01*
X137116023Y-92449177D01*
X137468358Y-92684600D01*
X137116023Y-92920023D01*
X136798860Y-93394691D01*
X136687487Y-93954600D01*
X136798860Y-94514509D01*
X137116023Y-94989177D01*
X137468358Y-95224600D01*
X137116023Y-95460023D01*
X136798860Y-95934691D01*
X136687487Y-96494600D01*
X136768325Y-96901000D01*
X131912875Y-96901000D01*
X131993713Y-96494600D01*
X131882340Y-95934691D01*
X131565177Y-95460023D01*
X131090509Y-95142860D01*
X130671933Y-95059600D01*
X130389267Y-95059600D01*
X129970691Y-95142860D01*
X129496023Y-95460023D01*
X129178860Y-95934691D01*
X129067487Y-96494600D01*
X129178860Y-97054509D01*
X129496023Y-97529177D01*
X129848358Y-97764600D01*
X129496023Y-98000023D01*
X129178860Y-98474691D01*
X129067487Y-99034600D01*
X129178860Y-99594509D01*
X129496023Y-100069177D01*
X129848358Y-100304600D01*
X129496023Y-100540023D01*
X129178860Y-101014691D01*
X129067487Y-101574600D01*
X129178860Y-102134509D01*
X129496023Y-102609177D01*
X129848358Y-102844600D01*
X129496023Y-103080023D01*
X129178860Y-103554691D01*
X129067487Y-104114600D01*
X129178860Y-104674509D01*
X129496023Y-105149177D01*
X129848358Y-105384600D01*
X129496023Y-105620023D01*
X129178860Y-106094691D01*
X129067487Y-106654600D01*
X129153377Y-107086400D01*
X127945602Y-107086400D01*
X128031492Y-106654600D01*
X127916239Y-106075182D01*
X127588025Y-105583975D01*
X127289639Y-105384600D01*
X127588025Y-105185225D01*
X127916239Y-104694018D01*
X128031492Y-104114600D01*
X127916239Y-103535182D01*
X127588025Y-103043975D01*
X127096818Y-102715761D01*
X126663656Y-102629600D01*
X126371144Y-102629600D01*
X125937982Y-102715761D01*
X125446775Y-103043975D01*
X125118561Y-103535182D01*
X125003308Y-104114600D01*
X123900000Y-104114600D01*
X123900000Y-100412200D01*
X124462160Y-100412200D01*
X124462160Y-101162200D01*
X124511443Y-101409965D01*
X124651791Y-101620009D01*
X124861835Y-101760357D01*
X125109600Y-101809640D01*
X126309600Y-101809640D01*
X126557365Y-101760357D01*
X126767409Y-101620009D01*
X126907757Y-101409965D01*
X126957040Y-101162200D01*
X126957040Y-100412200D01*
X126907757Y-100164435D01*
X126767409Y-99954391D01*
X126557365Y-99814043D01*
X126547800Y-99812140D01*
X126547800Y-99782929D01*
X126665000Y-99499983D01*
X126665000Y-99128017D01*
X126522655Y-98784365D01*
X126259635Y-98521345D01*
X125915983Y-98379000D01*
X125544017Y-98379000D01*
X125200365Y-98521345D01*
X124937345Y-98784365D01*
X124795000Y-99128017D01*
X124795000Y-99499983D01*
X124871401Y-99684431D01*
X124871401Y-99812140D01*
X124861835Y-99814043D01*
X124651791Y-99954391D01*
X124511443Y-100164435D01*
X124462160Y-100412200D01*
X123900000Y-100412200D01*
X123900000Y-74961000D01*
X124488960Y-74961000D01*
X124488960Y-82836000D01*
X124538243Y-83083765D01*
X124678591Y-83293809D01*
X124888635Y-83434157D01*
X125136400Y-83483440D01*
X126494047Y-83483440D01*
X129113564Y-86102958D01*
X129067487Y-86334600D01*
X129178860Y-86894509D01*
X129496023Y-87369177D01*
X129848358Y-87604600D01*
X129496023Y-87840023D01*
X129178860Y-88314691D01*
X129067487Y-88874600D01*
X129113564Y-89106243D01*
X128284507Y-89935300D01*
X127783840Y-89935300D01*
X127783840Y-86836000D01*
X127734557Y-86588235D01*
X127594209Y-86378191D01*
X127384165Y-86237843D01*
X127136400Y-86188560D01*
X125136400Y-86188560D01*
X124888635Y-86237843D01*
X124678591Y-86378191D01*
X124538243Y-86588235D01*
X124488960Y-86836000D01*
X124488960Y-94711000D01*
X124538243Y-94958765D01*
X124678591Y-95168809D01*
X124888635Y-95309157D01*
X125136400Y-95358440D01*
X127136400Y-95358440D01*
X127384165Y-95309157D01*
X127594209Y-95168809D01*
X127734557Y-94958765D01*
X127783840Y-94711000D01*
X127783840Y-91611700D01*
X128549151Y-91611700D01*
X128631700Y-91628120D01*
X128714249Y-91611700D01*
X128714254Y-91611700D01*
X128958749Y-91563067D01*
X129080798Y-91481517D01*
X129178860Y-91974509D01*
X129496023Y-92449177D01*
X129970691Y-92766340D01*
X130389267Y-92849600D01*
X130671933Y-92849600D01*
X131090509Y-92766340D01*
X131565177Y-92449177D01*
X131882340Y-91974509D01*
X131993713Y-91414600D01*
X131882340Y-90854691D01*
X131565177Y-90380023D01*
X131212842Y-90144600D01*
X131565177Y-89909177D01*
X131882340Y-89434509D01*
X131993713Y-88874600D01*
X131882340Y-88314691D01*
X131565177Y-87840023D01*
X131212842Y-87604600D01*
X131565177Y-87369177D01*
X131882340Y-86894509D01*
X131993713Y-86334600D01*
X131882340Y-85774691D01*
X131565177Y-85300023D01*
X131212842Y-85064600D01*
X131565177Y-84829177D01*
X131882340Y-84354509D01*
X131993713Y-83794600D01*
X131882340Y-83234691D01*
X131565177Y-82760023D01*
X131212842Y-82524600D01*
X131565177Y-82289177D01*
X131882340Y-81814509D01*
X131993713Y-81254600D01*
X131882340Y-80694691D01*
X131565177Y-80220023D01*
X131212842Y-79984600D01*
X131565177Y-79749177D01*
X131882340Y-79274509D01*
X131993713Y-78714600D01*
X131882340Y-78154691D01*
X131565177Y-77680023D01*
X131212842Y-77444600D01*
X131565177Y-77209177D01*
X131882340Y-76734509D01*
X131993713Y-76174600D01*
X131882340Y-75614691D01*
X131565177Y-75140023D01*
X131090509Y-74822860D01*
X130671933Y-74739600D01*
X130389267Y-74739600D01*
X129970691Y-74822860D01*
X129496023Y-75140023D01*
X129178860Y-75614691D01*
X129067487Y-76174600D01*
X129178860Y-76734509D01*
X129496023Y-77209177D01*
X129848358Y-77444600D01*
X129496023Y-77680023D01*
X129178860Y-78154691D01*
X129067487Y-78714600D01*
X129178860Y-79274509D01*
X129496023Y-79749177D01*
X129848358Y-79984600D01*
X129496023Y-80220023D01*
X129178860Y-80694691D01*
X129067487Y-81254600D01*
X129178860Y-81814509D01*
X129496023Y-82289177D01*
X129848358Y-82524600D01*
X129496023Y-82760023D01*
X129178860Y-83234691D01*
X129085489Y-83704096D01*
X127783840Y-82402447D01*
X127783840Y-74961000D01*
X127734557Y-74713235D01*
X127594209Y-74503191D01*
X127384165Y-74362843D01*
X127136400Y-74313560D01*
X125136400Y-74313560D01*
X124888635Y-74362843D01*
X124678591Y-74503191D01*
X124538243Y-74713235D01*
X124488960Y-74961000D01*
X123900000Y-74961000D01*
X123900000Y-73704666D01*
X123962958Y-73206302D01*
X124131305Y-72781107D01*
X124400101Y-72411142D01*
X124752462Y-72119644D01*
X125166244Y-71924933D01*
X125648662Y-71832907D01*
X125741164Y-71830000D01*
X163785334Y-71830000D01*
X164283698Y-71892958D01*
X164283698Y-71892958D01*
G37*
X164283698Y-71892958D02*
X164708893Y-72061305D01*
X165078858Y-72330101D01*
X165370356Y-72682462D01*
X165565067Y-73096244D01*
X165657093Y-73578662D01*
X165660001Y-73671195D01*
X165660000Y-124415333D01*
X165597042Y-124913699D01*
X165428697Y-125338889D01*
X165159899Y-125708859D01*
X164807541Y-126000355D01*
X164393756Y-126195067D01*
X163911339Y-126287093D01*
X163818836Y-126290000D01*
X125774667Y-126290000D01*
X125276301Y-126227042D01*
X124851111Y-126058697D01*
X124481141Y-125789899D01*
X124189645Y-125437541D01*
X123994933Y-125023756D01*
X123902907Y-124541339D01*
X123900000Y-124448836D01*
X123900000Y-124164615D01*
X145835000Y-124164615D01*
X145835000Y-124755385D01*
X146061078Y-125301185D01*
X146478815Y-125718922D01*
X147024615Y-125945000D01*
X147615385Y-125945000D01*
X148161185Y-125718922D01*
X148578922Y-125301185D01*
X148805000Y-124755385D01*
X148805000Y-124164615D01*
X148578922Y-123618815D01*
X148161185Y-123201078D01*
X147709781Y-123014100D01*
X152092920Y-123014100D01*
X152092920Y-125514100D01*
X152142203Y-125761865D01*
X152282551Y-125971909D01*
X152492595Y-126112257D01*
X152740360Y-126161540D01*
X154740360Y-126161540D01*
X154988125Y-126112257D01*
X155198169Y-125971909D01*
X155338517Y-125761865D01*
X155387800Y-125514100D01*
X155387800Y-123014100D01*
X160992920Y-123014100D01*
X160992920Y-125514100D01*
X161042203Y-125761865D01*
X161182551Y-125971909D01*
X161392595Y-126112257D01*
X161640360Y-126161540D01*
X163640360Y-126161540D01*
X163888125Y-126112257D01*
X164098169Y-125971909D01*
X164238517Y-125761865D01*
X164287800Y-125514100D01*
X164287800Y-123014100D01*
X164238517Y-122766335D01*
X164098169Y-122556291D01*
X163888125Y-122415943D01*
X163640360Y-122366660D01*
X161640360Y-122366660D01*
X161392595Y-122415943D01*
X161182551Y-122556291D01*
X161042203Y-122766335D01*
X160992920Y-123014100D01*
X155387800Y-123014100D01*
X155338517Y-122766335D01*
X155198169Y-122556291D01*
X154988125Y-122415943D01*
X154740360Y-122366660D01*
X152740360Y-122366660D01*
X152492595Y-122415943D01*
X152282551Y-122556291D01*
X152142203Y-122766335D01*
X152092920Y-123014100D01*
X147709781Y-123014100D01*
X147615385Y-122975000D01*
X147024615Y-122975000D01*
X146478815Y-123201078D01*
X146061078Y-123618815D01*
X145835000Y-124164615D01*
X123900000Y-124164615D01*
X123900000Y-111543800D01*
X124758560Y-111543800D01*
X124758560Y-113093800D01*
X124807843Y-113341565D01*
X124948191Y-113551609D01*
X125040001Y-113612955D01*
X125040001Y-114068732D01*
X125020096Y-114168800D01*
X125020931Y-114173000D01*
X125020096Y-114177200D01*
X125040001Y-114277268D01*
X125040000Y-116384335D01*
X125040000Y-116384336D01*
X125040001Y-118974645D01*
X124948191Y-119035991D01*
X124807843Y-119246035D01*
X124758560Y-119493800D01*
X124758560Y-121043800D01*
X124807843Y-121291565D01*
X124948191Y-121501609D01*
X125158235Y-121641957D01*
X125406000Y-121691240D01*
X126706000Y-121691240D01*
X126953765Y-121641957D01*
X127163809Y-121501609D01*
X127304157Y-121291565D01*
X127353440Y-121043800D01*
X127353440Y-119493800D01*
X127304157Y-119246035D01*
X127163809Y-119035991D01*
X127072000Y-118974646D01*
X127072000Y-114294178D01*
X127096104Y-114173000D01*
X127072000Y-114051822D01*
X127072000Y-113612954D01*
X127163809Y-113551609D01*
X127304157Y-113341565D01*
X127353440Y-113093800D01*
X127353440Y-111543800D01*
X127304157Y-111296035D01*
X127163809Y-111085991D01*
X126953765Y-110945643D01*
X126706000Y-110896360D01*
X125406000Y-110896360D01*
X125158235Y-110945643D01*
X124948191Y-111085991D01*
X124807843Y-111296035D01*
X124758560Y-111543800D01*
X123900000Y-111543800D01*
X123900000Y-104114600D01*
X125003308Y-104114600D01*
X125118561Y-104694018D01*
X125446775Y-105185225D01*
X125745161Y-105384600D01*
X125446775Y-105583975D01*
X125118561Y-106075182D01*
X125003308Y-106654600D01*
X125118561Y-107234018D01*
X125446775Y-107725225D01*
X125465019Y-107737416D01*
X125419635Y-107746443D01*
X125209591Y-107886791D01*
X125069243Y-108096835D01*
X125019960Y-108344600D01*
X125019960Y-110044600D01*
X125069243Y-110292365D01*
X125209591Y-110502409D01*
X125419635Y-110642757D01*
X125667400Y-110692040D01*
X127367400Y-110692040D01*
X127615165Y-110642757D01*
X127825209Y-110502409D01*
X127965557Y-110292365D01*
X128014840Y-110044600D01*
X128014840Y-108882554D01*
X128134594Y-108762800D01*
X129083160Y-108762800D01*
X129083160Y-109994600D01*
X129132443Y-110242365D01*
X129272791Y-110452409D01*
X129482835Y-110592757D01*
X129717801Y-110639494D01*
X129717800Y-110933795D01*
X129658235Y-110945643D01*
X129448191Y-111085991D01*
X129307843Y-111296035D01*
X129258560Y-111543800D01*
X129258560Y-113093800D01*
X129307843Y-113341565D01*
X129448191Y-113551609D01*
X129540000Y-113612954D01*
X129540001Y-118974645D01*
X129448191Y-119035991D01*
X129307843Y-119246035D01*
X129258560Y-119493800D01*
X129258560Y-121043800D01*
X129307843Y-121291565D01*
X129448191Y-121501609D01*
X129658235Y-121641957D01*
X129906000Y-121691240D01*
X131206000Y-121691240D01*
X131453765Y-121641957D01*
X131663809Y-121501609D01*
X131804157Y-121291565D01*
X131853440Y-121043800D01*
X131853440Y-119493800D01*
X131804157Y-119246035D01*
X131663809Y-119035991D01*
X131572000Y-118974646D01*
X131572000Y-115983600D01*
X138790560Y-115983600D01*
X138790560Y-116883600D01*
X138839843Y-117131365D01*
X138980191Y-117341409D01*
X139190235Y-117481757D01*
X139438000Y-117531040D01*
X140638000Y-117531040D01*
X140885765Y-117481757D01*
X141095809Y-117341409D01*
X141142321Y-117271800D01*
X142397089Y-117271800D01*
X142410191Y-117291409D01*
X142620235Y-117431757D01*
X142868000Y-117481040D01*
X143468000Y-117481040D01*
X143715765Y-117431757D01*
X143925809Y-117291409D01*
X144018000Y-117153436D01*
X144110191Y-117291409D01*
X144320235Y-117431757D01*
X144568000Y-117481040D01*
X145168000Y-117481040D01*
X145213276Y-117472034D01*
X145003345Y-117681965D01*
X144906545Y-117915661D01*
X144896046Y-117926160D01*
X144568000Y-117926160D01*
X144320235Y-117975443D01*
X144110191Y-118115791D01*
X144018000Y-118253764D01*
X143925809Y-118115791D01*
X143715765Y-117975443D01*
X143468000Y-117926160D01*
X142868000Y-117926160D01*
X142620235Y-117975443D01*
X142410191Y-118115791D01*
X142397089Y-118135400D01*
X141142321Y-118135400D01*
X141095809Y-118065791D01*
X140885765Y-117925443D01*
X140638000Y-117876160D01*
X139438000Y-117876160D01*
X139190235Y-117925443D01*
X138980191Y-118065791D01*
X138839843Y-118275835D01*
X138790560Y-118523600D01*
X138790560Y-119423600D01*
X138839843Y-119671365D01*
X138980191Y-119881409D01*
X139190235Y-120021757D01*
X139438000Y-120071040D01*
X140638000Y-120071040D01*
X140885765Y-120021757D01*
X141095809Y-119881409D01*
X141142321Y-119811800D01*
X142397089Y-119811800D01*
X142410191Y-119831409D01*
X142620235Y-119971757D01*
X142868000Y-120021040D01*
X143468000Y-120021040D01*
X143715765Y-119971757D01*
X143925809Y-119831409D01*
X144018000Y-119693436D01*
X144110191Y-119831409D01*
X144320235Y-119971757D01*
X144568000Y-120021040D01*
X145168000Y-120021040D01*
X145415765Y-119971757D01*
X145625809Y-119831409D01*
X145766157Y-119621365D01*
X145814458Y-119378535D01*
X146091939Y-119101055D01*
X146325635Y-119004255D01*
X146588655Y-118741235D01*
X146731000Y-118397583D01*
X146731000Y-118025617D01*
X146588655Y-117681965D01*
X146420790Y-117514100D01*
X152092920Y-117514100D01*
X152092920Y-120014100D01*
X152142203Y-120261865D01*
X152282551Y-120471909D01*
X152492595Y-120612257D01*
X152740360Y-120661540D01*
X154740360Y-120661540D01*
X154988125Y-120612257D01*
X155198169Y-120471909D01*
X155338517Y-120261865D01*
X155387800Y-120014100D01*
X155387800Y-117514100D01*
X155338517Y-117266335D01*
X155198169Y-117056291D01*
X154988125Y-116915943D01*
X154740360Y-116866660D01*
X152740360Y-116866660D01*
X152492595Y-116915943D01*
X152282551Y-117056291D01*
X152142203Y-117266335D01*
X152092920Y-117514100D01*
X146420790Y-117514100D01*
X146325635Y-117418945D01*
X145981983Y-117276600D01*
X145803618Y-117276600D01*
X145827749Y-117271800D01*
X145827754Y-117271800D01*
X146072249Y-117223167D01*
X146349508Y-117037908D01*
X146396272Y-116967922D01*
X146803139Y-116561055D01*
X147036835Y-116464255D01*
X147299855Y-116201235D01*
X147442200Y-115857583D01*
X147442200Y-115485617D01*
X147299855Y-115141965D01*
X147036835Y-114878945D01*
X146693183Y-114736600D01*
X146321217Y-114736600D01*
X145977565Y-114878945D01*
X145714545Y-115141965D01*
X145617745Y-115375661D01*
X145501007Y-115492400D01*
X145415765Y-115435443D01*
X145168000Y-115386160D01*
X144568000Y-115386160D01*
X144320235Y-115435443D01*
X144110191Y-115575791D01*
X144018000Y-115713764D01*
X143925809Y-115575791D01*
X143715765Y-115435443D01*
X143468000Y-115386160D01*
X142868000Y-115386160D01*
X142620235Y-115435443D01*
X142410191Y-115575791D01*
X142397089Y-115595400D01*
X141142321Y-115595400D01*
X141095809Y-115525791D01*
X140885765Y-115385443D01*
X140638000Y-115336160D01*
X139438000Y-115336160D01*
X139190235Y-115385443D01*
X138980191Y-115525791D01*
X138839843Y-115735835D01*
X138790560Y-115983600D01*
X131572000Y-115983600D01*
X131572000Y-113612954D01*
X131663809Y-113551609D01*
X131735978Y-113443600D01*
X138790560Y-113443600D01*
X138790560Y-114343600D01*
X138839843Y-114591365D01*
X138980191Y-114801409D01*
X139190235Y-114941757D01*
X139438000Y-114991040D01*
X140638000Y-114991040D01*
X140885765Y-114941757D01*
X141095809Y-114801409D01*
X141142321Y-114731800D01*
X142397089Y-114731800D01*
X142410191Y-114751409D01*
X142620235Y-114891757D01*
X142868000Y-114941040D01*
X143468000Y-114941040D01*
X143715765Y-114891757D01*
X143925809Y-114751409D01*
X144018000Y-114613436D01*
X144110191Y-114751409D01*
X144320235Y-114891757D01*
X144568000Y-114941040D01*
X145168000Y-114941040D01*
X145415765Y-114891757D01*
X145625809Y-114751409D01*
X145766157Y-114541365D01*
X145815440Y-114293600D01*
X145815440Y-113493600D01*
X145766157Y-113245835D01*
X145706200Y-113156104D01*
X145706200Y-112946548D01*
X145722620Y-112863999D01*
X145706200Y-112781450D01*
X145706200Y-112781446D01*
X145657567Y-112536951D01*
X145472308Y-112259692D01*
X145402321Y-112212928D01*
X145263055Y-112073662D01*
X145166255Y-111839965D01*
X144903235Y-111576945D01*
X144559583Y-111434600D01*
X144187617Y-111434600D01*
X143843965Y-111576945D01*
X143580945Y-111839965D01*
X143438600Y-112183617D01*
X143438600Y-112555583D01*
X143567128Y-112865878D01*
X143468000Y-112846160D01*
X142868000Y-112846160D01*
X142620235Y-112895443D01*
X142410191Y-113035791D01*
X142397089Y-113055400D01*
X141142321Y-113055400D01*
X141095809Y-112985791D01*
X140885765Y-112845443D01*
X140638000Y-112796160D01*
X139438000Y-112796160D01*
X139190235Y-112845443D01*
X138980191Y-112985791D01*
X138839843Y-113195835D01*
X138790560Y-113443600D01*
X131735978Y-113443600D01*
X131804157Y-113341565D01*
X131853440Y-113093800D01*
X131853440Y-111543800D01*
X131804157Y-111296035D01*
X131663809Y-111085991D01*
X131453765Y-110945643D01*
X131394200Y-110933795D01*
X131394200Y-110629389D01*
X131578365Y-110592757D01*
X131788409Y-110452409D01*
X131928757Y-110242365D01*
X131978040Y-109994600D01*
X131978040Y-108762800D01*
X136773377Y-108762800D01*
X136687487Y-109194600D01*
X136798860Y-109754509D01*
X137116023Y-110229177D01*
X137590691Y-110546340D01*
X138009267Y-110629600D01*
X138291933Y-110629600D01*
X138710509Y-110546340D01*
X139185177Y-110229177D01*
X139502340Y-109754509D01*
X139613713Y-109194600D01*
X139527823Y-108762800D01*
X140367421Y-108762800D01*
X140335000Y-108841072D01*
X140335000Y-109598928D01*
X140625019Y-110299096D01*
X141160904Y-110834981D01*
X141861072Y-111125000D01*
X142618928Y-111125000D01*
X143319096Y-110834981D01*
X143748460Y-110405617D01*
X149839400Y-110405617D01*
X149839400Y-110777583D01*
X149981745Y-111121235D01*
X150244765Y-111384255D01*
X150478462Y-111481055D01*
X150885328Y-111887921D01*
X150932092Y-111957908D01*
X150957000Y-111974551D01*
X150957000Y-112301583D01*
X151099345Y-112645235D01*
X151362365Y-112908255D01*
X151678894Y-113039365D01*
X151579710Y-113538000D01*
X151694963Y-114117418D01*
X152023177Y-114608625D01*
X152076905Y-114644525D01*
X152057898Y-114740081D01*
X152136752Y-115136504D01*
X152250296Y-115306434D01*
X152361308Y-115472576D01*
X152446140Y-115529259D01*
X152931341Y-116014460D01*
X152988026Y-116099295D01*
X153324098Y-116323851D01*
X153620456Y-116382800D01*
X153620457Y-116382800D01*
X153720521Y-116402704D01*
X153820585Y-116382800D01*
X155382760Y-116382800D01*
X155543359Y-116543400D01*
X155543360Y-117344832D01*
X155543359Y-117344836D01*
X155543360Y-118764165D01*
X155602309Y-119060523D01*
X155692920Y-119196132D01*
X155692920Y-119814100D01*
X155742203Y-120061865D01*
X155882551Y-120271909D01*
X156092595Y-120412257D01*
X156177271Y-120429100D01*
X155774540Y-120429100D01*
X155375757Y-120594282D01*
X155070542Y-120899497D01*
X154905360Y-121298280D01*
X154905360Y-121729920D01*
X155070542Y-122128703D01*
X155375757Y-122433918D01*
X155774540Y-122599100D01*
X156206180Y-122599100D01*
X156604963Y-122433918D01*
X156910178Y-122128703D01*
X157075360Y-121729920D01*
X157075360Y-121298280D01*
X159305360Y-121298280D01*
X159305360Y-121729920D01*
X159470542Y-122128703D01*
X159775757Y-122433918D01*
X160174540Y-122599100D01*
X160606180Y-122599100D01*
X161004963Y-122433918D01*
X161310178Y-122128703D01*
X161475360Y-121729920D01*
X161475360Y-121298280D01*
X161310178Y-120899497D01*
X161004963Y-120594282D01*
X160606180Y-120429100D01*
X160174540Y-120429100D01*
X159775757Y-120594282D01*
X159470542Y-120899497D01*
X159305360Y-121298280D01*
X157075360Y-121298280D01*
X156910178Y-120899497D01*
X156604963Y-120594282D01*
X156232887Y-120440163D01*
X156340360Y-120461540D01*
X156840360Y-120461540D01*
X156990360Y-120431703D01*
X157140360Y-120461540D01*
X157640360Y-120461540D01*
X157790360Y-120431703D01*
X157940360Y-120461540D01*
X158440360Y-120461540D01*
X158590360Y-120431703D01*
X158740360Y-120461540D01*
X159240360Y-120461540D01*
X159488125Y-120412257D01*
X159698169Y-120271909D01*
X159838517Y-120061865D01*
X159887800Y-119814100D01*
X159887800Y-117514100D01*
X160992920Y-117514100D01*
X160992920Y-120014100D01*
X161042203Y-120261865D01*
X161182551Y-120471909D01*
X161392595Y-120612257D01*
X161640360Y-120661540D01*
X163640360Y-120661540D01*
X163888125Y-120612257D01*
X164098169Y-120471909D01*
X164238517Y-120261865D01*
X164287800Y-120014100D01*
X164287800Y-117514100D01*
X164238517Y-117266335D01*
X164098169Y-117056291D01*
X163888125Y-116915943D01*
X163640360Y-116866660D01*
X161640360Y-116866660D01*
X161392595Y-116915943D01*
X161182551Y-117056291D01*
X161042203Y-117266335D01*
X160992920Y-117514100D01*
X159887800Y-117514100D01*
X159838517Y-117266335D01*
X159820122Y-117238805D01*
X159820122Y-115980675D01*
X160777798Y-115023000D01*
X160860058Y-115023000D01*
X161293220Y-114936839D01*
X161784427Y-114608625D01*
X162112641Y-114117418D01*
X162227894Y-113538000D01*
X162112641Y-112958582D01*
X161784427Y-112467375D01*
X161565469Y-112321072D01*
X161552002Y-112253370D01*
X161552002Y-112253365D01*
X161503369Y-112008870D01*
X161318110Y-111731611D01*
X161248126Y-111684849D01*
X160382555Y-110819278D01*
X160335791Y-110749292D01*
X160058532Y-110564033D01*
X159814037Y-110515400D01*
X159814032Y-110515400D01*
X159731483Y-110498980D01*
X159648934Y-110515400D01*
X151883593Y-110515400D01*
X151663855Y-110295662D01*
X151567055Y-110061965D01*
X151304035Y-109798945D01*
X150960383Y-109656600D01*
X150588417Y-109656600D01*
X150244765Y-109798945D01*
X149981745Y-110061965D01*
X149839400Y-110405617D01*
X143748460Y-110405617D01*
X143854981Y-110299096D01*
X144145000Y-109598928D01*
X144145000Y-108841072D01*
X160655000Y-108841072D01*
X160655000Y-109598928D01*
X160945019Y-110299096D01*
X161480904Y-110834981D01*
X162181072Y-111125000D01*
X162938928Y-111125000D01*
X163639096Y-110834981D01*
X164174981Y-110299096D01*
X164465000Y-109598928D01*
X164465000Y-108841072D01*
X164174981Y-108140904D01*
X163639096Y-107605019D01*
X162938928Y-107315000D01*
X162181072Y-107315000D01*
X161480904Y-107605019D01*
X160945019Y-108140904D01*
X160655000Y-108841072D01*
X144145000Y-108841072D01*
X143854981Y-108140904D01*
X143791077Y-108077000D01*
X153089921Y-108077000D01*
X153323617Y-108173800D01*
X153695583Y-108173800D01*
X154039235Y-108031455D01*
X154302255Y-107768435D01*
X154444600Y-107424783D01*
X154444600Y-107052817D01*
X154342779Y-106807000D01*
X159835851Y-106807000D01*
X159918400Y-106823420D01*
X160000949Y-106807000D01*
X160000954Y-106807000D01*
X160245449Y-106758367D01*
X160522708Y-106573108D01*
X160569471Y-106503122D01*
X160874739Y-106197855D01*
X161108435Y-106101055D01*
X161371455Y-105838035D01*
X161513800Y-105494383D01*
X161513800Y-105122417D01*
X161371455Y-104778765D01*
X161108435Y-104515745D01*
X160764783Y-104373400D01*
X160392817Y-104373400D01*
X160049165Y-104515745D01*
X159786145Y-104778765D01*
X159689345Y-105012461D01*
X159571207Y-105130600D01*
X156586200Y-105130600D01*
X156586200Y-104868417D01*
X156443855Y-104524765D01*
X156180835Y-104261745D01*
X155837183Y-104119400D01*
X155465217Y-104119400D01*
X155121565Y-104261745D01*
X154859120Y-104524190D01*
X150714957Y-104524190D01*
X150698920Y-104521000D01*
X150698915Y-104521000D01*
X150616366Y-104504580D01*
X150533817Y-104521000D01*
X140823343Y-104521000D01*
X140589647Y-104424200D01*
X140217681Y-104424200D01*
X139874029Y-104566545D01*
X139611009Y-104829565D01*
X139468664Y-105173217D01*
X139468664Y-105545183D01*
X139611009Y-105888835D01*
X139874029Y-106151855D01*
X140111200Y-106250094D01*
X140111200Y-106256383D01*
X140253545Y-106600035D01*
X140427358Y-106773848D01*
X140114807Y-107086400D01*
X139527823Y-107086400D01*
X139613713Y-106654600D01*
X139502340Y-106094691D01*
X139185177Y-105620023D01*
X138832842Y-105384600D01*
X139185177Y-105149177D01*
X139502340Y-104674509D01*
X139613713Y-104114600D01*
X139502340Y-103554691D01*
X139185177Y-103080023D01*
X138832842Y-102844600D01*
X139111184Y-102658617D01*
X139806400Y-102658617D01*
X139806400Y-103030583D01*
X139948745Y-103374235D01*
X140211765Y-103637255D01*
X140555417Y-103779600D01*
X140927383Y-103779600D01*
X141161079Y-103682800D01*
X150412451Y-103682800D01*
X150495000Y-103699220D01*
X150577549Y-103682800D01*
X150577554Y-103682800D01*
X150822049Y-103634167D01*
X151099308Y-103448908D01*
X151146072Y-103378921D01*
X151171471Y-103353522D01*
X153203939Y-101321055D01*
X153437635Y-101224255D01*
X153700655Y-100961235D01*
X153843000Y-100617583D01*
X153843000Y-100245617D01*
X153700655Y-99901965D01*
X153437635Y-99638945D01*
X153093983Y-99496600D01*
X152722017Y-99496600D01*
X152378365Y-99638945D01*
X152115345Y-99901965D01*
X152018545Y-100135661D01*
X150147807Y-102006400D01*
X141161079Y-102006400D01*
X140927383Y-101909600D01*
X140555417Y-101909600D01*
X140211765Y-102051945D01*
X139948745Y-102314965D01*
X139806400Y-102658617D01*
X139111184Y-102658617D01*
X139185177Y-102609177D01*
X139502340Y-102134509D01*
X139613713Y-101574600D01*
X139522770Y-101117400D01*
X150234651Y-101117400D01*
X150317200Y-101133820D01*
X150399749Y-101117400D01*
X150399754Y-101117400D01*
X150644249Y-101068767D01*
X150921508Y-100883508D01*
X150968272Y-100813521D01*
X155474325Y-96307469D01*
X155544308Y-96260708D01*
X155729567Y-95983449D01*
X155778200Y-95738954D01*
X155778200Y-95738950D01*
X155794620Y-95656401D01*
X155778200Y-95573852D01*
X155778200Y-79877457D01*
X156124320Y-79531337D01*
X156210000Y-79324487D01*
X156295680Y-79531337D01*
X156688663Y-79924320D01*
X157202119Y-80137000D01*
X157757881Y-80137000D01*
X158271337Y-79924320D01*
X158664320Y-79531337D01*
X158877000Y-79017881D01*
X158877000Y-78462119D01*
X161163000Y-78462119D01*
X161163000Y-79017881D01*
X161375680Y-79531337D01*
X161768663Y-79924320D01*
X162282119Y-80137000D01*
X162837881Y-80137000D01*
X163351337Y-79924320D01*
X163744320Y-79531337D01*
X163957000Y-79017881D01*
X163957000Y-78462119D01*
X163744320Y-77948663D01*
X163351337Y-77555680D01*
X162837881Y-77343000D01*
X162282119Y-77343000D01*
X161768663Y-77555680D01*
X161375680Y-77948663D01*
X161163000Y-78462119D01*
X158877000Y-78462119D01*
X158664320Y-77948663D01*
X158271337Y-77555680D01*
X157757881Y-77343000D01*
X157202119Y-77343000D01*
X156688663Y-77555680D01*
X156295680Y-77948663D01*
X156210000Y-78155513D01*
X156124320Y-77948663D01*
X155731337Y-77555680D01*
X155217881Y-77343000D01*
X154662119Y-77343000D01*
X154148663Y-77555680D01*
X153755680Y-77948663D01*
X153670000Y-78155513D01*
X153584320Y-77948663D01*
X153191337Y-77555680D01*
X152677881Y-77343000D01*
X152122119Y-77343000D01*
X151608663Y-77555680D01*
X151215680Y-77948663D01*
X151130000Y-78155513D01*
X151044320Y-77948663D01*
X150651337Y-77555680D01*
X150330576Y-77422817D01*
X150394321Y-77359072D01*
X150464308Y-77312308D01*
X150649567Y-77035049D01*
X150698200Y-76790554D01*
X150698200Y-76790550D01*
X150714620Y-76708001D01*
X150698200Y-76625452D01*
X150698200Y-74920158D01*
X150701185Y-74918922D01*
X151118922Y-74501185D01*
X151345000Y-73955385D01*
X151345000Y-73364615D01*
X151118922Y-72818815D01*
X150701185Y-72401078D01*
X150155385Y-72175000D01*
X149564615Y-72175000D01*
X149018815Y-72401078D01*
X148601078Y-72818815D01*
X148590000Y-72845560D01*
X148578922Y-72818815D01*
X148161185Y-72401078D01*
X147615385Y-72175000D01*
X147024615Y-72175000D01*
X146478815Y-72401078D01*
X146061078Y-72818815D01*
X146050000Y-72845560D01*
X146038922Y-72818815D01*
X145621185Y-72401078D01*
X145075385Y-72175000D01*
X144484615Y-72175000D01*
X143938815Y-72401078D01*
X143521078Y-72818815D01*
X143295000Y-73364615D01*
X143295000Y-73955385D01*
X143521078Y-74501185D01*
X143938815Y-74918922D01*
X144484615Y-75145000D01*
X145075385Y-75145000D01*
X145621185Y-74918922D01*
X146038922Y-74501185D01*
X146050000Y-74474440D01*
X146061078Y-74501185D01*
X146478815Y-74918922D01*
X146481800Y-74920159D01*
X146481801Y-75771390D01*
X140896958Y-75771390D01*
X140814409Y-75754970D01*
X140731860Y-75771390D01*
X140731856Y-75771390D01*
X140487361Y-75820023D01*
X140487359Y-75820024D01*
X140487360Y-75820024D01*
X140280087Y-75958519D01*
X140280086Y-75958520D01*
X140210102Y-76005282D01*
X140163340Y-76075266D01*
X139575268Y-76663338D01*
X139507488Y-76708628D01*
X139613713Y-76174600D01*
X139502340Y-75614691D01*
X139185177Y-75140023D01*
X138710509Y-74822860D01*
X138291933Y-74739600D01*
X138009267Y-74739600D01*
X137590691Y-74822860D01*
X137116023Y-75140023D01*
X136798860Y-75614691D01*
X136687487Y-76174600D01*
X136798860Y-76734509D01*
X137116023Y-77209177D01*
X137468358Y-77444600D01*
X137116023Y-77680023D01*
X136798860Y-78154691D01*
X136687487Y-78714600D01*
X136798860Y-79274509D01*
X137116023Y-79749177D01*
X137468358Y-79984600D01*
X137116023Y-80220023D01*
X136798860Y-80694691D01*
X136687487Y-81254600D01*
X136798860Y-81814509D01*
X137116023Y-82289177D01*
X137468358Y-82524600D01*
X137116023Y-82760023D01*
X136798860Y-83234691D01*
X136687487Y-83794600D01*
X136798860Y-84354509D01*
X137116023Y-84829177D01*
X137468358Y-85064600D01*
X137116023Y-85300023D01*
X136798860Y-85774691D01*
X136687487Y-86334600D01*
X136798860Y-86894509D01*
X137116023Y-87369177D01*
X137590691Y-87686340D01*
X138009267Y-87769600D01*
X138291933Y-87769600D01*
X138710509Y-87686340D01*
X139185177Y-87369177D01*
X139502340Y-86894509D01*
X139613713Y-86334600D01*
X139502340Y-85774691D01*
X139185177Y-85300023D01*
X138832842Y-85064600D01*
X139185177Y-84829177D01*
X139502340Y-84354509D01*
X139613713Y-83794600D01*
X139502340Y-83234691D01*
X139185177Y-82760023D01*
X138832842Y-82524600D01*
X139185177Y-82289177D01*
X139316392Y-82092800D01*
X140150851Y-82092800D01*
X140233400Y-82109220D01*
X140315949Y-82092800D01*
X140315954Y-82092800D01*
X140560449Y-82044167D01*
X140837708Y-81858908D01*
X140884472Y-81788921D01*
X141250321Y-81423072D01*
X141320308Y-81376308D01*
X141505567Y-81099049D01*
X141554200Y-80854554D01*
X141554200Y-80854550D01*
X141570620Y-80772001D01*
X141554200Y-80689452D01*
X141554200Y-79968035D01*
X141962119Y-80137000D01*
X142517881Y-80137000D01*
X143031337Y-79924320D01*
X143424320Y-79531337D01*
X143510000Y-79324487D01*
X143595680Y-79531337D01*
X143988663Y-79924320D01*
X144502119Y-80137000D01*
X145057881Y-80137000D01*
X145571337Y-79924320D01*
X145964320Y-79531337D01*
X146050000Y-79324487D01*
X146135680Y-79531337D01*
X146528663Y-79924320D01*
X147042119Y-80137000D01*
X147597881Y-80137000D01*
X148111337Y-79924320D01*
X148504320Y-79531337D01*
X148590000Y-79324487D01*
X148675680Y-79531337D01*
X149068663Y-79924320D01*
X149582119Y-80137000D01*
X150137881Y-80137000D01*
X150651337Y-79924320D01*
X151044320Y-79531337D01*
X151130000Y-79324487D01*
X151215680Y-79531337D01*
X151561801Y-79877458D01*
X151561800Y-95614006D01*
X150274807Y-96901000D01*
X139532875Y-96901000D01*
X139613713Y-96494600D01*
X139502340Y-95934691D01*
X139185177Y-95460023D01*
X138832842Y-95224600D01*
X139185177Y-94989177D01*
X139502340Y-94514509D01*
X139613713Y-93954600D01*
X139502340Y-93394691D01*
X139185177Y-92920023D01*
X138832842Y-92684600D01*
X139185177Y-92449177D01*
X139502340Y-91974509D01*
X139613713Y-91414600D01*
X139502340Y-90854691D01*
X139185177Y-90380023D01*
X138710509Y-90062860D01*
X138291933Y-89979600D01*
X138009267Y-89979600D01*
X137590691Y-90062860D01*
X137116023Y-90380023D01*
X136798860Y-90854691D01*
X136687487Y-91414600D01*
X136798860Y-91974509D01*
X137116023Y-92449177D01*
X137468358Y-92684600D01*
X137116023Y-92920023D01*
X136798860Y-93394691D01*
X136687487Y-93954600D01*
X136798860Y-94514509D01*
X137116023Y-94989177D01*
X137468358Y-95224600D01*
X137116023Y-95460023D01*
X136798860Y-95934691D01*
X136687487Y-96494600D01*
X136768325Y-96901000D01*
X131912875Y-96901000D01*
X131993713Y-96494600D01*
X131882340Y-95934691D01*
X131565177Y-95460023D01*
X131090509Y-95142860D01*
X130671933Y-95059600D01*
X130389267Y-95059600D01*
X129970691Y-95142860D01*
X129496023Y-95460023D01*
X129178860Y-95934691D01*
X129067487Y-96494600D01*
X129178860Y-97054509D01*
X129496023Y-97529177D01*
X129848358Y-97764600D01*
X129496023Y-98000023D01*
X129178860Y-98474691D01*
X129067487Y-99034600D01*
X129178860Y-99594509D01*
X129496023Y-100069177D01*
X129848358Y-100304600D01*
X129496023Y-100540023D01*
X129178860Y-101014691D01*
X129067487Y-101574600D01*
X129178860Y-102134509D01*
X129496023Y-102609177D01*
X129848358Y-102844600D01*
X129496023Y-103080023D01*
X129178860Y-103554691D01*
X129067487Y-104114600D01*
X129178860Y-104674509D01*
X129496023Y-105149177D01*
X129848358Y-105384600D01*
X129496023Y-105620023D01*
X129178860Y-106094691D01*
X129067487Y-106654600D01*
X129153377Y-107086400D01*
X127945602Y-107086400D01*
X128031492Y-106654600D01*
X127916239Y-106075182D01*
X127588025Y-105583975D01*
X127289639Y-105384600D01*
X127588025Y-105185225D01*
X127916239Y-104694018D01*
X128031492Y-104114600D01*
X127916239Y-103535182D01*
X127588025Y-103043975D01*
X127096818Y-102715761D01*
X126663656Y-102629600D01*
X126371144Y-102629600D01*
X125937982Y-102715761D01*
X125446775Y-103043975D01*
X125118561Y-103535182D01*
X125003308Y-104114600D01*
X123900000Y-104114600D01*
X123900000Y-100412200D01*
X124462160Y-100412200D01*
X124462160Y-101162200D01*
X124511443Y-101409965D01*
X124651791Y-101620009D01*
X124861835Y-101760357D01*
X125109600Y-101809640D01*
X126309600Y-101809640D01*
X126557365Y-101760357D01*
X126767409Y-101620009D01*
X126907757Y-101409965D01*
X126957040Y-101162200D01*
X126957040Y-100412200D01*
X126907757Y-100164435D01*
X126767409Y-99954391D01*
X126557365Y-99814043D01*
X126547800Y-99812140D01*
X126547800Y-99782929D01*
X126665000Y-99499983D01*
X126665000Y-99128017D01*
X126522655Y-98784365D01*
X126259635Y-98521345D01*
X125915983Y-98379000D01*
X125544017Y-98379000D01*
X125200365Y-98521345D01*
X124937345Y-98784365D01*
X124795000Y-99128017D01*
X124795000Y-99499983D01*
X124871401Y-99684431D01*
X124871401Y-99812140D01*
X124861835Y-99814043D01*
X124651791Y-99954391D01*
X124511443Y-100164435D01*
X124462160Y-100412200D01*
X123900000Y-100412200D01*
X123900000Y-74961000D01*
X124488960Y-74961000D01*
X124488960Y-82836000D01*
X124538243Y-83083765D01*
X124678591Y-83293809D01*
X124888635Y-83434157D01*
X125136400Y-83483440D01*
X126494047Y-83483440D01*
X129113564Y-86102958D01*
X129067487Y-86334600D01*
X129178860Y-86894509D01*
X129496023Y-87369177D01*
X129848358Y-87604600D01*
X129496023Y-87840023D01*
X129178860Y-88314691D01*
X129067487Y-88874600D01*
X129113564Y-89106243D01*
X128284507Y-89935300D01*
X127783840Y-89935300D01*
X127783840Y-86836000D01*
X127734557Y-86588235D01*
X127594209Y-86378191D01*
X127384165Y-86237843D01*
X127136400Y-86188560D01*
X125136400Y-86188560D01*
X124888635Y-86237843D01*
X124678591Y-86378191D01*
X124538243Y-86588235D01*
X124488960Y-86836000D01*
X124488960Y-94711000D01*
X124538243Y-94958765D01*
X124678591Y-95168809D01*
X124888635Y-95309157D01*
X125136400Y-95358440D01*
X127136400Y-95358440D01*
X127384165Y-95309157D01*
X127594209Y-95168809D01*
X127734557Y-94958765D01*
X127783840Y-94711000D01*
X127783840Y-91611700D01*
X128549151Y-91611700D01*
X128631700Y-91628120D01*
X128714249Y-91611700D01*
X128714254Y-91611700D01*
X128958749Y-91563067D01*
X129080798Y-91481517D01*
X129178860Y-91974509D01*
X129496023Y-92449177D01*
X129970691Y-92766340D01*
X130389267Y-92849600D01*
X130671933Y-92849600D01*
X131090509Y-92766340D01*
X131565177Y-92449177D01*
X131882340Y-91974509D01*
X131993713Y-91414600D01*
X131882340Y-90854691D01*
X131565177Y-90380023D01*
X131212842Y-90144600D01*
X131565177Y-89909177D01*
X131882340Y-89434509D01*
X131993713Y-88874600D01*
X131882340Y-88314691D01*
X131565177Y-87840023D01*
X131212842Y-87604600D01*
X131565177Y-87369177D01*
X131882340Y-86894509D01*
X131993713Y-86334600D01*
X131882340Y-85774691D01*
X131565177Y-85300023D01*
X131212842Y-85064600D01*
X131565177Y-84829177D01*
X131882340Y-84354509D01*
X131993713Y-83794600D01*
X131882340Y-83234691D01*
X131565177Y-82760023D01*
X131212842Y-82524600D01*
X131565177Y-82289177D01*
X131882340Y-81814509D01*
X131993713Y-81254600D01*
X131882340Y-80694691D01*
X131565177Y-80220023D01*
X131212842Y-79984600D01*
X131565177Y-79749177D01*
X131882340Y-79274509D01*
X131993713Y-78714600D01*
X131882340Y-78154691D01*
X131565177Y-77680023D01*
X131212842Y-77444600D01*
X131565177Y-77209177D01*
X131882340Y-76734509D01*
X131993713Y-76174600D01*
X131882340Y-75614691D01*
X131565177Y-75140023D01*
X131090509Y-74822860D01*
X130671933Y-74739600D01*
X130389267Y-74739600D01*
X129970691Y-74822860D01*
X129496023Y-75140023D01*
X129178860Y-75614691D01*
X129067487Y-76174600D01*
X129178860Y-76734509D01*
X129496023Y-77209177D01*
X129848358Y-77444600D01*
X129496023Y-77680023D01*
X129178860Y-78154691D01*
X129067487Y-78714600D01*
X129178860Y-79274509D01*
X129496023Y-79749177D01*
X129848358Y-79984600D01*
X129496023Y-80220023D01*
X129178860Y-80694691D01*
X129067487Y-81254600D01*
X129178860Y-81814509D01*
X129496023Y-82289177D01*
X129848358Y-82524600D01*
X129496023Y-82760023D01*
X129178860Y-83234691D01*
X129085489Y-83704096D01*
X127783840Y-82402447D01*
X127783840Y-74961000D01*
X127734557Y-74713235D01*
X127594209Y-74503191D01*
X127384165Y-74362843D01*
X127136400Y-74313560D01*
X125136400Y-74313560D01*
X124888635Y-74362843D01*
X124678591Y-74503191D01*
X124538243Y-74713235D01*
X124488960Y-74961000D01*
X123900000Y-74961000D01*
X123900000Y-73704666D01*
X123962958Y-73206302D01*
X124131305Y-72781107D01*
X124400101Y-72411142D01*
X124752462Y-72119644D01*
X125166244Y-71924933D01*
X125648662Y-71832907D01*
X125741164Y-71830000D01*
X163785334Y-71830000D01*
X164283698Y-71892958D01*
G04 #@! TD*
M02*
