G04 #@! TF.GenerationSoftware,KiCad,Pcbnew,(5.0.2)-1*
G04 #@! TF.CreationDate,2020-05-31T20:08:57-05:00*
G04 #@! TF.ProjectId,ClockBoard,436c6f63-6b42-46f6-9172-642e6b696361,rev?*
G04 #@! TF.SameCoordinates,Original*
G04 #@! TF.FileFunction,Legend,Top*
G04 #@! TF.FilePolarity,Positive*
%FSLAX46Y46*%
G04 Gerber Fmt 4.6, Leading zero omitted, Abs format (unit mm)*
G04 Created by KiCad (PCBNEW (5.0.2)-1) date 5/31/2020 8:08:57 PM*
%MOMM*%
%LPD*%
G01*
G04 APERTURE LIST*
%ADD10C,0.250000*%
%ADD11C,0.300000*%
%ADD12C,0.120000*%
%ADD13C,0.150000*%
%ADD14C,0.010000*%
G04 APERTURE END LIST*
D10*
X150360000Y-120812404D02*
X150407619Y-120717166D01*
X150407619Y-120574309D01*
X150360000Y-120431452D01*
X150264761Y-120336214D01*
X150169523Y-120288595D01*
X149979047Y-120240976D01*
X149836190Y-120240976D01*
X149645714Y-120288595D01*
X149550476Y-120336214D01*
X149455238Y-120431452D01*
X149407619Y-120574309D01*
X149407619Y-120669547D01*
X149455238Y-120812404D01*
X149502857Y-120860023D01*
X149836190Y-120860023D01*
X149836190Y-120669547D01*
X149407619Y-121288595D02*
X150407619Y-121288595D01*
X149407619Y-121860023D01*
X150407619Y-121860023D01*
X149407619Y-122336214D02*
X150407619Y-122336214D01*
X150407619Y-122574309D01*
X150360000Y-122717166D01*
X150264761Y-122812404D01*
X150169523Y-122860023D01*
X149979047Y-122907642D01*
X149836190Y-122907642D01*
X149645714Y-122860023D01*
X149550476Y-122812404D01*
X149455238Y-122717166D01*
X149407619Y-122574309D01*
X149407619Y-122336214D01*
X147248571Y-120288595D02*
X147248571Y-121050500D01*
X146867619Y-120669547D02*
X147629523Y-120669547D01*
X147867619Y-122002880D02*
X147867619Y-121526690D01*
X147391428Y-121479071D01*
X147439047Y-121526690D01*
X147486666Y-121621928D01*
X147486666Y-121860023D01*
X147439047Y-121955261D01*
X147391428Y-122002880D01*
X147296190Y-122050500D01*
X147058095Y-122050500D01*
X146962857Y-122002880D01*
X146915238Y-121955261D01*
X146867619Y-121860023D01*
X146867619Y-121621928D01*
X146915238Y-121526690D01*
X146962857Y-121479071D01*
X147867619Y-122336214D02*
X146867619Y-122669547D01*
X147867619Y-123002880D01*
X149502857Y-75902023D02*
X149455238Y-75854404D01*
X149407619Y-75711547D01*
X149407619Y-75616309D01*
X149455238Y-75473452D01*
X149550476Y-75378214D01*
X149645714Y-75330595D01*
X149836190Y-75282976D01*
X149979047Y-75282976D01*
X150169523Y-75330595D01*
X150264761Y-75378214D01*
X150360000Y-75473452D01*
X150407619Y-75616309D01*
X150407619Y-75711547D01*
X150360000Y-75854404D01*
X150312380Y-75902023D01*
X149407619Y-76473452D02*
X149455238Y-76378214D01*
X149550476Y-76330595D01*
X150407619Y-76330595D01*
X149407619Y-76854404D02*
X150407619Y-76854404D01*
X149788571Y-76949642D02*
X149407619Y-77235357D01*
X150074285Y-77235357D02*
X149693333Y-76854404D01*
X146962857Y-75902023D02*
X146915238Y-75854404D01*
X146867619Y-75711547D01*
X146867619Y-75616309D01*
X146915238Y-75473452D01*
X147010476Y-75378214D01*
X147105714Y-75330595D01*
X147296190Y-75282976D01*
X147439047Y-75282976D01*
X147629523Y-75330595D01*
X147724761Y-75378214D01*
X147820000Y-75473452D01*
X147867619Y-75616309D01*
X147867619Y-75711547D01*
X147820000Y-75854404D01*
X147772380Y-75902023D01*
X146915238Y-76282976D02*
X146867619Y-76378214D01*
X146867619Y-76568690D01*
X146915238Y-76663928D01*
X147010476Y-76711547D01*
X147058095Y-76711547D01*
X147153333Y-76663928D01*
X147200952Y-76568690D01*
X147200952Y-76425833D01*
X147248571Y-76330595D01*
X147343809Y-76282976D01*
X147391428Y-76282976D01*
X147486666Y-76330595D01*
X147534285Y-76425833D01*
X147534285Y-76568690D01*
X147486666Y-76663928D01*
X144327619Y-75330595D02*
X145327619Y-75330595D01*
X145327619Y-75568690D01*
X145280000Y-75711547D01*
X145184761Y-75806785D01*
X145089523Y-75854404D01*
X144899047Y-75902023D01*
X144756190Y-75902023D01*
X144565714Y-75854404D01*
X144470476Y-75806785D01*
X144375238Y-75711547D01*
X144327619Y-75568690D01*
X144327619Y-75330595D01*
X145327619Y-76521071D02*
X145327619Y-76711547D01*
X145280000Y-76806785D01*
X145184761Y-76902023D01*
X144994285Y-76949642D01*
X144660952Y-76949642D01*
X144470476Y-76902023D01*
X144375238Y-76806785D01*
X144327619Y-76711547D01*
X144327619Y-76521071D01*
X144375238Y-76425833D01*
X144470476Y-76330595D01*
X144660952Y-76282976D01*
X144994285Y-76282976D01*
X145184761Y-76330595D01*
X145280000Y-76425833D01*
X145327619Y-76521071D01*
D11*
X142506285Y-82445714D02*
X142434857Y-82517142D01*
X142220571Y-82588571D01*
X142077714Y-82588571D01*
X141863428Y-82517142D01*
X141720571Y-82374285D01*
X141649142Y-82231428D01*
X141577714Y-81945714D01*
X141577714Y-81731428D01*
X141649142Y-81445714D01*
X141720571Y-81302857D01*
X141863428Y-81160000D01*
X142077714Y-81088571D01*
X142220571Y-81088571D01*
X142434857Y-81160000D01*
X142506285Y-81231428D01*
X143363428Y-82588571D02*
X143220571Y-82517142D01*
X143149142Y-82374285D01*
X143149142Y-81088571D01*
X144149142Y-82588571D02*
X144006285Y-82517142D01*
X143934857Y-82445714D01*
X143863428Y-82302857D01*
X143863428Y-81874285D01*
X143934857Y-81731428D01*
X144006285Y-81660000D01*
X144149142Y-81588571D01*
X144363428Y-81588571D01*
X144506285Y-81660000D01*
X144577714Y-81731428D01*
X144649142Y-81874285D01*
X144649142Y-82302857D01*
X144577714Y-82445714D01*
X144506285Y-82517142D01*
X144363428Y-82588571D01*
X144149142Y-82588571D01*
X145934857Y-82517142D02*
X145792000Y-82588571D01*
X145506285Y-82588571D01*
X145363428Y-82517142D01*
X145292000Y-82445714D01*
X145220571Y-82302857D01*
X145220571Y-81874285D01*
X145292000Y-81731428D01*
X145363428Y-81660000D01*
X145506285Y-81588571D01*
X145792000Y-81588571D01*
X145934857Y-81660000D01*
X146577714Y-82588571D02*
X146577714Y-81088571D01*
X146720571Y-82017142D02*
X147149142Y-82588571D01*
X147149142Y-81588571D02*
X146577714Y-82160000D01*
X149434857Y-81802857D02*
X149649142Y-81874285D01*
X149720571Y-81945714D01*
X149792000Y-82088571D01*
X149792000Y-82302857D01*
X149720571Y-82445714D01*
X149649142Y-82517142D01*
X149506285Y-82588571D01*
X148934857Y-82588571D01*
X148934857Y-81088571D01*
X149434857Y-81088571D01*
X149577714Y-81160000D01*
X149649142Y-81231428D01*
X149720571Y-81374285D01*
X149720571Y-81517142D01*
X149649142Y-81660000D01*
X149577714Y-81731428D01*
X149434857Y-81802857D01*
X148934857Y-81802857D01*
X150649142Y-82588571D02*
X150506285Y-82517142D01*
X150434857Y-82445714D01*
X150363428Y-82302857D01*
X150363428Y-81874285D01*
X150434857Y-81731428D01*
X150506285Y-81660000D01*
X150649142Y-81588571D01*
X150863428Y-81588571D01*
X151006285Y-81660000D01*
X151077714Y-81731428D01*
X151149142Y-81874285D01*
X151149142Y-82302857D01*
X151077714Y-82445714D01*
X151006285Y-82517142D01*
X150863428Y-82588571D01*
X150649142Y-82588571D01*
X152434857Y-82588571D02*
X152434857Y-81802857D01*
X152363428Y-81660000D01*
X152220571Y-81588571D01*
X151934857Y-81588571D01*
X151792000Y-81660000D01*
X152434857Y-82517142D02*
X152292000Y-82588571D01*
X151934857Y-82588571D01*
X151792000Y-82517142D01*
X151720571Y-82374285D01*
X151720571Y-82231428D01*
X151792000Y-82088571D01*
X151934857Y-82017142D01*
X152292000Y-82017142D01*
X152434857Y-81945714D01*
X153149142Y-82588571D02*
X153149142Y-81588571D01*
X153149142Y-81874285D02*
X153220571Y-81731428D01*
X153292000Y-81660000D01*
X153434857Y-81588571D01*
X153577714Y-81588571D01*
X154720571Y-82588571D02*
X154720571Y-81088571D01*
X154720571Y-82517142D02*
X154577714Y-82588571D01*
X154292000Y-82588571D01*
X154149142Y-82517142D01*
X154077714Y-82445714D01*
X154006285Y-82302857D01*
X154006285Y-81874285D01*
X154077714Y-81731428D01*
X154149142Y-81660000D01*
X154292000Y-81588571D01*
X154577714Y-81588571D01*
X154720571Y-81660000D01*
X155506285Y-82517142D02*
X155506285Y-82588571D01*
X155434857Y-82731428D01*
X155363428Y-82802857D01*
X158149142Y-82588571D02*
X157649142Y-81874285D01*
X157292000Y-82588571D02*
X157292000Y-81088571D01*
X157863428Y-81088571D01*
X158006285Y-81160000D01*
X158077714Y-81231428D01*
X158149142Y-81374285D01*
X158149142Y-81588571D01*
X158077714Y-81731428D01*
X158006285Y-81802857D01*
X157863428Y-81874285D01*
X157292000Y-81874285D01*
X159363428Y-82517142D02*
X159220571Y-82588571D01*
X158934857Y-82588571D01*
X158792000Y-82517142D01*
X158720571Y-82374285D01*
X158720571Y-81802857D01*
X158792000Y-81660000D01*
X158934857Y-81588571D01*
X159220571Y-81588571D01*
X159363428Y-81660000D01*
X159434857Y-81802857D01*
X159434857Y-81945714D01*
X158720571Y-82088571D01*
X159934857Y-81588571D02*
X160292000Y-82588571D01*
X160649142Y-81588571D01*
X162292000Y-81231428D02*
X162363428Y-81160000D01*
X162506285Y-81088571D01*
X162863428Y-81088571D01*
X163006285Y-81160000D01*
X163077714Y-81231428D01*
X163149142Y-81374285D01*
X163149142Y-81517142D01*
X163077714Y-81731428D01*
X162220571Y-82588571D01*
X163149142Y-82588571D01*
X141577714Y-84710000D02*
X142292000Y-84710000D01*
X141434857Y-85138571D02*
X141934857Y-83638571D01*
X142434857Y-85138571D01*
X142934857Y-84138571D02*
X142934857Y-85138571D01*
X142934857Y-84281428D02*
X143006285Y-84210000D01*
X143149142Y-84138571D01*
X143363428Y-84138571D01*
X143506285Y-84210000D01*
X143577714Y-84352857D01*
X143577714Y-85138571D01*
X144934857Y-85138571D02*
X144934857Y-83638571D01*
X144934857Y-85067142D02*
X144792000Y-85138571D01*
X144506285Y-85138571D01*
X144363428Y-85067142D01*
X144292000Y-84995714D01*
X144220571Y-84852857D01*
X144220571Y-84424285D01*
X144292000Y-84281428D01*
X144363428Y-84210000D01*
X144506285Y-84138571D01*
X144792000Y-84138571D01*
X144934857Y-84210000D01*
X145649142Y-85138571D02*
X145649142Y-84138571D01*
X145649142Y-84424285D02*
X145720571Y-84281428D01*
X145792000Y-84210000D01*
X145934857Y-84138571D01*
X146077714Y-84138571D01*
X147149142Y-85067142D02*
X147006285Y-85138571D01*
X146720571Y-85138571D01*
X146577714Y-85067142D01*
X146506285Y-84924285D01*
X146506285Y-84352857D01*
X146577714Y-84210000D01*
X146720571Y-84138571D01*
X147006285Y-84138571D01*
X147149142Y-84210000D01*
X147220571Y-84352857D01*
X147220571Y-84495714D01*
X146506285Y-84638571D01*
X147720571Y-84138571D02*
X148006285Y-85138571D01*
X148292000Y-84424285D01*
X148577714Y-85138571D01*
X148863428Y-84138571D01*
X150363428Y-83638571D02*
X150863428Y-85138571D01*
X151363428Y-83638571D01*
X152506285Y-85138571D02*
X152506285Y-84352857D01*
X152434857Y-84210000D01*
X152292000Y-84138571D01*
X152006285Y-84138571D01*
X151863428Y-84210000D01*
X152506285Y-85067142D02*
X152363428Y-85138571D01*
X152006285Y-85138571D01*
X151863428Y-85067142D01*
X151792000Y-84924285D01*
X151792000Y-84781428D01*
X151863428Y-84638571D01*
X152006285Y-84567142D01*
X152363428Y-84567142D01*
X152506285Y-84495714D01*
X153220571Y-84138571D02*
X153220571Y-85138571D01*
X153220571Y-84281428D02*
X153292000Y-84210000D01*
X153434857Y-84138571D01*
X153649142Y-84138571D01*
X153792000Y-84210000D01*
X153863428Y-84352857D01*
X153863428Y-85138571D01*
X155720571Y-85138571D02*
X155720571Y-83638571D01*
X155720571Y-84352857D02*
X156577714Y-84352857D01*
X156577714Y-85138571D02*
X156577714Y-83638571D01*
X157506285Y-85138571D02*
X157363428Y-85067142D01*
X157292000Y-84995714D01*
X157220571Y-84852857D01*
X157220571Y-84424285D01*
X157292000Y-84281428D01*
X157363428Y-84210000D01*
X157506285Y-84138571D01*
X157720571Y-84138571D01*
X157863428Y-84210000D01*
X157934857Y-84281428D01*
X158006285Y-84424285D01*
X158006285Y-84852857D01*
X157934857Y-84995714D01*
X157863428Y-85067142D01*
X157720571Y-85138571D01*
X157506285Y-85138571D01*
X158649142Y-85138571D02*
X158649142Y-84138571D01*
X158649142Y-84424285D02*
X158720571Y-84281428D01*
X158792000Y-84210000D01*
X158934857Y-84138571D01*
X159077714Y-84138571D01*
X159577714Y-84138571D02*
X159577714Y-85138571D01*
X159577714Y-84281428D02*
X159649142Y-84210000D01*
X159792000Y-84138571D01*
X160006285Y-84138571D01*
X160149142Y-84210000D01*
X160220571Y-84352857D01*
X160220571Y-85138571D01*
D12*
G04 #@! TO.C,C2*
X141392200Y-90814600D02*
X142092200Y-90814600D01*
X142092200Y-92014600D02*
X141392200Y-92014600D01*
G04 #@! TO.C,C3*
X126736400Y-93710200D02*
X127436400Y-93710200D01*
X127436400Y-94910200D02*
X126736400Y-94910200D01*
G04 #@! TO.C,C4*
X126736400Y-74914200D02*
X127436400Y-74914200D01*
X127436400Y-76114200D02*
X126736400Y-76114200D01*
G04 #@! TO.C,C5*
X145119800Y-96442308D02*
X144419800Y-96442308D01*
X144419800Y-95242308D02*
X145119800Y-95242308D01*
G04 #@! TO.C,C6*
X145119800Y-98085200D02*
X144419800Y-98085200D01*
X144419800Y-96885200D02*
X145119800Y-96885200D01*
G04 #@! TO.C,C7*
X159999200Y-102296750D02*
X159299200Y-102296750D01*
X159299200Y-101096750D02*
X159999200Y-101096750D01*
G04 #@! TO.C,R1*
X133866000Y-108514600D02*
X134866000Y-108514600D01*
X134866000Y-109874600D02*
X133866000Y-109874600D01*
G04 #@! TO.C,R2*
X133866000Y-105974600D02*
X134866000Y-105974600D01*
X134866000Y-107334600D02*
X133866000Y-107334600D01*
G04 #@! TO.C,R3*
X133866000Y-103434600D02*
X134866000Y-103434600D01*
X134866000Y-104794600D02*
X133866000Y-104794600D01*
D13*
G04 #@! TO.C,U3*
X154926200Y-104092150D02*
X154926200Y-103517150D01*
X149176200Y-104092150D02*
X149176200Y-103442150D01*
X149176200Y-93442150D02*
X149176200Y-94092150D01*
X154926200Y-93442150D02*
X154926200Y-94092150D01*
X154926200Y-104092150D02*
X149176200Y-104092150D01*
X154926200Y-93442150D02*
X149176200Y-93442150D01*
X154926200Y-103517150D02*
X156526200Y-103517150D01*
G04 #@! TO.C,BT1*
X139192000Y-112115600D02*
X129540000Y-112115600D01*
X140716000Y-113639600D02*
X139192000Y-112115600D01*
X128016000Y-113639600D02*
X129540000Y-112115600D01*
X128016000Y-124815600D02*
X128016000Y-113639600D01*
X140716000Y-124815600D02*
X140716000Y-113639600D01*
G04 #@! TO.C,J2*
X163830000Y-127000000D02*
G75*
G03X166370000Y-124460000I0J2540000D01*
G01*
X125730000Y-71120000D02*
G75*
G03X123190000Y-73660000I0J-2540000D01*
G01*
X123190000Y-124460000D02*
G75*
G03X125730000Y-127000000I2540000J0D01*
G01*
X123190000Y-73660000D02*
X123190000Y-124460000D01*
X125730000Y-127000000D02*
X163830000Y-127000000D01*
X166370000Y-124460000D02*
X166370000Y-73660000D01*
X166370000Y-73660000D02*
G75*
G03X163830000Y-71120000I-2540000J0D01*
G01*
X163830000Y-71120000D02*
X125730000Y-71120000D01*
D14*
G04 #@! TO.C,G\002A\002A\002A*
G36*
X149916109Y-85451561D02*
X149948880Y-85472512D01*
X149995807Y-85509470D01*
X150034742Y-85542615D01*
X150051224Y-85569645D01*
X150049540Y-85598198D01*
X150037207Y-85629693D01*
X150012240Y-85677259D01*
X149977598Y-85736098D01*
X149936237Y-85801413D01*
X149891116Y-85868403D01*
X149845193Y-85932272D01*
X149836406Y-85943941D01*
X149800553Y-85993794D01*
X149763696Y-86049484D01*
X149728878Y-86105857D01*
X149699141Y-86157759D01*
X149677528Y-86200036D01*
X149667081Y-86227533D01*
X149666570Y-86231671D01*
X149656658Y-86249302D01*
X149640518Y-86262541D01*
X149620048Y-86281838D01*
X149614467Y-86295802D01*
X149605686Y-86314764D01*
X149583716Y-86341671D01*
X149574379Y-86351050D01*
X149547716Y-86382723D01*
X149517294Y-86428028D01*
X149491396Y-86473974D01*
X149450614Y-86553566D01*
X149418496Y-86613757D01*
X149392562Y-86658697D01*
X149370335Y-86692535D01*
X149349337Y-86719420D01*
X149335780Y-86734487D01*
X149308243Y-86766399D01*
X149276272Y-86807421D01*
X149243902Y-86851821D01*
X149215170Y-86893862D01*
X149194113Y-86927809D01*
X149184766Y-86947928D01*
X149184621Y-86949263D01*
X149176365Y-86965680D01*
X149156092Y-86990699D01*
X149152086Y-86994970D01*
X149127278Y-87024118D01*
X149095960Y-87065255D01*
X149070675Y-87101097D01*
X149025036Y-87166334D01*
X148973202Y-87236958D01*
X148919741Y-87307044D01*
X148869219Y-87370669D01*
X148826203Y-87421908D01*
X148807339Y-87442724D01*
X148773315Y-87479389D01*
X148742436Y-87513916D01*
X148729509Y-87529051D01*
X148706969Y-87556040D01*
X148674885Y-87594082D01*
X148644034Y-87630435D01*
X148605927Y-87681496D01*
X148587022Y-87721953D01*
X148585204Y-87734640D01*
X148574234Y-87781133D01*
X148541497Y-87834912D01*
X148486392Y-87896667D01*
X148408318Y-87967087D01*
X148323725Y-88034061D01*
X148275456Y-88067057D01*
X148235112Y-88083726D01*
X148192707Y-88086655D01*
X148146271Y-88080019D01*
X148117367Y-88065317D01*
X148086616Y-88036949D01*
X148061977Y-88003818D01*
X148051408Y-87974825D01*
X148051390Y-87973883D01*
X148055891Y-87951934D01*
X148067850Y-87913150D01*
X148084955Y-87864845D01*
X148090467Y-87850309D01*
X148108665Y-87800159D01*
X148122345Y-87756948D01*
X148129176Y-87728227D01*
X148129544Y-87723853D01*
X148134911Y-87699790D01*
X148148963Y-87661001D01*
X148168048Y-87617221D01*
X148192091Y-87563341D01*
X148219168Y-87498309D01*
X148243699Y-87435558D01*
X148245265Y-87431359D01*
X148339176Y-87204022D01*
X148389756Y-87099205D01*
X148415063Y-87044943D01*
X148440773Y-86983057D01*
X148454145Y-86947185D01*
X148473807Y-86898745D01*
X148502185Y-86838507D01*
X148534294Y-86776832D01*
X148546847Y-86754461D01*
X148574250Y-86705798D01*
X148595892Y-86665385D01*
X148608948Y-86638612D01*
X148611493Y-86631148D01*
X148618297Y-86615201D01*
X148635909Y-86585232D01*
X148654417Y-86556846D01*
X148682417Y-86511573D01*
X148713730Y-86455018D01*
X148740167Y-86402333D01*
X148763987Y-86354523D01*
X148786955Y-86313277D01*
X148804486Y-86286775D01*
X148805893Y-86285103D01*
X148823522Y-86260120D01*
X148845611Y-86221982D01*
X148869360Y-86176532D01*
X148891971Y-86129611D01*
X148910644Y-86087064D01*
X148922580Y-86054731D01*
X148924979Y-86038456D01*
X148924386Y-86037787D01*
X148904218Y-86038150D01*
X148869890Y-86050367D01*
X148828523Y-86071263D01*
X148787235Y-86097662D01*
X148782728Y-86100971D01*
X148745814Y-86125554D01*
X148698332Y-86153385D01*
X148668337Y-86169345D01*
X148627873Y-86193261D01*
X148579498Y-86226899D01*
X148529146Y-86265506D01*
X148482749Y-86304330D01*
X148446239Y-86338618D01*
X148425548Y-86363619D01*
X148425322Y-86364017D01*
X148423597Y-86378009D01*
X148442891Y-86382705D01*
X148448672Y-86382795D01*
X148494770Y-86390727D01*
X148532967Y-86411369D01*
X148560167Y-86439984D01*
X148573276Y-86471840D01*
X148569198Y-86502201D01*
X148544839Y-86526332D01*
X148543108Y-86527252D01*
X148513575Y-86547205D01*
X148482004Y-86574931D01*
X148480400Y-86576556D01*
X148445275Y-86606851D01*
X148407857Y-86631581D01*
X148376144Y-86658012D01*
X148346863Y-86698156D01*
X148340704Y-86709735D01*
X148292584Y-86787212D01*
X148235443Y-86842220D01*
X148212598Y-86856354D01*
X148188614Y-86873057D01*
X148151201Y-86903616D01*
X148105524Y-86943646D01*
X148057903Y-86987666D01*
X148010272Y-87031333D01*
X147966843Y-87068345D01*
X147932361Y-87094836D01*
X147911575Y-87106941D01*
X147911365Y-87107001D01*
X147888599Y-87117248D01*
X147882057Y-87125782D01*
X147872094Y-87138384D01*
X147845831Y-87161350D01*
X147808704Y-87190689D01*
X147766153Y-87222407D01*
X147723614Y-87252512D01*
X147686524Y-87277013D01*
X147660323Y-87291915D01*
X147652141Y-87294590D01*
X147638025Y-87283694D01*
X147634570Y-87267770D01*
X147629881Y-87249521D01*
X147622444Y-87248444D01*
X147606892Y-87246419D01*
X147594507Y-87221319D01*
X147585910Y-87175995D01*
X147581724Y-87113300D01*
X147581729Y-87061503D01*
X147592363Y-87018715D01*
X147621361Y-86962531D01*
X147666791Y-86895888D01*
X147726722Y-86821724D01*
X147773300Y-86770063D01*
X147809482Y-86730285D01*
X147837628Y-86697045D01*
X147853726Y-86675195D01*
X147856006Y-86669993D01*
X147866720Y-86656841D01*
X147881030Y-86650146D01*
X147897925Y-86638785D01*
X147929797Y-86611987D01*
X147973266Y-86572799D01*
X148009152Y-86539103D01*
X148238133Y-86539103D01*
X148249217Y-86530606D01*
X148266313Y-86513051D01*
X148279600Y-86494346D01*
X148277978Y-86487000D01*
X148262538Y-86496828D01*
X148249798Y-86513051D01*
X148239010Y-86532954D01*
X148238133Y-86539103D01*
X148009152Y-86539103D01*
X148024952Y-86524268D01*
X148080737Y-86470166D01*
X148180066Y-86373101D01*
X148264664Y-86292346D01*
X148337655Y-86225242D01*
X148402163Y-86169128D01*
X148461313Y-86121347D01*
X148518229Y-86079238D01*
X148576037Y-86040143D01*
X148615167Y-86015338D01*
X148681641Y-85975597D01*
X148756569Y-85933128D01*
X148827407Y-85894971D01*
X148852467Y-85882152D01*
X148906639Y-85855512D01*
X148944413Y-85839151D01*
X148972530Y-85831369D01*
X148997728Y-85830470D01*
X149026744Y-85834753D01*
X149034518Y-85836263D01*
X149086286Y-85850218D01*
X149117794Y-85870746D01*
X149134824Y-85903637D01*
X149142048Y-85943974D01*
X149142652Y-85992421D01*
X149136315Y-86048522D01*
X149124827Y-86102804D01*
X149109982Y-86145796D01*
X149100909Y-86161359D01*
X149085783Y-86185027D01*
X149066466Y-86220531D01*
X149060232Y-86233000D01*
X149037060Y-86275187D01*
X149011786Y-86313819D01*
X149006639Y-86320591D01*
X148985553Y-86351804D01*
X148960199Y-86395794D01*
X148941884Y-86431309D01*
X148917247Y-86479326D01*
X148891867Y-86524651D01*
X148876575Y-86549304D01*
X148855072Y-86587932D01*
X148840518Y-86625801D01*
X148839573Y-86629685D01*
X148824863Y-86665139D01*
X148800181Y-86700819D01*
X148797783Y-86703478D01*
X148774461Y-86734216D01*
X148744119Y-86781849D01*
X148710534Y-86839566D01*
X148677482Y-86900552D01*
X148648741Y-86957995D01*
X148628086Y-87005083D01*
X148623406Y-87018038D01*
X148609284Y-87054655D01*
X148587743Y-87103627D01*
X148563861Y-87153509D01*
X148542838Y-87196453D01*
X148527387Y-87229940D01*
X148520440Y-87247574D01*
X148520313Y-87248445D01*
X148515194Y-87262863D01*
X148501316Y-87295762D01*
X148480901Y-87341998D01*
X148460202Y-87387652D01*
X148432904Y-87451098D01*
X148408625Y-87514699D01*
X148388910Y-87573517D01*
X148375305Y-87622614D01*
X148369353Y-87657051D01*
X148371515Y-87671159D01*
X148382976Y-87665499D01*
X148407225Y-87643077D01*
X148440925Y-87607590D01*
X148480738Y-87562737D01*
X148523326Y-87512214D01*
X148565350Y-87459720D01*
X148582107Y-87437872D01*
X148615902Y-87393694D01*
X148644844Y-87356846D01*
X148664643Y-87332742D01*
X148669783Y-87327154D01*
X148684420Y-87310042D01*
X148708208Y-87279003D01*
X148730070Y-87249000D01*
X148760298Y-87207645D01*
X148789053Y-87169986D01*
X148804154Y-87151308D01*
X148859064Y-87085868D01*
X148903943Y-87030185D01*
X148944963Y-86976157D01*
X148988294Y-86915677D01*
X149034826Y-86848362D01*
X149076767Y-86786972D01*
X149117337Y-86727380D01*
X149152319Y-86675793D01*
X149177497Y-86638418D01*
X149180517Y-86633898D01*
X149213134Y-86586288D01*
X149248374Y-86536767D01*
X149263050Y-86516826D01*
X149286313Y-86481619D01*
X149316104Y-86430690D01*
X149347937Y-86371923D01*
X149367907Y-86332628D01*
X149400583Y-86270529D01*
X149436506Y-86208845D01*
X149470298Y-86156553D01*
X149487271Y-86133469D01*
X149519868Y-86089416D01*
X149548496Y-86045400D01*
X149564372Y-86016187D01*
X149584844Y-85981979D01*
X149621100Y-85932966D01*
X149670333Y-85872591D01*
X149729735Y-85804297D01*
X149796394Y-85731640D01*
X149824072Y-85696131D01*
X149854957Y-85647357D01*
X149881431Y-85597724D01*
X149923685Y-85509271D01*
X149898387Y-85477110D01*
X149882497Y-85454938D01*
X149883122Y-85446270D01*
X149895110Y-85444949D01*
X149916109Y-85451561D01*
X149916109Y-85451561D01*
G37*
X149916109Y-85451561D02*
X149948880Y-85472512D01*
X149995807Y-85509470D01*
X150034742Y-85542615D01*
X150051224Y-85569645D01*
X150049540Y-85598198D01*
X150037207Y-85629693D01*
X150012240Y-85677259D01*
X149977598Y-85736098D01*
X149936237Y-85801413D01*
X149891116Y-85868403D01*
X149845193Y-85932272D01*
X149836406Y-85943941D01*
X149800553Y-85993794D01*
X149763696Y-86049484D01*
X149728878Y-86105857D01*
X149699141Y-86157759D01*
X149677528Y-86200036D01*
X149667081Y-86227533D01*
X149666570Y-86231671D01*
X149656658Y-86249302D01*
X149640518Y-86262541D01*
X149620048Y-86281838D01*
X149614467Y-86295802D01*
X149605686Y-86314764D01*
X149583716Y-86341671D01*
X149574379Y-86351050D01*
X149547716Y-86382723D01*
X149517294Y-86428028D01*
X149491396Y-86473974D01*
X149450614Y-86553566D01*
X149418496Y-86613757D01*
X149392562Y-86658697D01*
X149370335Y-86692535D01*
X149349337Y-86719420D01*
X149335780Y-86734487D01*
X149308243Y-86766399D01*
X149276272Y-86807421D01*
X149243902Y-86851821D01*
X149215170Y-86893862D01*
X149194113Y-86927809D01*
X149184766Y-86947928D01*
X149184621Y-86949263D01*
X149176365Y-86965680D01*
X149156092Y-86990699D01*
X149152086Y-86994970D01*
X149127278Y-87024118D01*
X149095960Y-87065255D01*
X149070675Y-87101097D01*
X149025036Y-87166334D01*
X148973202Y-87236958D01*
X148919741Y-87307044D01*
X148869219Y-87370669D01*
X148826203Y-87421908D01*
X148807339Y-87442724D01*
X148773315Y-87479389D01*
X148742436Y-87513916D01*
X148729509Y-87529051D01*
X148706969Y-87556040D01*
X148674885Y-87594082D01*
X148644034Y-87630435D01*
X148605927Y-87681496D01*
X148587022Y-87721953D01*
X148585204Y-87734640D01*
X148574234Y-87781133D01*
X148541497Y-87834912D01*
X148486392Y-87896667D01*
X148408318Y-87967087D01*
X148323725Y-88034061D01*
X148275456Y-88067057D01*
X148235112Y-88083726D01*
X148192707Y-88086655D01*
X148146271Y-88080019D01*
X148117367Y-88065317D01*
X148086616Y-88036949D01*
X148061977Y-88003818D01*
X148051408Y-87974825D01*
X148051390Y-87973883D01*
X148055891Y-87951934D01*
X148067850Y-87913150D01*
X148084955Y-87864845D01*
X148090467Y-87850309D01*
X148108665Y-87800159D01*
X148122345Y-87756948D01*
X148129176Y-87728227D01*
X148129544Y-87723853D01*
X148134911Y-87699790D01*
X148148963Y-87661001D01*
X148168048Y-87617221D01*
X148192091Y-87563341D01*
X148219168Y-87498309D01*
X148243699Y-87435558D01*
X148245265Y-87431359D01*
X148339176Y-87204022D01*
X148389756Y-87099205D01*
X148415063Y-87044943D01*
X148440773Y-86983057D01*
X148454145Y-86947185D01*
X148473807Y-86898745D01*
X148502185Y-86838507D01*
X148534294Y-86776832D01*
X148546847Y-86754461D01*
X148574250Y-86705798D01*
X148595892Y-86665385D01*
X148608948Y-86638612D01*
X148611493Y-86631148D01*
X148618297Y-86615201D01*
X148635909Y-86585232D01*
X148654417Y-86556846D01*
X148682417Y-86511573D01*
X148713730Y-86455018D01*
X148740167Y-86402333D01*
X148763987Y-86354523D01*
X148786955Y-86313277D01*
X148804486Y-86286775D01*
X148805893Y-86285103D01*
X148823522Y-86260120D01*
X148845611Y-86221982D01*
X148869360Y-86176532D01*
X148891971Y-86129611D01*
X148910644Y-86087064D01*
X148922580Y-86054731D01*
X148924979Y-86038456D01*
X148924386Y-86037787D01*
X148904218Y-86038150D01*
X148869890Y-86050367D01*
X148828523Y-86071263D01*
X148787235Y-86097662D01*
X148782728Y-86100971D01*
X148745814Y-86125554D01*
X148698332Y-86153385D01*
X148668337Y-86169345D01*
X148627873Y-86193261D01*
X148579498Y-86226899D01*
X148529146Y-86265506D01*
X148482749Y-86304330D01*
X148446239Y-86338618D01*
X148425548Y-86363619D01*
X148425322Y-86364017D01*
X148423597Y-86378009D01*
X148442891Y-86382705D01*
X148448672Y-86382795D01*
X148494770Y-86390727D01*
X148532967Y-86411369D01*
X148560167Y-86439984D01*
X148573276Y-86471840D01*
X148569198Y-86502201D01*
X148544839Y-86526332D01*
X148543108Y-86527252D01*
X148513575Y-86547205D01*
X148482004Y-86574931D01*
X148480400Y-86576556D01*
X148445275Y-86606851D01*
X148407857Y-86631581D01*
X148376144Y-86658012D01*
X148346863Y-86698156D01*
X148340704Y-86709735D01*
X148292584Y-86787212D01*
X148235443Y-86842220D01*
X148212598Y-86856354D01*
X148188614Y-86873057D01*
X148151201Y-86903616D01*
X148105524Y-86943646D01*
X148057903Y-86987666D01*
X148010272Y-87031333D01*
X147966843Y-87068345D01*
X147932361Y-87094836D01*
X147911575Y-87106941D01*
X147911365Y-87107001D01*
X147888599Y-87117248D01*
X147882057Y-87125782D01*
X147872094Y-87138384D01*
X147845831Y-87161350D01*
X147808704Y-87190689D01*
X147766153Y-87222407D01*
X147723614Y-87252512D01*
X147686524Y-87277013D01*
X147660323Y-87291915D01*
X147652141Y-87294590D01*
X147638025Y-87283694D01*
X147634570Y-87267770D01*
X147629881Y-87249521D01*
X147622444Y-87248444D01*
X147606892Y-87246419D01*
X147594507Y-87221319D01*
X147585910Y-87175995D01*
X147581724Y-87113300D01*
X147581729Y-87061503D01*
X147592363Y-87018715D01*
X147621361Y-86962531D01*
X147666791Y-86895888D01*
X147726722Y-86821724D01*
X147773300Y-86770063D01*
X147809482Y-86730285D01*
X147837628Y-86697045D01*
X147853726Y-86675195D01*
X147856006Y-86669993D01*
X147866720Y-86656841D01*
X147881030Y-86650146D01*
X147897925Y-86638785D01*
X147929797Y-86611987D01*
X147973266Y-86572799D01*
X148009152Y-86539103D01*
X148238133Y-86539103D01*
X148249217Y-86530606D01*
X148266313Y-86513051D01*
X148279600Y-86494346D01*
X148277978Y-86487000D01*
X148262538Y-86496828D01*
X148249798Y-86513051D01*
X148239010Y-86532954D01*
X148238133Y-86539103D01*
X148009152Y-86539103D01*
X148024952Y-86524268D01*
X148080737Y-86470166D01*
X148180066Y-86373101D01*
X148264664Y-86292346D01*
X148337655Y-86225242D01*
X148402163Y-86169128D01*
X148461313Y-86121347D01*
X148518229Y-86079238D01*
X148576037Y-86040143D01*
X148615167Y-86015338D01*
X148681641Y-85975597D01*
X148756569Y-85933128D01*
X148827407Y-85894971D01*
X148852467Y-85882152D01*
X148906639Y-85855512D01*
X148944413Y-85839151D01*
X148972530Y-85831369D01*
X148997728Y-85830470D01*
X149026744Y-85834753D01*
X149034518Y-85836263D01*
X149086286Y-85850218D01*
X149117794Y-85870746D01*
X149134824Y-85903637D01*
X149142048Y-85943974D01*
X149142652Y-85992421D01*
X149136315Y-86048522D01*
X149124827Y-86102804D01*
X149109982Y-86145796D01*
X149100909Y-86161359D01*
X149085783Y-86185027D01*
X149066466Y-86220531D01*
X149060232Y-86233000D01*
X149037060Y-86275187D01*
X149011786Y-86313819D01*
X149006639Y-86320591D01*
X148985553Y-86351804D01*
X148960199Y-86395794D01*
X148941884Y-86431309D01*
X148917247Y-86479326D01*
X148891867Y-86524651D01*
X148876575Y-86549304D01*
X148855072Y-86587932D01*
X148840518Y-86625801D01*
X148839573Y-86629685D01*
X148824863Y-86665139D01*
X148800181Y-86700819D01*
X148797783Y-86703478D01*
X148774461Y-86734216D01*
X148744119Y-86781849D01*
X148710534Y-86839566D01*
X148677482Y-86900552D01*
X148648741Y-86957995D01*
X148628086Y-87005083D01*
X148623406Y-87018038D01*
X148609284Y-87054655D01*
X148587743Y-87103627D01*
X148563861Y-87153509D01*
X148542838Y-87196453D01*
X148527387Y-87229940D01*
X148520440Y-87247574D01*
X148520313Y-87248445D01*
X148515194Y-87262863D01*
X148501316Y-87295762D01*
X148480901Y-87341998D01*
X148460202Y-87387652D01*
X148432904Y-87451098D01*
X148408625Y-87514699D01*
X148388910Y-87573517D01*
X148375305Y-87622614D01*
X148369353Y-87657051D01*
X148371515Y-87671159D01*
X148382976Y-87665499D01*
X148407225Y-87643077D01*
X148440925Y-87607590D01*
X148480738Y-87562737D01*
X148523326Y-87512214D01*
X148565350Y-87459720D01*
X148582107Y-87437872D01*
X148615902Y-87393694D01*
X148644844Y-87356846D01*
X148664643Y-87332742D01*
X148669783Y-87327154D01*
X148684420Y-87310042D01*
X148708208Y-87279003D01*
X148730070Y-87249000D01*
X148760298Y-87207645D01*
X148789053Y-87169986D01*
X148804154Y-87151308D01*
X148859064Y-87085868D01*
X148903943Y-87030185D01*
X148944963Y-86976157D01*
X148988294Y-86915677D01*
X149034826Y-86848362D01*
X149076767Y-86786972D01*
X149117337Y-86727380D01*
X149152319Y-86675793D01*
X149177497Y-86638418D01*
X149180517Y-86633898D01*
X149213134Y-86586288D01*
X149248374Y-86536767D01*
X149263050Y-86516826D01*
X149286313Y-86481619D01*
X149316104Y-86430690D01*
X149347937Y-86371923D01*
X149367907Y-86332628D01*
X149400583Y-86270529D01*
X149436506Y-86208845D01*
X149470298Y-86156553D01*
X149487271Y-86133469D01*
X149519868Y-86089416D01*
X149548496Y-86045400D01*
X149564372Y-86016187D01*
X149584844Y-85981979D01*
X149621100Y-85932966D01*
X149670333Y-85872591D01*
X149729735Y-85804297D01*
X149796394Y-85731640D01*
X149824072Y-85696131D01*
X149854957Y-85647357D01*
X149881431Y-85597724D01*
X149923685Y-85509271D01*
X149898387Y-85477110D01*
X149882497Y-85454938D01*
X149883122Y-85446270D01*
X149895110Y-85444949D01*
X149916109Y-85451561D01*
G36*
X150856306Y-86992382D02*
X150864929Y-87006431D01*
X150873281Y-87020806D01*
X150894357Y-87045808D01*
X150905980Y-87058094D01*
X150947032Y-87100083D01*
X150931152Y-87174541D01*
X150919759Y-87218542D01*
X150901691Y-87277851D01*
X150879771Y-87343515D01*
X150864050Y-87387377D01*
X150843628Y-87443257D01*
X150827072Y-87489913D01*
X150816214Y-87522091D01*
X150812826Y-87534286D01*
X150807571Y-87549181D01*
X150793558Y-87581532D01*
X150773411Y-87625363D01*
X150764880Y-87643396D01*
X150738051Y-87702300D01*
X150711899Y-87764079D01*
X150691646Y-87816348D01*
X150689982Y-87821042D01*
X150663031Y-87898110D01*
X150573447Y-87928208D01*
X150483864Y-87958306D01*
X150490076Y-87903192D01*
X150491858Y-87862080D01*
X150488585Y-87828234D01*
X150486860Y-87822078D01*
X150485163Y-87789905D01*
X150491616Y-87770026D01*
X150503230Y-87746860D01*
X150506788Y-87737462D01*
X150514056Y-87710107D01*
X150528775Y-87666755D01*
X150547936Y-87615269D01*
X150568528Y-87563509D01*
X150587541Y-87519338D01*
X150600009Y-87493995D01*
X150616458Y-87457359D01*
X150618895Y-87435680D01*
X150609114Y-87431888D01*
X150588907Y-87448916D01*
X150579549Y-87460543D01*
X150557134Y-87489921D01*
X150539930Y-87511619D01*
X150539429Y-87512219D01*
X150527531Y-87533593D01*
X150526262Y-87540442D01*
X150517963Y-87556478D01*
X150516493Y-87557273D01*
X150499069Y-87573753D01*
X150476444Y-87605920D01*
X150453523Y-87645451D01*
X150435213Y-87684022D01*
X150427109Y-87708942D01*
X150412107Y-87747836D01*
X150387005Y-87785422D01*
X150384515Y-87788194D01*
X150345847Y-87834729D01*
X150304486Y-87891952D01*
X150268345Y-87948520D01*
X150252302Y-87977740D01*
X150230190Y-88012634D01*
X150200129Y-88049555D01*
X150194108Y-88055894D01*
X150164860Y-88090376D01*
X150142141Y-88125151D01*
X150139028Y-88131487D01*
X150120352Y-88160073D01*
X150102437Y-88165164D01*
X150088658Y-88146175D01*
X150086972Y-88140520D01*
X150073953Y-88121023D01*
X150060671Y-88121136D01*
X150035207Y-88119492D01*
X150002817Y-88104245D01*
X149972912Y-88081637D01*
X149954902Y-88057913D01*
X149953134Y-88049783D01*
X149946902Y-88025292D01*
X149940108Y-88017513D01*
X149927862Y-88000082D01*
X149939118Y-87975769D01*
X149949426Y-87964466D01*
X149966567Y-87938795D01*
X149985950Y-87897873D01*
X150003599Y-87851751D01*
X150015543Y-87810476D01*
X150018381Y-87790064D01*
X150023939Y-87767716D01*
X150038092Y-87731760D01*
X150050538Y-87704897D01*
X150074090Y-87647974D01*
X150082552Y-87604952D01*
X150075459Y-87578742D01*
X150071175Y-87575142D01*
X150056345Y-87579373D01*
X150036836Y-87599869D01*
X150035354Y-87601979D01*
X150007585Y-87637831D01*
X149982441Y-87665613D01*
X149962015Y-87688706D01*
X149953145Y-87704103D01*
X149953134Y-87704380D01*
X149946252Y-87720587D01*
X149929542Y-87747018D01*
X149928114Y-87749039D01*
X149908392Y-87780039D01*
X149883778Y-87823345D01*
X149857425Y-87872779D01*
X149832481Y-87922161D01*
X149812100Y-87965313D01*
X149799432Y-87996055D01*
X149796826Y-88006479D01*
X149786902Y-88025478D01*
X149766417Y-88043350D01*
X149736669Y-88070258D01*
X149719602Y-88093930D01*
X149699014Y-88118865D01*
X149665322Y-88147455D01*
X149646250Y-88160580D01*
X149608479Y-88188095D01*
X149577730Y-88216758D01*
X149568451Y-88228403D01*
X149550137Y-88249450D01*
X149534157Y-88248713D01*
X149530274Y-88245854D01*
X149519197Y-88222849D01*
X149520095Y-88204162D01*
X149521214Y-88184295D01*
X149508981Y-88183474D01*
X149494470Y-88197480D01*
X149493980Y-88204756D01*
X149489590Y-88218049D01*
X149469882Y-88215580D01*
X149439408Y-88198435D01*
X149426342Y-88188612D01*
X149405296Y-88170531D01*
X149395183Y-88154083D01*
X149394089Y-88130787D01*
X149400101Y-88092160D01*
X149402104Y-88081215D01*
X149409919Y-88030352D01*
X149409931Y-88003460D01*
X149401803Y-87999551D01*
X149385197Y-88017639D01*
X149381942Y-88022206D01*
X149356757Y-88054965D01*
X149331159Y-88084670D01*
X149311146Y-88108184D01*
X149301922Y-88122680D01*
X149301852Y-88123230D01*
X149294091Y-88135951D01*
X149273823Y-88162457D01*
X149247710Y-88194278D01*
X149207380Y-88234528D01*
X149170979Y-88256685D01*
X149141978Y-88259226D01*
X149127085Y-88247208D01*
X149110448Y-88240657D01*
X149089338Y-88241813D01*
X149061656Y-88239134D01*
X149033377Y-88217199D01*
X149023899Y-88206503D01*
X149002003Y-88177072D01*
X148989920Y-88154211D01*
X148989100Y-88150026D01*
X148988524Y-88130786D01*
X148987103Y-88092423D01*
X148985097Y-88041840D01*
X148984146Y-88018709D01*
X148982879Y-87954930D01*
X148985944Y-87908964D01*
X148994261Y-87872796D01*
X149003535Y-87849376D01*
X149019006Y-87805792D01*
X149027493Y-87763435D01*
X149028027Y-87754092D01*
X149033710Y-87715654D01*
X149047573Y-87670363D01*
X149053348Y-87656400D01*
X149053628Y-87655769D01*
X149312884Y-87655769D01*
X149320747Y-87659308D01*
X149333891Y-87652795D01*
X149718672Y-87652795D01*
X149725185Y-87659308D01*
X149731698Y-87652795D01*
X149725185Y-87646282D01*
X149718672Y-87652795D01*
X149333891Y-87652795D01*
X149341630Y-87648961D01*
X149353954Y-87633256D01*
X149361998Y-87613142D01*
X149360467Y-87607205D01*
X149359838Y-87597662D01*
X149366980Y-87581154D01*
X149377145Y-87559145D01*
X149374405Y-87556661D01*
X149360865Y-87571934D01*
X149338630Y-87603196D01*
X149335962Y-87607205D01*
X149316536Y-87639650D01*
X149312884Y-87655769D01*
X149053628Y-87655769D01*
X149073949Y-87610120D01*
X149094041Y-87564327D01*
X149098378Y-87554312D01*
X149116950Y-87523033D01*
X149148334Y-87481536D01*
X149186521Y-87437615D01*
X149196288Y-87427312D01*
X149236698Y-87387015D01*
X149266074Y-87362701D01*
X149290321Y-87350559D01*
X149315343Y-87346780D01*
X149321220Y-87346692D01*
X149364007Y-87352658D01*
X149410470Y-87367421D01*
X149419824Y-87371616D01*
X149471409Y-87396539D01*
X149503230Y-87342240D01*
X149531101Y-87302336D01*
X149568772Y-87257730D01*
X149594691Y-87231101D01*
X149629645Y-87199669D01*
X149654657Y-87183867D01*
X149677314Y-87180051D01*
X149695800Y-87182554D01*
X149734476Y-87197696D01*
X149770628Y-87222820D01*
X149771595Y-87223734D01*
X149791948Y-87246622D01*
X149800920Y-87270425D01*
X149801429Y-87305506D01*
X149799967Y-87324451D01*
X149793353Y-87372189D01*
X149781764Y-87431874D01*
X149767863Y-87489974D01*
X149754347Y-87540502D01*
X149742773Y-87583827D01*
X149735382Y-87611556D01*
X149734809Y-87613718D01*
X149734792Y-87625605D01*
X149745187Y-87617954D01*
X149763605Y-87593915D01*
X149787657Y-87556639D01*
X149814957Y-87509276D01*
X149817472Y-87504662D01*
X149845502Y-87460790D01*
X149884682Y-87409153D01*
X149927239Y-87359892D01*
X149933595Y-87353166D01*
X149978026Y-87309332D01*
X150014528Y-87280739D01*
X150051076Y-87261994D01*
X150085395Y-87250555D01*
X150140408Y-87236194D01*
X150178828Y-87231848D01*
X150208654Y-87238936D01*
X150237886Y-87258873D01*
X150263125Y-87282048D01*
X150295557Y-87316159D01*
X150312081Y-87343994D01*
X150317605Y-87374942D01*
X150317852Y-87386711D01*
X150319149Y-87419241D01*
X150325210Y-87431014D01*
X150339293Y-87427278D01*
X150342104Y-87425809D01*
X150359974Y-87408949D01*
X150385775Y-87375776D01*
X150414651Y-87332674D01*
X150421977Y-87320774D01*
X150477159Y-87243530D01*
X150547237Y-87166410D01*
X150624971Y-87096301D01*
X150703119Y-87040089D01*
X150737489Y-87020654D01*
X150788359Y-86998936D01*
X150829390Y-86989353D01*
X150856306Y-86992382D01*
X150856306Y-86992382D01*
G37*
X150856306Y-86992382D02*
X150864929Y-87006431D01*
X150873281Y-87020806D01*
X150894357Y-87045808D01*
X150905980Y-87058094D01*
X150947032Y-87100083D01*
X150931152Y-87174541D01*
X150919759Y-87218542D01*
X150901691Y-87277851D01*
X150879771Y-87343515D01*
X150864050Y-87387377D01*
X150843628Y-87443257D01*
X150827072Y-87489913D01*
X150816214Y-87522091D01*
X150812826Y-87534286D01*
X150807571Y-87549181D01*
X150793558Y-87581532D01*
X150773411Y-87625363D01*
X150764880Y-87643396D01*
X150738051Y-87702300D01*
X150711899Y-87764079D01*
X150691646Y-87816348D01*
X150689982Y-87821042D01*
X150663031Y-87898110D01*
X150573447Y-87928208D01*
X150483864Y-87958306D01*
X150490076Y-87903192D01*
X150491858Y-87862080D01*
X150488585Y-87828234D01*
X150486860Y-87822078D01*
X150485163Y-87789905D01*
X150491616Y-87770026D01*
X150503230Y-87746860D01*
X150506788Y-87737462D01*
X150514056Y-87710107D01*
X150528775Y-87666755D01*
X150547936Y-87615269D01*
X150568528Y-87563509D01*
X150587541Y-87519338D01*
X150600009Y-87493995D01*
X150616458Y-87457359D01*
X150618895Y-87435680D01*
X150609114Y-87431888D01*
X150588907Y-87448916D01*
X150579549Y-87460543D01*
X150557134Y-87489921D01*
X150539930Y-87511619D01*
X150539429Y-87512219D01*
X150527531Y-87533593D01*
X150526262Y-87540442D01*
X150517963Y-87556478D01*
X150516493Y-87557273D01*
X150499069Y-87573753D01*
X150476444Y-87605920D01*
X150453523Y-87645451D01*
X150435213Y-87684022D01*
X150427109Y-87708942D01*
X150412107Y-87747836D01*
X150387005Y-87785422D01*
X150384515Y-87788194D01*
X150345847Y-87834729D01*
X150304486Y-87891952D01*
X150268345Y-87948520D01*
X150252302Y-87977740D01*
X150230190Y-88012634D01*
X150200129Y-88049555D01*
X150194108Y-88055894D01*
X150164860Y-88090376D01*
X150142141Y-88125151D01*
X150139028Y-88131487D01*
X150120352Y-88160073D01*
X150102437Y-88165164D01*
X150088658Y-88146175D01*
X150086972Y-88140520D01*
X150073953Y-88121023D01*
X150060671Y-88121136D01*
X150035207Y-88119492D01*
X150002817Y-88104245D01*
X149972912Y-88081637D01*
X149954902Y-88057913D01*
X149953134Y-88049783D01*
X149946902Y-88025292D01*
X149940108Y-88017513D01*
X149927862Y-88000082D01*
X149939118Y-87975769D01*
X149949426Y-87964466D01*
X149966567Y-87938795D01*
X149985950Y-87897873D01*
X150003599Y-87851751D01*
X150015543Y-87810476D01*
X150018381Y-87790064D01*
X150023939Y-87767716D01*
X150038092Y-87731760D01*
X150050538Y-87704897D01*
X150074090Y-87647974D01*
X150082552Y-87604952D01*
X150075459Y-87578742D01*
X150071175Y-87575142D01*
X150056345Y-87579373D01*
X150036836Y-87599869D01*
X150035354Y-87601979D01*
X150007585Y-87637831D01*
X149982441Y-87665613D01*
X149962015Y-87688706D01*
X149953145Y-87704103D01*
X149953134Y-87704380D01*
X149946252Y-87720587D01*
X149929542Y-87747018D01*
X149928114Y-87749039D01*
X149908392Y-87780039D01*
X149883778Y-87823345D01*
X149857425Y-87872779D01*
X149832481Y-87922161D01*
X149812100Y-87965313D01*
X149799432Y-87996055D01*
X149796826Y-88006479D01*
X149786902Y-88025478D01*
X149766417Y-88043350D01*
X149736669Y-88070258D01*
X149719602Y-88093930D01*
X149699014Y-88118865D01*
X149665322Y-88147455D01*
X149646250Y-88160580D01*
X149608479Y-88188095D01*
X149577730Y-88216758D01*
X149568451Y-88228403D01*
X149550137Y-88249450D01*
X149534157Y-88248713D01*
X149530274Y-88245854D01*
X149519197Y-88222849D01*
X149520095Y-88204162D01*
X149521214Y-88184295D01*
X149508981Y-88183474D01*
X149494470Y-88197480D01*
X149493980Y-88204756D01*
X149489590Y-88218049D01*
X149469882Y-88215580D01*
X149439408Y-88198435D01*
X149426342Y-88188612D01*
X149405296Y-88170531D01*
X149395183Y-88154083D01*
X149394089Y-88130787D01*
X149400101Y-88092160D01*
X149402104Y-88081215D01*
X149409919Y-88030352D01*
X149409931Y-88003460D01*
X149401803Y-87999551D01*
X149385197Y-88017639D01*
X149381942Y-88022206D01*
X149356757Y-88054965D01*
X149331159Y-88084670D01*
X149311146Y-88108184D01*
X149301922Y-88122680D01*
X149301852Y-88123230D01*
X149294091Y-88135951D01*
X149273823Y-88162457D01*
X149247710Y-88194278D01*
X149207380Y-88234528D01*
X149170979Y-88256685D01*
X149141978Y-88259226D01*
X149127085Y-88247208D01*
X149110448Y-88240657D01*
X149089338Y-88241813D01*
X149061656Y-88239134D01*
X149033377Y-88217199D01*
X149023899Y-88206503D01*
X149002003Y-88177072D01*
X148989920Y-88154211D01*
X148989100Y-88150026D01*
X148988524Y-88130786D01*
X148987103Y-88092423D01*
X148985097Y-88041840D01*
X148984146Y-88018709D01*
X148982879Y-87954930D01*
X148985944Y-87908964D01*
X148994261Y-87872796D01*
X149003535Y-87849376D01*
X149019006Y-87805792D01*
X149027493Y-87763435D01*
X149028027Y-87754092D01*
X149033710Y-87715654D01*
X149047573Y-87670363D01*
X149053348Y-87656400D01*
X149053628Y-87655769D01*
X149312884Y-87655769D01*
X149320747Y-87659308D01*
X149333891Y-87652795D01*
X149718672Y-87652795D01*
X149725185Y-87659308D01*
X149731698Y-87652795D01*
X149725185Y-87646282D01*
X149718672Y-87652795D01*
X149333891Y-87652795D01*
X149341630Y-87648961D01*
X149353954Y-87633256D01*
X149361998Y-87613142D01*
X149360467Y-87607205D01*
X149359838Y-87597662D01*
X149366980Y-87581154D01*
X149377145Y-87559145D01*
X149374405Y-87556661D01*
X149360865Y-87571934D01*
X149338630Y-87603196D01*
X149335962Y-87607205D01*
X149316536Y-87639650D01*
X149312884Y-87655769D01*
X149053628Y-87655769D01*
X149073949Y-87610120D01*
X149094041Y-87564327D01*
X149098378Y-87554312D01*
X149116950Y-87523033D01*
X149148334Y-87481536D01*
X149186521Y-87437615D01*
X149196288Y-87427312D01*
X149236698Y-87387015D01*
X149266074Y-87362701D01*
X149290321Y-87350559D01*
X149315343Y-87346780D01*
X149321220Y-87346692D01*
X149364007Y-87352658D01*
X149410470Y-87367421D01*
X149419824Y-87371616D01*
X149471409Y-87396539D01*
X149503230Y-87342240D01*
X149531101Y-87302336D01*
X149568772Y-87257730D01*
X149594691Y-87231101D01*
X149629645Y-87199669D01*
X149654657Y-87183867D01*
X149677314Y-87180051D01*
X149695800Y-87182554D01*
X149734476Y-87197696D01*
X149770628Y-87222820D01*
X149771595Y-87223734D01*
X149791948Y-87246622D01*
X149800920Y-87270425D01*
X149801429Y-87305506D01*
X149799967Y-87324451D01*
X149793353Y-87372189D01*
X149781764Y-87431874D01*
X149767863Y-87489974D01*
X149754347Y-87540502D01*
X149742773Y-87583827D01*
X149735382Y-87611556D01*
X149734809Y-87613718D01*
X149734792Y-87625605D01*
X149745187Y-87617954D01*
X149763605Y-87593915D01*
X149787657Y-87556639D01*
X149814957Y-87509276D01*
X149817472Y-87504662D01*
X149845502Y-87460790D01*
X149884682Y-87409153D01*
X149927239Y-87359892D01*
X149933595Y-87353166D01*
X149978026Y-87309332D01*
X150014528Y-87280739D01*
X150051076Y-87261994D01*
X150085395Y-87250555D01*
X150140408Y-87236194D01*
X150178828Y-87231848D01*
X150208654Y-87238936D01*
X150237886Y-87258873D01*
X150263125Y-87282048D01*
X150295557Y-87316159D01*
X150312081Y-87343994D01*
X150317605Y-87374942D01*
X150317852Y-87386711D01*
X150319149Y-87419241D01*
X150325210Y-87431014D01*
X150339293Y-87427278D01*
X150342104Y-87425809D01*
X150359974Y-87408949D01*
X150385775Y-87375776D01*
X150414651Y-87332674D01*
X150421977Y-87320774D01*
X150477159Y-87243530D01*
X150547237Y-87166410D01*
X150624971Y-87096301D01*
X150703119Y-87040089D01*
X150737489Y-87020654D01*
X150788359Y-86998936D01*
X150829390Y-86989353D01*
X150856306Y-86992382D01*
G36*
X152720748Y-85523583D02*
X152739028Y-85551037D01*
X152740621Y-85562918D01*
X152748765Y-85583629D01*
X152759701Y-85588231D01*
X152778122Y-85597221D01*
X152794274Y-85617059D01*
X152800728Y-85637040D01*
X152798134Y-85643606D01*
X152793816Y-85658800D01*
X152788144Y-85693446D01*
X152782125Y-85741051D01*
X152780153Y-85759293D01*
X152767536Y-85840706D01*
X152745905Y-85911552D01*
X152724847Y-85959462D01*
X152686777Y-86032970D01*
X152646334Y-86102002D01*
X152607964Y-86159296D01*
X152584313Y-86188986D01*
X152548570Y-86229621D01*
X152512635Y-86272182D01*
X152470271Y-86324130D01*
X152444099Y-86356744D01*
X152405405Y-86403568D01*
X152366009Y-86448703D01*
X152333721Y-86483234D01*
X152330561Y-86486373D01*
X152303783Y-86515847D01*
X152287273Y-86540197D01*
X152284724Y-86548245D01*
X152276756Y-86563819D01*
X152271698Y-86565154D01*
X152261079Y-86576052D01*
X152258672Y-86590940D01*
X152271666Y-86616576D01*
X152310562Y-86643183D01*
X152313215Y-86644552D01*
X152350169Y-86665242D01*
X152378941Y-86684545D01*
X152385786Y-86690407D01*
X152405200Y-86705478D01*
X152413404Y-86708436D01*
X152426605Y-86720068D01*
X152441495Y-86750082D01*
X152455528Y-86791157D01*
X152466157Y-86835969D01*
X152470698Y-86873191D01*
X152474765Y-86909246D01*
X152481927Y-86931151D01*
X152486621Y-86934399D01*
X152500207Y-86922607D01*
X152518898Y-86895332D01*
X152526219Y-86882296D01*
X152563311Y-86813025D01*
X152591584Y-86762200D01*
X152613940Y-86725001D01*
X152633282Y-86696609D01*
X152652513Y-86672204D01*
X152653383Y-86671169D01*
X152682892Y-86630687D01*
X152711272Y-86583406D01*
X152718037Y-86570220D01*
X152736949Y-86536953D01*
X152753960Y-86516339D01*
X152760433Y-86513051D01*
X152773459Y-86502129D01*
X152791475Y-86474013D01*
X152804411Y-86448095D01*
X152827170Y-86406042D01*
X152852629Y-86370890D01*
X152865348Y-86358297D01*
X152887659Y-86337159D01*
X152896929Y-86321249D01*
X152907190Y-86306817D01*
X152928899Y-86291933D01*
X152950040Y-86273936D01*
X152979377Y-86240997D01*
X153011356Y-86200305D01*
X153040426Y-86159046D01*
X153061035Y-86124409D01*
X153064987Y-86115769D01*
X153077172Y-86097582D01*
X153097551Y-86074139D01*
X153139943Y-86029036D01*
X153169008Y-85995914D01*
X153190004Y-85968494D01*
X153204531Y-85946436D01*
X153251574Y-85880002D01*
X153297397Y-85832386D01*
X153339864Y-85805091D01*
X153376841Y-85799622D01*
X153398585Y-85809807D01*
X153415014Y-85831398D01*
X153417954Y-85842739D01*
X153427571Y-85861800D01*
X153450312Y-85883478D01*
X153482670Y-85907359D01*
X153444712Y-85986673D01*
X153420211Y-86031048D01*
X153394091Y-86067852D01*
X153374392Y-86087192D01*
X153352256Y-86107710D01*
X153321870Y-86143614D01*
X153288788Y-86188193D01*
X153279044Y-86202440D01*
X153235958Y-86265549D01*
X153201677Y-86312340D01*
X153171480Y-86348764D01*
X153140647Y-86380770D01*
X153128134Y-86392683D01*
X153104601Y-86419183D01*
X153092677Y-86441408D01*
X153092313Y-86444332D01*
X153086498Y-86456837D01*
X153081530Y-86455822D01*
X153068881Y-86461577D01*
X153046480Y-86481726D01*
X153020155Y-86509784D01*
X152995734Y-86539265D01*
X152979044Y-86563684D01*
X152975083Y-86574271D01*
X152965298Y-86588728D01*
X152949270Y-86601058D01*
X152928817Y-86621606D01*
X152904725Y-86656536D01*
X152891259Y-86680720D01*
X152870033Y-86717536D01*
X152850155Y-86743738D01*
X152840588Y-86751350D01*
X152824149Y-86766520D01*
X152803520Y-86796906D01*
X152793752Y-86814848D01*
X152774478Y-86852542D01*
X152758559Y-86882588D01*
X152753963Y-86890795D01*
X152743765Y-86910898D01*
X152726075Y-86948285D01*
X152703956Y-86996425D01*
X152692838Y-87021051D01*
X152667351Y-87074280D01*
X152641789Y-87121741D01*
X152620345Y-87155849D01*
X152613727Y-87164200D01*
X152593111Y-87187935D01*
X152584464Y-87203631D01*
X152590697Y-87212804D01*
X152614723Y-87216965D01*
X152659454Y-87217628D01*
X152714570Y-87216603D01*
X152775602Y-87211731D01*
X152822535Y-87197298D01*
X152866459Y-87168784D01*
X152896714Y-87142358D01*
X152927199Y-87118774D01*
X152955114Y-87104210D01*
X152955544Y-87104077D01*
X152986030Y-87089342D01*
X153007647Y-87073942D01*
X153035730Y-87055678D01*
X153079956Y-87032826D01*
X153131824Y-87009242D01*
X153182830Y-86988780D01*
X153224475Y-86975297D01*
X153225993Y-86974916D01*
X153292340Y-86970537D01*
X153359188Y-86986513D01*
X153416128Y-87020178D01*
X153421469Y-87024968D01*
X153450334Y-87055386D01*
X153470660Y-87082860D01*
X153474642Y-87090903D01*
X153485059Y-87107248D01*
X153501361Y-87100233D01*
X153502868Y-87099000D01*
X153528393Y-87087903D01*
X153565547Y-87081809D01*
X153571414Y-87081549D01*
X153609352Y-87085404D01*
X153640487Y-87103088D01*
X153660654Y-87122298D01*
X153688669Y-87146498D01*
X153719497Y-87160116D01*
X153758010Y-87163309D01*
X153809078Y-87156229D01*
X153877573Y-87139034D01*
X153908215Y-87130165D01*
X153998170Y-87104719D01*
X154079106Y-87084103D01*
X154146474Y-87069366D01*
X154195724Y-87061556D01*
X154210348Y-87060586D01*
X154237163Y-87069676D01*
X154270136Y-87092835D01*
X154301574Y-87122944D01*
X154323780Y-87152880D01*
X154329749Y-87171083D01*
X154337268Y-87188258D01*
X154343544Y-87190385D01*
X154351607Y-87198229D01*
X154349867Y-87202472D01*
X154353733Y-87215616D01*
X154365421Y-87221868D01*
X154381737Y-87237525D01*
X154399274Y-87269030D01*
X154413722Y-87306775D01*
X154420775Y-87341151D01*
X154420929Y-87345674D01*
X154410421Y-87358337D01*
X154383399Y-87377659D01*
X154359057Y-87392011D01*
X154305969Y-87430107D01*
X154260383Y-87479175D01*
X154229333Y-87531011D01*
X154222349Y-87551504D01*
X154219015Y-87570744D01*
X154227041Y-87572821D01*
X154249648Y-87561187D01*
X154306443Y-87524602D01*
X154357683Y-87483048D01*
X154385644Y-87454154D01*
X154407222Y-87432940D01*
X154422938Y-87424846D01*
X154439620Y-87417147D01*
X154468567Y-87397339D01*
X154491719Y-87379256D01*
X154524072Y-87354074D01*
X154548451Y-87337517D01*
X154557029Y-87333667D01*
X154573403Y-87326802D01*
X154599812Y-87310179D01*
X154601277Y-87309146D01*
X154641918Y-87289139D01*
X154697170Y-87272740D01*
X154756053Y-87262243D01*
X154807593Y-87259941D01*
X154825766Y-87262254D01*
X154862730Y-87281016D01*
X154877876Y-87305565D01*
X154892096Y-87341796D01*
X154902877Y-87366231D01*
X154916807Y-87398350D01*
X154928740Y-87429161D01*
X154942712Y-87450994D01*
X154959293Y-87459863D01*
X154970652Y-87454031D01*
X154970939Y-87438532D01*
X154974766Y-87428770D01*
X154979658Y-87430510D01*
X154997470Y-87428657D01*
X155011615Y-87418453D01*
X155030742Y-87402560D01*
X155039099Y-87398795D01*
X155053030Y-87391087D01*
X155083480Y-87369802D01*
X155126674Y-87337700D01*
X155178839Y-87297540D01*
X155195954Y-87284112D01*
X155242572Y-87257262D01*
X155306424Y-87233410D01*
X155379008Y-87214475D01*
X155451822Y-87202376D01*
X155516364Y-87199033D01*
X155553826Y-87203331D01*
X155580822Y-87219406D01*
X155612563Y-87251988D01*
X155644075Y-87293879D01*
X155670384Y-87337881D01*
X155686518Y-87376795D01*
X155688873Y-87398795D01*
X155679340Y-87438343D01*
X155664440Y-87483446D01*
X155647584Y-87525193D01*
X155632183Y-87554669D01*
X155626568Y-87561615D01*
X155608218Y-87580901D01*
X155581807Y-87612009D01*
X155552042Y-87648940D01*
X155523632Y-87685696D01*
X155501283Y-87716278D01*
X155489703Y-87734687D01*
X155489031Y-87736875D01*
X155481896Y-87751045D01*
X155463165Y-87780350D01*
X155436845Y-87819069D01*
X155406945Y-87861478D01*
X155377474Y-87901853D01*
X155352441Y-87934471D01*
X155341126Y-87948043D01*
X155328914Y-87967989D01*
X155329467Y-87977350D01*
X155327100Y-87984368D01*
X155321869Y-87984949D01*
X155309106Y-87995708D01*
X155306672Y-88008395D01*
X155295853Y-88041172D01*
X155263795Y-88059324D01*
X155228808Y-88063103D01*
X155185109Y-88055862D01*
X155158479Y-88032368D01*
X155146922Y-87989964D01*
X155146435Y-87953393D01*
X155149932Y-87911365D01*
X155155514Y-87878176D01*
X155158478Y-87868726D01*
X155167117Y-87845814D01*
X155168778Y-87838833D01*
X155177291Y-87822632D01*
X155190276Y-87805692D01*
X155210336Y-87777162D01*
X155219175Y-87759680D01*
X155232022Y-87740840D01*
X155239613Y-87737462D01*
X155250452Y-87727287D01*
X155269836Y-87701301D01*
X155293385Y-87666312D01*
X155316719Y-87629128D01*
X155335457Y-87596555D01*
X155345220Y-87575403D01*
X155345749Y-87572506D01*
X155353096Y-87556490D01*
X155369940Y-87535151D01*
X155388484Y-87517039D01*
X155400936Y-87510703D01*
X155401675Y-87511165D01*
X155411167Y-87506001D01*
X155425443Y-87485418D01*
X155439609Y-87458183D01*
X155448769Y-87433063D01*
X155449954Y-87424690D01*
X155439309Y-87416051D01*
X155412564Y-87416312D01*
X155377508Y-87423979D01*
X155341929Y-87437555D01*
X155321479Y-87449352D01*
X155288362Y-87469411D01*
X155260645Y-87481736D01*
X155238332Y-87494832D01*
X155205420Y-87521233D01*
X155169465Y-87554802D01*
X155136017Y-87587005D01*
X155109278Y-87610311D01*
X155094779Y-87619913D01*
X155094456Y-87619947D01*
X155076152Y-87627532D01*
X155068405Y-87633060D01*
X155048566Y-87649100D01*
X155018747Y-87673075D01*
X155010083Y-87680023D01*
X154984244Y-87705967D01*
X154971326Y-87729406D01*
X154971006Y-87735057D01*
X154962342Y-87755550D01*
X154935441Y-87773438D01*
X154894278Y-87792503D01*
X154871642Y-87805322D01*
X154861946Y-87815501D01*
X154859972Y-87822128D01*
X154848777Y-87839468D01*
X154821895Y-87867152D01*
X154784944Y-87900527D01*
X154743541Y-87934942D01*
X154703301Y-87965744D01*
X154669841Y-87988281D01*
X154648779Y-87997901D01*
X154647676Y-87997974D01*
X154626438Y-87987490D01*
X154621373Y-87979346D01*
X154604751Y-87961875D01*
X154577474Y-87947906D01*
X154545325Y-87926229D01*
X154531926Y-87895043D01*
X154522224Y-87864671D01*
X154511181Y-87847607D01*
X154511106Y-87847560D01*
X154498808Y-87826120D01*
X154499947Y-87790955D01*
X154512346Y-87749193D01*
X154533828Y-87707962D01*
X154562216Y-87674392D01*
X154564621Y-87672333D01*
X154575710Y-87658747D01*
X154596205Y-87630437D01*
X154614634Y-87603815D01*
X154638290Y-87562387D01*
X154643076Y-87537980D01*
X154630831Y-87531812D01*
X154603396Y-87545101D01*
X154568662Y-87573385D01*
X154507750Y-87627440D01*
X154453367Y-87669856D01*
X154394877Y-87708594D01*
X154360222Y-87729390D01*
X154319397Y-87755465D01*
X154288069Y-87779465D01*
X154272856Y-87796306D01*
X154272724Y-87796629D01*
X154257756Y-87811517D01*
X154225148Y-87832538D01*
X154181264Y-87855703D01*
X154169886Y-87861081D01*
X154121393Y-87885418D01*
X154079850Y-87909720D01*
X154053097Y-87929334D01*
X154050535Y-87931921D01*
X154030963Y-87951097D01*
X154013717Y-87956633D01*
X153990910Y-87947990D01*
X153955840Y-87925424D01*
X153915881Y-87893473D01*
X153891392Y-87858808D01*
X153879221Y-87814174D01*
X153876216Y-87752315D01*
X153876338Y-87742428D01*
X153878895Y-87689895D01*
X153886112Y-87653686D01*
X153900577Y-87624158D01*
X153912611Y-87607205D01*
X153939282Y-87567350D01*
X153961097Y-87526716D01*
X153964287Y-87519282D01*
X153978507Y-87491060D01*
X153991229Y-87477231D01*
X153992663Y-87476949D01*
X154002967Y-87466445D01*
X154004108Y-87458390D01*
X154012981Y-87439871D01*
X154035911Y-87411313D01*
X154059120Y-87387487D01*
X154087207Y-87358261D01*
X154103842Y-87335946D01*
X154105887Y-87326899D01*
X154090669Y-87327438D01*
X154058561Y-87336706D01*
X154016419Y-87352711D01*
X154015055Y-87353282D01*
X153945273Y-87376691D01*
X153871614Y-87391594D01*
X153801337Y-87397302D01*
X153741697Y-87393126D01*
X153707200Y-87382546D01*
X153677323Y-87371437D01*
X153657164Y-87370619D01*
X153656210Y-87371151D01*
X153644158Y-87385635D01*
X153623265Y-87416438D01*
X153597729Y-87457325D01*
X153593769Y-87463923D01*
X153565886Y-87508243D01*
X153539801Y-87545651D01*
X153520806Y-87568596D01*
X153519667Y-87569656D01*
X153501126Y-87594134D01*
X153496108Y-87611248D01*
X153488088Y-87630119D01*
X153466735Y-87662431D01*
X153436109Y-87702230D01*
X153424612Y-87716049D01*
X153373439Y-87770757D01*
X153328067Y-87806162D01*
X153295193Y-87822445D01*
X153259459Y-87839061D01*
X153235325Y-87855796D01*
X153230486Y-87862243D01*
X153214902Y-87878244D01*
X153184644Y-87895970D01*
X153175335Y-87900130D01*
X153138830Y-87920150D01*
X153111105Y-87943478D01*
X153107914Y-87947541D01*
X153075573Y-87976735D01*
X153026826Y-88001851D01*
X152971317Y-88018802D01*
X152928109Y-88023740D01*
X152887975Y-88019237D01*
X152849717Y-88002445D01*
X152813448Y-87977315D01*
X152742973Y-87919991D01*
X152693231Y-87869357D01*
X152661719Y-87820321D01*
X152645933Y-87767794D01*
X152645205Y-87750415D01*
X152845619Y-87750415D01*
X152851120Y-87775789D01*
X152869823Y-87799454D01*
X152897195Y-87813794D01*
X152907991Y-87815201D01*
X152927267Y-87809021D01*
X152961362Y-87792378D01*
X153003113Y-87768789D01*
X153005683Y-87767243D01*
X153054471Y-87734046D01*
X153109678Y-87690415D01*
X153167741Y-87639891D01*
X153225096Y-87586014D01*
X153278179Y-87532324D01*
X153323425Y-87482360D01*
X153357272Y-87439664D01*
X153376155Y-87407775D01*
X153378877Y-87396556D01*
X153385925Y-87373015D01*
X153399713Y-87348793D01*
X153413062Y-87324423D01*
X153409117Y-87306203D01*
X153402232Y-87297049D01*
X153383597Y-87268765D01*
X153367830Y-87237432D01*
X153357748Y-87216823D01*
X153345238Y-87206383D01*
X153322973Y-87203844D01*
X153283629Y-87206940D01*
X153272919Y-87208051D01*
X153224208Y-87216096D01*
X153174698Y-87229051D01*
X153130502Y-87244657D01*
X153097734Y-87260652D01*
X153082509Y-87274778D01*
X153082331Y-87278504D01*
X153076006Y-87293629D01*
X153056010Y-87318973D01*
X153043467Y-87332247D01*
X153017955Y-87361498D01*
X153002877Y-87385814D01*
X153001134Y-87392637D01*
X152991249Y-87414909D01*
X152984100Y-87420942D01*
X152967453Y-87440599D01*
X152946384Y-87478525D01*
X152923660Y-87527951D01*
X152902047Y-87582106D01*
X152884310Y-87634221D01*
X152873217Y-87677523D01*
X152870877Y-87698071D01*
X152864791Y-87722817D01*
X152857852Y-87730949D01*
X152845619Y-87750415D01*
X152645205Y-87750415D01*
X152643370Y-87706685D01*
X152649694Y-87644361D01*
X152658461Y-87588742D01*
X152668265Y-87535963D01*
X152676744Y-87498429D01*
X152684149Y-87465662D01*
X152686060Y-87445536D01*
X152685329Y-87443366D01*
X152670168Y-87438706D01*
X152637442Y-87432718D01*
X152595398Y-87426498D01*
X152552281Y-87421144D01*
X152516338Y-87417752D01*
X152495814Y-87417419D01*
X152494085Y-87417925D01*
X152483891Y-87432527D01*
X152465785Y-87466128D01*
X152442249Y-87513842D01*
X152415770Y-87570780D01*
X152411097Y-87581154D01*
X152395943Y-87617935D01*
X152377116Y-87667665D01*
X152361543Y-87711410D01*
X152344772Y-87757047D01*
X152329189Y-87794163D01*
X152318540Y-87814124D01*
X152305796Y-87837735D01*
X152303714Y-87846688D01*
X152298412Y-87871440D01*
X152295236Y-87880744D01*
X152287507Y-87904819D01*
X152276927Y-87942416D01*
X152272584Y-87958897D01*
X152260692Y-88000583D01*
X152248897Y-88035192D01*
X152245401Y-88043564D01*
X152236560Y-88068182D01*
X152223965Y-88110035D01*
X152210019Y-88161042D01*
X152206872Y-88173223D01*
X152193189Y-88222806D01*
X152180292Y-88262704D01*
X152170461Y-88286042D01*
X152168574Y-88288668D01*
X152149777Y-88294544D01*
X152133894Y-88280719D01*
X152128416Y-88257718D01*
X152124256Y-88236287D01*
X152109964Y-88236434D01*
X152086972Y-88254117D01*
X152069090Y-88267247D01*
X152053654Y-88264788D01*
X152030587Y-88245333D01*
X152007066Y-88215878D01*
X152000134Y-88183120D01*
X152009523Y-88140556D01*
X152024746Y-88103456D01*
X152040060Y-88059501D01*
X152043426Y-88025024D01*
X152042181Y-88019086D01*
X152032440Y-87960099D01*
X152034620Y-87891913D01*
X152047338Y-87824914D01*
X152069208Y-87769489D01*
X152077110Y-87757000D01*
X152084169Y-87739227D01*
X152095256Y-87702527D01*
X152108489Y-87653345D01*
X152115162Y-87626744D01*
X152131653Y-87562737D01*
X152149829Y-87497341D01*
X152166365Y-87442411D01*
X152169968Y-87431359D01*
X152191218Y-87366361D01*
X152204165Y-87320973D01*
X152209180Y-87290240D01*
X152206632Y-87269207D01*
X152196890Y-87252918D01*
X152184239Y-87240041D01*
X152154280Y-87205478D01*
X152132151Y-87170846D01*
X152109901Y-87136919D01*
X152078513Y-87099810D01*
X152068260Y-87089464D01*
X152041888Y-87060216D01*
X152026154Y-87035197D01*
X152024211Y-87027593D01*
X152018791Y-87009405D01*
X152005821Y-87011445D01*
X151990234Y-87031075D01*
X151981621Y-87050359D01*
X151972073Y-87081416D01*
X151968938Y-87100983D01*
X151969118Y-87101996D01*
X151964483Y-87117419D01*
X151949402Y-87150848D01*
X151926323Y-87197650D01*
X151897694Y-87253197D01*
X151865963Y-87312855D01*
X151833580Y-87371995D01*
X151802993Y-87425986D01*
X151776650Y-87470196D01*
X151763984Y-87489974D01*
X151743698Y-87525444D01*
X151724738Y-87566226D01*
X151724197Y-87567569D01*
X151706584Y-87603532D01*
X151687700Y-87631011D01*
X151686002Y-87632799D01*
X151673194Y-87651631D01*
X151651155Y-87690610D01*
X151621652Y-87746263D01*
X151586453Y-87815120D01*
X151547325Y-87893712D01*
X151506035Y-87978568D01*
X151464349Y-88066217D01*
X151453609Y-88089154D01*
X151418950Y-88170003D01*
X151387538Y-88255536D01*
X151361382Y-88339177D01*
X151342496Y-88414348D01*
X151332891Y-88474475D01*
X151332182Y-88486161D01*
X151330111Y-88526400D01*
X151323306Y-88548330D01*
X151305905Y-88556025D01*
X151272046Y-88553565D01*
X151241852Y-88548982D01*
X151207554Y-88534786D01*
X151184118Y-88503153D01*
X151170686Y-88451846D01*
X151166397Y-88378629D01*
X151166725Y-88353599D01*
X151179340Y-88237761D01*
X151209655Y-88117212D01*
X151254644Y-88003026D01*
X151271472Y-87969959D01*
X151357177Y-87810528D01*
X151442271Y-87649448D01*
X151464354Y-87607226D01*
X151495395Y-87549806D01*
X151525270Y-87498106D01*
X151550329Y-87458243D01*
X151565424Y-87437892D01*
X151581587Y-87415074D01*
X151606417Y-87373840D01*
X151637089Y-87319152D01*
X151670778Y-87255974D01*
X151687772Y-87222949D01*
X151727224Y-87143235D01*
X151754887Y-87081974D01*
X151772305Y-87035240D01*
X151781026Y-86999107D01*
X151782689Y-86981974D01*
X151786737Y-86949269D01*
X151798065Y-86914994D01*
X151819352Y-86873111D01*
X151853273Y-86817581D01*
X151860632Y-86806128D01*
X151892396Y-86757514D01*
X151919279Y-86717447D01*
X151937988Y-86690767D01*
X151944764Y-86682385D01*
X151955328Y-86669316D01*
X151976558Y-86639768D01*
X152004734Y-86598980D01*
X152019841Y-86576639D01*
X152053219Y-86523456D01*
X152072696Y-86484500D01*
X152076962Y-86462461D01*
X152076266Y-86460872D01*
X152064040Y-86453305D01*
X152044121Y-86465029D01*
X152036857Y-86471532D01*
X152003680Y-86496739D01*
X151965631Y-86518674D01*
X151931676Y-86538404D01*
X151906687Y-86559031D01*
X151905770Y-86560098D01*
X151878821Y-86581293D01*
X151833365Y-86605522D01*
X151775114Y-86630840D01*
X151709783Y-86655301D01*
X151643082Y-86676960D01*
X151580724Y-86693870D01*
X151528421Y-86704087D01*
X151491886Y-86705665D01*
X151483854Y-86703805D01*
X151468946Y-86685646D01*
X151464108Y-86656742D01*
X151458601Y-86625829D01*
X151444150Y-86617256D01*
X151423823Y-86605680D01*
X151410292Y-86576193D01*
X151406559Y-86536660D01*
X151408006Y-86522646D01*
X151429041Y-86452697D01*
X151448170Y-86421024D01*
X152105558Y-86421024D01*
X152107340Y-86421872D01*
X152119227Y-86412702D01*
X152121903Y-86408846D01*
X152125222Y-86396669D01*
X152123440Y-86395820D01*
X152111553Y-86404990D01*
X152108877Y-86408846D01*
X152105558Y-86421024D01*
X151448170Y-86421024D01*
X151471217Y-86382867D01*
X151476116Y-86377409D01*
X151750672Y-86377409D01*
X151754367Y-86382132D01*
X151768431Y-86377514D01*
X151797334Y-86361648D01*
X151821782Y-86347069D01*
X151860466Y-86321126D01*
X151879680Y-86302361D01*
X151877824Y-86292595D01*
X151870469Y-86291615D01*
X151855479Y-86298566D01*
X151828557Y-86315768D01*
X151797348Y-86337749D01*
X151769493Y-86359034D01*
X151752636Y-86374150D01*
X151750672Y-86377409D01*
X151476116Y-86377409D01*
X151536372Y-86310289D01*
X151556210Y-86291615D01*
X151607623Y-86244215D01*
X151924508Y-86244215D01*
X151929256Y-86247177D01*
X151952329Y-86235575D01*
X151954945Y-86234153D01*
X151980109Y-86216754D01*
X152017891Y-86186224D01*
X152062229Y-86147589D01*
X152089339Y-86122719D01*
X152144202Y-86073411D01*
X152186178Y-86042459D01*
X152219813Y-86028860D01*
X152249655Y-86031613D01*
X152280252Y-86049716D01*
X152308249Y-86074502D01*
X152351314Y-86115769D01*
X152408042Y-86050641D01*
X152459613Y-85984264D01*
X152500276Y-85917563D01*
X152528264Y-85854797D01*
X152541812Y-85800225D01*
X152539156Y-85758108D01*
X152533931Y-85746876D01*
X152516111Y-85741439D01*
X152482136Y-85749825D01*
X152436168Y-85769556D01*
X152382370Y-85798150D01*
X152324905Y-85833128D01*
X152267936Y-85872009D01*
X152215626Y-85912312D01*
X152172137Y-85951558D01*
X152150622Y-85975264D01*
X152130507Y-85998335D01*
X152098437Y-86033250D01*
X152060666Y-86073225D01*
X152052929Y-86081279D01*
X152009081Y-86127175D01*
X151979329Y-86159674D01*
X151959438Y-86183884D01*
X151945171Y-86204918D01*
X151933912Y-86224841D01*
X151924508Y-86244215D01*
X151607623Y-86244215D01*
X151627315Y-86226061D01*
X151683817Y-86172654D01*
X151730715Y-86126386D01*
X151773010Y-86082249D01*
X151815703Y-86035235D01*
X151841852Y-86005553D01*
X151911319Y-85928836D01*
X151983928Y-85853492D01*
X152055353Y-85783682D01*
X152121265Y-85723565D01*
X152177337Y-85677300D01*
X152201444Y-85659913D01*
X152280653Y-85612506D01*
X152363560Y-85572688D01*
X152443625Y-85543026D01*
X152514311Y-85526089D01*
X152549755Y-85523103D01*
X152596614Y-85520917D01*
X152637345Y-85515331D01*
X152653526Y-85511000D01*
X152689226Y-85508437D01*
X152720748Y-85523583D01*
X152720748Y-85523583D01*
G37*
X152720748Y-85523583D02*
X152739028Y-85551037D01*
X152740621Y-85562918D01*
X152748765Y-85583629D01*
X152759701Y-85588231D01*
X152778122Y-85597221D01*
X152794274Y-85617059D01*
X152800728Y-85637040D01*
X152798134Y-85643606D01*
X152793816Y-85658800D01*
X152788144Y-85693446D01*
X152782125Y-85741051D01*
X152780153Y-85759293D01*
X152767536Y-85840706D01*
X152745905Y-85911552D01*
X152724847Y-85959462D01*
X152686777Y-86032970D01*
X152646334Y-86102002D01*
X152607964Y-86159296D01*
X152584313Y-86188986D01*
X152548570Y-86229621D01*
X152512635Y-86272182D01*
X152470271Y-86324130D01*
X152444099Y-86356744D01*
X152405405Y-86403568D01*
X152366009Y-86448703D01*
X152333721Y-86483234D01*
X152330561Y-86486373D01*
X152303783Y-86515847D01*
X152287273Y-86540197D01*
X152284724Y-86548245D01*
X152276756Y-86563819D01*
X152271698Y-86565154D01*
X152261079Y-86576052D01*
X152258672Y-86590940D01*
X152271666Y-86616576D01*
X152310562Y-86643183D01*
X152313215Y-86644552D01*
X152350169Y-86665242D01*
X152378941Y-86684545D01*
X152385786Y-86690407D01*
X152405200Y-86705478D01*
X152413404Y-86708436D01*
X152426605Y-86720068D01*
X152441495Y-86750082D01*
X152455528Y-86791157D01*
X152466157Y-86835969D01*
X152470698Y-86873191D01*
X152474765Y-86909246D01*
X152481927Y-86931151D01*
X152486621Y-86934399D01*
X152500207Y-86922607D01*
X152518898Y-86895332D01*
X152526219Y-86882296D01*
X152563311Y-86813025D01*
X152591584Y-86762200D01*
X152613940Y-86725001D01*
X152633282Y-86696609D01*
X152652513Y-86672204D01*
X152653383Y-86671169D01*
X152682892Y-86630687D01*
X152711272Y-86583406D01*
X152718037Y-86570220D01*
X152736949Y-86536953D01*
X152753960Y-86516339D01*
X152760433Y-86513051D01*
X152773459Y-86502129D01*
X152791475Y-86474013D01*
X152804411Y-86448095D01*
X152827170Y-86406042D01*
X152852629Y-86370890D01*
X152865348Y-86358297D01*
X152887659Y-86337159D01*
X152896929Y-86321249D01*
X152907190Y-86306817D01*
X152928899Y-86291933D01*
X152950040Y-86273936D01*
X152979377Y-86240997D01*
X153011356Y-86200305D01*
X153040426Y-86159046D01*
X153061035Y-86124409D01*
X153064987Y-86115769D01*
X153077172Y-86097582D01*
X153097551Y-86074139D01*
X153139943Y-86029036D01*
X153169008Y-85995914D01*
X153190004Y-85968494D01*
X153204531Y-85946436D01*
X153251574Y-85880002D01*
X153297397Y-85832386D01*
X153339864Y-85805091D01*
X153376841Y-85799622D01*
X153398585Y-85809807D01*
X153415014Y-85831398D01*
X153417954Y-85842739D01*
X153427571Y-85861800D01*
X153450312Y-85883478D01*
X153482670Y-85907359D01*
X153444712Y-85986673D01*
X153420211Y-86031048D01*
X153394091Y-86067852D01*
X153374392Y-86087192D01*
X153352256Y-86107710D01*
X153321870Y-86143614D01*
X153288788Y-86188193D01*
X153279044Y-86202440D01*
X153235958Y-86265549D01*
X153201677Y-86312340D01*
X153171480Y-86348764D01*
X153140647Y-86380770D01*
X153128134Y-86392683D01*
X153104601Y-86419183D01*
X153092677Y-86441408D01*
X153092313Y-86444332D01*
X153086498Y-86456837D01*
X153081530Y-86455822D01*
X153068881Y-86461577D01*
X153046480Y-86481726D01*
X153020155Y-86509784D01*
X152995734Y-86539265D01*
X152979044Y-86563684D01*
X152975083Y-86574271D01*
X152965298Y-86588728D01*
X152949270Y-86601058D01*
X152928817Y-86621606D01*
X152904725Y-86656536D01*
X152891259Y-86680720D01*
X152870033Y-86717536D01*
X152850155Y-86743738D01*
X152840588Y-86751350D01*
X152824149Y-86766520D01*
X152803520Y-86796906D01*
X152793752Y-86814848D01*
X152774478Y-86852542D01*
X152758559Y-86882588D01*
X152753963Y-86890795D01*
X152743765Y-86910898D01*
X152726075Y-86948285D01*
X152703956Y-86996425D01*
X152692838Y-87021051D01*
X152667351Y-87074280D01*
X152641789Y-87121741D01*
X152620345Y-87155849D01*
X152613727Y-87164200D01*
X152593111Y-87187935D01*
X152584464Y-87203631D01*
X152590697Y-87212804D01*
X152614723Y-87216965D01*
X152659454Y-87217628D01*
X152714570Y-87216603D01*
X152775602Y-87211731D01*
X152822535Y-87197298D01*
X152866459Y-87168784D01*
X152896714Y-87142358D01*
X152927199Y-87118774D01*
X152955114Y-87104210D01*
X152955544Y-87104077D01*
X152986030Y-87089342D01*
X153007647Y-87073942D01*
X153035730Y-87055678D01*
X153079956Y-87032826D01*
X153131824Y-87009242D01*
X153182830Y-86988780D01*
X153224475Y-86975297D01*
X153225993Y-86974916D01*
X153292340Y-86970537D01*
X153359188Y-86986513D01*
X153416128Y-87020178D01*
X153421469Y-87024968D01*
X153450334Y-87055386D01*
X153470660Y-87082860D01*
X153474642Y-87090903D01*
X153485059Y-87107248D01*
X153501361Y-87100233D01*
X153502868Y-87099000D01*
X153528393Y-87087903D01*
X153565547Y-87081809D01*
X153571414Y-87081549D01*
X153609352Y-87085404D01*
X153640487Y-87103088D01*
X153660654Y-87122298D01*
X153688669Y-87146498D01*
X153719497Y-87160116D01*
X153758010Y-87163309D01*
X153809078Y-87156229D01*
X153877573Y-87139034D01*
X153908215Y-87130165D01*
X153998170Y-87104719D01*
X154079106Y-87084103D01*
X154146474Y-87069366D01*
X154195724Y-87061556D01*
X154210348Y-87060586D01*
X154237163Y-87069676D01*
X154270136Y-87092835D01*
X154301574Y-87122944D01*
X154323780Y-87152880D01*
X154329749Y-87171083D01*
X154337268Y-87188258D01*
X154343544Y-87190385D01*
X154351607Y-87198229D01*
X154349867Y-87202472D01*
X154353733Y-87215616D01*
X154365421Y-87221868D01*
X154381737Y-87237525D01*
X154399274Y-87269030D01*
X154413722Y-87306775D01*
X154420775Y-87341151D01*
X154420929Y-87345674D01*
X154410421Y-87358337D01*
X154383399Y-87377659D01*
X154359057Y-87392011D01*
X154305969Y-87430107D01*
X154260383Y-87479175D01*
X154229333Y-87531011D01*
X154222349Y-87551504D01*
X154219015Y-87570744D01*
X154227041Y-87572821D01*
X154249648Y-87561187D01*
X154306443Y-87524602D01*
X154357683Y-87483048D01*
X154385644Y-87454154D01*
X154407222Y-87432940D01*
X154422938Y-87424846D01*
X154439620Y-87417147D01*
X154468567Y-87397339D01*
X154491719Y-87379256D01*
X154524072Y-87354074D01*
X154548451Y-87337517D01*
X154557029Y-87333667D01*
X154573403Y-87326802D01*
X154599812Y-87310179D01*
X154601277Y-87309146D01*
X154641918Y-87289139D01*
X154697170Y-87272740D01*
X154756053Y-87262243D01*
X154807593Y-87259941D01*
X154825766Y-87262254D01*
X154862730Y-87281016D01*
X154877876Y-87305565D01*
X154892096Y-87341796D01*
X154902877Y-87366231D01*
X154916807Y-87398350D01*
X154928740Y-87429161D01*
X154942712Y-87450994D01*
X154959293Y-87459863D01*
X154970652Y-87454031D01*
X154970939Y-87438532D01*
X154974766Y-87428770D01*
X154979658Y-87430510D01*
X154997470Y-87428657D01*
X155011615Y-87418453D01*
X155030742Y-87402560D01*
X155039099Y-87398795D01*
X155053030Y-87391087D01*
X155083480Y-87369802D01*
X155126674Y-87337700D01*
X155178839Y-87297540D01*
X155195954Y-87284112D01*
X155242572Y-87257262D01*
X155306424Y-87233410D01*
X155379008Y-87214475D01*
X155451822Y-87202376D01*
X155516364Y-87199033D01*
X155553826Y-87203331D01*
X155580822Y-87219406D01*
X155612563Y-87251988D01*
X155644075Y-87293879D01*
X155670384Y-87337881D01*
X155686518Y-87376795D01*
X155688873Y-87398795D01*
X155679340Y-87438343D01*
X155664440Y-87483446D01*
X155647584Y-87525193D01*
X155632183Y-87554669D01*
X155626568Y-87561615D01*
X155608218Y-87580901D01*
X155581807Y-87612009D01*
X155552042Y-87648940D01*
X155523632Y-87685696D01*
X155501283Y-87716278D01*
X155489703Y-87734687D01*
X155489031Y-87736875D01*
X155481896Y-87751045D01*
X155463165Y-87780350D01*
X155436845Y-87819069D01*
X155406945Y-87861478D01*
X155377474Y-87901853D01*
X155352441Y-87934471D01*
X155341126Y-87948043D01*
X155328914Y-87967989D01*
X155329467Y-87977350D01*
X155327100Y-87984368D01*
X155321869Y-87984949D01*
X155309106Y-87995708D01*
X155306672Y-88008395D01*
X155295853Y-88041172D01*
X155263795Y-88059324D01*
X155228808Y-88063103D01*
X155185109Y-88055862D01*
X155158479Y-88032368D01*
X155146922Y-87989964D01*
X155146435Y-87953393D01*
X155149932Y-87911365D01*
X155155514Y-87878176D01*
X155158478Y-87868726D01*
X155167117Y-87845814D01*
X155168778Y-87838833D01*
X155177291Y-87822632D01*
X155190276Y-87805692D01*
X155210336Y-87777162D01*
X155219175Y-87759680D01*
X155232022Y-87740840D01*
X155239613Y-87737462D01*
X155250452Y-87727287D01*
X155269836Y-87701301D01*
X155293385Y-87666312D01*
X155316719Y-87629128D01*
X155335457Y-87596555D01*
X155345220Y-87575403D01*
X155345749Y-87572506D01*
X155353096Y-87556490D01*
X155369940Y-87535151D01*
X155388484Y-87517039D01*
X155400936Y-87510703D01*
X155401675Y-87511165D01*
X155411167Y-87506001D01*
X155425443Y-87485418D01*
X155439609Y-87458183D01*
X155448769Y-87433063D01*
X155449954Y-87424690D01*
X155439309Y-87416051D01*
X155412564Y-87416312D01*
X155377508Y-87423979D01*
X155341929Y-87437555D01*
X155321479Y-87449352D01*
X155288362Y-87469411D01*
X155260645Y-87481736D01*
X155238332Y-87494832D01*
X155205420Y-87521233D01*
X155169465Y-87554802D01*
X155136017Y-87587005D01*
X155109278Y-87610311D01*
X155094779Y-87619913D01*
X155094456Y-87619947D01*
X155076152Y-87627532D01*
X155068405Y-87633060D01*
X155048566Y-87649100D01*
X155018747Y-87673075D01*
X155010083Y-87680023D01*
X154984244Y-87705967D01*
X154971326Y-87729406D01*
X154971006Y-87735057D01*
X154962342Y-87755550D01*
X154935441Y-87773438D01*
X154894278Y-87792503D01*
X154871642Y-87805322D01*
X154861946Y-87815501D01*
X154859972Y-87822128D01*
X154848777Y-87839468D01*
X154821895Y-87867152D01*
X154784944Y-87900527D01*
X154743541Y-87934942D01*
X154703301Y-87965744D01*
X154669841Y-87988281D01*
X154648779Y-87997901D01*
X154647676Y-87997974D01*
X154626438Y-87987490D01*
X154621373Y-87979346D01*
X154604751Y-87961875D01*
X154577474Y-87947906D01*
X154545325Y-87926229D01*
X154531926Y-87895043D01*
X154522224Y-87864671D01*
X154511181Y-87847607D01*
X154511106Y-87847560D01*
X154498808Y-87826120D01*
X154499947Y-87790955D01*
X154512346Y-87749193D01*
X154533828Y-87707962D01*
X154562216Y-87674392D01*
X154564621Y-87672333D01*
X154575710Y-87658747D01*
X154596205Y-87630437D01*
X154614634Y-87603815D01*
X154638290Y-87562387D01*
X154643076Y-87537980D01*
X154630831Y-87531812D01*
X154603396Y-87545101D01*
X154568662Y-87573385D01*
X154507750Y-87627440D01*
X154453367Y-87669856D01*
X154394877Y-87708594D01*
X154360222Y-87729390D01*
X154319397Y-87755465D01*
X154288069Y-87779465D01*
X154272856Y-87796306D01*
X154272724Y-87796629D01*
X154257756Y-87811517D01*
X154225148Y-87832538D01*
X154181264Y-87855703D01*
X154169886Y-87861081D01*
X154121393Y-87885418D01*
X154079850Y-87909720D01*
X154053097Y-87929334D01*
X154050535Y-87931921D01*
X154030963Y-87951097D01*
X154013717Y-87956633D01*
X153990910Y-87947990D01*
X153955840Y-87925424D01*
X153915881Y-87893473D01*
X153891392Y-87858808D01*
X153879221Y-87814174D01*
X153876216Y-87752315D01*
X153876338Y-87742428D01*
X153878895Y-87689895D01*
X153886112Y-87653686D01*
X153900577Y-87624158D01*
X153912611Y-87607205D01*
X153939282Y-87567350D01*
X153961097Y-87526716D01*
X153964287Y-87519282D01*
X153978507Y-87491060D01*
X153991229Y-87477231D01*
X153992663Y-87476949D01*
X154002967Y-87466445D01*
X154004108Y-87458390D01*
X154012981Y-87439871D01*
X154035911Y-87411313D01*
X154059120Y-87387487D01*
X154087207Y-87358261D01*
X154103842Y-87335946D01*
X154105887Y-87326899D01*
X154090669Y-87327438D01*
X154058561Y-87336706D01*
X154016419Y-87352711D01*
X154015055Y-87353282D01*
X153945273Y-87376691D01*
X153871614Y-87391594D01*
X153801337Y-87397302D01*
X153741697Y-87393126D01*
X153707200Y-87382546D01*
X153677323Y-87371437D01*
X153657164Y-87370619D01*
X153656210Y-87371151D01*
X153644158Y-87385635D01*
X153623265Y-87416438D01*
X153597729Y-87457325D01*
X153593769Y-87463923D01*
X153565886Y-87508243D01*
X153539801Y-87545651D01*
X153520806Y-87568596D01*
X153519667Y-87569656D01*
X153501126Y-87594134D01*
X153496108Y-87611248D01*
X153488088Y-87630119D01*
X153466735Y-87662431D01*
X153436109Y-87702230D01*
X153424612Y-87716049D01*
X153373439Y-87770757D01*
X153328067Y-87806162D01*
X153295193Y-87822445D01*
X153259459Y-87839061D01*
X153235325Y-87855796D01*
X153230486Y-87862243D01*
X153214902Y-87878244D01*
X153184644Y-87895970D01*
X153175335Y-87900130D01*
X153138830Y-87920150D01*
X153111105Y-87943478D01*
X153107914Y-87947541D01*
X153075573Y-87976735D01*
X153026826Y-88001851D01*
X152971317Y-88018802D01*
X152928109Y-88023740D01*
X152887975Y-88019237D01*
X152849717Y-88002445D01*
X152813448Y-87977315D01*
X152742973Y-87919991D01*
X152693231Y-87869357D01*
X152661719Y-87820321D01*
X152645933Y-87767794D01*
X152645205Y-87750415D01*
X152845619Y-87750415D01*
X152851120Y-87775789D01*
X152869823Y-87799454D01*
X152897195Y-87813794D01*
X152907991Y-87815201D01*
X152927267Y-87809021D01*
X152961362Y-87792378D01*
X153003113Y-87768789D01*
X153005683Y-87767243D01*
X153054471Y-87734046D01*
X153109678Y-87690415D01*
X153167741Y-87639891D01*
X153225096Y-87586014D01*
X153278179Y-87532324D01*
X153323425Y-87482360D01*
X153357272Y-87439664D01*
X153376155Y-87407775D01*
X153378877Y-87396556D01*
X153385925Y-87373015D01*
X153399713Y-87348793D01*
X153413062Y-87324423D01*
X153409117Y-87306203D01*
X153402232Y-87297049D01*
X153383597Y-87268765D01*
X153367830Y-87237432D01*
X153357748Y-87216823D01*
X153345238Y-87206383D01*
X153322973Y-87203844D01*
X153283629Y-87206940D01*
X153272919Y-87208051D01*
X153224208Y-87216096D01*
X153174698Y-87229051D01*
X153130502Y-87244657D01*
X153097734Y-87260652D01*
X153082509Y-87274778D01*
X153082331Y-87278504D01*
X153076006Y-87293629D01*
X153056010Y-87318973D01*
X153043467Y-87332247D01*
X153017955Y-87361498D01*
X153002877Y-87385814D01*
X153001134Y-87392637D01*
X152991249Y-87414909D01*
X152984100Y-87420942D01*
X152967453Y-87440599D01*
X152946384Y-87478525D01*
X152923660Y-87527951D01*
X152902047Y-87582106D01*
X152884310Y-87634221D01*
X152873217Y-87677523D01*
X152870877Y-87698071D01*
X152864791Y-87722817D01*
X152857852Y-87730949D01*
X152845619Y-87750415D01*
X152645205Y-87750415D01*
X152643370Y-87706685D01*
X152649694Y-87644361D01*
X152658461Y-87588742D01*
X152668265Y-87535963D01*
X152676744Y-87498429D01*
X152684149Y-87465662D01*
X152686060Y-87445536D01*
X152685329Y-87443366D01*
X152670168Y-87438706D01*
X152637442Y-87432718D01*
X152595398Y-87426498D01*
X152552281Y-87421144D01*
X152516338Y-87417752D01*
X152495814Y-87417419D01*
X152494085Y-87417925D01*
X152483891Y-87432527D01*
X152465785Y-87466128D01*
X152442249Y-87513842D01*
X152415770Y-87570780D01*
X152411097Y-87581154D01*
X152395943Y-87617935D01*
X152377116Y-87667665D01*
X152361543Y-87711410D01*
X152344772Y-87757047D01*
X152329189Y-87794163D01*
X152318540Y-87814124D01*
X152305796Y-87837735D01*
X152303714Y-87846688D01*
X152298412Y-87871440D01*
X152295236Y-87880744D01*
X152287507Y-87904819D01*
X152276927Y-87942416D01*
X152272584Y-87958897D01*
X152260692Y-88000583D01*
X152248897Y-88035192D01*
X152245401Y-88043564D01*
X152236560Y-88068182D01*
X152223965Y-88110035D01*
X152210019Y-88161042D01*
X152206872Y-88173223D01*
X152193189Y-88222806D01*
X152180292Y-88262704D01*
X152170461Y-88286042D01*
X152168574Y-88288668D01*
X152149777Y-88294544D01*
X152133894Y-88280719D01*
X152128416Y-88257718D01*
X152124256Y-88236287D01*
X152109964Y-88236434D01*
X152086972Y-88254117D01*
X152069090Y-88267247D01*
X152053654Y-88264788D01*
X152030587Y-88245333D01*
X152007066Y-88215878D01*
X152000134Y-88183120D01*
X152009523Y-88140556D01*
X152024746Y-88103456D01*
X152040060Y-88059501D01*
X152043426Y-88025024D01*
X152042181Y-88019086D01*
X152032440Y-87960099D01*
X152034620Y-87891913D01*
X152047338Y-87824914D01*
X152069208Y-87769489D01*
X152077110Y-87757000D01*
X152084169Y-87739227D01*
X152095256Y-87702527D01*
X152108489Y-87653345D01*
X152115162Y-87626744D01*
X152131653Y-87562737D01*
X152149829Y-87497341D01*
X152166365Y-87442411D01*
X152169968Y-87431359D01*
X152191218Y-87366361D01*
X152204165Y-87320973D01*
X152209180Y-87290240D01*
X152206632Y-87269207D01*
X152196890Y-87252918D01*
X152184239Y-87240041D01*
X152154280Y-87205478D01*
X152132151Y-87170846D01*
X152109901Y-87136919D01*
X152078513Y-87099810D01*
X152068260Y-87089464D01*
X152041888Y-87060216D01*
X152026154Y-87035197D01*
X152024211Y-87027593D01*
X152018791Y-87009405D01*
X152005821Y-87011445D01*
X151990234Y-87031075D01*
X151981621Y-87050359D01*
X151972073Y-87081416D01*
X151968938Y-87100983D01*
X151969118Y-87101996D01*
X151964483Y-87117419D01*
X151949402Y-87150848D01*
X151926323Y-87197650D01*
X151897694Y-87253197D01*
X151865963Y-87312855D01*
X151833580Y-87371995D01*
X151802993Y-87425986D01*
X151776650Y-87470196D01*
X151763984Y-87489974D01*
X151743698Y-87525444D01*
X151724738Y-87566226D01*
X151724197Y-87567569D01*
X151706584Y-87603532D01*
X151687700Y-87631011D01*
X151686002Y-87632799D01*
X151673194Y-87651631D01*
X151651155Y-87690610D01*
X151621652Y-87746263D01*
X151586453Y-87815120D01*
X151547325Y-87893712D01*
X151506035Y-87978568D01*
X151464349Y-88066217D01*
X151453609Y-88089154D01*
X151418950Y-88170003D01*
X151387538Y-88255536D01*
X151361382Y-88339177D01*
X151342496Y-88414348D01*
X151332891Y-88474475D01*
X151332182Y-88486161D01*
X151330111Y-88526400D01*
X151323306Y-88548330D01*
X151305905Y-88556025D01*
X151272046Y-88553565D01*
X151241852Y-88548982D01*
X151207554Y-88534786D01*
X151184118Y-88503153D01*
X151170686Y-88451846D01*
X151166397Y-88378629D01*
X151166725Y-88353599D01*
X151179340Y-88237761D01*
X151209655Y-88117212D01*
X151254644Y-88003026D01*
X151271472Y-87969959D01*
X151357177Y-87810528D01*
X151442271Y-87649448D01*
X151464354Y-87607226D01*
X151495395Y-87549806D01*
X151525270Y-87498106D01*
X151550329Y-87458243D01*
X151565424Y-87437892D01*
X151581587Y-87415074D01*
X151606417Y-87373840D01*
X151637089Y-87319152D01*
X151670778Y-87255974D01*
X151687772Y-87222949D01*
X151727224Y-87143235D01*
X151754887Y-87081974D01*
X151772305Y-87035240D01*
X151781026Y-86999107D01*
X151782689Y-86981974D01*
X151786737Y-86949269D01*
X151798065Y-86914994D01*
X151819352Y-86873111D01*
X151853273Y-86817581D01*
X151860632Y-86806128D01*
X151892396Y-86757514D01*
X151919279Y-86717447D01*
X151937988Y-86690767D01*
X151944764Y-86682385D01*
X151955328Y-86669316D01*
X151976558Y-86639768D01*
X152004734Y-86598980D01*
X152019841Y-86576639D01*
X152053219Y-86523456D01*
X152072696Y-86484500D01*
X152076962Y-86462461D01*
X152076266Y-86460872D01*
X152064040Y-86453305D01*
X152044121Y-86465029D01*
X152036857Y-86471532D01*
X152003680Y-86496739D01*
X151965631Y-86518674D01*
X151931676Y-86538404D01*
X151906687Y-86559031D01*
X151905770Y-86560098D01*
X151878821Y-86581293D01*
X151833365Y-86605522D01*
X151775114Y-86630840D01*
X151709783Y-86655301D01*
X151643082Y-86676960D01*
X151580724Y-86693870D01*
X151528421Y-86704087D01*
X151491886Y-86705665D01*
X151483854Y-86703805D01*
X151468946Y-86685646D01*
X151464108Y-86656742D01*
X151458601Y-86625829D01*
X151444150Y-86617256D01*
X151423823Y-86605680D01*
X151410292Y-86576193D01*
X151406559Y-86536660D01*
X151408006Y-86522646D01*
X151429041Y-86452697D01*
X151448170Y-86421024D01*
X152105558Y-86421024D01*
X152107340Y-86421872D01*
X152119227Y-86412702D01*
X152121903Y-86408846D01*
X152125222Y-86396669D01*
X152123440Y-86395820D01*
X152111553Y-86404990D01*
X152108877Y-86408846D01*
X152105558Y-86421024D01*
X151448170Y-86421024D01*
X151471217Y-86382867D01*
X151476116Y-86377409D01*
X151750672Y-86377409D01*
X151754367Y-86382132D01*
X151768431Y-86377514D01*
X151797334Y-86361648D01*
X151821782Y-86347069D01*
X151860466Y-86321126D01*
X151879680Y-86302361D01*
X151877824Y-86292595D01*
X151870469Y-86291615D01*
X151855479Y-86298566D01*
X151828557Y-86315768D01*
X151797348Y-86337749D01*
X151769493Y-86359034D01*
X151752636Y-86374150D01*
X151750672Y-86377409D01*
X151476116Y-86377409D01*
X151536372Y-86310289D01*
X151556210Y-86291615D01*
X151607623Y-86244215D01*
X151924508Y-86244215D01*
X151929256Y-86247177D01*
X151952329Y-86235575D01*
X151954945Y-86234153D01*
X151980109Y-86216754D01*
X152017891Y-86186224D01*
X152062229Y-86147589D01*
X152089339Y-86122719D01*
X152144202Y-86073411D01*
X152186178Y-86042459D01*
X152219813Y-86028860D01*
X152249655Y-86031613D01*
X152280252Y-86049716D01*
X152308249Y-86074502D01*
X152351314Y-86115769D01*
X152408042Y-86050641D01*
X152459613Y-85984264D01*
X152500276Y-85917563D01*
X152528264Y-85854797D01*
X152541812Y-85800225D01*
X152539156Y-85758108D01*
X152533931Y-85746876D01*
X152516111Y-85741439D01*
X152482136Y-85749825D01*
X152436168Y-85769556D01*
X152382370Y-85798150D01*
X152324905Y-85833128D01*
X152267936Y-85872009D01*
X152215626Y-85912312D01*
X152172137Y-85951558D01*
X152150622Y-85975264D01*
X152130507Y-85998335D01*
X152098437Y-86033250D01*
X152060666Y-86073225D01*
X152052929Y-86081279D01*
X152009081Y-86127175D01*
X151979329Y-86159674D01*
X151959438Y-86183884D01*
X151945171Y-86204918D01*
X151933912Y-86224841D01*
X151924508Y-86244215D01*
X151607623Y-86244215D01*
X151627315Y-86226061D01*
X151683817Y-86172654D01*
X151730715Y-86126386D01*
X151773010Y-86082249D01*
X151815703Y-86035235D01*
X151841852Y-86005553D01*
X151911319Y-85928836D01*
X151983928Y-85853492D01*
X152055353Y-85783682D01*
X152121265Y-85723565D01*
X152177337Y-85677300D01*
X152201444Y-85659913D01*
X152280653Y-85612506D01*
X152363560Y-85572688D01*
X152443625Y-85543026D01*
X152514311Y-85526089D01*
X152549755Y-85523103D01*
X152596614Y-85520917D01*
X152637345Y-85515331D01*
X152653526Y-85511000D01*
X152689226Y-85508437D01*
X152720748Y-85523583D01*
G36*
X142107587Y-86117291D02*
X142215059Y-86128168D01*
X142299954Y-86149606D01*
X142363950Y-86182655D01*
X142408724Y-86228368D01*
X142435954Y-86287795D01*
X142444292Y-86328390D01*
X142454447Y-86389562D01*
X142465100Y-86425204D01*
X142476684Y-86435838D01*
X142489636Y-86421986D01*
X142500515Y-86395820D01*
X142516782Y-86366568D01*
X142542009Y-86356902D01*
X142547379Y-86356744D01*
X142573404Y-86362727D01*
X142580621Y-86382026D01*
X142588316Y-86409808D01*
X142608342Y-86416093D01*
X142633624Y-86401518D01*
X142655211Y-86385998D01*
X142665537Y-86389925D01*
X142665001Y-86414774D01*
X142654003Y-86462019D01*
X142651984Y-86469319D01*
X142627894Y-86555966D01*
X142609308Y-86624505D01*
X142594438Y-86681835D01*
X142581494Y-86734859D01*
X142568690Y-86790477D01*
X142568099Y-86793103D01*
X142538071Y-86916725D01*
X142504109Y-87035307D01*
X142463969Y-87157820D01*
X142442887Y-87224627D01*
X142422078Y-87299539D01*
X142406071Y-87366231D01*
X142391061Y-87425525D01*
X142372240Y-87483914D01*
X142353480Y-87529492D01*
X142352054Y-87532314D01*
X142333893Y-87571059D01*
X142322321Y-87602606D01*
X142320108Y-87614183D01*
X142313559Y-87640264D01*
X142302315Y-87663022D01*
X142294481Y-87681632D01*
X142284615Y-87716089D01*
X142272362Y-87768072D01*
X142257365Y-87839260D01*
X142239269Y-87931331D01*
X142217720Y-88045964D01*
X142195531Y-88167308D01*
X142184674Y-88222688D01*
X142173538Y-88272024D01*
X142164104Y-88306728D01*
X142161975Y-88312816D01*
X142153597Y-88346999D01*
X142153612Y-88371431D01*
X142161884Y-88379215D01*
X142177098Y-88365222D01*
X142197550Y-88332248D01*
X142221535Y-88283091D01*
X142247347Y-88220548D01*
X142250252Y-88212897D01*
X142270262Y-88164310D01*
X142290452Y-88122654D01*
X142306629Y-88096534D01*
X142307365Y-88095667D01*
X142329275Y-88062079D01*
X142339756Y-88037051D01*
X142350230Y-88008127D01*
X142367787Y-87965691D01*
X142385272Y-87926333D01*
X142411151Y-87869826D01*
X142438993Y-87808787D01*
X142454570Y-87774506D01*
X142473783Y-87734719D01*
X142490128Y-87705405D01*
X142498803Y-87694136D01*
X142508652Y-87679640D01*
X142524907Y-87647333D01*
X142544389Y-87603629D01*
X142548385Y-87594104D01*
X142575428Y-87536269D01*
X142603943Y-87494116D01*
X142640871Y-87457855D01*
X142650707Y-87449781D01*
X142687126Y-87422895D01*
X142717685Y-87404420D01*
X142733405Y-87398795D01*
X142758259Y-87404285D01*
X142797880Y-87418631D01*
X142843936Y-87438644D01*
X142867185Y-87449988D01*
X142880836Y-87469220D01*
X142892442Y-87508891D01*
X142897174Y-87536827D01*
X142905423Y-87587613D01*
X142915315Y-87634996D01*
X142921304Y-87657411D01*
X142927349Y-87695350D01*
X142929262Y-87754689D01*
X142926933Y-87831090D01*
X142926057Y-87846283D01*
X142922464Y-87908699D01*
X142921117Y-87948618D01*
X142922355Y-87969523D01*
X142926522Y-87974901D01*
X142933958Y-87968234D01*
X142937549Y-87963492D01*
X142957912Y-87929958D01*
X142982568Y-87881501D01*
X143007553Y-87826905D01*
X143028903Y-87774954D01*
X143042656Y-87734433D01*
X143044648Y-87726123D01*
X143058784Y-87688073D01*
X143077043Y-87660754D01*
X143095254Y-87637041D01*
X143101647Y-87621698D01*
X143111628Y-87608059D01*
X143137395Y-87586076D01*
X143162824Y-87567762D01*
X143221400Y-87538339D01*
X143276024Y-87533547D01*
X143330792Y-87553239D01*
X143343999Y-87561320D01*
X143356343Y-87570294D01*
X143365239Y-87581112D01*
X143370911Y-87597421D01*
X143373586Y-87622869D01*
X143373490Y-87661104D01*
X143370850Y-87715774D01*
X143365890Y-87790526D01*
X143361777Y-87848179D01*
X143354498Y-87949498D01*
X143349004Y-88027795D01*
X143345245Y-88086036D01*
X143343168Y-88127185D01*
X143342724Y-88154208D01*
X143343859Y-88170069D01*
X143346523Y-88177734D01*
X143350665Y-88180167D01*
X143356024Y-88180333D01*
X143373810Y-88169543D01*
X143381272Y-88155625D01*
X143394672Y-88131591D01*
X143419455Y-88099460D01*
X143432418Y-88085001D01*
X143465359Y-88045312D01*
X143499106Y-87997473D01*
X143512254Y-87976196D01*
X143538188Y-87935454D01*
X143564236Y-87900584D01*
X143576485Y-87887153D01*
X143593477Y-87866377D01*
X143620157Y-87828252D01*
X143642267Y-87794447D01*
X143873334Y-87794447D01*
X143890628Y-87821198D01*
X143924436Y-87841477D01*
X143957455Y-87836740D01*
X143986350Y-87807896D01*
X143994613Y-87792820D01*
X144013827Y-87738800D01*
X144023066Y-87683216D01*
X144021674Y-87634409D01*
X144009635Y-87601544D01*
X143997616Y-87588216D01*
X143987947Y-87589880D01*
X143975920Y-87609953D01*
X143964781Y-87634108D01*
X143941370Y-87676573D01*
X143913741Y-87713899D01*
X143904493Y-87723450D01*
X143875995Y-87760189D01*
X143873334Y-87794447D01*
X143642267Y-87794447D01*
X143653076Y-87777922D01*
X143688782Y-87720534D01*
X143694363Y-87711307D01*
X143744807Y-87630627D01*
X143787663Y-87569727D01*
X143826249Y-87524724D01*
X143863878Y-87491738D01*
X143902487Y-87467610D01*
X143945335Y-87452562D01*
X143988843Y-87449012D01*
X144022968Y-87457313D01*
X144030857Y-87463103D01*
X144056931Y-87477593D01*
X144079612Y-87466873D01*
X144097636Y-87431696D01*
X144100625Y-87421590D01*
X144127521Y-87332905D01*
X144159234Y-87245605D01*
X144192207Y-87169009D01*
X144211281Y-87131769D01*
X144234155Y-87089145D01*
X144265472Y-87028388D01*
X144302548Y-86954923D01*
X144342699Y-86874172D01*
X144383242Y-86791559D01*
X144421492Y-86712507D01*
X144454765Y-86642439D01*
X144473962Y-86600974D01*
X144496837Y-86555094D01*
X144518026Y-86520115D01*
X144534011Y-86501594D01*
X144537871Y-86500026D01*
X144559892Y-86507966D01*
X144591057Y-86527790D01*
X144623853Y-86553503D01*
X144650768Y-86579110D01*
X144664288Y-86598616D01*
X144664724Y-86601250D01*
X144661416Y-86627512D01*
X144653115Y-86668341D01*
X144642249Y-86713335D01*
X144631249Y-86752091D01*
X144625993Y-86767051D01*
X144616129Y-86795569D01*
X144603914Y-86836038D01*
X144599599Y-86851490D01*
X144583905Y-86899221D01*
X144562533Y-86952622D01*
X144552575Y-86974415D01*
X144535053Y-87014206D01*
X144523670Y-87046699D01*
X144521245Y-87059310D01*
X144516733Y-87085537D01*
X144506009Y-87122120D01*
X144492789Y-87158122D01*
X144480788Y-87182608D01*
X144478266Y-87185799D01*
X144471149Y-87204711D01*
X144469339Y-87224351D01*
X144464199Y-87251065D01*
X144456313Y-87262026D01*
X144447418Y-87279390D01*
X144443319Y-87310795D01*
X144443288Y-87313841D01*
X144437508Y-87357258D01*
X144424932Y-87394483D01*
X144411630Y-87425558D01*
X144394406Y-87471571D01*
X144376995Y-87522538D01*
X144356760Y-87578183D01*
X144329427Y-87644578D01*
X144300108Y-87709459D01*
X144292855Y-87724436D01*
X144263803Y-87783873D01*
X144243597Y-87827258D01*
X144229371Y-87861807D01*
X144218259Y-87894738D01*
X144207396Y-87933269D01*
X144202341Y-87952385D01*
X144194175Y-87990316D01*
X144185464Y-88041837D01*
X144176882Y-88101254D01*
X144169104Y-88162876D01*
X144162803Y-88221012D01*
X144158652Y-88269968D01*
X144157327Y-88304055D01*
X144159132Y-88317340D01*
X144177630Y-88318323D01*
X144208162Y-88296986D01*
X144250240Y-88253852D01*
X144303377Y-88189445D01*
X144367083Y-88104290D01*
X144397698Y-88061292D01*
X144434505Y-88010218D01*
X144477206Y-87952811D01*
X144509620Y-87910462D01*
X144543769Y-87862087D01*
X144574310Y-87810950D01*
X144593438Y-87770908D01*
X144616327Y-87725697D01*
X144647034Y-87696023D01*
X144690048Y-87679970D01*
X144749862Y-87675620D01*
X144808899Y-87678925D01*
X144880628Y-87681678D01*
X144931652Y-87674583D01*
X144965733Y-87656747D01*
X144981243Y-87637867D01*
X145012406Y-87608099D01*
X145057623Y-87591309D01*
X145106725Y-87590892D01*
X145115777Y-87592978D01*
X145165469Y-87616436D01*
X145192811Y-87651316D01*
X145197146Y-87694619D01*
X145177818Y-87743343D01*
X145155204Y-87773244D01*
X145114228Y-87837537D01*
X145092104Y-87913406D01*
X145091125Y-87989828D01*
X145097799Y-88040298D01*
X145161555Y-88032746D01*
X145213332Y-88020676D01*
X145267217Y-87998545D01*
X145316585Y-87970236D01*
X145354813Y-87939635D01*
X145375279Y-87910623D01*
X145376375Y-87906795D01*
X145401872Y-87808851D01*
X145434062Y-87711477D01*
X145470623Y-87620161D01*
X145509238Y-87540390D01*
X145547585Y-87477652D01*
X145569099Y-87450897D01*
X145595283Y-87418791D01*
X145614462Y-87389026D01*
X145631412Y-87367135D01*
X145654949Y-87361475D01*
X145690489Y-87371888D01*
X145720129Y-87385937D01*
X145763862Y-87412602D01*
X145791369Y-87442833D01*
X145805434Y-87482754D01*
X145808841Y-87538490D01*
X145807216Y-87577524D01*
X145800341Y-87643760D01*
X145786865Y-87697692D01*
X145763232Y-87752888D01*
X145759087Y-87761142D01*
X145739517Y-87802650D01*
X145727267Y-87834717D01*
X145724779Y-87850871D01*
X145725079Y-87851287D01*
X145735775Y-87851464D01*
X145755069Y-87837406D01*
X145784244Y-87807703D01*
X145824582Y-87760944D01*
X145877364Y-87695720D01*
X145943873Y-87610620D01*
X145944106Y-87610319D01*
X146003273Y-87535215D01*
X146050055Y-87479788D01*
X146086712Y-87442172D01*
X146115504Y-87420497D01*
X146138692Y-87412896D01*
X146158535Y-87417502D01*
X146168850Y-87424568D01*
X146189046Y-87450421D01*
X146195610Y-87465099D01*
X146210224Y-87485588D01*
X146222165Y-87489974D01*
X146236471Y-87492996D01*
X146238069Y-87504773D01*
X146225867Y-87529374D01*
X146201512Y-87566832D01*
X146179479Y-87602465D01*
X146165404Y-87631215D01*
X146162672Y-87641693D01*
X146156975Y-87659911D01*
X146141557Y-87695577D01*
X146118931Y-87743140D01*
X146097686Y-87785329D01*
X146071785Y-87836669D01*
X146051606Y-87878763D01*
X146039419Y-87906731D01*
X146036998Y-87915719D01*
X146048574Y-87910456D01*
X146075545Y-87892669D01*
X146112744Y-87865828D01*
X146124779Y-87856792D01*
X146212602Y-87780600D01*
X146292672Y-87692842D01*
X146356783Y-87602610D01*
X146361780Y-87594179D01*
X146386976Y-87557235D01*
X146424004Y-87510531D01*
X146466060Y-87462509D01*
X146478912Y-87448824D01*
X146518701Y-87408010D01*
X146546171Y-87383108D01*
X146566655Y-87370872D01*
X146585485Y-87368054D01*
X146606543Y-87371113D01*
X146643378Y-87385831D01*
X146670667Y-87416964D01*
X146676980Y-87427969D01*
X146702826Y-87475798D01*
X146665106Y-87547895D01*
X146640035Y-87589843D01*
X146614031Y-87624083D01*
X146597385Y-87639650D01*
X146569073Y-87664415D01*
X146553441Y-87685359D01*
X146545822Y-87706209D01*
X146552732Y-87710860D01*
X146570854Y-87702091D01*
X146596870Y-87682679D01*
X146627465Y-87655406D01*
X146659320Y-87623048D01*
X146689119Y-87588386D01*
X146713545Y-87554198D01*
X146717199Y-87548166D01*
X146753890Y-87499456D01*
X146794756Y-87474848D01*
X146843955Y-87472394D01*
X146867981Y-87477467D01*
X146896447Y-87483635D01*
X146920777Y-87482988D01*
X146948892Y-87473592D01*
X146988714Y-87453517D01*
X147006929Y-87443585D01*
X147056593Y-87414376D01*
X147103206Y-87383730D01*
X147136706Y-87358264D01*
X147136792Y-87358189D01*
X147180809Y-87328321D01*
X147216999Y-87320933D01*
X147242838Y-87335379D01*
X147255799Y-87371017D01*
X147256826Y-87388816D01*
X147247537Y-87419376D01*
X147223513Y-87458654D01*
X147190519Y-87499294D01*
X147154320Y-87533939D01*
X147129826Y-87550869D01*
X147102247Y-87568118D01*
X147088019Y-87581210D01*
X147087493Y-87582887D01*
X147076613Y-87592454D01*
X147048349Y-87609065D01*
X147009265Y-87629511D01*
X146965926Y-87650581D01*
X146924896Y-87669066D01*
X146892739Y-87681756D01*
X146877482Y-87685587D01*
X146859639Y-87694083D01*
X146829514Y-87716233D01*
X146793371Y-87747394D01*
X146790462Y-87750086D01*
X146742701Y-87793283D01*
X146690015Y-87839097D01*
X146653693Y-87869476D01*
X146608544Y-87908295D01*
X146557267Y-87955413D01*
X146514549Y-87997059D01*
X146478767Y-88030912D01*
X146448405Y-88055254D01*
X146428999Y-88065750D01*
X146426774Y-88065776D01*
X146403136Y-88068512D01*
X146383382Y-88076517D01*
X146348604Y-88083280D01*
X146318811Y-88068142D01*
X146298761Y-88035251D01*
X146292929Y-87997674D01*
X146291513Y-87969523D01*
X146285989Y-87951579D01*
X146274439Y-87944962D01*
X146254947Y-87950790D01*
X146225594Y-87970183D01*
X146184465Y-88004257D01*
X146129643Y-88054133D01*
X146059210Y-88120928D01*
X146024487Y-88154321D01*
X145994799Y-88178602D01*
X145969363Y-88192263D01*
X145963384Y-88193359D01*
X145940421Y-88200625D01*
X145934724Y-88206385D01*
X145915013Y-88217205D01*
X145883587Y-88218524D01*
X145852698Y-88211056D01*
X145837752Y-88200740D01*
X145829363Y-88177206D01*
X145828108Y-88133572D01*
X145831327Y-88090022D01*
X145834734Y-88035716D01*
X145831403Y-88005534D01*
X145820740Y-87998281D01*
X145802152Y-88012767D01*
X145796293Y-88019531D01*
X145771787Y-88040411D01*
X145739339Y-88059388D01*
X145681639Y-88088446D01*
X145645222Y-88112032D01*
X145626511Y-88132464D01*
X145626458Y-88132559D01*
X145607946Y-88145466D01*
X145572684Y-88156699D01*
X145549534Y-88160923D01*
X145507516Y-88164896D01*
X145480692Y-88160875D01*
X145458892Y-88146822D01*
X145453131Y-88141591D01*
X145430308Y-88123156D01*
X145410994Y-88121294D01*
X145384198Y-88133159D01*
X145351667Y-88152607D01*
X145310326Y-88180712D01*
X145285063Y-88199309D01*
X145248993Y-88224436D01*
X145218891Y-88241198D01*
X145205175Y-88245462D01*
X145187905Y-88251978D01*
X145185749Y-88257452D01*
X145174293Y-88271187D01*
X145144602Y-88278101D01*
X145103686Y-88277791D01*
X145058561Y-88269852D01*
X145044316Y-88265614D01*
X144979540Y-88233524D01*
X144933239Y-88185806D01*
X144904970Y-88121389D01*
X144894290Y-88039206D01*
X144900754Y-87938185D01*
X144902732Y-87924271D01*
X144912791Y-87857080D01*
X144861374Y-87848393D01*
X144815697Y-87846754D01*
X144779119Y-87856474D01*
X144758328Y-87875182D01*
X144755903Y-87885783D01*
X144747708Y-87905678D01*
X144727313Y-87934010D01*
X144720083Y-87942314D01*
X144696088Y-87972330D01*
X144664833Y-88016326D01*
X144632278Y-88065836D01*
X144625647Y-88076444D01*
X144586292Y-88135001D01*
X144539156Y-88197926D01*
X144494355Y-88251721D01*
X144493808Y-88252328D01*
X144456266Y-88295566D01*
X144423026Y-88336737D01*
X144400218Y-88368185D01*
X144397339Y-88372817D01*
X144371849Y-88403904D01*
X144334950Y-88435978D01*
X144319101Y-88446930D01*
X144277179Y-88476680D01*
X144238076Y-88509545D01*
X144227518Y-88519883D01*
X144205876Y-88544063D01*
X144201798Y-88555211D01*
X144213793Y-88558065D01*
X144215507Y-88558077D01*
X144231604Y-88561470D01*
X144225009Y-88573156D01*
X144206662Y-88581474D01*
X144191704Y-88573108D01*
X144165513Y-88564332D01*
X144134341Y-88565810D01*
X144081044Y-88564370D01*
X144033982Y-88538202D01*
X143994366Y-88488141D01*
X143979921Y-88459470D01*
X143962335Y-88421872D01*
X143948505Y-88396221D01*
X143942423Y-88388744D01*
X143932300Y-88398769D01*
X143921205Y-88416770D01*
X143912599Y-88436522D01*
X143919710Y-88439283D01*
X143927259Y-88436717D01*
X143943667Y-88432148D01*
X143946595Y-88439775D01*
X143936891Y-88464631D01*
X143933301Y-88472570D01*
X143921178Y-88494285D01*
X143910960Y-88494088D01*
X143903111Y-88484763D01*
X143891582Y-88474261D01*
X143878363Y-88479340D01*
X143857424Y-88502796D01*
X143853471Y-88507785D01*
X143826616Y-88541281D01*
X143803190Y-88569505D01*
X143798994Y-88574359D01*
X143782844Y-88602088D01*
X143778980Y-88619862D01*
X143785881Y-88625249D01*
X143806793Y-88609482D01*
X143837391Y-88577529D01*
X143866435Y-88546981D01*
X143887415Y-88528333D01*
X143895982Y-88525427D01*
X143896006Y-88525745D01*
X143887523Y-88550179D01*
X143865802Y-88583637D01*
X143837237Y-88618017D01*
X143808219Y-88645218D01*
X143794888Y-88653928D01*
X143753435Y-88665553D01*
X143699041Y-88668940D01*
X143642599Y-88664564D01*
X143594998Y-88652902D01*
X143577836Y-88644435D01*
X143537688Y-88603934D01*
X143508640Y-88545641D01*
X143493737Y-88476536D01*
X143492416Y-88448647D01*
X143490558Y-88407976D01*
X143485778Y-88379096D01*
X143481383Y-88370437D01*
X143466492Y-88374704D01*
X143442310Y-88393552D01*
X143432537Y-88403200D01*
X143409650Y-88428831D01*
X143403549Y-88443798D01*
X143412262Y-88455509D01*
X143417518Y-88459532D01*
X143437369Y-88478150D01*
X143433605Y-88488800D01*
X143405347Y-88492821D01*
X143395571Y-88492949D01*
X143354864Y-88496325D01*
X143320674Y-88504312D01*
X143285076Y-88509108D01*
X143261893Y-88504984D01*
X143234988Y-88484464D01*
X143210296Y-88449528D01*
X143194870Y-88411355D01*
X143192826Y-88395485D01*
X143187656Y-88370873D01*
X143178452Y-88345568D01*
X143703146Y-88345568D01*
X143708186Y-88372358D01*
X143721535Y-88375038D01*
X143742646Y-88354925D01*
X143760047Y-88335106D01*
X143789121Y-88303618D01*
X143821525Y-88269426D01*
X143858206Y-88227174D01*
X143894444Y-88178680D01*
X143926272Y-88130092D01*
X143949721Y-88087555D01*
X143960825Y-88057216D01*
X143961217Y-88053011D01*
X143950528Y-88036193D01*
X143931297Y-88024985D01*
X143901786Y-88009135D01*
X143866813Y-87984389D01*
X143859464Y-87978397D01*
X143829625Y-87957928D01*
X143805553Y-87949275D01*
X143800426Y-87949850D01*
X143781772Y-87967625D01*
X143760766Y-88003279D01*
X143740545Y-88049223D01*
X143724244Y-88097870D01*
X143714998Y-88141631D01*
X143713994Y-88159002D01*
X143713143Y-88202497D01*
X143709687Y-88257289D01*
X143706197Y-88294308D01*
X143703146Y-88345568D01*
X143178452Y-88345568D01*
X143174833Y-88335621D01*
X143170824Y-88326453D01*
X143156513Y-88292717D01*
X143148090Y-88268611D01*
X143147342Y-88265000D01*
X143142478Y-88245165D01*
X143132210Y-88211953D01*
X143128789Y-88201709D01*
X143119602Y-88165387D01*
X143119048Y-88128378D01*
X143127062Y-88079178D01*
X143128080Y-88074327D01*
X143138495Y-88032284D01*
X143148891Y-88001561D01*
X143155610Y-87990311D01*
X143164618Y-87973163D01*
X143166775Y-87955234D01*
X143165679Y-87935929D01*
X143158262Y-87936979D01*
X143142957Y-87952746D01*
X143126368Y-87977336D01*
X143105101Y-88017896D01*
X143083559Y-88065981D01*
X143082071Y-88069615D01*
X143057797Y-88125664D01*
X143026874Y-88192034D01*
X142995172Y-88256203D01*
X142988658Y-88268815D01*
X142964031Y-88317383D01*
X142944864Y-88357757D01*
X142933884Y-88384068D01*
X142932313Y-88390211D01*
X142923945Y-88415285D01*
X142902987Y-88448215D01*
X142875664Y-88481482D01*
X142848198Y-88507566D01*
X142826812Y-88518948D01*
X142825737Y-88519000D01*
X142791753Y-88514946D01*
X142750720Y-88504804D01*
X142712348Y-88491607D01*
X142686347Y-88478386D01*
X142681769Y-88474044D01*
X142675787Y-88451032D01*
X142673189Y-88407736D01*
X142673818Y-88349683D01*
X142677518Y-88282399D01*
X142684132Y-88211410D01*
X142690655Y-88160795D01*
X142698422Y-88104841D01*
X142701700Y-88068800D01*
X142700211Y-88046874D01*
X142693677Y-88033266D01*
X142684088Y-88024026D01*
X142672206Y-88011318D01*
X142666527Y-87993867D01*
X142666412Y-87965108D01*
X142671222Y-87918474D01*
X142672672Y-87906795D01*
X142680441Y-87849703D01*
X142688924Y-87794500D01*
X142696170Y-87753744D01*
X142701448Y-87716756D01*
X142697418Y-87700226D01*
X142691913Y-87698385D01*
X142678403Y-87709236D01*
X142656946Y-87738114D01*
X142630752Y-87779502D01*
X142603029Y-87827883D01*
X142576984Y-87877741D01*
X142555827Y-87923560D01*
X142545945Y-87949365D01*
X142532439Y-87984308D01*
X142510634Y-88034842D01*
X142483922Y-88093280D01*
X142464134Y-88134744D01*
X142437346Y-88190972D01*
X142414286Y-88241527D01*
X142397798Y-88280047D01*
X142391352Y-88297564D01*
X142380297Y-88324593D01*
X142359913Y-88365538D01*
X142334386Y-88412044D01*
X142331486Y-88417067D01*
X142307477Y-88459584D01*
X142289665Y-88493311D01*
X142281289Y-88512061D01*
X142281031Y-88513461D01*
X142275708Y-88529400D01*
X142261909Y-88561035D01*
X142246939Y-88592599D01*
X142220088Y-88638774D01*
X142196852Y-88660577D01*
X142189409Y-88662282D01*
X142167178Y-88669047D01*
X142161259Y-88676420D01*
X142147184Y-88679975D01*
X142113610Y-88670596D01*
X142084413Y-88658656D01*
X142041221Y-88637173D01*
X142032004Y-88629718D01*
X142176826Y-88629718D01*
X142183339Y-88636231D01*
X142189852Y-88629718D01*
X142183339Y-88623205D01*
X142176826Y-88629718D01*
X142032004Y-88629718D01*
X142016198Y-88616934D01*
X142002511Y-88591873D01*
X141999922Y-88583668D01*
X141987650Y-88553186D01*
X141974185Y-88536262D01*
X141972885Y-88535686D01*
X141957024Y-88541621D01*
X141928055Y-88561740D01*
X141891547Y-88592060D01*
X141881901Y-88600762D01*
X141798245Y-88667680D01*
X141717912Y-88710716D01*
X141637460Y-88731147D01*
X141553448Y-88730249D01*
X141538570Y-88728068D01*
X141437484Y-88698793D01*
X141341896Y-88646816D01*
X141257230Y-88575487D01*
X141217884Y-88530002D01*
X141189314Y-88488616D01*
X141161728Y-88441475D01*
X141137918Y-88394428D01*
X141120678Y-88353325D01*
X141112802Y-88324016D01*
X141114502Y-88313495D01*
X141112761Y-88299643D01*
X141102517Y-88269990D01*
X141093190Y-88247522D01*
X141073839Y-88192851D01*
X141053930Y-88117376D01*
X141053473Y-88115205D01*
X141236094Y-88115205D01*
X141241498Y-88177972D01*
X141259031Y-88248073D01*
X141285605Y-88317892D01*
X141318131Y-88379813D01*
X141353522Y-88426218D01*
X141367022Y-88438156D01*
X141405051Y-88469217D01*
X141441014Y-88502471D01*
X141469491Y-88532464D01*
X141485062Y-88553738D01*
X141486467Y-88558382D01*
X141497238Y-88570212D01*
X141523232Y-88585657D01*
X141554969Y-88600058D01*
X141582969Y-88608756D01*
X141590672Y-88609597D01*
X141614046Y-88604459D01*
X141649336Y-88591556D01*
X141663109Y-88585581D01*
X141705120Y-88560742D01*
X141746838Y-88526724D01*
X141782384Y-88489497D01*
X141805875Y-88455034D01*
X141812050Y-88434333D01*
X141817865Y-88408343D01*
X141832585Y-88370003D01*
X141844727Y-88344203D01*
X141862862Y-88305708D01*
X141874663Y-88275384D01*
X141877236Y-88264067D01*
X141882622Y-88247208D01*
X141897456Y-88211457D01*
X141919758Y-88161329D01*
X141947543Y-88101342D01*
X141962399Y-88070050D01*
X141993675Y-88002284D01*
X142021505Y-87937503D01*
X142043441Y-87881739D01*
X142057034Y-87841019D01*
X142059443Y-87831058D01*
X142070879Y-87785856D01*
X142088563Y-87730201D01*
X142105101Y-87685359D01*
X142119524Y-87648064D01*
X142133426Y-87609191D01*
X142147965Y-87564920D01*
X142164302Y-87511432D01*
X142183597Y-87444910D01*
X142207009Y-87361533D01*
X142235699Y-87257483D01*
X142241592Y-87235974D01*
X142274840Y-87114772D01*
X142302115Y-87015916D01*
X142324216Y-86936596D01*
X142341943Y-86874002D01*
X142356095Y-86825326D01*
X142367472Y-86787758D01*
X142376874Y-86758488D01*
X142380591Y-86747513D01*
X142396117Y-86699088D01*
X142412556Y-86642847D01*
X142419486Y-86617256D01*
X142431105Y-86573408D01*
X142440956Y-86537381D01*
X142445153Y-86522820D01*
X142443407Y-86503626D01*
X142431445Y-86500026D01*
X142407068Y-86492949D01*
X142372957Y-86475419D01*
X142337950Y-86452987D01*
X142310886Y-86431204D01*
X142300920Y-86418059D01*
X142296273Y-86396199D01*
X142290393Y-86359789D01*
X142288136Y-86343718D01*
X142279310Y-86294794D01*
X142265551Y-86266361D01*
X142241372Y-86252866D01*
X142201288Y-86248753D01*
X142194202Y-86248611D01*
X142154965Y-86250908D01*
X142116548Y-86260907D01*
X142070570Y-86281348D01*
X142033044Y-86301322D01*
X141993199Y-86326258D01*
X141945819Y-86360359D01*
X141895300Y-86399884D01*
X141846039Y-86441091D01*
X141802430Y-86480240D01*
X141768870Y-86513589D01*
X141749753Y-86537399D01*
X141746980Y-86544786D01*
X141739302Y-86560403D01*
X141720267Y-86586463D01*
X141714416Y-86593581D01*
X141693288Y-86622646D01*
X141682295Y-86645494D01*
X141681852Y-86648727D01*
X141672873Y-86666577D01*
X141650081Y-86693228D01*
X141635281Y-86707551D01*
X141615141Y-86727339D01*
X141597515Y-86749159D01*
X141580584Y-86776761D01*
X141562531Y-86813894D01*
X141541539Y-86864307D01*
X141515790Y-86931751D01*
X141483466Y-87019975D01*
X141482355Y-87023038D01*
X141456189Y-87094009D01*
X141428963Y-87165821D01*
X141403983Y-87229863D01*
X141385364Y-87275622D01*
X141335130Y-87404928D01*
X141295811Y-87528074D01*
X141268097Y-87641781D01*
X141252680Y-87742770D01*
X141250250Y-87827760D01*
X141257793Y-87880744D01*
X141259929Y-87909928D01*
X141257552Y-87954833D01*
X141251354Y-88004487D01*
X141243927Y-88052777D01*
X141238455Y-88092419D01*
X141236101Y-88114977D01*
X141236094Y-88115205D01*
X141053473Y-88115205D01*
X141034718Y-88026282D01*
X141021729Y-87952121D01*
X141023547Y-87914357D01*
X141042520Y-87888230D01*
X141061801Y-87860758D01*
X141069336Y-87819773D01*
X141069723Y-87803827D01*
X141072897Y-87743824D01*
X141081326Y-87670703D01*
X141093567Y-87592999D01*
X141108180Y-87519248D01*
X141123721Y-87457986D01*
X141132662Y-87431359D01*
X141148067Y-87385639D01*
X141164748Y-87326527D01*
X141179273Y-87266252D01*
X141180179Y-87262026D01*
X141200214Y-87171082D01*
X141217198Y-87102662D01*
X141232241Y-87053571D01*
X141246453Y-87020614D01*
X141260941Y-87000598D01*
X141274154Y-86991441D01*
X141301714Y-86965293D01*
X141318818Y-86924470D01*
X141331239Y-86879522D01*
X141343132Y-86837589D01*
X141344840Y-86831708D01*
X141358752Y-86800681D01*
X141383524Y-86759130D01*
X141410182Y-86720990D01*
X141442631Y-86676572D01*
X141482215Y-86620248D01*
X141521950Y-86562005D01*
X141534332Y-86543421D01*
X141570025Y-86492981D01*
X141610147Y-86441872D01*
X141650794Y-86394440D01*
X141688062Y-86355034D01*
X141718046Y-86327998D01*
X141736841Y-86317680D01*
X141737120Y-86317674D01*
X141750108Y-86309531D01*
X141778326Y-86287365D01*
X141817623Y-86254555D01*
X141863844Y-86214485D01*
X141864020Y-86214329D01*
X141981242Y-86110992D01*
X142107587Y-86117291D01*
X142107587Y-86117291D01*
G37*
X142107587Y-86117291D02*
X142215059Y-86128168D01*
X142299954Y-86149606D01*
X142363950Y-86182655D01*
X142408724Y-86228368D01*
X142435954Y-86287795D01*
X142444292Y-86328390D01*
X142454447Y-86389562D01*
X142465100Y-86425204D01*
X142476684Y-86435838D01*
X142489636Y-86421986D01*
X142500515Y-86395820D01*
X142516782Y-86366568D01*
X142542009Y-86356902D01*
X142547379Y-86356744D01*
X142573404Y-86362727D01*
X142580621Y-86382026D01*
X142588316Y-86409808D01*
X142608342Y-86416093D01*
X142633624Y-86401518D01*
X142655211Y-86385998D01*
X142665537Y-86389925D01*
X142665001Y-86414774D01*
X142654003Y-86462019D01*
X142651984Y-86469319D01*
X142627894Y-86555966D01*
X142609308Y-86624505D01*
X142594438Y-86681835D01*
X142581494Y-86734859D01*
X142568690Y-86790477D01*
X142568099Y-86793103D01*
X142538071Y-86916725D01*
X142504109Y-87035307D01*
X142463969Y-87157820D01*
X142442887Y-87224627D01*
X142422078Y-87299539D01*
X142406071Y-87366231D01*
X142391061Y-87425525D01*
X142372240Y-87483914D01*
X142353480Y-87529492D01*
X142352054Y-87532314D01*
X142333893Y-87571059D01*
X142322321Y-87602606D01*
X142320108Y-87614183D01*
X142313559Y-87640264D01*
X142302315Y-87663022D01*
X142294481Y-87681632D01*
X142284615Y-87716089D01*
X142272362Y-87768072D01*
X142257365Y-87839260D01*
X142239269Y-87931331D01*
X142217720Y-88045964D01*
X142195531Y-88167308D01*
X142184674Y-88222688D01*
X142173538Y-88272024D01*
X142164104Y-88306728D01*
X142161975Y-88312816D01*
X142153597Y-88346999D01*
X142153612Y-88371431D01*
X142161884Y-88379215D01*
X142177098Y-88365222D01*
X142197550Y-88332248D01*
X142221535Y-88283091D01*
X142247347Y-88220548D01*
X142250252Y-88212897D01*
X142270262Y-88164310D01*
X142290452Y-88122654D01*
X142306629Y-88096534D01*
X142307365Y-88095667D01*
X142329275Y-88062079D01*
X142339756Y-88037051D01*
X142350230Y-88008127D01*
X142367787Y-87965691D01*
X142385272Y-87926333D01*
X142411151Y-87869826D01*
X142438993Y-87808787D01*
X142454570Y-87774506D01*
X142473783Y-87734719D01*
X142490128Y-87705405D01*
X142498803Y-87694136D01*
X142508652Y-87679640D01*
X142524907Y-87647333D01*
X142544389Y-87603629D01*
X142548385Y-87594104D01*
X142575428Y-87536269D01*
X142603943Y-87494116D01*
X142640871Y-87457855D01*
X142650707Y-87449781D01*
X142687126Y-87422895D01*
X142717685Y-87404420D01*
X142733405Y-87398795D01*
X142758259Y-87404285D01*
X142797880Y-87418631D01*
X142843936Y-87438644D01*
X142867185Y-87449988D01*
X142880836Y-87469220D01*
X142892442Y-87508891D01*
X142897174Y-87536827D01*
X142905423Y-87587613D01*
X142915315Y-87634996D01*
X142921304Y-87657411D01*
X142927349Y-87695350D01*
X142929262Y-87754689D01*
X142926933Y-87831090D01*
X142926057Y-87846283D01*
X142922464Y-87908699D01*
X142921117Y-87948618D01*
X142922355Y-87969523D01*
X142926522Y-87974901D01*
X142933958Y-87968234D01*
X142937549Y-87963492D01*
X142957912Y-87929958D01*
X142982568Y-87881501D01*
X143007553Y-87826905D01*
X143028903Y-87774954D01*
X143042656Y-87734433D01*
X143044648Y-87726123D01*
X143058784Y-87688073D01*
X143077043Y-87660754D01*
X143095254Y-87637041D01*
X143101647Y-87621698D01*
X143111628Y-87608059D01*
X143137395Y-87586076D01*
X143162824Y-87567762D01*
X143221400Y-87538339D01*
X143276024Y-87533547D01*
X143330792Y-87553239D01*
X143343999Y-87561320D01*
X143356343Y-87570294D01*
X143365239Y-87581112D01*
X143370911Y-87597421D01*
X143373586Y-87622869D01*
X143373490Y-87661104D01*
X143370850Y-87715774D01*
X143365890Y-87790526D01*
X143361777Y-87848179D01*
X143354498Y-87949498D01*
X143349004Y-88027795D01*
X143345245Y-88086036D01*
X143343168Y-88127185D01*
X143342724Y-88154208D01*
X143343859Y-88170069D01*
X143346523Y-88177734D01*
X143350665Y-88180167D01*
X143356024Y-88180333D01*
X143373810Y-88169543D01*
X143381272Y-88155625D01*
X143394672Y-88131591D01*
X143419455Y-88099460D01*
X143432418Y-88085001D01*
X143465359Y-88045312D01*
X143499106Y-87997473D01*
X143512254Y-87976196D01*
X143538188Y-87935454D01*
X143564236Y-87900584D01*
X143576485Y-87887153D01*
X143593477Y-87866377D01*
X143620157Y-87828252D01*
X143642267Y-87794447D01*
X143873334Y-87794447D01*
X143890628Y-87821198D01*
X143924436Y-87841477D01*
X143957455Y-87836740D01*
X143986350Y-87807896D01*
X143994613Y-87792820D01*
X144013827Y-87738800D01*
X144023066Y-87683216D01*
X144021674Y-87634409D01*
X144009635Y-87601544D01*
X143997616Y-87588216D01*
X143987947Y-87589880D01*
X143975920Y-87609953D01*
X143964781Y-87634108D01*
X143941370Y-87676573D01*
X143913741Y-87713899D01*
X143904493Y-87723450D01*
X143875995Y-87760189D01*
X143873334Y-87794447D01*
X143642267Y-87794447D01*
X143653076Y-87777922D01*
X143688782Y-87720534D01*
X143694363Y-87711307D01*
X143744807Y-87630627D01*
X143787663Y-87569727D01*
X143826249Y-87524724D01*
X143863878Y-87491738D01*
X143902487Y-87467610D01*
X143945335Y-87452562D01*
X143988843Y-87449012D01*
X144022968Y-87457313D01*
X144030857Y-87463103D01*
X144056931Y-87477593D01*
X144079612Y-87466873D01*
X144097636Y-87431696D01*
X144100625Y-87421590D01*
X144127521Y-87332905D01*
X144159234Y-87245605D01*
X144192207Y-87169009D01*
X144211281Y-87131769D01*
X144234155Y-87089145D01*
X144265472Y-87028388D01*
X144302548Y-86954923D01*
X144342699Y-86874172D01*
X144383242Y-86791559D01*
X144421492Y-86712507D01*
X144454765Y-86642439D01*
X144473962Y-86600974D01*
X144496837Y-86555094D01*
X144518026Y-86520115D01*
X144534011Y-86501594D01*
X144537871Y-86500026D01*
X144559892Y-86507966D01*
X144591057Y-86527790D01*
X144623853Y-86553503D01*
X144650768Y-86579110D01*
X144664288Y-86598616D01*
X144664724Y-86601250D01*
X144661416Y-86627512D01*
X144653115Y-86668341D01*
X144642249Y-86713335D01*
X144631249Y-86752091D01*
X144625993Y-86767051D01*
X144616129Y-86795569D01*
X144603914Y-86836038D01*
X144599599Y-86851490D01*
X144583905Y-86899221D01*
X144562533Y-86952622D01*
X144552575Y-86974415D01*
X144535053Y-87014206D01*
X144523670Y-87046699D01*
X144521245Y-87059310D01*
X144516733Y-87085537D01*
X144506009Y-87122120D01*
X144492789Y-87158122D01*
X144480788Y-87182608D01*
X144478266Y-87185799D01*
X144471149Y-87204711D01*
X144469339Y-87224351D01*
X144464199Y-87251065D01*
X144456313Y-87262026D01*
X144447418Y-87279390D01*
X144443319Y-87310795D01*
X144443288Y-87313841D01*
X144437508Y-87357258D01*
X144424932Y-87394483D01*
X144411630Y-87425558D01*
X144394406Y-87471571D01*
X144376995Y-87522538D01*
X144356760Y-87578183D01*
X144329427Y-87644578D01*
X144300108Y-87709459D01*
X144292855Y-87724436D01*
X144263803Y-87783873D01*
X144243597Y-87827258D01*
X144229371Y-87861807D01*
X144218259Y-87894738D01*
X144207396Y-87933269D01*
X144202341Y-87952385D01*
X144194175Y-87990316D01*
X144185464Y-88041837D01*
X144176882Y-88101254D01*
X144169104Y-88162876D01*
X144162803Y-88221012D01*
X144158652Y-88269968D01*
X144157327Y-88304055D01*
X144159132Y-88317340D01*
X144177630Y-88318323D01*
X144208162Y-88296986D01*
X144250240Y-88253852D01*
X144303377Y-88189445D01*
X144367083Y-88104290D01*
X144397698Y-88061292D01*
X144434505Y-88010218D01*
X144477206Y-87952811D01*
X144509620Y-87910462D01*
X144543769Y-87862087D01*
X144574310Y-87810950D01*
X144593438Y-87770908D01*
X144616327Y-87725697D01*
X144647034Y-87696023D01*
X144690048Y-87679970D01*
X144749862Y-87675620D01*
X144808899Y-87678925D01*
X144880628Y-87681678D01*
X144931652Y-87674583D01*
X144965733Y-87656747D01*
X144981243Y-87637867D01*
X145012406Y-87608099D01*
X145057623Y-87591309D01*
X145106725Y-87590892D01*
X145115777Y-87592978D01*
X145165469Y-87616436D01*
X145192811Y-87651316D01*
X145197146Y-87694619D01*
X145177818Y-87743343D01*
X145155204Y-87773244D01*
X145114228Y-87837537D01*
X145092104Y-87913406D01*
X145091125Y-87989828D01*
X145097799Y-88040298D01*
X145161555Y-88032746D01*
X145213332Y-88020676D01*
X145267217Y-87998545D01*
X145316585Y-87970236D01*
X145354813Y-87939635D01*
X145375279Y-87910623D01*
X145376375Y-87906795D01*
X145401872Y-87808851D01*
X145434062Y-87711477D01*
X145470623Y-87620161D01*
X145509238Y-87540390D01*
X145547585Y-87477652D01*
X145569099Y-87450897D01*
X145595283Y-87418791D01*
X145614462Y-87389026D01*
X145631412Y-87367135D01*
X145654949Y-87361475D01*
X145690489Y-87371888D01*
X145720129Y-87385937D01*
X145763862Y-87412602D01*
X145791369Y-87442833D01*
X145805434Y-87482754D01*
X145808841Y-87538490D01*
X145807216Y-87577524D01*
X145800341Y-87643760D01*
X145786865Y-87697692D01*
X145763232Y-87752888D01*
X145759087Y-87761142D01*
X145739517Y-87802650D01*
X145727267Y-87834717D01*
X145724779Y-87850871D01*
X145725079Y-87851287D01*
X145735775Y-87851464D01*
X145755069Y-87837406D01*
X145784244Y-87807703D01*
X145824582Y-87760944D01*
X145877364Y-87695720D01*
X145943873Y-87610620D01*
X145944106Y-87610319D01*
X146003273Y-87535215D01*
X146050055Y-87479788D01*
X146086712Y-87442172D01*
X146115504Y-87420497D01*
X146138692Y-87412896D01*
X146158535Y-87417502D01*
X146168850Y-87424568D01*
X146189046Y-87450421D01*
X146195610Y-87465099D01*
X146210224Y-87485588D01*
X146222165Y-87489974D01*
X146236471Y-87492996D01*
X146238069Y-87504773D01*
X146225867Y-87529374D01*
X146201512Y-87566832D01*
X146179479Y-87602465D01*
X146165404Y-87631215D01*
X146162672Y-87641693D01*
X146156975Y-87659911D01*
X146141557Y-87695577D01*
X146118931Y-87743140D01*
X146097686Y-87785329D01*
X146071785Y-87836669D01*
X146051606Y-87878763D01*
X146039419Y-87906731D01*
X146036998Y-87915719D01*
X146048574Y-87910456D01*
X146075545Y-87892669D01*
X146112744Y-87865828D01*
X146124779Y-87856792D01*
X146212602Y-87780600D01*
X146292672Y-87692842D01*
X146356783Y-87602610D01*
X146361780Y-87594179D01*
X146386976Y-87557235D01*
X146424004Y-87510531D01*
X146466060Y-87462509D01*
X146478912Y-87448824D01*
X146518701Y-87408010D01*
X146546171Y-87383108D01*
X146566655Y-87370872D01*
X146585485Y-87368054D01*
X146606543Y-87371113D01*
X146643378Y-87385831D01*
X146670667Y-87416964D01*
X146676980Y-87427969D01*
X146702826Y-87475798D01*
X146665106Y-87547895D01*
X146640035Y-87589843D01*
X146614031Y-87624083D01*
X146597385Y-87639650D01*
X146569073Y-87664415D01*
X146553441Y-87685359D01*
X146545822Y-87706209D01*
X146552732Y-87710860D01*
X146570854Y-87702091D01*
X146596870Y-87682679D01*
X146627465Y-87655406D01*
X146659320Y-87623048D01*
X146689119Y-87588386D01*
X146713545Y-87554198D01*
X146717199Y-87548166D01*
X146753890Y-87499456D01*
X146794756Y-87474848D01*
X146843955Y-87472394D01*
X146867981Y-87477467D01*
X146896447Y-87483635D01*
X146920777Y-87482988D01*
X146948892Y-87473592D01*
X146988714Y-87453517D01*
X147006929Y-87443585D01*
X147056593Y-87414376D01*
X147103206Y-87383730D01*
X147136706Y-87358264D01*
X147136792Y-87358189D01*
X147180809Y-87328321D01*
X147216999Y-87320933D01*
X147242838Y-87335379D01*
X147255799Y-87371017D01*
X147256826Y-87388816D01*
X147247537Y-87419376D01*
X147223513Y-87458654D01*
X147190519Y-87499294D01*
X147154320Y-87533939D01*
X147129826Y-87550869D01*
X147102247Y-87568118D01*
X147088019Y-87581210D01*
X147087493Y-87582887D01*
X147076613Y-87592454D01*
X147048349Y-87609065D01*
X147009265Y-87629511D01*
X146965926Y-87650581D01*
X146924896Y-87669066D01*
X146892739Y-87681756D01*
X146877482Y-87685587D01*
X146859639Y-87694083D01*
X146829514Y-87716233D01*
X146793371Y-87747394D01*
X146790462Y-87750086D01*
X146742701Y-87793283D01*
X146690015Y-87839097D01*
X146653693Y-87869476D01*
X146608544Y-87908295D01*
X146557267Y-87955413D01*
X146514549Y-87997059D01*
X146478767Y-88030912D01*
X146448405Y-88055254D01*
X146428999Y-88065750D01*
X146426774Y-88065776D01*
X146403136Y-88068512D01*
X146383382Y-88076517D01*
X146348604Y-88083280D01*
X146318811Y-88068142D01*
X146298761Y-88035251D01*
X146292929Y-87997674D01*
X146291513Y-87969523D01*
X146285989Y-87951579D01*
X146274439Y-87944962D01*
X146254947Y-87950790D01*
X146225594Y-87970183D01*
X146184465Y-88004257D01*
X146129643Y-88054133D01*
X146059210Y-88120928D01*
X146024487Y-88154321D01*
X145994799Y-88178602D01*
X145969363Y-88192263D01*
X145963384Y-88193359D01*
X145940421Y-88200625D01*
X145934724Y-88206385D01*
X145915013Y-88217205D01*
X145883587Y-88218524D01*
X145852698Y-88211056D01*
X145837752Y-88200740D01*
X145829363Y-88177206D01*
X145828108Y-88133572D01*
X145831327Y-88090022D01*
X145834734Y-88035716D01*
X145831403Y-88005534D01*
X145820740Y-87998281D01*
X145802152Y-88012767D01*
X145796293Y-88019531D01*
X145771787Y-88040411D01*
X145739339Y-88059388D01*
X145681639Y-88088446D01*
X145645222Y-88112032D01*
X145626511Y-88132464D01*
X145626458Y-88132559D01*
X145607946Y-88145466D01*
X145572684Y-88156699D01*
X145549534Y-88160923D01*
X145507516Y-88164896D01*
X145480692Y-88160875D01*
X145458892Y-88146822D01*
X145453131Y-88141591D01*
X145430308Y-88123156D01*
X145410994Y-88121294D01*
X145384198Y-88133159D01*
X145351667Y-88152607D01*
X145310326Y-88180712D01*
X145285063Y-88199309D01*
X145248993Y-88224436D01*
X145218891Y-88241198D01*
X145205175Y-88245462D01*
X145187905Y-88251978D01*
X145185749Y-88257452D01*
X145174293Y-88271187D01*
X145144602Y-88278101D01*
X145103686Y-88277791D01*
X145058561Y-88269852D01*
X145044316Y-88265614D01*
X144979540Y-88233524D01*
X144933239Y-88185806D01*
X144904970Y-88121389D01*
X144894290Y-88039206D01*
X144900754Y-87938185D01*
X144902732Y-87924271D01*
X144912791Y-87857080D01*
X144861374Y-87848393D01*
X144815697Y-87846754D01*
X144779119Y-87856474D01*
X144758328Y-87875182D01*
X144755903Y-87885783D01*
X144747708Y-87905678D01*
X144727313Y-87934010D01*
X144720083Y-87942314D01*
X144696088Y-87972330D01*
X144664833Y-88016326D01*
X144632278Y-88065836D01*
X144625647Y-88076444D01*
X144586292Y-88135001D01*
X144539156Y-88197926D01*
X144494355Y-88251721D01*
X144493808Y-88252328D01*
X144456266Y-88295566D01*
X144423026Y-88336737D01*
X144400218Y-88368185D01*
X144397339Y-88372817D01*
X144371849Y-88403904D01*
X144334950Y-88435978D01*
X144319101Y-88446930D01*
X144277179Y-88476680D01*
X144238076Y-88509545D01*
X144227518Y-88519883D01*
X144205876Y-88544063D01*
X144201798Y-88555211D01*
X144213793Y-88558065D01*
X144215507Y-88558077D01*
X144231604Y-88561470D01*
X144225009Y-88573156D01*
X144206662Y-88581474D01*
X144191704Y-88573108D01*
X144165513Y-88564332D01*
X144134341Y-88565810D01*
X144081044Y-88564370D01*
X144033982Y-88538202D01*
X143994366Y-88488141D01*
X143979921Y-88459470D01*
X143962335Y-88421872D01*
X143948505Y-88396221D01*
X143942423Y-88388744D01*
X143932300Y-88398769D01*
X143921205Y-88416770D01*
X143912599Y-88436522D01*
X143919710Y-88439283D01*
X143927259Y-88436717D01*
X143943667Y-88432148D01*
X143946595Y-88439775D01*
X143936891Y-88464631D01*
X143933301Y-88472570D01*
X143921178Y-88494285D01*
X143910960Y-88494088D01*
X143903111Y-88484763D01*
X143891582Y-88474261D01*
X143878363Y-88479340D01*
X143857424Y-88502796D01*
X143853471Y-88507785D01*
X143826616Y-88541281D01*
X143803190Y-88569505D01*
X143798994Y-88574359D01*
X143782844Y-88602088D01*
X143778980Y-88619862D01*
X143785881Y-88625249D01*
X143806793Y-88609482D01*
X143837391Y-88577529D01*
X143866435Y-88546981D01*
X143887415Y-88528333D01*
X143895982Y-88525427D01*
X143896006Y-88525745D01*
X143887523Y-88550179D01*
X143865802Y-88583637D01*
X143837237Y-88618017D01*
X143808219Y-88645218D01*
X143794888Y-88653928D01*
X143753435Y-88665553D01*
X143699041Y-88668940D01*
X143642599Y-88664564D01*
X143594998Y-88652902D01*
X143577836Y-88644435D01*
X143537688Y-88603934D01*
X143508640Y-88545641D01*
X143493737Y-88476536D01*
X143492416Y-88448647D01*
X143490558Y-88407976D01*
X143485778Y-88379096D01*
X143481383Y-88370437D01*
X143466492Y-88374704D01*
X143442310Y-88393552D01*
X143432537Y-88403200D01*
X143409650Y-88428831D01*
X143403549Y-88443798D01*
X143412262Y-88455509D01*
X143417518Y-88459532D01*
X143437369Y-88478150D01*
X143433605Y-88488800D01*
X143405347Y-88492821D01*
X143395571Y-88492949D01*
X143354864Y-88496325D01*
X143320674Y-88504312D01*
X143285076Y-88509108D01*
X143261893Y-88504984D01*
X143234988Y-88484464D01*
X143210296Y-88449528D01*
X143194870Y-88411355D01*
X143192826Y-88395485D01*
X143187656Y-88370873D01*
X143178452Y-88345568D01*
X143703146Y-88345568D01*
X143708186Y-88372358D01*
X143721535Y-88375038D01*
X143742646Y-88354925D01*
X143760047Y-88335106D01*
X143789121Y-88303618D01*
X143821525Y-88269426D01*
X143858206Y-88227174D01*
X143894444Y-88178680D01*
X143926272Y-88130092D01*
X143949721Y-88087555D01*
X143960825Y-88057216D01*
X143961217Y-88053011D01*
X143950528Y-88036193D01*
X143931297Y-88024985D01*
X143901786Y-88009135D01*
X143866813Y-87984389D01*
X143859464Y-87978397D01*
X143829625Y-87957928D01*
X143805553Y-87949275D01*
X143800426Y-87949850D01*
X143781772Y-87967625D01*
X143760766Y-88003279D01*
X143740545Y-88049223D01*
X143724244Y-88097870D01*
X143714998Y-88141631D01*
X143713994Y-88159002D01*
X143713143Y-88202497D01*
X143709687Y-88257289D01*
X143706197Y-88294308D01*
X143703146Y-88345568D01*
X143178452Y-88345568D01*
X143174833Y-88335621D01*
X143170824Y-88326453D01*
X143156513Y-88292717D01*
X143148090Y-88268611D01*
X143147342Y-88265000D01*
X143142478Y-88245165D01*
X143132210Y-88211953D01*
X143128789Y-88201709D01*
X143119602Y-88165387D01*
X143119048Y-88128378D01*
X143127062Y-88079178D01*
X143128080Y-88074327D01*
X143138495Y-88032284D01*
X143148891Y-88001561D01*
X143155610Y-87990311D01*
X143164618Y-87973163D01*
X143166775Y-87955234D01*
X143165679Y-87935929D01*
X143158262Y-87936979D01*
X143142957Y-87952746D01*
X143126368Y-87977336D01*
X143105101Y-88017896D01*
X143083559Y-88065981D01*
X143082071Y-88069615D01*
X143057797Y-88125664D01*
X143026874Y-88192034D01*
X142995172Y-88256203D01*
X142988658Y-88268815D01*
X142964031Y-88317383D01*
X142944864Y-88357757D01*
X142933884Y-88384068D01*
X142932313Y-88390211D01*
X142923945Y-88415285D01*
X142902987Y-88448215D01*
X142875664Y-88481482D01*
X142848198Y-88507566D01*
X142826812Y-88518948D01*
X142825737Y-88519000D01*
X142791753Y-88514946D01*
X142750720Y-88504804D01*
X142712348Y-88491607D01*
X142686347Y-88478386D01*
X142681769Y-88474044D01*
X142675787Y-88451032D01*
X142673189Y-88407736D01*
X142673818Y-88349683D01*
X142677518Y-88282399D01*
X142684132Y-88211410D01*
X142690655Y-88160795D01*
X142698422Y-88104841D01*
X142701700Y-88068800D01*
X142700211Y-88046874D01*
X142693677Y-88033266D01*
X142684088Y-88024026D01*
X142672206Y-88011318D01*
X142666527Y-87993867D01*
X142666412Y-87965108D01*
X142671222Y-87918474D01*
X142672672Y-87906795D01*
X142680441Y-87849703D01*
X142688924Y-87794500D01*
X142696170Y-87753744D01*
X142701448Y-87716756D01*
X142697418Y-87700226D01*
X142691913Y-87698385D01*
X142678403Y-87709236D01*
X142656946Y-87738114D01*
X142630752Y-87779502D01*
X142603029Y-87827883D01*
X142576984Y-87877741D01*
X142555827Y-87923560D01*
X142545945Y-87949365D01*
X142532439Y-87984308D01*
X142510634Y-88034842D01*
X142483922Y-88093280D01*
X142464134Y-88134744D01*
X142437346Y-88190972D01*
X142414286Y-88241527D01*
X142397798Y-88280047D01*
X142391352Y-88297564D01*
X142380297Y-88324593D01*
X142359913Y-88365538D01*
X142334386Y-88412044D01*
X142331486Y-88417067D01*
X142307477Y-88459584D01*
X142289665Y-88493311D01*
X142281289Y-88512061D01*
X142281031Y-88513461D01*
X142275708Y-88529400D01*
X142261909Y-88561035D01*
X142246939Y-88592599D01*
X142220088Y-88638774D01*
X142196852Y-88660577D01*
X142189409Y-88662282D01*
X142167178Y-88669047D01*
X142161259Y-88676420D01*
X142147184Y-88679975D01*
X142113610Y-88670596D01*
X142084413Y-88658656D01*
X142041221Y-88637173D01*
X142032004Y-88629718D01*
X142176826Y-88629718D01*
X142183339Y-88636231D01*
X142189852Y-88629718D01*
X142183339Y-88623205D01*
X142176826Y-88629718D01*
X142032004Y-88629718D01*
X142016198Y-88616934D01*
X142002511Y-88591873D01*
X141999922Y-88583668D01*
X141987650Y-88553186D01*
X141974185Y-88536262D01*
X141972885Y-88535686D01*
X141957024Y-88541621D01*
X141928055Y-88561740D01*
X141891547Y-88592060D01*
X141881901Y-88600762D01*
X141798245Y-88667680D01*
X141717912Y-88710716D01*
X141637460Y-88731147D01*
X141553448Y-88730249D01*
X141538570Y-88728068D01*
X141437484Y-88698793D01*
X141341896Y-88646816D01*
X141257230Y-88575487D01*
X141217884Y-88530002D01*
X141189314Y-88488616D01*
X141161728Y-88441475D01*
X141137918Y-88394428D01*
X141120678Y-88353325D01*
X141112802Y-88324016D01*
X141114502Y-88313495D01*
X141112761Y-88299643D01*
X141102517Y-88269990D01*
X141093190Y-88247522D01*
X141073839Y-88192851D01*
X141053930Y-88117376D01*
X141053473Y-88115205D01*
X141236094Y-88115205D01*
X141241498Y-88177972D01*
X141259031Y-88248073D01*
X141285605Y-88317892D01*
X141318131Y-88379813D01*
X141353522Y-88426218D01*
X141367022Y-88438156D01*
X141405051Y-88469217D01*
X141441014Y-88502471D01*
X141469491Y-88532464D01*
X141485062Y-88553738D01*
X141486467Y-88558382D01*
X141497238Y-88570212D01*
X141523232Y-88585657D01*
X141554969Y-88600058D01*
X141582969Y-88608756D01*
X141590672Y-88609597D01*
X141614046Y-88604459D01*
X141649336Y-88591556D01*
X141663109Y-88585581D01*
X141705120Y-88560742D01*
X141746838Y-88526724D01*
X141782384Y-88489497D01*
X141805875Y-88455034D01*
X141812050Y-88434333D01*
X141817865Y-88408343D01*
X141832585Y-88370003D01*
X141844727Y-88344203D01*
X141862862Y-88305708D01*
X141874663Y-88275384D01*
X141877236Y-88264067D01*
X141882622Y-88247208D01*
X141897456Y-88211457D01*
X141919758Y-88161329D01*
X141947543Y-88101342D01*
X141962399Y-88070050D01*
X141993675Y-88002284D01*
X142021505Y-87937503D01*
X142043441Y-87881739D01*
X142057034Y-87841019D01*
X142059443Y-87831058D01*
X142070879Y-87785856D01*
X142088563Y-87730201D01*
X142105101Y-87685359D01*
X142119524Y-87648064D01*
X142133426Y-87609191D01*
X142147965Y-87564920D01*
X142164302Y-87511432D01*
X142183597Y-87444910D01*
X142207009Y-87361533D01*
X142235699Y-87257483D01*
X142241592Y-87235974D01*
X142274840Y-87114772D01*
X142302115Y-87015916D01*
X142324216Y-86936596D01*
X142341943Y-86874002D01*
X142356095Y-86825326D01*
X142367472Y-86787758D01*
X142376874Y-86758488D01*
X142380591Y-86747513D01*
X142396117Y-86699088D01*
X142412556Y-86642847D01*
X142419486Y-86617256D01*
X142431105Y-86573408D01*
X142440956Y-86537381D01*
X142445153Y-86522820D01*
X142443407Y-86503626D01*
X142431445Y-86500026D01*
X142407068Y-86492949D01*
X142372957Y-86475419D01*
X142337950Y-86452987D01*
X142310886Y-86431204D01*
X142300920Y-86418059D01*
X142296273Y-86396199D01*
X142290393Y-86359789D01*
X142288136Y-86343718D01*
X142279310Y-86294794D01*
X142265551Y-86266361D01*
X142241372Y-86252866D01*
X142201288Y-86248753D01*
X142194202Y-86248611D01*
X142154965Y-86250908D01*
X142116548Y-86260907D01*
X142070570Y-86281348D01*
X142033044Y-86301322D01*
X141993199Y-86326258D01*
X141945819Y-86360359D01*
X141895300Y-86399884D01*
X141846039Y-86441091D01*
X141802430Y-86480240D01*
X141768870Y-86513589D01*
X141749753Y-86537399D01*
X141746980Y-86544786D01*
X141739302Y-86560403D01*
X141720267Y-86586463D01*
X141714416Y-86593581D01*
X141693288Y-86622646D01*
X141682295Y-86645494D01*
X141681852Y-86648727D01*
X141672873Y-86666577D01*
X141650081Y-86693228D01*
X141635281Y-86707551D01*
X141615141Y-86727339D01*
X141597515Y-86749159D01*
X141580584Y-86776761D01*
X141562531Y-86813894D01*
X141541539Y-86864307D01*
X141515790Y-86931751D01*
X141483466Y-87019975D01*
X141482355Y-87023038D01*
X141456189Y-87094009D01*
X141428963Y-87165821D01*
X141403983Y-87229863D01*
X141385364Y-87275622D01*
X141335130Y-87404928D01*
X141295811Y-87528074D01*
X141268097Y-87641781D01*
X141252680Y-87742770D01*
X141250250Y-87827760D01*
X141257793Y-87880744D01*
X141259929Y-87909928D01*
X141257552Y-87954833D01*
X141251354Y-88004487D01*
X141243927Y-88052777D01*
X141238455Y-88092419D01*
X141236101Y-88114977D01*
X141236094Y-88115205D01*
X141053473Y-88115205D01*
X141034718Y-88026282D01*
X141021729Y-87952121D01*
X141023547Y-87914357D01*
X141042520Y-87888230D01*
X141061801Y-87860758D01*
X141069336Y-87819773D01*
X141069723Y-87803827D01*
X141072897Y-87743824D01*
X141081326Y-87670703D01*
X141093567Y-87592999D01*
X141108180Y-87519248D01*
X141123721Y-87457986D01*
X141132662Y-87431359D01*
X141148067Y-87385639D01*
X141164748Y-87326527D01*
X141179273Y-87266252D01*
X141180179Y-87262026D01*
X141200214Y-87171082D01*
X141217198Y-87102662D01*
X141232241Y-87053571D01*
X141246453Y-87020614D01*
X141260941Y-87000598D01*
X141274154Y-86991441D01*
X141301714Y-86965293D01*
X141318818Y-86924470D01*
X141331239Y-86879522D01*
X141343132Y-86837589D01*
X141344840Y-86831708D01*
X141358752Y-86800681D01*
X141383524Y-86759130D01*
X141410182Y-86720990D01*
X141442631Y-86676572D01*
X141482215Y-86620248D01*
X141521950Y-86562005D01*
X141534332Y-86543421D01*
X141570025Y-86492981D01*
X141610147Y-86441872D01*
X141650794Y-86394440D01*
X141688062Y-86355034D01*
X141718046Y-86327998D01*
X141736841Y-86317680D01*
X141737120Y-86317674D01*
X141750108Y-86309531D01*
X141778326Y-86287365D01*
X141817623Y-86254555D01*
X141863844Y-86214485D01*
X141864020Y-86214329D01*
X141981242Y-86110992D01*
X142107587Y-86117291D01*
G04 #@! TO.C,C2*
D13*
X141575533Y-90521742D02*
X141527914Y-90569361D01*
X141385057Y-90616980D01*
X141289819Y-90616980D01*
X141146961Y-90569361D01*
X141051723Y-90474123D01*
X141004104Y-90378885D01*
X140956485Y-90188409D01*
X140956485Y-90045552D01*
X141004104Y-89855076D01*
X141051723Y-89759838D01*
X141146961Y-89664600D01*
X141289819Y-89616980D01*
X141385057Y-89616980D01*
X141527914Y-89664600D01*
X141575533Y-89712219D01*
X141956485Y-89712219D02*
X142004104Y-89664600D01*
X142099342Y-89616980D01*
X142337438Y-89616980D01*
X142432676Y-89664600D01*
X142480295Y-89712219D01*
X142527914Y-89807457D01*
X142527914Y-89902695D01*
X142480295Y-90045552D01*
X141908866Y-90616980D01*
X142527914Y-90616980D01*
G04 #@! TO.C,C3*
X126919733Y-93417342D02*
X126872114Y-93464961D01*
X126729257Y-93512580D01*
X126634019Y-93512580D01*
X126491161Y-93464961D01*
X126395923Y-93369723D01*
X126348304Y-93274485D01*
X126300685Y-93084009D01*
X126300685Y-92941152D01*
X126348304Y-92750676D01*
X126395923Y-92655438D01*
X126491161Y-92560200D01*
X126634019Y-92512580D01*
X126729257Y-92512580D01*
X126872114Y-92560200D01*
X126919733Y-92607819D01*
X127253066Y-92512580D02*
X127872114Y-92512580D01*
X127538780Y-92893533D01*
X127681638Y-92893533D01*
X127776876Y-92941152D01*
X127824495Y-92988771D01*
X127872114Y-93084009D01*
X127872114Y-93322104D01*
X127824495Y-93417342D01*
X127776876Y-93464961D01*
X127681638Y-93512580D01*
X127395923Y-93512580D01*
X127300685Y-93464961D01*
X127253066Y-93417342D01*
G04 #@! TO.C,C4*
X126919733Y-74621342D02*
X126872114Y-74668961D01*
X126729257Y-74716580D01*
X126634019Y-74716580D01*
X126491161Y-74668961D01*
X126395923Y-74573723D01*
X126348304Y-74478485D01*
X126300685Y-74288009D01*
X126300685Y-74145152D01*
X126348304Y-73954676D01*
X126395923Y-73859438D01*
X126491161Y-73764200D01*
X126634019Y-73716580D01*
X126729257Y-73716580D01*
X126872114Y-73764200D01*
X126919733Y-73811819D01*
X127776876Y-74049914D02*
X127776876Y-74716580D01*
X127538780Y-73668961D02*
X127300685Y-74383247D01*
X127919733Y-74383247D01*
G04 #@! TO.C,C5*
X144603133Y-97449450D02*
X144555514Y-97497069D01*
X144412657Y-97544688D01*
X144317419Y-97544688D01*
X144174561Y-97497069D01*
X144079323Y-97401831D01*
X144031704Y-97306593D01*
X143984085Y-97116117D01*
X143984085Y-96973260D01*
X144031704Y-96782784D01*
X144079323Y-96687546D01*
X144174561Y-96592308D01*
X144317419Y-96544688D01*
X144412657Y-96544688D01*
X144555514Y-96592308D01*
X144603133Y-96639927D01*
X145507895Y-96544688D02*
X145031704Y-96544688D01*
X144984085Y-97020879D01*
X145031704Y-96973260D01*
X145126942Y-96925641D01*
X145365038Y-96925641D01*
X145460276Y-96973260D01*
X145507895Y-97020879D01*
X145555514Y-97116117D01*
X145555514Y-97354212D01*
X145507895Y-97449450D01*
X145460276Y-97497069D01*
X145365038Y-97544688D01*
X145126942Y-97544688D01*
X145031704Y-97497069D01*
X144984085Y-97449450D01*
G04 #@! TO.C,C6*
X144603133Y-99092342D02*
X144555514Y-99139961D01*
X144412657Y-99187580D01*
X144317419Y-99187580D01*
X144174561Y-99139961D01*
X144079323Y-99044723D01*
X144031704Y-98949485D01*
X143984085Y-98759009D01*
X143984085Y-98616152D01*
X144031704Y-98425676D01*
X144079323Y-98330438D01*
X144174561Y-98235200D01*
X144317419Y-98187580D01*
X144412657Y-98187580D01*
X144555514Y-98235200D01*
X144603133Y-98282819D01*
X145460276Y-98187580D02*
X145269800Y-98187580D01*
X145174561Y-98235200D01*
X145126942Y-98282819D01*
X145031704Y-98425676D01*
X144984085Y-98616152D01*
X144984085Y-98997104D01*
X145031704Y-99092342D01*
X145079323Y-99139961D01*
X145174561Y-99187580D01*
X145365038Y-99187580D01*
X145460276Y-99139961D01*
X145507895Y-99092342D01*
X145555514Y-98997104D01*
X145555514Y-98759009D01*
X145507895Y-98663771D01*
X145460276Y-98616152D01*
X145365038Y-98568533D01*
X145174561Y-98568533D01*
X145079323Y-98616152D01*
X145031704Y-98663771D01*
X144984085Y-98759009D01*
G04 #@! TO.C,C7*
X159482533Y-103303892D02*
X159434914Y-103351511D01*
X159292057Y-103399130D01*
X159196819Y-103399130D01*
X159053961Y-103351511D01*
X158958723Y-103256273D01*
X158911104Y-103161035D01*
X158863485Y-102970559D01*
X158863485Y-102827702D01*
X158911104Y-102637226D01*
X158958723Y-102541988D01*
X159053961Y-102446750D01*
X159196819Y-102399130D01*
X159292057Y-102399130D01*
X159434914Y-102446750D01*
X159482533Y-102494369D01*
X159815866Y-102399130D02*
X160482533Y-102399130D01*
X160053961Y-103399130D01*
G04 #@! TO.C,R1*
X134199333Y-111096980D02*
X133866000Y-110620790D01*
X133627904Y-111096980D02*
X133627904Y-110096980D01*
X134008857Y-110096980D01*
X134104095Y-110144600D01*
X134151714Y-110192219D01*
X134199333Y-110287457D01*
X134199333Y-110430314D01*
X134151714Y-110525552D01*
X134104095Y-110573171D01*
X134008857Y-110620790D01*
X133627904Y-110620790D01*
X135151714Y-111096980D02*
X134580285Y-111096980D01*
X134866000Y-111096980D02*
X134866000Y-110096980D01*
X134770761Y-110239838D01*
X134675523Y-110335076D01*
X134580285Y-110382695D01*
G04 #@! TO.C,R2*
X134199333Y-108556980D02*
X133866000Y-108080790D01*
X133627904Y-108556980D02*
X133627904Y-107556980D01*
X134008857Y-107556980D01*
X134104095Y-107604600D01*
X134151714Y-107652219D01*
X134199333Y-107747457D01*
X134199333Y-107890314D01*
X134151714Y-107985552D01*
X134104095Y-108033171D01*
X134008857Y-108080790D01*
X133627904Y-108080790D01*
X134580285Y-107652219D02*
X134627904Y-107604600D01*
X134723142Y-107556980D01*
X134961238Y-107556980D01*
X135056476Y-107604600D01*
X135104095Y-107652219D01*
X135151714Y-107747457D01*
X135151714Y-107842695D01*
X135104095Y-107985552D01*
X134532666Y-108556980D01*
X135151714Y-108556980D01*
G04 #@! TO.C,R3*
X134199333Y-106016980D02*
X133866000Y-105540790D01*
X133627904Y-106016980D02*
X133627904Y-105016980D01*
X134008857Y-105016980D01*
X134104095Y-105064600D01*
X134151714Y-105112219D01*
X134199333Y-105207457D01*
X134199333Y-105350314D01*
X134151714Y-105445552D01*
X134104095Y-105493171D01*
X134008857Y-105540790D01*
X133627904Y-105540790D01*
X134532666Y-105016980D02*
X135151714Y-105016980D01*
X134818380Y-105397933D01*
X134961238Y-105397933D01*
X135056476Y-105445552D01*
X135104095Y-105493171D01*
X135151714Y-105588409D01*
X135151714Y-105826504D01*
X135104095Y-105921742D01*
X135056476Y-105969361D01*
X134961238Y-106016980D01*
X134675523Y-106016980D01*
X134580285Y-105969361D01*
X134532666Y-105921742D01*
G04 #@! TO.C,U3*
X151289295Y-104469530D02*
X151289295Y-105279054D01*
X151336914Y-105374292D01*
X151384533Y-105421911D01*
X151479771Y-105469530D01*
X151670247Y-105469530D01*
X151765485Y-105421911D01*
X151813104Y-105374292D01*
X151860723Y-105279054D01*
X151860723Y-104469530D01*
X152241676Y-104469530D02*
X152860723Y-104469530D01*
X152527390Y-104850483D01*
X152670247Y-104850483D01*
X152765485Y-104898102D01*
X152813104Y-104945721D01*
X152860723Y-105040959D01*
X152860723Y-105279054D01*
X152813104Y-105374292D01*
X152765485Y-105421911D01*
X152670247Y-105469530D01*
X152384533Y-105469530D01*
X152289295Y-105421911D01*
X152241676Y-105374292D01*
G04 #@! TO.C,BT1*
X125960285Y-123880571D02*
X126103142Y-123928190D01*
X126150761Y-123975809D01*
X126198380Y-124071047D01*
X126198380Y-124213904D01*
X126150761Y-124309142D01*
X126103142Y-124356761D01*
X126007904Y-124404380D01*
X125626952Y-124404380D01*
X125626952Y-123404380D01*
X125960285Y-123404380D01*
X126055523Y-123452000D01*
X126103142Y-123499619D01*
X126150761Y-123594857D01*
X126150761Y-123690095D01*
X126103142Y-123785333D01*
X126055523Y-123832952D01*
X125960285Y-123880571D01*
X125626952Y-123880571D01*
X126484095Y-123404380D02*
X127055523Y-123404380D01*
X126769809Y-124404380D02*
X126769809Y-123404380D01*
X127912666Y-124404380D02*
X127341238Y-124404380D01*
X127626952Y-124404380D02*
X127626952Y-123404380D01*
X127531714Y-123547238D01*
X127436476Y-123642476D01*
X127341238Y-123690095D01*
G04 #@! TO.C,J2*
X124126666Y-129093980D02*
X124126666Y-129808266D01*
X124079047Y-129951123D01*
X123983809Y-130046361D01*
X123840952Y-130093980D01*
X123745714Y-130093980D01*
X124555238Y-129189219D02*
X124602857Y-129141600D01*
X124698095Y-129093980D01*
X124936190Y-129093980D01*
X125031428Y-129141600D01*
X125079047Y-129189219D01*
X125126666Y-129284457D01*
X125126666Y-129379695D01*
X125079047Y-129522552D01*
X124507619Y-130093980D01*
X125126666Y-130093980D01*
G04 #@! TD*
M02*
