G04 #@! TF.GenerationSoftware,KiCad,Pcbnew,(5.0.2)-1*
G04 #@! TF.CreationDate,2020-06-08T20:07:41-05:00*
G04 #@! TF.ProjectId,Conventional_Display,436f6e76-656e-4746-996f-6e616c5f4469,rev?*
G04 #@! TF.SameCoordinates,Original*
G04 #@! TF.FileFunction,Legend,Bot*
G04 #@! TF.FilePolarity,Positive*
%FSLAX46Y46*%
G04 Gerber Fmt 4.6, Leading zero omitted, Abs format (unit mm)*
G04 Created by KiCad (PCBNEW (5.0.2)-1) date 6/8/2020 8:07:41 PM*
%MOMM*%
%LPD*%
G01*
G04 APERTURE LIST*
%ADD10C,0.120000*%
%ADD11C,0.150000*%
G04 APERTURE END LIST*
D10*
G04 #@! TO.C,R63*
X82118000Y-70694000D02*
X81118000Y-70694000D01*
X81118000Y-72054000D02*
X82118000Y-72054000D01*
D11*
G04 #@! TO.C,U16*
X127827000Y-62864000D02*
X127827000Y-63139000D01*
X120077000Y-62864000D02*
X120077000Y-63229000D01*
X120077000Y-78614000D02*
X120077000Y-78249000D01*
X127827000Y-78614000D02*
X127827000Y-78249000D01*
X127827000Y-62864000D02*
X120077000Y-62864000D01*
X127827000Y-78614000D02*
X120077000Y-78614000D01*
X127827000Y-63139000D02*
X129652000Y-63139000D01*
D10*
G04 #@! TO.C,C1*
X111922000Y-68996000D02*
X111222000Y-68996000D01*
X111222000Y-70196000D02*
X111922000Y-70196000D01*
G04 #@! TO.C,C2*
X79918000Y-68996000D02*
X79218000Y-68996000D01*
X79218000Y-70196000D02*
X79918000Y-70196000D01*
G04 #@! TO.C,C3*
X79918000Y-101000000D02*
X79218000Y-101000000D01*
X79218000Y-102200000D02*
X79918000Y-102200000D01*
G04 #@! TO.C,C4*
X111922000Y-101000000D02*
X111222000Y-101000000D01*
X111222000Y-102200000D02*
X111922000Y-102200000D01*
G04 #@! TO.C,R1*
X141724000Y-44278000D02*
X140724000Y-44278000D01*
X140724000Y-45638000D02*
X141724000Y-45638000D01*
G04 #@! TO.C,R2*
X141724000Y-46818000D02*
X140724000Y-46818000D01*
X140724000Y-48178000D02*
X141724000Y-48178000D01*
G04 #@! TO.C,R3*
X149688000Y-55804000D02*
X149688000Y-56804000D01*
X151048000Y-56804000D02*
X151048000Y-55804000D01*
G04 #@! TO.C,R4*
X147402000Y-55804000D02*
X147402000Y-56804000D01*
X148762000Y-56804000D02*
X148762000Y-55804000D01*
G04 #@! TO.C,R5*
X145206000Y-71620000D02*
X145206000Y-70620000D01*
X143846000Y-70620000D02*
X143846000Y-71620000D01*
G04 #@! TO.C,R6*
X142920000Y-71536000D02*
X142920000Y-70536000D01*
X141560000Y-70536000D02*
X141560000Y-71536000D01*
G04 #@! TO.C,R7*
X143846000Y-63000000D02*
X143846000Y-64000000D01*
X145206000Y-64000000D02*
X145206000Y-63000000D01*
G04 #@! TO.C,R8*
X148344000Y-77388000D02*
X149344000Y-77388000D01*
X149344000Y-76028000D02*
X148344000Y-76028000D01*
G04 #@! TO.C,R9*
X148344000Y-79674000D02*
X149344000Y-79674000D01*
X149344000Y-78314000D02*
X148344000Y-78314000D01*
G04 #@! TO.C,R10*
X148344000Y-95930000D02*
X149344000Y-95930000D01*
X149344000Y-94570000D02*
X148344000Y-94570000D01*
G04 #@! TO.C,R11*
X145206000Y-94480000D02*
X145206000Y-93480000D01*
X143846000Y-93480000D02*
X143846000Y-94480000D01*
G04 #@! TO.C,R12*
X143592000Y-83828000D02*
X143592000Y-84828000D01*
X144952000Y-84828000D02*
X144952000Y-83828000D01*
G04 #@! TO.C,R13*
X148344000Y-102280000D02*
X149344000Y-102280000D01*
X149344000Y-100920000D02*
X148344000Y-100920000D01*
G04 #@! TO.C,R14*
X148344000Y-117520000D02*
X149344000Y-117520000D01*
X149344000Y-116160000D02*
X148344000Y-116160000D01*
G04 #@! TO.C,R15*
X143846000Y-103386000D02*
X143846000Y-104386000D01*
X145206000Y-104386000D02*
X145206000Y-103386000D01*
G04 #@! TO.C,R16*
X141560000Y-103386000D02*
X141560000Y-104386000D01*
X142920000Y-104386000D02*
X142920000Y-103386000D01*
G04 #@! TO.C,R17*
X141724000Y-120732000D02*
X140724000Y-120732000D01*
X140724000Y-122092000D02*
X141724000Y-122092000D01*
G04 #@! TO.C,R18*
X141724000Y-125812000D02*
X140724000Y-125812000D01*
X140724000Y-127172000D02*
X141724000Y-127172000D01*
G04 #@! TO.C,R19*
X127516000Y-132252000D02*
X128516000Y-132252000D01*
X128516000Y-130892000D02*
X127516000Y-130892000D01*
G04 #@! TO.C,R20*
X127516000Y-124632000D02*
X128516000Y-124632000D01*
X128516000Y-123272000D02*
X127516000Y-123272000D01*
G04 #@! TO.C,R21*
X127516000Y-127172000D02*
X128516000Y-127172000D01*
X128516000Y-125812000D02*
X127516000Y-125812000D01*
G04 #@! TO.C,R22*
X116578000Y-120732000D02*
X115578000Y-120732000D01*
X115578000Y-122092000D02*
X116578000Y-122092000D01*
G04 #@! TO.C,R23*
X116578000Y-125812000D02*
X115578000Y-125812000D01*
X115578000Y-127172000D02*
X116578000Y-127172000D01*
G04 #@! TO.C,R24*
X102116000Y-132252000D02*
X103116000Y-132252000D01*
X103116000Y-130892000D02*
X102116000Y-130892000D01*
G04 #@! TO.C,R25*
X102116000Y-129712000D02*
X103116000Y-129712000D01*
X103116000Y-128352000D02*
X102116000Y-128352000D01*
G04 #@! TO.C,R26*
X102116000Y-124632000D02*
X103116000Y-124632000D01*
X103116000Y-123272000D02*
X102116000Y-123272000D01*
G04 #@! TO.C,R27*
X102116000Y-127172000D02*
X103116000Y-127172000D01*
X103116000Y-125812000D02*
X102116000Y-125812000D01*
G04 #@! TO.C,R28*
X92364000Y-120732000D02*
X91364000Y-120732000D01*
X91364000Y-122092000D02*
X92364000Y-122092000D01*
G04 #@! TO.C,R29*
X92364000Y-123272000D02*
X91364000Y-123272000D01*
X91364000Y-124632000D02*
X92364000Y-124632000D01*
G04 #@! TO.C,R30*
X92364000Y-125812000D02*
X91364000Y-125812000D01*
X91364000Y-127172000D02*
X92364000Y-127172000D01*
G04 #@! TO.C,R31*
X72218000Y-104910000D02*
X72218000Y-105910000D01*
X73578000Y-105910000D02*
X73578000Y-104910000D01*
G04 #@! TO.C,R32*
X74504000Y-104910000D02*
X74504000Y-105910000D01*
X75864000Y-105910000D02*
X75864000Y-104910000D01*
G04 #@! TO.C,R33*
X74086000Y-116832000D02*
X74086000Y-115832000D01*
X72726000Y-115832000D02*
X72726000Y-116832000D01*
G04 #@! TO.C,R34*
X67736000Y-120642000D02*
X67736000Y-119642000D01*
X66376000Y-119642000D02*
X66376000Y-120642000D01*
G04 #@! TO.C,R35*
X70022000Y-120642000D02*
X70022000Y-119642000D01*
X68662000Y-119642000D02*
X68662000Y-120642000D01*
G04 #@! TO.C,R36*
X66376000Y-102708000D02*
X66376000Y-103708000D01*
X67736000Y-103708000D02*
X67736000Y-102708000D01*
G04 #@! TO.C,R37*
X68662000Y-102708000D02*
X68662000Y-103708000D01*
X70022000Y-103708000D02*
X70022000Y-102708000D01*
G04 #@! TO.C,R38*
X72218000Y-80018000D02*
X72218000Y-81018000D01*
X73578000Y-81018000D02*
X73578000Y-80018000D01*
G04 #@! TO.C,R39*
X74504000Y-80018000D02*
X74504000Y-81018000D01*
X75864000Y-81018000D02*
X75864000Y-80018000D01*
G04 #@! TO.C,R40*
X73578000Y-88638000D02*
X73578000Y-87638000D01*
X72218000Y-87638000D02*
X72218000Y-88638000D01*
G04 #@! TO.C,R41*
X70022000Y-95750000D02*
X70022000Y-94750000D01*
X68662000Y-94750000D02*
X68662000Y-95750000D01*
G04 #@! TO.C,R42*
X67736000Y-95750000D02*
X67736000Y-94750000D01*
X66376000Y-94750000D02*
X66376000Y-95750000D01*
G04 #@! TO.C,R43*
X64852000Y-55380000D02*
X64852000Y-56380000D01*
X66212000Y-56380000D02*
X66212000Y-55380000D01*
G04 #@! TO.C,R44*
X62566000Y-55380000D02*
X62566000Y-56380000D01*
X63926000Y-56380000D02*
X63926000Y-55380000D01*
G04 #@! TO.C,R45*
X74340000Y-49014000D02*
X74340000Y-48014000D01*
X72980000Y-48014000D02*
X72980000Y-49014000D01*
G04 #@! TO.C,R46*
X76626000Y-49014000D02*
X76626000Y-48014000D01*
X75266000Y-48014000D02*
X75266000Y-49014000D01*
G04 #@! TO.C,R47*
X99396000Y-42680000D02*
X99396000Y-43680000D01*
X100756000Y-43680000D02*
X100756000Y-42680000D01*
G04 #@! TO.C,R48*
X97110000Y-42680000D02*
X97110000Y-43680000D01*
X98470000Y-43680000D02*
X98470000Y-42680000D01*
G04 #@! TO.C,R49*
X74504000Y-55380000D02*
X74504000Y-56380000D01*
X75864000Y-56380000D02*
X75864000Y-55380000D01*
G04 #@! TO.C,R50*
X72218000Y-55380000D02*
X72218000Y-56380000D01*
X73578000Y-56380000D02*
X73578000Y-55380000D01*
G04 #@! TO.C,R51*
X75864000Y-73906000D02*
X75864000Y-72906000D01*
X74504000Y-72906000D02*
X74504000Y-73906000D01*
G04 #@! TO.C,R52*
X71292000Y-73906000D02*
X71292000Y-72906000D01*
X69932000Y-72906000D02*
X69932000Y-73906000D01*
G04 #@! TO.C,R53*
X73578000Y-73906000D02*
X73578000Y-72906000D01*
X72218000Y-72906000D02*
X72218000Y-73906000D01*
G04 #@! TO.C,R54*
X69932000Y-55380000D02*
X69932000Y-56380000D01*
X71292000Y-56380000D02*
X71292000Y-55380000D01*
G04 #@! TO.C,R55*
X96946000Y-50792000D02*
X96946000Y-49792000D01*
X95586000Y-49792000D02*
X95586000Y-50792000D01*
G04 #@! TO.C,R56*
X94660000Y-50792000D02*
X94660000Y-49792000D01*
X93300000Y-49792000D02*
X93300000Y-50792000D01*
G04 #@! TO.C,R57*
X120388000Y-41738000D02*
X119388000Y-41738000D01*
X119388000Y-43098000D02*
X120388000Y-43098000D01*
G04 #@! TO.C,R58*
X120388000Y-44278000D02*
X119388000Y-44278000D01*
X119388000Y-45638000D02*
X120388000Y-45638000D01*
G04 #@! TO.C,R59*
X118790000Y-53332000D02*
X118790000Y-52332000D01*
X117430000Y-52332000D02*
X117430000Y-53332000D01*
G04 #@! TO.C,R60*
X121076000Y-53332000D02*
X121076000Y-52332000D01*
X119716000Y-52332000D02*
X119716000Y-53332000D01*
G04 #@! TO.C,R61*
X123362000Y-53332000D02*
X123362000Y-52332000D01*
X122002000Y-52332000D02*
X122002000Y-53332000D01*
G04 #@! TO.C,R62*
X114122000Y-70694000D02*
X113122000Y-70694000D01*
X113122000Y-72054000D02*
X114122000Y-72054000D01*
G04 #@! TO.C,R64*
X82118000Y-102698000D02*
X81118000Y-102698000D01*
X81118000Y-104058000D02*
X82118000Y-104058000D01*
G04 #@! TO.C,R65*
X114122000Y-102698000D02*
X113122000Y-102698000D01*
X113122000Y-104058000D02*
X114122000Y-104058000D01*
D11*
G04 #@! TO.C,U17*
X95823000Y-62864000D02*
X95823000Y-63139000D01*
X88073000Y-62864000D02*
X88073000Y-63229000D01*
X88073000Y-78614000D02*
X88073000Y-78249000D01*
X95823000Y-78614000D02*
X95823000Y-78249000D01*
X95823000Y-62864000D02*
X88073000Y-62864000D01*
X95823000Y-78614000D02*
X88073000Y-78614000D01*
X95823000Y-63139000D02*
X97648000Y-63139000D01*
G04 #@! TO.C,U18*
X95823000Y-94868000D02*
X95823000Y-95143000D01*
X88073000Y-94868000D02*
X88073000Y-95233000D01*
X88073000Y-110618000D02*
X88073000Y-110253000D01*
X95823000Y-110618000D02*
X95823000Y-110253000D01*
X95823000Y-94868000D02*
X88073000Y-94868000D01*
X95823000Y-110618000D02*
X88073000Y-110618000D01*
X95823000Y-95143000D02*
X97648000Y-95143000D01*
G04 #@! TO.C,U19*
X127827000Y-94868000D02*
X127827000Y-95143000D01*
X120077000Y-94868000D02*
X120077000Y-95233000D01*
X120077000Y-110618000D02*
X120077000Y-110253000D01*
X127827000Y-110618000D02*
X127827000Y-110253000D01*
X127827000Y-94868000D02*
X120077000Y-94868000D01*
X127827000Y-110618000D02*
X120077000Y-110618000D01*
X127827000Y-95143000D02*
X129652000Y-95143000D01*
G04 #@! TO.C,R63*
X82260857Y-73276380D02*
X82594190Y-72800190D01*
X82832285Y-73276380D02*
X82832285Y-72276380D01*
X82451333Y-72276380D01*
X82356095Y-72324000D01*
X82308476Y-72371619D01*
X82260857Y-72466857D01*
X82260857Y-72609714D01*
X82308476Y-72704952D01*
X82356095Y-72752571D01*
X82451333Y-72800190D01*
X82832285Y-72800190D01*
X81403714Y-72276380D02*
X81594190Y-72276380D01*
X81689428Y-72324000D01*
X81737047Y-72371619D01*
X81832285Y-72514476D01*
X81879904Y-72704952D01*
X81879904Y-73085904D01*
X81832285Y-73181142D01*
X81784666Y-73228761D01*
X81689428Y-73276380D01*
X81498952Y-73276380D01*
X81403714Y-73228761D01*
X81356095Y-73181142D01*
X81308476Y-73085904D01*
X81308476Y-72847809D01*
X81356095Y-72752571D01*
X81403714Y-72704952D01*
X81498952Y-72657333D01*
X81689428Y-72657333D01*
X81784666Y-72704952D01*
X81832285Y-72752571D01*
X81879904Y-72847809D01*
X80975142Y-72276380D02*
X80356095Y-72276380D01*
X80689428Y-72657333D01*
X80546571Y-72657333D01*
X80451333Y-72704952D01*
X80403714Y-72752571D01*
X80356095Y-72847809D01*
X80356095Y-73085904D01*
X80403714Y-73181142D01*
X80451333Y-73228761D01*
X80546571Y-73276380D01*
X80832285Y-73276380D01*
X80927523Y-73228761D01*
X80975142Y-73181142D01*
G04 #@! TO.C,U16*
X125190095Y-61391380D02*
X125190095Y-62200904D01*
X125142476Y-62296142D01*
X125094857Y-62343761D01*
X124999619Y-62391380D01*
X124809142Y-62391380D01*
X124713904Y-62343761D01*
X124666285Y-62296142D01*
X124618666Y-62200904D01*
X124618666Y-61391380D01*
X123618666Y-62391380D02*
X124190095Y-62391380D01*
X123904380Y-62391380D02*
X123904380Y-61391380D01*
X123999619Y-61534238D01*
X124094857Y-61629476D01*
X124190095Y-61677095D01*
X122761523Y-61391380D02*
X122952000Y-61391380D01*
X123047238Y-61439000D01*
X123094857Y-61486619D01*
X123190095Y-61629476D01*
X123237714Y-61819952D01*
X123237714Y-62200904D01*
X123190095Y-62296142D01*
X123142476Y-62343761D01*
X123047238Y-62391380D01*
X122856761Y-62391380D01*
X122761523Y-62343761D01*
X122713904Y-62296142D01*
X122666285Y-62200904D01*
X122666285Y-61962809D01*
X122713904Y-61867571D01*
X122761523Y-61819952D01*
X122856761Y-61772333D01*
X123047238Y-61772333D01*
X123142476Y-61819952D01*
X123190095Y-61867571D01*
X123237714Y-61962809D01*
G04 #@! TO.C,C1*
X111738666Y-68703142D02*
X111786285Y-68750761D01*
X111929142Y-68798380D01*
X112024380Y-68798380D01*
X112167238Y-68750761D01*
X112262476Y-68655523D01*
X112310095Y-68560285D01*
X112357714Y-68369809D01*
X112357714Y-68226952D01*
X112310095Y-68036476D01*
X112262476Y-67941238D01*
X112167238Y-67846000D01*
X112024380Y-67798380D01*
X111929142Y-67798380D01*
X111786285Y-67846000D01*
X111738666Y-67893619D01*
X110786285Y-68798380D02*
X111357714Y-68798380D01*
X111072000Y-68798380D02*
X111072000Y-67798380D01*
X111167238Y-67941238D01*
X111262476Y-68036476D01*
X111357714Y-68084095D01*
G04 #@! TO.C,C2*
X79734666Y-68703142D02*
X79782285Y-68750761D01*
X79925142Y-68798380D01*
X80020380Y-68798380D01*
X80163238Y-68750761D01*
X80258476Y-68655523D01*
X80306095Y-68560285D01*
X80353714Y-68369809D01*
X80353714Y-68226952D01*
X80306095Y-68036476D01*
X80258476Y-67941238D01*
X80163238Y-67846000D01*
X80020380Y-67798380D01*
X79925142Y-67798380D01*
X79782285Y-67846000D01*
X79734666Y-67893619D01*
X79353714Y-67893619D02*
X79306095Y-67846000D01*
X79210857Y-67798380D01*
X78972761Y-67798380D01*
X78877523Y-67846000D01*
X78829904Y-67893619D01*
X78782285Y-67988857D01*
X78782285Y-68084095D01*
X78829904Y-68226952D01*
X79401333Y-68798380D01*
X78782285Y-68798380D01*
G04 #@! TO.C,C3*
X79734666Y-100636342D02*
X79782285Y-100683961D01*
X79925142Y-100731580D01*
X80020380Y-100731580D01*
X80163238Y-100683961D01*
X80258476Y-100588723D01*
X80306095Y-100493485D01*
X80353714Y-100303009D01*
X80353714Y-100160152D01*
X80306095Y-99969676D01*
X80258476Y-99874438D01*
X80163238Y-99779200D01*
X80020380Y-99731580D01*
X79925142Y-99731580D01*
X79782285Y-99779200D01*
X79734666Y-99826819D01*
X79401333Y-99731580D02*
X78782285Y-99731580D01*
X79115619Y-100112533D01*
X78972761Y-100112533D01*
X78877523Y-100160152D01*
X78829904Y-100207771D01*
X78782285Y-100303009D01*
X78782285Y-100541104D01*
X78829904Y-100636342D01*
X78877523Y-100683961D01*
X78972761Y-100731580D01*
X79258476Y-100731580D01*
X79353714Y-100683961D01*
X79401333Y-100636342D01*
G04 #@! TO.C,C4*
X111738666Y-100707142D02*
X111786285Y-100754761D01*
X111929142Y-100802380D01*
X112024380Y-100802380D01*
X112167238Y-100754761D01*
X112262476Y-100659523D01*
X112310095Y-100564285D01*
X112357714Y-100373809D01*
X112357714Y-100230952D01*
X112310095Y-100040476D01*
X112262476Y-99945238D01*
X112167238Y-99850000D01*
X112024380Y-99802380D01*
X111929142Y-99802380D01*
X111786285Y-99850000D01*
X111738666Y-99897619D01*
X110881523Y-100135714D02*
X110881523Y-100802380D01*
X111119619Y-99754761D02*
X111357714Y-100469047D01*
X110738666Y-100469047D01*
G04 #@! TO.C,R1*
X141390666Y-46860380D02*
X141724000Y-46384190D01*
X141962095Y-46860380D02*
X141962095Y-45860380D01*
X141581142Y-45860380D01*
X141485904Y-45908000D01*
X141438285Y-45955619D01*
X141390666Y-46050857D01*
X141390666Y-46193714D01*
X141438285Y-46288952D01*
X141485904Y-46336571D01*
X141581142Y-46384190D01*
X141962095Y-46384190D01*
X140438285Y-46860380D02*
X141009714Y-46860380D01*
X140724000Y-46860380D02*
X140724000Y-45860380D01*
X140819238Y-46003238D01*
X140914476Y-46098476D01*
X141009714Y-46146095D01*
G04 #@! TO.C,R2*
X141390666Y-49400380D02*
X141724000Y-48924190D01*
X141962095Y-49400380D02*
X141962095Y-48400380D01*
X141581142Y-48400380D01*
X141485904Y-48448000D01*
X141438285Y-48495619D01*
X141390666Y-48590857D01*
X141390666Y-48733714D01*
X141438285Y-48828952D01*
X141485904Y-48876571D01*
X141581142Y-48924190D01*
X141962095Y-48924190D01*
X141009714Y-48495619D02*
X140962095Y-48448000D01*
X140866857Y-48400380D01*
X140628761Y-48400380D01*
X140533523Y-48448000D01*
X140485904Y-48495619D01*
X140438285Y-48590857D01*
X140438285Y-48686095D01*
X140485904Y-48828952D01*
X141057333Y-49400380D01*
X140438285Y-49400380D01*
G04 #@! TO.C,R3*
X150820380Y-53190933D02*
X150344190Y-52857600D01*
X150820380Y-52619504D02*
X149820380Y-52619504D01*
X149820380Y-53000457D01*
X149868000Y-53095695D01*
X149915619Y-53143314D01*
X150010857Y-53190933D01*
X150153714Y-53190933D01*
X150248952Y-53143314D01*
X150296571Y-53095695D01*
X150344190Y-53000457D01*
X150344190Y-52619504D01*
X149820380Y-53524266D02*
X149820380Y-54143314D01*
X150201333Y-53809980D01*
X150201333Y-53952838D01*
X150248952Y-54048076D01*
X150296571Y-54095695D01*
X150391809Y-54143314D01*
X150629904Y-54143314D01*
X150725142Y-54095695D01*
X150772761Y-54048076D01*
X150820380Y-53952838D01*
X150820380Y-53667123D01*
X150772761Y-53571885D01*
X150725142Y-53524266D01*
G04 #@! TO.C,R4*
X148534380Y-53190933D02*
X148058190Y-52857600D01*
X148534380Y-52619504D02*
X147534380Y-52619504D01*
X147534380Y-53000457D01*
X147582000Y-53095695D01*
X147629619Y-53143314D01*
X147724857Y-53190933D01*
X147867714Y-53190933D01*
X147962952Y-53143314D01*
X148010571Y-53095695D01*
X148058190Y-53000457D01*
X148058190Y-52619504D01*
X147867714Y-54048076D02*
X148534380Y-54048076D01*
X147486761Y-53809980D02*
X148201047Y-53571885D01*
X148201047Y-54190933D01*
G04 #@! TO.C,R5*
X144978380Y-74001333D02*
X144502190Y-73668000D01*
X144978380Y-73429904D02*
X143978380Y-73429904D01*
X143978380Y-73810857D01*
X144026000Y-73906095D01*
X144073619Y-73953714D01*
X144168857Y-74001333D01*
X144311714Y-74001333D01*
X144406952Y-73953714D01*
X144454571Y-73906095D01*
X144502190Y-73810857D01*
X144502190Y-73429904D01*
X143978380Y-74906095D02*
X143978380Y-74429904D01*
X144454571Y-74382285D01*
X144406952Y-74429904D01*
X144359333Y-74525142D01*
X144359333Y-74763238D01*
X144406952Y-74858476D01*
X144454571Y-74906095D01*
X144549809Y-74953714D01*
X144787904Y-74953714D01*
X144883142Y-74906095D01*
X144930761Y-74858476D01*
X144978380Y-74763238D01*
X144978380Y-74525142D01*
X144930761Y-74429904D01*
X144883142Y-74382285D01*
G04 #@! TO.C,R6*
X142692380Y-73917333D02*
X142216190Y-73584000D01*
X142692380Y-73345904D02*
X141692380Y-73345904D01*
X141692380Y-73726857D01*
X141740000Y-73822095D01*
X141787619Y-73869714D01*
X141882857Y-73917333D01*
X142025714Y-73917333D01*
X142120952Y-73869714D01*
X142168571Y-73822095D01*
X142216190Y-73726857D01*
X142216190Y-73345904D01*
X141692380Y-74774476D02*
X141692380Y-74584000D01*
X141740000Y-74488761D01*
X141787619Y-74441142D01*
X141930476Y-74345904D01*
X142120952Y-74298285D01*
X142501904Y-74298285D01*
X142597142Y-74345904D01*
X142644761Y-74393523D01*
X142692380Y-74488761D01*
X142692380Y-74679238D01*
X142644761Y-74774476D01*
X142597142Y-74822095D01*
X142501904Y-74869714D01*
X142263809Y-74869714D01*
X142168571Y-74822095D01*
X142120952Y-74774476D01*
X142073333Y-74679238D01*
X142073333Y-74488761D01*
X142120952Y-74393523D01*
X142168571Y-74345904D01*
X142263809Y-74298285D01*
G04 #@! TO.C,R7*
X144927580Y-60386933D02*
X144451390Y-60053600D01*
X144927580Y-59815504D02*
X143927580Y-59815504D01*
X143927580Y-60196457D01*
X143975200Y-60291695D01*
X144022819Y-60339314D01*
X144118057Y-60386933D01*
X144260914Y-60386933D01*
X144356152Y-60339314D01*
X144403771Y-60291695D01*
X144451390Y-60196457D01*
X144451390Y-59815504D01*
X143927580Y-60720266D02*
X143927580Y-61386933D01*
X144927580Y-60958361D01*
G04 #@! TO.C,R8*
X149010666Y-75710380D02*
X149344000Y-75234190D01*
X149582095Y-75710380D02*
X149582095Y-74710380D01*
X149201142Y-74710380D01*
X149105904Y-74758000D01*
X149058285Y-74805619D01*
X149010666Y-74900857D01*
X149010666Y-75043714D01*
X149058285Y-75138952D01*
X149105904Y-75186571D01*
X149201142Y-75234190D01*
X149582095Y-75234190D01*
X148439238Y-75138952D02*
X148534476Y-75091333D01*
X148582095Y-75043714D01*
X148629714Y-74948476D01*
X148629714Y-74900857D01*
X148582095Y-74805619D01*
X148534476Y-74758000D01*
X148439238Y-74710380D01*
X148248761Y-74710380D01*
X148153523Y-74758000D01*
X148105904Y-74805619D01*
X148058285Y-74900857D01*
X148058285Y-74948476D01*
X148105904Y-75043714D01*
X148153523Y-75091333D01*
X148248761Y-75138952D01*
X148439238Y-75138952D01*
X148534476Y-75186571D01*
X148582095Y-75234190D01*
X148629714Y-75329428D01*
X148629714Y-75519904D01*
X148582095Y-75615142D01*
X148534476Y-75662761D01*
X148439238Y-75710380D01*
X148248761Y-75710380D01*
X148153523Y-75662761D01*
X148105904Y-75615142D01*
X148058285Y-75519904D01*
X148058285Y-75329428D01*
X148105904Y-75234190D01*
X148153523Y-75186571D01*
X148248761Y-75138952D01*
G04 #@! TO.C,R9*
X149010666Y-77996380D02*
X149344000Y-77520190D01*
X149582095Y-77996380D02*
X149582095Y-76996380D01*
X149201142Y-76996380D01*
X149105904Y-77044000D01*
X149058285Y-77091619D01*
X149010666Y-77186857D01*
X149010666Y-77329714D01*
X149058285Y-77424952D01*
X149105904Y-77472571D01*
X149201142Y-77520190D01*
X149582095Y-77520190D01*
X148534476Y-77996380D02*
X148344000Y-77996380D01*
X148248761Y-77948761D01*
X148201142Y-77901142D01*
X148105904Y-77758285D01*
X148058285Y-77567809D01*
X148058285Y-77186857D01*
X148105904Y-77091619D01*
X148153523Y-77044000D01*
X148248761Y-76996380D01*
X148439238Y-76996380D01*
X148534476Y-77044000D01*
X148582095Y-77091619D01*
X148629714Y-77186857D01*
X148629714Y-77424952D01*
X148582095Y-77520190D01*
X148534476Y-77567809D01*
X148439238Y-77615428D01*
X148248761Y-77615428D01*
X148153523Y-77567809D01*
X148105904Y-77520190D01*
X148058285Y-77424952D01*
G04 #@! TO.C,R10*
X149486857Y-94252380D02*
X149820190Y-93776190D01*
X150058285Y-94252380D02*
X150058285Y-93252380D01*
X149677333Y-93252380D01*
X149582095Y-93300000D01*
X149534476Y-93347619D01*
X149486857Y-93442857D01*
X149486857Y-93585714D01*
X149534476Y-93680952D01*
X149582095Y-93728571D01*
X149677333Y-93776190D01*
X150058285Y-93776190D01*
X148534476Y-94252380D02*
X149105904Y-94252380D01*
X148820190Y-94252380D02*
X148820190Y-93252380D01*
X148915428Y-93395238D01*
X149010666Y-93490476D01*
X149105904Y-93538095D01*
X147915428Y-93252380D02*
X147820190Y-93252380D01*
X147724952Y-93300000D01*
X147677333Y-93347619D01*
X147629714Y-93442857D01*
X147582095Y-93633333D01*
X147582095Y-93871428D01*
X147629714Y-94061904D01*
X147677333Y-94157142D01*
X147724952Y-94204761D01*
X147820190Y-94252380D01*
X147915428Y-94252380D01*
X148010666Y-94204761D01*
X148058285Y-94157142D01*
X148105904Y-94061904D01*
X148153523Y-93871428D01*
X148153523Y-93633333D01*
X148105904Y-93442857D01*
X148058285Y-93347619D01*
X148010666Y-93300000D01*
X147915428Y-93252380D01*
G04 #@! TO.C,R11*
X143528380Y-93337142D02*
X143052190Y-93003809D01*
X143528380Y-92765714D02*
X142528380Y-92765714D01*
X142528380Y-93146666D01*
X142576000Y-93241904D01*
X142623619Y-93289523D01*
X142718857Y-93337142D01*
X142861714Y-93337142D01*
X142956952Y-93289523D01*
X143004571Y-93241904D01*
X143052190Y-93146666D01*
X143052190Y-92765714D01*
X143528380Y-94289523D02*
X143528380Y-93718095D01*
X143528380Y-94003809D02*
X142528380Y-94003809D01*
X142671238Y-93908571D01*
X142766476Y-93813333D01*
X142814095Y-93718095D01*
X143528380Y-95241904D02*
X143528380Y-94670476D01*
X143528380Y-94956190D02*
X142528380Y-94956190D01*
X142671238Y-94860952D01*
X142766476Y-94765714D01*
X142814095Y-94670476D01*
G04 #@! TO.C,R12*
X143200380Y-83685142D02*
X142724190Y-83351809D01*
X143200380Y-83113714D02*
X142200380Y-83113714D01*
X142200380Y-83494666D01*
X142248000Y-83589904D01*
X142295619Y-83637523D01*
X142390857Y-83685142D01*
X142533714Y-83685142D01*
X142628952Y-83637523D01*
X142676571Y-83589904D01*
X142724190Y-83494666D01*
X142724190Y-83113714D01*
X143200380Y-84637523D02*
X143200380Y-84066095D01*
X143200380Y-84351809D02*
X142200380Y-84351809D01*
X142343238Y-84256571D01*
X142438476Y-84161333D01*
X142486095Y-84066095D01*
X142295619Y-85018476D02*
X142248000Y-85066095D01*
X142200380Y-85161333D01*
X142200380Y-85399428D01*
X142248000Y-85494666D01*
X142295619Y-85542285D01*
X142390857Y-85589904D01*
X142486095Y-85589904D01*
X142628952Y-85542285D01*
X143200380Y-84970857D01*
X143200380Y-85589904D01*
G04 #@! TO.C,R13*
X149486857Y-100602380D02*
X149820190Y-100126190D01*
X150058285Y-100602380D02*
X150058285Y-99602380D01*
X149677333Y-99602380D01*
X149582095Y-99650000D01*
X149534476Y-99697619D01*
X149486857Y-99792857D01*
X149486857Y-99935714D01*
X149534476Y-100030952D01*
X149582095Y-100078571D01*
X149677333Y-100126190D01*
X150058285Y-100126190D01*
X148534476Y-100602380D02*
X149105904Y-100602380D01*
X148820190Y-100602380D02*
X148820190Y-99602380D01*
X148915428Y-99745238D01*
X149010666Y-99840476D01*
X149105904Y-99888095D01*
X148201142Y-99602380D02*
X147582095Y-99602380D01*
X147915428Y-99983333D01*
X147772571Y-99983333D01*
X147677333Y-100030952D01*
X147629714Y-100078571D01*
X147582095Y-100173809D01*
X147582095Y-100411904D01*
X147629714Y-100507142D01*
X147677333Y-100554761D01*
X147772571Y-100602380D01*
X148058285Y-100602380D01*
X148153523Y-100554761D01*
X148201142Y-100507142D01*
G04 #@! TO.C,R14*
X149486857Y-115842380D02*
X149820190Y-115366190D01*
X150058285Y-115842380D02*
X150058285Y-114842380D01*
X149677333Y-114842380D01*
X149582095Y-114890000D01*
X149534476Y-114937619D01*
X149486857Y-115032857D01*
X149486857Y-115175714D01*
X149534476Y-115270952D01*
X149582095Y-115318571D01*
X149677333Y-115366190D01*
X150058285Y-115366190D01*
X148534476Y-115842380D02*
X149105904Y-115842380D01*
X148820190Y-115842380D02*
X148820190Y-114842380D01*
X148915428Y-114985238D01*
X149010666Y-115080476D01*
X149105904Y-115128095D01*
X147677333Y-115175714D02*
X147677333Y-115842380D01*
X147915428Y-114794761D02*
X148153523Y-115509047D01*
X147534476Y-115509047D01*
G04 #@! TO.C,R15*
X144978380Y-99687142D02*
X144502190Y-99353809D01*
X144978380Y-99115714D02*
X143978380Y-99115714D01*
X143978380Y-99496666D01*
X144026000Y-99591904D01*
X144073619Y-99639523D01*
X144168857Y-99687142D01*
X144311714Y-99687142D01*
X144406952Y-99639523D01*
X144454571Y-99591904D01*
X144502190Y-99496666D01*
X144502190Y-99115714D01*
X144978380Y-100639523D02*
X144978380Y-100068095D01*
X144978380Y-100353809D02*
X143978380Y-100353809D01*
X144121238Y-100258571D01*
X144216476Y-100163333D01*
X144264095Y-100068095D01*
X143978380Y-101544285D02*
X143978380Y-101068095D01*
X144454571Y-101020476D01*
X144406952Y-101068095D01*
X144359333Y-101163333D01*
X144359333Y-101401428D01*
X144406952Y-101496666D01*
X144454571Y-101544285D01*
X144549809Y-101591904D01*
X144787904Y-101591904D01*
X144883142Y-101544285D01*
X144930761Y-101496666D01*
X144978380Y-101401428D01*
X144978380Y-101163333D01*
X144930761Y-101068095D01*
X144883142Y-101020476D01*
G04 #@! TO.C,R16*
X142692380Y-99687142D02*
X142216190Y-99353809D01*
X142692380Y-99115714D02*
X141692380Y-99115714D01*
X141692380Y-99496666D01*
X141740000Y-99591904D01*
X141787619Y-99639523D01*
X141882857Y-99687142D01*
X142025714Y-99687142D01*
X142120952Y-99639523D01*
X142168571Y-99591904D01*
X142216190Y-99496666D01*
X142216190Y-99115714D01*
X142692380Y-100639523D02*
X142692380Y-100068095D01*
X142692380Y-100353809D02*
X141692380Y-100353809D01*
X141835238Y-100258571D01*
X141930476Y-100163333D01*
X141978095Y-100068095D01*
X141692380Y-101496666D02*
X141692380Y-101306190D01*
X141740000Y-101210952D01*
X141787619Y-101163333D01*
X141930476Y-101068095D01*
X142120952Y-101020476D01*
X142501904Y-101020476D01*
X142597142Y-101068095D01*
X142644761Y-101115714D01*
X142692380Y-101210952D01*
X142692380Y-101401428D01*
X142644761Y-101496666D01*
X142597142Y-101544285D01*
X142501904Y-101591904D01*
X142263809Y-101591904D01*
X142168571Y-101544285D01*
X142120952Y-101496666D01*
X142073333Y-101401428D01*
X142073333Y-101210952D01*
X142120952Y-101115714D01*
X142168571Y-101068095D01*
X142263809Y-101020476D01*
G04 #@! TO.C,R17*
X145168857Y-121864380D02*
X145502190Y-121388190D01*
X145740285Y-121864380D02*
X145740285Y-120864380D01*
X145359333Y-120864380D01*
X145264095Y-120912000D01*
X145216476Y-120959619D01*
X145168857Y-121054857D01*
X145168857Y-121197714D01*
X145216476Y-121292952D01*
X145264095Y-121340571D01*
X145359333Y-121388190D01*
X145740285Y-121388190D01*
X144216476Y-121864380D02*
X144787904Y-121864380D01*
X144502190Y-121864380D02*
X144502190Y-120864380D01*
X144597428Y-121007238D01*
X144692666Y-121102476D01*
X144787904Y-121150095D01*
X143883142Y-120864380D02*
X143216476Y-120864380D01*
X143645047Y-121864380D01*
G04 #@! TO.C,R18*
X145168857Y-126944380D02*
X145502190Y-126468190D01*
X145740285Y-126944380D02*
X145740285Y-125944380D01*
X145359333Y-125944380D01*
X145264095Y-125992000D01*
X145216476Y-126039619D01*
X145168857Y-126134857D01*
X145168857Y-126277714D01*
X145216476Y-126372952D01*
X145264095Y-126420571D01*
X145359333Y-126468190D01*
X145740285Y-126468190D01*
X144216476Y-126944380D02*
X144787904Y-126944380D01*
X144502190Y-126944380D02*
X144502190Y-125944380D01*
X144597428Y-126087238D01*
X144692666Y-126182476D01*
X144787904Y-126230095D01*
X143645047Y-126372952D02*
X143740285Y-126325333D01*
X143787904Y-126277714D01*
X143835523Y-126182476D01*
X143835523Y-126134857D01*
X143787904Y-126039619D01*
X143740285Y-125992000D01*
X143645047Y-125944380D01*
X143454571Y-125944380D01*
X143359333Y-125992000D01*
X143311714Y-126039619D01*
X143264095Y-126134857D01*
X143264095Y-126182476D01*
X143311714Y-126277714D01*
X143359333Y-126325333D01*
X143454571Y-126372952D01*
X143645047Y-126372952D01*
X143740285Y-126420571D01*
X143787904Y-126468190D01*
X143835523Y-126563428D01*
X143835523Y-126753904D01*
X143787904Y-126849142D01*
X143740285Y-126896761D01*
X143645047Y-126944380D01*
X143454571Y-126944380D01*
X143359333Y-126896761D01*
X143311714Y-126849142D01*
X143264095Y-126753904D01*
X143264095Y-126563428D01*
X143311714Y-126468190D01*
X143359333Y-126420571D01*
X143454571Y-126372952D01*
G04 #@! TO.C,R19*
X125356857Y-132024380D02*
X125690190Y-131548190D01*
X125928285Y-132024380D02*
X125928285Y-131024380D01*
X125547333Y-131024380D01*
X125452095Y-131072000D01*
X125404476Y-131119619D01*
X125356857Y-131214857D01*
X125356857Y-131357714D01*
X125404476Y-131452952D01*
X125452095Y-131500571D01*
X125547333Y-131548190D01*
X125928285Y-131548190D01*
X124404476Y-132024380D02*
X124975904Y-132024380D01*
X124690190Y-132024380D02*
X124690190Y-131024380D01*
X124785428Y-131167238D01*
X124880666Y-131262476D01*
X124975904Y-131310095D01*
X123928285Y-132024380D02*
X123737809Y-132024380D01*
X123642571Y-131976761D01*
X123594952Y-131929142D01*
X123499714Y-131786285D01*
X123452095Y-131595809D01*
X123452095Y-131214857D01*
X123499714Y-131119619D01*
X123547333Y-131072000D01*
X123642571Y-131024380D01*
X123833047Y-131024380D01*
X123928285Y-131072000D01*
X123975904Y-131119619D01*
X124023523Y-131214857D01*
X124023523Y-131452952D01*
X123975904Y-131548190D01*
X123928285Y-131595809D01*
X123833047Y-131643428D01*
X123642571Y-131643428D01*
X123547333Y-131595809D01*
X123499714Y-131548190D01*
X123452095Y-131452952D01*
G04 #@! TO.C,R20*
X125356857Y-124404380D02*
X125690190Y-123928190D01*
X125928285Y-124404380D02*
X125928285Y-123404380D01*
X125547333Y-123404380D01*
X125452095Y-123452000D01*
X125404476Y-123499619D01*
X125356857Y-123594857D01*
X125356857Y-123737714D01*
X125404476Y-123832952D01*
X125452095Y-123880571D01*
X125547333Y-123928190D01*
X125928285Y-123928190D01*
X124975904Y-123499619D02*
X124928285Y-123452000D01*
X124833047Y-123404380D01*
X124594952Y-123404380D01*
X124499714Y-123452000D01*
X124452095Y-123499619D01*
X124404476Y-123594857D01*
X124404476Y-123690095D01*
X124452095Y-123832952D01*
X125023523Y-124404380D01*
X124404476Y-124404380D01*
X123785428Y-123404380D02*
X123690190Y-123404380D01*
X123594952Y-123452000D01*
X123547333Y-123499619D01*
X123499714Y-123594857D01*
X123452095Y-123785333D01*
X123452095Y-124023428D01*
X123499714Y-124213904D01*
X123547333Y-124309142D01*
X123594952Y-124356761D01*
X123690190Y-124404380D01*
X123785428Y-124404380D01*
X123880666Y-124356761D01*
X123928285Y-124309142D01*
X123975904Y-124213904D01*
X124023523Y-124023428D01*
X124023523Y-123785333D01*
X123975904Y-123594857D01*
X123928285Y-123499619D01*
X123880666Y-123452000D01*
X123785428Y-123404380D01*
G04 #@! TO.C,R21*
X125356857Y-126944380D02*
X125690190Y-126468190D01*
X125928285Y-126944380D02*
X125928285Y-125944380D01*
X125547333Y-125944380D01*
X125452095Y-125992000D01*
X125404476Y-126039619D01*
X125356857Y-126134857D01*
X125356857Y-126277714D01*
X125404476Y-126372952D01*
X125452095Y-126420571D01*
X125547333Y-126468190D01*
X125928285Y-126468190D01*
X124975904Y-126039619D02*
X124928285Y-125992000D01*
X124833047Y-125944380D01*
X124594952Y-125944380D01*
X124499714Y-125992000D01*
X124452095Y-126039619D01*
X124404476Y-126134857D01*
X124404476Y-126230095D01*
X124452095Y-126372952D01*
X125023523Y-126944380D01*
X124404476Y-126944380D01*
X123452095Y-126944380D02*
X124023523Y-126944380D01*
X123737809Y-126944380D02*
X123737809Y-125944380D01*
X123833047Y-126087238D01*
X123928285Y-126182476D01*
X124023523Y-126230095D01*
G04 #@! TO.C,R22*
X120022857Y-121864380D02*
X120356190Y-121388190D01*
X120594285Y-121864380D02*
X120594285Y-120864380D01*
X120213333Y-120864380D01*
X120118095Y-120912000D01*
X120070476Y-120959619D01*
X120022857Y-121054857D01*
X120022857Y-121197714D01*
X120070476Y-121292952D01*
X120118095Y-121340571D01*
X120213333Y-121388190D01*
X120594285Y-121388190D01*
X119641904Y-120959619D02*
X119594285Y-120912000D01*
X119499047Y-120864380D01*
X119260952Y-120864380D01*
X119165714Y-120912000D01*
X119118095Y-120959619D01*
X119070476Y-121054857D01*
X119070476Y-121150095D01*
X119118095Y-121292952D01*
X119689523Y-121864380D01*
X119070476Y-121864380D01*
X118689523Y-120959619D02*
X118641904Y-120912000D01*
X118546666Y-120864380D01*
X118308571Y-120864380D01*
X118213333Y-120912000D01*
X118165714Y-120959619D01*
X118118095Y-121054857D01*
X118118095Y-121150095D01*
X118165714Y-121292952D01*
X118737142Y-121864380D01*
X118118095Y-121864380D01*
G04 #@! TO.C,R23*
X120022857Y-126944380D02*
X120356190Y-126468190D01*
X120594285Y-126944380D02*
X120594285Y-125944380D01*
X120213333Y-125944380D01*
X120118095Y-125992000D01*
X120070476Y-126039619D01*
X120022857Y-126134857D01*
X120022857Y-126277714D01*
X120070476Y-126372952D01*
X120118095Y-126420571D01*
X120213333Y-126468190D01*
X120594285Y-126468190D01*
X119641904Y-126039619D02*
X119594285Y-125992000D01*
X119499047Y-125944380D01*
X119260952Y-125944380D01*
X119165714Y-125992000D01*
X119118095Y-126039619D01*
X119070476Y-126134857D01*
X119070476Y-126230095D01*
X119118095Y-126372952D01*
X119689523Y-126944380D01*
X119070476Y-126944380D01*
X118737142Y-125944380D02*
X118118095Y-125944380D01*
X118451428Y-126325333D01*
X118308571Y-126325333D01*
X118213333Y-126372952D01*
X118165714Y-126420571D01*
X118118095Y-126515809D01*
X118118095Y-126753904D01*
X118165714Y-126849142D01*
X118213333Y-126896761D01*
X118308571Y-126944380D01*
X118594285Y-126944380D01*
X118689523Y-126896761D01*
X118737142Y-126849142D01*
G04 #@! TO.C,R24*
X99956857Y-132024380D02*
X100290190Y-131548190D01*
X100528285Y-132024380D02*
X100528285Y-131024380D01*
X100147333Y-131024380D01*
X100052095Y-131072000D01*
X100004476Y-131119619D01*
X99956857Y-131214857D01*
X99956857Y-131357714D01*
X100004476Y-131452952D01*
X100052095Y-131500571D01*
X100147333Y-131548190D01*
X100528285Y-131548190D01*
X99575904Y-131119619D02*
X99528285Y-131072000D01*
X99433047Y-131024380D01*
X99194952Y-131024380D01*
X99099714Y-131072000D01*
X99052095Y-131119619D01*
X99004476Y-131214857D01*
X99004476Y-131310095D01*
X99052095Y-131452952D01*
X99623523Y-132024380D01*
X99004476Y-132024380D01*
X98147333Y-131357714D02*
X98147333Y-132024380D01*
X98385428Y-130976761D02*
X98623523Y-131691047D01*
X98004476Y-131691047D01*
G04 #@! TO.C,R25*
X99956857Y-129484380D02*
X100290190Y-129008190D01*
X100528285Y-129484380D02*
X100528285Y-128484380D01*
X100147333Y-128484380D01*
X100052095Y-128532000D01*
X100004476Y-128579619D01*
X99956857Y-128674857D01*
X99956857Y-128817714D01*
X100004476Y-128912952D01*
X100052095Y-128960571D01*
X100147333Y-129008190D01*
X100528285Y-129008190D01*
X99575904Y-128579619D02*
X99528285Y-128532000D01*
X99433047Y-128484380D01*
X99194952Y-128484380D01*
X99099714Y-128532000D01*
X99052095Y-128579619D01*
X99004476Y-128674857D01*
X99004476Y-128770095D01*
X99052095Y-128912952D01*
X99623523Y-129484380D01*
X99004476Y-129484380D01*
X98099714Y-128484380D02*
X98575904Y-128484380D01*
X98623523Y-128960571D01*
X98575904Y-128912952D01*
X98480666Y-128865333D01*
X98242571Y-128865333D01*
X98147333Y-128912952D01*
X98099714Y-128960571D01*
X98052095Y-129055809D01*
X98052095Y-129293904D01*
X98099714Y-129389142D01*
X98147333Y-129436761D01*
X98242571Y-129484380D01*
X98480666Y-129484380D01*
X98575904Y-129436761D01*
X98623523Y-129389142D01*
G04 #@! TO.C,R26*
X99956857Y-124404380D02*
X100290190Y-123928190D01*
X100528285Y-124404380D02*
X100528285Y-123404380D01*
X100147333Y-123404380D01*
X100052095Y-123452000D01*
X100004476Y-123499619D01*
X99956857Y-123594857D01*
X99956857Y-123737714D01*
X100004476Y-123832952D01*
X100052095Y-123880571D01*
X100147333Y-123928190D01*
X100528285Y-123928190D01*
X99575904Y-123499619D02*
X99528285Y-123452000D01*
X99433047Y-123404380D01*
X99194952Y-123404380D01*
X99099714Y-123452000D01*
X99052095Y-123499619D01*
X99004476Y-123594857D01*
X99004476Y-123690095D01*
X99052095Y-123832952D01*
X99623523Y-124404380D01*
X99004476Y-124404380D01*
X98147333Y-123404380D02*
X98337809Y-123404380D01*
X98433047Y-123452000D01*
X98480666Y-123499619D01*
X98575904Y-123642476D01*
X98623523Y-123832952D01*
X98623523Y-124213904D01*
X98575904Y-124309142D01*
X98528285Y-124356761D01*
X98433047Y-124404380D01*
X98242571Y-124404380D01*
X98147333Y-124356761D01*
X98099714Y-124309142D01*
X98052095Y-124213904D01*
X98052095Y-123975809D01*
X98099714Y-123880571D01*
X98147333Y-123832952D01*
X98242571Y-123785333D01*
X98433047Y-123785333D01*
X98528285Y-123832952D01*
X98575904Y-123880571D01*
X98623523Y-123975809D01*
G04 #@! TO.C,R27*
X99956857Y-126944380D02*
X100290190Y-126468190D01*
X100528285Y-126944380D02*
X100528285Y-125944380D01*
X100147333Y-125944380D01*
X100052095Y-125992000D01*
X100004476Y-126039619D01*
X99956857Y-126134857D01*
X99956857Y-126277714D01*
X100004476Y-126372952D01*
X100052095Y-126420571D01*
X100147333Y-126468190D01*
X100528285Y-126468190D01*
X99575904Y-126039619D02*
X99528285Y-125992000D01*
X99433047Y-125944380D01*
X99194952Y-125944380D01*
X99099714Y-125992000D01*
X99052095Y-126039619D01*
X99004476Y-126134857D01*
X99004476Y-126230095D01*
X99052095Y-126372952D01*
X99623523Y-126944380D01*
X99004476Y-126944380D01*
X98671142Y-125944380D02*
X98004476Y-125944380D01*
X98433047Y-126944380D01*
G04 #@! TO.C,R28*
X95892857Y-121864380D02*
X96226190Y-121388190D01*
X96464285Y-121864380D02*
X96464285Y-120864380D01*
X96083333Y-120864380D01*
X95988095Y-120912000D01*
X95940476Y-120959619D01*
X95892857Y-121054857D01*
X95892857Y-121197714D01*
X95940476Y-121292952D01*
X95988095Y-121340571D01*
X96083333Y-121388190D01*
X96464285Y-121388190D01*
X95511904Y-120959619D02*
X95464285Y-120912000D01*
X95369047Y-120864380D01*
X95130952Y-120864380D01*
X95035714Y-120912000D01*
X94988095Y-120959619D01*
X94940476Y-121054857D01*
X94940476Y-121150095D01*
X94988095Y-121292952D01*
X95559523Y-121864380D01*
X94940476Y-121864380D01*
X94369047Y-121292952D02*
X94464285Y-121245333D01*
X94511904Y-121197714D01*
X94559523Y-121102476D01*
X94559523Y-121054857D01*
X94511904Y-120959619D01*
X94464285Y-120912000D01*
X94369047Y-120864380D01*
X94178571Y-120864380D01*
X94083333Y-120912000D01*
X94035714Y-120959619D01*
X93988095Y-121054857D01*
X93988095Y-121102476D01*
X94035714Y-121197714D01*
X94083333Y-121245333D01*
X94178571Y-121292952D01*
X94369047Y-121292952D01*
X94464285Y-121340571D01*
X94511904Y-121388190D01*
X94559523Y-121483428D01*
X94559523Y-121673904D01*
X94511904Y-121769142D01*
X94464285Y-121816761D01*
X94369047Y-121864380D01*
X94178571Y-121864380D01*
X94083333Y-121816761D01*
X94035714Y-121769142D01*
X93988095Y-121673904D01*
X93988095Y-121483428D01*
X94035714Y-121388190D01*
X94083333Y-121340571D01*
X94178571Y-121292952D01*
G04 #@! TO.C,R29*
X95892857Y-124404380D02*
X96226190Y-123928190D01*
X96464285Y-124404380D02*
X96464285Y-123404380D01*
X96083333Y-123404380D01*
X95988095Y-123452000D01*
X95940476Y-123499619D01*
X95892857Y-123594857D01*
X95892857Y-123737714D01*
X95940476Y-123832952D01*
X95988095Y-123880571D01*
X96083333Y-123928190D01*
X96464285Y-123928190D01*
X95511904Y-123499619D02*
X95464285Y-123452000D01*
X95369047Y-123404380D01*
X95130952Y-123404380D01*
X95035714Y-123452000D01*
X94988095Y-123499619D01*
X94940476Y-123594857D01*
X94940476Y-123690095D01*
X94988095Y-123832952D01*
X95559523Y-124404380D01*
X94940476Y-124404380D01*
X94464285Y-124404380D02*
X94273809Y-124404380D01*
X94178571Y-124356761D01*
X94130952Y-124309142D01*
X94035714Y-124166285D01*
X93988095Y-123975809D01*
X93988095Y-123594857D01*
X94035714Y-123499619D01*
X94083333Y-123452000D01*
X94178571Y-123404380D01*
X94369047Y-123404380D01*
X94464285Y-123452000D01*
X94511904Y-123499619D01*
X94559523Y-123594857D01*
X94559523Y-123832952D01*
X94511904Y-123928190D01*
X94464285Y-123975809D01*
X94369047Y-124023428D01*
X94178571Y-124023428D01*
X94083333Y-123975809D01*
X94035714Y-123928190D01*
X93988095Y-123832952D01*
G04 #@! TO.C,R30*
X95892857Y-126944380D02*
X96226190Y-126468190D01*
X96464285Y-126944380D02*
X96464285Y-125944380D01*
X96083333Y-125944380D01*
X95988095Y-125992000D01*
X95940476Y-126039619D01*
X95892857Y-126134857D01*
X95892857Y-126277714D01*
X95940476Y-126372952D01*
X95988095Y-126420571D01*
X96083333Y-126468190D01*
X96464285Y-126468190D01*
X95559523Y-125944380D02*
X94940476Y-125944380D01*
X95273809Y-126325333D01*
X95130952Y-126325333D01*
X95035714Y-126372952D01*
X94988095Y-126420571D01*
X94940476Y-126515809D01*
X94940476Y-126753904D01*
X94988095Y-126849142D01*
X95035714Y-126896761D01*
X95130952Y-126944380D01*
X95416666Y-126944380D01*
X95511904Y-126896761D01*
X95559523Y-126849142D01*
X94321428Y-125944380D02*
X94226190Y-125944380D01*
X94130952Y-125992000D01*
X94083333Y-126039619D01*
X94035714Y-126134857D01*
X93988095Y-126325333D01*
X93988095Y-126563428D01*
X94035714Y-126753904D01*
X94083333Y-126849142D01*
X94130952Y-126896761D01*
X94226190Y-126944380D01*
X94321428Y-126944380D01*
X94416666Y-126896761D01*
X94464285Y-126849142D01*
X94511904Y-126753904D01*
X94559523Y-126563428D01*
X94559523Y-126325333D01*
X94511904Y-126134857D01*
X94464285Y-126039619D01*
X94416666Y-125992000D01*
X94321428Y-125944380D01*
G04 #@! TO.C,R31*
X73350380Y-101295142D02*
X72874190Y-100961809D01*
X73350380Y-100723714D02*
X72350380Y-100723714D01*
X72350380Y-101104666D01*
X72398000Y-101199904D01*
X72445619Y-101247523D01*
X72540857Y-101295142D01*
X72683714Y-101295142D01*
X72778952Y-101247523D01*
X72826571Y-101199904D01*
X72874190Y-101104666D01*
X72874190Y-100723714D01*
X72350380Y-101628476D02*
X72350380Y-102247523D01*
X72731333Y-101914190D01*
X72731333Y-102057047D01*
X72778952Y-102152285D01*
X72826571Y-102199904D01*
X72921809Y-102247523D01*
X73159904Y-102247523D01*
X73255142Y-102199904D01*
X73302761Y-102152285D01*
X73350380Y-102057047D01*
X73350380Y-101771333D01*
X73302761Y-101676095D01*
X73255142Y-101628476D01*
X73350380Y-103199904D02*
X73350380Y-102628476D01*
X73350380Y-102914190D02*
X72350380Y-102914190D01*
X72493238Y-102818952D01*
X72588476Y-102723714D01*
X72636095Y-102628476D01*
G04 #@! TO.C,R32*
X75636380Y-101295142D02*
X75160190Y-100961809D01*
X75636380Y-100723714D02*
X74636380Y-100723714D01*
X74636380Y-101104666D01*
X74684000Y-101199904D01*
X74731619Y-101247523D01*
X74826857Y-101295142D01*
X74969714Y-101295142D01*
X75064952Y-101247523D01*
X75112571Y-101199904D01*
X75160190Y-101104666D01*
X75160190Y-100723714D01*
X74636380Y-101628476D02*
X74636380Y-102247523D01*
X75017333Y-101914190D01*
X75017333Y-102057047D01*
X75064952Y-102152285D01*
X75112571Y-102199904D01*
X75207809Y-102247523D01*
X75445904Y-102247523D01*
X75541142Y-102199904D01*
X75588761Y-102152285D01*
X75636380Y-102057047D01*
X75636380Y-101771333D01*
X75588761Y-101676095D01*
X75541142Y-101628476D01*
X74731619Y-102628476D02*
X74684000Y-102676095D01*
X74636380Y-102771333D01*
X74636380Y-103009428D01*
X74684000Y-103104666D01*
X74731619Y-103152285D01*
X74826857Y-103199904D01*
X74922095Y-103199904D01*
X75064952Y-103152285D01*
X75636380Y-102580857D01*
X75636380Y-103199904D01*
G04 #@! TO.C,R33*
X73858380Y-119245142D02*
X73382190Y-118911809D01*
X73858380Y-118673714D02*
X72858380Y-118673714D01*
X72858380Y-119054666D01*
X72906000Y-119149904D01*
X72953619Y-119197523D01*
X73048857Y-119245142D01*
X73191714Y-119245142D01*
X73286952Y-119197523D01*
X73334571Y-119149904D01*
X73382190Y-119054666D01*
X73382190Y-118673714D01*
X72858380Y-119578476D02*
X72858380Y-120197523D01*
X73239333Y-119864190D01*
X73239333Y-120007047D01*
X73286952Y-120102285D01*
X73334571Y-120149904D01*
X73429809Y-120197523D01*
X73667904Y-120197523D01*
X73763142Y-120149904D01*
X73810761Y-120102285D01*
X73858380Y-120007047D01*
X73858380Y-119721333D01*
X73810761Y-119626095D01*
X73763142Y-119578476D01*
X72858380Y-120530857D02*
X72858380Y-121149904D01*
X73239333Y-120816571D01*
X73239333Y-120959428D01*
X73286952Y-121054666D01*
X73334571Y-121102285D01*
X73429809Y-121149904D01*
X73667904Y-121149904D01*
X73763142Y-121102285D01*
X73810761Y-121054666D01*
X73858380Y-120959428D01*
X73858380Y-120673714D01*
X73810761Y-120578476D01*
X73763142Y-120530857D01*
G04 #@! TO.C,R34*
X67508380Y-115943142D02*
X67032190Y-115609809D01*
X67508380Y-115371714D02*
X66508380Y-115371714D01*
X66508380Y-115752666D01*
X66556000Y-115847904D01*
X66603619Y-115895523D01*
X66698857Y-115943142D01*
X66841714Y-115943142D01*
X66936952Y-115895523D01*
X66984571Y-115847904D01*
X67032190Y-115752666D01*
X67032190Y-115371714D01*
X66508380Y-116276476D02*
X66508380Y-116895523D01*
X66889333Y-116562190D01*
X66889333Y-116705047D01*
X66936952Y-116800285D01*
X66984571Y-116847904D01*
X67079809Y-116895523D01*
X67317904Y-116895523D01*
X67413142Y-116847904D01*
X67460761Y-116800285D01*
X67508380Y-116705047D01*
X67508380Y-116419333D01*
X67460761Y-116324095D01*
X67413142Y-116276476D01*
X66841714Y-117752666D02*
X67508380Y-117752666D01*
X66460761Y-117514571D02*
X67175047Y-117276476D01*
X67175047Y-117895523D01*
G04 #@! TO.C,R35*
X69794380Y-123055142D02*
X69318190Y-122721809D01*
X69794380Y-122483714D02*
X68794380Y-122483714D01*
X68794380Y-122864666D01*
X68842000Y-122959904D01*
X68889619Y-123007523D01*
X68984857Y-123055142D01*
X69127714Y-123055142D01*
X69222952Y-123007523D01*
X69270571Y-122959904D01*
X69318190Y-122864666D01*
X69318190Y-122483714D01*
X68794380Y-123388476D02*
X68794380Y-124007523D01*
X69175333Y-123674190D01*
X69175333Y-123817047D01*
X69222952Y-123912285D01*
X69270571Y-123959904D01*
X69365809Y-124007523D01*
X69603904Y-124007523D01*
X69699142Y-123959904D01*
X69746761Y-123912285D01*
X69794380Y-123817047D01*
X69794380Y-123531333D01*
X69746761Y-123436095D01*
X69699142Y-123388476D01*
X68794380Y-124912285D02*
X68794380Y-124436095D01*
X69270571Y-124388476D01*
X69222952Y-124436095D01*
X69175333Y-124531333D01*
X69175333Y-124769428D01*
X69222952Y-124864666D01*
X69270571Y-124912285D01*
X69365809Y-124959904D01*
X69603904Y-124959904D01*
X69699142Y-124912285D01*
X69746761Y-124864666D01*
X69794380Y-124769428D01*
X69794380Y-124531333D01*
X69746761Y-124436095D01*
X69699142Y-124388476D01*
G04 #@! TO.C,R36*
X67508380Y-99179142D02*
X67032190Y-98845809D01*
X67508380Y-98607714D02*
X66508380Y-98607714D01*
X66508380Y-98988666D01*
X66556000Y-99083904D01*
X66603619Y-99131523D01*
X66698857Y-99179142D01*
X66841714Y-99179142D01*
X66936952Y-99131523D01*
X66984571Y-99083904D01*
X67032190Y-98988666D01*
X67032190Y-98607714D01*
X66508380Y-99512476D02*
X66508380Y-100131523D01*
X66889333Y-99798190D01*
X66889333Y-99941047D01*
X66936952Y-100036285D01*
X66984571Y-100083904D01*
X67079809Y-100131523D01*
X67317904Y-100131523D01*
X67413142Y-100083904D01*
X67460761Y-100036285D01*
X67508380Y-99941047D01*
X67508380Y-99655333D01*
X67460761Y-99560095D01*
X67413142Y-99512476D01*
X66508380Y-100988666D02*
X66508380Y-100798190D01*
X66556000Y-100702952D01*
X66603619Y-100655333D01*
X66746476Y-100560095D01*
X66936952Y-100512476D01*
X67317904Y-100512476D01*
X67413142Y-100560095D01*
X67460761Y-100607714D01*
X67508380Y-100702952D01*
X67508380Y-100893428D01*
X67460761Y-100988666D01*
X67413142Y-101036285D01*
X67317904Y-101083904D01*
X67079809Y-101083904D01*
X66984571Y-101036285D01*
X66936952Y-100988666D01*
X66889333Y-100893428D01*
X66889333Y-100702952D01*
X66936952Y-100607714D01*
X66984571Y-100560095D01*
X67079809Y-100512476D01*
G04 #@! TO.C,R37*
X69794380Y-99179142D02*
X69318190Y-98845809D01*
X69794380Y-98607714D02*
X68794380Y-98607714D01*
X68794380Y-98988666D01*
X68842000Y-99083904D01*
X68889619Y-99131523D01*
X68984857Y-99179142D01*
X69127714Y-99179142D01*
X69222952Y-99131523D01*
X69270571Y-99083904D01*
X69318190Y-98988666D01*
X69318190Y-98607714D01*
X68794380Y-99512476D02*
X68794380Y-100131523D01*
X69175333Y-99798190D01*
X69175333Y-99941047D01*
X69222952Y-100036285D01*
X69270571Y-100083904D01*
X69365809Y-100131523D01*
X69603904Y-100131523D01*
X69699142Y-100083904D01*
X69746761Y-100036285D01*
X69794380Y-99941047D01*
X69794380Y-99655333D01*
X69746761Y-99560095D01*
X69699142Y-99512476D01*
X68794380Y-100464857D02*
X68794380Y-101131523D01*
X69794380Y-100702952D01*
G04 #@! TO.C,R38*
X71508857Y-79700380D02*
X71842190Y-79224190D01*
X72080285Y-79700380D02*
X72080285Y-78700380D01*
X71699333Y-78700380D01*
X71604095Y-78748000D01*
X71556476Y-78795619D01*
X71508857Y-78890857D01*
X71508857Y-79033714D01*
X71556476Y-79128952D01*
X71604095Y-79176571D01*
X71699333Y-79224190D01*
X72080285Y-79224190D01*
X71175523Y-78700380D02*
X70556476Y-78700380D01*
X70889809Y-79081333D01*
X70746952Y-79081333D01*
X70651714Y-79128952D01*
X70604095Y-79176571D01*
X70556476Y-79271809D01*
X70556476Y-79509904D01*
X70604095Y-79605142D01*
X70651714Y-79652761D01*
X70746952Y-79700380D01*
X71032666Y-79700380D01*
X71127904Y-79652761D01*
X71175523Y-79605142D01*
X69985047Y-79128952D02*
X70080285Y-79081333D01*
X70127904Y-79033714D01*
X70175523Y-78938476D01*
X70175523Y-78890857D01*
X70127904Y-78795619D01*
X70080285Y-78748000D01*
X69985047Y-78700380D01*
X69794571Y-78700380D01*
X69699333Y-78748000D01*
X69651714Y-78795619D01*
X69604095Y-78890857D01*
X69604095Y-78938476D01*
X69651714Y-79033714D01*
X69699333Y-79081333D01*
X69794571Y-79128952D01*
X69985047Y-79128952D01*
X70080285Y-79176571D01*
X70127904Y-79224190D01*
X70175523Y-79319428D01*
X70175523Y-79509904D01*
X70127904Y-79605142D01*
X70080285Y-79652761D01*
X69985047Y-79700380D01*
X69794571Y-79700380D01*
X69699333Y-79652761D01*
X69651714Y-79605142D01*
X69604095Y-79509904D01*
X69604095Y-79319428D01*
X69651714Y-79224190D01*
X69699333Y-79176571D01*
X69794571Y-79128952D01*
G04 #@! TO.C,R39*
X78112857Y-79700380D02*
X78446190Y-79224190D01*
X78684285Y-79700380D02*
X78684285Y-78700380D01*
X78303333Y-78700380D01*
X78208095Y-78748000D01*
X78160476Y-78795619D01*
X78112857Y-78890857D01*
X78112857Y-79033714D01*
X78160476Y-79128952D01*
X78208095Y-79176571D01*
X78303333Y-79224190D01*
X78684285Y-79224190D01*
X77779523Y-78700380D02*
X77160476Y-78700380D01*
X77493809Y-79081333D01*
X77350952Y-79081333D01*
X77255714Y-79128952D01*
X77208095Y-79176571D01*
X77160476Y-79271809D01*
X77160476Y-79509904D01*
X77208095Y-79605142D01*
X77255714Y-79652761D01*
X77350952Y-79700380D01*
X77636666Y-79700380D01*
X77731904Y-79652761D01*
X77779523Y-79605142D01*
X76684285Y-79700380D02*
X76493809Y-79700380D01*
X76398571Y-79652761D01*
X76350952Y-79605142D01*
X76255714Y-79462285D01*
X76208095Y-79271809D01*
X76208095Y-78890857D01*
X76255714Y-78795619D01*
X76303333Y-78748000D01*
X76398571Y-78700380D01*
X76589047Y-78700380D01*
X76684285Y-78748000D01*
X76731904Y-78795619D01*
X76779523Y-78890857D01*
X76779523Y-79128952D01*
X76731904Y-79224190D01*
X76684285Y-79271809D01*
X76589047Y-79319428D01*
X76398571Y-79319428D01*
X76303333Y-79271809D01*
X76255714Y-79224190D01*
X76208095Y-79128952D01*
G04 #@! TO.C,R40*
X73350380Y-91051142D02*
X72874190Y-90717809D01*
X73350380Y-90479714D02*
X72350380Y-90479714D01*
X72350380Y-90860666D01*
X72398000Y-90955904D01*
X72445619Y-91003523D01*
X72540857Y-91051142D01*
X72683714Y-91051142D01*
X72778952Y-91003523D01*
X72826571Y-90955904D01*
X72874190Y-90860666D01*
X72874190Y-90479714D01*
X72683714Y-91908285D02*
X73350380Y-91908285D01*
X72302761Y-91670190D02*
X73017047Y-91432095D01*
X73017047Y-92051142D01*
X72350380Y-92622571D02*
X72350380Y-92717809D01*
X72398000Y-92813047D01*
X72445619Y-92860666D01*
X72540857Y-92908285D01*
X72731333Y-92955904D01*
X72969428Y-92955904D01*
X73159904Y-92908285D01*
X73255142Y-92860666D01*
X73302761Y-92813047D01*
X73350380Y-92717809D01*
X73350380Y-92622571D01*
X73302761Y-92527333D01*
X73255142Y-92479714D01*
X73159904Y-92432095D01*
X72969428Y-92384476D01*
X72731333Y-92384476D01*
X72540857Y-92432095D01*
X72445619Y-92479714D01*
X72398000Y-92527333D01*
X72350380Y-92622571D01*
G04 #@! TO.C,R41*
X71318380Y-94607142D02*
X70842190Y-94273809D01*
X71318380Y-94035714D02*
X70318380Y-94035714D01*
X70318380Y-94416666D01*
X70366000Y-94511904D01*
X70413619Y-94559523D01*
X70508857Y-94607142D01*
X70651714Y-94607142D01*
X70746952Y-94559523D01*
X70794571Y-94511904D01*
X70842190Y-94416666D01*
X70842190Y-94035714D01*
X70651714Y-95464285D02*
X71318380Y-95464285D01*
X70270761Y-95226190D02*
X70985047Y-94988095D01*
X70985047Y-95607142D01*
X71318380Y-96511904D02*
X71318380Y-95940476D01*
X71318380Y-96226190D02*
X70318380Y-96226190D01*
X70461238Y-96130952D01*
X70556476Y-96035714D01*
X70604095Y-95940476D01*
G04 #@! TO.C,R42*
X65984380Y-94607142D02*
X65508190Y-94273809D01*
X65984380Y-94035714D02*
X64984380Y-94035714D01*
X64984380Y-94416666D01*
X65032000Y-94511904D01*
X65079619Y-94559523D01*
X65174857Y-94607142D01*
X65317714Y-94607142D01*
X65412952Y-94559523D01*
X65460571Y-94511904D01*
X65508190Y-94416666D01*
X65508190Y-94035714D01*
X65317714Y-95464285D02*
X65984380Y-95464285D01*
X64936761Y-95226190D02*
X65651047Y-94988095D01*
X65651047Y-95607142D01*
X65079619Y-95940476D02*
X65032000Y-95988095D01*
X64984380Y-96083333D01*
X64984380Y-96321428D01*
X65032000Y-96416666D01*
X65079619Y-96464285D01*
X65174857Y-96511904D01*
X65270095Y-96511904D01*
X65412952Y-96464285D01*
X65984380Y-95892857D01*
X65984380Y-96511904D01*
G04 #@! TO.C,R43*
X65984380Y-51681142D02*
X65508190Y-51347809D01*
X65984380Y-51109714D02*
X64984380Y-51109714D01*
X64984380Y-51490666D01*
X65032000Y-51585904D01*
X65079619Y-51633523D01*
X65174857Y-51681142D01*
X65317714Y-51681142D01*
X65412952Y-51633523D01*
X65460571Y-51585904D01*
X65508190Y-51490666D01*
X65508190Y-51109714D01*
X65317714Y-52538285D02*
X65984380Y-52538285D01*
X64936761Y-52300190D02*
X65651047Y-52062095D01*
X65651047Y-52681142D01*
X64984380Y-52966857D02*
X64984380Y-53585904D01*
X65365333Y-53252571D01*
X65365333Y-53395428D01*
X65412952Y-53490666D01*
X65460571Y-53538285D01*
X65555809Y-53585904D01*
X65793904Y-53585904D01*
X65889142Y-53538285D01*
X65936761Y-53490666D01*
X65984380Y-53395428D01*
X65984380Y-53109714D01*
X65936761Y-53014476D01*
X65889142Y-52966857D01*
G04 #@! TO.C,R44*
X63698380Y-51681142D02*
X63222190Y-51347809D01*
X63698380Y-51109714D02*
X62698380Y-51109714D01*
X62698380Y-51490666D01*
X62746000Y-51585904D01*
X62793619Y-51633523D01*
X62888857Y-51681142D01*
X63031714Y-51681142D01*
X63126952Y-51633523D01*
X63174571Y-51585904D01*
X63222190Y-51490666D01*
X63222190Y-51109714D01*
X63031714Y-52538285D02*
X63698380Y-52538285D01*
X62650761Y-52300190D02*
X63365047Y-52062095D01*
X63365047Y-52681142D01*
X63031714Y-53490666D02*
X63698380Y-53490666D01*
X62650761Y-53252571D02*
X63365047Y-53014476D01*
X63365047Y-53633523D01*
G04 #@! TO.C,R45*
X74112380Y-44315142D02*
X73636190Y-43981809D01*
X74112380Y-43743714D02*
X73112380Y-43743714D01*
X73112380Y-44124666D01*
X73160000Y-44219904D01*
X73207619Y-44267523D01*
X73302857Y-44315142D01*
X73445714Y-44315142D01*
X73540952Y-44267523D01*
X73588571Y-44219904D01*
X73636190Y-44124666D01*
X73636190Y-43743714D01*
X73445714Y-45172285D02*
X74112380Y-45172285D01*
X73064761Y-44934190D02*
X73779047Y-44696095D01*
X73779047Y-45315142D01*
X73112380Y-46172285D02*
X73112380Y-45696095D01*
X73588571Y-45648476D01*
X73540952Y-45696095D01*
X73493333Y-45791333D01*
X73493333Y-46029428D01*
X73540952Y-46124666D01*
X73588571Y-46172285D01*
X73683809Y-46219904D01*
X73921904Y-46219904D01*
X74017142Y-46172285D01*
X74064761Y-46124666D01*
X74112380Y-46029428D01*
X74112380Y-45791333D01*
X74064761Y-45696095D01*
X74017142Y-45648476D01*
G04 #@! TO.C,R46*
X76398380Y-44315142D02*
X75922190Y-43981809D01*
X76398380Y-43743714D02*
X75398380Y-43743714D01*
X75398380Y-44124666D01*
X75446000Y-44219904D01*
X75493619Y-44267523D01*
X75588857Y-44315142D01*
X75731714Y-44315142D01*
X75826952Y-44267523D01*
X75874571Y-44219904D01*
X75922190Y-44124666D01*
X75922190Y-43743714D01*
X75731714Y-45172285D02*
X76398380Y-45172285D01*
X75350761Y-44934190D02*
X76065047Y-44696095D01*
X76065047Y-45315142D01*
X75398380Y-46124666D02*
X75398380Y-45934190D01*
X75446000Y-45838952D01*
X75493619Y-45791333D01*
X75636476Y-45696095D01*
X75826952Y-45648476D01*
X76207904Y-45648476D01*
X76303142Y-45696095D01*
X76350761Y-45743714D01*
X76398380Y-45838952D01*
X76398380Y-46029428D01*
X76350761Y-46124666D01*
X76303142Y-46172285D01*
X76207904Y-46219904D01*
X75969809Y-46219904D01*
X75874571Y-46172285D01*
X75826952Y-46124666D01*
X75779333Y-46029428D01*
X75779333Y-45838952D01*
X75826952Y-45743714D01*
X75874571Y-45696095D01*
X75969809Y-45648476D01*
G04 #@! TO.C,R47*
X100528380Y-46093142D02*
X100052190Y-45759809D01*
X100528380Y-45521714D02*
X99528380Y-45521714D01*
X99528380Y-45902666D01*
X99576000Y-45997904D01*
X99623619Y-46045523D01*
X99718857Y-46093142D01*
X99861714Y-46093142D01*
X99956952Y-46045523D01*
X100004571Y-45997904D01*
X100052190Y-45902666D01*
X100052190Y-45521714D01*
X99861714Y-46950285D02*
X100528380Y-46950285D01*
X99480761Y-46712190D02*
X100195047Y-46474095D01*
X100195047Y-47093142D01*
X99528380Y-47378857D02*
X99528380Y-48045523D01*
X100528380Y-47616952D01*
G04 #@! TO.C,R48*
X98242380Y-46093142D02*
X97766190Y-45759809D01*
X98242380Y-45521714D02*
X97242380Y-45521714D01*
X97242380Y-45902666D01*
X97290000Y-45997904D01*
X97337619Y-46045523D01*
X97432857Y-46093142D01*
X97575714Y-46093142D01*
X97670952Y-46045523D01*
X97718571Y-45997904D01*
X97766190Y-45902666D01*
X97766190Y-45521714D01*
X97575714Y-46950285D02*
X98242380Y-46950285D01*
X97194761Y-46712190D02*
X97909047Y-46474095D01*
X97909047Y-47093142D01*
X97670952Y-47616952D02*
X97623333Y-47521714D01*
X97575714Y-47474095D01*
X97480476Y-47426476D01*
X97432857Y-47426476D01*
X97337619Y-47474095D01*
X97290000Y-47521714D01*
X97242380Y-47616952D01*
X97242380Y-47807428D01*
X97290000Y-47902666D01*
X97337619Y-47950285D01*
X97432857Y-47997904D01*
X97480476Y-47997904D01*
X97575714Y-47950285D01*
X97623333Y-47902666D01*
X97670952Y-47807428D01*
X97670952Y-47616952D01*
X97718571Y-47521714D01*
X97766190Y-47474095D01*
X97861428Y-47426476D01*
X98051904Y-47426476D01*
X98147142Y-47474095D01*
X98194761Y-47521714D01*
X98242380Y-47616952D01*
X98242380Y-47807428D01*
X98194761Y-47902666D01*
X98147142Y-47950285D01*
X98051904Y-47997904D01*
X97861428Y-47997904D01*
X97766190Y-47950285D01*
X97718571Y-47902666D01*
X97670952Y-47807428D01*
G04 #@! TO.C,R49*
X75636380Y-51681142D02*
X75160190Y-51347809D01*
X75636380Y-51109714D02*
X74636380Y-51109714D01*
X74636380Y-51490666D01*
X74684000Y-51585904D01*
X74731619Y-51633523D01*
X74826857Y-51681142D01*
X74969714Y-51681142D01*
X75064952Y-51633523D01*
X75112571Y-51585904D01*
X75160190Y-51490666D01*
X75160190Y-51109714D01*
X74969714Y-52538285D02*
X75636380Y-52538285D01*
X74588761Y-52300190D02*
X75303047Y-52062095D01*
X75303047Y-52681142D01*
X75636380Y-53109714D02*
X75636380Y-53300190D01*
X75588761Y-53395428D01*
X75541142Y-53443047D01*
X75398285Y-53538285D01*
X75207809Y-53585904D01*
X74826857Y-53585904D01*
X74731619Y-53538285D01*
X74684000Y-53490666D01*
X74636380Y-53395428D01*
X74636380Y-53204952D01*
X74684000Y-53109714D01*
X74731619Y-53062095D01*
X74826857Y-53014476D01*
X75064952Y-53014476D01*
X75160190Y-53062095D01*
X75207809Y-53109714D01*
X75255428Y-53204952D01*
X75255428Y-53395428D01*
X75207809Y-53490666D01*
X75160190Y-53538285D01*
X75064952Y-53585904D01*
G04 #@! TO.C,R50*
X73350380Y-51681142D02*
X72874190Y-51347809D01*
X73350380Y-51109714D02*
X72350380Y-51109714D01*
X72350380Y-51490666D01*
X72398000Y-51585904D01*
X72445619Y-51633523D01*
X72540857Y-51681142D01*
X72683714Y-51681142D01*
X72778952Y-51633523D01*
X72826571Y-51585904D01*
X72874190Y-51490666D01*
X72874190Y-51109714D01*
X72350380Y-52585904D02*
X72350380Y-52109714D01*
X72826571Y-52062095D01*
X72778952Y-52109714D01*
X72731333Y-52204952D01*
X72731333Y-52443047D01*
X72778952Y-52538285D01*
X72826571Y-52585904D01*
X72921809Y-52633523D01*
X73159904Y-52633523D01*
X73255142Y-52585904D01*
X73302761Y-52538285D01*
X73350380Y-52443047D01*
X73350380Y-52204952D01*
X73302761Y-52109714D01*
X73255142Y-52062095D01*
X72350380Y-53252571D02*
X72350380Y-53347809D01*
X72398000Y-53443047D01*
X72445619Y-53490666D01*
X72540857Y-53538285D01*
X72731333Y-53585904D01*
X72969428Y-53585904D01*
X73159904Y-53538285D01*
X73255142Y-53490666D01*
X73302761Y-53443047D01*
X73350380Y-53347809D01*
X73350380Y-53252571D01*
X73302761Y-53157333D01*
X73255142Y-53109714D01*
X73159904Y-53062095D01*
X72969428Y-53014476D01*
X72731333Y-53014476D01*
X72540857Y-53062095D01*
X72445619Y-53109714D01*
X72398000Y-53157333D01*
X72350380Y-53252571D01*
G04 #@! TO.C,R51*
X75636380Y-76065142D02*
X75160190Y-75731809D01*
X75636380Y-75493714D02*
X74636380Y-75493714D01*
X74636380Y-75874666D01*
X74684000Y-75969904D01*
X74731619Y-76017523D01*
X74826857Y-76065142D01*
X74969714Y-76065142D01*
X75064952Y-76017523D01*
X75112571Y-75969904D01*
X75160190Y-75874666D01*
X75160190Y-75493714D01*
X74636380Y-76969904D02*
X74636380Y-76493714D01*
X75112571Y-76446095D01*
X75064952Y-76493714D01*
X75017333Y-76588952D01*
X75017333Y-76827047D01*
X75064952Y-76922285D01*
X75112571Y-76969904D01*
X75207809Y-77017523D01*
X75445904Y-77017523D01*
X75541142Y-76969904D01*
X75588761Y-76922285D01*
X75636380Y-76827047D01*
X75636380Y-76588952D01*
X75588761Y-76493714D01*
X75541142Y-76446095D01*
X75636380Y-77969904D02*
X75636380Y-77398476D01*
X75636380Y-77684190D02*
X74636380Y-77684190D01*
X74779238Y-77588952D01*
X74874476Y-77493714D01*
X74922095Y-77398476D01*
G04 #@! TO.C,R52*
X71064380Y-76065142D02*
X70588190Y-75731809D01*
X71064380Y-75493714D02*
X70064380Y-75493714D01*
X70064380Y-75874666D01*
X70112000Y-75969904D01*
X70159619Y-76017523D01*
X70254857Y-76065142D01*
X70397714Y-76065142D01*
X70492952Y-76017523D01*
X70540571Y-75969904D01*
X70588190Y-75874666D01*
X70588190Y-75493714D01*
X70064380Y-76969904D02*
X70064380Y-76493714D01*
X70540571Y-76446095D01*
X70492952Y-76493714D01*
X70445333Y-76588952D01*
X70445333Y-76827047D01*
X70492952Y-76922285D01*
X70540571Y-76969904D01*
X70635809Y-77017523D01*
X70873904Y-77017523D01*
X70969142Y-76969904D01*
X71016761Y-76922285D01*
X71064380Y-76827047D01*
X71064380Y-76588952D01*
X71016761Y-76493714D01*
X70969142Y-76446095D01*
X70159619Y-77398476D02*
X70112000Y-77446095D01*
X70064380Y-77541333D01*
X70064380Y-77779428D01*
X70112000Y-77874666D01*
X70159619Y-77922285D01*
X70254857Y-77969904D01*
X70350095Y-77969904D01*
X70492952Y-77922285D01*
X71064380Y-77350857D01*
X71064380Y-77969904D01*
G04 #@! TO.C,R53*
X73350380Y-76065142D02*
X72874190Y-75731809D01*
X73350380Y-75493714D02*
X72350380Y-75493714D01*
X72350380Y-75874666D01*
X72398000Y-75969904D01*
X72445619Y-76017523D01*
X72540857Y-76065142D01*
X72683714Y-76065142D01*
X72778952Y-76017523D01*
X72826571Y-75969904D01*
X72874190Y-75874666D01*
X72874190Y-75493714D01*
X72350380Y-76969904D02*
X72350380Y-76493714D01*
X72826571Y-76446095D01*
X72778952Y-76493714D01*
X72731333Y-76588952D01*
X72731333Y-76827047D01*
X72778952Y-76922285D01*
X72826571Y-76969904D01*
X72921809Y-77017523D01*
X73159904Y-77017523D01*
X73255142Y-76969904D01*
X73302761Y-76922285D01*
X73350380Y-76827047D01*
X73350380Y-76588952D01*
X73302761Y-76493714D01*
X73255142Y-76446095D01*
X72350380Y-77350857D02*
X72350380Y-77969904D01*
X72731333Y-77636571D01*
X72731333Y-77779428D01*
X72778952Y-77874666D01*
X72826571Y-77922285D01*
X72921809Y-77969904D01*
X73159904Y-77969904D01*
X73255142Y-77922285D01*
X73302761Y-77874666D01*
X73350380Y-77779428D01*
X73350380Y-77493714D01*
X73302761Y-77398476D01*
X73255142Y-77350857D01*
G04 #@! TO.C,R54*
X71064380Y-51681142D02*
X70588190Y-51347809D01*
X71064380Y-51109714D02*
X70064380Y-51109714D01*
X70064380Y-51490666D01*
X70112000Y-51585904D01*
X70159619Y-51633523D01*
X70254857Y-51681142D01*
X70397714Y-51681142D01*
X70492952Y-51633523D01*
X70540571Y-51585904D01*
X70588190Y-51490666D01*
X70588190Y-51109714D01*
X70064380Y-52585904D02*
X70064380Y-52109714D01*
X70540571Y-52062095D01*
X70492952Y-52109714D01*
X70445333Y-52204952D01*
X70445333Y-52443047D01*
X70492952Y-52538285D01*
X70540571Y-52585904D01*
X70635809Y-52633523D01*
X70873904Y-52633523D01*
X70969142Y-52585904D01*
X71016761Y-52538285D01*
X71064380Y-52443047D01*
X71064380Y-52204952D01*
X71016761Y-52109714D01*
X70969142Y-52062095D01*
X70397714Y-53490666D02*
X71064380Y-53490666D01*
X70016761Y-53252571D02*
X70731047Y-53014476D01*
X70731047Y-53633523D01*
G04 #@! TO.C,R55*
X95268380Y-49649142D02*
X94792190Y-49315809D01*
X95268380Y-49077714D02*
X94268380Y-49077714D01*
X94268380Y-49458666D01*
X94316000Y-49553904D01*
X94363619Y-49601523D01*
X94458857Y-49649142D01*
X94601714Y-49649142D01*
X94696952Y-49601523D01*
X94744571Y-49553904D01*
X94792190Y-49458666D01*
X94792190Y-49077714D01*
X94268380Y-50553904D02*
X94268380Y-50077714D01*
X94744571Y-50030095D01*
X94696952Y-50077714D01*
X94649333Y-50172952D01*
X94649333Y-50411047D01*
X94696952Y-50506285D01*
X94744571Y-50553904D01*
X94839809Y-50601523D01*
X95077904Y-50601523D01*
X95173142Y-50553904D01*
X95220761Y-50506285D01*
X95268380Y-50411047D01*
X95268380Y-50172952D01*
X95220761Y-50077714D01*
X95173142Y-50030095D01*
X94268380Y-51506285D02*
X94268380Y-51030095D01*
X94744571Y-50982476D01*
X94696952Y-51030095D01*
X94649333Y-51125333D01*
X94649333Y-51363428D01*
X94696952Y-51458666D01*
X94744571Y-51506285D01*
X94839809Y-51553904D01*
X95077904Y-51553904D01*
X95173142Y-51506285D01*
X95220761Y-51458666D01*
X95268380Y-51363428D01*
X95268380Y-51125333D01*
X95220761Y-51030095D01*
X95173142Y-50982476D01*
G04 #@! TO.C,R56*
X92982380Y-49649142D02*
X92506190Y-49315809D01*
X92982380Y-49077714D02*
X91982380Y-49077714D01*
X91982380Y-49458666D01*
X92030000Y-49553904D01*
X92077619Y-49601523D01*
X92172857Y-49649142D01*
X92315714Y-49649142D01*
X92410952Y-49601523D01*
X92458571Y-49553904D01*
X92506190Y-49458666D01*
X92506190Y-49077714D01*
X91982380Y-50553904D02*
X91982380Y-50077714D01*
X92458571Y-50030095D01*
X92410952Y-50077714D01*
X92363333Y-50172952D01*
X92363333Y-50411047D01*
X92410952Y-50506285D01*
X92458571Y-50553904D01*
X92553809Y-50601523D01*
X92791904Y-50601523D01*
X92887142Y-50553904D01*
X92934761Y-50506285D01*
X92982380Y-50411047D01*
X92982380Y-50172952D01*
X92934761Y-50077714D01*
X92887142Y-50030095D01*
X91982380Y-51458666D02*
X91982380Y-51268190D01*
X92030000Y-51172952D01*
X92077619Y-51125333D01*
X92220476Y-51030095D01*
X92410952Y-50982476D01*
X92791904Y-50982476D01*
X92887142Y-51030095D01*
X92934761Y-51077714D01*
X92982380Y-51172952D01*
X92982380Y-51363428D01*
X92934761Y-51458666D01*
X92887142Y-51506285D01*
X92791904Y-51553904D01*
X92553809Y-51553904D01*
X92458571Y-51506285D01*
X92410952Y-51458666D01*
X92363333Y-51363428D01*
X92363333Y-51172952D01*
X92410952Y-51077714D01*
X92458571Y-51030095D01*
X92553809Y-50982476D01*
G04 #@! TO.C,R57*
X124086857Y-42870380D02*
X124420190Y-42394190D01*
X124658285Y-42870380D02*
X124658285Y-41870380D01*
X124277333Y-41870380D01*
X124182095Y-41918000D01*
X124134476Y-41965619D01*
X124086857Y-42060857D01*
X124086857Y-42203714D01*
X124134476Y-42298952D01*
X124182095Y-42346571D01*
X124277333Y-42394190D01*
X124658285Y-42394190D01*
X123182095Y-41870380D02*
X123658285Y-41870380D01*
X123705904Y-42346571D01*
X123658285Y-42298952D01*
X123563047Y-42251333D01*
X123324952Y-42251333D01*
X123229714Y-42298952D01*
X123182095Y-42346571D01*
X123134476Y-42441809D01*
X123134476Y-42679904D01*
X123182095Y-42775142D01*
X123229714Y-42822761D01*
X123324952Y-42870380D01*
X123563047Y-42870380D01*
X123658285Y-42822761D01*
X123705904Y-42775142D01*
X122801142Y-41870380D02*
X122134476Y-41870380D01*
X122563047Y-42870380D01*
G04 #@! TO.C,R58*
X124086857Y-45410380D02*
X124420190Y-44934190D01*
X124658285Y-45410380D02*
X124658285Y-44410380D01*
X124277333Y-44410380D01*
X124182095Y-44458000D01*
X124134476Y-44505619D01*
X124086857Y-44600857D01*
X124086857Y-44743714D01*
X124134476Y-44838952D01*
X124182095Y-44886571D01*
X124277333Y-44934190D01*
X124658285Y-44934190D01*
X123182095Y-44410380D02*
X123658285Y-44410380D01*
X123705904Y-44886571D01*
X123658285Y-44838952D01*
X123563047Y-44791333D01*
X123324952Y-44791333D01*
X123229714Y-44838952D01*
X123182095Y-44886571D01*
X123134476Y-44981809D01*
X123134476Y-45219904D01*
X123182095Y-45315142D01*
X123229714Y-45362761D01*
X123324952Y-45410380D01*
X123563047Y-45410380D01*
X123658285Y-45362761D01*
X123705904Y-45315142D01*
X122563047Y-44838952D02*
X122658285Y-44791333D01*
X122705904Y-44743714D01*
X122753523Y-44648476D01*
X122753523Y-44600857D01*
X122705904Y-44505619D01*
X122658285Y-44458000D01*
X122563047Y-44410380D01*
X122372571Y-44410380D01*
X122277333Y-44458000D01*
X122229714Y-44505619D01*
X122182095Y-44600857D01*
X122182095Y-44648476D01*
X122229714Y-44743714D01*
X122277333Y-44791333D01*
X122372571Y-44838952D01*
X122563047Y-44838952D01*
X122658285Y-44886571D01*
X122705904Y-44934190D01*
X122753523Y-45029428D01*
X122753523Y-45219904D01*
X122705904Y-45315142D01*
X122658285Y-45362761D01*
X122563047Y-45410380D01*
X122372571Y-45410380D01*
X122277333Y-45362761D01*
X122229714Y-45315142D01*
X122182095Y-45219904D01*
X122182095Y-45029428D01*
X122229714Y-44934190D01*
X122277333Y-44886571D01*
X122372571Y-44838952D01*
G04 #@! TO.C,R59*
X118562380Y-55745142D02*
X118086190Y-55411809D01*
X118562380Y-55173714D02*
X117562380Y-55173714D01*
X117562380Y-55554666D01*
X117610000Y-55649904D01*
X117657619Y-55697523D01*
X117752857Y-55745142D01*
X117895714Y-55745142D01*
X117990952Y-55697523D01*
X118038571Y-55649904D01*
X118086190Y-55554666D01*
X118086190Y-55173714D01*
X117562380Y-56649904D02*
X117562380Y-56173714D01*
X118038571Y-56126095D01*
X117990952Y-56173714D01*
X117943333Y-56268952D01*
X117943333Y-56507047D01*
X117990952Y-56602285D01*
X118038571Y-56649904D01*
X118133809Y-56697523D01*
X118371904Y-56697523D01*
X118467142Y-56649904D01*
X118514761Y-56602285D01*
X118562380Y-56507047D01*
X118562380Y-56268952D01*
X118514761Y-56173714D01*
X118467142Y-56126095D01*
X118562380Y-57173714D02*
X118562380Y-57364190D01*
X118514761Y-57459428D01*
X118467142Y-57507047D01*
X118324285Y-57602285D01*
X118133809Y-57649904D01*
X117752857Y-57649904D01*
X117657619Y-57602285D01*
X117610000Y-57554666D01*
X117562380Y-57459428D01*
X117562380Y-57268952D01*
X117610000Y-57173714D01*
X117657619Y-57126095D01*
X117752857Y-57078476D01*
X117990952Y-57078476D01*
X118086190Y-57126095D01*
X118133809Y-57173714D01*
X118181428Y-57268952D01*
X118181428Y-57459428D01*
X118133809Y-57554666D01*
X118086190Y-57602285D01*
X117990952Y-57649904D01*
G04 #@! TO.C,R60*
X120848380Y-55745142D02*
X120372190Y-55411809D01*
X120848380Y-55173714D02*
X119848380Y-55173714D01*
X119848380Y-55554666D01*
X119896000Y-55649904D01*
X119943619Y-55697523D01*
X120038857Y-55745142D01*
X120181714Y-55745142D01*
X120276952Y-55697523D01*
X120324571Y-55649904D01*
X120372190Y-55554666D01*
X120372190Y-55173714D01*
X119848380Y-56602285D02*
X119848380Y-56411809D01*
X119896000Y-56316571D01*
X119943619Y-56268952D01*
X120086476Y-56173714D01*
X120276952Y-56126095D01*
X120657904Y-56126095D01*
X120753142Y-56173714D01*
X120800761Y-56221333D01*
X120848380Y-56316571D01*
X120848380Y-56507047D01*
X120800761Y-56602285D01*
X120753142Y-56649904D01*
X120657904Y-56697523D01*
X120419809Y-56697523D01*
X120324571Y-56649904D01*
X120276952Y-56602285D01*
X120229333Y-56507047D01*
X120229333Y-56316571D01*
X120276952Y-56221333D01*
X120324571Y-56173714D01*
X120419809Y-56126095D01*
X119848380Y-57316571D02*
X119848380Y-57411809D01*
X119896000Y-57507047D01*
X119943619Y-57554666D01*
X120038857Y-57602285D01*
X120229333Y-57649904D01*
X120467428Y-57649904D01*
X120657904Y-57602285D01*
X120753142Y-57554666D01*
X120800761Y-57507047D01*
X120848380Y-57411809D01*
X120848380Y-57316571D01*
X120800761Y-57221333D01*
X120753142Y-57173714D01*
X120657904Y-57126095D01*
X120467428Y-57078476D01*
X120229333Y-57078476D01*
X120038857Y-57126095D01*
X119943619Y-57173714D01*
X119896000Y-57221333D01*
X119848380Y-57316571D01*
G04 #@! TO.C,R61*
X123134380Y-55745142D02*
X122658190Y-55411809D01*
X123134380Y-55173714D02*
X122134380Y-55173714D01*
X122134380Y-55554666D01*
X122182000Y-55649904D01*
X122229619Y-55697523D01*
X122324857Y-55745142D01*
X122467714Y-55745142D01*
X122562952Y-55697523D01*
X122610571Y-55649904D01*
X122658190Y-55554666D01*
X122658190Y-55173714D01*
X122134380Y-56602285D02*
X122134380Y-56411809D01*
X122182000Y-56316571D01*
X122229619Y-56268952D01*
X122372476Y-56173714D01*
X122562952Y-56126095D01*
X122943904Y-56126095D01*
X123039142Y-56173714D01*
X123086761Y-56221333D01*
X123134380Y-56316571D01*
X123134380Y-56507047D01*
X123086761Y-56602285D01*
X123039142Y-56649904D01*
X122943904Y-56697523D01*
X122705809Y-56697523D01*
X122610571Y-56649904D01*
X122562952Y-56602285D01*
X122515333Y-56507047D01*
X122515333Y-56316571D01*
X122562952Y-56221333D01*
X122610571Y-56173714D01*
X122705809Y-56126095D01*
X123134380Y-57649904D02*
X123134380Y-57078476D01*
X123134380Y-57364190D02*
X122134380Y-57364190D01*
X122277238Y-57268952D01*
X122372476Y-57173714D01*
X122420095Y-57078476D01*
G04 #@! TO.C,R62*
X114264857Y-73276380D02*
X114598190Y-72800190D01*
X114836285Y-73276380D02*
X114836285Y-72276380D01*
X114455333Y-72276380D01*
X114360095Y-72324000D01*
X114312476Y-72371619D01*
X114264857Y-72466857D01*
X114264857Y-72609714D01*
X114312476Y-72704952D01*
X114360095Y-72752571D01*
X114455333Y-72800190D01*
X114836285Y-72800190D01*
X113407714Y-72276380D02*
X113598190Y-72276380D01*
X113693428Y-72324000D01*
X113741047Y-72371619D01*
X113836285Y-72514476D01*
X113883904Y-72704952D01*
X113883904Y-73085904D01*
X113836285Y-73181142D01*
X113788666Y-73228761D01*
X113693428Y-73276380D01*
X113502952Y-73276380D01*
X113407714Y-73228761D01*
X113360095Y-73181142D01*
X113312476Y-73085904D01*
X113312476Y-72847809D01*
X113360095Y-72752571D01*
X113407714Y-72704952D01*
X113502952Y-72657333D01*
X113693428Y-72657333D01*
X113788666Y-72704952D01*
X113836285Y-72752571D01*
X113883904Y-72847809D01*
X112931523Y-72371619D02*
X112883904Y-72324000D01*
X112788666Y-72276380D01*
X112550571Y-72276380D01*
X112455333Y-72324000D01*
X112407714Y-72371619D01*
X112360095Y-72466857D01*
X112360095Y-72562095D01*
X112407714Y-72704952D01*
X112979142Y-73276380D01*
X112360095Y-73276380D01*
G04 #@! TO.C,R64*
X82227657Y-105151180D02*
X82560990Y-104674990D01*
X82799085Y-105151180D02*
X82799085Y-104151180D01*
X82418133Y-104151180D01*
X82322895Y-104198800D01*
X82275276Y-104246419D01*
X82227657Y-104341657D01*
X82227657Y-104484514D01*
X82275276Y-104579752D01*
X82322895Y-104627371D01*
X82418133Y-104674990D01*
X82799085Y-104674990D01*
X81370514Y-104151180D02*
X81560990Y-104151180D01*
X81656228Y-104198800D01*
X81703847Y-104246419D01*
X81799085Y-104389276D01*
X81846704Y-104579752D01*
X81846704Y-104960704D01*
X81799085Y-105055942D01*
X81751466Y-105103561D01*
X81656228Y-105151180D01*
X81465752Y-105151180D01*
X81370514Y-105103561D01*
X81322895Y-105055942D01*
X81275276Y-104960704D01*
X81275276Y-104722609D01*
X81322895Y-104627371D01*
X81370514Y-104579752D01*
X81465752Y-104532133D01*
X81656228Y-104532133D01*
X81751466Y-104579752D01*
X81799085Y-104627371D01*
X81846704Y-104722609D01*
X80418133Y-104484514D02*
X80418133Y-105151180D01*
X80656228Y-104103561D02*
X80894323Y-104817847D01*
X80275276Y-104817847D01*
G04 #@! TO.C,R65*
X114264857Y-105280380D02*
X114598190Y-104804190D01*
X114836285Y-105280380D02*
X114836285Y-104280380D01*
X114455333Y-104280380D01*
X114360095Y-104328000D01*
X114312476Y-104375619D01*
X114264857Y-104470857D01*
X114264857Y-104613714D01*
X114312476Y-104708952D01*
X114360095Y-104756571D01*
X114455333Y-104804190D01*
X114836285Y-104804190D01*
X113407714Y-104280380D02*
X113598190Y-104280380D01*
X113693428Y-104328000D01*
X113741047Y-104375619D01*
X113836285Y-104518476D01*
X113883904Y-104708952D01*
X113883904Y-105089904D01*
X113836285Y-105185142D01*
X113788666Y-105232761D01*
X113693428Y-105280380D01*
X113502952Y-105280380D01*
X113407714Y-105232761D01*
X113360095Y-105185142D01*
X113312476Y-105089904D01*
X113312476Y-104851809D01*
X113360095Y-104756571D01*
X113407714Y-104708952D01*
X113502952Y-104661333D01*
X113693428Y-104661333D01*
X113788666Y-104708952D01*
X113836285Y-104756571D01*
X113883904Y-104851809D01*
X112407714Y-104280380D02*
X112883904Y-104280380D01*
X112931523Y-104756571D01*
X112883904Y-104708952D01*
X112788666Y-104661333D01*
X112550571Y-104661333D01*
X112455333Y-104708952D01*
X112407714Y-104756571D01*
X112360095Y-104851809D01*
X112360095Y-105089904D01*
X112407714Y-105185142D01*
X112455333Y-105232761D01*
X112550571Y-105280380D01*
X112788666Y-105280380D01*
X112883904Y-105232761D01*
X112931523Y-105185142D01*
G04 #@! TO.C,U17*
X93186095Y-61391380D02*
X93186095Y-62200904D01*
X93138476Y-62296142D01*
X93090857Y-62343761D01*
X92995619Y-62391380D01*
X92805142Y-62391380D01*
X92709904Y-62343761D01*
X92662285Y-62296142D01*
X92614666Y-62200904D01*
X92614666Y-61391380D01*
X91614666Y-62391380D02*
X92186095Y-62391380D01*
X91900380Y-62391380D02*
X91900380Y-61391380D01*
X91995619Y-61534238D01*
X92090857Y-61629476D01*
X92186095Y-61677095D01*
X91281333Y-61391380D02*
X90614666Y-61391380D01*
X91043238Y-62391380D01*
G04 #@! TO.C,U18*
X93186095Y-93395380D02*
X93186095Y-94204904D01*
X93138476Y-94300142D01*
X93090857Y-94347761D01*
X92995619Y-94395380D01*
X92805142Y-94395380D01*
X92709904Y-94347761D01*
X92662285Y-94300142D01*
X92614666Y-94204904D01*
X92614666Y-93395380D01*
X91614666Y-94395380D02*
X92186095Y-94395380D01*
X91900380Y-94395380D02*
X91900380Y-93395380D01*
X91995619Y-93538238D01*
X92090857Y-93633476D01*
X92186095Y-93681095D01*
X91043238Y-93823952D02*
X91138476Y-93776333D01*
X91186095Y-93728714D01*
X91233714Y-93633476D01*
X91233714Y-93585857D01*
X91186095Y-93490619D01*
X91138476Y-93443000D01*
X91043238Y-93395380D01*
X90852761Y-93395380D01*
X90757523Y-93443000D01*
X90709904Y-93490619D01*
X90662285Y-93585857D01*
X90662285Y-93633476D01*
X90709904Y-93728714D01*
X90757523Y-93776333D01*
X90852761Y-93823952D01*
X91043238Y-93823952D01*
X91138476Y-93871571D01*
X91186095Y-93919190D01*
X91233714Y-94014428D01*
X91233714Y-94204904D01*
X91186095Y-94300142D01*
X91138476Y-94347761D01*
X91043238Y-94395380D01*
X90852761Y-94395380D01*
X90757523Y-94347761D01*
X90709904Y-94300142D01*
X90662285Y-94204904D01*
X90662285Y-94014428D01*
X90709904Y-93919190D01*
X90757523Y-93871571D01*
X90852761Y-93823952D01*
G04 #@! TO.C,U19*
X125190095Y-93395380D02*
X125190095Y-94204904D01*
X125142476Y-94300142D01*
X125094857Y-94347761D01*
X124999619Y-94395380D01*
X124809142Y-94395380D01*
X124713904Y-94347761D01*
X124666285Y-94300142D01*
X124618666Y-94204904D01*
X124618666Y-93395380D01*
X123618666Y-94395380D02*
X124190095Y-94395380D01*
X123904380Y-94395380D02*
X123904380Y-93395380D01*
X123999619Y-93538238D01*
X124094857Y-93633476D01*
X124190095Y-93681095D01*
X123142476Y-94395380D02*
X122952000Y-94395380D01*
X122856761Y-94347761D01*
X122809142Y-94300142D01*
X122713904Y-94157285D01*
X122666285Y-93966809D01*
X122666285Y-93585857D01*
X122713904Y-93490619D01*
X122761523Y-93443000D01*
X122856761Y-93395380D01*
X123047238Y-93395380D01*
X123142476Y-93443000D01*
X123190095Y-93490619D01*
X123237714Y-93585857D01*
X123237714Y-93823952D01*
X123190095Y-93919190D01*
X123142476Y-93966809D01*
X123047238Y-94014428D01*
X122856761Y-94014428D01*
X122761523Y-93966809D01*
X122713904Y-93919190D01*
X122666285Y-93823952D01*
G04 #@! TD*
M02*
