M48
;DRILL file {KiCad (5.0.2)-1} date 6/8/2020 8:07:43 PM
;FORMAT={-:-/ absolute / inch / decimal}
FMAT,2
INCH,TZ
T1C0.0157
T2C0.0276
T3C0.0394
%
G90
G05
T1
X3.09Y-2.67
X3.09Y-2.81
X3.09Y-3.93
X3.09Y-4.07
X3.17Y-2.86
X3.17Y-2.89
X3.17Y-3.95
X3.17Y-4.12
X3.17Y-4.15
X3.27Y-2.51
X3.27Y-3.42
X3.3Y-2.56
X3.3Y-3.82
X3.33Y-2.86
X3.33Y-4.12
X3.36Y-2.96
X3.36Y-4.22
X3.44Y-3.7
X3.66Y-3.17
X3.66Y-4.43
X3.7Y-3.2
X3.7Y-4.46
X3.88Y-3.01
X3.88Y-4.27
X3.91Y-2.81
X3.91Y-2.86
X3.91Y-2.91
X3.91Y-4.07
X3.91Y-4.12
X3.91Y-4.17
X3.94Y-3.87
X3.94Y-3.92
X3.94Y-3.97
X3.95Y-2.61
X3.95Y-2.66
X3.95Y-2.71
X4.Y-2.56
X4.16Y-3.5
X4.2Y-3.32
X4.2Y-4.58
X4.23Y-3.06
X4.23Y-3.35
X4.23Y-4.32
X4.23Y-4.61
X4.35Y-2.67
X4.35Y-2.81
X4.35Y-2.86
X4.35Y-2.91
X4.35Y-3.93
X4.35Y-4.07
X4.43Y-3.95
X4.43Y-4.13
X4.43Y-4.16
X4.51Y-2.64
X4.51Y-2.64
X4.51Y-2.67
X4.56Y-2.56
X4.56Y-3.82
X4.59Y-2.86
X4.59Y-4.12
X4.62Y-2.96
X4.62Y-4.22
X4.92Y-3.17
X4.92Y-4.43
X4.96Y-3.2
X4.96Y-4.46
X5.14Y-3.01
X5.14Y-4.27
X5.17Y-2.81
X5.17Y-2.86
X5.17Y-2.91
X5.17Y-4.07
X5.17Y-4.12
X5.17Y-4.17
X5.21Y-2.6
X5.21Y-2.66
X5.21Y-2.71
X5.22Y-3.87
X5.22Y-3.92
X5.22Y-3.97
T2
X3.325Y-2.3205
X3.325Y-3.2655
X3.425Y-2.3205
X3.425Y-3.2655
X3.525Y-2.3205
X3.525Y-3.2655
X3.625Y-2.3205
X3.625Y-3.2655
X3.725Y-2.3205
X3.725Y-3.2655
X3.825Y-2.3205
X3.825Y-3.2655
X3.925Y-2.3205
X3.925Y-3.2655
X4.025Y-2.3205
X4.025Y-3.2655
X4.586Y-2.3205
X4.586Y-3.2655
X4.686Y-2.3205
X4.686Y-3.2655
X4.786Y-2.3205
X4.786Y-3.2655
X4.886Y-2.3205
X4.886Y-3.2655
X4.986Y-2.3205
X4.986Y-3.2655
X5.086Y-2.3205
X5.086Y-3.2655
X5.186Y-2.3205
X5.186Y-3.2655
X5.286Y-2.3205
X5.286Y-3.2655
X4.05Y-1.67
X4.05Y-1.77
X4.05Y-1.87
X4.05Y-1.97
X4.05Y-2.07
X4.25Y-1.67
X4.25Y-1.77
X4.25Y-1.87
X4.25Y-1.97
X4.25Y-2.07
X3.1Y-1.67
X3.1Y-1.77
X3.1Y-1.87
X3.1Y-1.97
X3.1Y-2.07
X3.3Y-1.67
X3.3Y-1.77
X3.3Y-1.87
X3.3Y-1.97
X3.3Y-2.07
X3.325Y-3.5815
X3.325Y-4.5265
X3.425Y-3.5815
X3.425Y-4.5265
X3.525Y-3.5815
X3.525Y-4.5265
X3.625Y-3.5815
X3.625Y-4.5265
X3.725Y-3.5815
X3.725Y-4.5265
X3.825Y-3.5815
X3.825Y-4.5265
X3.925Y-3.5815
X3.925Y-4.5265
X4.025Y-3.5815
X4.025Y-4.5265
X5.2Y-1.67
X5.2Y-1.77
X5.2Y-1.87
X5.2Y-1.97
X5.2Y-2.07
X5.4Y-1.67
X5.4Y-1.77
X5.4Y-1.87
X5.4Y-1.97
X5.4Y-2.07
X2.43Y-2.35
X2.43Y-2.45
X2.43Y-2.55
X2.43Y-2.65
X2.43Y-2.75
X2.63Y-2.35
X2.63Y-2.45
X2.63Y-2.55
X2.63Y-2.65
X2.63Y-2.75
X2.58Y-3.22
X2.58Y-3.32
X2.58Y-3.42
X2.58Y-3.52
X2.58Y-3.62
X2.78Y-3.22
X2.78Y-3.32
X2.78Y-3.42
X2.78Y-3.52
X2.78Y-3.62
X5.2Y-4.78
X5.2Y-4.88
X5.2Y-4.98
X5.2Y-5.08
X5.2Y-5.18
X5.4Y-4.78
X5.4Y-4.88
X5.4Y-4.98
X5.4Y-5.08
X5.4Y-5.18
X2.58Y-4.2
X2.58Y-4.3
X2.58Y-4.4
X2.58Y-4.5
X2.58Y-4.6
X2.78Y-4.2
X2.78Y-4.3
X2.78Y-4.4
X2.78Y-4.5
X2.78Y-4.6
X5.78Y-3.22
X5.78Y-3.32
X5.78Y-3.42
X5.78Y-3.52
X5.78Y-3.62
X5.98Y-3.22
X5.98Y-3.32
X5.98Y-3.42
X5.98Y-3.52
X5.98Y-3.62
X5.78Y-4.1
X5.78Y-4.2
X5.78Y-4.3
X5.78Y-4.4
X5.78Y-4.5
X5.98Y-4.1
X5.98Y-4.2
X5.98Y-4.3
X5.98Y-4.4
X5.98Y-4.5
X4.5861Y-3.5815
X4.5861Y-4.5265
X4.6861Y-3.5815
X4.6861Y-4.5265
X4.7861Y-3.5815
X4.7861Y-4.5265
X4.8861Y-3.5815
X4.8861Y-4.5265
X4.9861Y-3.5815
X4.9861Y-4.5265
X5.0861Y-3.5815
X5.0861Y-4.5265
X5.1861Y-3.5815
X5.1861Y-4.5265
X5.2861Y-3.5815
X5.2861Y-4.5265
X3.41Y-1.67
X3.41Y-1.77
X3.41Y-1.87
X3.41Y-1.97
X3.41Y-2.07
X3.61Y-1.67
X3.61Y-1.77
X3.61Y-1.87
X3.61Y-1.97
X3.61Y-2.07
X4.36Y-1.67
X4.36Y-1.77
X4.36Y-1.87
X4.36Y-1.97
X4.36Y-2.07
X4.56Y-1.67
X4.56Y-1.77
X4.56Y-1.87
X4.56Y-1.97
X4.56Y-2.07
X3.25Y-4.78
X3.25Y-4.88
X3.25Y-4.98
X3.25Y-5.08
X3.25Y-5.18
X3.45Y-4.78
X3.45Y-4.88
X3.45Y-4.98
X3.45Y-5.08
X3.45Y-5.18
X5.78Y-2.35
X5.78Y-2.45
X5.78Y-2.55
X5.78Y-2.65
X5.78Y-2.75
X5.98Y-2.35
X5.98Y-2.45
X5.98Y-2.55
X5.98Y-2.65
X5.98Y-2.75
X4.2075Y-4.78
X4.2075Y-4.88
X4.2075Y-4.98
X4.2075Y-5.08
X4.2075Y-5.18
X4.4075Y-4.78
X4.4075Y-4.88
X4.4075Y-4.98
X4.4075Y-5.08
X4.4075Y-5.18
X2.74Y-2.35
X2.74Y-2.45
X2.74Y-2.55
X2.74Y-2.65
X2.74Y-2.75
X2.94Y-2.35
X2.94Y-2.45
X2.94Y-2.55
X2.94Y-2.65
X2.94Y-2.75
T3
X4.206Y-2.42
X4.306Y-2.42
X4.306Y-4.42
X4.406Y-2.42
X4.406Y-4.42
T0
M30
