M48
;DRILL file {KiCad (5.0.2)-1} date 7/27/2019 3:22:55 PM
;FORMAT={-:-/ absolute / inch / decimal}
FMAT,2
INCH,TZ
T1C0.0157
T2C0.0276
T3C0.0394
%
G90
G05
T1
X3.21Y-3.15
X3.31Y-3.15
X3.4017Y-3.89
X3.402Y-2.618
X3.48Y-2.4
X3.48Y-3.69
X3.6Y-2.77
X3.6Y-4.028
X3.62Y-4.416
X3.64Y-3.15
X3.69Y-2.67
X3.694Y-3.928
X3.762Y-4.278
X3.782Y-3.012
X3.87Y-3.32
X3.87Y-3.38
X3.944Y-2.654
X3.948Y-3.898
X3.98Y-2.21
X3.98Y-3.47
X4.024Y-2.906
X4.152Y-3.97
X4.16Y-2.75
X4.42Y-3.14
X4.42Y-3.35
X4.48Y-2.21
X4.48Y-3.47
X4.52Y-2.25
X4.52Y-3.5
X4.566Y-3.35
X4.58Y-3.068
X4.58Y-3.14
X4.6558Y-2.6175
X4.66Y-3.88
X4.74Y-2.46
X4.74Y-3.71
X4.868Y-2.77
X4.876Y-4.03
X4.88Y-4.436
X4.898Y-3.17
X4.95Y-2.672
X4.966Y-3.928
X5.028Y-4.278
X5.034Y-3.018
X5.14Y-3.71
X5.212Y-3.914
X5.22Y-2.64
X5.26Y-2.21
X5.41Y-2.75
X5.43Y-4.01
T2
X3.41Y-1.67
X3.41Y-1.77
X3.41Y-1.87
X3.41Y-1.97
X3.41Y-2.07
X3.61Y-1.67
X3.61Y-1.77
X3.61Y-1.87
X3.61Y-1.97
X3.61Y-2.07
X3.325Y-2.3205
X3.325Y-3.2655
X3.425Y-2.3205
X3.425Y-3.2655
X3.525Y-2.3205
X3.525Y-3.2655
X3.625Y-2.3205
X3.625Y-3.2655
X3.725Y-2.3205
X3.725Y-3.2655
X3.825Y-2.3205
X3.825Y-3.2655
X3.925Y-2.3205
X3.925Y-3.2655
X4.025Y-2.3205
X4.025Y-3.2655
X5.2Y-1.67
X5.2Y-1.77
X5.2Y-1.87
X5.2Y-1.97
X5.2Y-2.07
X5.4Y-1.67
X5.4Y-1.77
X5.4Y-1.87
X5.4Y-1.97
X5.4Y-2.07
X4.36Y-1.67
X4.36Y-1.77
X4.36Y-1.87
X4.36Y-1.97
X4.36Y-2.07
X4.56Y-1.67
X4.56Y-1.77
X4.56Y-1.87
X4.56Y-1.97
X4.56Y-2.07
X5.2Y-4.78
X5.2Y-4.88
X5.2Y-4.98
X5.2Y-5.08
X5.2Y-5.18
X5.4Y-4.78
X5.4Y-4.88
X5.4Y-4.98
X5.4Y-5.08
X5.4Y-5.18
X2.58Y-3.22
X2.58Y-3.32
X2.58Y-3.42
X2.58Y-3.52
X2.58Y-3.62
X2.78Y-3.22
X2.78Y-3.32
X2.78Y-3.42
X2.78Y-3.52
X2.78Y-3.62
X3.1Y-1.67
X3.1Y-1.77
X3.1Y-1.87
X3.1Y-1.97
X3.1Y-2.07
X3.3Y-1.67
X3.3Y-1.77
X3.3Y-1.87
X3.3Y-1.97
X3.3Y-2.07
X4.05Y-1.67
X4.05Y-1.77
X4.05Y-1.87
X4.05Y-1.97
X4.05Y-2.07
X4.25Y-1.67
X4.25Y-1.77
X4.25Y-1.87
X4.25Y-1.97
X4.25Y-2.07
X3.325Y-3.5815
X3.325Y-4.5265
X3.425Y-3.5815
X3.425Y-4.5265
X3.525Y-3.5815
X3.525Y-4.5265
X3.625Y-3.5815
X3.625Y-4.5265
X3.725Y-3.5815
X3.725Y-4.5265
X3.825Y-3.5815
X3.825Y-4.5265
X3.925Y-3.5815
X3.925Y-4.5265
X4.025Y-3.5815
X4.025Y-4.5265
X4.586Y-2.3205
X4.586Y-3.2655
X4.686Y-2.3205
X4.686Y-3.2655
X4.786Y-2.3205
X4.786Y-3.2655
X4.886Y-2.3205
X4.886Y-3.2655
X4.986Y-2.3205
X4.986Y-3.2655
X5.086Y-2.3205
X5.086Y-3.2655
X5.186Y-2.3205
X5.186Y-3.2655
X5.286Y-2.3205
X5.286Y-3.2655
X5.78Y-2.35
X5.78Y-2.45
X5.78Y-2.55
X5.78Y-2.65
X5.78Y-2.75
X5.98Y-2.35
X5.98Y-2.45
X5.98Y-2.55
X5.98Y-2.65
X5.98Y-2.75
X2.43Y-2.35
X2.43Y-2.45
X2.43Y-2.55
X2.43Y-2.65
X2.43Y-2.75
X2.63Y-2.35
X2.63Y-2.45
X2.63Y-2.55
X2.63Y-2.65
X2.63Y-2.75
X2.74Y-2.35
X2.74Y-2.45
X2.74Y-2.55
X2.74Y-2.65
X2.74Y-2.75
X2.94Y-2.35
X2.94Y-2.45
X2.94Y-2.55
X2.94Y-2.65
X2.94Y-2.75
X3.25Y-4.78
X3.25Y-4.88
X3.25Y-4.98
X3.25Y-5.08
X3.25Y-5.18
X3.45Y-4.78
X3.45Y-4.88
X3.45Y-4.98
X3.45Y-5.08
X3.45Y-5.18
X4.5861Y-3.5815
X4.5861Y-4.5265
X4.6861Y-3.5815
X4.6861Y-4.5265
X4.7861Y-3.5815
X4.7861Y-4.5265
X4.8861Y-3.5815
X4.8861Y-4.5265
X4.9861Y-3.5815
X4.9861Y-4.5265
X5.0861Y-3.5815
X5.0861Y-4.5265
X5.1861Y-3.5815
X5.1861Y-4.5265
X5.2861Y-3.5815
X5.2861Y-4.5265
X2.58Y-4.2
X2.58Y-4.3
X2.58Y-4.4
X2.58Y-4.5
X2.58Y-4.6
X2.78Y-4.2
X2.78Y-4.3
X2.78Y-4.4
X2.78Y-4.5
X2.78Y-4.6
X5.78Y-4.1
X5.78Y-4.2
X5.78Y-4.3
X5.78Y-4.4
X5.78Y-4.5
X5.98Y-4.1
X5.98Y-4.2
X5.98Y-4.3
X5.98Y-4.4
X5.98Y-4.5
X5.78Y-3.22
X5.78Y-3.32
X5.78Y-3.42
X5.78Y-3.52
X5.78Y-3.62
X5.98Y-3.22
X5.98Y-3.32
X5.98Y-3.42
X5.98Y-3.52
X5.98Y-3.62
X4.2075Y-4.78
X4.2075Y-4.88
X4.2075Y-4.98
X4.2075Y-5.08
X4.2075Y-5.18
X4.4075Y-4.78
X4.4075Y-4.88
X4.4075Y-4.98
X4.4075Y-5.08
X4.4075Y-5.18
T3
X4.206Y-2.42
X4.306Y-2.42
X4.306Y-4.42
X4.406Y-2.42
X4.406Y-4.42
T0
M30
