G04 #@! TF.GenerationSoftware,KiCad,Pcbnew,(5.0.0)*
G04 #@! TF.CreationDate,2018-10-04T20:20:06-05:00*
G04 #@! TF.ProjectId,Conventional_Display,436F6E76656E74696F6E616C5F446973,rev?*
G04 #@! TF.SameCoordinates,Original*
G04 #@! TF.FileFunction,Paste,Bot*
G04 #@! TF.FilePolarity,Positive*
%FSLAX46Y46*%
G04 Gerber Fmt 4.6, Leading zero omitted, Abs format (unit mm)*
G04 Created by KiCad (PCBNEW (5.0.0)) date 10/04/18 20:20:06*
%MOMM*%
%LPD*%
G01*
G04 APERTURE LIST*
%ADD10R,1.200000X0.900000*%
%ADD11R,2.000000X0.600000*%
%ADD12R,1.200000X0.750000*%
%ADD13R,0.900000X1.200000*%
G04 APERTURE END LIST*
D10*
G04 #@! TO.C,R63*
X103716000Y-69850000D03*
X101516000Y-69850000D03*
G04 #@! TD*
D11*
G04 #@! TO.C,U16*
X120674400Y-77914500D03*
X120674400Y-76644500D03*
X120674400Y-75374500D03*
X120674400Y-74104500D03*
X120674400Y-72834500D03*
X120674400Y-71564500D03*
X120674400Y-70294500D03*
X120674400Y-69024500D03*
X120674400Y-67754500D03*
X120674400Y-66484500D03*
X120674400Y-65214500D03*
X120674400Y-63944500D03*
X130074400Y-63944500D03*
X130074400Y-65214500D03*
X130074400Y-66484500D03*
X130074400Y-67754500D03*
X130074400Y-69024500D03*
X130074400Y-70294500D03*
X130074400Y-71564500D03*
X130074400Y-72834500D03*
X130074400Y-74104500D03*
X130074400Y-75374500D03*
X130074400Y-76644500D03*
X130074400Y-77914500D03*
G04 #@! TD*
D12*
G04 #@! TO.C,C1*
X135636000Y-71628000D03*
X137536000Y-71628000D03*
G04 #@! TD*
G04 #@! TO.C,C2*
X103698000Y-71628000D03*
X105598000Y-71628000D03*
G04 #@! TD*
G04 #@! TO.C,C3*
X104104400Y-102362000D03*
X106004400Y-102362000D03*
G04 #@! TD*
G04 #@! TO.C,C4*
X135956000Y-103632000D03*
X137856000Y-103632000D03*
G04 #@! TD*
D10*
G04 #@! TO.C,R1*
X140124000Y-44958000D03*
X142324000Y-44958000D03*
G04 #@! TD*
G04 #@! TO.C,R2*
X140124000Y-47498000D03*
X142324000Y-47498000D03*
G04 #@! TD*
D13*
G04 #@! TO.C,R3*
X150368000Y-57404000D03*
X150368000Y-55204000D03*
G04 #@! TD*
G04 #@! TO.C,R4*
X148082000Y-57404000D03*
X148082000Y-55204000D03*
G04 #@! TD*
G04 #@! TO.C,R5*
X144526000Y-70020000D03*
X144526000Y-72220000D03*
G04 #@! TD*
G04 #@! TO.C,R6*
X142240000Y-69936000D03*
X142240000Y-72136000D03*
G04 #@! TD*
G04 #@! TO.C,R7*
X144526000Y-64600000D03*
X144526000Y-62400000D03*
G04 #@! TD*
D10*
G04 #@! TO.C,R8*
X149944000Y-76708000D03*
X147744000Y-76708000D03*
G04 #@! TD*
G04 #@! TO.C,R9*
X149944000Y-78994000D03*
X147744000Y-78994000D03*
G04 #@! TD*
G04 #@! TO.C,R10*
X149944000Y-95250000D03*
X147744000Y-95250000D03*
G04 #@! TD*
D13*
G04 #@! TO.C,R11*
X144526000Y-92880000D03*
X144526000Y-95080000D03*
G04 #@! TD*
G04 #@! TO.C,R12*
X144272000Y-85428000D03*
X144272000Y-83228000D03*
G04 #@! TD*
D10*
G04 #@! TO.C,R13*
X149944000Y-101600000D03*
X147744000Y-101600000D03*
G04 #@! TD*
G04 #@! TO.C,R14*
X149944000Y-116840000D03*
X147744000Y-116840000D03*
G04 #@! TD*
D13*
G04 #@! TO.C,R15*
X144526000Y-104986000D03*
X144526000Y-102786000D03*
G04 #@! TD*
G04 #@! TO.C,R16*
X142240000Y-104986000D03*
X142240000Y-102786000D03*
G04 #@! TD*
D10*
G04 #@! TO.C,R17*
X140124000Y-121412000D03*
X142324000Y-121412000D03*
G04 #@! TD*
G04 #@! TO.C,R18*
X140124000Y-126492000D03*
X142324000Y-126492000D03*
G04 #@! TD*
G04 #@! TO.C,R19*
X129116000Y-131572000D03*
X126916000Y-131572000D03*
G04 #@! TD*
G04 #@! TO.C,R20*
X129116000Y-123952000D03*
X126916000Y-123952000D03*
G04 #@! TD*
G04 #@! TO.C,R21*
X129116000Y-126492000D03*
X126916000Y-126492000D03*
G04 #@! TD*
G04 #@! TO.C,R22*
X114978000Y-121412000D03*
X117178000Y-121412000D03*
G04 #@! TD*
G04 #@! TO.C,R23*
X114978000Y-126492000D03*
X117178000Y-126492000D03*
G04 #@! TD*
G04 #@! TO.C,R24*
X103716000Y-131572000D03*
X101516000Y-131572000D03*
G04 #@! TD*
G04 #@! TO.C,R25*
X103716000Y-129032000D03*
X101516000Y-129032000D03*
G04 #@! TD*
G04 #@! TO.C,R26*
X103716000Y-123952000D03*
X101516000Y-123952000D03*
G04 #@! TD*
G04 #@! TO.C,R27*
X103716000Y-126492000D03*
X101516000Y-126492000D03*
G04 #@! TD*
G04 #@! TO.C,R28*
X90764000Y-121412000D03*
X92964000Y-121412000D03*
G04 #@! TD*
G04 #@! TO.C,R29*
X90764000Y-123952000D03*
X92964000Y-123952000D03*
G04 #@! TD*
G04 #@! TO.C,R30*
X90764000Y-126492000D03*
X92964000Y-126492000D03*
G04 #@! TD*
D13*
G04 #@! TO.C,R31*
X72898000Y-106510000D03*
X72898000Y-104310000D03*
G04 #@! TD*
G04 #@! TO.C,R32*
X75184000Y-106510000D03*
X75184000Y-104310000D03*
G04 #@! TD*
G04 #@! TO.C,R33*
X73406000Y-115232000D03*
X73406000Y-117432000D03*
G04 #@! TD*
G04 #@! TO.C,R34*
X67056000Y-119042000D03*
X67056000Y-121242000D03*
G04 #@! TD*
G04 #@! TO.C,R35*
X69342000Y-119042000D03*
X69342000Y-121242000D03*
G04 #@! TD*
G04 #@! TO.C,R36*
X67056000Y-104308000D03*
X67056000Y-102108000D03*
G04 #@! TD*
G04 #@! TO.C,R37*
X69342000Y-104308000D03*
X69342000Y-102108000D03*
G04 #@! TD*
G04 #@! TO.C,R38*
X72898000Y-81618000D03*
X72898000Y-79418000D03*
G04 #@! TD*
G04 #@! TO.C,R39*
X75184000Y-81618000D03*
X75184000Y-79418000D03*
G04 #@! TD*
G04 #@! TO.C,R40*
X72898000Y-87038000D03*
X72898000Y-89238000D03*
G04 #@! TD*
G04 #@! TO.C,R41*
X69342000Y-94150000D03*
X69342000Y-96350000D03*
G04 #@! TD*
G04 #@! TO.C,R42*
X67056000Y-94150000D03*
X67056000Y-96350000D03*
G04 #@! TD*
G04 #@! TO.C,R43*
X65532000Y-56980000D03*
X65532000Y-54780000D03*
G04 #@! TD*
G04 #@! TO.C,R44*
X63246000Y-56980000D03*
X63246000Y-54780000D03*
G04 #@! TD*
G04 #@! TO.C,R45*
X73660000Y-47414000D03*
X73660000Y-49614000D03*
G04 #@! TD*
G04 #@! TO.C,R46*
X75946000Y-47414000D03*
X75946000Y-49614000D03*
G04 #@! TD*
G04 #@! TO.C,R47*
X100076000Y-44280000D03*
X100076000Y-42080000D03*
G04 #@! TD*
G04 #@! TO.C,R48*
X97790000Y-44280000D03*
X97790000Y-42080000D03*
G04 #@! TD*
G04 #@! TO.C,R49*
X75184000Y-56980000D03*
X75184000Y-54780000D03*
G04 #@! TD*
G04 #@! TO.C,R50*
X72898000Y-56980000D03*
X72898000Y-54780000D03*
G04 #@! TD*
G04 #@! TO.C,R51*
X75184000Y-72306000D03*
X75184000Y-74506000D03*
G04 #@! TD*
G04 #@! TO.C,R52*
X70612000Y-72306000D03*
X70612000Y-74506000D03*
G04 #@! TD*
G04 #@! TO.C,R53*
X72898000Y-72306000D03*
X72898000Y-74506000D03*
G04 #@! TD*
G04 #@! TO.C,R54*
X70612000Y-56980000D03*
X70612000Y-54780000D03*
G04 #@! TD*
G04 #@! TO.C,R55*
X96266000Y-49192000D03*
X96266000Y-51392000D03*
G04 #@! TD*
G04 #@! TO.C,R56*
X93980000Y-49192000D03*
X93980000Y-51392000D03*
G04 #@! TD*
D10*
G04 #@! TO.C,R57*
X118788000Y-42418000D03*
X120988000Y-42418000D03*
G04 #@! TD*
G04 #@! TO.C,R58*
X118788000Y-44958000D03*
X120988000Y-44958000D03*
G04 #@! TD*
D13*
G04 #@! TO.C,R59*
X118110000Y-51732000D03*
X118110000Y-53932000D03*
G04 #@! TD*
G04 #@! TO.C,R60*
X120396000Y-51732000D03*
X120396000Y-53932000D03*
G04 #@! TD*
G04 #@! TO.C,R61*
X122682000Y-51732000D03*
X122682000Y-53932000D03*
G04 #@! TD*
D10*
G04 #@! TO.C,R62*
X135466000Y-69850000D03*
X133266000Y-69850000D03*
G04 #@! TD*
G04 #@! TO.C,R64*
X104038400Y-100838000D03*
X101838400Y-100838000D03*
G04 #@! TD*
G04 #@! TO.C,R65*
X135974000Y-101854000D03*
X133774000Y-101854000D03*
G04 #@! TD*
D11*
G04 #@! TO.C,U17*
X88645000Y-77914500D03*
X88645000Y-76644500D03*
X88645000Y-75374500D03*
X88645000Y-74104500D03*
X88645000Y-72834500D03*
X88645000Y-71564500D03*
X88645000Y-70294500D03*
X88645000Y-69024500D03*
X88645000Y-67754500D03*
X88645000Y-66484500D03*
X88645000Y-65214500D03*
X88645000Y-63944500D03*
X98045000Y-63944500D03*
X98045000Y-65214500D03*
X98045000Y-66484500D03*
X98045000Y-67754500D03*
X98045000Y-69024500D03*
X98045000Y-70294500D03*
X98045000Y-71564500D03*
X98045000Y-72834500D03*
X98045000Y-74104500D03*
X98045000Y-75374500D03*
X98045000Y-76644500D03*
X98045000Y-77914500D03*
G04 #@! TD*
G04 #@! TO.C,U18*
X88645000Y-109943900D03*
X88645000Y-108673900D03*
X88645000Y-107403900D03*
X88645000Y-106133900D03*
X88645000Y-104863900D03*
X88645000Y-103593900D03*
X88645000Y-102323900D03*
X88645000Y-101053900D03*
X88645000Y-99783900D03*
X88645000Y-98513900D03*
X88645000Y-97243900D03*
X88645000Y-95973900D03*
X98045000Y-95973900D03*
X98045000Y-97243900D03*
X98045000Y-98513900D03*
X98045000Y-99783900D03*
X98045000Y-101053900D03*
X98045000Y-102323900D03*
X98045000Y-103593900D03*
X98045000Y-104863900D03*
X98045000Y-106133900D03*
X98045000Y-107403900D03*
X98045000Y-108673900D03*
X98045000Y-109943900D03*
G04 #@! TD*
G04 #@! TO.C,U19*
X120674400Y-109943900D03*
X120674400Y-108673900D03*
X120674400Y-107403900D03*
X120674400Y-106133900D03*
X120674400Y-104863900D03*
X120674400Y-103593900D03*
X120674400Y-102323900D03*
X120674400Y-101053900D03*
X120674400Y-99783900D03*
X120674400Y-98513900D03*
X120674400Y-97243900D03*
X120674400Y-95973900D03*
X130074400Y-95973900D03*
X130074400Y-97243900D03*
X130074400Y-98513900D03*
X130074400Y-99783900D03*
X130074400Y-101053900D03*
X130074400Y-102323900D03*
X130074400Y-103593900D03*
X130074400Y-104863900D03*
X130074400Y-106133900D03*
X130074400Y-107403900D03*
X130074400Y-108673900D03*
X130074400Y-109943900D03*
G04 #@! TD*
M02*
