G04 #@! TF.GenerationSoftware,KiCad,Pcbnew,(5.0.2)-1*
G04 #@! TF.CreationDate,2020-06-08T20:07:41-05:00*
G04 #@! TF.ProjectId,Conventional_Display,436f6e76-656e-4746-996f-6e616c5f4469,rev?*
G04 #@! TF.SameCoordinates,Original*
G04 #@! TF.FileFunction,Legend,Top*
G04 #@! TF.FilePolarity,Positive*
%FSLAX46Y46*%
G04 Gerber Fmt 4.6, Leading zero omitted, Abs format (unit mm)*
G04 Created by KiCad (PCBNEW (5.0.2)-1) date 6/8/2020 8:07:41 PM*
%MOMM*%
%LPD*%
G01*
G04 APERTURE LIST*
%ADD10C,0.300000*%
%ADD11C,0.150000*%
%ADD12C,0.010000*%
G04 APERTURE END LIST*
D10*
X79006285Y-71371314D02*
X78934857Y-71442742D01*
X78720571Y-71514171D01*
X78577714Y-71514171D01*
X78363428Y-71442742D01*
X78220571Y-71299885D01*
X78149142Y-71157028D01*
X78077714Y-70871314D01*
X78077714Y-70657028D01*
X78149142Y-70371314D01*
X78220571Y-70228457D01*
X78363428Y-70085600D01*
X78577714Y-70014171D01*
X78720571Y-70014171D01*
X78934857Y-70085600D01*
X79006285Y-70157028D01*
X79863428Y-71514171D02*
X79720571Y-71442742D01*
X79649142Y-71371314D01*
X79577714Y-71228457D01*
X79577714Y-70799885D01*
X79649142Y-70657028D01*
X79720571Y-70585600D01*
X79863428Y-70514171D01*
X80077714Y-70514171D01*
X80220571Y-70585600D01*
X80292000Y-70657028D01*
X80363428Y-70799885D01*
X80363428Y-71228457D01*
X80292000Y-71371314D01*
X80220571Y-71442742D01*
X80077714Y-71514171D01*
X79863428Y-71514171D01*
X81006285Y-70514171D02*
X81006285Y-71514171D01*
X81006285Y-70657028D02*
X81077714Y-70585600D01*
X81220571Y-70514171D01*
X81434857Y-70514171D01*
X81577714Y-70585600D01*
X81649142Y-70728457D01*
X81649142Y-71514171D01*
X82220571Y-70514171D02*
X82577714Y-71514171D01*
X82934857Y-70514171D01*
X84077714Y-71442742D02*
X83934857Y-71514171D01*
X83649142Y-71514171D01*
X83506285Y-71442742D01*
X83434857Y-71299885D01*
X83434857Y-70728457D01*
X83506285Y-70585600D01*
X83649142Y-70514171D01*
X83934857Y-70514171D01*
X84077714Y-70585600D01*
X84149142Y-70728457D01*
X84149142Y-70871314D01*
X83434857Y-71014171D01*
X84792000Y-70514171D02*
X84792000Y-71514171D01*
X84792000Y-70657028D02*
X84863428Y-70585600D01*
X85006285Y-70514171D01*
X85220571Y-70514171D01*
X85363428Y-70585600D01*
X85434857Y-70728457D01*
X85434857Y-71514171D01*
X85934857Y-70514171D02*
X86506285Y-70514171D01*
X86149142Y-70014171D02*
X86149142Y-71299885D01*
X86220571Y-71442742D01*
X86363428Y-71514171D01*
X86506285Y-71514171D01*
X87006285Y-71514171D02*
X87006285Y-70514171D01*
X87006285Y-70014171D02*
X86934857Y-70085600D01*
X87006285Y-70157028D01*
X87077714Y-70085600D01*
X87006285Y-70014171D01*
X87006285Y-70157028D01*
X87934857Y-71514171D02*
X87792000Y-71442742D01*
X87720571Y-71371314D01*
X87649142Y-71228457D01*
X87649142Y-70799885D01*
X87720571Y-70657028D01*
X87792000Y-70585600D01*
X87934857Y-70514171D01*
X88149142Y-70514171D01*
X88292000Y-70585600D01*
X88363428Y-70657028D01*
X88434857Y-70799885D01*
X88434857Y-71228457D01*
X88363428Y-71371314D01*
X88292000Y-71442742D01*
X88149142Y-71514171D01*
X87934857Y-71514171D01*
X89077714Y-70514171D02*
X89077714Y-71514171D01*
X89077714Y-70657028D02*
X89149142Y-70585600D01*
X89292000Y-70514171D01*
X89506285Y-70514171D01*
X89649142Y-70585600D01*
X89720571Y-70728457D01*
X89720571Y-71514171D01*
X91077714Y-71514171D02*
X91077714Y-70728457D01*
X91006285Y-70585600D01*
X90863428Y-70514171D01*
X90577714Y-70514171D01*
X90434857Y-70585600D01*
X91077714Y-71442742D02*
X90934857Y-71514171D01*
X90577714Y-71514171D01*
X90434857Y-71442742D01*
X90363428Y-71299885D01*
X90363428Y-71157028D01*
X90434857Y-71014171D01*
X90577714Y-70942742D01*
X90934857Y-70942742D01*
X91077714Y-70871314D01*
X92006285Y-71514171D02*
X91863428Y-71442742D01*
X91792000Y-71299885D01*
X91792000Y-70014171D01*
X93720571Y-71514171D02*
X93720571Y-70014171D01*
X94077714Y-70014171D01*
X94292000Y-70085600D01*
X94434857Y-70228457D01*
X94506285Y-70371314D01*
X94577714Y-70657028D01*
X94577714Y-70871314D01*
X94506285Y-71157028D01*
X94434857Y-71299885D01*
X94292000Y-71442742D01*
X94077714Y-71514171D01*
X93720571Y-71514171D01*
X95220571Y-71514171D02*
X95220571Y-70514171D01*
X95220571Y-70014171D02*
X95149142Y-70085600D01*
X95220571Y-70157028D01*
X95292000Y-70085600D01*
X95220571Y-70014171D01*
X95220571Y-70157028D01*
X95863428Y-71442742D02*
X96006285Y-71514171D01*
X96292000Y-71514171D01*
X96434857Y-71442742D01*
X96506285Y-71299885D01*
X96506285Y-71228457D01*
X96434857Y-71085600D01*
X96292000Y-71014171D01*
X96077714Y-71014171D01*
X95934857Y-70942742D01*
X95863428Y-70799885D01*
X95863428Y-70728457D01*
X95934857Y-70585600D01*
X96077714Y-70514171D01*
X96292000Y-70514171D01*
X96434857Y-70585600D01*
X97149142Y-70514171D02*
X97149142Y-72014171D01*
X97149142Y-70585600D02*
X97292000Y-70514171D01*
X97577714Y-70514171D01*
X97720571Y-70585600D01*
X97792000Y-70657028D01*
X97863428Y-70799885D01*
X97863428Y-71228457D01*
X97792000Y-71371314D01*
X97720571Y-71442742D01*
X97577714Y-71514171D01*
X97292000Y-71514171D01*
X97149142Y-71442742D01*
X98720571Y-71514171D02*
X98577714Y-71442742D01*
X98506285Y-71299885D01*
X98506285Y-70014171D01*
X99934857Y-71514171D02*
X99934857Y-70728457D01*
X99863428Y-70585600D01*
X99720571Y-70514171D01*
X99434857Y-70514171D01*
X99292000Y-70585600D01*
X99934857Y-71442742D02*
X99792000Y-71514171D01*
X99434857Y-71514171D01*
X99292000Y-71442742D01*
X99220571Y-71299885D01*
X99220571Y-71157028D01*
X99292000Y-71014171D01*
X99434857Y-70942742D01*
X99792000Y-70942742D01*
X99934857Y-70871314D01*
X100506285Y-70514171D02*
X100863428Y-71514171D01*
X101220571Y-70514171D02*
X100863428Y-71514171D01*
X100720571Y-71871314D01*
X100649142Y-71942742D01*
X100506285Y-72014171D01*
X101863428Y-71442742D02*
X101863428Y-71514171D01*
X101792000Y-71657028D01*
X101720571Y-71728457D01*
X104506285Y-71514171D02*
X104006285Y-70799885D01*
X103649142Y-71514171D02*
X103649142Y-70014171D01*
X104220571Y-70014171D01*
X104363428Y-70085600D01*
X104434857Y-70157028D01*
X104506285Y-70299885D01*
X104506285Y-70514171D01*
X104434857Y-70657028D01*
X104363428Y-70728457D01*
X104220571Y-70799885D01*
X103649142Y-70799885D01*
X105720571Y-71442742D02*
X105577714Y-71514171D01*
X105292000Y-71514171D01*
X105149142Y-71442742D01*
X105077714Y-71299885D01*
X105077714Y-70728457D01*
X105149142Y-70585600D01*
X105292000Y-70514171D01*
X105577714Y-70514171D01*
X105720571Y-70585600D01*
X105792000Y-70728457D01*
X105792000Y-70871314D01*
X105077714Y-71014171D01*
X106292000Y-70514171D02*
X106649142Y-71514171D01*
X107006285Y-70514171D01*
X108649142Y-70157028D02*
X108720571Y-70085600D01*
X108863428Y-70014171D01*
X109220571Y-70014171D01*
X109363428Y-70085600D01*
X109434857Y-70157028D01*
X109506285Y-70299885D01*
X109506285Y-70442742D01*
X109434857Y-70657028D01*
X108577714Y-71514171D01*
X109506285Y-71514171D01*
X78077714Y-73635600D02*
X78792000Y-73635600D01*
X77934857Y-74064171D02*
X78434857Y-72564171D01*
X78934857Y-74064171D01*
X79434857Y-73064171D02*
X79434857Y-74064171D01*
X79434857Y-73207028D02*
X79506285Y-73135600D01*
X79649142Y-73064171D01*
X79863428Y-73064171D01*
X80006285Y-73135600D01*
X80077714Y-73278457D01*
X80077714Y-74064171D01*
X81434857Y-74064171D02*
X81434857Y-72564171D01*
X81434857Y-73992742D02*
X81292000Y-74064171D01*
X81006285Y-74064171D01*
X80863428Y-73992742D01*
X80792000Y-73921314D01*
X80720571Y-73778457D01*
X80720571Y-73349885D01*
X80792000Y-73207028D01*
X80863428Y-73135600D01*
X81006285Y-73064171D01*
X81292000Y-73064171D01*
X81434857Y-73135600D01*
X82149142Y-74064171D02*
X82149142Y-73064171D01*
X82149142Y-73349885D02*
X82220571Y-73207028D01*
X82292000Y-73135600D01*
X82434857Y-73064171D01*
X82577714Y-73064171D01*
X83649142Y-73992742D02*
X83506285Y-74064171D01*
X83220571Y-74064171D01*
X83077714Y-73992742D01*
X83006285Y-73849885D01*
X83006285Y-73278457D01*
X83077714Y-73135600D01*
X83220571Y-73064171D01*
X83506285Y-73064171D01*
X83649142Y-73135600D01*
X83720571Y-73278457D01*
X83720571Y-73421314D01*
X83006285Y-73564171D01*
X84220571Y-73064171D02*
X84506285Y-74064171D01*
X84792000Y-73349885D01*
X85077714Y-74064171D01*
X85363428Y-73064171D01*
X86863428Y-72564171D02*
X87363428Y-74064171D01*
X87863428Y-72564171D01*
X89006285Y-74064171D02*
X89006285Y-73278457D01*
X88934857Y-73135600D01*
X88792000Y-73064171D01*
X88506285Y-73064171D01*
X88363428Y-73135600D01*
X89006285Y-73992742D02*
X88863428Y-74064171D01*
X88506285Y-74064171D01*
X88363428Y-73992742D01*
X88292000Y-73849885D01*
X88292000Y-73707028D01*
X88363428Y-73564171D01*
X88506285Y-73492742D01*
X88863428Y-73492742D01*
X89006285Y-73421314D01*
X89720571Y-73064171D02*
X89720571Y-74064171D01*
X89720571Y-73207028D02*
X89792000Y-73135600D01*
X89934857Y-73064171D01*
X90149142Y-73064171D01*
X90292000Y-73135600D01*
X90363428Y-73278457D01*
X90363428Y-74064171D01*
X92220571Y-74064171D02*
X92220571Y-72564171D01*
X92220571Y-73278457D02*
X93077714Y-73278457D01*
X93077714Y-74064171D02*
X93077714Y-72564171D01*
X94006285Y-74064171D02*
X93863428Y-73992742D01*
X93792000Y-73921314D01*
X93720571Y-73778457D01*
X93720571Y-73349885D01*
X93792000Y-73207028D01*
X93863428Y-73135600D01*
X94006285Y-73064171D01*
X94220571Y-73064171D01*
X94363428Y-73135600D01*
X94434857Y-73207028D01*
X94506285Y-73349885D01*
X94506285Y-73778457D01*
X94434857Y-73921314D01*
X94363428Y-73992742D01*
X94220571Y-74064171D01*
X94006285Y-74064171D01*
X95149142Y-74064171D02*
X95149142Y-73064171D01*
X95149142Y-73349885D02*
X95220571Y-73207028D01*
X95292000Y-73135600D01*
X95434857Y-73064171D01*
X95577714Y-73064171D01*
X96077714Y-73064171D02*
X96077714Y-74064171D01*
X96077714Y-73207028D02*
X96149142Y-73135600D01*
X96292000Y-73064171D01*
X96506285Y-73064171D01*
X96649142Y-73135600D01*
X96720571Y-73278457D01*
X96720571Y-74064171D01*
D11*
G04 #@! TO.C,U21*
X109220000Y-86817200D02*
X109220000Y-55067200D01*
X109220000Y-86817200D02*
X77470000Y-86817200D01*
X109220000Y-55067200D02*
X77470000Y-55067200D01*
X77470000Y-86817200D02*
X77470000Y-55067200D01*
G04 #@! TO.C,U23*
X141251515Y-118846791D02*
X141251515Y-87096791D01*
X141251515Y-118846791D02*
X109501515Y-118846791D01*
X141251515Y-87096791D02*
X109501515Y-87096791D01*
X109501515Y-118846791D02*
X109501515Y-87096791D01*
G04 #@! TO.C,U20*
X141249400Y-86817200D02*
X141249400Y-55067200D01*
X141249400Y-86817200D02*
X109499400Y-86817200D01*
X141249400Y-55067200D02*
X109499400Y-55067200D01*
X109499400Y-86817200D02*
X109499400Y-55067200D01*
G04 #@! TO.C,U22*
X109220000Y-118846600D02*
X109220000Y-87096600D01*
X109220000Y-118846600D02*
X77470000Y-118846600D01*
X109220000Y-87096600D02*
X77470000Y-87096600D01*
X77470000Y-118846600D02*
X77470000Y-87096600D01*
G04 #@! TO.C,REF\002A\002A*
X153156920Y-128823720D02*
G75*
G03X153156920Y-128823720I-4013200J0D01*
G01*
X68483480Y-128823720D02*
G75*
G03X68483480Y-128823720I-4013200J0D01*
G01*
X68483480Y-45166280D02*
G75*
G03X68483480Y-45166280I-4013200J0D01*
G01*
G04 #@! TO.C,U8*
X64262000Y-106045000D02*
X64262000Y-118110000D01*
X64897000Y-105410000D02*
X71882000Y-105410000D01*
X64262000Y-106045000D02*
X64897000Y-105410000D01*
X71882000Y-118110000D02*
X71882000Y-105410000D01*
X64262000Y-118110000D02*
X71882000Y-118110000D01*
G04 #@! TO.C,U4*
X145542000Y-103505000D02*
X145542000Y-115570000D01*
X146177000Y-102870000D02*
X153162000Y-102870000D01*
X145542000Y-103505000D02*
X146177000Y-102870000D01*
X153162000Y-115570000D02*
X153162000Y-102870000D01*
X145542000Y-115570000D02*
X153162000Y-115570000D01*
G04 #@! TO.C,U1*
X130810000Y-41783000D02*
X130810000Y-53848000D01*
X131445000Y-41148000D02*
X138430000Y-41148000D01*
X130810000Y-41783000D02*
X131445000Y-41148000D01*
X138430000Y-53848000D02*
X138430000Y-41148000D01*
X130810000Y-53848000D02*
X138430000Y-53848000D01*
G04 #@! TO.C,U2*
X145542000Y-59055000D02*
X145542000Y-71120000D01*
X146177000Y-58420000D02*
X153162000Y-58420000D01*
X145542000Y-59055000D02*
X146177000Y-58420000D01*
X153162000Y-71120000D02*
X153162000Y-58420000D01*
X145542000Y-71120000D02*
X153162000Y-71120000D01*
G04 #@! TO.C,U3*
X145542000Y-81153000D02*
X145542000Y-93218000D01*
X146177000Y-80518000D02*
X153162000Y-80518000D01*
X145542000Y-81153000D02*
X146177000Y-80518000D01*
X153162000Y-93218000D02*
X153162000Y-80518000D01*
X145542000Y-93218000D02*
X153162000Y-93218000D01*
G04 #@! TO.C,U5*
X130810000Y-120777000D02*
X130810000Y-132842000D01*
X131445000Y-120142000D02*
X138430000Y-120142000D01*
X130810000Y-120777000D02*
X131445000Y-120142000D01*
X138430000Y-132842000D02*
X138430000Y-120142000D01*
X130810000Y-132842000D02*
X138430000Y-132842000D01*
G04 #@! TO.C,U6*
X105600500Y-120777000D02*
X105600500Y-132842000D01*
X106235500Y-120142000D02*
X113220500Y-120142000D01*
X105600500Y-120777000D02*
X106235500Y-120142000D01*
X113220500Y-132842000D02*
X113220500Y-120142000D01*
X105600500Y-132842000D02*
X113220500Y-132842000D01*
G04 #@! TO.C,U7*
X81280000Y-120777000D02*
X81280000Y-132842000D01*
X81915000Y-120142000D02*
X88900000Y-120142000D01*
X81280000Y-120777000D02*
X81915000Y-120142000D01*
X88900000Y-132842000D02*
X88900000Y-120142000D01*
X81280000Y-132842000D02*
X88900000Y-132842000D01*
G04 #@! TO.C,U9*
X64262000Y-81153000D02*
X64262000Y-93218000D01*
X64897000Y-80518000D02*
X71882000Y-80518000D01*
X64262000Y-81153000D02*
X64897000Y-80518000D01*
X71882000Y-93218000D02*
X71882000Y-80518000D01*
X64262000Y-93218000D02*
X71882000Y-93218000D01*
G04 #@! TO.C,U10*
X60452000Y-59055000D02*
X60452000Y-71120000D01*
X61087000Y-58420000D02*
X68072000Y-58420000D01*
X60452000Y-59055000D02*
X61087000Y-58420000D01*
X68072000Y-71120000D02*
X68072000Y-58420000D01*
X60452000Y-71120000D02*
X68072000Y-71120000D01*
G04 #@! TO.C,U11*
X77470000Y-41783000D02*
X77470000Y-53848000D01*
X78105000Y-41148000D02*
X85090000Y-41148000D01*
X77470000Y-41783000D02*
X78105000Y-41148000D01*
X85090000Y-53848000D02*
X85090000Y-41148000D01*
X77470000Y-53848000D02*
X85090000Y-53848000D01*
G04 #@! TO.C,U12*
X101600000Y-41783000D02*
X101600000Y-53848000D01*
X102235000Y-41148000D02*
X109220000Y-41148000D01*
X101600000Y-41783000D02*
X102235000Y-41148000D01*
X109220000Y-53848000D02*
X109220000Y-41148000D01*
X101600000Y-53848000D02*
X109220000Y-53848000D01*
G04 #@! TO.C,U13*
X68326000Y-59055000D02*
X68326000Y-71120000D01*
X68961000Y-58420000D02*
X75946000Y-58420000D01*
X68326000Y-59055000D02*
X68961000Y-58420000D01*
X75946000Y-71120000D02*
X75946000Y-58420000D01*
X68326000Y-71120000D02*
X75946000Y-71120000D01*
G04 #@! TO.C,U14*
X85344000Y-41783000D02*
X85344000Y-53848000D01*
X85979000Y-41148000D02*
X92964000Y-41148000D01*
X85344000Y-41783000D02*
X85979000Y-41148000D01*
X92964000Y-53848000D02*
X92964000Y-41148000D01*
X85344000Y-53848000D02*
X92964000Y-53848000D01*
G04 #@! TO.C,U15*
X109474000Y-41783000D02*
X109474000Y-53848000D01*
X110109000Y-41148000D02*
X117094000Y-41148000D01*
X109474000Y-41783000D02*
X110109000Y-41148000D01*
X117094000Y-53848000D02*
X117094000Y-41148000D01*
X109474000Y-53848000D02*
X117094000Y-53848000D01*
G04 #@! TO.C,REF\002A\002A*
X153156920Y-45166280D02*
G75*
G03X153156920Y-45166280I-4013200J0D01*
G01*
D12*
G04 #@! TO.C,G\002A\002A\002A*
G36*
X86797109Y-75012161D02*
X86829880Y-75033112D01*
X86876807Y-75070070D01*
X86915742Y-75103215D01*
X86932224Y-75130245D01*
X86930540Y-75158798D01*
X86918207Y-75190293D01*
X86893240Y-75237859D01*
X86858598Y-75296698D01*
X86817237Y-75362013D01*
X86772116Y-75429003D01*
X86726193Y-75492872D01*
X86717406Y-75504541D01*
X86681553Y-75554394D01*
X86644696Y-75610084D01*
X86609878Y-75666457D01*
X86580141Y-75718359D01*
X86558528Y-75760636D01*
X86548081Y-75788133D01*
X86547570Y-75792271D01*
X86537658Y-75809902D01*
X86521518Y-75823141D01*
X86501048Y-75842438D01*
X86495467Y-75856402D01*
X86486686Y-75875364D01*
X86464716Y-75902271D01*
X86455379Y-75911650D01*
X86428716Y-75943323D01*
X86398294Y-75988628D01*
X86372396Y-76034574D01*
X86331614Y-76114166D01*
X86299496Y-76174357D01*
X86273562Y-76219297D01*
X86251335Y-76253135D01*
X86230337Y-76280020D01*
X86216780Y-76295087D01*
X86189243Y-76326999D01*
X86157272Y-76368021D01*
X86124902Y-76412421D01*
X86096170Y-76454462D01*
X86075113Y-76488409D01*
X86065766Y-76508528D01*
X86065621Y-76509863D01*
X86057365Y-76526280D01*
X86037092Y-76551299D01*
X86033086Y-76555570D01*
X86008278Y-76584718D01*
X85976960Y-76625855D01*
X85951675Y-76661697D01*
X85906036Y-76726934D01*
X85854202Y-76797558D01*
X85800741Y-76867644D01*
X85750219Y-76931269D01*
X85707203Y-76982508D01*
X85688339Y-77003324D01*
X85654315Y-77039989D01*
X85623436Y-77074516D01*
X85610509Y-77089651D01*
X85587969Y-77116640D01*
X85555885Y-77154682D01*
X85525034Y-77191035D01*
X85486927Y-77242096D01*
X85468022Y-77282553D01*
X85466204Y-77295240D01*
X85455234Y-77341733D01*
X85422497Y-77395512D01*
X85367392Y-77457267D01*
X85289318Y-77527687D01*
X85204725Y-77594661D01*
X85156456Y-77627657D01*
X85116112Y-77644326D01*
X85073707Y-77647255D01*
X85027271Y-77640619D01*
X84998367Y-77625917D01*
X84967616Y-77597549D01*
X84942977Y-77564418D01*
X84932408Y-77535425D01*
X84932390Y-77534483D01*
X84936891Y-77512534D01*
X84948850Y-77473750D01*
X84965955Y-77425445D01*
X84971467Y-77410909D01*
X84989665Y-77360759D01*
X85003345Y-77317548D01*
X85010176Y-77288827D01*
X85010544Y-77284453D01*
X85015911Y-77260390D01*
X85029963Y-77221601D01*
X85049048Y-77177821D01*
X85073091Y-77123941D01*
X85100168Y-77058909D01*
X85124699Y-76996158D01*
X85126265Y-76991959D01*
X85220176Y-76764622D01*
X85270756Y-76659805D01*
X85296063Y-76605543D01*
X85321773Y-76543657D01*
X85335145Y-76507785D01*
X85354807Y-76459345D01*
X85383185Y-76399107D01*
X85415294Y-76337432D01*
X85427847Y-76315061D01*
X85455250Y-76266398D01*
X85476892Y-76225985D01*
X85489948Y-76199212D01*
X85492493Y-76191748D01*
X85499297Y-76175801D01*
X85516909Y-76145832D01*
X85535417Y-76117446D01*
X85563417Y-76072173D01*
X85594730Y-76015618D01*
X85621167Y-75962933D01*
X85644987Y-75915123D01*
X85667955Y-75873877D01*
X85685486Y-75847375D01*
X85686893Y-75845703D01*
X85704522Y-75820720D01*
X85726611Y-75782582D01*
X85750360Y-75737132D01*
X85772971Y-75690211D01*
X85791644Y-75647664D01*
X85803580Y-75615331D01*
X85805979Y-75599056D01*
X85805386Y-75598387D01*
X85785218Y-75598750D01*
X85750890Y-75610967D01*
X85709523Y-75631863D01*
X85668235Y-75658262D01*
X85663728Y-75661571D01*
X85626814Y-75686154D01*
X85579332Y-75713985D01*
X85549337Y-75729945D01*
X85508873Y-75753861D01*
X85460498Y-75787499D01*
X85410146Y-75826106D01*
X85363749Y-75864930D01*
X85327239Y-75899218D01*
X85306548Y-75924219D01*
X85306322Y-75924617D01*
X85304597Y-75938609D01*
X85323891Y-75943305D01*
X85329672Y-75943395D01*
X85375770Y-75951327D01*
X85413967Y-75971969D01*
X85441167Y-76000584D01*
X85454276Y-76032440D01*
X85450198Y-76062801D01*
X85425839Y-76086932D01*
X85424108Y-76087852D01*
X85394575Y-76107805D01*
X85363004Y-76135531D01*
X85361400Y-76137156D01*
X85326275Y-76167451D01*
X85288857Y-76192181D01*
X85257144Y-76218612D01*
X85227863Y-76258756D01*
X85221704Y-76270335D01*
X85173584Y-76347812D01*
X85116443Y-76402820D01*
X85093598Y-76416954D01*
X85069614Y-76433657D01*
X85032201Y-76464216D01*
X84986524Y-76504246D01*
X84938903Y-76548266D01*
X84891272Y-76591933D01*
X84847843Y-76628945D01*
X84813361Y-76655436D01*
X84792575Y-76667541D01*
X84792365Y-76667601D01*
X84769599Y-76677848D01*
X84763057Y-76686382D01*
X84753094Y-76698984D01*
X84726831Y-76721950D01*
X84689704Y-76751289D01*
X84647153Y-76783007D01*
X84604614Y-76813112D01*
X84567524Y-76837613D01*
X84541323Y-76852515D01*
X84533141Y-76855190D01*
X84519025Y-76844294D01*
X84515570Y-76828370D01*
X84510881Y-76810121D01*
X84503444Y-76809044D01*
X84487892Y-76807019D01*
X84475507Y-76781919D01*
X84466910Y-76736595D01*
X84462724Y-76673900D01*
X84462729Y-76622103D01*
X84473363Y-76579315D01*
X84502361Y-76523131D01*
X84547791Y-76456488D01*
X84607722Y-76382324D01*
X84654300Y-76330663D01*
X84690482Y-76290885D01*
X84718628Y-76257645D01*
X84734726Y-76235795D01*
X84737006Y-76230593D01*
X84747720Y-76217441D01*
X84762030Y-76210746D01*
X84778925Y-76199385D01*
X84810797Y-76172587D01*
X84854266Y-76133399D01*
X84890152Y-76099703D01*
X85119133Y-76099703D01*
X85130217Y-76091206D01*
X85147313Y-76073651D01*
X85160600Y-76054946D01*
X85158978Y-76047600D01*
X85143538Y-76057428D01*
X85130798Y-76073651D01*
X85120010Y-76093554D01*
X85119133Y-76099703D01*
X84890152Y-76099703D01*
X84905952Y-76084868D01*
X84961737Y-76030766D01*
X85061066Y-75933701D01*
X85145664Y-75852946D01*
X85218655Y-75785842D01*
X85283163Y-75729728D01*
X85342313Y-75681947D01*
X85399229Y-75639838D01*
X85457037Y-75600743D01*
X85496167Y-75575938D01*
X85562641Y-75536197D01*
X85637569Y-75493728D01*
X85708407Y-75455571D01*
X85733467Y-75442752D01*
X85787639Y-75416112D01*
X85825413Y-75399751D01*
X85853530Y-75391969D01*
X85878728Y-75391070D01*
X85907744Y-75395353D01*
X85915518Y-75396863D01*
X85967286Y-75410818D01*
X85998794Y-75431346D01*
X86015824Y-75464237D01*
X86023048Y-75504574D01*
X86023652Y-75553021D01*
X86017315Y-75609122D01*
X86005827Y-75663404D01*
X85990982Y-75706396D01*
X85981909Y-75721959D01*
X85966783Y-75745627D01*
X85947466Y-75781131D01*
X85941232Y-75793600D01*
X85918060Y-75835787D01*
X85892786Y-75874419D01*
X85887639Y-75881191D01*
X85866553Y-75912404D01*
X85841199Y-75956394D01*
X85822884Y-75991909D01*
X85798247Y-76039926D01*
X85772867Y-76085251D01*
X85757575Y-76109904D01*
X85736072Y-76148532D01*
X85721518Y-76186401D01*
X85720573Y-76190285D01*
X85705863Y-76225739D01*
X85681181Y-76261419D01*
X85678783Y-76264078D01*
X85655461Y-76294816D01*
X85625119Y-76342449D01*
X85591534Y-76400166D01*
X85558482Y-76461152D01*
X85529741Y-76518595D01*
X85509086Y-76565683D01*
X85504406Y-76578638D01*
X85490284Y-76615255D01*
X85468743Y-76664227D01*
X85444861Y-76714109D01*
X85423838Y-76757053D01*
X85408387Y-76790540D01*
X85401440Y-76808174D01*
X85401313Y-76809045D01*
X85396194Y-76823463D01*
X85382316Y-76856362D01*
X85361901Y-76902598D01*
X85341202Y-76948252D01*
X85313904Y-77011698D01*
X85289625Y-77075299D01*
X85269910Y-77134117D01*
X85256305Y-77183214D01*
X85250353Y-77217651D01*
X85252515Y-77231759D01*
X85263976Y-77226099D01*
X85288225Y-77203677D01*
X85321925Y-77168190D01*
X85361738Y-77123337D01*
X85404326Y-77072814D01*
X85446350Y-77020320D01*
X85463107Y-76998472D01*
X85496902Y-76954294D01*
X85525844Y-76917446D01*
X85545643Y-76893342D01*
X85550783Y-76887754D01*
X85565420Y-76870642D01*
X85589208Y-76839603D01*
X85611070Y-76809600D01*
X85641298Y-76768245D01*
X85670053Y-76730586D01*
X85685154Y-76711908D01*
X85740064Y-76646468D01*
X85784943Y-76590785D01*
X85825963Y-76536757D01*
X85869294Y-76476277D01*
X85915826Y-76408962D01*
X85957767Y-76347572D01*
X85998337Y-76287980D01*
X86033319Y-76236393D01*
X86058497Y-76199018D01*
X86061517Y-76194498D01*
X86094134Y-76146888D01*
X86129374Y-76097367D01*
X86144050Y-76077426D01*
X86167313Y-76042219D01*
X86197104Y-75991290D01*
X86228937Y-75932523D01*
X86248907Y-75893228D01*
X86281583Y-75831129D01*
X86317506Y-75769445D01*
X86351298Y-75717153D01*
X86368271Y-75694069D01*
X86400868Y-75650016D01*
X86429496Y-75606000D01*
X86445372Y-75576787D01*
X86465844Y-75542579D01*
X86502100Y-75493566D01*
X86551333Y-75433191D01*
X86610735Y-75364897D01*
X86677394Y-75292240D01*
X86705072Y-75256731D01*
X86735957Y-75207957D01*
X86762431Y-75158324D01*
X86804685Y-75069871D01*
X86779387Y-75037710D01*
X86763497Y-75015538D01*
X86764122Y-75006870D01*
X86776110Y-75005549D01*
X86797109Y-75012161D01*
X86797109Y-75012161D01*
G37*
X86797109Y-75012161D02*
X86829880Y-75033112D01*
X86876807Y-75070070D01*
X86915742Y-75103215D01*
X86932224Y-75130245D01*
X86930540Y-75158798D01*
X86918207Y-75190293D01*
X86893240Y-75237859D01*
X86858598Y-75296698D01*
X86817237Y-75362013D01*
X86772116Y-75429003D01*
X86726193Y-75492872D01*
X86717406Y-75504541D01*
X86681553Y-75554394D01*
X86644696Y-75610084D01*
X86609878Y-75666457D01*
X86580141Y-75718359D01*
X86558528Y-75760636D01*
X86548081Y-75788133D01*
X86547570Y-75792271D01*
X86537658Y-75809902D01*
X86521518Y-75823141D01*
X86501048Y-75842438D01*
X86495467Y-75856402D01*
X86486686Y-75875364D01*
X86464716Y-75902271D01*
X86455379Y-75911650D01*
X86428716Y-75943323D01*
X86398294Y-75988628D01*
X86372396Y-76034574D01*
X86331614Y-76114166D01*
X86299496Y-76174357D01*
X86273562Y-76219297D01*
X86251335Y-76253135D01*
X86230337Y-76280020D01*
X86216780Y-76295087D01*
X86189243Y-76326999D01*
X86157272Y-76368021D01*
X86124902Y-76412421D01*
X86096170Y-76454462D01*
X86075113Y-76488409D01*
X86065766Y-76508528D01*
X86065621Y-76509863D01*
X86057365Y-76526280D01*
X86037092Y-76551299D01*
X86033086Y-76555570D01*
X86008278Y-76584718D01*
X85976960Y-76625855D01*
X85951675Y-76661697D01*
X85906036Y-76726934D01*
X85854202Y-76797558D01*
X85800741Y-76867644D01*
X85750219Y-76931269D01*
X85707203Y-76982508D01*
X85688339Y-77003324D01*
X85654315Y-77039989D01*
X85623436Y-77074516D01*
X85610509Y-77089651D01*
X85587969Y-77116640D01*
X85555885Y-77154682D01*
X85525034Y-77191035D01*
X85486927Y-77242096D01*
X85468022Y-77282553D01*
X85466204Y-77295240D01*
X85455234Y-77341733D01*
X85422497Y-77395512D01*
X85367392Y-77457267D01*
X85289318Y-77527687D01*
X85204725Y-77594661D01*
X85156456Y-77627657D01*
X85116112Y-77644326D01*
X85073707Y-77647255D01*
X85027271Y-77640619D01*
X84998367Y-77625917D01*
X84967616Y-77597549D01*
X84942977Y-77564418D01*
X84932408Y-77535425D01*
X84932390Y-77534483D01*
X84936891Y-77512534D01*
X84948850Y-77473750D01*
X84965955Y-77425445D01*
X84971467Y-77410909D01*
X84989665Y-77360759D01*
X85003345Y-77317548D01*
X85010176Y-77288827D01*
X85010544Y-77284453D01*
X85015911Y-77260390D01*
X85029963Y-77221601D01*
X85049048Y-77177821D01*
X85073091Y-77123941D01*
X85100168Y-77058909D01*
X85124699Y-76996158D01*
X85126265Y-76991959D01*
X85220176Y-76764622D01*
X85270756Y-76659805D01*
X85296063Y-76605543D01*
X85321773Y-76543657D01*
X85335145Y-76507785D01*
X85354807Y-76459345D01*
X85383185Y-76399107D01*
X85415294Y-76337432D01*
X85427847Y-76315061D01*
X85455250Y-76266398D01*
X85476892Y-76225985D01*
X85489948Y-76199212D01*
X85492493Y-76191748D01*
X85499297Y-76175801D01*
X85516909Y-76145832D01*
X85535417Y-76117446D01*
X85563417Y-76072173D01*
X85594730Y-76015618D01*
X85621167Y-75962933D01*
X85644987Y-75915123D01*
X85667955Y-75873877D01*
X85685486Y-75847375D01*
X85686893Y-75845703D01*
X85704522Y-75820720D01*
X85726611Y-75782582D01*
X85750360Y-75737132D01*
X85772971Y-75690211D01*
X85791644Y-75647664D01*
X85803580Y-75615331D01*
X85805979Y-75599056D01*
X85805386Y-75598387D01*
X85785218Y-75598750D01*
X85750890Y-75610967D01*
X85709523Y-75631863D01*
X85668235Y-75658262D01*
X85663728Y-75661571D01*
X85626814Y-75686154D01*
X85579332Y-75713985D01*
X85549337Y-75729945D01*
X85508873Y-75753861D01*
X85460498Y-75787499D01*
X85410146Y-75826106D01*
X85363749Y-75864930D01*
X85327239Y-75899218D01*
X85306548Y-75924219D01*
X85306322Y-75924617D01*
X85304597Y-75938609D01*
X85323891Y-75943305D01*
X85329672Y-75943395D01*
X85375770Y-75951327D01*
X85413967Y-75971969D01*
X85441167Y-76000584D01*
X85454276Y-76032440D01*
X85450198Y-76062801D01*
X85425839Y-76086932D01*
X85424108Y-76087852D01*
X85394575Y-76107805D01*
X85363004Y-76135531D01*
X85361400Y-76137156D01*
X85326275Y-76167451D01*
X85288857Y-76192181D01*
X85257144Y-76218612D01*
X85227863Y-76258756D01*
X85221704Y-76270335D01*
X85173584Y-76347812D01*
X85116443Y-76402820D01*
X85093598Y-76416954D01*
X85069614Y-76433657D01*
X85032201Y-76464216D01*
X84986524Y-76504246D01*
X84938903Y-76548266D01*
X84891272Y-76591933D01*
X84847843Y-76628945D01*
X84813361Y-76655436D01*
X84792575Y-76667541D01*
X84792365Y-76667601D01*
X84769599Y-76677848D01*
X84763057Y-76686382D01*
X84753094Y-76698984D01*
X84726831Y-76721950D01*
X84689704Y-76751289D01*
X84647153Y-76783007D01*
X84604614Y-76813112D01*
X84567524Y-76837613D01*
X84541323Y-76852515D01*
X84533141Y-76855190D01*
X84519025Y-76844294D01*
X84515570Y-76828370D01*
X84510881Y-76810121D01*
X84503444Y-76809044D01*
X84487892Y-76807019D01*
X84475507Y-76781919D01*
X84466910Y-76736595D01*
X84462724Y-76673900D01*
X84462729Y-76622103D01*
X84473363Y-76579315D01*
X84502361Y-76523131D01*
X84547791Y-76456488D01*
X84607722Y-76382324D01*
X84654300Y-76330663D01*
X84690482Y-76290885D01*
X84718628Y-76257645D01*
X84734726Y-76235795D01*
X84737006Y-76230593D01*
X84747720Y-76217441D01*
X84762030Y-76210746D01*
X84778925Y-76199385D01*
X84810797Y-76172587D01*
X84854266Y-76133399D01*
X84890152Y-76099703D01*
X85119133Y-76099703D01*
X85130217Y-76091206D01*
X85147313Y-76073651D01*
X85160600Y-76054946D01*
X85158978Y-76047600D01*
X85143538Y-76057428D01*
X85130798Y-76073651D01*
X85120010Y-76093554D01*
X85119133Y-76099703D01*
X84890152Y-76099703D01*
X84905952Y-76084868D01*
X84961737Y-76030766D01*
X85061066Y-75933701D01*
X85145664Y-75852946D01*
X85218655Y-75785842D01*
X85283163Y-75729728D01*
X85342313Y-75681947D01*
X85399229Y-75639838D01*
X85457037Y-75600743D01*
X85496167Y-75575938D01*
X85562641Y-75536197D01*
X85637569Y-75493728D01*
X85708407Y-75455571D01*
X85733467Y-75442752D01*
X85787639Y-75416112D01*
X85825413Y-75399751D01*
X85853530Y-75391969D01*
X85878728Y-75391070D01*
X85907744Y-75395353D01*
X85915518Y-75396863D01*
X85967286Y-75410818D01*
X85998794Y-75431346D01*
X86015824Y-75464237D01*
X86023048Y-75504574D01*
X86023652Y-75553021D01*
X86017315Y-75609122D01*
X86005827Y-75663404D01*
X85990982Y-75706396D01*
X85981909Y-75721959D01*
X85966783Y-75745627D01*
X85947466Y-75781131D01*
X85941232Y-75793600D01*
X85918060Y-75835787D01*
X85892786Y-75874419D01*
X85887639Y-75881191D01*
X85866553Y-75912404D01*
X85841199Y-75956394D01*
X85822884Y-75991909D01*
X85798247Y-76039926D01*
X85772867Y-76085251D01*
X85757575Y-76109904D01*
X85736072Y-76148532D01*
X85721518Y-76186401D01*
X85720573Y-76190285D01*
X85705863Y-76225739D01*
X85681181Y-76261419D01*
X85678783Y-76264078D01*
X85655461Y-76294816D01*
X85625119Y-76342449D01*
X85591534Y-76400166D01*
X85558482Y-76461152D01*
X85529741Y-76518595D01*
X85509086Y-76565683D01*
X85504406Y-76578638D01*
X85490284Y-76615255D01*
X85468743Y-76664227D01*
X85444861Y-76714109D01*
X85423838Y-76757053D01*
X85408387Y-76790540D01*
X85401440Y-76808174D01*
X85401313Y-76809045D01*
X85396194Y-76823463D01*
X85382316Y-76856362D01*
X85361901Y-76902598D01*
X85341202Y-76948252D01*
X85313904Y-77011698D01*
X85289625Y-77075299D01*
X85269910Y-77134117D01*
X85256305Y-77183214D01*
X85250353Y-77217651D01*
X85252515Y-77231759D01*
X85263976Y-77226099D01*
X85288225Y-77203677D01*
X85321925Y-77168190D01*
X85361738Y-77123337D01*
X85404326Y-77072814D01*
X85446350Y-77020320D01*
X85463107Y-76998472D01*
X85496902Y-76954294D01*
X85525844Y-76917446D01*
X85545643Y-76893342D01*
X85550783Y-76887754D01*
X85565420Y-76870642D01*
X85589208Y-76839603D01*
X85611070Y-76809600D01*
X85641298Y-76768245D01*
X85670053Y-76730586D01*
X85685154Y-76711908D01*
X85740064Y-76646468D01*
X85784943Y-76590785D01*
X85825963Y-76536757D01*
X85869294Y-76476277D01*
X85915826Y-76408962D01*
X85957767Y-76347572D01*
X85998337Y-76287980D01*
X86033319Y-76236393D01*
X86058497Y-76199018D01*
X86061517Y-76194498D01*
X86094134Y-76146888D01*
X86129374Y-76097367D01*
X86144050Y-76077426D01*
X86167313Y-76042219D01*
X86197104Y-75991290D01*
X86228937Y-75932523D01*
X86248907Y-75893228D01*
X86281583Y-75831129D01*
X86317506Y-75769445D01*
X86351298Y-75717153D01*
X86368271Y-75694069D01*
X86400868Y-75650016D01*
X86429496Y-75606000D01*
X86445372Y-75576787D01*
X86465844Y-75542579D01*
X86502100Y-75493566D01*
X86551333Y-75433191D01*
X86610735Y-75364897D01*
X86677394Y-75292240D01*
X86705072Y-75256731D01*
X86735957Y-75207957D01*
X86762431Y-75158324D01*
X86804685Y-75069871D01*
X86779387Y-75037710D01*
X86763497Y-75015538D01*
X86764122Y-75006870D01*
X86776110Y-75005549D01*
X86797109Y-75012161D01*
G36*
X87737306Y-76552982D02*
X87745929Y-76567031D01*
X87754281Y-76581406D01*
X87775357Y-76606408D01*
X87786980Y-76618694D01*
X87828032Y-76660683D01*
X87812152Y-76735141D01*
X87800759Y-76779142D01*
X87782691Y-76838451D01*
X87760771Y-76904115D01*
X87745050Y-76947977D01*
X87724628Y-77003857D01*
X87708072Y-77050513D01*
X87697214Y-77082691D01*
X87693826Y-77094886D01*
X87688571Y-77109781D01*
X87674558Y-77142132D01*
X87654411Y-77185963D01*
X87645880Y-77203996D01*
X87619051Y-77262900D01*
X87592899Y-77324679D01*
X87572646Y-77376948D01*
X87570982Y-77381642D01*
X87544031Y-77458710D01*
X87454447Y-77488808D01*
X87364864Y-77518906D01*
X87371076Y-77463792D01*
X87372858Y-77422680D01*
X87369585Y-77388834D01*
X87367860Y-77382678D01*
X87366163Y-77350505D01*
X87372616Y-77330626D01*
X87384230Y-77307460D01*
X87387788Y-77298062D01*
X87395056Y-77270707D01*
X87409775Y-77227355D01*
X87428936Y-77175869D01*
X87449528Y-77124109D01*
X87468541Y-77079938D01*
X87481009Y-77054595D01*
X87497458Y-77017959D01*
X87499895Y-76996280D01*
X87490114Y-76992488D01*
X87469907Y-77009516D01*
X87460549Y-77021143D01*
X87438134Y-77050521D01*
X87420930Y-77072219D01*
X87420429Y-77072819D01*
X87408531Y-77094193D01*
X87407262Y-77101042D01*
X87398963Y-77117078D01*
X87397493Y-77117873D01*
X87380069Y-77134353D01*
X87357444Y-77166520D01*
X87334523Y-77206051D01*
X87316213Y-77244622D01*
X87308109Y-77269542D01*
X87293107Y-77308436D01*
X87268005Y-77346022D01*
X87265515Y-77348794D01*
X87226847Y-77395329D01*
X87185486Y-77452552D01*
X87149345Y-77509120D01*
X87133302Y-77538340D01*
X87111190Y-77573234D01*
X87081129Y-77610155D01*
X87075108Y-77616494D01*
X87045860Y-77650976D01*
X87023141Y-77685751D01*
X87020028Y-77692087D01*
X87001352Y-77720673D01*
X86983437Y-77725764D01*
X86969658Y-77706775D01*
X86967972Y-77701120D01*
X86954953Y-77681623D01*
X86941671Y-77681736D01*
X86916207Y-77680092D01*
X86883817Y-77664845D01*
X86853912Y-77642237D01*
X86835902Y-77618513D01*
X86834134Y-77610383D01*
X86827902Y-77585892D01*
X86821108Y-77578113D01*
X86808862Y-77560682D01*
X86820118Y-77536369D01*
X86830426Y-77525066D01*
X86847567Y-77499395D01*
X86866950Y-77458473D01*
X86884599Y-77412351D01*
X86896543Y-77371076D01*
X86899381Y-77350664D01*
X86904939Y-77328316D01*
X86919092Y-77292360D01*
X86931538Y-77265497D01*
X86955090Y-77208574D01*
X86963552Y-77165552D01*
X86956459Y-77139342D01*
X86952175Y-77135742D01*
X86937345Y-77139973D01*
X86917836Y-77160469D01*
X86916354Y-77162579D01*
X86888585Y-77198431D01*
X86863441Y-77226213D01*
X86843015Y-77249306D01*
X86834145Y-77264703D01*
X86834134Y-77264980D01*
X86827252Y-77281187D01*
X86810542Y-77307618D01*
X86809114Y-77309639D01*
X86789392Y-77340639D01*
X86764778Y-77383945D01*
X86738425Y-77433379D01*
X86713481Y-77482761D01*
X86693100Y-77525913D01*
X86680432Y-77556655D01*
X86677826Y-77567079D01*
X86667902Y-77586078D01*
X86647417Y-77603950D01*
X86617669Y-77630858D01*
X86600602Y-77654530D01*
X86580014Y-77679465D01*
X86546322Y-77708055D01*
X86527250Y-77721180D01*
X86489479Y-77748695D01*
X86458730Y-77777358D01*
X86449451Y-77789003D01*
X86431137Y-77810050D01*
X86415157Y-77809313D01*
X86411274Y-77806454D01*
X86400197Y-77783449D01*
X86401095Y-77764762D01*
X86402214Y-77744895D01*
X86389981Y-77744074D01*
X86375470Y-77758080D01*
X86374980Y-77765356D01*
X86370590Y-77778649D01*
X86350882Y-77776180D01*
X86320408Y-77759035D01*
X86307342Y-77749212D01*
X86286296Y-77731131D01*
X86276183Y-77714683D01*
X86275089Y-77691387D01*
X86281101Y-77652760D01*
X86283104Y-77641815D01*
X86290919Y-77590952D01*
X86290931Y-77564060D01*
X86282803Y-77560151D01*
X86266197Y-77578239D01*
X86262942Y-77582806D01*
X86237757Y-77615565D01*
X86212159Y-77645270D01*
X86192146Y-77668784D01*
X86182922Y-77683280D01*
X86182852Y-77683830D01*
X86175091Y-77696551D01*
X86154823Y-77723057D01*
X86128710Y-77754878D01*
X86088380Y-77795128D01*
X86051979Y-77817285D01*
X86022978Y-77819826D01*
X86008085Y-77807808D01*
X85991448Y-77801257D01*
X85970338Y-77802413D01*
X85942656Y-77799734D01*
X85914377Y-77777799D01*
X85904899Y-77767103D01*
X85883003Y-77737672D01*
X85870920Y-77714811D01*
X85870100Y-77710626D01*
X85869524Y-77691386D01*
X85868103Y-77653023D01*
X85866097Y-77602440D01*
X85865146Y-77579309D01*
X85863879Y-77515530D01*
X85866944Y-77469564D01*
X85875261Y-77433396D01*
X85884535Y-77409976D01*
X85900006Y-77366392D01*
X85908493Y-77324035D01*
X85909027Y-77314692D01*
X85914710Y-77276254D01*
X85928573Y-77230963D01*
X85934348Y-77217000D01*
X85934628Y-77216369D01*
X86193884Y-77216369D01*
X86201747Y-77219908D01*
X86214891Y-77213395D01*
X86599672Y-77213395D01*
X86606185Y-77219908D01*
X86612698Y-77213395D01*
X86606185Y-77206882D01*
X86599672Y-77213395D01*
X86214891Y-77213395D01*
X86222630Y-77209561D01*
X86234954Y-77193856D01*
X86242998Y-77173742D01*
X86241467Y-77167805D01*
X86240838Y-77158262D01*
X86247980Y-77141754D01*
X86258145Y-77119745D01*
X86255405Y-77117261D01*
X86241865Y-77132534D01*
X86219630Y-77163796D01*
X86216962Y-77167805D01*
X86197536Y-77200250D01*
X86193884Y-77216369D01*
X85934628Y-77216369D01*
X85954949Y-77170720D01*
X85975041Y-77124927D01*
X85979378Y-77114912D01*
X85997950Y-77083633D01*
X86029334Y-77042136D01*
X86067521Y-76998215D01*
X86077288Y-76987912D01*
X86117698Y-76947615D01*
X86147074Y-76923301D01*
X86171321Y-76911159D01*
X86196343Y-76907380D01*
X86202220Y-76907292D01*
X86245007Y-76913258D01*
X86291470Y-76928021D01*
X86300824Y-76932216D01*
X86352409Y-76957139D01*
X86384230Y-76902840D01*
X86412101Y-76862936D01*
X86449772Y-76818330D01*
X86475691Y-76791701D01*
X86510645Y-76760269D01*
X86535657Y-76744467D01*
X86558314Y-76740651D01*
X86576800Y-76743154D01*
X86615476Y-76758296D01*
X86651628Y-76783420D01*
X86652595Y-76784334D01*
X86672948Y-76807222D01*
X86681920Y-76831025D01*
X86682429Y-76866106D01*
X86680967Y-76885051D01*
X86674353Y-76932789D01*
X86662764Y-76992474D01*
X86648863Y-77050574D01*
X86635347Y-77101102D01*
X86623773Y-77144427D01*
X86616382Y-77172156D01*
X86615809Y-77174318D01*
X86615792Y-77186205D01*
X86626187Y-77178554D01*
X86644605Y-77154515D01*
X86668657Y-77117239D01*
X86695957Y-77069876D01*
X86698472Y-77065262D01*
X86726502Y-77021390D01*
X86765682Y-76969753D01*
X86808239Y-76920492D01*
X86814595Y-76913766D01*
X86859026Y-76869932D01*
X86895528Y-76841339D01*
X86932076Y-76822594D01*
X86966395Y-76811155D01*
X87021408Y-76796794D01*
X87059828Y-76792448D01*
X87089654Y-76799536D01*
X87118886Y-76819473D01*
X87144125Y-76842648D01*
X87176557Y-76876759D01*
X87193081Y-76904594D01*
X87198605Y-76935542D01*
X87198852Y-76947311D01*
X87200149Y-76979841D01*
X87206210Y-76991614D01*
X87220293Y-76987878D01*
X87223104Y-76986409D01*
X87240974Y-76969549D01*
X87266775Y-76936376D01*
X87295651Y-76893274D01*
X87302977Y-76881374D01*
X87358159Y-76804130D01*
X87428237Y-76727010D01*
X87505971Y-76656901D01*
X87584119Y-76600689D01*
X87618489Y-76581254D01*
X87669359Y-76559536D01*
X87710390Y-76549953D01*
X87737306Y-76552982D01*
X87737306Y-76552982D01*
G37*
X87737306Y-76552982D02*
X87745929Y-76567031D01*
X87754281Y-76581406D01*
X87775357Y-76606408D01*
X87786980Y-76618694D01*
X87828032Y-76660683D01*
X87812152Y-76735141D01*
X87800759Y-76779142D01*
X87782691Y-76838451D01*
X87760771Y-76904115D01*
X87745050Y-76947977D01*
X87724628Y-77003857D01*
X87708072Y-77050513D01*
X87697214Y-77082691D01*
X87693826Y-77094886D01*
X87688571Y-77109781D01*
X87674558Y-77142132D01*
X87654411Y-77185963D01*
X87645880Y-77203996D01*
X87619051Y-77262900D01*
X87592899Y-77324679D01*
X87572646Y-77376948D01*
X87570982Y-77381642D01*
X87544031Y-77458710D01*
X87454447Y-77488808D01*
X87364864Y-77518906D01*
X87371076Y-77463792D01*
X87372858Y-77422680D01*
X87369585Y-77388834D01*
X87367860Y-77382678D01*
X87366163Y-77350505D01*
X87372616Y-77330626D01*
X87384230Y-77307460D01*
X87387788Y-77298062D01*
X87395056Y-77270707D01*
X87409775Y-77227355D01*
X87428936Y-77175869D01*
X87449528Y-77124109D01*
X87468541Y-77079938D01*
X87481009Y-77054595D01*
X87497458Y-77017959D01*
X87499895Y-76996280D01*
X87490114Y-76992488D01*
X87469907Y-77009516D01*
X87460549Y-77021143D01*
X87438134Y-77050521D01*
X87420930Y-77072219D01*
X87420429Y-77072819D01*
X87408531Y-77094193D01*
X87407262Y-77101042D01*
X87398963Y-77117078D01*
X87397493Y-77117873D01*
X87380069Y-77134353D01*
X87357444Y-77166520D01*
X87334523Y-77206051D01*
X87316213Y-77244622D01*
X87308109Y-77269542D01*
X87293107Y-77308436D01*
X87268005Y-77346022D01*
X87265515Y-77348794D01*
X87226847Y-77395329D01*
X87185486Y-77452552D01*
X87149345Y-77509120D01*
X87133302Y-77538340D01*
X87111190Y-77573234D01*
X87081129Y-77610155D01*
X87075108Y-77616494D01*
X87045860Y-77650976D01*
X87023141Y-77685751D01*
X87020028Y-77692087D01*
X87001352Y-77720673D01*
X86983437Y-77725764D01*
X86969658Y-77706775D01*
X86967972Y-77701120D01*
X86954953Y-77681623D01*
X86941671Y-77681736D01*
X86916207Y-77680092D01*
X86883817Y-77664845D01*
X86853912Y-77642237D01*
X86835902Y-77618513D01*
X86834134Y-77610383D01*
X86827902Y-77585892D01*
X86821108Y-77578113D01*
X86808862Y-77560682D01*
X86820118Y-77536369D01*
X86830426Y-77525066D01*
X86847567Y-77499395D01*
X86866950Y-77458473D01*
X86884599Y-77412351D01*
X86896543Y-77371076D01*
X86899381Y-77350664D01*
X86904939Y-77328316D01*
X86919092Y-77292360D01*
X86931538Y-77265497D01*
X86955090Y-77208574D01*
X86963552Y-77165552D01*
X86956459Y-77139342D01*
X86952175Y-77135742D01*
X86937345Y-77139973D01*
X86917836Y-77160469D01*
X86916354Y-77162579D01*
X86888585Y-77198431D01*
X86863441Y-77226213D01*
X86843015Y-77249306D01*
X86834145Y-77264703D01*
X86834134Y-77264980D01*
X86827252Y-77281187D01*
X86810542Y-77307618D01*
X86809114Y-77309639D01*
X86789392Y-77340639D01*
X86764778Y-77383945D01*
X86738425Y-77433379D01*
X86713481Y-77482761D01*
X86693100Y-77525913D01*
X86680432Y-77556655D01*
X86677826Y-77567079D01*
X86667902Y-77586078D01*
X86647417Y-77603950D01*
X86617669Y-77630858D01*
X86600602Y-77654530D01*
X86580014Y-77679465D01*
X86546322Y-77708055D01*
X86527250Y-77721180D01*
X86489479Y-77748695D01*
X86458730Y-77777358D01*
X86449451Y-77789003D01*
X86431137Y-77810050D01*
X86415157Y-77809313D01*
X86411274Y-77806454D01*
X86400197Y-77783449D01*
X86401095Y-77764762D01*
X86402214Y-77744895D01*
X86389981Y-77744074D01*
X86375470Y-77758080D01*
X86374980Y-77765356D01*
X86370590Y-77778649D01*
X86350882Y-77776180D01*
X86320408Y-77759035D01*
X86307342Y-77749212D01*
X86286296Y-77731131D01*
X86276183Y-77714683D01*
X86275089Y-77691387D01*
X86281101Y-77652760D01*
X86283104Y-77641815D01*
X86290919Y-77590952D01*
X86290931Y-77564060D01*
X86282803Y-77560151D01*
X86266197Y-77578239D01*
X86262942Y-77582806D01*
X86237757Y-77615565D01*
X86212159Y-77645270D01*
X86192146Y-77668784D01*
X86182922Y-77683280D01*
X86182852Y-77683830D01*
X86175091Y-77696551D01*
X86154823Y-77723057D01*
X86128710Y-77754878D01*
X86088380Y-77795128D01*
X86051979Y-77817285D01*
X86022978Y-77819826D01*
X86008085Y-77807808D01*
X85991448Y-77801257D01*
X85970338Y-77802413D01*
X85942656Y-77799734D01*
X85914377Y-77777799D01*
X85904899Y-77767103D01*
X85883003Y-77737672D01*
X85870920Y-77714811D01*
X85870100Y-77710626D01*
X85869524Y-77691386D01*
X85868103Y-77653023D01*
X85866097Y-77602440D01*
X85865146Y-77579309D01*
X85863879Y-77515530D01*
X85866944Y-77469564D01*
X85875261Y-77433396D01*
X85884535Y-77409976D01*
X85900006Y-77366392D01*
X85908493Y-77324035D01*
X85909027Y-77314692D01*
X85914710Y-77276254D01*
X85928573Y-77230963D01*
X85934348Y-77217000D01*
X85934628Y-77216369D01*
X86193884Y-77216369D01*
X86201747Y-77219908D01*
X86214891Y-77213395D01*
X86599672Y-77213395D01*
X86606185Y-77219908D01*
X86612698Y-77213395D01*
X86606185Y-77206882D01*
X86599672Y-77213395D01*
X86214891Y-77213395D01*
X86222630Y-77209561D01*
X86234954Y-77193856D01*
X86242998Y-77173742D01*
X86241467Y-77167805D01*
X86240838Y-77158262D01*
X86247980Y-77141754D01*
X86258145Y-77119745D01*
X86255405Y-77117261D01*
X86241865Y-77132534D01*
X86219630Y-77163796D01*
X86216962Y-77167805D01*
X86197536Y-77200250D01*
X86193884Y-77216369D01*
X85934628Y-77216369D01*
X85954949Y-77170720D01*
X85975041Y-77124927D01*
X85979378Y-77114912D01*
X85997950Y-77083633D01*
X86029334Y-77042136D01*
X86067521Y-76998215D01*
X86077288Y-76987912D01*
X86117698Y-76947615D01*
X86147074Y-76923301D01*
X86171321Y-76911159D01*
X86196343Y-76907380D01*
X86202220Y-76907292D01*
X86245007Y-76913258D01*
X86291470Y-76928021D01*
X86300824Y-76932216D01*
X86352409Y-76957139D01*
X86384230Y-76902840D01*
X86412101Y-76862936D01*
X86449772Y-76818330D01*
X86475691Y-76791701D01*
X86510645Y-76760269D01*
X86535657Y-76744467D01*
X86558314Y-76740651D01*
X86576800Y-76743154D01*
X86615476Y-76758296D01*
X86651628Y-76783420D01*
X86652595Y-76784334D01*
X86672948Y-76807222D01*
X86681920Y-76831025D01*
X86682429Y-76866106D01*
X86680967Y-76885051D01*
X86674353Y-76932789D01*
X86662764Y-76992474D01*
X86648863Y-77050574D01*
X86635347Y-77101102D01*
X86623773Y-77144427D01*
X86616382Y-77172156D01*
X86615809Y-77174318D01*
X86615792Y-77186205D01*
X86626187Y-77178554D01*
X86644605Y-77154515D01*
X86668657Y-77117239D01*
X86695957Y-77069876D01*
X86698472Y-77065262D01*
X86726502Y-77021390D01*
X86765682Y-76969753D01*
X86808239Y-76920492D01*
X86814595Y-76913766D01*
X86859026Y-76869932D01*
X86895528Y-76841339D01*
X86932076Y-76822594D01*
X86966395Y-76811155D01*
X87021408Y-76796794D01*
X87059828Y-76792448D01*
X87089654Y-76799536D01*
X87118886Y-76819473D01*
X87144125Y-76842648D01*
X87176557Y-76876759D01*
X87193081Y-76904594D01*
X87198605Y-76935542D01*
X87198852Y-76947311D01*
X87200149Y-76979841D01*
X87206210Y-76991614D01*
X87220293Y-76987878D01*
X87223104Y-76986409D01*
X87240974Y-76969549D01*
X87266775Y-76936376D01*
X87295651Y-76893274D01*
X87302977Y-76881374D01*
X87358159Y-76804130D01*
X87428237Y-76727010D01*
X87505971Y-76656901D01*
X87584119Y-76600689D01*
X87618489Y-76581254D01*
X87669359Y-76559536D01*
X87710390Y-76549953D01*
X87737306Y-76552982D01*
G36*
X89601748Y-75084183D02*
X89620028Y-75111637D01*
X89621621Y-75123518D01*
X89629765Y-75144229D01*
X89640701Y-75148831D01*
X89659122Y-75157821D01*
X89675274Y-75177659D01*
X89681728Y-75197640D01*
X89679134Y-75204206D01*
X89674816Y-75219400D01*
X89669144Y-75254046D01*
X89663125Y-75301651D01*
X89661153Y-75319893D01*
X89648536Y-75401306D01*
X89626905Y-75472152D01*
X89605847Y-75520062D01*
X89567777Y-75593570D01*
X89527334Y-75662602D01*
X89488964Y-75719896D01*
X89465313Y-75749586D01*
X89429570Y-75790221D01*
X89393635Y-75832782D01*
X89351271Y-75884730D01*
X89325099Y-75917344D01*
X89286405Y-75964168D01*
X89247009Y-76009303D01*
X89214721Y-76043834D01*
X89211561Y-76046973D01*
X89184783Y-76076447D01*
X89168273Y-76100797D01*
X89165724Y-76108845D01*
X89157756Y-76124419D01*
X89152698Y-76125754D01*
X89142079Y-76136652D01*
X89139672Y-76151540D01*
X89152666Y-76177176D01*
X89191562Y-76203783D01*
X89194215Y-76205152D01*
X89231169Y-76225842D01*
X89259941Y-76245145D01*
X89266786Y-76251007D01*
X89286200Y-76266078D01*
X89294404Y-76269036D01*
X89307605Y-76280668D01*
X89322495Y-76310682D01*
X89336528Y-76351757D01*
X89347157Y-76396569D01*
X89351698Y-76433791D01*
X89355765Y-76469846D01*
X89362927Y-76491751D01*
X89367621Y-76494999D01*
X89381207Y-76483207D01*
X89399898Y-76455932D01*
X89407219Y-76442896D01*
X89444311Y-76373625D01*
X89472584Y-76322800D01*
X89494940Y-76285601D01*
X89514282Y-76257209D01*
X89533513Y-76232804D01*
X89534383Y-76231769D01*
X89563892Y-76191287D01*
X89592272Y-76144006D01*
X89599037Y-76130820D01*
X89617949Y-76097553D01*
X89634960Y-76076939D01*
X89641433Y-76073651D01*
X89654459Y-76062729D01*
X89672475Y-76034613D01*
X89685411Y-76008695D01*
X89708170Y-75966642D01*
X89733629Y-75931490D01*
X89746348Y-75918897D01*
X89768659Y-75897759D01*
X89777929Y-75881849D01*
X89788190Y-75867417D01*
X89809899Y-75852533D01*
X89831040Y-75834536D01*
X89860377Y-75801597D01*
X89892356Y-75760905D01*
X89921426Y-75719646D01*
X89942035Y-75685009D01*
X89945987Y-75676369D01*
X89958172Y-75658182D01*
X89978551Y-75634739D01*
X90020943Y-75589636D01*
X90050008Y-75556514D01*
X90071004Y-75529094D01*
X90085531Y-75507036D01*
X90132574Y-75440602D01*
X90178397Y-75392986D01*
X90220864Y-75365691D01*
X90257841Y-75360222D01*
X90279585Y-75370407D01*
X90296014Y-75391998D01*
X90298954Y-75403339D01*
X90308571Y-75422400D01*
X90331312Y-75444078D01*
X90363670Y-75467959D01*
X90325712Y-75547273D01*
X90301211Y-75591648D01*
X90275091Y-75628452D01*
X90255392Y-75647792D01*
X90233256Y-75668310D01*
X90202870Y-75704214D01*
X90169788Y-75748793D01*
X90160044Y-75763040D01*
X90116958Y-75826149D01*
X90082677Y-75872940D01*
X90052480Y-75909364D01*
X90021647Y-75941370D01*
X90009134Y-75953283D01*
X89985601Y-75979783D01*
X89973677Y-76002008D01*
X89973313Y-76004932D01*
X89967498Y-76017437D01*
X89962530Y-76016422D01*
X89949881Y-76022177D01*
X89927480Y-76042326D01*
X89901155Y-76070384D01*
X89876734Y-76099865D01*
X89860044Y-76124284D01*
X89856083Y-76134871D01*
X89846298Y-76149328D01*
X89830270Y-76161658D01*
X89809817Y-76182206D01*
X89785725Y-76217136D01*
X89772259Y-76241320D01*
X89751033Y-76278136D01*
X89731155Y-76304338D01*
X89721588Y-76311950D01*
X89705149Y-76327120D01*
X89684520Y-76357506D01*
X89674752Y-76375448D01*
X89655478Y-76413142D01*
X89639559Y-76443188D01*
X89634963Y-76451395D01*
X89624765Y-76471498D01*
X89607075Y-76508885D01*
X89584956Y-76557025D01*
X89573838Y-76581651D01*
X89548351Y-76634880D01*
X89522789Y-76682341D01*
X89501345Y-76716449D01*
X89494727Y-76724800D01*
X89474111Y-76748535D01*
X89465464Y-76764231D01*
X89471697Y-76773404D01*
X89495723Y-76777565D01*
X89540454Y-76778228D01*
X89595570Y-76777203D01*
X89656602Y-76772331D01*
X89703535Y-76757898D01*
X89747459Y-76729384D01*
X89777714Y-76702958D01*
X89808199Y-76679374D01*
X89836114Y-76664810D01*
X89836544Y-76664677D01*
X89867030Y-76649942D01*
X89888647Y-76634542D01*
X89916730Y-76616278D01*
X89960956Y-76593426D01*
X90012824Y-76569842D01*
X90063830Y-76549380D01*
X90105475Y-76535897D01*
X90106993Y-76535516D01*
X90173340Y-76531137D01*
X90240188Y-76547113D01*
X90297128Y-76580778D01*
X90302469Y-76585568D01*
X90331334Y-76615986D01*
X90351660Y-76643460D01*
X90355642Y-76651503D01*
X90366059Y-76667848D01*
X90382361Y-76660833D01*
X90383868Y-76659600D01*
X90409393Y-76648503D01*
X90446547Y-76642409D01*
X90452414Y-76642149D01*
X90490352Y-76646004D01*
X90521487Y-76663688D01*
X90541654Y-76682898D01*
X90569669Y-76707098D01*
X90600497Y-76720716D01*
X90639010Y-76723909D01*
X90690078Y-76716829D01*
X90758573Y-76699634D01*
X90789215Y-76690765D01*
X90879170Y-76665319D01*
X90960106Y-76644703D01*
X91027474Y-76629966D01*
X91076724Y-76622156D01*
X91091348Y-76621186D01*
X91118163Y-76630276D01*
X91151136Y-76653435D01*
X91182574Y-76683544D01*
X91204780Y-76713480D01*
X91210749Y-76731683D01*
X91218268Y-76748858D01*
X91224544Y-76750985D01*
X91232607Y-76758829D01*
X91230867Y-76763072D01*
X91234733Y-76776216D01*
X91246421Y-76782468D01*
X91262737Y-76798125D01*
X91280274Y-76829630D01*
X91294722Y-76867375D01*
X91301775Y-76901751D01*
X91301929Y-76906274D01*
X91291421Y-76918937D01*
X91264399Y-76938259D01*
X91240057Y-76952611D01*
X91186969Y-76990707D01*
X91141383Y-77039775D01*
X91110333Y-77091611D01*
X91103349Y-77112104D01*
X91100015Y-77131344D01*
X91108041Y-77133421D01*
X91130648Y-77121787D01*
X91187443Y-77085202D01*
X91238683Y-77043648D01*
X91266644Y-77014754D01*
X91288222Y-76993540D01*
X91303938Y-76985446D01*
X91320620Y-76977747D01*
X91349567Y-76957939D01*
X91372719Y-76939856D01*
X91405072Y-76914674D01*
X91429451Y-76898117D01*
X91438029Y-76894267D01*
X91454403Y-76887402D01*
X91480812Y-76870779D01*
X91482277Y-76869746D01*
X91522918Y-76849739D01*
X91578170Y-76833340D01*
X91637053Y-76822843D01*
X91688593Y-76820541D01*
X91706766Y-76822854D01*
X91743730Y-76841616D01*
X91758876Y-76866165D01*
X91773096Y-76902396D01*
X91783877Y-76926831D01*
X91797807Y-76958950D01*
X91809740Y-76989761D01*
X91823712Y-77011594D01*
X91840293Y-77020463D01*
X91851652Y-77014631D01*
X91851939Y-76999132D01*
X91855766Y-76989370D01*
X91860658Y-76991110D01*
X91878470Y-76989257D01*
X91892615Y-76979053D01*
X91911742Y-76963160D01*
X91920099Y-76959395D01*
X91934030Y-76951687D01*
X91964480Y-76930402D01*
X92007674Y-76898300D01*
X92059839Y-76858140D01*
X92076954Y-76844712D01*
X92123572Y-76817862D01*
X92187424Y-76794010D01*
X92260008Y-76775075D01*
X92332822Y-76762976D01*
X92397364Y-76759633D01*
X92434826Y-76763931D01*
X92461822Y-76780006D01*
X92493563Y-76812588D01*
X92525075Y-76854479D01*
X92551384Y-76898481D01*
X92567518Y-76937395D01*
X92569873Y-76959395D01*
X92560340Y-76998943D01*
X92545440Y-77044046D01*
X92528584Y-77085793D01*
X92513183Y-77115269D01*
X92507568Y-77122215D01*
X92489218Y-77141501D01*
X92462807Y-77172609D01*
X92433042Y-77209540D01*
X92404632Y-77246296D01*
X92382283Y-77276878D01*
X92370703Y-77295287D01*
X92370031Y-77297475D01*
X92362896Y-77311645D01*
X92344165Y-77340950D01*
X92317845Y-77379669D01*
X92287945Y-77422078D01*
X92258474Y-77462453D01*
X92233441Y-77495071D01*
X92222126Y-77508643D01*
X92209914Y-77528589D01*
X92210467Y-77537950D01*
X92208100Y-77544968D01*
X92202869Y-77545549D01*
X92190106Y-77556308D01*
X92187672Y-77568995D01*
X92176853Y-77601772D01*
X92144795Y-77619924D01*
X92109808Y-77623703D01*
X92066109Y-77616462D01*
X92039479Y-77592968D01*
X92027922Y-77550564D01*
X92027435Y-77513993D01*
X92030932Y-77471965D01*
X92036514Y-77438776D01*
X92039478Y-77429326D01*
X92048117Y-77406414D01*
X92049778Y-77399433D01*
X92058291Y-77383232D01*
X92071276Y-77366292D01*
X92091336Y-77337762D01*
X92100175Y-77320280D01*
X92113022Y-77301440D01*
X92120613Y-77298062D01*
X92131452Y-77287887D01*
X92150836Y-77261901D01*
X92174385Y-77226912D01*
X92197719Y-77189728D01*
X92216457Y-77157155D01*
X92226220Y-77136003D01*
X92226749Y-77133106D01*
X92234096Y-77117090D01*
X92250940Y-77095751D01*
X92269484Y-77077639D01*
X92281936Y-77071303D01*
X92282675Y-77071765D01*
X92292167Y-77066601D01*
X92306443Y-77046018D01*
X92320609Y-77018783D01*
X92329769Y-76993663D01*
X92330954Y-76985290D01*
X92320309Y-76976651D01*
X92293564Y-76976912D01*
X92258508Y-76984579D01*
X92222929Y-76998155D01*
X92202479Y-77009952D01*
X92169362Y-77030011D01*
X92141645Y-77042336D01*
X92119332Y-77055432D01*
X92086420Y-77081833D01*
X92050465Y-77115402D01*
X92017017Y-77147605D01*
X91990278Y-77170911D01*
X91975779Y-77180513D01*
X91975456Y-77180547D01*
X91957152Y-77188132D01*
X91949405Y-77193660D01*
X91929566Y-77209700D01*
X91899747Y-77233675D01*
X91891083Y-77240623D01*
X91865244Y-77266567D01*
X91852326Y-77290006D01*
X91852006Y-77295657D01*
X91843342Y-77316150D01*
X91816441Y-77334038D01*
X91775278Y-77353103D01*
X91752642Y-77365922D01*
X91742946Y-77376101D01*
X91740972Y-77382728D01*
X91729777Y-77400068D01*
X91702895Y-77427752D01*
X91665944Y-77461127D01*
X91624541Y-77495542D01*
X91584301Y-77526344D01*
X91550841Y-77548881D01*
X91529779Y-77558501D01*
X91528676Y-77558574D01*
X91507438Y-77548090D01*
X91502373Y-77539946D01*
X91485751Y-77522475D01*
X91458474Y-77508506D01*
X91426325Y-77486829D01*
X91412926Y-77455643D01*
X91403224Y-77425271D01*
X91392181Y-77408207D01*
X91392106Y-77408160D01*
X91379808Y-77386720D01*
X91380947Y-77351555D01*
X91393346Y-77309793D01*
X91414828Y-77268562D01*
X91443216Y-77234992D01*
X91445621Y-77232933D01*
X91456710Y-77219347D01*
X91477205Y-77191037D01*
X91495634Y-77164415D01*
X91519290Y-77122987D01*
X91524076Y-77098580D01*
X91511831Y-77092412D01*
X91484396Y-77105701D01*
X91449662Y-77133985D01*
X91388750Y-77188040D01*
X91334367Y-77230456D01*
X91275877Y-77269194D01*
X91241222Y-77289990D01*
X91200397Y-77316065D01*
X91169069Y-77340065D01*
X91153856Y-77356906D01*
X91153724Y-77357229D01*
X91138756Y-77372117D01*
X91106148Y-77393138D01*
X91062264Y-77416303D01*
X91050886Y-77421681D01*
X91002393Y-77446018D01*
X90960850Y-77470320D01*
X90934097Y-77489934D01*
X90931535Y-77492521D01*
X90911963Y-77511697D01*
X90894717Y-77517233D01*
X90871910Y-77508590D01*
X90836840Y-77486024D01*
X90796881Y-77454073D01*
X90772392Y-77419408D01*
X90760221Y-77374774D01*
X90757216Y-77312915D01*
X90757338Y-77303028D01*
X90759895Y-77250495D01*
X90767112Y-77214286D01*
X90781577Y-77184758D01*
X90793611Y-77167805D01*
X90820282Y-77127950D01*
X90842097Y-77087316D01*
X90845287Y-77079882D01*
X90859507Y-77051660D01*
X90872229Y-77037831D01*
X90873663Y-77037549D01*
X90883967Y-77027045D01*
X90885108Y-77018990D01*
X90893981Y-77000471D01*
X90916911Y-76971913D01*
X90940120Y-76948087D01*
X90968207Y-76918861D01*
X90984842Y-76896546D01*
X90986887Y-76887499D01*
X90971669Y-76888038D01*
X90939561Y-76897306D01*
X90897419Y-76913311D01*
X90896055Y-76913882D01*
X90826273Y-76937291D01*
X90752614Y-76952194D01*
X90682337Y-76957902D01*
X90622697Y-76953726D01*
X90588200Y-76943146D01*
X90558323Y-76932037D01*
X90538164Y-76931219D01*
X90537210Y-76931751D01*
X90525158Y-76946235D01*
X90504265Y-76977038D01*
X90478729Y-77017925D01*
X90474769Y-77024523D01*
X90446886Y-77068843D01*
X90420801Y-77106251D01*
X90401806Y-77129196D01*
X90400667Y-77130256D01*
X90382126Y-77154734D01*
X90377108Y-77171848D01*
X90369088Y-77190719D01*
X90347735Y-77223031D01*
X90317109Y-77262830D01*
X90305612Y-77276649D01*
X90254439Y-77331357D01*
X90209067Y-77366762D01*
X90176193Y-77383045D01*
X90140459Y-77399661D01*
X90116325Y-77416396D01*
X90111486Y-77422843D01*
X90095902Y-77438844D01*
X90065644Y-77456570D01*
X90056335Y-77460730D01*
X90019830Y-77480750D01*
X89992105Y-77504078D01*
X89988914Y-77508141D01*
X89956573Y-77537335D01*
X89907826Y-77562451D01*
X89852317Y-77579402D01*
X89809109Y-77584340D01*
X89768975Y-77579837D01*
X89730717Y-77563045D01*
X89694448Y-77537915D01*
X89623973Y-77480591D01*
X89574231Y-77429957D01*
X89542719Y-77380921D01*
X89526933Y-77328394D01*
X89526205Y-77311015D01*
X89726619Y-77311015D01*
X89732120Y-77336389D01*
X89750823Y-77360054D01*
X89778195Y-77374394D01*
X89788991Y-77375801D01*
X89808267Y-77369621D01*
X89842362Y-77352978D01*
X89884113Y-77329389D01*
X89886683Y-77327843D01*
X89935471Y-77294646D01*
X89990678Y-77251015D01*
X90048741Y-77200491D01*
X90106096Y-77146614D01*
X90159179Y-77092924D01*
X90204425Y-77042960D01*
X90238272Y-77000264D01*
X90257155Y-76968375D01*
X90259877Y-76957156D01*
X90266925Y-76933615D01*
X90280713Y-76909393D01*
X90294062Y-76885023D01*
X90290117Y-76866803D01*
X90283232Y-76857649D01*
X90264597Y-76829365D01*
X90248830Y-76798032D01*
X90238748Y-76777423D01*
X90226238Y-76766983D01*
X90203973Y-76764444D01*
X90164629Y-76767540D01*
X90153919Y-76768651D01*
X90105208Y-76776696D01*
X90055698Y-76789651D01*
X90011502Y-76805257D01*
X89978734Y-76821252D01*
X89963509Y-76835378D01*
X89963331Y-76839104D01*
X89957006Y-76854229D01*
X89937010Y-76879573D01*
X89924467Y-76892847D01*
X89898955Y-76922098D01*
X89883877Y-76946414D01*
X89882134Y-76953237D01*
X89872249Y-76975509D01*
X89865100Y-76981542D01*
X89848453Y-77001199D01*
X89827384Y-77039125D01*
X89804660Y-77088551D01*
X89783047Y-77142706D01*
X89765310Y-77194821D01*
X89754217Y-77238123D01*
X89751877Y-77258671D01*
X89745791Y-77283417D01*
X89738852Y-77291549D01*
X89726619Y-77311015D01*
X89526205Y-77311015D01*
X89524370Y-77267285D01*
X89530694Y-77204961D01*
X89539461Y-77149342D01*
X89549265Y-77096563D01*
X89557744Y-77059029D01*
X89565149Y-77026262D01*
X89567060Y-77006136D01*
X89566329Y-77003966D01*
X89551168Y-76999306D01*
X89518442Y-76993318D01*
X89476398Y-76987098D01*
X89433281Y-76981744D01*
X89397338Y-76978352D01*
X89376814Y-76978019D01*
X89375085Y-76978525D01*
X89364891Y-76993127D01*
X89346785Y-77026728D01*
X89323249Y-77074442D01*
X89296770Y-77131380D01*
X89292097Y-77141754D01*
X89276943Y-77178535D01*
X89258116Y-77228265D01*
X89242543Y-77272010D01*
X89225772Y-77317647D01*
X89210189Y-77354763D01*
X89199540Y-77374724D01*
X89186796Y-77398335D01*
X89184714Y-77407288D01*
X89179412Y-77432040D01*
X89176236Y-77441344D01*
X89168507Y-77465419D01*
X89157927Y-77503016D01*
X89153584Y-77519497D01*
X89141692Y-77561183D01*
X89129897Y-77595792D01*
X89126401Y-77604164D01*
X89117560Y-77628782D01*
X89104965Y-77670635D01*
X89091019Y-77721642D01*
X89087872Y-77733823D01*
X89074189Y-77783406D01*
X89061292Y-77823304D01*
X89051461Y-77846642D01*
X89049574Y-77849268D01*
X89030777Y-77855144D01*
X89014894Y-77841319D01*
X89009416Y-77818318D01*
X89005256Y-77796887D01*
X88990964Y-77797034D01*
X88967972Y-77814717D01*
X88950090Y-77827847D01*
X88934654Y-77825388D01*
X88911587Y-77805933D01*
X88888066Y-77776478D01*
X88881134Y-77743720D01*
X88890523Y-77701156D01*
X88905746Y-77664056D01*
X88921060Y-77620101D01*
X88924426Y-77585624D01*
X88923181Y-77579686D01*
X88913440Y-77520699D01*
X88915620Y-77452513D01*
X88928338Y-77385514D01*
X88950208Y-77330089D01*
X88958110Y-77317600D01*
X88965169Y-77299827D01*
X88976256Y-77263127D01*
X88989489Y-77213945D01*
X88996162Y-77187344D01*
X89012653Y-77123337D01*
X89030829Y-77057941D01*
X89047365Y-77003011D01*
X89050968Y-76991959D01*
X89072218Y-76926961D01*
X89085165Y-76881573D01*
X89090180Y-76850840D01*
X89087632Y-76829807D01*
X89077890Y-76813518D01*
X89065239Y-76800641D01*
X89035280Y-76766078D01*
X89013151Y-76731446D01*
X88990901Y-76697519D01*
X88959513Y-76660410D01*
X88949260Y-76650064D01*
X88922888Y-76620816D01*
X88907154Y-76595797D01*
X88905211Y-76588193D01*
X88899791Y-76570005D01*
X88886821Y-76572045D01*
X88871234Y-76591675D01*
X88862621Y-76610959D01*
X88853073Y-76642016D01*
X88849938Y-76661583D01*
X88850118Y-76662596D01*
X88845483Y-76678019D01*
X88830402Y-76711448D01*
X88807323Y-76758250D01*
X88778694Y-76813797D01*
X88746963Y-76873455D01*
X88714580Y-76932595D01*
X88683993Y-76986586D01*
X88657650Y-77030796D01*
X88644984Y-77050574D01*
X88624698Y-77086044D01*
X88605738Y-77126826D01*
X88605197Y-77128169D01*
X88587584Y-77164132D01*
X88568700Y-77191611D01*
X88567002Y-77193399D01*
X88554194Y-77212231D01*
X88532155Y-77251210D01*
X88502652Y-77306863D01*
X88467453Y-77375720D01*
X88428325Y-77454312D01*
X88387035Y-77539168D01*
X88345349Y-77626817D01*
X88334609Y-77649754D01*
X88299950Y-77730603D01*
X88268538Y-77816136D01*
X88242382Y-77899777D01*
X88223496Y-77974948D01*
X88213891Y-78035075D01*
X88213182Y-78046761D01*
X88211111Y-78087000D01*
X88204306Y-78108930D01*
X88186905Y-78116625D01*
X88153046Y-78114165D01*
X88122852Y-78109582D01*
X88088554Y-78095386D01*
X88065118Y-78063753D01*
X88051686Y-78012446D01*
X88047397Y-77939229D01*
X88047725Y-77914199D01*
X88060340Y-77798361D01*
X88090655Y-77677812D01*
X88135644Y-77563626D01*
X88152472Y-77530559D01*
X88238177Y-77371128D01*
X88323271Y-77210048D01*
X88345354Y-77167826D01*
X88376395Y-77110406D01*
X88406270Y-77058706D01*
X88431329Y-77018843D01*
X88446424Y-76998492D01*
X88462587Y-76975674D01*
X88487417Y-76934440D01*
X88518089Y-76879752D01*
X88551778Y-76816574D01*
X88568772Y-76783549D01*
X88608224Y-76703835D01*
X88635887Y-76642574D01*
X88653305Y-76595840D01*
X88662026Y-76559707D01*
X88663689Y-76542574D01*
X88667737Y-76509869D01*
X88679065Y-76475594D01*
X88700352Y-76433711D01*
X88734273Y-76378181D01*
X88741632Y-76366728D01*
X88773396Y-76318114D01*
X88800279Y-76278047D01*
X88818988Y-76251367D01*
X88825764Y-76242985D01*
X88836328Y-76229916D01*
X88857558Y-76200368D01*
X88885734Y-76159580D01*
X88900841Y-76137239D01*
X88934219Y-76084056D01*
X88953696Y-76045100D01*
X88957962Y-76023061D01*
X88957266Y-76021472D01*
X88945040Y-76013905D01*
X88925121Y-76025629D01*
X88917857Y-76032132D01*
X88884680Y-76057339D01*
X88846631Y-76079274D01*
X88812676Y-76099004D01*
X88787687Y-76119631D01*
X88786770Y-76120698D01*
X88759821Y-76141893D01*
X88714365Y-76166122D01*
X88656114Y-76191440D01*
X88590783Y-76215901D01*
X88524082Y-76237560D01*
X88461724Y-76254470D01*
X88409421Y-76264687D01*
X88372886Y-76266265D01*
X88364854Y-76264405D01*
X88349946Y-76246246D01*
X88345108Y-76217342D01*
X88339601Y-76186429D01*
X88325150Y-76177856D01*
X88304823Y-76166280D01*
X88291292Y-76136793D01*
X88287559Y-76097260D01*
X88289006Y-76083246D01*
X88310041Y-76013297D01*
X88329170Y-75981624D01*
X88986558Y-75981624D01*
X88988340Y-75982472D01*
X89000227Y-75973302D01*
X89002903Y-75969446D01*
X89006222Y-75957269D01*
X89004440Y-75956420D01*
X88992553Y-75965590D01*
X88989877Y-75969446D01*
X88986558Y-75981624D01*
X88329170Y-75981624D01*
X88352217Y-75943467D01*
X88357116Y-75938009D01*
X88631672Y-75938009D01*
X88635367Y-75942732D01*
X88649431Y-75938114D01*
X88678334Y-75922248D01*
X88702782Y-75907669D01*
X88741466Y-75881726D01*
X88760680Y-75862961D01*
X88758824Y-75853195D01*
X88751469Y-75852215D01*
X88736479Y-75859166D01*
X88709557Y-75876368D01*
X88678348Y-75898349D01*
X88650493Y-75919634D01*
X88633636Y-75934750D01*
X88631672Y-75938009D01*
X88357116Y-75938009D01*
X88417372Y-75870889D01*
X88437210Y-75852215D01*
X88488623Y-75804815D01*
X88805508Y-75804815D01*
X88810256Y-75807777D01*
X88833329Y-75796175D01*
X88835945Y-75794753D01*
X88861109Y-75777354D01*
X88898891Y-75746824D01*
X88943229Y-75708189D01*
X88970339Y-75683319D01*
X89025202Y-75634011D01*
X89067178Y-75603059D01*
X89100813Y-75589460D01*
X89130655Y-75592213D01*
X89161252Y-75610316D01*
X89189249Y-75635102D01*
X89232314Y-75676369D01*
X89289042Y-75611241D01*
X89340613Y-75544864D01*
X89381276Y-75478163D01*
X89409264Y-75415397D01*
X89422812Y-75360825D01*
X89420156Y-75318708D01*
X89414931Y-75307476D01*
X89397111Y-75302039D01*
X89363136Y-75310425D01*
X89317168Y-75330156D01*
X89263370Y-75358750D01*
X89205905Y-75393728D01*
X89148936Y-75432609D01*
X89096626Y-75472912D01*
X89053137Y-75512158D01*
X89031622Y-75535864D01*
X89011507Y-75558935D01*
X88979437Y-75593850D01*
X88941666Y-75633825D01*
X88933929Y-75641879D01*
X88890081Y-75687775D01*
X88860329Y-75720274D01*
X88840438Y-75744484D01*
X88826171Y-75765518D01*
X88814912Y-75785441D01*
X88805508Y-75804815D01*
X88488623Y-75804815D01*
X88508315Y-75786661D01*
X88564817Y-75733254D01*
X88611715Y-75686986D01*
X88654010Y-75642849D01*
X88696703Y-75595835D01*
X88722852Y-75566153D01*
X88792319Y-75489436D01*
X88864928Y-75414092D01*
X88936353Y-75344282D01*
X89002265Y-75284165D01*
X89058337Y-75237900D01*
X89082444Y-75220513D01*
X89161653Y-75173106D01*
X89244560Y-75133288D01*
X89324625Y-75103626D01*
X89395311Y-75086689D01*
X89430755Y-75083703D01*
X89477614Y-75081517D01*
X89518345Y-75075931D01*
X89534526Y-75071600D01*
X89570226Y-75069037D01*
X89601748Y-75084183D01*
X89601748Y-75084183D01*
G37*
X89601748Y-75084183D02*
X89620028Y-75111637D01*
X89621621Y-75123518D01*
X89629765Y-75144229D01*
X89640701Y-75148831D01*
X89659122Y-75157821D01*
X89675274Y-75177659D01*
X89681728Y-75197640D01*
X89679134Y-75204206D01*
X89674816Y-75219400D01*
X89669144Y-75254046D01*
X89663125Y-75301651D01*
X89661153Y-75319893D01*
X89648536Y-75401306D01*
X89626905Y-75472152D01*
X89605847Y-75520062D01*
X89567777Y-75593570D01*
X89527334Y-75662602D01*
X89488964Y-75719896D01*
X89465313Y-75749586D01*
X89429570Y-75790221D01*
X89393635Y-75832782D01*
X89351271Y-75884730D01*
X89325099Y-75917344D01*
X89286405Y-75964168D01*
X89247009Y-76009303D01*
X89214721Y-76043834D01*
X89211561Y-76046973D01*
X89184783Y-76076447D01*
X89168273Y-76100797D01*
X89165724Y-76108845D01*
X89157756Y-76124419D01*
X89152698Y-76125754D01*
X89142079Y-76136652D01*
X89139672Y-76151540D01*
X89152666Y-76177176D01*
X89191562Y-76203783D01*
X89194215Y-76205152D01*
X89231169Y-76225842D01*
X89259941Y-76245145D01*
X89266786Y-76251007D01*
X89286200Y-76266078D01*
X89294404Y-76269036D01*
X89307605Y-76280668D01*
X89322495Y-76310682D01*
X89336528Y-76351757D01*
X89347157Y-76396569D01*
X89351698Y-76433791D01*
X89355765Y-76469846D01*
X89362927Y-76491751D01*
X89367621Y-76494999D01*
X89381207Y-76483207D01*
X89399898Y-76455932D01*
X89407219Y-76442896D01*
X89444311Y-76373625D01*
X89472584Y-76322800D01*
X89494940Y-76285601D01*
X89514282Y-76257209D01*
X89533513Y-76232804D01*
X89534383Y-76231769D01*
X89563892Y-76191287D01*
X89592272Y-76144006D01*
X89599037Y-76130820D01*
X89617949Y-76097553D01*
X89634960Y-76076939D01*
X89641433Y-76073651D01*
X89654459Y-76062729D01*
X89672475Y-76034613D01*
X89685411Y-76008695D01*
X89708170Y-75966642D01*
X89733629Y-75931490D01*
X89746348Y-75918897D01*
X89768659Y-75897759D01*
X89777929Y-75881849D01*
X89788190Y-75867417D01*
X89809899Y-75852533D01*
X89831040Y-75834536D01*
X89860377Y-75801597D01*
X89892356Y-75760905D01*
X89921426Y-75719646D01*
X89942035Y-75685009D01*
X89945987Y-75676369D01*
X89958172Y-75658182D01*
X89978551Y-75634739D01*
X90020943Y-75589636D01*
X90050008Y-75556514D01*
X90071004Y-75529094D01*
X90085531Y-75507036D01*
X90132574Y-75440602D01*
X90178397Y-75392986D01*
X90220864Y-75365691D01*
X90257841Y-75360222D01*
X90279585Y-75370407D01*
X90296014Y-75391998D01*
X90298954Y-75403339D01*
X90308571Y-75422400D01*
X90331312Y-75444078D01*
X90363670Y-75467959D01*
X90325712Y-75547273D01*
X90301211Y-75591648D01*
X90275091Y-75628452D01*
X90255392Y-75647792D01*
X90233256Y-75668310D01*
X90202870Y-75704214D01*
X90169788Y-75748793D01*
X90160044Y-75763040D01*
X90116958Y-75826149D01*
X90082677Y-75872940D01*
X90052480Y-75909364D01*
X90021647Y-75941370D01*
X90009134Y-75953283D01*
X89985601Y-75979783D01*
X89973677Y-76002008D01*
X89973313Y-76004932D01*
X89967498Y-76017437D01*
X89962530Y-76016422D01*
X89949881Y-76022177D01*
X89927480Y-76042326D01*
X89901155Y-76070384D01*
X89876734Y-76099865D01*
X89860044Y-76124284D01*
X89856083Y-76134871D01*
X89846298Y-76149328D01*
X89830270Y-76161658D01*
X89809817Y-76182206D01*
X89785725Y-76217136D01*
X89772259Y-76241320D01*
X89751033Y-76278136D01*
X89731155Y-76304338D01*
X89721588Y-76311950D01*
X89705149Y-76327120D01*
X89684520Y-76357506D01*
X89674752Y-76375448D01*
X89655478Y-76413142D01*
X89639559Y-76443188D01*
X89634963Y-76451395D01*
X89624765Y-76471498D01*
X89607075Y-76508885D01*
X89584956Y-76557025D01*
X89573838Y-76581651D01*
X89548351Y-76634880D01*
X89522789Y-76682341D01*
X89501345Y-76716449D01*
X89494727Y-76724800D01*
X89474111Y-76748535D01*
X89465464Y-76764231D01*
X89471697Y-76773404D01*
X89495723Y-76777565D01*
X89540454Y-76778228D01*
X89595570Y-76777203D01*
X89656602Y-76772331D01*
X89703535Y-76757898D01*
X89747459Y-76729384D01*
X89777714Y-76702958D01*
X89808199Y-76679374D01*
X89836114Y-76664810D01*
X89836544Y-76664677D01*
X89867030Y-76649942D01*
X89888647Y-76634542D01*
X89916730Y-76616278D01*
X89960956Y-76593426D01*
X90012824Y-76569842D01*
X90063830Y-76549380D01*
X90105475Y-76535897D01*
X90106993Y-76535516D01*
X90173340Y-76531137D01*
X90240188Y-76547113D01*
X90297128Y-76580778D01*
X90302469Y-76585568D01*
X90331334Y-76615986D01*
X90351660Y-76643460D01*
X90355642Y-76651503D01*
X90366059Y-76667848D01*
X90382361Y-76660833D01*
X90383868Y-76659600D01*
X90409393Y-76648503D01*
X90446547Y-76642409D01*
X90452414Y-76642149D01*
X90490352Y-76646004D01*
X90521487Y-76663688D01*
X90541654Y-76682898D01*
X90569669Y-76707098D01*
X90600497Y-76720716D01*
X90639010Y-76723909D01*
X90690078Y-76716829D01*
X90758573Y-76699634D01*
X90789215Y-76690765D01*
X90879170Y-76665319D01*
X90960106Y-76644703D01*
X91027474Y-76629966D01*
X91076724Y-76622156D01*
X91091348Y-76621186D01*
X91118163Y-76630276D01*
X91151136Y-76653435D01*
X91182574Y-76683544D01*
X91204780Y-76713480D01*
X91210749Y-76731683D01*
X91218268Y-76748858D01*
X91224544Y-76750985D01*
X91232607Y-76758829D01*
X91230867Y-76763072D01*
X91234733Y-76776216D01*
X91246421Y-76782468D01*
X91262737Y-76798125D01*
X91280274Y-76829630D01*
X91294722Y-76867375D01*
X91301775Y-76901751D01*
X91301929Y-76906274D01*
X91291421Y-76918937D01*
X91264399Y-76938259D01*
X91240057Y-76952611D01*
X91186969Y-76990707D01*
X91141383Y-77039775D01*
X91110333Y-77091611D01*
X91103349Y-77112104D01*
X91100015Y-77131344D01*
X91108041Y-77133421D01*
X91130648Y-77121787D01*
X91187443Y-77085202D01*
X91238683Y-77043648D01*
X91266644Y-77014754D01*
X91288222Y-76993540D01*
X91303938Y-76985446D01*
X91320620Y-76977747D01*
X91349567Y-76957939D01*
X91372719Y-76939856D01*
X91405072Y-76914674D01*
X91429451Y-76898117D01*
X91438029Y-76894267D01*
X91454403Y-76887402D01*
X91480812Y-76870779D01*
X91482277Y-76869746D01*
X91522918Y-76849739D01*
X91578170Y-76833340D01*
X91637053Y-76822843D01*
X91688593Y-76820541D01*
X91706766Y-76822854D01*
X91743730Y-76841616D01*
X91758876Y-76866165D01*
X91773096Y-76902396D01*
X91783877Y-76926831D01*
X91797807Y-76958950D01*
X91809740Y-76989761D01*
X91823712Y-77011594D01*
X91840293Y-77020463D01*
X91851652Y-77014631D01*
X91851939Y-76999132D01*
X91855766Y-76989370D01*
X91860658Y-76991110D01*
X91878470Y-76989257D01*
X91892615Y-76979053D01*
X91911742Y-76963160D01*
X91920099Y-76959395D01*
X91934030Y-76951687D01*
X91964480Y-76930402D01*
X92007674Y-76898300D01*
X92059839Y-76858140D01*
X92076954Y-76844712D01*
X92123572Y-76817862D01*
X92187424Y-76794010D01*
X92260008Y-76775075D01*
X92332822Y-76762976D01*
X92397364Y-76759633D01*
X92434826Y-76763931D01*
X92461822Y-76780006D01*
X92493563Y-76812588D01*
X92525075Y-76854479D01*
X92551384Y-76898481D01*
X92567518Y-76937395D01*
X92569873Y-76959395D01*
X92560340Y-76998943D01*
X92545440Y-77044046D01*
X92528584Y-77085793D01*
X92513183Y-77115269D01*
X92507568Y-77122215D01*
X92489218Y-77141501D01*
X92462807Y-77172609D01*
X92433042Y-77209540D01*
X92404632Y-77246296D01*
X92382283Y-77276878D01*
X92370703Y-77295287D01*
X92370031Y-77297475D01*
X92362896Y-77311645D01*
X92344165Y-77340950D01*
X92317845Y-77379669D01*
X92287945Y-77422078D01*
X92258474Y-77462453D01*
X92233441Y-77495071D01*
X92222126Y-77508643D01*
X92209914Y-77528589D01*
X92210467Y-77537950D01*
X92208100Y-77544968D01*
X92202869Y-77545549D01*
X92190106Y-77556308D01*
X92187672Y-77568995D01*
X92176853Y-77601772D01*
X92144795Y-77619924D01*
X92109808Y-77623703D01*
X92066109Y-77616462D01*
X92039479Y-77592968D01*
X92027922Y-77550564D01*
X92027435Y-77513993D01*
X92030932Y-77471965D01*
X92036514Y-77438776D01*
X92039478Y-77429326D01*
X92048117Y-77406414D01*
X92049778Y-77399433D01*
X92058291Y-77383232D01*
X92071276Y-77366292D01*
X92091336Y-77337762D01*
X92100175Y-77320280D01*
X92113022Y-77301440D01*
X92120613Y-77298062D01*
X92131452Y-77287887D01*
X92150836Y-77261901D01*
X92174385Y-77226912D01*
X92197719Y-77189728D01*
X92216457Y-77157155D01*
X92226220Y-77136003D01*
X92226749Y-77133106D01*
X92234096Y-77117090D01*
X92250940Y-77095751D01*
X92269484Y-77077639D01*
X92281936Y-77071303D01*
X92282675Y-77071765D01*
X92292167Y-77066601D01*
X92306443Y-77046018D01*
X92320609Y-77018783D01*
X92329769Y-76993663D01*
X92330954Y-76985290D01*
X92320309Y-76976651D01*
X92293564Y-76976912D01*
X92258508Y-76984579D01*
X92222929Y-76998155D01*
X92202479Y-77009952D01*
X92169362Y-77030011D01*
X92141645Y-77042336D01*
X92119332Y-77055432D01*
X92086420Y-77081833D01*
X92050465Y-77115402D01*
X92017017Y-77147605D01*
X91990278Y-77170911D01*
X91975779Y-77180513D01*
X91975456Y-77180547D01*
X91957152Y-77188132D01*
X91949405Y-77193660D01*
X91929566Y-77209700D01*
X91899747Y-77233675D01*
X91891083Y-77240623D01*
X91865244Y-77266567D01*
X91852326Y-77290006D01*
X91852006Y-77295657D01*
X91843342Y-77316150D01*
X91816441Y-77334038D01*
X91775278Y-77353103D01*
X91752642Y-77365922D01*
X91742946Y-77376101D01*
X91740972Y-77382728D01*
X91729777Y-77400068D01*
X91702895Y-77427752D01*
X91665944Y-77461127D01*
X91624541Y-77495542D01*
X91584301Y-77526344D01*
X91550841Y-77548881D01*
X91529779Y-77558501D01*
X91528676Y-77558574D01*
X91507438Y-77548090D01*
X91502373Y-77539946D01*
X91485751Y-77522475D01*
X91458474Y-77508506D01*
X91426325Y-77486829D01*
X91412926Y-77455643D01*
X91403224Y-77425271D01*
X91392181Y-77408207D01*
X91392106Y-77408160D01*
X91379808Y-77386720D01*
X91380947Y-77351555D01*
X91393346Y-77309793D01*
X91414828Y-77268562D01*
X91443216Y-77234992D01*
X91445621Y-77232933D01*
X91456710Y-77219347D01*
X91477205Y-77191037D01*
X91495634Y-77164415D01*
X91519290Y-77122987D01*
X91524076Y-77098580D01*
X91511831Y-77092412D01*
X91484396Y-77105701D01*
X91449662Y-77133985D01*
X91388750Y-77188040D01*
X91334367Y-77230456D01*
X91275877Y-77269194D01*
X91241222Y-77289990D01*
X91200397Y-77316065D01*
X91169069Y-77340065D01*
X91153856Y-77356906D01*
X91153724Y-77357229D01*
X91138756Y-77372117D01*
X91106148Y-77393138D01*
X91062264Y-77416303D01*
X91050886Y-77421681D01*
X91002393Y-77446018D01*
X90960850Y-77470320D01*
X90934097Y-77489934D01*
X90931535Y-77492521D01*
X90911963Y-77511697D01*
X90894717Y-77517233D01*
X90871910Y-77508590D01*
X90836840Y-77486024D01*
X90796881Y-77454073D01*
X90772392Y-77419408D01*
X90760221Y-77374774D01*
X90757216Y-77312915D01*
X90757338Y-77303028D01*
X90759895Y-77250495D01*
X90767112Y-77214286D01*
X90781577Y-77184758D01*
X90793611Y-77167805D01*
X90820282Y-77127950D01*
X90842097Y-77087316D01*
X90845287Y-77079882D01*
X90859507Y-77051660D01*
X90872229Y-77037831D01*
X90873663Y-77037549D01*
X90883967Y-77027045D01*
X90885108Y-77018990D01*
X90893981Y-77000471D01*
X90916911Y-76971913D01*
X90940120Y-76948087D01*
X90968207Y-76918861D01*
X90984842Y-76896546D01*
X90986887Y-76887499D01*
X90971669Y-76888038D01*
X90939561Y-76897306D01*
X90897419Y-76913311D01*
X90896055Y-76913882D01*
X90826273Y-76937291D01*
X90752614Y-76952194D01*
X90682337Y-76957902D01*
X90622697Y-76953726D01*
X90588200Y-76943146D01*
X90558323Y-76932037D01*
X90538164Y-76931219D01*
X90537210Y-76931751D01*
X90525158Y-76946235D01*
X90504265Y-76977038D01*
X90478729Y-77017925D01*
X90474769Y-77024523D01*
X90446886Y-77068843D01*
X90420801Y-77106251D01*
X90401806Y-77129196D01*
X90400667Y-77130256D01*
X90382126Y-77154734D01*
X90377108Y-77171848D01*
X90369088Y-77190719D01*
X90347735Y-77223031D01*
X90317109Y-77262830D01*
X90305612Y-77276649D01*
X90254439Y-77331357D01*
X90209067Y-77366762D01*
X90176193Y-77383045D01*
X90140459Y-77399661D01*
X90116325Y-77416396D01*
X90111486Y-77422843D01*
X90095902Y-77438844D01*
X90065644Y-77456570D01*
X90056335Y-77460730D01*
X90019830Y-77480750D01*
X89992105Y-77504078D01*
X89988914Y-77508141D01*
X89956573Y-77537335D01*
X89907826Y-77562451D01*
X89852317Y-77579402D01*
X89809109Y-77584340D01*
X89768975Y-77579837D01*
X89730717Y-77563045D01*
X89694448Y-77537915D01*
X89623973Y-77480591D01*
X89574231Y-77429957D01*
X89542719Y-77380921D01*
X89526933Y-77328394D01*
X89526205Y-77311015D01*
X89726619Y-77311015D01*
X89732120Y-77336389D01*
X89750823Y-77360054D01*
X89778195Y-77374394D01*
X89788991Y-77375801D01*
X89808267Y-77369621D01*
X89842362Y-77352978D01*
X89884113Y-77329389D01*
X89886683Y-77327843D01*
X89935471Y-77294646D01*
X89990678Y-77251015D01*
X90048741Y-77200491D01*
X90106096Y-77146614D01*
X90159179Y-77092924D01*
X90204425Y-77042960D01*
X90238272Y-77000264D01*
X90257155Y-76968375D01*
X90259877Y-76957156D01*
X90266925Y-76933615D01*
X90280713Y-76909393D01*
X90294062Y-76885023D01*
X90290117Y-76866803D01*
X90283232Y-76857649D01*
X90264597Y-76829365D01*
X90248830Y-76798032D01*
X90238748Y-76777423D01*
X90226238Y-76766983D01*
X90203973Y-76764444D01*
X90164629Y-76767540D01*
X90153919Y-76768651D01*
X90105208Y-76776696D01*
X90055698Y-76789651D01*
X90011502Y-76805257D01*
X89978734Y-76821252D01*
X89963509Y-76835378D01*
X89963331Y-76839104D01*
X89957006Y-76854229D01*
X89937010Y-76879573D01*
X89924467Y-76892847D01*
X89898955Y-76922098D01*
X89883877Y-76946414D01*
X89882134Y-76953237D01*
X89872249Y-76975509D01*
X89865100Y-76981542D01*
X89848453Y-77001199D01*
X89827384Y-77039125D01*
X89804660Y-77088551D01*
X89783047Y-77142706D01*
X89765310Y-77194821D01*
X89754217Y-77238123D01*
X89751877Y-77258671D01*
X89745791Y-77283417D01*
X89738852Y-77291549D01*
X89726619Y-77311015D01*
X89526205Y-77311015D01*
X89524370Y-77267285D01*
X89530694Y-77204961D01*
X89539461Y-77149342D01*
X89549265Y-77096563D01*
X89557744Y-77059029D01*
X89565149Y-77026262D01*
X89567060Y-77006136D01*
X89566329Y-77003966D01*
X89551168Y-76999306D01*
X89518442Y-76993318D01*
X89476398Y-76987098D01*
X89433281Y-76981744D01*
X89397338Y-76978352D01*
X89376814Y-76978019D01*
X89375085Y-76978525D01*
X89364891Y-76993127D01*
X89346785Y-77026728D01*
X89323249Y-77074442D01*
X89296770Y-77131380D01*
X89292097Y-77141754D01*
X89276943Y-77178535D01*
X89258116Y-77228265D01*
X89242543Y-77272010D01*
X89225772Y-77317647D01*
X89210189Y-77354763D01*
X89199540Y-77374724D01*
X89186796Y-77398335D01*
X89184714Y-77407288D01*
X89179412Y-77432040D01*
X89176236Y-77441344D01*
X89168507Y-77465419D01*
X89157927Y-77503016D01*
X89153584Y-77519497D01*
X89141692Y-77561183D01*
X89129897Y-77595792D01*
X89126401Y-77604164D01*
X89117560Y-77628782D01*
X89104965Y-77670635D01*
X89091019Y-77721642D01*
X89087872Y-77733823D01*
X89074189Y-77783406D01*
X89061292Y-77823304D01*
X89051461Y-77846642D01*
X89049574Y-77849268D01*
X89030777Y-77855144D01*
X89014894Y-77841319D01*
X89009416Y-77818318D01*
X89005256Y-77796887D01*
X88990964Y-77797034D01*
X88967972Y-77814717D01*
X88950090Y-77827847D01*
X88934654Y-77825388D01*
X88911587Y-77805933D01*
X88888066Y-77776478D01*
X88881134Y-77743720D01*
X88890523Y-77701156D01*
X88905746Y-77664056D01*
X88921060Y-77620101D01*
X88924426Y-77585624D01*
X88923181Y-77579686D01*
X88913440Y-77520699D01*
X88915620Y-77452513D01*
X88928338Y-77385514D01*
X88950208Y-77330089D01*
X88958110Y-77317600D01*
X88965169Y-77299827D01*
X88976256Y-77263127D01*
X88989489Y-77213945D01*
X88996162Y-77187344D01*
X89012653Y-77123337D01*
X89030829Y-77057941D01*
X89047365Y-77003011D01*
X89050968Y-76991959D01*
X89072218Y-76926961D01*
X89085165Y-76881573D01*
X89090180Y-76850840D01*
X89087632Y-76829807D01*
X89077890Y-76813518D01*
X89065239Y-76800641D01*
X89035280Y-76766078D01*
X89013151Y-76731446D01*
X88990901Y-76697519D01*
X88959513Y-76660410D01*
X88949260Y-76650064D01*
X88922888Y-76620816D01*
X88907154Y-76595797D01*
X88905211Y-76588193D01*
X88899791Y-76570005D01*
X88886821Y-76572045D01*
X88871234Y-76591675D01*
X88862621Y-76610959D01*
X88853073Y-76642016D01*
X88849938Y-76661583D01*
X88850118Y-76662596D01*
X88845483Y-76678019D01*
X88830402Y-76711448D01*
X88807323Y-76758250D01*
X88778694Y-76813797D01*
X88746963Y-76873455D01*
X88714580Y-76932595D01*
X88683993Y-76986586D01*
X88657650Y-77030796D01*
X88644984Y-77050574D01*
X88624698Y-77086044D01*
X88605738Y-77126826D01*
X88605197Y-77128169D01*
X88587584Y-77164132D01*
X88568700Y-77191611D01*
X88567002Y-77193399D01*
X88554194Y-77212231D01*
X88532155Y-77251210D01*
X88502652Y-77306863D01*
X88467453Y-77375720D01*
X88428325Y-77454312D01*
X88387035Y-77539168D01*
X88345349Y-77626817D01*
X88334609Y-77649754D01*
X88299950Y-77730603D01*
X88268538Y-77816136D01*
X88242382Y-77899777D01*
X88223496Y-77974948D01*
X88213891Y-78035075D01*
X88213182Y-78046761D01*
X88211111Y-78087000D01*
X88204306Y-78108930D01*
X88186905Y-78116625D01*
X88153046Y-78114165D01*
X88122852Y-78109582D01*
X88088554Y-78095386D01*
X88065118Y-78063753D01*
X88051686Y-78012446D01*
X88047397Y-77939229D01*
X88047725Y-77914199D01*
X88060340Y-77798361D01*
X88090655Y-77677812D01*
X88135644Y-77563626D01*
X88152472Y-77530559D01*
X88238177Y-77371128D01*
X88323271Y-77210048D01*
X88345354Y-77167826D01*
X88376395Y-77110406D01*
X88406270Y-77058706D01*
X88431329Y-77018843D01*
X88446424Y-76998492D01*
X88462587Y-76975674D01*
X88487417Y-76934440D01*
X88518089Y-76879752D01*
X88551778Y-76816574D01*
X88568772Y-76783549D01*
X88608224Y-76703835D01*
X88635887Y-76642574D01*
X88653305Y-76595840D01*
X88662026Y-76559707D01*
X88663689Y-76542574D01*
X88667737Y-76509869D01*
X88679065Y-76475594D01*
X88700352Y-76433711D01*
X88734273Y-76378181D01*
X88741632Y-76366728D01*
X88773396Y-76318114D01*
X88800279Y-76278047D01*
X88818988Y-76251367D01*
X88825764Y-76242985D01*
X88836328Y-76229916D01*
X88857558Y-76200368D01*
X88885734Y-76159580D01*
X88900841Y-76137239D01*
X88934219Y-76084056D01*
X88953696Y-76045100D01*
X88957962Y-76023061D01*
X88957266Y-76021472D01*
X88945040Y-76013905D01*
X88925121Y-76025629D01*
X88917857Y-76032132D01*
X88884680Y-76057339D01*
X88846631Y-76079274D01*
X88812676Y-76099004D01*
X88787687Y-76119631D01*
X88786770Y-76120698D01*
X88759821Y-76141893D01*
X88714365Y-76166122D01*
X88656114Y-76191440D01*
X88590783Y-76215901D01*
X88524082Y-76237560D01*
X88461724Y-76254470D01*
X88409421Y-76264687D01*
X88372886Y-76266265D01*
X88364854Y-76264405D01*
X88349946Y-76246246D01*
X88345108Y-76217342D01*
X88339601Y-76186429D01*
X88325150Y-76177856D01*
X88304823Y-76166280D01*
X88291292Y-76136793D01*
X88287559Y-76097260D01*
X88289006Y-76083246D01*
X88310041Y-76013297D01*
X88329170Y-75981624D01*
X88986558Y-75981624D01*
X88988340Y-75982472D01*
X89000227Y-75973302D01*
X89002903Y-75969446D01*
X89006222Y-75957269D01*
X89004440Y-75956420D01*
X88992553Y-75965590D01*
X88989877Y-75969446D01*
X88986558Y-75981624D01*
X88329170Y-75981624D01*
X88352217Y-75943467D01*
X88357116Y-75938009D01*
X88631672Y-75938009D01*
X88635367Y-75942732D01*
X88649431Y-75938114D01*
X88678334Y-75922248D01*
X88702782Y-75907669D01*
X88741466Y-75881726D01*
X88760680Y-75862961D01*
X88758824Y-75853195D01*
X88751469Y-75852215D01*
X88736479Y-75859166D01*
X88709557Y-75876368D01*
X88678348Y-75898349D01*
X88650493Y-75919634D01*
X88633636Y-75934750D01*
X88631672Y-75938009D01*
X88357116Y-75938009D01*
X88417372Y-75870889D01*
X88437210Y-75852215D01*
X88488623Y-75804815D01*
X88805508Y-75804815D01*
X88810256Y-75807777D01*
X88833329Y-75796175D01*
X88835945Y-75794753D01*
X88861109Y-75777354D01*
X88898891Y-75746824D01*
X88943229Y-75708189D01*
X88970339Y-75683319D01*
X89025202Y-75634011D01*
X89067178Y-75603059D01*
X89100813Y-75589460D01*
X89130655Y-75592213D01*
X89161252Y-75610316D01*
X89189249Y-75635102D01*
X89232314Y-75676369D01*
X89289042Y-75611241D01*
X89340613Y-75544864D01*
X89381276Y-75478163D01*
X89409264Y-75415397D01*
X89422812Y-75360825D01*
X89420156Y-75318708D01*
X89414931Y-75307476D01*
X89397111Y-75302039D01*
X89363136Y-75310425D01*
X89317168Y-75330156D01*
X89263370Y-75358750D01*
X89205905Y-75393728D01*
X89148936Y-75432609D01*
X89096626Y-75472912D01*
X89053137Y-75512158D01*
X89031622Y-75535864D01*
X89011507Y-75558935D01*
X88979437Y-75593850D01*
X88941666Y-75633825D01*
X88933929Y-75641879D01*
X88890081Y-75687775D01*
X88860329Y-75720274D01*
X88840438Y-75744484D01*
X88826171Y-75765518D01*
X88814912Y-75785441D01*
X88805508Y-75804815D01*
X88488623Y-75804815D01*
X88508315Y-75786661D01*
X88564817Y-75733254D01*
X88611715Y-75686986D01*
X88654010Y-75642849D01*
X88696703Y-75595835D01*
X88722852Y-75566153D01*
X88792319Y-75489436D01*
X88864928Y-75414092D01*
X88936353Y-75344282D01*
X89002265Y-75284165D01*
X89058337Y-75237900D01*
X89082444Y-75220513D01*
X89161653Y-75173106D01*
X89244560Y-75133288D01*
X89324625Y-75103626D01*
X89395311Y-75086689D01*
X89430755Y-75083703D01*
X89477614Y-75081517D01*
X89518345Y-75075931D01*
X89534526Y-75071600D01*
X89570226Y-75069037D01*
X89601748Y-75084183D01*
G36*
X78988587Y-75677891D02*
X79096059Y-75688768D01*
X79180954Y-75710206D01*
X79244950Y-75743255D01*
X79289724Y-75788968D01*
X79316954Y-75848395D01*
X79325292Y-75888990D01*
X79335447Y-75950162D01*
X79346100Y-75985804D01*
X79357684Y-75996438D01*
X79370636Y-75982586D01*
X79381515Y-75956420D01*
X79397782Y-75927168D01*
X79423009Y-75917502D01*
X79428379Y-75917344D01*
X79454404Y-75923327D01*
X79461621Y-75942626D01*
X79469316Y-75970408D01*
X79489342Y-75976693D01*
X79514624Y-75962118D01*
X79536211Y-75946598D01*
X79546537Y-75950525D01*
X79546001Y-75975374D01*
X79535003Y-76022619D01*
X79532984Y-76029919D01*
X79508894Y-76116566D01*
X79490308Y-76185105D01*
X79475438Y-76242435D01*
X79462494Y-76295459D01*
X79449690Y-76351077D01*
X79449099Y-76353703D01*
X79419071Y-76477325D01*
X79385109Y-76595907D01*
X79344969Y-76718420D01*
X79323887Y-76785227D01*
X79303078Y-76860139D01*
X79287071Y-76926831D01*
X79272061Y-76986125D01*
X79253240Y-77044514D01*
X79234480Y-77090092D01*
X79233054Y-77092914D01*
X79214893Y-77131659D01*
X79203321Y-77163206D01*
X79201108Y-77174783D01*
X79194559Y-77200864D01*
X79183315Y-77223622D01*
X79175481Y-77242232D01*
X79165615Y-77276689D01*
X79153362Y-77328672D01*
X79138365Y-77399860D01*
X79120269Y-77491931D01*
X79098720Y-77606564D01*
X79076531Y-77727908D01*
X79065674Y-77783288D01*
X79054538Y-77832624D01*
X79045104Y-77867328D01*
X79042975Y-77873416D01*
X79034597Y-77907599D01*
X79034612Y-77932031D01*
X79042884Y-77939815D01*
X79058098Y-77925822D01*
X79078550Y-77892848D01*
X79102535Y-77843691D01*
X79128347Y-77781148D01*
X79131252Y-77773497D01*
X79151262Y-77724910D01*
X79171452Y-77683254D01*
X79187629Y-77657134D01*
X79188365Y-77656267D01*
X79210275Y-77622679D01*
X79220756Y-77597651D01*
X79231230Y-77568727D01*
X79248787Y-77526291D01*
X79266272Y-77486933D01*
X79292151Y-77430426D01*
X79319993Y-77369387D01*
X79335570Y-77335106D01*
X79354783Y-77295319D01*
X79371128Y-77266005D01*
X79379803Y-77254736D01*
X79389652Y-77240240D01*
X79405907Y-77207933D01*
X79425389Y-77164229D01*
X79429385Y-77154704D01*
X79456428Y-77096869D01*
X79484943Y-77054716D01*
X79521871Y-77018455D01*
X79531707Y-77010381D01*
X79568126Y-76983495D01*
X79598685Y-76965020D01*
X79614405Y-76959395D01*
X79639259Y-76964885D01*
X79678880Y-76979231D01*
X79724936Y-76999244D01*
X79748185Y-77010588D01*
X79761836Y-77029820D01*
X79773442Y-77069491D01*
X79778174Y-77097427D01*
X79786423Y-77148213D01*
X79796315Y-77195596D01*
X79802304Y-77218011D01*
X79808349Y-77255950D01*
X79810262Y-77315289D01*
X79807933Y-77391690D01*
X79807057Y-77406883D01*
X79803464Y-77469299D01*
X79802117Y-77509218D01*
X79803355Y-77530123D01*
X79807522Y-77535501D01*
X79814958Y-77528834D01*
X79818549Y-77524092D01*
X79838912Y-77490558D01*
X79863568Y-77442101D01*
X79888553Y-77387505D01*
X79909903Y-77335554D01*
X79923656Y-77295033D01*
X79925648Y-77286723D01*
X79939784Y-77248673D01*
X79958043Y-77221354D01*
X79976254Y-77197641D01*
X79982647Y-77182298D01*
X79992628Y-77168659D01*
X80018395Y-77146676D01*
X80043824Y-77128362D01*
X80102400Y-77098939D01*
X80157024Y-77094147D01*
X80211792Y-77113839D01*
X80224999Y-77121920D01*
X80237343Y-77130894D01*
X80246239Y-77141712D01*
X80251911Y-77158021D01*
X80254586Y-77183469D01*
X80254490Y-77221704D01*
X80251850Y-77276374D01*
X80246890Y-77351126D01*
X80242777Y-77408779D01*
X80235498Y-77510098D01*
X80230004Y-77588395D01*
X80226245Y-77646636D01*
X80224168Y-77687785D01*
X80223724Y-77714808D01*
X80224859Y-77730669D01*
X80227523Y-77738334D01*
X80231665Y-77740767D01*
X80237024Y-77740933D01*
X80254810Y-77730143D01*
X80262272Y-77716225D01*
X80275672Y-77692191D01*
X80300455Y-77660060D01*
X80313418Y-77645601D01*
X80346359Y-77605912D01*
X80380106Y-77558073D01*
X80393254Y-77536796D01*
X80419188Y-77496054D01*
X80445236Y-77461184D01*
X80457485Y-77447753D01*
X80474477Y-77426977D01*
X80501157Y-77388852D01*
X80523267Y-77355047D01*
X80754334Y-77355047D01*
X80771628Y-77381798D01*
X80805436Y-77402077D01*
X80838455Y-77397340D01*
X80867350Y-77368496D01*
X80875613Y-77353420D01*
X80894827Y-77299400D01*
X80904066Y-77243816D01*
X80902674Y-77195009D01*
X80890635Y-77162144D01*
X80878616Y-77148816D01*
X80868947Y-77150480D01*
X80856920Y-77170553D01*
X80845781Y-77194708D01*
X80822370Y-77237173D01*
X80794741Y-77274499D01*
X80785493Y-77284050D01*
X80756995Y-77320789D01*
X80754334Y-77355047D01*
X80523267Y-77355047D01*
X80534076Y-77338522D01*
X80569782Y-77281134D01*
X80575363Y-77271907D01*
X80625807Y-77191227D01*
X80668663Y-77130327D01*
X80707249Y-77085324D01*
X80744878Y-77052338D01*
X80783487Y-77028210D01*
X80826335Y-77013162D01*
X80869843Y-77009612D01*
X80903968Y-77017913D01*
X80911857Y-77023703D01*
X80937931Y-77038193D01*
X80960612Y-77027473D01*
X80978636Y-76992296D01*
X80981625Y-76982190D01*
X81008521Y-76893505D01*
X81040234Y-76806205D01*
X81073207Y-76729609D01*
X81092281Y-76692369D01*
X81115155Y-76649745D01*
X81146472Y-76588988D01*
X81183548Y-76515523D01*
X81223699Y-76434772D01*
X81264242Y-76352159D01*
X81302492Y-76273107D01*
X81335765Y-76203039D01*
X81354962Y-76161574D01*
X81377837Y-76115694D01*
X81399026Y-76080715D01*
X81415011Y-76062194D01*
X81418871Y-76060626D01*
X81440892Y-76068566D01*
X81472057Y-76088390D01*
X81504853Y-76114103D01*
X81531768Y-76139710D01*
X81545288Y-76159216D01*
X81545724Y-76161850D01*
X81542416Y-76188112D01*
X81534115Y-76228941D01*
X81523249Y-76273935D01*
X81512249Y-76312691D01*
X81506993Y-76327651D01*
X81497129Y-76356169D01*
X81484914Y-76396638D01*
X81480599Y-76412090D01*
X81464905Y-76459821D01*
X81443533Y-76513222D01*
X81433575Y-76535015D01*
X81416053Y-76574806D01*
X81404670Y-76607299D01*
X81402245Y-76619910D01*
X81397733Y-76646137D01*
X81387009Y-76682720D01*
X81373789Y-76718722D01*
X81361788Y-76743208D01*
X81359266Y-76746399D01*
X81352149Y-76765311D01*
X81350339Y-76784951D01*
X81345199Y-76811665D01*
X81337313Y-76822626D01*
X81328418Y-76839990D01*
X81324319Y-76871395D01*
X81324288Y-76874441D01*
X81318508Y-76917858D01*
X81305932Y-76955083D01*
X81292630Y-76986158D01*
X81275406Y-77032171D01*
X81257995Y-77083138D01*
X81237760Y-77138783D01*
X81210427Y-77205178D01*
X81181108Y-77270059D01*
X81173855Y-77285036D01*
X81144803Y-77344473D01*
X81124597Y-77387858D01*
X81110371Y-77422407D01*
X81099259Y-77455338D01*
X81088396Y-77493869D01*
X81083341Y-77512985D01*
X81075175Y-77550916D01*
X81066464Y-77602437D01*
X81057882Y-77661854D01*
X81050104Y-77723476D01*
X81043803Y-77781612D01*
X81039652Y-77830568D01*
X81038327Y-77864655D01*
X81040132Y-77877940D01*
X81058630Y-77878923D01*
X81089162Y-77857586D01*
X81131240Y-77814452D01*
X81184377Y-77750045D01*
X81248083Y-77664890D01*
X81278698Y-77621892D01*
X81315505Y-77570818D01*
X81358206Y-77513411D01*
X81390620Y-77471062D01*
X81424769Y-77422687D01*
X81455310Y-77371550D01*
X81474438Y-77331508D01*
X81497327Y-77286297D01*
X81528034Y-77256623D01*
X81571048Y-77240570D01*
X81630862Y-77236220D01*
X81689899Y-77239525D01*
X81761628Y-77242278D01*
X81812652Y-77235183D01*
X81846733Y-77217347D01*
X81862243Y-77198467D01*
X81893406Y-77168699D01*
X81938623Y-77151909D01*
X81987725Y-77151492D01*
X81996777Y-77153578D01*
X82046469Y-77177036D01*
X82073811Y-77211916D01*
X82078146Y-77255219D01*
X82058818Y-77303943D01*
X82036204Y-77333844D01*
X81995228Y-77398137D01*
X81973104Y-77474006D01*
X81972125Y-77550428D01*
X81978799Y-77600898D01*
X82042555Y-77593346D01*
X82094332Y-77581276D01*
X82148217Y-77559145D01*
X82197585Y-77530836D01*
X82235813Y-77500235D01*
X82256279Y-77471223D01*
X82257375Y-77467395D01*
X82282872Y-77369451D01*
X82315062Y-77272077D01*
X82351623Y-77180761D01*
X82390238Y-77100990D01*
X82428585Y-77038252D01*
X82450099Y-77011497D01*
X82476283Y-76979391D01*
X82495462Y-76949626D01*
X82512412Y-76927735D01*
X82535949Y-76922075D01*
X82571489Y-76932488D01*
X82601129Y-76946537D01*
X82644862Y-76973202D01*
X82672369Y-77003433D01*
X82686434Y-77043354D01*
X82689841Y-77099090D01*
X82688216Y-77138124D01*
X82681341Y-77204360D01*
X82667865Y-77258292D01*
X82644232Y-77313488D01*
X82640087Y-77321742D01*
X82620517Y-77363250D01*
X82608267Y-77395317D01*
X82605779Y-77411471D01*
X82606079Y-77411887D01*
X82616775Y-77412064D01*
X82636069Y-77398006D01*
X82665244Y-77368303D01*
X82705582Y-77321544D01*
X82758364Y-77256320D01*
X82824873Y-77171220D01*
X82825106Y-77170919D01*
X82884273Y-77095815D01*
X82931055Y-77040388D01*
X82967712Y-77002772D01*
X82996504Y-76981097D01*
X83019692Y-76973496D01*
X83039535Y-76978102D01*
X83049850Y-76985168D01*
X83070046Y-77011021D01*
X83076610Y-77025699D01*
X83091224Y-77046188D01*
X83103165Y-77050574D01*
X83117471Y-77053596D01*
X83119069Y-77065373D01*
X83106867Y-77089974D01*
X83082512Y-77127432D01*
X83060479Y-77163065D01*
X83046404Y-77191815D01*
X83043672Y-77202293D01*
X83037975Y-77220511D01*
X83022557Y-77256177D01*
X82999931Y-77303740D01*
X82978686Y-77345929D01*
X82952785Y-77397269D01*
X82932606Y-77439363D01*
X82920419Y-77467331D01*
X82917998Y-77476319D01*
X82929574Y-77471056D01*
X82956545Y-77453269D01*
X82993744Y-77426428D01*
X83005779Y-77417392D01*
X83093602Y-77341200D01*
X83173672Y-77253442D01*
X83237783Y-77163210D01*
X83242780Y-77154779D01*
X83267976Y-77117835D01*
X83305004Y-77071131D01*
X83347060Y-77023109D01*
X83359912Y-77009424D01*
X83399701Y-76968610D01*
X83427171Y-76943708D01*
X83447655Y-76931472D01*
X83466485Y-76928654D01*
X83487543Y-76931713D01*
X83524378Y-76946431D01*
X83551667Y-76977564D01*
X83557980Y-76988569D01*
X83583826Y-77036398D01*
X83546106Y-77108495D01*
X83521035Y-77150443D01*
X83495031Y-77184683D01*
X83478385Y-77200250D01*
X83450073Y-77225015D01*
X83434441Y-77245959D01*
X83426822Y-77266809D01*
X83433732Y-77271460D01*
X83451854Y-77262691D01*
X83477870Y-77243279D01*
X83508465Y-77216006D01*
X83540320Y-77183648D01*
X83570119Y-77148986D01*
X83594545Y-77114798D01*
X83598199Y-77108766D01*
X83634890Y-77060056D01*
X83675756Y-77035448D01*
X83724955Y-77032994D01*
X83748981Y-77038067D01*
X83777447Y-77044235D01*
X83801777Y-77043588D01*
X83829892Y-77034192D01*
X83869714Y-77014117D01*
X83887929Y-77004185D01*
X83937593Y-76974976D01*
X83984206Y-76944330D01*
X84017706Y-76918864D01*
X84017792Y-76918789D01*
X84061809Y-76888921D01*
X84097999Y-76881533D01*
X84123838Y-76895979D01*
X84136799Y-76931617D01*
X84137826Y-76949416D01*
X84128537Y-76979976D01*
X84104513Y-77019254D01*
X84071519Y-77059894D01*
X84035320Y-77094539D01*
X84010826Y-77111469D01*
X83983247Y-77128718D01*
X83969019Y-77141810D01*
X83968493Y-77143487D01*
X83957613Y-77153054D01*
X83929349Y-77169665D01*
X83890265Y-77190111D01*
X83846926Y-77211181D01*
X83805896Y-77229666D01*
X83773739Y-77242356D01*
X83758482Y-77246187D01*
X83740639Y-77254683D01*
X83710514Y-77276833D01*
X83674371Y-77307994D01*
X83671462Y-77310686D01*
X83623701Y-77353883D01*
X83571015Y-77399697D01*
X83534693Y-77430076D01*
X83489544Y-77468895D01*
X83438267Y-77516013D01*
X83395549Y-77557659D01*
X83359767Y-77591512D01*
X83329405Y-77615854D01*
X83309999Y-77626350D01*
X83307774Y-77626376D01*
X83284136Y-77629112D01*
X83264382Y-77637117D01*
X83229604Y-77643880D01*
X83199811Y-77628742D01*
X83179761Y-77595851D01*
X83173929Y-77558274D01*
X83172513Y-77530123D01*
X83166989Y-77512179D01*
X83155439Y-77505562D01*
X83135947Y-77511390D01*
X83106594Y-77530783D01*
X83065465Y-77564857D01*
X83010643Y-77614733D01*
X82940210Y-77681528D01*
X82905487Y-77714921D01*
X82875799Y-77739202D01*
X82850363Y-77752863D01*
X82844384Y-77753959D01*
X82821421Y-77761225D01*
X82815724Y-77766985D01*
X82796013Y-77777805D01*
X82764587Y-77779124D01*
X82733698Y-77771656D01*
X82718752Y-77761340D01*
X82710363Y-77737806D01*
X82709108Y-77694172D01*
X82712327Y-77650622D01*
X82715734Y-77596316D01*
X82712403Y-77566134D01*
X82701740Y-77558881D01*
X82683152Y-77573367D01*
X82677293Y-77580131D01*
X82652787Y-77601011D01*
X82620339Y-77619988D01*
X82562639Y-77649046D01*
X82526222Y-77672632D01*
X82507511Y-77693064D01*
X82507458Y-77693159D01*
X82488946Y-77706066D01*
X82453684Y-77717299D01*
X82430534Y-77721523D01*
X82388516Y-77725496D01*
X82361692Y-77721475D01*
X82339892Y-77707422D01*
X82334131Y-77702191D01*
X82311308Y-77683756D01*
X82291994Y-77681894D01*
X82265198Y-77693759D01*
X82232667Y-77713207D01*
X82191326Y-77741312D01*
X82166063Y-77759909D01*
X82129993Y-77785036D01*
X82099891Y-77801798D01*
X82086175Y-77806062D01*
X82068905Y-77812578D01*
X82066749Y-77818052D01*
X82055293Y-77831787D01*
X82025602Y-77838701D01*
X81984686Y-77838391D01*
X81939561Y-77830452D01*
X81925316Y-77826214D01*
X81860540Y-77794124D01*
X81814239Y-77746406D01*
X81785970Y-77681989D01*
X81775290Y-77599806D01*
X81781754Y-77498785D01*
X81783732Y-77484871D01*
X81793791Y-77417680D01*
X81742374Y-77408993D01*
X81696697Y-77407354D01*
X81660119Y-77417074D01*
X81639328Y-77435782D01*
X81636903Y-77446383D01*
X81628708Y-77466278D01*
X81608313Y-77494610D01*
X81601083Y-77502914D01*
X81577088Y-77532930D01*
X81545833Y-77576926D01*
X81513278Y-77626436D01*
X81506647Y-77637044D01*
X81467292Y-77695601D01*
X81420156Y-77758526D01*
X81375355Y-77812321D01*
X81374808Y-77812928D01*
X81337266Y-77856166D01*
X81304026Y-77897337D01*
X81281218Y-77928785D01*
X81278339Y-77933417D01*
X81252849Y-77964504D01*
X81215950Y-77996578D01*
X81200101Y-78007530D01*
X81158179Y-78037280D01*
X81119076Y-78070145D01*
X81108518Y-78080483D01*
X81086876Y-78104663D01*
X81082798Y-78115811D01*
X81094793Y-78118665D01*
X81096507Y-78118677D01*
X81112604Y-78122070D01*
X81106009Y-78133756D01*
X81087662Y-78142074D01*
X81072704Y-78133708D01*
X81046513Y-78124932D01*
X81015341Y-78126410D01*
X80962044Y-78124970D01*
X80914982Y-78098802D01*
X80875366Y-78048741D01*
X80860921Y-78020070D01*
X80843335Y-77982472D01*
X80829505Y-77956821D01*
X80823423Y-77949344D01*
X80813300Y-77959369D01*
X80802205Y-77977370D01*
X80793599Y-77997122D01*
X80800710Y-77999883D01*
X80808259Y-77997317D01*
X80824667Y-77992748D01*
X80827595Y-78000375D01*
X80817891Y-78025231D01*
X80814301Y-78033170D01*
X80802178Y-78054885D01*
X80791960Y-78054688D01*
X80784111Y-78045363D01*
X80772582Y-78034861D01*
X80759363Y-78039940D01*
X80738424Y-78063396D01*
X80734471Y-78068385D01*
X80707616Y-78101881D01*
X80684190Y-78130105D01*
X80679994Y-78134959D01*
X80663844Y-78162688D01*
X80659980Y-78180462D01*
X80666881Y-78185849D01*
X80687793Y-78170082D01*
X80718391Y-78138129D01*
X80747435Y-78107581D01*
X80768415Y-78088933D01*
X80776982Y-78086027D01*
X80777006Y-78086345D01*
X80768523Y-78110779D01*
X80746802Y-78144237D01*
X80718237Y-78178617D01*
X80689219Y-78205818D01*
X80675888Y-78214528D01*
X80634435Y-78226153D01*
X80580041Y-78229540D01*
X80523599Y-78225164D01*
X80475998Y-78213502D01*
X80458836Y-78205035D01*
X80418688Y-78164534D01*
X80389640Y-78106241D01*
X80374737Y-78037136D01*
X80373416Y-78009247D01*
X80371558Y-77968576D01*
X80366778Y-77939696D01*
X80362383Y-77931037D01*
X80347492Y-77935304D01*
X80323310Y-77954152D01*
X80313537Y-77963800D01*
X80290650Y-77989431D01*
X80284549Y-78004398D01*
X80293262Y-78016109D01*
X80298518Y-78020132D01*
X80318369Y-78038750D01*
X80314605Y-78049400D01*
X80286347Y-78053421D01*
X80276571Y-78053549D01*
X80235864Y-78056925D01*
X80201674Y-78064912D01*
X80166076Y-78069708D01*
X80142893Y-78065584D01*
X80115988Y-78045064D01*
X80091296Y-78010128D01*
X80075870Y-77971955D01*
X80073826Y-77956085D01*
X80068656Y-77931473D01*
X80059452Y-77906168D01*
X80584146Y-77906168D01*
X80589186Y-77932958D01*
X80602535Y-77935638D01*
X80623646Y-77915525D01*
X80641047Y-77895706D01*
X80670121Y-77864218D01*
X80702525Y-77830026D01*
X80739206Y-77787774D01*
X80775444Y-77739280D01*
X80807272Y-77690692D01*
X80830721Y-77648155D01*
X80841825Y-77617816D01*
X80842217Y-77613611D01*
X80831528Y-77596793D01*
X80812297Y-77585585D01*
X80782786Y-77569735D01*
X80747813Y-77544989D01*
X80740464Y-77538997D01*
X80710625Y-77518528D01*
X80686553Y-77509875D01*
X80681426Y-77510450D01*
X80662772Y-77528225D01*
X80641766Y-77563879D01*
X80621545Y-77609823D01*
X80605244Y-77658470D01*
X80595998Y-77702231D01*
X80594994Y-77719602D01*
X80594143Y-77763097D01*
X80590687Y-77817889D01*
X80587197Y-77854908D01*
X80584146Y-77906168D01*
X80059452Y-77906168D01*
X80055833Y-77896221D01*
X80051824Y-77887053D01*
X80037513Y-77853317D01*
X80029090Y-77829211D01*
X80028342Y-77825600D01*
X80023478Y-77805765D01*
X80013210Y-77772553D01*
X80009789Y-77762309D01*
X80000602Y-77725987D01*
X80000048Y-77688978D01*
X80008062Y-77639778D01*
X80009080Y-77634927D01*
X80019495Y-77592884D01*
X80029891Y-77562161D01*
X80036610Y-77550911D01*
X80045618Y-77533763D01*
X80047775Y-77515834D01*
X80046679Y-77496529D01*
X80039262Y-77497579D01*
X80023957Y-77513346D01*
X80007368Y-77537936D01*
X79986101Y-77578496D01*
X79964559Y-77626581D01*
X79963071Y-77630215D01*
X79938797Y-77686264D01*
X79907874Y-77752634D01*
X79876172Y-77816803D01*
X79869658Y-77829415D01*
X79845031Y-77877983D01*
X79825864Y-77918357D01*
X79814884Y-77944668D01*
X79813313Y-77950811D01*
X79804945Y-77975885D01*
X79783987Y-78008815D01*
X79756664Y-78042082D01*
X79729198Y-78068166D01*
X79707812Y-78079548D01*
X79706737Y-78079600D01*
X79672753Y-78075546D01*
X79631720Y-78065404D01*
X79593348Y-78052207D01*
X79567347Y-78038986D01*
X79562769Y-78034644D01*
X79556787Y-78011632D01*
X79554189Y-77968336D01*
X79554818Y-77910283D01*
X79558518Y-77842999D01*
X79565132Y-77772010D01*
X79571655Y-77721395D01*
X79579422Y-77665441D01*
X79582700Y-77629400D01*
X79581211Y-77607474D01*
X79574677Y-77593866D01*
X79565088Y-77584626D01*
X79553206Y-77571918D01*
X79547527Y-77554467D01*
X79547412Y-77525708D01*
X79552222Y-77479074D01*
X79553672Y-77467395D01*
X79561441Y-77410303D01*
X79569924Y-77355100D01*
X79577170Y-77314344D01*
X79582448Y-77277356D01*
X79578418Y-77260826D01*
X79572913Y-77258985D01*
X79559403Y-77269836D01*
X79537946Y-77298714D01*
X79511752Y-77340102D01*
X79484029Y-77388483D01*
X79457984Y-77438341D01*
X79436827Y-77484160D01*
X79426945Y-77509965D01*
X79413439Y-77544908D01*
X79391634Y-77595442D01*
X79364922Y-77653880D01*
X79345134Y-77695344D01*
X79318346Y-77751572D01*
X79295286Y-77802127D01*
X79278798Y-77840647D01*
X79272352Y-77858164D01*
X79261297Y-77885193D01*
X79240913Y-77926138D01*
X79215386Y-77972644D01*
X79212486Y-77977667D01*
X79188477Y-78020184D01*
X79170665Y-78053911D01*
X79162289Y-78072661D01*
X79162031Y-78074061D01*
X79156708Y-78090000D01*
X79142909Y-78121635D01*
X79127939Y-78153199D01*
X79101088Y-78199374D01*
X79077852Y-78221177D01*
X79070409Y-78222882D01*
X79048178Y-78229647D01*
X79042259Y-78237020D01*
X79028184Y-78240575D01*
X78994610Y-78231196D01*
X78965413Y-78219256D01*
X78922221Y-78197773D01*
X78913004Y-78190318D01*
X79057826Y-78190318D01*
X79064339Y-78196831D01*
X79070852Y-78190318D01*
X79064339Y-78183805D01*
X79057826Y-78190318D01*
X78913004Y-78190318D01*
X78897198Y-78177534D01*
X78883511Y-78152473D01*
X78880922Y-78144268D01*
X78868650Y-78113786D01*
X78855185Y-78096862D01*
X78853885Y-78096286D01*
X78838024Y-78102221D01*
X78809055Y-78122340D01*
X78772547Y-78152660D01*
X78762901Y-78161362D01*
X78679245Y-78228280D01*
X78598912Y-78271316D01*
X78518460Y-78291747D01*
X78434448Y-78290849D01*
X78419570Y-78288668D01*
X78318484Y-78259393D01*
X78222896Y-78207416D01*
X78138230Y-78136087D01*
X78098884Y-78090602D01*
X78070314Y-78049216D01*
X78042728Y-78002075D01*
X78018918Y-77955028D01*
X78001678Y-77913925D01*
X77993802Y-77884616D01*
X77995502Y-77874095D01*
X77993761Y-77860243D01*
X77983517Y-77830590D01*
X77974190Y-77808122D01*
X77954839Y-77753451D01*
X77934930Y-77677976D01*
X77934473Y-77675805D01*
X78117094Y-77675805D01*
X78122498Y-77738572D01*
X78140031Y-77808673D01*
X78166605Y-77878492D01*
X78199131Y-77940413D01*
X78234522Y-77986818D01*
X78248022Y-77998756D01*
X78286051Y-78029817D01*
X78322014Y-78063071D01*
X78350491Y-78093064D01*
X78366062Y-78114338D01*
X78367467Y-78118982D01*
X78378238Y-78130812D01*
X78404232Y-78146257D01*
X78435969Y-78160658D01*
X78463969Y-78169356D01*
X78471672Y-78170197D01*
X78495046Y-78165059D01*
X78530336Y-78152156D01*
X78544109Y-78146181D01*
X78586120Y-78121342D01*
X78627838Y-78087324D01*
X78663384Y-78050097D01*
X78686875Y-78015634D01*
X78693050Y-77994933D01*
X78698865Y-77968943D01*
X78713585Y-77930603D01*
X78725727Y-77904803D01*
X78743862Y-77866308D01*
X78755663Y-77835984D01*
X78758236Y-77824667D01*
X78763622Y-77807808D01*
X78778456Y-77772057D01*
X78800758Y-77721929D01*
X78828543Y-77661942D01*
X78843399Y-77630650D01*
X78874675Y-77562884D01*
X78902505Y-77498103D01*
X78924441Y-77442339D01*
X78938034Y-77401619D01*
X78940443Y-77391658D01*
X78951879Y-77346456D01*
X78969563Y-77290801D01*
X78986101Y-77245959D01*
X79000524Y-77208664D01*
X79014426Y-77169791D01*
X79028965Y-77125520D01*
X79045302Y-77072032D01*
X79064597Y-77005510D01*
X79088009Y-76922133D01*
X79116699Y-76818083D01*
X79122592Y-76796574D01*
X79155840Y-76675372D01*
X79183115Y-76576516D01*
X79205216Y-76497196D01*
X79222943Y-76434602D01*
X79237095Y-76385926D01*
X79248472Y-76348358D01*
X79257874Y-76319088D01*
X79261591Y-76308113D01*
X79277117Y-76259688D01*
X79293556Y-76203447D01*
X79300486Y-76177856D01*
X79312105Y-76134008D01*
X79321956Y-76097981D01*
X79326153Y-76083420D01*
X79324407Y-76064226D01*
X79312445Y-76060626D01*
X79288068Y-76053549D01*
X79253957Y-76036019D01*
X79218950Y-76013587D01*
X79191886Y-75991804D01*
X79181920Y-75978659D01*
X79177273Y-75956799D01*
X79171393Y-75920389D01*
X79169136Y-75904318D01*
X79160310Y-75855394D01*
X79146551Y-75826961D01*
X79122372Y-75813466D01*
X79082288Y-75809353D01*
X79075202Y-75809211D01*
X79035965Y-75811508D01*
X78997548Y-75821507D01*
X78951570Y-75841948D01*
X78914044Y-75861922D01*
X78874199Y-75886858D01*
X78826819Y-75920959D01*
X78776300Y-75960484D01*
X78727039Y-76001691D01*
X78683430Y-76040840D01*
X78649870Y-76074189D01*
X78630753Y-76097999D01*
X78627980Y-76105386D01*
X78620302Y-76121003D01*
X78601267Y-76147063D01*
X78595416Y-76154181D01*
X78574288Y-76183246D01*
X78563295Y-76206094D01*
X78562852Y-76209327D01*
X78553873Y-76227177D01*
X78531081Y-76253828D01*
X78516281Y-76268151D01*
X78496141Y-76287939D01*
X78478515Y-76309759D01*
X78461584Y-76337361D01*
X78443531Y-76374494D01*
X78422539Y-76424907D01*
X78396790Y-76492351D01*
X78364466Y-76580575D01*
X78363355Y-76583638D01*
X78337189Y-76654609D01*
X78309963Y-76726421D01*
X78284983Y-76790463D01*
X78266364Y-76836222D01*
X78216130Y-76965528D01*
X78176811Y-77088674D01*
X78149097Y-77202381D01*
X78133680Y-77303370D01*
X78131250Y-77388360D01*
X78138793Y-77441344D01*
X78140929Y-77470528D01*
X78138552Y-77515433D01*
X78132354Y-77565087D01*
X78124927Y-77613377D01*
X78119455Y-77653019D01*
X78117101Y-77675577D01*
X78117094Y-77675805D01*
X77934473Y-77675805D01*
X77915718Y-77586882D01*
X77902729Y-77512721D01*
X77904547Y-77474957D01*
X77923520Y-77448830D01*
X77942801Y-77421358D01*
X77950336Y-77380373D01*
X77950723Y-77364427D01*
X77953897Y-77304424D01*
X77962326Y-77231303D01*
X77974567Y-77153599D01*
X77989180Y-77079848D01*
X78004721Y-77018586D01*
X78013662Y-76991959D01*
X78029067Y-76946239D01*
X78045748Y-76887127D01*
X78060273Y-76826852D01*
X78061179Y-76822626D01*
X78081214Y-76731682D01*
X78098198Y-76663262D01*
X78113241Y-76614171D01*
X78127453Y-76581214D01*
X78141941Y-76561198D01*
X78155154Y-76552041D01*
X78182714Y-76525893D01*
X78199818Y-76485070D01*
X78212239Y-76440122D01*
X78224132Y-76398189D01*
X78225840Y-76392308D01*
X78239752Y-76361281D01*
X78264524Y-76319730D01*
X78291182Y-76281590D01*
X78323631Y-76237172D01*
X78363215Y-76180848D01*
X78402950Y-76122605D01*
X78415332Y-76104021D01*
X78451025Y-76053581D01*
X78491147Y-76002472D01*
X78531794Y-75955040D01*
X78569062Y-75915634D01*
X78599046Y-75888598D01*
X78617841Y-75878280D01*
X78618120Y-75878274D01*
X78631108Y-75870131D01*
X78659326Y-75847965D01*
X78698623Y-75815155D01*
X78744844Y-75775085D01*
X78745020Y-75774929D01*
X78862242Y-75671592D01*
X78988587Y-75677891D01*
X78988587Y-75677891D01*
G37*
X78988587Y-75677891D02*
X79096059Y-75688768D01*
X79180954Y-75710206D01*
X79244950Y-75743255D01*
X79289724Y-75788968D01*
X79316954Y-75848395D01*
X79325292Y-75888990D01*
X79335447Y-75950162D01*
X79346100Y-75985804D01*
X79357684Y-75996438D01*
X79370636Y-75982586D01*
X79381515Y-75956420D01*
X79397782Y-75927168D01*
X79423009Y-75917502D01*
X79428379Y-75917344D01*
X79454404Y-75923327D01*
X79461621Y-75942626D01*
X79469316Y-75970408D01*
X79489342Y-75976693D01*
X79514624Y-75962118D01*
X79536211Y-75946598D01*
X79546537Y-75950525D01*
X79546001Y-75975374D01*
X79535003Y-76022619D01*
X79532984Y-76029919D01*
X79508894Y-76116566D01*
X79490308Y-76185105D01*
X79475438Y-76242435D01*
X79462494Y-76295459D01*
X79449690Y-76351077D01*
X79449099Y-76353703D01*
X79419071Y-76477325D01*
X79385109Y-76595907D01*
X79344969Y-76718420D01*
X79323887Y-76785227D01*
X79303078Y-76860139D01*
X79287071Y-76926831D01*
X79272061Y-76986125D01*
X79253240Y-77044514D01*
X79234480Y-77090092D01*
X79233054Y-77092914D01*
X79214893Y-77131659D01*
X79203321Y-77163206D01*
X79201108Y-77174783D01*
X79194559Y-77200864D01*
X79183315Y-77223622D01*
X79175481Y-77242232D01*
X79165615Y-77276689D01*
X79153362Y-77328672D01*
X79138365Y-77399860D01*
X79120269Y-77491931D01*
X79098720Y-77606564D01*
X79076531Y-77727908D01*
X79065674Y-77783288D01*
X79054538Y-77832624D01*
X79045104Y-77867328D01*
X79042975Y-77873416D01*
X79034597Y-77907599D01*
X79034612Y-77932031D01*
X79042884Y-77939815D01*
X79058098Y-77925822D01*
X79078550Y-77892848D01*
X79102535Y-77843691D01*
X79128347Y-77781148D01*
X79131252Y-77773497D01*
X79151262Y-77724910D01*
X79171452Y-77683254D01*
X79187629Y-77657134D01*
X79188365Y-77656267D01*
X79210275Y-77622679D01*
X79220756Y-77597651D01*
X79231230Y-77568727D01*
X79248787Y-77526291D01*
X79266272Y-77486933D01*
X79292151Y-77430426D01*
X79319993Y-77369387D01*
X79335570Y-77335106D01*
X79354783Y-77295319D01*
X79371128Y-77266005D01*
X79379803Y-77254736D01*
X79389652Y-77240240D01*
X79405907Y-77207933D01*
X79425389Y-77164229D01*
X79429385Y-77154704D01*
X79456428Y-77096869D01*
X79484943Y-77054716D01*
X79521871Y-77018455D01*
X79531707Y-77010381D01*
X79568126Y-76983495D01*
X79598685Y-76965020D01*
X79614405Y-76959395D01*
X79639259Y-76964885D01*
X79678880Y-76979231D01*
X79724936Y-76999244D01*
X79748185Y-77010588D01*
X79761836Y-77029820D01*
X79773442Y-77069491D01*
X79778174Y-77097427D01*
X79786423Y-77148213D01*
X79796315Y-77195596D01*
X79802304Y-77218011D01*
X79808349Y-77255950D01*
X79810262Y-77315289D01*
X79807933Y-77391690D01*
X79807057Y-77406883D01*
X79803464Y-77469299D01*
X79802117Y-77509218D01*
X79803355Y-77530123D01*
X79807522Y-77535501D01*
X79814958Y-77528834D01*
X79818549Y-77524092D01*
X79838912Y-77490558D01*
X79863568Y-77442101D01*
X79888553Y-77387505D01*
X79909903Y-77335554D01*
X79923656Y-77295033D01*
X79925648Y-77286723D01*
X79939784Y-77248673D01*
X79958043Y-77221354D01*
X79976254Y-77197641D01*
X79982647Y-77182298D01*
X79992628Y-77168659D01*
X80018395Y-77146676D01*
X80043824Y-77128362D01*
X80102400Y-77098939D01*
X80157024Y-77094147D01*
X80211792Y-77113839D01*
X80224999Y-77121920D01*
X80237343Y-77130894D01*
X80246239Y-77141712D01*
X80251911Y-77158021D01*
X80254586Y-77183469D01*
X80254490Y-77221704D01*
X80251850Y-77276374D01*
X80246890Y-77351126D01*
X80242777Y-77408779D01*
X80235498Y-77510098D01*
X80230004Y-77588395D01*
X80226245Y-77646636D01*
X80224168Y-77687785D01*
X80223724Y-77714808D01*
X80224859Y-77730669D01*
X80227523Y-77738334D01*
X80231665Y-77740767D01*
X80237024Y-77740933D01*
X80254810Y-77730143D01*
X80262272Y-77716225D01*
X80275672Y-77692191D01*
X80300455Y-77660060D01*
X80313418Y-77645601D01*
X80346359Y-77605912D01*
X80380106Y-77558073D01*
X80393254Y-77536796D01*
X80419188Y-77496054D01*
X80445236Y-77461184D01*
X80457485Y-77447753D01*
X80474477Y-77426977D01*
X80501157Y-77388852D01*
X80523267Y-77355047D01*
X80754334Y-77355047D01*
X80771628Y-77381798D01*
X80805436Y-77402077D01*
X80838455Y-77397340D01*
X80867350Y-77368496D01*
X80875613Y-77353420D01*
X80894827Y-77299400D01*
X80904066Y-77243816D01*
X80902674Y-77195009D01*
X80890635Y-77162144D01*
X80878616Y-77148816D01*
X80868947Y-77150480D01*
X80856920Y-77170553D01*
X80845781Y-77194708D01*
X80822370Y-77237173D01*
X80794741Y-77274499D01*
X80785493Y-77284050D01*
X80756995Y-77320789D01*
X80754334Y-77355047D01*
X80523267Y-77355047D01*
X80534076Y-77338522D01*
X80569782Y-77281134D01*
X80575363Y-77271907D01*
X80625807Y-77191227D01*
X80668663Y-77130327D01*
X80707249Y-77085324D01*
X80744878Y-77052338D01*
X80783487Y-77028210D01*
X80826335Y-77013162D01*
X80869843Y-77009612D01*
X80903968Y-77017913D01*
X80911857Y-77023703D01*
X80937931Y-77038193D01*
X80960612Y-77027473D01*
X80978636Y-76992296D01*
X80981625Y-76982190D01*
X81008521Y-76893505D01*
X81040234Y-76806205D01*
X81073207Y-76729609D01*
X81092281Y-76692369D01*
X81115155Y-76649745D01*
X81146472Y-76588988D01*
X81183548Y-76515523D01*
X81223699Y-76434772D01*
X81264242Y-76352159D01*
X81302492Y-76273107D01*
X81335765Y-76203039D01*
X81354962Y-76161574D01*
X81377837Y-76115694D01*
X81399026Y-76080715D01*
X81415011Y-76062194D01*
X81418871Y-76060626D01*
X81440892Y-76068566D01*
X81472057Y-76088390D01*
X81504853Y-76114103D01*
X81531768Y-76139710D01*
X81545288Y-76159216D01*
X81545724Y-76161850D01*
X81542416Y-76188112D01*
X81534115Y-76228941D01*
X81523249Y-76273935D01*
X81512249Y-76312691D01*
X81506993Y-76327651D01*
X81497129Y-76356169D01*
X81484914Y-76396638D01*
X81480599Y-76412090D01*
X81464905Y-76459821D01*
X81443533Y-76513222D01*
X81433575Y-76535015D01*
X81416053Y-76574806D01*
X81404670Y-76607299D01*
X81402245Y-76619910D01*
X81397733Y-76646137D01*
X81387009Y-76682720D01*
X81373789Y-76718722D01*
X81361788Y-76743208D01*
X81359266Y-76746399D01*
X81352149Y-76765311D01*
X81350339Y-76784951D01*
X81345199Y-76811665D01*
X81337313Y-76822626D01*
X81328418Y-76839990D01*
X81324319Y-76871395D01*
X81324288Y-76874441D01*
X81318508Y-76917858D01*
X81305932Y-76955083D01*
X81292630Y-76986158D01*
X81275406Y-77032171D01*
X81257995Y-77083138D01*
X81237760Y-77138783D01*
X81210427Y-77205178D01*
X81181108Y-77270059D01*
X81173855Y-77285036D01*
X81144803Y-77344473D01*
X81124597Y-77387858D01*
X81110371Y-77422407D01*
X81099259Y-77455338D01*
X81088396Y-77493869D01*
X81083341Y-77512985D01*
X81075175Y-77550916D01*
X81066464Y-77602437D01*
X81057882Y-77661854D01*
X81050104Y-77723476D01*
X81043803Y-77781612D01*
X81039652Y-77830568D01*
X81038327Y-77864655D01*
X81040132Y-77877940D01*
X81058630Y-77878923D01*
X81089162Y-77857586D01*
X81131240Y-77814452D01*
X81184377Y-77750045D01*
X81248083Y-77664890D01*
X81278698Y-77621892D01*
X81315505Y-77570818D01*
X81358206Y-77513411D01*
X81390620Y-77471062D01*
X81424769Y-77422687D01*
X81455310Y-77371550D01*
X81474438Y-77331508D01*
X81497327Y-77286297D01*
X81528034Y-77256623D01*
X81571048Y-77240570D01*
X81630862Y-77236220D01*
X81689899Y-77239525D01*
X81761628Y-77242278D01*
X81812652Y-77235183D01*
X81846733Y-77217347D01*
X81862243Y-77198467D01*
X81893406Y-77168699D01*
X81938623Y-77151909D01*
X81987725Y-77151492D01*
X81996777Y-77153578D01*
X82046469Y-77177036D01*
X82073811Y-77211916D01*
X82078146Y-77255219D01*
X82058818Y-77303943D01*
X82036204Y-77333844D01*
X81995228Y-77398137D01*
X81973104Y-77474006D01*
X81972125Y-77550428D01*
X81978799Y-77600898D01*
X82042555Y-77593346D01*
X82094332Y-77581276D01*
X82148217Y-77559145D01*
X82197585Y-77530836D01*
X82235813Y-77500235D01*
X82256279Y-77471223D01*
X82257375Y-77467395D01*
X82282872Y-77369451D01*
X82315062Y-77272077D01*
X82351623Y-77180761D01*
X82390238Y-77100990D01*
X82428585Y-77038252D01*
X82450099Y-77011497D01*
X82476283Y-76979391D01*
X82495462Y-76949626D01*
X82512412Y-76927735D01*
X82535949Y-76922075D01*
X82571489Y-76932488D01*
X82601129Y-76946537D01*
X82644862Y-76973202D01*
X82672369Y-77003433D01*
X82686434Y-77043354D01*
X82689841Y-77099090D01*
X82688216Y-77138124D01*
X82681341Y-77204360D01*
X82667865Y-77258292D01*
X82644232Y-77313488D01*
X82640087Y-77321742D01*
X82620517Y-77363250D01*
X82608267Y-77395317D01*
X82605779Y-77411471D01*
X82606079Y-77411887D01*
X82616775Y-77412064D01*
X82636069Y-77398006D01*
X82665244Y-77368303D01*
X82705582Y-77321544D01*
X82758364Y-77256320D01*
X82824873Y-77171220D01*
X82825106Y-77170919D01*
X82884273Y-77095815D01*
X82931055Y-77040388D01*
X82967712Y-77002772D01*
X82996504Y-76981097D01*
X83019692Y-76973496D01*
X83039535Y-76978102D01*
X83049850Y-76985168D01*
X83070046Y-77011021D01*
X83076610Y-77025699D01*
X83091224Y-77046188D01*
X83103165Y-77050574D01*
X83117471Y-77053596D01*
X83119069Y-77065373D01*
X83106867Y-77089974D01*
X83082512Y-77127432D01*
X83060479Y-77163065D01*
X83046404Y-77191815D01*
X83043672Y-77202293D01*
X83037975Y-77220511D01*
X83022557Y-77256177D01*
X82999931Y-77303740D01*
X82978686Y-77345929D01*
X82952785Y-77397269D01*
X82932606Y-77439363D01*
X82920419Y-77467331D01*
X82917998Y-77476319D01*
X82929574Y-77471056D01*
X82956545Y-77453269D01*
X82993744Y-77426428D01*
X83005779Y-77417392D01*
X83093602Y-77341200D01*
X83173672Y-77253442D01*
X83237783Y-77163210D01*
X83242780Y-77154779D01*
X83267976Y-77117835D01*
X83305004Y-77071131D01*
X83347060Y-77023109D01*
X83359912Y-77009424D01*
X83399701Y-76968610D01*
X83427171Y-76943708D01*
X83447655Y-76931472D01*
X83466485Y-76928654D01*
X83487543Y-76931713D01*
X83524378Y-76946431D01*
X83551667Y-76977564D01*
X83557980Y-76988569D01*
X83583826Y-77036398D01*
X83546106Y-77108495D01*
X83521035Y-77150443D01*
X83495031Y-77184683D01*
X83478385Y-77200250D01*
X83450073Y-77225015D01*
X83434441Y-77245959D01*
X83426822Y-77266809D01*
X83433732Y-77271460D01*
X83451854Y-77262691D01*
X83477870Y-77243279D01*
X83508465Y-77216006D01*
X83540320Y-77183648D01*
X83570119Y-77148986D01*
X83594545Y-77114798D01*
X83598199Y-77108766D01*
X83634890Y-77060056D01*
X83675756Y-77035448D01*
X83724955Y-77032994D01*
X83748981Y-77038067D01*
X83777447Y-77044235D01*
X83801777Y-77043588D01*
X83829892Y-77034192D01*
X83869714Y-77014117D01*
X83887929Y-77004185D01*
X83937593Y-76974976D01*
X83984206Y-76944330D01*
X84017706Y-76918864D01*
X84017792Y-76918789D01*
X84061809Y-76888921D01*
X84097999Y-76881533D01*
X84123838Y-76895979D01*
X84136799Y-76931617D01*
X84137826Y-76949416D01*
X84128537Y-76979976D01*
X84104513Y-77019254D01*
X84071519Y-77059894D01*
X84035320Y-77094539D01*
X84010826Y-77111469D01*
X83983247Y-77128718D01*
X83969019Y-77141810D01*
X83968493Y-77143487D01*
X83957613Y-77153054D01*
X83929349Y-77169665D01*
X83890265Y-77190111D01*
X83846926Y-77211181D01*
X83805896Y-77229666D01*
X83773739Y-77242356D01*
X83758482Y-77246187D01*
X83740639Y-77254683D01*
X83710514Y-77276833D01*
X83674371Y-77307994D01*
X83671462Y-77310686D01*
X83623701Y-77353883D01*
X83571015Y-77399697D01*
X83534693Y-77430076D01*
X83489544Y-77468895D01*
X83438267Y-77516013D01*
X83395549Y-77557659D01*
X83359767Y-77591512D01*
X83329405Y-77615854D01*
X83309999Y-77626350D01*
X83307774Y-77626376D01*
X83284136Y-77629112D01*
X83264382Y-77637117D01*
X83229604Y-77643880D01*
X83199811Y-77628742D01*
X83179761Y-77595851D01*
X83173929Y-77558274D01*
X83172513Y-77530123D01*
X83166989Y-77512179D01*
X83155439Y-77505562D01*
X83135947Y-77511390D01*
X83106594Y-77530783D01*
X83065465Y-77564857D01*
X83010643Y-77614733D01*
X82940210Y-77681528D01*
X82905487Y-77714921D01*
X82875799Y-77739202D01*
X82850363Y-77752863D01*
X82844384Y-77753959D01*
X82821421Y-77761225D01*
X82815724Y-77766985D01*
X82796013Y-77777805D01*
X82764587Y-77779124D01*
X82733698Y-77771656D01*
X82718752Y-77761340D01*
X82710363Y-77737806D01*
X82709108Y-77694172D01*
X82712327Y-77650622D01*
X82715734Y-77596316D01*
X82712403Y-77566134D01*
X82701740Y-77558881D01*
X82683152Y-77573367D01*
X82677293Y-77580131D01*
X82652787Y-77601011D01*
X82620339Y-77619988D01*
X82562639Y-77649046D01*
X82526222Y-77672632D01*
X82507511Y-77693064D01*
X82507458Y-77693159D01*
X82488946Y-77706066D01*
X82453684Y-77717299D01*
X82430534Y-77721523D01*
X82388516Y-77725496D01*
X82361692Y-77721475D01*
X82339892Y-77707422D01*
X82334131Y-77702191D01*
X82311308Y-77683756D01*
X82291994Y-77681894D01*
X82265198Y-77693759D01*
X82232667Y-77713207D01*
X82191326Y-77741312D01*
X82166063Y-77759909D01*
X82129993Y-77785036D01*
X82099891Y-77801798D01*
X82086175Y-77806062D01*
X82068905Y-77812578D01*
X82066749Y-77818052D01*
X82055293Y-77831787D01*
X82025602Y-77838701D01*
X81984686Y-77838391D01*
X81939561Y-77830452D01*
X81925316Y-77826214D01*
X81860540Y-77794124D01*
X81814239Y-77746406D01*
X81785970Y-77681989D01*
X81775290Y-77599806D01*
X81781754Y-77498785D01*
X81783732Y-77484871D01*
X81793791Y-77417680D01*
X81742374Y-77408993D01*
X81696697Y-77407354D01*
X81660119Y-77417074D01*
X81639328Y-77435782D01*
X81636903Y-77446383D01*
X81628708Y-77466278D01*
X81608313Y-77494610D01*
X81601083Y-77502914D01*
X81577088Y-77532930D01*
X81545833Y-77576926D01*
X81513278Y-77626436D01*
X81506647Y-77637044D01*
X81467292Y-77695601D01*
X81420156Y-77758526D01*
X81375355Y-77812321D01*
X81374808Y-77812928D01*
X81337266Y-77856166D01*
X81304026Y-77897337D01*
X81281218Y-77928785D01*
X81278339Y-77933417D01*
X81252849Y-77964504D01*
X81215950Y-77996578D01*
X81200101Y-78007530D01*
X81158179Y-78037280D01*
X81119076Y-78070145D01*
X81108518Y-78080483D01*
X81086876Y-78104663D01*
X81082798Y-78115811D01*
X81094793Y-78118665D01*
X81096507Y-78118677D01*
X81112604Y-78122070D01*
X81106009Y-78133756D01*
X81087662Y-78142074D01*
X81072704Y-78133708D01*
X81046513Y-78124932D01*
X81015341Y-78126410D01*
X80962044Y-78124970D01*
X80914982Y-78098802D01*
X80875366Y-78048741D01*
X80860921Y-78020070D01*
X80843335Y-77982472D01*
X80829505Y-77956821D01*
X80823423Y-77949344D01*
X80813300Y-77959369D01*
X80802205Y-77977370D01*
X80793599Y-77997122D01*
X80800710Y-77999883D01*
X80808259Y-77997317D01*
X80824667Y-77992748D01*
X80827595Y-78000375D01*
X80817891Y-78025231D01*
X80814301Y-78033170D01*
X80802178Y-78054885D01*
X80791960Y-78054688D01*
X80784111Y-78045363D01*
X80772582Y-78034861D01*
X80759363Y-78039940D01*
X80738424Y-78063396D01*
X80734471Y-78068385D01*
X80707616Y-78101881D01*
X80684190Y-78130105D01*
X80679994Y-78134959D01*
X80663844Y-78162688D01*
X80659980Y-78180462D01*
X80666881Y-78185849D01*
X80687793Y-78170082D01*
X80718391Y-78138129D01*
X80747435Y-78107581D01*
X80768415Y-78088933D01*
X80776982Y-78086027D01*
X80777006Y-78086345D01*
X80768523Y-78110779D01*
X80746802Y-78144237D01*
X80718237Y-78178617D01*
X80689219Y-78205818D01*
X80675888Y-78214528D01*
X80634435Y-78226153D01*
X80580041Y-78229540D01*
X80523599Y-78225164D01*
X80475998Y-78213502D01*
X80458836Y-78205035D01*
X80418688Y-78164534D01*
X80389640Y-78106241D01*
X80374737Y-78037136D01*
X80373416Y-78009247D01*
X80371558Y-77968576D01*
X80366778Y-77939696D01*
X80362383Y-77931037D01*
X80347492Y-77935304D01*
X80323310Y-77954152D01*
X80313537Y-77963800D01*
X80290650Y-77989431D01*
X80284549Y-78004398D01*
X80293262Y-78016109D01*
X80298518Y-78020132D01*
X80318369Y-78038750D01*
X80314605Y-78049400D01*
X80286347Y-78053421D01*
X80276571Y-78053549D01*
X80235864Y-78056925D01*
X80201674Y-78064912D01*
X80166076Y-78069708D01*
X80142893Y-78065584D01*
X80115988Y-78045064D01*
X80091296Y-78010128D01*
X80075870Y-77971955D01*
X80073826Y-77956085D01*
X80068656Y-77931473D01*
X80059452Y-77906168D01*
X80584146Y-77906168D01*
X80589186Y-77932958D01*
X80602535Y-77935638D01*
X80623646Y-77915525D01*
X80641047Y-77895706D01*
X80670121Y-77864218D01*
X80702525Y-77830026D01*
X80739206Y-77787774D01*
X80775444Y-77739280D01*
X80807272Y-77690692D01*
X80830721Y-77648155D01*
X80841825Y-77617816D01*
X80842217Y-77613611D01*
X80831528Y-77596793D01*
X80812297Y-77585585D01*
X80782786Y-77569735D01*
X80747813Y-77544989D01*
X80740464Y-77538997D01*
X80710625Y-77518528D01*
X80686553Y-77509875D01*
X80681426Y-77510450D01*
X80662772Y-77528225D01*
X80641766Y-77563879D01*
X80621545Y-77609823D01*
X80605244Y-77658470D01*
X80595998Y-77702231D01*
X80594994Y-77719602D01*
X80594143Y-77763097D01*
X80590687Y-77817889D01*
X80587197Y-77854908D01*
X80584146Y-77906168D01*
X80059452Y-77906168D01*
X80055833Y-77896221D01*
X80051824Y-77887053D01*
X80037513Y-77853317D01*
X80029090Y-77829211D01*
X80028342Y-77825600D01*
X80023478Y-77805765D01*
X80013210Y-77772553D01*
X80009789Y-77762309D01*
X80000602Y-77725987D01*
X80000048Y-77688978D01*
X80008062Y-77639778D01*
X80009080Y-77634927D01*
X80019495Y-77592884D01*
X80029891Y-77562161D01*
X80036610Y-77550911D01*
X80045618Y-77533763D01*
X80047775Y-77515834D01*
X80046679Y-77496529D01*
X80039262Y-77497579D01*
X80023957Y-77513346D01*
X80007368Y-77537936D01*
X79986101Y-77578496D01*
X79964559Y-77626581D01*
X79963071Y-77630215D01*
X79938797Y-77686264D01*
X79907874Y-77752634D01*
X79876172Y-77816803D01*
X79869658Y-77829415D01*
X79845031Y-77877983D01*
X79825864Y-77918357D01*
X79814884Y-77944668D01*
X79813313Y-77950811D01*
X79804945Y-77975885D01*
X79783987Y-78008815D01*
X79756664Y-78042082D01*
X79729198Y-78068166D01*
X79707812Y-78079548D01*
X79706737Y-78079600D01*
X79672753Y-78075546D01*
X79631720Y-78065404D01*
X79593348Y-78052207D01*
X79567347Y-78038986D01*
X79562769Y-78034644D01*
X79556787Y-78011632D01*
X79554189Y-77968336D01*
X79554818Y-77910283D01*
X79558518Y-77842999D01*
X79565132Y-77772010D01*
X79571655Y-77721395D01*
X79579422Y-77665441D01*
X79582700Y-77629400D01*
X79581211Y-77607474D01*
X79574677Y-77593866D01*
X79565088Y-77584626D01*
X79553206Y-77571918D01*
X79547527Y-77554467D01*
X79547412Y-77525708D01*
X79552222Y-77479074D01*
X79553672Y-77467395D01*
X79561441Y-77410303D01*
X79569924Y-77355100D01*
X79577170Y-77314344D01*
X79582448Y-77277356D01*
X79578418Y-77260826D01*
X79572913Y-77258985D01*
X79559403Y-77269836D01*
X79537946Y-77298714D01*
X79511752Y-77340102D01*
X79484029Y-77388483D01*
X79457984Y-77438341D01*
X79436827Y-77484160D01*
X79426945Y-77509965D01*
X79413439Y-77544908D01*
X79391634Y-77595442D01*
X79364922Y-77653880D01*
X79345134Y-77695344D01*
X79318346Y-77751572D01*
X79295286Y-77802127D01*
X79278798Y-77840647D01*
X79272352Y-77858164D01*
X79261297Y-77885193D01*
X79240913Y-77926138D01*
X79215386Y-77972644D01*
X79212486Y-77977667D01*
X79188477Y-78020184D01*
X79170665Y-78053911D01*
X79162289Y-78072661D01*
X79162031Y-78074061D01*
X79156708Y-78090000D01*
X79142909Y-78121635D01*
X79127939Y-78153199D01*
X79101088Y-78199374D01*
X79077852Y-78221177D01*
X79070409Y-78222882D01*
X79048178Y-78229647D01*
X79042259Y-78237020D01*
X79028184Y-78240575D01*
X78994610Y-78231196D01*
X78965413Y-78219256D01*
X78922221Y-78197773D01*
X78913004Y-78190318D01*
X79057826Y-78190318D01*
X79064339Y-78196831D01*
X79070852Y-78190318D01*
X79064339Y-78183805D01*
X79057826Y-78190318D01*
X78913004Y-78190318D01*
X78897198Y-78177534D01*
X78883511Y-78152473D01*
X78880922Y-78144268D01*
X78868650Y-78113786D01*
X78855185Y-78096862D01*
X78853885Y-78096286D01*
X78838024Y-78102221D01*
X78809055Y-78122340D01*
X78772547Y-78152660D01*
X78762901Y-78161362D01*
X78679245Y-78228280D01*
X78598912Y-78271316D01*
X78518460Y-78291747D01*
X78434448Y-78290849D01*
X78419570Y-78288668D01*
X78318484Y-78259393D01*
X78222896Y-78207416D01*
X78138230Y-78136087D01*
X78098884Y-78090602D01*
X78070314Y-78049216D01*
X78042728Y-78002075D01*
X78018918Y-77955028D01*
X78001678Y-77913925D01*
X77993802Y-77884616D01*
X77995502Y-77874095D01*
X77993761Y-77860243D01*
X77983517Y-77830590D01*
X77974190Y-77808122D01*
X77954839Y-77753451D01*
X77934930Y-77677976D01*
X77934473Y-77675805D01*
X78117094Y-77675805D01*
X78122498Y-77738572D01*
X78140031Y-77808673D01*
X78166605Y-77878492D01*
X78199131Y-77940413D01*
X78234522Y-77986818D01*
X78248022Y-77998756D01*
X78286051Y-78029817D01*
X78322014Y-78063071D01*
X78350491Y-78093064D01*
X78366062Y-78114338D01*
X78367467Y-78118982D01*
X78378238Y-78130812D01*
X78404232Y-78146257D01*
X78435969Y-78160658D01*
X78463969Y-78169356D01*
X78471672Y-78170197D01*
X78495046Y-78165059D01*
X78530336Y-78152156D01*
X78544109Y-78146181D01*
X78586120Y-78121342D01*
X78627838Y-78087324D01*
X78663384Y-78050097D01*
X78686875Y-78015634D01*
X78693050Y-77994933D01*
X78698865Y-77968943D01*
X78713585Y-77930603D01*
X78725727Y-77904803D01*
X78743862Y-77866308D01*
X78755663Y-77835984D01*
X78758236Y-77824667D01*
X78763622Y-77807808D01*
X78778456Y-77772057D01*
X78800758Y-77721929D01*
X78828543Y-77661942D01*
X78843399Y-77630650D01*
X78874675Y-77562884D01*
X78902505Y-77498103D01*
X78924441Y-77442339D01*
X78938034Y-77401619D01*
X78940443Y-77391658D01*
X78951879Y-77346456D01*
X78969563Y-77290801D01*
X78986101Y-77245959D01*
X79000524Y-77208664D01*
X79014426Y-77169791D01*
X79028965Y-77125520D01*
X79045302Y-77072032D01*
X79064597Y-77005510D01*
X79088009Y-76922133D01*
X79116699Y-76818083D01*
X79122592Y-76796574D01*
X79155840Y-76675372D01*
X79183115Y-76576516D01*
X79205216Y-76497196D01*
X79222943Y-76434602D01*
X79237095Y-76385926D01*
X79248472Y-76348358D01*
X79257874Y-76319088D01*
X79261591Y-76308113D01*
X79277117Y-76259688D01*
X79293556Y-76203447D01*
X79300486Y-76177856D01*
X79312105Y-76134008D01*
X79321956Y-76097981D01*
X79326153Y-76083420D01*
X79324407Y-76064226D01*
X79312445Y-76060626D01*
X79288068Y-76053549D01*
X79253957Y-76036019D01*
X79218950Y-76013587D01*
X79191886Y-75991804D01*
X79181920Y-75978659D01*
X79177273Y-75956799D01*
X79171393Y-75920389D01*
X79169136Y-75904318D01*
X79160310Y-75855394D01*
X79146551Y-75826961D01*
X79122372Y-75813466D01*
X79082288Y-75809353D01*
X79075202Y-75809211D01*
X79035965Y-75811508D01*
X78997548Y-75821507D01*
X78951570Y-75841948D01*
X78914044Y-75861922D01*
X78874199Y-75886858D01*
X78826819Y-75920959D01*
X78776300Y-75960484D01*
X78727039Y-76001691D01*
X78683430Y-76040840D01*
X78649870Y-76074189D01*
X78630753Y-76097999D01*
X78627980Y-76105386D01*
X78620302Y-76121003D01*
X78601267Y-76147063D01*
X78595416Y-76154181D01*
X78574288Y-76183246D01*
X78563295Y-76206094D01*
X78562852Y-76209327D01*
X78553873Y-76227177D01*
X78531081Y-76253828D01*
X78516281Y-76268151D01*
X78496141Y-76287939D01*
X78478515Y-76309759D01*
X78461584Y-76337361D01*
X78443531Y-76374494D01*
X78422539Y-76424907D01*
X78396790Y-76492351D01*
X78364466Y-76580575D01*
X78363355Y-76583638D01*
X78337189Y-76654609D01*
X78309963Y-76726421D01*
X78284983Y-76790463D01*
X78266364Y-76836222D01*
X78216130Y-76965528D01*
X78176811Y-77088674D01*
X78149097Y-77202381D01*
X78133680Y-77303370D01*
X78131250Y-77388360D01*
X78138793Y-77441344D01*
X78140929Y-77470528D01*
X78138552Y-77515433D01*
X78132354Y-77565087D01*
X78124927Y-77613377D01*
X78119455Y-77653019D01*
X78117101Y-77675577D01*
X78117094Y-77675805D01*
X77934473Y-77675805D01*
X77915718Y-77586882D01*
X77902729Y-77512721D01*
X77904547Y-77474957D01*
X77923520Y-77448830D01*
X77942801Y-77421358D01*
X77950336Y-77380373D01*
X77950723Y-77364427D01*
X77953897Y-77304424D01*
X77962326Y-77231303D01*
X77974567Y-77153599D01*
X77989180Y-77079848D01*
X78004721Y-77018586D01*
X78013662Y-76991959D01*
X78029067Y-76946239D01*
X78045748Y-76887127D01*
X78060273Y-76826852D01*
X78061179Y-76822626D01*
X78081214Y-76731682D01*
X78098198Y-76663262D01*
X78113241Y-76614171D01*
X78127453Y-76581214D01*
X78141941Y-76561198D01*
X78155154Y-76552041D01*
X78182714Y-76525893D01*
X78199818Y-76485070D01*
X78212239Y-76440122D01*
X78224132Y-76398189D01*
X78225840Y-76392308D01*
X78239752Y-76361281D01*
X78264524Y-76319730D01*
X78291182Y-76281590D01*
X78323631Y-76237172D01*
X78363215Y-76180848D01*
X78402950Y-76122605D01*
X78415332Y-76104021D01*
X78451025Y-76053581D01*
X78491147Y-76002472D01*
X78531794Y-75955040D01*
X78569062Y-75915634D01*
X78599046Y-75888598D01*
X78617841Y-75878280D01*
X78618120Y-75878274D01*
X78631108Y-75870131D01*
X78659326Y-75847965D01*
X78698623Y-75815155D01*
X78744844Y-75775085D01*
X78745020Y-75774929D01*
X78862242Y-75671592D01*
X78988587Y-75677891D01*
G04 #@! TO.C,U21*
D11*
X106457904Y-85558380D02*
X106457904Y-86367904D01*
X106505523Y-86463142D01*
X106553142Y-86510761D01*
X106648380Y-86558380D01*
X106838857Y-86558380D01*
X106934095Y-86510761D01*
X106981714Y-86463142D01*
X107029333Y-86367904D01*
X107029333Y-85558380D01*
X107457904Y-85653619D02*
X107505523Y-85606000D01*
X107600761Y-85558380D01*
X107838857Y-85558380D01*
X107934095Y-85606000D01*
X107981714Y-85653619D01*
X108029333Y-85748857D01*
X108029333Y-85844095D01*
X107981714Y-85986952D01*
X107410285Y-86558380D01*
X108029333Y-86558380D01*
X108981714Y-86558380D02*
X108410285Y-86558380D01*
X108696000Y-86558380D02*
X108696000Y-85558380D01*
X108600761Y-85701238D01*
X108505523Y-85796476D01*
X108410285Y-85844095D01*
X78694965Y-61889709D02*
X78218775Y-62223042D01*
X78694965Y-62461137D02*
X77694965Y-62461137D01*
X77694965Y-62080185D01*
X77742585Y-61984947D01*
X77790204Y-61937328D01*
X77885442Y-61889709D01*
X78028299Y-61889709D01*
X78123537Y-61937328D01*
X78171156Y-61984947D01*
X78218775Y-62080185D01*
X78218775Y-62461137D01*
X77694965Y-61556375D02*
X77694965Y-60889709D01*
X78694965Y-61318280D01*
X78028299Y-59746851D02*
X78314013Y-60508756D01*
X78599727Y-59746851D01*
X78314013Y-59270661D02*
X78314013Y-58508756D01*
X78314013Y-58032566D02*
X78314013Y-57270661D01*
X78694965Y-56223042D02*
X78218775Y-56556375D01*
X78694965Y-56794470D02*
X77694965Y-56794470D01*
X77694965Y-56413518D01*
X77742585Y-56318280D01*
X77790204Y-56270661D01*
X77885442Y-56223042D01*
X78028299Y-56223042D01*
X78123537Y-56270661D01*
X78171156Y-56318280D01*
X78218775Y-56413518D01*
X78218775Y-56794470D01*
X77694965Y-55603994D02*
X77694965Y-55508756D01*
X77742585Y-55413518D01*
X77790204Y-55365899D01*
X77885442Y-55318280D01*
X78075918Y-55270661D01*
X78314013Y-55270661D01*
X78504489Y-55318280D01*
X78599727Y-55365899D01*
X78647346Y-55413518D01*
X78694965Y-55508756D01*
X78694965Y-55603994D01*
X78647346Y-55699232D01*
X78599727Y-55746851D01*
X78504489Y-55794470D01*
X78314013Y-55842089D01*
X78075918Y-55842089D01*
X77885442Y-55794470D01*
X77790204Y-55746851D01*
X77742585Y-55699232D01*
X77694965Y-55603994D01*
X78290585Y-86424851D02*
X78242965Y-86472470D01*
X78100108Y-86520089D01*
X78004870Y-86520089D01*
X77862013Y-86472470D01*
X77766775Y-86377232D01*
X77719156Y-86281994D01*
X77671537Y-86091518D01*
X77671537Y-85948661D01*
X77719156Y-85758185D01*
X77766775Y-85662947D01*
X77862013Y-85567709D01*
X78004870Y-85520089D01*
X78100108Y-85520089D01*
X78242965Y-85567709D01*
X78290585Y-85615328D01*
X78909632Y-85520089D02*
X79004870Y-85520089D01*
X79100108Y-85567709D01*
X79147727Y-85615328D01*
X79195346Y-85710566D01*
X79242965Y-85901042D01*
X79242965Y-86139137D01*
X79195346Y-86329613D01*
X79147727Y-86424851D01*
X79100108Y-86472470D01*
X79004870Y-86520089D01*
X78909632Y-86520089D01*
X78814394Y-86472470D01*
X78766775Y-86424851D01*
X78719156Y-86329613D01*
X78671537Y-86139137D01*
X78671537Y-85901042D01*
X78719156Y-85710566D01*
X78766775Y-85615328D01*
X78814394Y-85567709D01*
X78909632Y-85520089D01*
X79671537Y-86139137D02*
X80433442Y-86139137D01*
X80909632Y-86139137D02*
X81671537Y-86139137D01*
X82147727Y-85853423D02*
X82909632Y-86139137D01*
X82147727Y-86424851D01*
X83957251Y-86424851D02*
X83909632Y-86472470D01*
X83766775Y-86520089D01*
X83671537Y-86520089D01*
X83528680Y-86472470D01*
X83433442Y-86377232D01*
X83385823Y-86281994D01*
X83338204Y-86091518D01*
X83338204Y-85948661D01*
X83385823Y-85758185D01*
X83433442Y-85662947D01*
X83528680Y-85567709D01*
X83671537Y-85520089D01*
X83766775Y-85520089D01*
X83909632Y-85567709D01*
X83957251Y-85615328D01*
X84290585Y-85520089D02*
X84957251Y-85520089D01*
X84528680Y-86520089D01*
G04 #@! TO.C,U23*
X138461904Y-117562380D02*
X138461904Y-118371904D01*
X138509523Y-118467142D01*
X138557142Y-118514761D01*
X138652380Y-118562380D01*
X138842857Y-118562380D01*
X138938095Y-118514761D01*
X138985714Y-118467142D01*
X139033333Y-118371904D01*
X139033333Y-117562380D01*
X139461904Y-117657619D02*
X139509523Y-117610000D01*
X139604761Y-117562380D01*
X139842857Y-117562380D01*
X139938095Y-117610000D01*
X139985714Y-117657619D01*
X140033333Y-117752857D01*
X140033333Y-117848095D01*
X139985714Y-117990952D01*
X139414285Y-118562380D01*
X140033333Y-118562380D01*
X140366666Y-117562380D02*
X140985714Y-117562380D01*
X140652380Y-117943333D01*
X140795238Y-117943333D01*
X140890476Y-117990952D01*
X140938095Y-118038571D01*
X140985714Y-118133809D01*
X140985714Y-118371904D01*
X140938095Y-118467142D01*
X140890476Y-118514761D01*
X140795238Y-118562380D01*
X140509523Y-118562380D01*
X140414285Y-118514761D01*
X140366666Y-118467142D01*
X110726480Y-93919300D02*
X110250290Y-94252633D01*
X110726480Y-94490728D02*
X109726480Y-94490728D01*
X109726480Y-94109776D01*
X109774100Y-94014538D01*
X109821719Y-93966919D01*
X109916957Y-93919300D01*
X110059814Y-93919300D01*
X110155052Y-93966919D01*
X110202671Y-94014538D01*
X110250290Y-94109776D01*
X110250290Y-94490728D01*
X109726480Y-93585966D02*
X109726480Y-92919300D01*
X110726480Y-93347871D01*
X110059814Y-91776442D02*
X110345528Y-92538347D01*
X110631242Y-91776442D01*
X110345528Y-91300252D02*
X110345528Y-90538347D01*
X110345528Y-90062157D02*
X110345528Y-89300252D01*
X110726480Y-88252633D02*
X110250290Y-88585966D01*
X110726480Y-88824061D02*
X109726480Y-88824061D01*
X109726480Y-88443109D01*
X109774100Y-88347871D01*
X109821719Y-88300252D01*
X109916957Y-88252633D01*
X110059814Y-88252633D01*
X110155052Y-88300252D01*
X110202671Y-88347871D01*
X110250290Y-88443109D01*
X110250290Y-88824061D01*
X109726480Y-87633585D02*
X109726480Y-87538347D01*
X109774100Y-87443109D01*
X109821719Y-87395490D01*
X109916957Y-87347871D01*
X110107433Y-87300252D01*
X110345528Y-87300252D01*
X110536004Y-87347871D01*
X110631242Y-87395490D01*
X110678861Y-87443109D01*
X110726480Y-87538347D01*
X110726480Y-87633585D01*
X110678861Y-87728823D01*
X110631242Y-87776442D01*
X110536004Y-87824061D01*
X110345528Y-87871680D01*
X110107433Y-87871680D01*
X109916957Y-87824061D01*
X109821719Y-87776442D01*
X109774100Y-87728823D01*
X109726480Y-87633585D01*
X110322100Y-118454442D02*
X110274480Y-118502061D01*
X110131623Y-118549680D01*
X110036385Y-118549680D01*
X109893528Y-118502061D01*
X109798290Y-118406823D01*
X109750671Y-118311585D01*
X109703052Y-118121109D01*
X109703052Y-117978252D01*
X109750671Y-117787776D01*
X109798290Y-117692538D01*
X109893528Y-117597300D01*
X110036385Y-117549680D01*
X110131623Y-117549680D01*
X110274480Y-117597300D01*
X110322100Y-117644919D01*
X110941147Y-117549680D02*
X111036385Y-117549680D01*
X111131623Y-117597300D01*
X111179242Y-117644919D01*
X111226861Y-117740157D01*
X111274480Y-117930633D01*
X111274480Y-118168728D01*
X111226861Y-118359204D01*
X111179242Y-118454442D01*
X111131623Y-118502061D01*
X111036385Y-118549680D01*
X110941147Y-118549680D01*
X110845909Y-118502061D01*
X110798290Y-118454442D01*
X110750671Y-118359204D01*
X110703052Y-118168728D01*
X110703052Y-117930633D01*
X110750671Y-117740157D01*
X110798290Y-117644919D01*
X110845909Y-117597300D01*
X110941147Y-117549680D01*
X111703052Y-118168728D02*
X112464957Y-118168728D01*
X112941147Y-118168728D02*
X113703052Y-118168728D01*
X114179242Y-117883014D02*
X114941147Y-118168728D01*
X114179242Y-118454442D01*
X115988766Y-118454442D02*
X115941147Y-118502061D01*
X115798290Y-118549680D01*
X115703052Y-118549680D01*
X115560195Y-118502061D01*
X115464957Y-118406823D01*
X115417338Y-118311585D01*
X115369719Y-118121109D01*
X115369719Y-117978252D01*
X115417338Y-117787776D01*
X115464957Y-117692538D01*
X115560195Y-117597300D01*
X115703052Y-117549680D01*
X115798290Y-117549680D01*
X115941147Y-117597300D01*
X115988766Y-117644919D01*
X116322100Y-117549680D02*
X116988766Y-117549680D01*
X116560195Y-118549680D01*
G04 #@! TO.C,U20*
X138461904Y-85558380D02*
X138461904Y-86367904D01*
X138509523Y-86463142D01*
X138557142Y-86510761D01*
X138652380Y-86558380D01*
X138842857Y-86558380D01*
X138938095Y-86510761D01*
X138985714Y-86463142D01*
X139033333Y-86367904D01*
X139033333Y-85558380D01*
X139461904Y-85653619D02*
X139509523Y-85606000D01*
X139604761Y-85558380D01*
X139842857Y-85558380D01*
X139938095Y-85606000D01*
X139985714Y-85653619D01*
X140033333Y-85748857D01*
X140033333Y-85844095D01*
X139985714Y-85986952D01*
X139414285Y-86558380D01*
X140033333Y-86558380D01*
X140652380Y-85558380D02*
X140747619Y-85558380D01*
X140842857Y-85606000D01*
X140890476Y-85653619D01*
X140938095Y-85748857D01*
X140985714Y-85939333D01*
X140985714Y-86177428D01*
X140938095Y-86367904D01*
X140890476Y-86463142D01*
X140842857Y-86510761D01*
X140747619Y-86558380D01*
X140652380Y-86558380D01*
X140557142Y-86510761D01*
X140509523Y-86463142D01*
X140461904Y-86367904D01*
X140414285Y-86177428D01*
X140414285Y-85939333D01*
X140461904Y-85748857D01*
X140509523Y-85653619D01*
X140557142Y-85606000D01*
X140652380Y-85558380D01*
X110724365Y-61889709D02*
X110248175Y-62223042D01*
X110724365Y-62461137D02*
X109724365Y-62461137D01*
X109724365Y-62080185D01*
X109771985Y-61984947D01*
X109819604Y-61937328D01*
X109914842Y-61889709D01*
X110057699Y-61889709D01*
X110152937Y-61937328D01*
X110200556Y-61984947D01*
X110248175Y-62080185D01*
X110248175Y-62461137D01*
X109724365Y-61556375D02*
X109724365Y-60889709D01*
X110724365Y-61318280D01*
X110057699Y-59746851D02*
X110343413Y-60508756D01*
X110629127Y-59746851D01*
X110343413Y-59270661D02*
X110343413Y-58508756D01*
X110343413Y-58032566D02*
X110343413Y-57270661D01*
X110724365Y-56223042D02*
X110248175Y-56556375D01*
X110724365Y-56794470D02*
X109724365Y-56794470D01*
X109724365Y-56413518D01*
X109771985Y-56318280D01*
X109819604Y-56270661D01*
X109914842Y-56223042D01*
X110057699Y-56223042D01*
X110152937Y-56270661D01*
X110200556Y-56318280D01*
X110248175Y-56413518D01*
X110248175Y-56794470D01*
X109724365Y-55603994D02*
X109724365Y-55508756D01*
X109771985Y-55413518D01*
X109819604Y-55365899D01*
X109914842Y-55318280D01*
X110105318Y-55270661D01*
X110343413Y-55270661D01*
X110533889Y-55318280D01*
X110629127Y-55365899D01*
X110676746Y-55413518D01*
X110724365Y-55508756D01*
X110724365Y-55603994D01*
X110676746Y-55699232D01*
X110629127Y-55746851D01*
X110533889Y-55794470D01*
X110343413Y-55842089D01*
X110105318Y-55842089D01*
X109914842Y-55794470D01*
X109819604Y-55746851D01*
X109771985Y-55699232D01*
X109724365Y-55603994D01*
X110319985Y-86424851D02*
X110272365Y-86472470D01*
X110129508Y-86520089D01*
X110034270Y-86520089D01*
X109891413Y-86472470D01*
X109796175Y-86377232D01*
X109748556Y-86281994D01*
X109700937Y-86091518D01*
X109700937Y-85948661D01*
X109748556Y-85758185D01*
X109796175Y-85662947D01*
X109891413Y-85567709D01*
X110034270Y-85520089D01*
X110129508Y-85520089D01*
X110272365Y-85567709D01*
X110319985Y-85615328D01*
X110939032Y-85520089D02*
X111034270Y-85520089D01*
X111129508Y-85567709D01*
X111177127Y-85615328D01*
X111224746Y-85710566D01*
X111272365Y-85901042D01*
X111272365Y-86139137D01*
X111224746Y-86329613D01*
X111177127Y-86424851D01*
X111129508Y-86472470D01*
X111034270Y-86520089D01*
X110939032Y-86520089D01*
X110843794Y-86472470D01*
X110796175Y-86424851D01*
X110748556Y-86329613D01*
X110700937Y-86139137D01*
X110700937Y-85901042D01*
X110748556Y-85710566D01*
X110796175Y-85615328D01*
X110843794Y-85567709D01*
X110939032Y-85520089D01*
X111700937Y-86139137D02*
X112462842Y-86139137D01*
X112939032Y-86139137D02*
X113700937Y-86139137D01*
X114177127Y-85853423D02*
X114939032Y-86139137D01*
X114177127Y-86424851D01*
X115986651Y-86424851D02*
X115939032Y-86472470D01*
X115796175Y-86520089D01*
X115700937Y-86520089D01*
X115558080Y-86472470D01*
X115462842Y-86377232D01*
X115415223Y-86281994D01*
X115367604Y-86091518D01*
X115367604Y-85948661D01*
X115415223Y-85758185D01*
X115462842Y-85662947D01*
X115558080Y-85567709D01*
X115700937Y-85520089D01*
X115796175Y-85520089D01*
X115939032Y-85567709D01*
X115986651Y-85615328D01*
X116319985Y-85520089D02*
X116986651Y-85520089D01*
X116558080Y-86520089D01*
G04 #@! TO.C,U22*
X106457904Y-117562380D02*
X106457904Y-118371904D01*
X106505523Y-118467142D01*
X106553142Y-118514761D01*
X106648380Y-118562380D01*
X106838857Y-118562380D01*
X106934095Y-118514761D01*
X106981714Y-118467142D01*
X107029333Y-118371904D01*
X107029333Y-117562380D01*
X107457904Y-117657619D02*
X107505523Y-117610000D01*
X107600761Y-117562380D01*
X107838857Y-117562380D01*
X107934095Y-117610000D01*
X107981714Y-117657619D01*
X108029333Y-117752857D01*
X108029333Y-117848095D01*
X107981714Y-117990952D01*
X107410285Y-118562380D01*
X108029333Y-118562380D01*
X108410285Y-117657619D02*
X108457904Y-117610000D01*
X108553142Y-117562380D01*
X108791238Y-117562380D01*
X108886476Y-117610000D01*
X108934095Y-117657619D01*
X108981714Y-117752857D01*
X108981714Y-117848095D01*
X108934095Y-117990952D01*
X108362666Y-118562380D01*
X108981714Y-118562380D01*
X78694965Y-93919109D02*
X78218775Y-94252442D01*
X78694965Y-94490537D02*
X77694965Y-94490537D01*
X77694965Y-94109585D01*
X77742585Y-94014347D01*
X77790204Y-93966728D01*
X77885442Y-93919109D01*
X78028299Y-93919109D01*
X78123537Y-93966728D01*
X78171156Y-94014347D01*
X78218775Y-94109585D01*
X78218775Y-94490537D01*
X77694965Y-93585775D02*
X77694965Y-92919109D01*
X78694965Y-93347680D01*
X78028299Y-91776251D02*
X78314013Y-92538156D01*
X78599727Y-91776251D01*
X78314013Y-91300061D02*
X78314013Y-90538156D01*
X78314013Y-90061966D02*
X78314013Y-89300061D01*
X78694965Y-88252442D02*
X78218775Y-88585775D01*
X78694965Y-88823870D02*
X77694965Y-88823870D01*
X77694965Y-88442918D01*
X77742585Y-88347680D01*
X77790204Y-88300061D01*
X77885442Y-88252442D01*
X78028299Y-88252442D01*
X78123537Y-88300061D01*
X78171156Y-88347680D01*
X78218775Y-88442918D01*
X78218775Y-88823870D01*
X77694965Y-87633394D02*
X77694965Y-87538156D01*
X77742585Y-87442918D01*
X77790204Y-87395299D01*
X77885442Y-87347680D01*
X78075918Y-87300061D01*
X78314013Y-87300061D01*
X78504489Y-87347680D01*
X78599727Y-87395299D01*
X78647346Y-87442918D01*
X78694965Y-87538156D01*
X78694965Y-87633394D01*
X78647346Y-87728632D01*
X78599727Y-87776251D01*
X78504489Y-87823870D01*
X78314013Y-87871489D01*
X78075918Y-87871489D01*
X77885442Y-87823870D01*
X77790204Y-87776251D01*
X77742585Y-87728632D01*
X77694965Y-87633394D01*
X78290585Y-118454251D02*
X78242965Y-118501870D01*
X78100108Y-118549489D01*
X78004870Y-118549489D01*
X77862013Y-118501870D01*
X77766775Y-118406632D01*
X77719156Y-118311394D01*
X77671537Y-118120918D01*
X77671537Y-117978061D01*
X77719156Y-117787585D01*
X77766775Y-117692347D01*
X77862013Y-117597109D01*
X78004870Y-117549489D01*
X78100108Y-117549489D01*
X78242965Y-117597109D01*
X78290585Y-117644728D01*
X78909632Y-117549489D02*
X79004870Y-117549489D01*
X79100108Y-117597109D01*
X79147727Y-117644728D01*
X79195346Y-117739966D01*
X79242965Y-117930442D01*
X79242965Y-118168537D01*
X79195346Y-118359013D01*
X79147727Y-118454251D01*
X79100108Y-118501870D01*
X79004870Y-118549489D01*
X78909632Y-118549489D01*
X78814394Y-118501870D01*
X78766775Y-118454251D01*
X78719156Y-118359013D01*
X78671537Y-118168537D01*
X78671537Y-117930442D01*
X78719156Y-117739966D01*
X78766775Y-117644728D01*
X78814394Y-117597109D01*
X78909632Y-117549489D01*
X79671537Y-118168537D02*
X80433442Y-118168537D01*
X80909632Y-118168537D02*
X81671537Y-118168537D01*
X82147727Y-117882823D02*
X82909632Y-118168537D01*
X82147727Y-118454251D01*
X83957251Y-118454251D02*
X83909632Y-118501870D01*
X83766775Y-118549489D01*
X83671537Y-118549489D01*
X83528680Y-118501870D01*
X83433442Y-118406632D01*
X83385823Y-118311394D01*
X83338204Y-118120918D01*
X83338204Y-117978061D01*
X83385823Y-117787585D01*
X83433442Y-117692347D01*
X83528680Y-117597109D01*
X83671537Y-117549489D01*
X83766775Y-117549489D01*
X83909632Y-117597109D01*
X83957251Y-117644728D01*
X84290585Y-117549489D02*
X84957251Y-117549489D01*
X84528680Y-118549489D01*
G04 #@! TO.C,U8*
X70358095Y-118324380D02*
X70358095Y-119133904D01*
X70405714Y-119229142D01*
X70453333Y-119276761D01*
X70548571Y-119324380D01*
X70739047Y-119324380D01*
X70834285Y-119276761D01*
X70881904Y-119229142D01*
X70929523Y-119133904D01*
X70929523Y-118324380D01*
X71548571Y-118752952D02*
X71453333Y-118705333D01*
X71405714Y-118657714D01*
X71358095Y-118562476D01*
X71358095Y-118514857D01*
X71405714Y-118419619D01*
X71453333Y-118372000D01*
X71548571Y-118324380D01*
X71739047Y-118324380D01*
X71834285Y-118372000D01*
X71881904Y-118419619D01*
X71929523Y-118514857D01*
X71929523Y-118562476D01*
X71881904Y-118657714D01*
X71834285Y-118705333D01*
X71739047Y-118752952D01*
X71548571Y-118752952D01*
X71453333Y-118800571D01*
X71405714Y-118848190D01*
X71358095Y-118943428D01*
X71358095Y-119133904D01*
X71405714Y-119229142D01*
X71453333Y-119276761D01*
X71548571Y-119324380D01*
X71739047Y-119324380D01*
X71834285Y-119276761D01*
X71881904Y-119229142D01*
X71929523Y-119133904D01*
X71929523Y-118943428D01*
X71881904Y-118848190D01*
X71834285Y-118800571D01*
X71739047Y-118752952D01*
G04 #@! TO.C,U4*
X151384095Y-115784380D02*
X151384095Y-116593904D01*
X151431714Y-116689142D01*
X151479333Y-116736761D01*
X151574571Y-116784380D01*
X151765047Y-116784380D01*
X151860285Y-116736761D01*
X151907904Y-116689142D01*
X151955523Y-116593904D01*
X151955523Y-115784380D01*
X152860285Y-116117714D02*
X152860285Y-116784380D01*
X152622190Y-115736761D02*
X152384095Y-116451047D01*
X153003142Y-116451047D01*
G04 #@! TO.C,U1*
X137033095Y-53935380D02*
X137033095Y-54744904D01*
X137080714Y-54840142D01*
X137128333Y-54887761D01*
X137223571Y-54935380D01*
X137414047Y-54935380D01*
X137509285Y-54887761D01*
X137556904Y-54840142D01*
X137604523Y-54744904D01*
X137604523Y-53935380D01*
X138604523Y-54935380D02*
X138033095Y-54935380D01*
X138318809Y-54935380D02*
X138318809Y-53935380D01*
X138223571Y-54078238D01*
X138128333Y-54173476D01*
X138033095Y-54221095D01*
G04 #@! TO.C,U2*
X151384095Y-71334380D02*
X151384095Y-72143904D01*
X151431714Y-72239142D01*
X151479333Y-72286761D01*
X151574571Y-72334380D01*
X151765047Y-72334380D01*
X151860285Y-72286761D01*
X151907904Y-72239142D01*
X151955523Y-72143904D01*
X151955523Y-71334380D01*
X152384095Y-71429619D02*
X152431714Y-71382000D01*
X152526952Y-71334380D01*
X152765047Y-71334380D01*
X152860285Y-71382000D01*
X152907904Y-71429619D01*
X152955523Y-71524857D01*
X152955523Y-71620095D01*
X152907904Y-71762952D01*
X152336476Y-72334380D01*
X152955523Y-72334380D01*
G04 #@! TO.C,U3*
X151384095Y-93432380D02*
X151384095Y-94241904D01*
X151431714Y-94337142D01*
X151479333Y-94384761D01*
X151574571Y-94432380D01*
X151765047Y-94432380D01*
X151860285Y-94384761D01*
X151907904Y-94337142D01*
X151955523Y-94241904D01*
X151955523Y-93432380D01*
X152336476Y-93432380D02*
X152955523Y-93432380D01*
X152622190Y-93813333D01*
X152765047Y-93813333D01*
X152860285Y-93860952D01*
X152907904Y-93908571D01*
X152955523Y-94003809D01*
X152955523Y-94241904D01*
X152907904Y-94337142D01*
X152860285Y-94384761D01*
X152765047Y-94432380D01*
X152479333Y-94432380D01*
X152384095Y-94384761D01*
X152336476Y-94337142D01*
G04 #@! TO.C,U5*
X138684095Y-131532380D02*
X138684095Y-132341904D01*
X138731714Y-132437142D01*
X138779333Y-132484761D01*
X138874571Y-132532380D01*
X139065047Y-132532380D01*
X139160285Y-132484761D01*
X139207904Y-132437142D01*
X139255523Y-132341904D01*
X139255523Y-131532380D01*
X140207904Y-131532380D02*
X139731714Y-131532380D01*
X139684095Y-132008571D01*
X139731714Y-131960952D01*
X139826952Y-131913333D01*
X140065047Y-131913333D01*
X140160285Y-131960952D01*
X140207904Y-132008571D01*
X140255523Y-132103809D01*
X140255523Y-132341904D01*
X140207904Y-132437142D01*
X140160285Y-132484761D01*
X140065047Y-132532380D01*
X139826952Y-132532380D01*
X139731714Y-132484761D01*
X139684095Y-132437142D01*
G04 #@! TO.C,U6*
X113538095Y-131532380D02*
X113538095Y-132341904D01*
X113585714Y-132437142D01*
X113633333Y-132484761D01*
X113728571Y-132532380D01*
X113919047Y-132532380D01*
X114014285Y-132484761D01*
X114061904Y-132437142D01*
X114109523Y-132341904D01*
X114109523Y-131532380D01*
X115014285Y-131532380D02*
X114823809Y-131532380D01*
X114728571Y-131580000D01*
X114680952Y-131627619D01*
X114585714Y-131770476D01*
X114538095Y-131960952D01*
X114538095Y-132341904D01*
X114585714Y-132437142D01*
X114633333Y-132484761D01*
X114728571Y-132532380D01*
X114919047Y-132532380D01*
X115014285Y-132484761D01*
X115061904Y-132437142D01*
X115109523Y-132341904D01*
X115109523Y-132103809D01*
X115061904Y-132008571D01*
X115014285Y-131960952D01*
X114919047Y-131913333D01*
X114728571Y-131913333D01*
X114633333Y-131960952D01*
X114585714Y-132008571D01*
X114538095Y-132103809D01*
G04 #@! TO.C,U7*
X89281095Y-131278380D02*
X89281095Y-132087904D01*
X89328714Y-132183142D01*
X89376333Y-132230761D01*
X89471571Y-132278380D01*
X89662047Y-132278380D01*
X89757285Y-132230761D01*
X89804904Y-132183142D01*
X89852523Y-132087904D01*
X89852523Y-131278380D01*
X90233476Y-131278380D02*
X90900142Y-131278380D01*
X90471571Y-132278380D01*
G04 #@! TO.C,U9*
X70358095Y-93432380D02*
X70358095Y-94241904D01*
X70405714Y-94337142D01*
X70453333Y-94384761D01*
X70548571Y-94432380D01*
X70739047Y-94432380D01*
X70834285Y-94384761D01*
X70881904Y-94337142D01*
X70929523Y-94241904D01*
X70929523Y-93432380D01*
X71453333Y-94432380D02*
X71643809Y-94432380D01*
X71739047Y-94384761D01*
X71786666Y-94337142D01*
X71881904Y-94194285D01*
X71929523Y-94003809D01*
X71929523Y-93622857D01*
X71881904Y-93527619D01*
X71834285Y-93480000D01*
X71739047Y-93432380D01*
X71548571Y-93432380D01*
X71453333Y-93480000D01*
X71405714Y-93527619D01*
X71358095Y-93622857D01*
X71358095Y-93860952D01*
X71405714Y-93956190D01*
X71453333Y-94003809D01*
X71548571Y-94051428D01*
X71739047Y-94051428D01*
X71834285Y-94003809D01*
X71881904Y-93956190D01*
X71929523Y-93860952D01*
G04 #@! TO.C,U10*
X65436904Y-71410580D02*
X65436904Y-72220104D01*
X65484523Y-72315342D01*
X65532142Y-72362961D01*
X65627380Y-72410580D01*
X65817857Y-72410580D01*
X65913095Y-72362961D01*
X65960714Y-72315342D01*
X66008333Y-72220104D01*
X66008333Y-71410580D01*
X67008333Y-72410580D02*
X66436904Y-72410580D01*
X66722619Y-72410580D02*
X66722619Y-71410580D01*
X66627380Y-71553438D01*
X66532142Y-71648676D01*
X66436904Y-71696295D01*
X67627380Y-71410580D02*
X67722619Y-71410580D01*
X67817857Y-71458200D01*
X67865476Y-71505819D01*
X67913095Y-71601057D01*
X67960714Y-71791533D01*
X67960714Y-72029628D01*
X67913095Y-72220104D01*
X67865476Y-72315342D01*
X67817857Y-72362961D01*
X67722619Y-72410580D01*
X67627380Y-72410580D01*
X67532142Y-72362961D01*
X67484523Y-72315342D01*
X67436904Y-72220104D01*
X67389285Y-72029628D01*
X67389285Y-71791533D01*
X67436904Y-71601057D01*
X67484523Y-71505819D01*
X67532142Y-71458200D01*
X67627380Y-71410580D01*
G04 #@! TO.C,U11*
X82835904Y-53935380D02*
X82835904Y-54744904D01*
X82883523Y-54840142D01*
X82931142Y-54887761D01*
X83026380Y-54935380D01*
X83216857Y-54935380D01*
X83312095Y-54887761D01*
X83359714Y-54840142D01*
X83407333Y-54744904D01*
X83407333Y-53935380D01*
X84407333Y-54935380D02*
X83835904Y-54935380D01*
X84121619Y-54935380D02*
X84121619Y-53935380D01*
X84026380Y-54078238D01*
X83931142Y-54173476D01*
X83835904Y-54221095D01*
X85359714Y-54935380D02*
X84788285Y-54935380D01*
X85074000Y-54935380D02*
X85074000Y-53935380D01*
X84978761Y-54078238D01*
X84883523Y-54173476D01*
X84788285Y-54221095D01*
G04 #@! TO.C,U12*
X106711904Y-53935380D02*
X106711904Y-54744904D01*
X106759523Y-54840142D01*
X106807142Y-54887761D01*
X106902380Y-54935380D01*
X107092857Y-54935380D01*
X107188095Y-54887761D01*
X107235714Y-54840142D01*
X107283333Y-54744904D01*
X107283333Y-53935380D01*
X108283333Y-54935380D02*
X107711904Y-54935380D01*
X107997619Y-54935380D02*
X107997619Y-53935380D01*
X107902380Y-54078238D01*
X107807142Y-54173476D01*
X107711904Y-54221095D01*
X108664285Y-54030619D02*
X108711904Y-53983000D01*
X108807142Y-53935380D01*
X109045238Y-53935380D01*
X109140476Y-53983000D01*
X109188095Y-54030619D01*
X109235714Y-54125857D01*
X109235714Y-54221095D01*
X109188095Y-54363952D01*
X108616666Y-54935380D01*
X109235714Y-54935380D01*
G04 #@! TO.C,U13*
X73310904Y-71410580D02*
X73310904Y-72220104D01*
X73358523Y-72315342D01*
X73406142Y-72362961D01*
X73501380Y-72410580D01*
X73691857Y-72410580D01*
X73787095Y-72362961D01*
X73834714Y-72315342D01*
X73882333Y-72220104D01*
X73882333Y-71410580D01*
X74882333Y-72410580D02*
X74310904Y-72410580D01*
X74596619Y-72410580D02*
X74596619Y-71410580D01*
X74501380Y-71553438D01*
X74406142Y-71648676D01*
X74310904Y-71696295D01*
X75215666Y-71410580D02*
X75834714Y-71410580D01*
X75501380Y-71791533D01*
X75644238Y-71791533D01*
X75739476Y-71839152D01*
X75787095Y-71886771D01*
X75834714Y-71982009D01*
X75834714Y-72220104D01*
X75787095Y-72315342D01*
X75739476Y-72362961D01*
X75644238Y-72410580D01*
X75358523Y-72410580D01*
X75263285Y-72362961D01*
X75215666Y-72315342D01*
G04 #@! TO.C,U14*
X90709904Y-53935380D02*
X90709904Y-54744904D01*
X90757523Y-54840142D01*
X90805142Y-54887761D01*
X90900380Y-54935380D01*
X91090857Y-54935380D01*
X91186095Y-54887761D01*
X91233714Y-54840142D01*
X91281333Y-54744904D01*
X91281333Y-53935380D01*
X92281333Y-54935380D02*
X91709904Y-54935380D01*
X91995619Y-54935380D02*
X91995619Y-53935380D01*
X91900380Y-54078238D01*
X91805142Y-54173476D01*
X91709904Y-54221095D01*
X93138476Y-54268714D02*
X93138476Y-54935380D01*
X92900380Y-53887761D02*
X92662285Y-54602047D01*
X93281333Y-54602047D01*
G04 #@! TO.C,U15*
X114458904Y-53935380D02*
X114458904Y-54744904D01*
X114506523Y-54840142D01*
X114554142Y-54887761D01*
X114649380Y-54935380D01*
X114839857Y-54935380D01*
X114935095Y-54887761D01*
X114982714Y-54840142D01*
X115030333Y-54744904D01*
X115030333Y-53935380D01*
X116030333Y-54935380D02*
X115458904Y-54935380D01*
X115744619Y-54935380D02*
X115744619Y-53935380D01*
X115649380Y-54078238D01*
X115554142Y-54173476D01*
X115458904Y-54221095D01*
X116935095Y-53935380D02*
X116458904Y-53935380D01*
X116411285Y-54411571D01*
X116458904Y-54363952D01*
X116554142Y-54316333D01*
X116792238Y-54316333D01*
X116887476Y-54363952D01*
X116935095Y-54411571D01*
X116982714Y-54506809D01*
X116982714Y-54744904D01*
X116935095Y-54840142D01*
X116887476Y-54887761D01*
X116792238Y-54935380D01*
X116554142Y-54935380D01*
X116458904Y-54887761D01*
X116411285Y-54840142D01*
G04 #@! TO.C,J1*
X86077466Y-111059980D02*
X86077466Y-111774266D01*
X86029847Y-111917123D01*
X85934609Y-112012361D01*
X85791752Y-112059980D01*
X85696514Y-112059980D01*
X87077466Y-112059980D02*
X86506038Y-112059980D01*
X86791752Y-112059980D02*
X86791752Y-111059980D01*
X86696514Y-111202838D01*
X86601276Y-111298076D01*
X86506038Y-111345695D01*
G04 #@! TD*
M02*
