G04 #@! TF.GenerationSoftware,KiCad,Pcbnew,(5.0.0)*
G04 #@! TF.CreationDate,2018-10-04T20:20:06-05:00*
G04 #@! TF.ProjectId,Conventional_Display,436F6E76656E74696F6E616C5F446973,rev?*
G04 #@! TF.SameCoordinates,Original*
G04 #@! TF.FileFunction,Soldermask,Top*
G04 #@! TF.FilePolarity,Negative*
%FSLAX46Y46*%
G04 Gerber Fmt 4.6, Leading zero omitted, Abs format (unit mm)*
G04 Created by KiCad (PCBNEW (5.0.0)) date 10/04/18 20:20:06*
%MOMM*%
%LPD*%
G01*
G04 APERTURE LIST*
%ADD10C,1.700000*%
%ADD11C,3.346400*%
%ADD12C,2.100000*%
G04 APERTURE END LIST*
D10*
G04 #@! TO.C,U21*
X102235000Y-82943700D03*
X99695000Y-82943700D03*
X97155000Y-82943700D03*
X94615000Y-82943700D03*
X92075000Y-82943700D03*
X89535000Y-82943700D03*
X86995000Y-82943700D03*
X84455000Y-82943700D03*
X102235000Y-58940700D03*
X99695000Y-58940700D03*
X97155000Y-58940700D03*
X94615000Y-58940700D03*
X92075000Y-58940700D03*
X89535000Y-58940700D03*
X86995000Y-58940700D03*
X84455000Y-58940700D03*
G04 #@! TD*
D11*
G04 #@! TO.C,REF\002A\002A*
X149143720Y-128823720D03*
G04 #@! TD*
G04 #@! TO.C,REF\002A\002A*
X64470280Y-128823720D03*
G04 #@! TD*
G04 #@! TO.C,REF\002A\002A*
X64470280Y-45166280D03*
G04 #@! TD*
D10*
G04 #@! TO.C,U23*
X134266515Y-114973291D03*
X131726515Y-114973291D03*
X129186515Y-114973291D03*
X126646515Y-114973291D03*
X124106515Y-114973291D03*
X121566515Y-114973291D03*
X119026515Y-114973291D03*
X116486515Y-114973291D03*
X134266515Y-90970291D03*
X131726515Y-90970291D03*
X129186515Y-90970291D03*
X126646515Y-90970291D03*
X124106515Y-90970291D03*
X121566515Y-90970291D03*
X119026515Y-90970291D03*
X116486515Y-90970291D03*
G04 #@! TD*
G04 #@! TO.C,U8*
X65532000Y-106680000D03*
X65532000Y-109220000D03*
X65532000Y-111760000D03*
X65532000Y-114300000D03*
X65532000Y-116840000D03*
X70612000Y-106680000D03*
X70612000Y-109220000D03*
X70612000Y-111760000D03*
X70612000Y-114300000D03*
X70612000Y-116840000D03*
G04 #@! TD*
G04 #@! TO.C,U4*
X146812000Y-104140000D03*
X146812000Y-106680000D03*
X146812000Y-109220000D03*
X146812000Y-111760000D03*
X146812000Y-114300000D03*
X151892000Y-104140000D03*
X151892000Y-106680000D03*
X151892000Y-109220000D03*
X151892000Y-111760000D03*
X151892000Y-114300000D03*
G04 #@! TD*
G04 #@! TO.C,U20*
X134264400Y-82943700D03*
X131724400Y-82943700D03*
X129184400Y-82943700D03*
X126644400Y-82943700D03*
X124104400Y-82943700D03*
X121564400Y-82943700D03*
X119024400Y-82943700D03*
X116484400Y-82943700D03*
X134264400Y-58940700D03*
X131724400Y-58940700D03*
X129184400Y-58940700D03*
X126644400Y-58940700D03*
X124104400Y-58940700D03*
X121564400Y-58940700D03*
X119024400Y-58940700D03*
X116484400Y-58940700D03*
G04 #@! TD*
G04 #@! TO.C,U1*
X132080000Y-42418000D03*
X132080000Y-44958000D03*
X132080000Y-47498000D03*
X132080000Y-50038000D03*
X132080000Y-52578000D03*
X137160000Y-42418000D03*
X137160000Y-44958000D03*
X137160000Y-47498000D03*
X137160000Y-50038000D03*
X137160000Y-52578000D03*
G04 #@! TD*
G04 #@! TO.C,U2*
X146812000Y-59690000D03*
X146812000Y-62230000D03*
X146812000Y-64770000D03*
X146812000Y-67310000D03*
X146812000Y-69850000D03*
X151892000Y-59690000D03*
X151892000Y-62230000D03*
X151892000Y-64770000D03*
X151892000Y-67310000D03*
X151892000Y-69850000D03*
G04 #@! TD*
G04 #@! TO.C,U3*
X146812000Y-81788000D03*
X146812000Y-84328000D03*
X146812000Y-86868000D03*
X146812000Y-89408000D03*
X146812000Y-91948000D03*
X151892000Y-81788000D03*
X151892000Y-84328000D03*
X151892000Y-86868000D03*
X151892000Y-89408000D03*
X151892000Y-91948000D03*
G04 #@! TD*
G04 #@! TO.C,U5*
X132080000Y-121412000D03*
X132080000Y-123952000D03*
X132080000Y-126492000D03*
X132080000Y-129032000D03*
X132080000Y-131572000D03*
X137160000Y-121412000D03*
X137160000Y-123952000D03*
X137160000Y-126492000D03*
X137160000Y-129032000D03*
X137160000Y-131572000D03*
G04 #@! TD*
G04 #@! TO.C,U6*
X106870500Y-121412000D03*
X106870500Y-123952000D03*
X106870500Y-126492000D03*
X106870500Y-129032000D03*
X106870500Y-131572000D03*
X111950500Y-121412000D03*
X111950500Y-123952000D03*
X111950500Y-126492000D03*
X111950500Y-129032000D03*
X111950500Y-131572000D03*
G04 #@! TD*
G04 #@! TO.C,U7*
X82550000Y-121412000D03*
X82550000Y-123952000D03*
X82550000Y-126492000D03*
X82550000Y-129032000D03*
X82550000Y-131572000D03*
X87630000Y-121412000D03*
X87630000Y-123952000D03*
X87630000Y-126492000D03*
X87630000Y-129032000D03*
X87630000Y-131572000D03*
G04 #@! TD*
G04 #@! TO.C,U9*
X65532000Y-81788000D03*
X65532000Y-84328000D03*
X65532000Y-86868000D03*
X65532000Y-89408000D03*
X65532000Y-91948000D03*
X70612000Y-81788000D03*
X70612000Y-84328000D03*
X70612000Y-86868000D03*
X70612000Y-89408000D03*
X70612000Y-91948000D03*
G04 #@! TD*
G04 #@! TO.C,U10*
X61722000Y-59690000D03*
X61722000Y-62230000D03*
X61722000Y-64770000D03*
X61722000Y-67310000D03*
X61722000Y-69850000D03*
X66802000Y-59690000D03*
X66802000Y-62230000D03*
X66802000Y-64770000D03*
X66802000Y-67310000D03*
X66802000Y-69850000D03*
G04 #@! TD*
G04 #@! TO.C,U11*
X78740000Y-42418000D03*
X78740000Y-44958000D03*
X78740000Y-47498000D03*
X78740000Y-50038000D03*
X78740000Y-52578000D03*
X83820000Y-42418000D03*
X83820000Y-44958000D03*
X83820000Y-47498000D03*
X83820000Y-50038000D03*
X83820000Y-52578000D03*
G04 #@! TD*
G04 #@! TO.C,U12*
X102870000Y-42418000D03*
X102870000Y-44958000D03*
X102870000Y-47498000D03*
X102870000Y-50038000D03*
X102870000Y-52578000D03*
X107950000Y-42418000D03*
X107950000Y-44958000D03*
X107950000Y-47498000D03*
X107950000Y-50038000D03*
X107950000Y-52578000D03*
G04 #@! TD*
G04 #@! TO.C,U13*
X69596000Y-59690000D03*
X69596000Y-62230000D03*
X69596000Y-64770000D03*
X69596000Y-67310000D03*
X69596000Y-69850000D03*
X74676000Y-59690000D03*
X74676000Y-62230000D03*
X74676000Y-64770000D03*
X74676000Y-67310000D03*
X74676000Y-69850000D03*
G04 #@! TD*
G04 #@! TO.C,U14*
X86614000Y-42418000D03*
X86614000Y-44958000D03*
X86614000Y-47498000D03*
X86614000Y-50038000D03*
X86614000Y-52578000D03*
X91694000Y-42418000D03*
X91694000Y-44958000D03*
X91694000Y-47498000D03*
X91694000Y-50038000D03*
X91694000Y-52578000D03*
G04 #@! TD*
G04 #@! TO.C,U15*
X110744000Y-42418000D03*
X110744000Y-44958000D03*
X110744000Y-47498000D03*
X110744000Y-50038000D03*
X110744000Y-52578000D03*
X115824000Y-42418000D03*
X115824000Y-44958000D03*
X115824000Y-47498000D03*
X115824000Y-50038000D03*
X115824000Y-52578000D03*
G04 #@! TD*
G04 #@! TO.C,U22*
X102235000Y-114973100D03*
X99695000Y-114973100D03*
X97155000Y-114973100D03*
X94615000Y-114973100D03*
X92075000Y-114973100D03*
X89535000Y-114973100D03*
X86995000Y-114973100D03*
X84455000Y-114973100D03*
X102235000Y-90970100D03*
X99695000Y-90970100D03*
X97155000Y-90970100D03*
X94615000Y-90970100D03*
X92075000Y-90970100D03*
X89535000Y-90970100D03*
X86995000Y-90970100D03*
X84455000Y-90970100D03*
G04 #@! TD*
D11*
G04 #@! TO.C,REF\002A\002A*
X149143720Y-45166280D03*
G04 #@! TD*
D12*
G04 #@! TO.C,J1*
X109372400Y-61468000D03*
X111912400Y-61468000D03*
X106832400Y-61468000D03*
X109372400Y-112268000D03*
X111912400Y-112268000D03*
G04 #@! TD*
M02*
