G04 #@! TF.GenerationSoftware,KiCad,Pcbnew,(5.0.2)-1*
G04 #@! TF.CreationDate,2019-07-27T15:22:53-05:00*
G04 #@! TF.ProjectId,Conventional_Display,436f6e76-656e-4746-996f-6e616c5f4469,rev?*
G04 #@! TF.SameCoordinates,Original*
G04 #@! TF.FileFunction,Legend,Top*
G04 #@! TF.FilePolarity,Positive*
%FSLAX46Y46*%
G04 Gerber Fmt 4.6, Leading zero omitted, Abs format (unit mm)*
G04 Created by KiCad (PCBNEW (5.0.2)-1) date 7/27/2019 3:22:53 PM*
%MOMM*%
%LPD*%
G01*
G04 APERTURE LIST*
%ADD10C,0.150000*%
G04 APERTURE END LIST*
D10*
G04 #@! TO.C,U21*
X77470000Y-86817200D02*
X77470000Y-55067200D01*
X109220000Y-55067200D02*
X77470000Y-55067200D01*
X109220000Y-86817200D02*
X77470000Y-86817200D01*
X109220000Y-86817200D02*
X109220000Y-55067200D01*
G04 #@! TO.C,REF\002A\002A*
X153156920Y-128823720D02*
G75*
G03X153156920Y-128823720I-4013200J0D01*
G01*
X68483480Y-128823720D02*
G75*
G03X68483480Y-128823720I-4013200J0D01*
G01*
X68483480Y-45166280D02*
G75*
G03X68483480Y-45166280I-4013200J0D01*
G01*
G04 #@! TO.C,U23*
X109501515Y-118846791D02*
X109501515Y-87096791D01*
X141251515Y-87096791D02*
X109501515Y-87096791D01*
X141251515Y-118846791D02*
X109501515Y-118846791D01*
X141251515Y-118846791D02*
X141251515Y-87096791D01*
G04 #@! TO.C,U8*
X64262000Y-106045000D02*
X64262000Y-118110000D01*
X64897000Y-105410000D02*
X71882000Y-105410000D01*
X64262000Y-106045000D02*
X64897000Y-105410000D01*
X71882000Y-118110000D02*
X71882000Y-105410000D01*
X64262000Y-118110000D02*
X71882000Y-118110000D01*
G04 #@! TO.C,U4*
X145542000Y-103505000D02*
X145542000Y-115570000D01*
X146177000Y-102870000D02*
X153162000Y-102870000D01*
X145542000Y-103505000D02*
X146177000Y-102870000D01*
X153162000Y-115570000D02*
X153162000Y-102870000D01*
X145542000Y-115570000D02*
X153162000Y-115570000D01*
G04 #@! TO.C,U20*
X109499400Y-86817200D02*
X109499400Y-55067200D01*
X141249400Y-55067200D02*
X109499400Y-55067200D01*
X141249400Y-86817200D02*
X109499400Y-86817200D01*
X141249400Y-86817200D02*
X141249400Y-55067200D01*
G04 #@! TO.C,U1*
X130810000Y-41783000D02*
X130810000Y-53848000D01*
X131445000Y-41148000D02*
X138430000Y-41148000D01*
X130810000Y-41783000D02*
X131445000Y-41148000D01*
X138430000Y-53848000D02*
X138430000Y-41148000D01*
X130810000Y-53848000D02*
X138430000Y-53848000D01*
G04 #@! TO.C,U2*
X145542000Y-59055000D02*
X145542000Y-71120000D01*
X146177000Y-58420000D02*
X153162000Y-58420000D01*
X145542000Y-59055000D02*
X146177000Y-58420000D01*
X153162000Y-71120000D02*
X153162000Y-58420000D01*
X145542000Y-71120000D02*
X153162000Y-71120000D01*
G04 #@! TO.C,U3*
X145542000Y-81153000D02*
X145542000Y-93218000D01*
X146177000Y-80518000D02*
X153162000Y-80518000D01*
X145542000Y-81153000D02*
X146177000Y-80518000D01*
X153162000Y-93218000D02*
X153162000Y-80518000D01*
X145542000Y-93218000D02*
X153162000Y-93218000D01*
G04 #@! TO.C,U5*
X130810000Y-120777000D02*
X130810000Y-132842000D01*
X131445000Y-120142000D02*
X138430000Y-120142000D01*
X130810000Y-120777000D02*
X131445000Y-120142000D01*
X138430000Y-132842000D02*
X138430000Y-120142000D01*
X130810000Y-132842000D02*
X138430000Y-132842000D01*
G04 #@! TO.C,U6*
X105600500Y-120777000D02*
X105600500Y-132842000D01*
X106235500Y-120142000D02*
X113220500Y-120142000D01*
X105600500Y-120777000D02*
X106235500Y-120142000D01*
X113220500Y-132842000D02*
X113220500Y-120142000D01*
X105600500Y-132842000D02*
X113220500Y-132842000D01*
G04 #@! TO.C,U7*
X81280000Y-120777000D02*
X81280000Y-132842000D01*
X81915000Y-120142000D02*
X88900000Y-120142000D01*
X81280000Y-120777000D02*
X81915000Y-120142000D01*
X88900000Y-132842000D02*
X88900000Y-120142000D01*
X81280000Y-132842000D02*
X88900000Y-132842000D01*
G04 #@! TO.C,U9*
X64262000Y-81153000D02*
X64262000Y-93218000D01*
X64897000Y-80518000D02*
X71882000Y-80518000D01*
X64262000Y-81153000D02*
X64897000Y-80518000D01*
X71882000Y-93218000D02*
X71882000Y-80518000D01*
X64262000Y-93218000D02*
X71882000Y-93218000D01*
G04 #@! TO.C,U10*
X60452000Y-59055000D02*
X60452000Y-71120000D01*
X61087000Y-58420000D02*
X68072000Y-58420000D01*
X60452000Y-59055000D02*
X61087000Y-58420000D01*
X68072000Y-71120000D02*
X68072000Y-58420000D01*
X60452000Y-71120000D02*
X68072000Y-71120000D01*
G04 #@! TO.C,U11*
X77470000Y-41783000D02*
X77470000Y-53848000D01*
X78105000Y-41148000D02*
X85090000Y-41148000D01*
X77470000Y-41783000D02*
X78105000Y-41148000D01*
X85090000Y-53848000D02*
X85090000Y-41148000D01*
X77470000Y-53848000D02*
X85090000Y-53848000D01*
G04 #@! TO.C,U12*
X101600000Y-41783000D02*
X101600000Y-53848000D01*
X102235000Y-41148000D02*
X109220000Y-41148000D01*
X101600000Y-41783000D02*
X102235000Y-41148000D01*
X109220000Y-53848000D02*
X109220000Y-41148000D01*
X101600000Y-53848000D02*
X109220000Y-53848000D01*
G04 #@! TO.C,U13*
X68326000Y-59055000D02*
X68326000Y-71120000D01*
X68961000Y-58420000D02*
X75946000Y-58420000D01*
X68326000Y-59055000D02*
X68961000Y-58420000D01*
X75946000Y-71120000D02*
X75946000Y-58420000D01*
X68326000Y-71120000D02*
X75946000Y-71120000D01*
G04 #@! TO.C,U14*
X85344000Y-41783000D02*
X85344000Y-53848000D01*
X85979000Y-41148000D02*
X92964000Y-41148000D01*
X85344000Y-41783000D02*
X85979000Y-41148000D01*
X92964000Y-53848000D02*
X92964000Y-41148000D01*
X85344000Y-53848000D02*
X92964000Y-53848000D01*
G04 #@! TO.C,U15*
X109474000Y-41783000D02*
X109474000Y-53848000D01*
X110109000Y-41148000D02*
X117094000Y-41148000D01*
X109474000Y-41783000D02*
X110109000Y-41148000D01*
X117094000Y-53848000D02*
X117094000Y-41148000D01*
X109474000Y-53848000D02*
X117094000Y-53848000D01*
G04 #@! TO.C,U22*
X77470000Y-118846600D02*
X77470000Y-87096600D01*
X109220000Y-87096600D02*
X77470000Y-87096600D01*
X109220000Y-118846600D02*
X77470000Y-118846600D01*
X109220000Y-118846600D02*
X109220000Y-87096600D01*
G04 #@! TO.C,REF\002A\002A*
X153156920Y-45166280D02*
G75*
G03X153156920Y-45166280I-4013200J0D01*
G01*
G04 #@! TO.C,U21*
X106457904Y-85558380D02*
X106457904Y-86367904D01*
X106505523Y-86463142D01*
X106553142Y-86510761D01*
X106648380Y-86558380D01*
X106838857Y-86558380D01*
X106934095Y-86510761D01*
X106981714Y-86463142D01*
X107029333Y-86367904D01*
X107029333Y-85558380D01*
X107457904Y-85653619D02*
X107505523Y-85606000D01*
X107600761Y-85558380D01*
X107838857Y-85558380D01*
X107934095Y-85606000D01*
X107981714Y-85653619D01*
X108029333Y-85748857D01*
X108029333Y-85844095D01*
X107981714Y-85986952D01*
X107410285Y-86558380D01*
X108029333Y-86558380D01*
X108981714Y-86558380D02*
X108410285Y-86558380D01*
X108696000Y-86558380D02*
X108696000Y-85558380D01*
X108600761Y-85701238D01*
X108505523Y-85796476D01*
X108410285Y-85844095D01*
X78290585Y-86424851D02*
X78242965Y-86472470D01*
X78100108Y-86520089D01*
X78004870Y-86520089D01*
X77862013Y-86472470D01*
X77766775Y-86377232D01*
X77719156Y-86281994D01*
X77671537Y-86091518D01*
X77671537Y-85948661D01*
X77719156Y-85758185D01*
X77766775Y-85662947D01*
X77862013Y-85567709D01*
X78004870Y-85520089D01*
X78100108Y-85520089D01*
X78242965Y-85567709D01*
X78290585Y-85615328D01*
X78909632Y-85520089D02*
X79004870Y-85520089D01*
X79100108Y-85567709D01*
X79147727Y-85615328D01*
X79195346Y-85710566D01*
X79242965Y-85901042D01*
X79242965Y-86139137D01*
X79195346Y-86329613D01*
X79147727Y-86424851D01*
X79100108Y-86472470D01*
X79004870Y-86520089D01*
X78909632Y-86520089D01*
X78814394Y-86472470D01*
X78766775Y-86424851D01*
X78719156Y-86329613D01*
X78671537Y-86139137D01*
X78671537Y-85901042D01*
X78719156Y-85710566D01*
X78766775Y-85615328D01*
X78814394Y-85567709D01*
X78909632Y-85520089D01*
X79671537Y-86139137D02*
X80433442Y-86139137D01*
X80909632Y-86139137D02*
X81671537Y-86139137D01*
X82147727Y-85853423D02*
X82909632Y-86139137D01*
X82147727Y-86424851D01*
X83957251Y-86424851D02*
X83909632Y-86472470D01*
X83766775Y-86520089D01*
X83671537Y-86520089D01*
X83528680Y-86472470D01*
X83433442Y-86377232D01*
X83385823Y-86281994D01*
X83338204Y-86091518D01*
X83338204Y-85948661D01*
X83385823Y-85758185D01*
X83433442Y-85662947D01*
X83528680Y-85567709D01*
X83671537Y-85520089D01*
X83766775Y-85520089D01*
X83909632Y-85567709D01*
X83957251Y-85615328D01*
X84290585Y-85520089D02*
X84957251Y-85520089D01*
X84528680Y-86520089D01*
X78694965Y-61889709D02*
X78218775Y-62223042D01*
X78694965Y-62461137D02*
X77694965Y-62461137D01*
X77694965Y-62080185D01*
X77742585Y-61984947D01*
X77790204Y-61937328D01*
X77885442Y-61889709D01*
X78028299Y-61889709D01*
X78123537Y-61937328D01*
X78171156Y-61984947D01*
X78218775Y-62080185D01*
X78218775Y-62461137D01*
X77694965Y-61556375D02*
X77694965Y-60889709D01*
X78694965Y-61318280D01*
X78028299Y-59746851D02*
X78314013Y-60508756D01*
X78599727Y-59746851D01*
X78314013Y-59270661D02*
X78314013Y-58508756D01*
X78314013Y-58032566D02*
X78314013Y-57270661D01*
X78694965Y-56223042D02*
X78218775Y-56556375D01*
X78694965Y-56794470D02*
X77694965Y-56794470D01*
X77694965Y-56413518D01*
X77742585Y-56318280D01*
X77790204Y-56270661D01*
X77885442Y-56223042D01*
X78028299Y-56223042D01*
X78123537Y-56270661D01*
X78171156Y-56318280D01*
X78218775Y-56413518D01*
X78218775Y-56794470D01*
X77694965Y-55603994D02*
X77694965Y-55508756D01*
X77742585Y-55413518D01*
X77790204Y-55365899D01*
X77885442Y-55318280D01*
X78075918Y-55270661D01*
X78314013Y-55270661D01*
X78504489Y-55318280D01*
X78599727Y-55365899D01*
X78647346Y-55413518D01*
X78694965Y-55508756D01*
X78694965Y-55603994D01*
X78647346Y-55699232D01*
X78599727Y-55746851D01*
X78504489Y-55794470D01*
X78314013Y-55842089D01*
X78075918Y-55842089D01*
X77885442Y-55794470D01*
X77790204Y-55746851D01*
X77742585Y-55699232D01*
X77694965Y-55603994D01*
G04 #@! TO.C,U23*
X138461904Y-117562380D02*
X138461904Y-118371904D01*
X138509523Y-118467142D01*
X138557142Y-118514761D01*
X138652380Y-118562380D01*
X138842857Y-118562380D01*
X138938095Y-118514761D01*
X138985714Y-118467142D01*
X139033333Y-118371904D01*
X139033333Y-117562380D01*
X139461904Y-117657619D02*
X139509523Y-117610000D01*
X139604761Y-117562380D01*
X139842857Y-117562380D01*
X139938095Y-117610000D01*
X139985714Y-117657619D01*
X140033333Y-117752857D01*
X140033333Y-117848095D01*
X139985714Y-117990952D01*
X139414285Y-118562380D01*
X140033333Y-118562380D01*
X140366666Y-117562380D02*
X140985714Y-117562380D01*
X140652380Y-117943333D01*
X140795238Y-117943333D01*
X140890476Y-117990952D01*
X140938095Y-118038571D01*
X140985714Y-118133809D01*
X140985714Y-118371904D01*
X140938095Y-118467142D01*
X140890476Y-118514761D01*
X140795238Y-118562380D01*
X140509523Y-118562380D01*
X140414285Y-118514761D01*
X140366666Y-118467142D01*
X110322100Y-118454442D02*
X110274480Y-118502061D01*
X110131623Y-118549680D01*
X110036385Y-118549680D01*
X109893528Y-118502061D01*
X109798290Y-118406823D01*
X109750671Y-118311585D01*
X109703052Y-118121109D01*
X109703052Y-117978252D01*
X109750671Y-117787776D01*
X109798290Y-117692538D01*
X109893528Y-117597300D01*
X110036385Y-117549680D01*
X110131623Y-117549680D01*
X110274480Y-117597300D01*
X110322100Y-117644919D01*
X110941147Y-117549680D02*
X111036385Y-117549680D01*
X111131623Y-117597300D01*
X111179242Y-117644919D01*
X111226861Y-117740157D01*
X111274480Y-117930633D01*
X111274480Y-118168728D01*
X111226861Y-118359204D01*
X111179242Y-118454442D01*
X111131623Y-118502061D01*
X111036385Y-118549680D01*
X110941147Y-118549680D01*
X110845909Y-118502061D01*
X110798290Y-118454442D01*
X110750671Y-118359204D01*
X110703052Y-118168728D01*
X110703052Y-117930633D01*
X110750671Y-117740157D01*
X110798290Y-117644919D01*
X110845909Y-117597300D01*
X110941147Y-117549680D01*
X111703052Y-118168728D02*
X112464957Y-118168728D01*
X112941147Y-118168728D02*
X113703052Y-118168728D01*
X114179242Y-117883014D02*
X114941147Y-118168728D01*
X114179242Y-118454442D01*
X115988766Y-118454442D02*
X115941147Y-118502061D01*
X115798290Y-118549680D01*
X115703052Y-118549680D01*
X115560195Y-118502061D01*
X115464957Y-118406823D01*
X115417338Y-118311585D01*
X115369719Y-118121109D01*
X115369719Y-117978252D01*
X115417338Y-117787776D01*
X115464957Y-117692538D01*
X115560195Y-117597300D01*
X115703052Y-117549680D01*
X115798290Y-117549680D01*
X115941147Y-117597300D01*
X115988766Y-117644919D01*
X116322100Y-117549680D02*
X116988766Y-117549680D01*
X116560195Y-118549680D01*
X110726480Y-93919300D02*
X110250290Y-94252633D01*
X110726480Y-94490728D02*
X109726480Y-94490728D01*
X109726480Y-94109776D01*
X109774100Y-94014538D01*
X109821719Y-93966919D01*
X109916957Y-93919300D01*
X110059814Y-93919300D01*
X110155052Y-93966919D01*
X110202671Y-94014538D01*
X110250290Y-94109776D01*
X110250290Y-94490728D01*
X109726480Y-93585966D02*
X109726480Y-92919300D01*
X110726480Y-93347871D01*
X110059814Y-91776442D02*
X110345528Y-92538347D01*
X110631242Y-91776442D01*
X110345528Y-91300252D02*
X110345528Y-90538347D01*
X110345528Y-90062157D02*
X110345528Y-89300252D01*
X110726480Y-88252633D02*
X110250290Y-88585966D01*
X110726480Y-88824061D02*
X109726480Y-88824061D01*
X109726480Y-88443109D01*
X109774100Y-88347871D01*
X109821719Y-88300252D01*
X109916957Y-88252633D01*
X110059814Y-88252633D01*
X110155052Y-88300252D01*
X110202671Y-88347871D01*
X110250290Y-88443109D01*
X110250290Y-88824061D01*
X109726480Y-87633585D02*
X109726480Y-87538347D01*
X109774100Y-87443109D01*
X109821719Y-87395490D01*
X109916957Y-87347871D01*
X110107433Y-87300252D01*
X110345528Y-87300252D01*
X110536004Y-87347871D01*
X110631242Y-87395490D01*
X110678861Y-87443109D01*
X110726480Y-87538347D01*
X110726480Y-87633585D01*
X110678861Y-87728823D01*
X110631242Y-87776442D01*
X110536004Y-87824061D01*
X110345528Y-87871680D01*
X110107433Y-87871680D01*
X109916957Y-87824061D01*
X109821719Y-87776442D01*
X109774100Y-87728823D01*
X109726480Y-87633585D01*
G04 #@! TO.C,U8*
X70358095Y-118324380D02*
X70358095Y-119133904D01*
X70405714Y-119229142D01*
X70453333Y-119276761D01*
X70548571Y-119324380D01*
X70739047Y-119324380D01*
X70834285Y-119276761D01*
X70881904Y-119229142D01*
X70929523Y-119133904D01*
X70929523Y-118324380D01*
X71548571Y-118752952D02*
X71453333Y-118705333D01*
X71405714Y-118657714D01*
X71358095Y-118562476D01*
X71358095Y-118514857D01*
X71405714Y-118419619D01*
X71453333Y-118372000D01*
X71548571Y-118324380D01*
X71739047Y-118324380D01*
X71834285Y-118372000D01*
X71881904Y-118419619D01*
X71929523Y-118514857D01*
X71929523Y-118562476D01*
X71881904Y-118657714D01*
X71834285Y-118705333D01*
X71739047Y-118752952D01*
X71548571Y-118752952D01*
X71453333Y-118800571D01*
X71405714Y-118848190D01*
X71358095Y-118943428D01*
X71358095Y-119133904D01*
X71405714Y-119229142D01*
X71453333Y-119276761D01*
X71548571Y-119324380D01*
X71739047Y-119324380D01*
X71834285Y-119276761D01*
X71881904Y-119229142D01*
X71929523Y-119133904D01*
X71929523Y-118943428D01*
X71881904Y-118848190D01*
X71834285Y-118800571D01*
X71739047Y-118752952D01*
G04 #@! TO.C,U4*
X151384095Y-115784380D02*
X151384095Y-116593904D01*
X151431714Y-116689142D01*
X151479333Y-116736761D01*
X151574571Y-116784380D01*
X151765047Y-116784380D01*
X151860285Y-116736761D01*
X151907904Y-116689142D01*
X151955523Y-116593904D01*
X151955523Y-115784380D01*
X152860285Y-116117714D02*
X152860285Y-116784380D01*
X152622190Y-115736761D02*
X152384095Y-116451047D01*
X153003142Y-116451047D01*
G04 #@! TO.C,U20*
X138461904Y-85558380D02*
X138461904Y-86367904D01*
X138509523Y-86463142D01*
X138557142Y-86510761D01*
X138652380Y-86558380D01*
X138842857Y-86558380D01*
X138938095Y-86510761D01*
X138985714Y-86463142D01*
X139033333Y-86367904D01*
X139033333Y-85558380D01*
X139461904Y-85653619D02*
X139509523Y-85606000D01*
X139604761Y-85558380D01*
X139842857Y-85558380D01*
X139938095Y-85606000D01*
X139985714Y-85653619D01*
X140033333Y-85748857D01*
X140033333Y-85844095D01*
X139985714Y-85986952D01*
X139414285Y-86558380D01*
X140033333Y-86558380D01*
X140652380Y-85558380D02*
X140747619Y-85558380D01*
X140842857Y-85606000D01*
X140890476Y-85653619D01*
X140938095Y-85748857D01*
X140985714Y-85939333D01*
X140985714Y-86177428D01*
X140938095Y-86367904D01*
X140890476Y-86463142D01*
X140842857Y-86510761D01*
X140747619Y-86558380D01*
X140652380Y-86558380D01*
X140557142Y-86510761D01*
X140509523Y-86463142D01*
X140461904Y-86367904D01*
X140414285Y-86177428D01*
X140414285Y-85939333D01*
X140461904Y-85748857D01*
X140509523Y-85653619D01*
X140557142Y-85606000D01*
X140652380Y-85558380D01*
X110319985Y-86424851D02*
X110272365Y-86472470D01*
X110129508Y-86520089D01*
X110034270Y-86520089D01*
X109891413Y-86472470D01*
X109796175Y-86377232D01*
X109748556Y-86281994D01*
X109700937Y-86091518D01*
X109700937Y-85948661D01*
X109748556Y-85758185D01*
X109796175Y-85662947D01*
X109891413Y-85567709D01*
X110034270Y-85520089D01*
X110129508Y-85520089D01*
X110272365Y-85567709D01*
X110319985Y-85615328D01*
X110939032Y-85520089D02*
X111034270Y-85520089D01*
X111129508Y-85567709D01*
X111177127Y-85615328D01*
X111224746Y-85710566D01*
X111272365Y-85901042D01*
X111272365Y-86139137D01*
X111224746Y-86329613D01*
X111177127Y-86424851D01*
X111129508Y-86472470D01*
X111034270Y-86520089D01*
X110939032Y-86520089D01*
X110843794Y-86472470D01*
X110796175Y-86424851D01*
X110748556Y-86329613D01*
X110700937Y-86139137D01*
X110700937Y-85901042D01*
X110748556Y-85710566D01*
X110796175Y-85615328D01*
X110843794Y-85567709D01*
X110939032Y-85520089D01*
X111700937Y-86139137D02*
X112462842Y-86139137D01*
X112939032Y-86139137D02*
X113700937Y-86139137D01*
X114177127Y-85853423D02*
X114939032Y-86139137D01*
X114177127Y-86424851D01*
X115986651Y-86424851D02*
X115939032Y-86472470D01*
X115796175Y-86520089D01*
X115700937Y-86520089D01*
X115558080Y-86472470D01*
X115462842Y-86377232D01*
X115415223Y-86281994D01*
X115367604Y-86091518D01*
X115367604Y-85948661D01*
X115415223Y-85758185D01*
X115462842Y-85662947D01*
X115558080Y-85567709D01*
X115700937Y-85520089D01*
X115796175Y-85520089D01*
X115939032Y-85567709D01*
X115986651Y-85615328D01*
X116319985Y-85520089D02*
X116986651Y-85520089D01*
X116558080Y-86520089D01*
X110724365Y-61889709D02*
X110248175Y-62223042D01*
X110724365Y-62461137D02*
X109724365Y-62461137D01*
X109724365Y-62080185D01*
X109771985Y-61984947D01*
X109819604Y-61937328D01*
X109914842Y-61889709D01*
X110057699Y-61889709D01*
X110152937Y-61937328D01*
X110200556Y-61984947D01*
X110248175Y-62080185D01*
X110248175Y-62461137D01*
X109724365Y-61556375D02*
X109724365Y-60889709D01*
X110724365Y-61318280D01*
X110057699Y-59746851D02*
X110343413Y-60508756D01*
X110629127Y-59746851D01*
X110343413Y-59270661D02*
X110343413Y-58508756D01*
X110343413Y-58032566D02*
X110343413Y-57270661D01*
X110724365Y-56223042D02*
X110248175Y-56556375D01*
X110724365Y-56794470D02*
X109724365Y-56794470D01*
X109724365Y-56413518D01*
X109771985Y-56318280D01*
X109819604Y-56270661D01*
X109914842Y-56223042D01*
X110057699Y-56223042D01*
X110152937Y-56270661D01*
X110200556Y-56318280D01*
X110248175Y-56413518D01*
X110248175Y-56794470D01*
X109724365Y-55603994D02*
X109724365Y-55508756D01*
X109771985Y-55413518D01*
X109819604Y-55365899D01*
X109914842Y-55318280D01*
X110105318Y-55270661D01*
X110343413Y-55270661D01*
X110533889Y-55318280D01*
X110629127Y-55365899D01*
X110676746Y-55413518D01*
X110724365Y-55508756D01*
X110724365Y-55603994D01*
X110676746Y-55699232D01*
X110629127Y-55746851D01*
X110533889Y-55794470D01*
X110343413Y-55842089D01*
X110105318Y-55842089D01*
X109914842Y-55794470D01*
X109819604Y-55746851D01*
X109771985Y-55699232D01*
X109724365Y-55603994D01*
G04 #@! TO.C,U1*
X137033095Y-53935380D02*
X137033095Y-54744904D01*
X137080714Y-54840142D01*
X137128333Y-54887761D01*
X137223571Y-54935380D01*
X137414047Y-54935380D01*
X137509285Y-54887761D01*
X137556904Y-54840142D01*
X137604523Y-54744904D01*
X137604523Y-53935380D01*
X138604523Y-54935380D02*
X138033095Y-54935380D01*
X138318809Y-54935380D02*
X138318809Y-53935380D01*
X138223571Y-54078238D01*
X138128333Y-54173476D01*
X138033095Y-54221095D01*
G04 #@! TO.C,U2*
X151384095Y-71334380D02*
X151384095Y-72143904D01*
X151431714Y-72239142D01*
X151479333Y-72286761D01*
X151574571Y-72334380D01*
X151765047Y-72334380D01*
X151860285Y-72286761D01*
X151907904Y-72239142D01*
X151955523Y-72143904D01*
X151955523Y-71334380D01*
X152384095Y-71429619D02*
X152431714Y-71382000D01*
X152526952Y-71334380D01*
X152765047Y-71334380D01*
X152860285Y-71382000D01*
X152907904Y-71429619D01*
X152955523Y-71524857D01*
X152955523Y-71620095D01*
X152907904Y-71762952D01*
X152336476Y-72334380D01*
X152955523Y-72334380D01*
G04 #@! TO.C,U3*
X151384095Y-93432380D02*
X151384095Y-94241904D01*
X151431714Y-94337142D01*
X151479333Y-94384761D01*
X151574571Y-94432380D01*
X151765047Y-94432380D01*
X151860285Y-94384761D01*
X151907904Y-94337142D01*
X151955523Y-94241904D01*
X151955523Y-93432380D01*
X152336476Y-93432380D02*
X152955523Y-93432380D01*
X152622190Y-93813333D01*
X152765047Y-93813333D01*
X152860285Y-93860952D01*
X152907904Y-93908571D01*
X152955523Y-94003809D01*
X152955523Y-94241904D01*
X152907904Y-94337142D01*
X152860285Y-94384761D01*
X152765047Y-94432380D01*
X152479333Y-94432380D01*
X152384095Y-94384761D01*
X152336476Y-94337142D01*
G04 #@! TO.C,U5*
X138684095Y-131532380D02*
X138684095Y-132341904D01*
X138731714Y-132437142D01*
X138779333Y-132484761D01*
X138874571Y-132532380D01*
X139065047Y-132532380D01*
X139160285Y-132484761D01*
X139207904Y-132437142D01*
X139255523Y-132341904D01*
X139255523Y-131532380D01*
X140207904Y-131532380D02*
X139731714Y-131532380D01*
X139684095Y-132008571D01*
X139731714Y-131960952D01*
X139826952Y-131913333D01*
X140065047Y-131913333D01*
X140160285Y-131960952D01*
X140207904Y-132008571D01*
X140255523Y-132103809D01*
X140255523Y-132341904D01*
X140207904Y-132437142D01*
X140160285Y-132484761D01*
X140065047Y-132532380D01*
X139826952Y-132532380D01*
X139731714Y-132484761D01*
X139684095Y-132437142D01*
G04 #@! TO.C,U6*
X113538095Y-131532380D02*
X113538095Y-132341904D01*
X113585714Y-132437142D01*
X113633333Y-132484761D01*
X113728571Y-132532380D01*
X113919047Y-132532380D01*
X114014285Y-132484761D01*
X114061904Y-132437142D01*
X114109523Y-132341904D01*
X114109523Y-131532380D01*
X115014285Y-131532380D02*
X114823809Y-131532380D01*
X114728571Y-131580000D01*
X114680952Y-131627619D01*
X114585714Y-131770476D01*
X114538095Y-131960952D01*
X114538095Y-132341904D01*
X114585714Y-132437142D01*
X114633333Y-132484761D01*
X114728571Y-132532380D01*
X114919047Y-132532380D01*
X115014285Y-132484761D01*
X115061904Y-132437142D01*
X115109523Y-132341904D01*
X115109523Y-132103809D01*
X115061904Y-132008571D01*
X115014285Y-131960952D01*
X114919047Y-131913333D01*
X114728571Y-131913333D01*
X114633333Y-131960952D01*
X114585714Y-132008571D01*
X114538095Y-132103809D01*
G04 #@! TO.C,U7*
X89281095Y-131278380D02*
X89281095Y-132087904D01*
X89328714Y-132183142D01*
X89376333Y-132230761D01*
X89471571Y-132278380D01*
X89662047Y-132278380D01*
X89757285Y-132230761D01*
X89804904Y-132183142D01*
X89852523Y-132087904D01*
X89852523Y-131278380D01*
X90233476Y-131278380D02*
X90900142Y-131278380D01*
X90471571Y-132278380D01*
G04 #@! TO.C,U9*
X70358095Y-93432380D02*
X70358095Y-94241904D01*
X70405714Y-94337142D01*
X70453333Y-94384761D01*
X70548571Y-94432380D01*
X70739047Y-94432380D01*
X70834285Y-94384761D01*
X70881904Y-94337142D01*
X70929523Y-94241904D01*
X70929523Y-93432380D01*
X71453333Y-94432380D02*
X71643809Y-94432380D01*
X71739047Y-94384761D01*
X71786666Y-94337142D01*
X71881904Y-94194285D01*
X71929523Y-94003809D01*
X71929523Y-93622857D01*
X71881904Y-93527619D01*
X71834285Y-93480000D01*
X71739047Y-93432380D01*
X71548571Y-93432380D01*
X71453333Y-93480000D01*
X71405714Y-93527619D01*
X71358095Y-93622857D01*
X71358095Y-93860952D01*
X71405714Y-93956190D01*
X71453333Y-94003809D01*
X71548571Y-94051428D01*
X71739047Y-94051428D01*
X71834285Y-94003809D01*
X71881904Y-93956190D01*
X71929523Y-93860952D01*
G04 #@! TO.C,U10*
X65436904Y-71410580D02*
X65436904Y-72220104D01*
X65484523Y-72315342D01*
X65532142Y-72362961D01*
X65627380Y-72410580D01*
X65817857Y-72410580D01*
X65913095Y-72362961D01*
X65960714Y-72315342D01*
X66008333Y-72220104D01*
X66008333Y-71410580D01*
X67008333Y-72410580D02*
X66436904Y-72410580D01*
X66722619Y-72410580D02*
X66722619Y-71410580D01*
X66627380Y-71553438D01*
X66532142Y-71648676D01*
X66436904Y-71696295D01*
X67627380Y-71410580D02*
X67722619Y-71410580D01*
X67817857Y-71458200D01*
X67865476Y-71505819D01*
X67913095Y-71601057D01*
X67960714Y-71791533D01*
X67960714Y-72029628D01*
X67913095Y-72220104D01*
X67865476Y-72315342D01*
X67817857Y-72362961D01*
X67722619Y-72410580D01*
X67627380Y-72410580D01*
X67532142Y-72362961D01*
X67484523Y-72315342D01*
X67436904Y-72220104D01*
X67389285Y-72029628D01*
X67389285Y-71791533D01*
X67436904Y-71601057D01*
X67484523Y-71505819D01*
X67532142Y-71458200D01*
X67627380Y-71410580D01*
G04 #@! TO.C,U11*
X82835904Y-53935380D02*
X82835904Y-54744904D01*
X82883523Y-54840142D01*
X82931142Y-54887761D01*
X83026380Y-54935380D01*
X83216857Y-54935380D01*
X83312095Y-54887761D01*
X83359714Y-54840142D01*
X83407333Y-54744904D01*
X83407333Y-53935380D01*
X84407333Y-54935380D02*
X83835904Y-54935380D01*
X84121619Y-54935380D02*
X84121619Y-53935380D01*
X84026380Y-54078238D01*
X83931142Y-54173476D01*
X83835904Y-54221095D01*
X85359714Y-54935380D02*
X84788285Y-54935380D01*
X85074000Y-54935380D02*
X85074000Y-53935380D01*
X84978761Y-54078238D01*
X84883523Y-54173476D01*
X84788285Y-54221095D01*
G04 #@! TO.C,U12*
X106711904Y-53935380D02*
X106711904Y-54744904D01*
X106759523Y-54840142D01*
X106807142Y-54887761D01*
X106902380Y-54935380D01*
X107092857Y-54935380D01*
X107188095Y-54887761D01*
X107235714Y-54840142D01*
X107283333Y-54744904D01*
X107283333Y-53935380D01*
X108283333Y-54935380D02*
X107711904Y-54935380D01*
X107997619Y-54935380D02*
X107997619Y-53935380D01*
X107902380Y-54078238D01*
X107807142Y-54173476D01*
X107711904Y-54221095D01*
X108664285Y-54030619D02*
X108711904Y-53983000D01*
X108807142Y-53935380D01*
X109045238Y-53935380D01*
X109140476Y-53983000D01*
X109188095Y-54030619D01*
X109235714Y-54125857D01*
X109235714Y-54221095D01*
X109188095Y-54363952D01*
X108616666Y-54935380D01*
X109235714Y-54935380D01*
G04 #@! TO.C,U13*
X73310904Y-71410580D02*
X73310904Y-72220104D01*
X73358523Y-72315342D01*
X73406142Y-72362961D01*
X73501380Y-72410580D01*
X73691857Y-72410580D01*
X73787095Y-72362961D01*
X73834714Y-72315342D01*
X73882333Y-72220104D01*
X73882333Y-71410580D01*
X74882333Y-72410580D02*
X74310904Y-72410580D01*
X74596619Y-72410580D02*
X74596619Y-71410580D01*
X74501380Y-71553438D01*
X74406142Y-71648676D01*
X74310904Y-71696295D01*
X75215666Y-71410580D02*
X75834714Y-71410580D01*
X75501380Y-71791533D01*
X75644238Y-71791533D01*
X75739476Y-71839152D01*
X75787095Y-71886771D01*
X75834714Y-71982009D01*
X75834714Y-72220104D01*
X75787095Y-72315342D01*
X75739476Y-72362961D01*
X75644238Y-72410580D01*
X75358523Y-72410580D01*
X75263285Y-72362961D01*
X75215666Y-72315342D01*
G04 #@! TO.C,U14*
X90709904Y-53935380D02*
X90709904Y-54744904D01*
X90757523Y-54840142D01*
X90805142Y-54887761D01*
X90900380Y-54935380D01*
X91090857Y-54935380D01*
X91186095Y-54887761D01*
X91233714Y-54840142D01*
X91281333Y-54744904D01*
X91281333Y-53935380D01*
X92281333Y-54935380D02*
X91709904Y-54935380D01*
X91995619Y-54935380D02*
X91995619Y-53935380D01*
X91900380Y-54078238D01*
X91805142Y-54173476D01*
X91709904Y-54221095D01*
X93138476Y-54268714D02*
X93138476Y-54935380D01*
X92900380Y-53887761D02*
X92662285Y-54602047D01*
X93281333Y-54602047D01*
G04 #@! TO.C,U15*
X114458904Y-53935380D02*
X114458904Y-54744904D01*
X114506523Y-54840142D01*
X114554142Y-54887761D01*
X114649380Y-54935380D01*
X114839857Y-54935380D01*
X114935095Y-54887761D01*
X114982714Y-54840142D01*
X115030333Y-54744904D01*
X115030333Y-53935380D01*
X116030333Y-54935380D02*
X115458904Y-54935380D01*
X115744619Y-54935380D02*
X115744619Y-53935380D01*
X115649380Y-54078238D01*
X115554142Y-54173476D01*
X115458904Y-54221095D01*
X116935095Y-53935380D02*
X116458904Y-53935380D01*
X116411285Y-54411571D01*
X116458904Y-54363952D01*
X116554142Y-54316333D01*
X116792238Y-54316333D01*
X116887476Y-54363952D01*
X116935095Y-54411571D01*
X116982714Y-54506809D01*
X116982714Y-54744904D01*
X116935095Y-54840142D01*
X116887476Y-54887761D01*
X116792238Y-54935380D01*
X116554142Y-54935380D01*
X116458904Y-54887761D01*
X116411285Y-54840142D01*
G04 #@! TO.C,U22*
X106457904Y-117562380D02*
X106457904Y-118371904D01*
X106505523Y-118467142D01*
X106553142Y-118514761D01*
X106648380Y-118562380D01*
X106838857Y-118562380D01*
X106934095Y-118514761D01*
X106981714Y-118467142D01*
X107029333Y-118371904D01*
X107029333Y-117562380D01*
X107457904Y-117657619D02*
X107505523Y-117610000D01*
X107600761Y-117562380D01*
X107838857Y-117562380D01*
X107934095Y-117610000D01*
X107981714Y-117657619D01*
X108029333Y-117752857D01*
X108029333Y-117848095D01*
X107981714Y-117990952D01*
X107410285Y-118562380D01*
X108029333Y-118562380D01*
X108410285Y-117657619D02*
X108457904Y-117610000D01*
X108553142Y-117562380D01*
X108791238Y-117562380D01*
X108886476Y-117610000D01*
X108934095Y-117657619D01*
X108981714Y-117752857D01*
X108981714Y-117848095D01*
X108934095Y-117990952D01*
X108362666Y-118562380D01*
X108981714Y-118562380D01*
X78290585Y-118454251D02*
X78242965Y-118501870D01*
X78100108Y-118549489D01*
X78004870Y-118549489D01*
X77862013Y-118501870D01*
X77766775Y-118406632D01*
X77719156Y-118311394D01*
X77671537Y-118120918D01*
X77671537Y-117978061D01*
X77719156Y-117787585D01*
X77766775Y-117692347D01*
X77862013Y-117597109D01*
X78004870Y-117549489D01*
X78100108Y-117549489D01*
X78242965Y-117597109D01*
X78290585Y-117644728D01*
X78909632Y-117549489D02*
X79004870Y-117549489D01*
X79100108Y-117597109D01*
X79147727Y-117644728D01*
X79195346Y-117739966D01*
X79242965Y-117930442D01*
X79242965Y-118168537D01*
X79195346Y-118359013D01*
X79147727Y-118454251D01*
X79100108Y-118501870D01*
X79004870Y-118549489D01*
X78909632Y-118549489D01*
X78814394Y-118501870D01*
X78766775Y-118454251D01*
X78719156Y-118359013D01*
X78671537Y-118168537D01*
X78671537Y-117930442D01*
X78719156Y-117739966D01*
X78766775Y-117644728D01*
X78814394Y-117597109D01*
X78909632Y-117549489D01*
X79671537Y-118168537D02*
X80433442Y-118168537D01*
X80909632Y-118168537D02*
X81671537Y-118168537D01*
X82147727Y-117882823D02*
X82909632Y-118168537D01*
X82147727Y-118454251D01*
X83957251Y-118454251D02*
X83909632Y-118501870D01*
X83766775Y-118549489D01*
X83671537Y-118549489D01*
X83528680Y-118501870D01*
X83433442Y-118406632D01*
X83385823Y-118311394D01*
X83338204Y-118120918D01*
X83338204Y-117978061D01*
X83385823Y-117787585D01*
X83433442Y-117692347D01*
X83528680Y-117597109D01*
X83671537Y-117549489D01*
X83766775Y-117549489D01*
X83909632Y-117597109D01*
X83957251Y-117644728D01*
X84290585Y-117549489D02*
X84957251Y-117549489D01*
X84528680Y-118549489D01*
X78694965Y-93919109D02*
X78218775Y-94252442D01*
X78694965Y-94490537D02*
X77694965Y-94490537D01*
X77694965Y-94109585D01*
X77742585Y-94014347D01*
X77790204Y-93966728D01*
X77885442Y-93919109D01*
X78028299Y-93919109D01*
X78123537Y-93966728D01*
X78171156Y-94014347D01*
X78218775Y-94109585D01*
X78218775Y-94490537D01*
X77694965Y-93585775D02*
X77694965Y-92919109D01*
X78694965Y-93347680D01*
X78028299Y-91776251D02*
X78314013Y-92538156D01*
X78599727Y-91776251D01*
X78314013Y-91300061D02*
X78314013Y-90538156D01*
X78314013Y-90061966D02*
X78314013Y-89300061D01*
X78694965Y-88252442D02*
X78218775Y-88585775D01*
X78694965Y-88823870D02*
X77694965Y-88823870D01*
X77694965Y-88442918D01*
X77742585Y-88347680D01*
X77790204Y-88300061D01*
X77885442Y-88252442D01*
X78028299Y-88252442D01*
X78123537Y-88300061D01*
X78171156Y-88347680D01*
X78218775Y-88442918D01*
X78218775Y-88823870D01*
X77694965Y-87633394D02*
X77694965Y-87538156D01*
X77742585Y-87442918D01*
X77790204Y-87395299D01*
X77885442Y-87347680D01*
X78075918Y-87300061D01*
X78314013Y-87300061D01*
X78504489Y-87347680D01*
X78599727Y-87395299D01*
X78647346Y-87442918D01*
X78694965Y-87538156D01*
X78694965Y-87633394D01*
X78647346Y-87728632D01*
X78599727Y-87776251D01*
X78504489Y-87823870D01*
X78314013Y-87871489D01*
X78075918Y-87871489D01*
X77885442Y-87823870D01*
X77790204Y-87776251D01*
X77742585Y-87728632D01*
X77694965Y-87633394D01*
G04 #@! TO.C,J1*
X86077466Y-111059980D02*
X86077466Y-111774266D01*
X86029847Y-111917123D01*
X85934609Y-112012361D01*
X85791752Y-112059980D01*
X85696514Y-112059980D01*
X87077466Y-112059980D02*
X86506038Y-112059980D01*
X86791752Y-112059980D02*
X86791752Y-111059980D01*
X86696514Y-111202838D01*
X86601276Y-111298076D01*
X86506038Y-111345695D01*
G04 #@! TD*
M02*
