G04 #@! TF.GenerationSoftware,KiCad,Pcbnew,(5.0.2)-1*
G04 #@! TF.CreationDate,2020-05-31T20:05:05-05:00*
G04 #@! TF.ProjectId,Binary_Display,42696e61-7279-45f4-9469-73706c61792e,rev?*
G04 #@! TF.SameCoordinates,Original*
G04 #@! TF.FileFunction,Copper,L1,Top*
G04 #@! TF.FilePolarity,Positive*
%FSLAX46Y46*%
G04 Gerber Fmt 4.6, Leading zero omitted, Abs format (unit mm)*
G04 Created by KiCad (PCBNEW (5.0.2)-1) date 5/31/2020 8:05:05 PM*
%MOMM*%
%LPD*%
G01*
G04 APERTURE LIST*
G04 #@! TA.AperFunction,SMDPad,CuDef*
%ADD10R,0.600000X2.000000*%
G04 #@! TD*
G04 #@! TA.AperFunction,ComponentPad*
%ADD11R,1.800000X1.800000*%
G04 #@! TD*
G04 #@! TA.AperFunction,ComponentPad*
%ADD12C,1.800000*%
G04 #@! TD*
G04 #@! TA.AperFunction,SMDPad,CuDef*
%ADD13R,0.750000X1.200000*%
G04 #@! TD*
G04 #@! TA.AperFunction,SMDPad,CuDef*
%ADD14R,0.900000X1.200000*%
G04 #@! TD*
G04 #@! TA.AperFunction,ComponentPad*
%ADD15C,1.700000*%
G04 #@! TD*
G04 #@! TA.AperFunction,ViaPad*
%ADD16C,0.600000*%
G04 #@! TD*
G04 #@! TA.AperFunction,Conductor*
%ADD17C,0.508000*%
G04 #@! TD*
G04 #@! TA.AperFunction,Conductor*
%ADD18C,0.406400*%
G04 #@! TD*
G04 #@! TA.AperFunction,Conductor*
%ADD19C,0.254000*%
G04 #@! TD*
G04 APERTURE END LIST*
D10*
G04 #@! TO.P,U1,1*
G04 #@! TO.N,/Din*
X176276000Y-131064000D03*
G04 #@! TO.P,U1,2*
G04 #@! TO.N,Year*
X175006000Y-131064000D03*
G04 #@! TO.P,U1,3*
G04 #@! TO.N,WkDay*
X173736000Y-131064000D03*
G04 #@! TO.P,U1,4*
G04 #@! TO.N,/GND*
X172466000Y-131064000D03*
G04 #@! TO.P,U1,5*
G04 #@! TO.N,Min*
X171196000Y-131064000D03*
G04 #@! TO.P,U1,6*
G04 #@! TO.N,Day*
X169926000Y-131064000D03*
G04 #@! TO.P,U1,7*
G04 #@! TO.N,Week*
X168656000Y-131064000D03*
G04 #@! TO.P,U1,8*
G04 #@! TO.N,Sec*
X167386000Y-131064000D03*
G04 #@! TO.P,U1,9*
G04 #@! TO.N,/GND*
X166116000Y-131064000D03*
G04 #@! TO.P,U1,10*
G04 #@! TO.N,Hour*
X164846000Y-131064000D03*
G04 #@! TO.P,U1,11*
G04 #@! TO.N,Month*
X163576000Y-131064000D03*
G04 #@! TO.P,U1,12*
G04 #@! TO.N,/Load*
X162306000Y-131064000D03*
G04 #@! TO.P,U1,13*
G04 #@! TO.N,/Clk*
X162306000Y-140464000D03*
G04 #@! TO.P,U1,14*
G04 #@! TO.N,Bit_0*
X163576000Y-140464000D03*
G04 #@! TO.P,U1,15*
G04 #@! TO.N,Bit_5*
X164846000Y-140464000D03*
G04 #@! TO.P,U1,16*
G04 #@! TO.N,Bit_1*
X166116000Y-140464000D03*
G04 #@! TO.P,U1,17*
G04 #@! TO.N,Bit_6*
X167386000Y-140464000D03*
G04 #@! TO.P,U1,18*
G04 #@! TO.N,Net-(R1-Pad2)*
X168656000Y-140464000D03*
G04 #@! TO.P,U1,19*
G04 #@! TO.N,/+5V*
X169926000Y-140464000D03*
G04 #@! TO.P,U1,20*
G04 #@! TO.N,Bit_2*
X171196000Y-140464000D03*
G04 #@! TO.P,U1,21*
G04 #@! TO.N,Bit_4*
X172466000Y-140464000D03*
G04 #@! TO.P,U1,22*
G04 #@! TO.N,N/C*
X173736000Y-140464000D03*
G04 #@! TO.P,U1,23*
G04 #@! TO.N,Bit_3*
X175006000Y-140464000D03*
G04 #@! TO.P,U1,24*
G04 #@! TO.N,N/C*
X176276000Y-140464000D03*
G04 #@! TD*
D11*
G04 #@! TO.P,D31,1*
G04 #@! TO.N,Min*
X177342800Y-95580200D03*
D12*
G04 #@! TO.P,D31,2*
G04 #@! TO.N,Bit_5*
X177342800Y-93040200D03*
G04 #@! TD*
D13*
G04 #@! TO.P,C1,1*
G04 #@! TO.N,/+5V*
X179070000Y-140716000D03*
G04 #@! TO.P,C1,2*
G04 #@! TO.N,/GND*
X179070000Y-138816000D03*
G04 #@! TD*
D11*
G04 #@! TO.P,D1,1*
G04 #@! TO.N,Year*
X159562800Y-86436200D03*
D12*
G04 #@! TO.P,D1,2*
G04 #@! TO.N,Bit_0*
X159562800Y-83896200D03*
G04 #@! TD*
D11*
G04 #@! TO.P,D2,1*
G04 #@! TO.N,Year*
X152958800Y-86436200D03*
D12*
G04 #@! TO.P,D2,2*
G04 #@! TO.N,Bit_1*
X152958800Y-83896200D03*
G04 #@! TD*
D11*
G04 #@! TO.P,D3,1*
G04 #@! TO.N,Year*
X146354800Y-86436200D03*
D12*
G04 #@! TO.P,D3,2*
G04 #@! TO.N,Bit_2*
X146354800Y-83896200D03*
G04 #@! TD*
D11*
G04 #@! TO.P,D4,1*
G04 #@! TO.N,Year*
X139750800Y-86436200D03*
D12*
G04 #@! TO.P,D4,2*
G04 #@! TO.N,Bit_3*
X139750800Y-83896200D03*
G04 #@! TD*
D11*
G04 #@! TO.P,D5,1*
G04 #@! TO.N,Year*
X133146800Y-86436200D03*
D12*
G04 #@! TO.P,D5,2*
G04 #@! TO.N,Bit_4*
X133146800Y-83896200D03*
G04 #@! TD*
D11*
G04 #@! TO.P,D6,1*
G04 #@! TO.N,Year*
X126542800Y-86436200D03*
D12*
G04 #@! TO.P,D6,2*
G04 #@! TO.N,Bit_5*
X126542800Y-83896200D03*
G04 #@! TD*
D11*
G04 #@! TO.P,D7,1*
G04 #@! TO.N,Year*
X119938800Y-86436200D03*
D12*
G04 #@! TO.P,D7,2*
G04 #@! TO.N,Bit_6*
X119938800Y-83896200D03*
G04 #@! TD*
D11*
G04 #@! TO.P,D8,1*
G04 #@! TO.N,Week*
X159562800Y-122504200D03*
D12*
G04 #@! TO.P,D8,2*
G04 #@! TO.N,Bit_0*
X159562800Y-119964200D03*
G04 #@! TD*
D11*
G04 #@! TO.P,D9,1*
G04 #@! TO.N,Week*
X152958800Y-122504200D03*
D12*
G04 #@! TO.P,D9,2*
G04 #@! TO.N,Bit_1*
X152958800Y-119964200D03*
G04 #@! TD*
D11*
G04 #@! TO.P,D10,1*
G04 #@! TO.N,Week*
X146354800Y-122504200D03*
D12*
G04 #@! TO.P,D10,2*
G04 #@! TO.N,Bit_2*
X146354800Y-119964200D03*
G04 #@! TD*
D11*
G04 #@! TO.P,D11,1*
G04 #@! TO.N,Week*
X139750800Y-122504200D03*
D12*
G04 #@! TO.P,D11,2*
G04 #@! TO.N,Bit_3*
X139750800Y-119964200D03*
G04 #@! TD*
D11*
G04 #@! TO.P,D12,1*
G04 #@! TO.N,Week*
X133146800Y-122504200D03*
D12*
G04 #@! TO.P,D12,2*
G04 #@! TO.N,Bit_4*
X133146800Y-119964200D03*
G04 #@! TD*
D11*
G04 #@! TO.P,D13,1*
G04 #@! TO.N,Week*
X126542800Y-122504200D03*
D12*
G04 #@! TO.P,D13,2*
G04 #@! TO.N,Bit_5*
X126542800Y-119964200D03*
G04 #@! TD*
D11*
G04 #@! TO.P,D14,1*
G04 #@! TO.N,Hour*
X210362800Y-86436200D03*
D12*
G04 #@! TO.P,D14,2*
G04 #@! TO.N,Bit_0*
X210362800Y-83896200D03*
G04 #@! TD*
D11*
G04 #@! TO.P,D15,1*
G04 #@! TO.N,Hour*
X203758800Y-86436200D03*
D12*
G04 #@! TO.P,D15,2*
G04 #@! TO.N,Bit_1*
X203758800Y-83896200D03*
G04 #@! TD*
D11*
G04 #@! TO.P,D16,1*
G04 #@! TO.N,Hour*
X197154800Y-86436200D03*
D12*
G04 #@! TO.P,D16,2*
G04 #@! TO.N,Bit_2*
X197154800Y-83896200D03*
G04 #@! TD*
D11*
G04 #@! TO.P,D17,1*
G04 #@! TO.N,Hour*
X190550800Y-86436200D03*
D12*
G04 #@! TO.P,D17,2*
G04 #@! TO.N,Bit_3*
X190550800Y-83896200D03*
G04 #@! TD*
D11*
G04 #@! TO.P,D18,1*
G04 #@! TO.N,Hour*
X183946800Y-86436200D03*
D12*
G04 #@! TO.P,D18,2*
G04 #@! TO.N,Bit_4*
X183946800Y-83896200D03*
G04 #@! TD*
D11*
G04 #@! TO.P,D19,1*
G04 #@! TO.N,Month*
X159562800Y-95580200D03*
D12*
G04 #@! TO.P,D19,2*
G04 #@! TO.N,Bit_0*
X159562800Y-93040200D03*
G04 #@! TD*
D11*
G04 #@! TO.P,D20,1*
G04 #@! TO.N,Month*
X152958800Y-95580200D03*
D12*
G04 #@! TO.P,D20,2*
G04 #@! TO.N,Bit_1*
X152958800Y-93040200D03*
G04 #@! TD*
D11*
G04 #@! TO.P,D21,1*
G04 #@! TO.N,Month*
X146354800Y-95580200D03*
D12*
G04 #@! TO.P,D21,2*
G04 #@! TO.N,Bit_2*
X146354800Y-93040200D03*
G04 #@! TD*
D11*
G04 #@! TO.P,D22,1*
G04 #@! TO.N,Month*
X139750800Y-95580200D03*
D12*
G04 #@! TO.P,D22,2*
G04 #@! TO.N,Bit_3*
X139750800Y-93040200D03*
G04 #@! TD*
D11*
G04 #@! TO.P,D23,1*
G04 #@! TO.N,WkDay*
X210362800Y-122504200D03*
D12*
G04 #@! TO.P,D23,2*
G04 #@! TO.N,Bit_0*
X210362800Y-119964200D03*
G04 #@! TD*
D11*
G04 #@! TO.P,D24,1*
G04 #@! TO.N,WkDay*
X203758800Y-122504200D03*
D12*
G04 #@! TO.P,D24,2*
G04 #@! TO.N,Bit_1*
X203758800Y-119964200D03*
G04 #@! TD*
D11*
G04 #@! TO.P,D25,1*
G04 #@! TO.N,WkDay*
X197154800Y-122504200D03*
D12*
G04 #@! TO.P,D25,2*
G04 #@! TO.N,Bit_2*
X197154800Y-119964200D03*
G04 #@! TD*
D11*
G04 #@! TO.P,D26,1*
G04 #@! TO.N,Min*
X210362800Y-95580200D03*
D12*
G04 #@! TO.P,D26,2*
G04 #@! TO.N,Bit_0*
X210362800Y-93040200D03*
G04 #@! TD*
D11*
G04 #@! TO.P,D27,1*
G04 #@! TO.N,Min*
X203758800Y-95580200D03*
D12*
G04 #@! TO.P,D27,2*
G04 #@! TO.N,Bit_1*
X203758800Y-93040200D03*
G04 #@! TD*
D11*
G04 #@! TO.P,D28,1*
G04 #@! TO.N,Min*
X197154800Y-95580200D03*
D12*
G04 #@! TO.P,D28,2*
G04 #@! TO.N,Bit_2*
X197154800Y-93040200D03*
G04 #@! TD*
D11*
G04 #@! TO.P,D29,1*
G04 #@! TO.N,Min*
X190550800Y-95580200D03*
D12*
G04 #@! TO.P,D29,2*
G04 #@! TO.N,Bit_3*
X190550800Y-93040200D03*
G04 #@! TD*
D11*
G04 #@! TO.P,D30,1*
G04 #@! TO.N,Min*
X183946800Y-95580200D03*
D12*
G04 #@! TO.P,D30,2*
G04 #@! TO.N,Bit_4*
X183946800Y-93040200D03*
G04 #@! TD*
D11*
G04 #@! TO.P,D32,1*
G04 #@! TO.N,Day*
X159562800Y-104724200D03*
D12*
G04 #@! TO.P,D32,2*
G04 #@! TO.N,Bit_0*
X159562800Y-102184200D03*
G04 #@! TD*
D11*
G04 #@! TO.P,D33,1*
G04 #@! TO.N,Day*
X152958800Y-104724200D03*
D12*
G04 #@! TO.P,D33,2*
G04 #@! TO.N,Bit_1*
X152958800Y-102184200D03*
G04 #@! TD*
D11*
G04 #@! TO.P,D34,1*
G04 #@! TO.N,Day*
X146354800Y-104724200D03*
D12*
G04 #@! TO.P,D34,2*
G04 #@! TO.N,Bit_2*
X146354800Y-102184200D03*
G04 #@! TD*
D11*
G04 #@! TO.P,D35,1*
G04 #@! TO.N,Day*
X139750800Y-104724200D03*
D12*
G04 #@! TO.P,D35,2*
G04 #@! TO.N,Bit_3*
X139750800Y-102184200D03*
G04 #@! TD*
D11*
G04 #@! TO.P,D36,1*
G04 #@! TO.N,Day*
X133146800Y-104724200D03*
D12*
G04 #@! TO.P,D36,2*
G04 #@! TO.N,Bit_4*
X133146800Y-102184200D03*
G04 #@! TD*
D11*
G04 #@! TO.P,D37,1*
G04 #@! TO.N,Sec*
X210362800Y-104724200D03*
D12*
G04 #@! TO.P,D37,2*
G04 #@! TO.N,Bit_0*
X210362800Y-102184200D03*
G04 #@! TD*
D11*
G04 #@! TO.P,D38,1*
G04 #@! TO.N,Sec*
X203758800Y-104724200D03*
D12*
G04 #@! TO.P,D38,2*
G04 #@! TO.N,Bit_1*
X203758800Y-102184200D03*
G04 #@! TD*
D11*
G04 #@! TO.P,D39,1*
G04 #@! TO.N,Sec*
X197154800Y-104724200D03*
D12*
G04 #@! TO.P,D39,2*
G04 #@! TO.N,Bit_2*
X197154800Y-102184200D03*
G04 #@! TD*
D11*
G04 #@! TO.P,D40,1*
G04 #@! TO.N,Sec*
X190550800Y-104724200D03*
D12*
G04 #@! TO.P,D40,2*
G04 #@! TO.N,Bit_3*
X190550800Y-102184200D03*
G04 #@! TD*
D11*
G04 #@! TO.P,D41,1*
G04 #@! TO.N,Sec*
X183946800Y-104724200D03*
D12*
G04 #@! TO.P,D41,2*
G04 #@! TO.N,Bit_4*
X183946800Y-102184200D03*
G04 #@! TD*
D11*
G04 #@! TO.P,D42,1*
G04 #@! TO.N,Sec*
X177342800Y-104724200D03*
D12*
G04 #@! TO.P,D42,2*
G04 #@! TO.N,Bit_5*
X177342800Y-102184200D03*
G04 #@! TD*
D14*
G04 #@! TO.P,R1,1*
G04 #@! TO.N,/+5V*
X181356000Y-140716000D03*
G04 #@! TO.P,R1,2*
G04 #@! TO.N,Net-(R1-Pad2)*
X181356000Y-138516000D03*
G04 #@! TD*
D15*
G04 #@! TO.P,J1,CS*
G04 #@! TO.N,/Load*
X139750800Y-110744000D03*
G04 #@! TO.P,J1,CLK*
G04 #@! TO.N,/Clk*
X139750800Y-108204000D03*
G04 #@! TO.P,J1,DIN*
G04 #@! TO.N,/Din*
X139750800Y-113284000D03*
G04 #@! TO.P,J1,GND*
G04 #@! TO.N,/GND*
X190550800Y-110744000D03*
G04 #@! TO.P,J1,VCC*
G04 #@! TO.N,/+5V*
X190550800Y-108204000D03*
G04 #@! TD*
D16*
G04 #@! TO.N,/GND*
X179019200Y-137109200D03*
X166116000Y-129032000D03*
X172466000Y-129286000D03*
G04 #@! TO.N,/Din*
X176276000Y-128524000D03*
X163830000Y-113284000D03*
G04 #@! TO.N,/Load*
X156464000Y-131064000D03*
X156464000Y-110744000D03*
G04 #@! TO.N,/Clk*
X157480000Y-140462000D03*
X157480000Y-108204000D03*
G04 #@! TO.N,Year*
X167640000Y-125222000D03*
X175006000Y-125222000D03*
G04 #@! TO.N,Bit_0*
X161290000Y-138684000D03*
X212090000Y-81280000D03*
X161290000Y-81280000D03*
G04 #@! TO.N,Bit_1*
X154686000Y-136652000D03*
X205486000Y-80518000D03*
X154686000Y-80518000D03*
G04 #@! TO.N,Bit_2*
X148082000Y-134620000D03*
X148082000Y-79756000D03*
X198882000Y-79756000D03*
G04 #@! TO.N,Bit_3*
X141478000Y-132588000D03*
X141478000Y-79019400D03*
X192278000Y-79019400D03*
G04 #@! TO.N,Bit_4*
X134874000Y-133604000D03*
X134874000Y-78257400D03*
X185674000Y-78257400D03*
G04 #@! TO.N,Bit_5*
X128270000Y-137668000D03*
X128270000Y-77470000D03*
X179070000Y-77470000D03*
G04 #@! TO.N,Bit_6*
X121666000Y-135636000D03*
G04 #@! TO.N,Week*
X163068000Y-126746000D03*
X168656000Y-126746000D03*
G04 #@! TO.N,Day*
X164592000Y-125984000D03*
X169926000Y-125984000D03*
G04 #@! TO.N,Sec*
X172212000Y-127609600D03*
X167386000Y-128524000D03*
G04 #@! TD*
D17*
G04 #@! TO.N,/+5V*
X180086000Y-140716000D02*
X181356000Y-140716000D01*
X179070000Y-140716000D02*
X180086000Y-140716000D01*
X180086000Y-140716000D02*
X180086000Y-137160000D01*
X170434000Y-142494000D02*
X169926000Y-141986000D01*
X169926000Y-141986000D02*
X169926000Y-140464000D01*
X178562000Y-142494000D02*
X170434000Y-142494000D01*
X179070000Y-141986000D02*
X178562000Y-142494000D01*
X179070000Y-140716000D02*
X179070000Y-141986000D01*
D18*
G04 #@! TO.N,/GND*
X179070000Y-138816000D02*
X179070000Y-137160000D01*
X179070000Y-137160000D02*
X179019200Y-137109200D01*
D17*
X166116000Y-131064000D02*
X166116000Y-129032000D01*
X172466000Y-131064000D02*
X172466000Y-129286000D01*
D18*
G04 #@! TO.N,/Din*
X176276000Y-128524000D02*
X176276000Y-131064000D01*
X140952881Y-113284000D02*
X163830000Y-113284000D01*
X139750800Y-113284000D02*
X140952881Y-113284000D01*
G04 #@! TO.N,/Load*
X156464000Y-131064000D02*
X162306000Y-131064000D01*
X140952881Y-110744000D02*
X156464000Y-110744000D01*
X139750800Y-110744000D02*
X140952881Y-110744000D01*
G04 #@! TO.N,/Clk*
X157480000Y-140462000D02*
X159969200Y-140462000D01*
X159969200Y-140462000D02*
X159971200Y-140464000D01*
X147726400Y-108204000D02*
X157480000Y-108204000D01*
X162306000Y-140464000D02*
X159971200Y-140464000D01*
X139750800Y-108204000D02*
X147726400Y-108204000D01*
G04 #@! TO.N,Year*
X167640000Y-125222000D02*
X167640000Y-86868000D01*
X167640000Y-86868000D02*
X167208200Y-86436200D01*
X160869200Y-86436200D02*
X159562800Y-86436200D01*
X167208200Y-86436200D02*
X160869200Y-86436200D01*
X175006000Y-131064000D02*
X175006000Y-125222000D01*
X126542800Y-86436200D02*
X125236400Y-86436200D01*
X125236400Y-86436200D02*
X119938800Y-86436200D01*
X133146800Y-86436200D02*
X126542800Y-86436200D01*
X139750800Y-86436200D02*
X133146800Y-86436200D01*
X146354800Y-86436200D02*
X145048400Y-86436200D01*
X145048400Y-86436200D02*
X139750800Y-86436200D01*
X152958800Y-86436200D02*
X146354800Y-86436200D01*
X159562800Y-86436200D02*
X152958800Y-86436200D01*
G04 #@! TO.N,Bit_0*
X163068000Y-138684000D02*
X161290000Y-138684000D01*
X163576000Y-139192000D02*
X163068000Y-138684000D01*
X163576000Y-140464000D02*
X163576000Y-139192000D01*
X207746600Y-81280000D02*
X212090000Y-81280000D01*
X161714264Y-81280000D02*
X207746600Y-81280000D01*
X161290000Y-81280000D02*
X161714264Y-81280000D01*
G04 #@! TO.N,Bit_1*
X160274000Y-136652000D02*
X159004000Y-136652000D01*
X159004000Y-136652000D02*
X158750000Y-136652000D01*
X154686000Y-136652000D02*
X159004000Y-136652000D01*
X165608000Y-136652000D02*
X160274000Y-136652000D01*
X166116000Y-137160000D02*
X165608000Y-136652000D01*
X166116000Y-140464000D02*
X166116000Y-137160000D01*
X154686000Y-80518000D02*
X205486000Y-80518000D01*
G04 #@! TO.N,Bit_2*
X158750000Y-134620000D02*
X148082000Y-134620000D01*
X170688000Y-134620000D02*
X158750000Y-134620000D01*
X171196000Y-135128000D02*
X170688000Y-134620000D01*
X171196000Y-139057600D02*
X171196000Y-135128000D01*
X171196000Y-140464000D02*
X171196000Y-139057600D01*
X198882000Y-79756000D02*
X148082000Y-79756000D01*
G04 #@! TO.N,Bit_3*
X158750000Y-132588000D02*
X141478000Y-132588000D01*
X172720000Y-132588000D02*
X158750000Y-132588000D01*
X174498000Y-132588000D02*
X172720000Y-132588000D01*
X175006000Y-133096000D02*
X174498000Y-132588000D01*
X175006000Y-135794408D02*
X175006000Y-133096000D01*
X175006000Y-139057600D02*
X175006000Y-135794408D01*
X175006000Y-140464000D02*
X175006000Y-139057600D01*
X192278000Y-79019400D02*
X141478000Y-79019400D01*
G04 #@! TO.N,Bit_4*
X134874000Y-133604000D02*
X171958000Y-133604000D01*
X171958000Y-133604000D02*
X172466000Y-134112000D01*
X172466000Y-134112000D02*
X172466000Y-140464000D01*
X185674000Y-78257400D02*
X134874000Y-78257400D01*
G04 #@! TO.N,Bit_5*
X158750000Y-137668000D02*
X128270000Y-137668000D01*
X164338000Y-137668000D02*
X158750000Y-137668000D01*
X164846000Y-138176000D02*
X164338000Y-137668000D01*
X164846000Y-138684000D02*
X164846000Y-138176000D01*
X164846000Y-139057600D02*
X164846000Y-138684000D01*
X164846000Y-140464000D02*
X164846000Y-139057600D01*
X134620662Y-77470000D02*
X128270000Y-77470000D01*
X178645736Y-77470000D02*
X134620662Y-77470000D01*
X179070000Y-77470000D02*
X178645736Y-77470000D01*
G04 #@! TO.N,Bit_6*
X121666000Y-135636000D02*
X166878000Y-135636000D01*
X166878000Y-135636000D02*
X167386000Y-136144000D01*
X167386000Y-136144000D02*
X167386000Y-139057600D01*
X167386000Y-139057600D02*
X167386000Y-140464000D01*
G04 #@! TO.N,Week*
X163068000Y-126746000D02*
X163068000Y-123088400D01*
X163068000Y-123088400D02*
X162483800Y-122504200D01*
X162483800Y-122504200D02*
X160869200Y-122504200D01*
X160869200Y-122504200D02*
X159562800Y-122504200D01*
X168656000Y-131064000D02*
X168656000Y-126746000D01*
X152958800Y-122504200D02*
X159562800Y-122504200D01*
X146354800Y-122504200D02*
X152958800Y-122504200D01*
X139750800Y-122504200D02*
X146354800Y-122504200D01*
X133146800Y-122504200D02*
X139750800Y-122504200D01*
X126542800Y-122504200D02*
X133146800Y-122504200D01*
G04 #@! TO.N,Hour*
X164846000Y-131064000D02*
X164846000Y-128524000D01*
X164846000Y-128524000D02*
X165255590Y-128114410D01*
X165255590Y-128114410D02*
X166017590Y-128114410D01*
X166017590Y-128114410D02*
X169164000Y-124968000D01*
X169164000Y-124968000D02*
X169164000Y-86868000D01*
X169164000Y-86868000D02*
X169595800Y-86436200D01*
X169595800Y-86436200D02*
X182640400Y-86436200D01*
X182640400Y-86436200D02*
X183946800Y-86436200D01*
X190550800Y-86436200D02*
X183946800Y-86436200D01*
X197154800Y-86436200D02*
X195848400Y-86436200D01*
X195848400Y-86436200D02*
X190550800Y-86436200D01*
X203758800Y-86436200D02*
X197154800Y-86436200D01*
X210362800Y-86436200D02*
X203758800Y-86436200D01*
G04 #@! TO.N,Month*
X165608000Y-127508000D02*
X164084000Y-127508000D01*
X163576000Y-128016000D02*
X163576000Y-131064000D01*
X164084000Y-127508000D02*
X163576000Y-128016000D01*
X165608000Y-127508000D02*
X166116000Y-127000000D01*
X166116000Y-96062800D02*
X166116000Y-127000000D01*
X159562800Y-95580200D02*
X165633400Y-95580200D01*
X165633400Y-95580200D02*
X166116000Y-96062800D01*
X152958800Y-95580200D02*
X154265200Y-95580200D01*
X154265200Y-95580200D02*
X159562800Y-95580200D01*
X146354800Y-95580200D02*
X152958800Y-95580200D01*
X146354800Y-95580200D02*
X145048400Y-95580200D01*
X145048400Y-95580200D02*
X139750800Y-95580200D01*
G04 #@! TO.N,WkDay*
X173736000Y-124460000D02*
X173736000Y-131064000D01*
X173736000Y-122732800D02*
X173736000Y-124460000D01*
X173964600Y-122504200D02*
X173736000Y-122732800D01*
X197154800Y-122504200D02*
X173964600Y-122504200D01*
X203758800Y-122504200D02*
X210362800Y-122504200D01*
X197154800Y-122504200D02*
X198461200Y-122504200D01*
X198461200Y-122504200D02*
X203758800Y-122504200D01*
G04 #@! TO.N,Min*
X171196000Y-131064000D02*
X171196000Y-124968000D01*
X171196000Y-124968000D02*
X170688000Y-124460000D01*
X170688000Y-124460000D02*
X170688000Y-96189800D01*
X170688000Y-96189800D02*
X171297600Y-95580200D01*
X171297600Y-95580200D02*
X177342800Y-95580200D01*
X210362800Y-95580200D02*
X209056400Y-95580200D01*
X209056400Y-95580200D02*
X203758800Y-95580200D01*
X203758800Y-95580200D02*
X197154800Y-95580200D01*
X190550800Y-95580200D02*
X191857200Y-95580200D01*
X191857200Y-95580200D02*
X197154800Y-95580200D01*
X183946800Y-95580200D02*
X185253200Y-95580200D01*
X185253200Y-95580200D02*
X190550800Y-95580200D01*
X177342800Y-95580200D02*
X183946800Y-95580200D01*
G04 #@! TO.N,Day*
X164592000Y-125984000D02*
X164592000Y-105105200D01*
X164592000Y-105105200D02*
X164211000Y-104724200D01*
X164211000Y-104724200D02*
X160869200Y-104724200D01*
X160869200Y-104724200D02*
X159562800Y-104724200D01*
X169926000Y-131064000D02*
X169926000Y-125984000D01*
X159562800Y-104724200D02*
X152958800Y-104724200D01*
X152958800Y-104724200D02*
X146354800Y-104724200D01*
X146354800Y-104724200D02*
X145048400Y-104724200D01*
X145048400Y-104724200D02*
X139750800Y-104724200D01*
X133146800Y-104724200D02*
X134453200Y-104724200D01*
X134453200Y-104724200D02*
X139750800Y-104724200D01*
G04 #@! TO.N,Sec*
X172212000Y-124460000D02*
X172212000Y-127609600D01*
X172212000Y-105105200D02*
X172212000Y-124206000D01*
X172212000Y-124206000D02*
X172212000Y-124460000D01*
X167386000Y-131064000D02*
X167386000Y-128524000D01*
X172593000Y-104724200D02*
X172212000Y-105105200D01*
X176036400Y-104724200D02*
X172593000Y-104724200D01*
X177342800Y-104724200D02*
X176036400Y-104724200D01*
X183946800Y-104724200D02*
X182640400Y-104724200D01*
X182640400Y-104724200D02*
X177342800Y-104724200D01*
X190550800Y-104724200D02*
X189244400Y-104724200D01*
X189244400Y-104724200D02*
X183946800Y-104724200D01*
X197154800Y-104724200D02*
X195848400Y-104724200D01*
X195848400Y-104724200D02*
X190550800Y-104724200D01*
X203758800Y-104724200D02*
X202452400Y-104724200D01*
X202452400Y-104724200D02*
X197154800Y-104724200D01*
X210362800Y-104724200D02*
X203758800Y-104724200D01*
D17*
G04 #@! TO.N,Net-(R1-Pad2)*
X182626000Y-142748000D02*
X182626000Y-138828000D01*
X169926000Y-143510000D02*
X181864000Y-143510000D01*
X182626000Y-142748000D02*
X181864000Y-143510000D01*
X168656000Y-140464000D02*
X168656000Y-142240000D01*
X168656000Y-142240000D02*
X169926000Y-143510000D01*
X182626000Y-138828000D02*
X182314000Y-138516000D01*
X182314000Y-138516000D02*
X181356000Y-138516000D01*
G04 #@! TD*
D19*
G04 #@! TO.N,/+5V*
G36*
X210264263Y-74695046D02*
X210900631Y-74894471D01*
X211483895Y-75217779D01*
X211990239Y-75651768D01*
X212398973Y-76178705D01*
X212693407Y-76777073D01*
X212863712Y-77430887D01*
X212904001Y-77954483D01*
X212904001Y-80801899D01*
X212882655Y-80750365D01*
X212619635Y-80487345D01*
X212275983Y-80345000D01*
X211904017Y-80345000D01*
X211670321Y-80441800D01*
X206421000Y-80441800D01*
X206421000Y-80332017D01*
X206278655Y-79988365D01*
X206015635Y-79725345D01*
X205671983Y-79583000D01*
X205300017Y-79583000D01*
X205066321Y-79679800D01*
X199817000Y-79679800D01*
X199817000Y-79570017D01*
X199674655Y-79226365D01*
X199411635Y-78963345D01*
X199067983Y-78821000D01*
X198696017Y-78821000D01*
X198462321Y-78917800D01*
X193213000Y-78917800D01*
X193213000Y-78833417D01*
X193070655Y-78489765D01*
X192807635Y-78226745D01*
X192463983Y-78084400D01*
X192092017Y-78084400D01*
X191858321Y-78181200D01*
X186609000Y-78181200D01*
X186609000Y-78071417D01*
X186466655Y-77727765D01*
X186251823Y-77512933D01*
X207487520Y-77512933D01*
X207487520Y-78351627D01*
X207808474Y-79126479D01*
X208401521Y-79719526D01*
X209176373Y-80040480D01*
X210015067Y-80040480D01*
X210789919Y-79719526D01*
X211382966Y-79126479D01*
X211703920Y-78351627D01*
X211703920Y-77512933D01*
X211382966Y-76738081D01*
X210789919Y-76145034D01*
X210015067Y-75824080D01*
X209176373Y-75824080D01*
X208401521Y-76145034D01*
X207808474Y-76738081D01*
X207487520Y-77512933D01*
X186251823Y-77512933D01*
X186203635Y-77464745D01*
X185859983Y-77322400D01*
X185488017Y-77322400D01*
X185254321Y-77419200D01*
X180005000Y-77419200D01*
X180005000Y-77284017D01*
X179862655Y-76940365D01*
X179599635Y-76677345D01*
X179255983Y-76535000D01*
X178884017Y-76535000D01*
X178650321Y-76631800D01*
X128689679Y-76631800D01*
X128455983Y-76535000D01*
X128084017Y-76535000D01*
X127740365Y-76677345D01*
X127477345Y-76940365D01*
X127335000Y-77284017D01*
X127335000Y-77655983D01*
X127477345Y-77999635D01*
X127740365Y-78262655D01*
X128084017Y-78405000D01*
X128455983Y-78405000D01*
X128689679Y-78308200D01*
X133939000Y-78308200D01*
X133939000Y-78443383D01*
X134081345Y-78787035D01*
X134344365Y-79050055D01*
X134688017Y-79192400D01*
X135059983Y-79192400D01*
X135293679Y-79095600D01*
X140543000Y-79095600D01*
X140543000Y-79205383D01*
X140685345Y-79549035D01*
X140948365Y-79812055D01*
X141292017Y-79954400D01*
X141663983Y-79954400D01*
X141897679Y-79857600D01*
X147147000Y-79857600D01*
X147147000Y-79941983D01*
X147289345Y-80285635D01*
X147552365Y-80548655D01*
X147896017Y-80691000D01*
X148267983Y-80691000D01*
X148501679Y-80594200D01*
X153751000Y-80594200D01*
X153751000Y-80703983D01*
X153893345Y-81047635D01*
X154156365Y-81310655D01*
X154500017Y-81453000D01*
X154871983Y-81453000D01*
X155105679Y-81356200D01*
X160355000Y-81356200D01*
X160355000Y-81465983D01*
X160497345Y-81809635D01*
X160760365Y-82072655D01*
X161104017Y-82215000D01*
X161475983Y-82215000D01*
X161709679Y-82118200D01*
X211670321Y-82118200D01*
X211904017Y-82215000D01*
X212275983Y-82215000D01*
X212619635Y-82072655D01*
X212882655Y-81809635D01*
X212904001Y-81758101D01*
X212904000Y-140222836D01*
X212832954Y-140922264D01*
X212633529Y-141558631D01*
X212310220Y-142141897D01*
X211876230Y-142648241D01*
X211349292Y-143056976D01*
X210750929Y-143351405D01*
X210097114Y-143521712D01*
X209573530Y-143562000D01*
X183069236Y-143562000D01*
X183192707Y-143438529D01*
X183266933Y-143388933D01*
X183463419Y-143094870D01*
X183515000Y-142835556D01*
X183515000Y-142835555D01*
X183532416Y-142748000D01*
X183515000Y-142660445D01*
X183515000Y-139834373D01*
X207487520Y-139834373D01*
X207487520Y-140673067D01*
X207808474Y-141447919D01*
X208401521Y-142040966D01*
X209176373Y-142361920D01*
X210015067Y-142361920D01*
X210789919Y-142040966D01*
X211382966Y-141447919D01*
X211703920Y-140673067D01*
X211703920Y-139834373D01*
X211382966Y-139059521D01*
X210789919Y-138466474D01*
X210015067Y-138145520D01*
X209176373Y-138145520D01*
X208401521Y-138466474D01*
X207808474Y-139059521D01*
X207487520Y-139834373D01*
X183515000Y-139834373D01*
X183515000Y-138915556D01*
X183532416Y-138828000D01*
X183463419Y-138481130D01*
X183444818Y-138453292D01*
X183266933Y-138187067D01*
X183192704Y-138137469D01*
X183004531Y-137949296D01*
X182954933Y-137875067D01*
X182660870Y-137678581D01*
X182401556Y-137627000D01*
X182401555Y-137627000D01*
X182372780Y-137621276D01*
X182263809Y-137458191D01*
X182053765Y-137317843D01*
X181806000Y-137268560D01*
X180906000Y-137268560D01*
X180658235Y-137317843D01*
X180448191Y-137458191D01*
X180307843Y-137668235D01*
X180258560Y-137916000D01*
X180258560Y-139116000D01*
X180307843Y-139363765D01*
X180448191Y-139573809D01*
X180658235Y-139714157D01*
X180906000Y-139763440D01*
X181737001Y-139763440D01*
X181737000Y-142379764D01*
X181495765Y-142621000D01*
X170294236Y-142621000D01*
X169545000Y-141871765D01*
X169545000Y-141725469D01*
X169554157Y-141711765D01*
X169603440Y-141464000D01*
X169603440Y-139464000D01*
X169554157Y-139216235D01*
X169413809Y-139006191D01*
X169203765Y-138865843D01*
X168956000Y-138816560D01*
X168356000Y-138816560D01*
X168224200Y-138842776D01*
X168224200Y-136226548D01*
X168240620Y-136143999D01*
X168224200Y-136061450D01*
X168224200Y-136061446D01*
X168175567Y-135816951D01*
X167990308Y-135539692D01*
X167920322Y-135492929D01*
X167885593Y-135458200D01*
X170340807Y-135458200D01*
X170357801Y-135475194D01*
X170357800Y-139126504D01*
X170297843Y-139216235D01*
X170248560Y-139464000D01*
X170248560Y-141464000D01*
X170297843Y-141711765D01*
X170438191Y-141921809D01*
X170648235Y-142062157D01*
X170896000Y-142111440D01*
X171496000Y-142111440D01*
X171743765Y-142062157D01*
X171831000Y-142003868D01*
X171918235Y-142062157D01*
X172166000Y-142111440D01*
X172766000Y-142111440D01*
X173013765Y-142062157D01*
X173101000Y-142003868D01*
X173188235Y-142062157D01*
X173436000Y-142111440D01*
X174036000Y-142111440D01*
X174283765Y-142062157D01*
X174371000Y-142003868D01*
X174458235Y-142062157D01*
X174706000Y-142111440D01*
X175306000Y-142111440D01*
X175553765Y-142062157D01*
X175641000Y-142003868D01*
X175728235Y-142062157D01*
X175976000Y-142111440D01*
X176576000Y-142111440D01*
X176823765Y-142062157D01*
X177033809Y-141921809D01*
X177174157Y-141711765D01*
X177223440Y-141464000D01*
X177223440Y-139464000D01*
X177174157Y-139216235D01*
X177033809Y-139006191D01*
X176823765Y-138865843D01*
X176576000Y-138816560D01*
X175976000Y-138816560D01*
X175844200Y-138842776D01*
X175844200Y-138216000D01*
X178047560Y-138216000D01*
X178047560Y-139416000D01*
X178096843Y-139663765D01*
X178237191Y-139873809D01*
X178447235Y-140014157D01*
X178695000Y-140063440D01*
X179445000Y-140063440D01*
X179692765Y-140014157D01*
X179902809Y-139873809D01*
X180043157Y-139663765D01*
X180092440Y-139416000D01*
X180092440Y-138216000D01*
X180043157Y-137968235D01*
X179908200Y-137766259D01*
X179908200Y-137406237D01*
X179954200Y-137295183D01*
X179954200Y-136923217D01*
X179811855Y-136579565D01*
X179548835Y-136316545D01*
X179205183Y-136174200D01*
X178833217Y-136174200D01*
X178489565Y-136316545D01*
X178226545Y-136579565D01*
X178084200Y-136923217D01*
X178084200Y-137295183D01*
X178226545Y-137638835D01*
X178231801Y-137644091D01*
X178231801Y-137766258D01*
X178096843Y-137968235D01*
X178047560Y-138216000D01*
X175844200Y-138216000D01*
X175844200Y-133178548D01*
X175860620Y-133095999D01*
X175844200Y-133013450D01*
X175844200Y-133013446D01*
X175795567Y-132768951D01*
X175720962Y-132657298D01*
X175728235Y-132662157D01*
X175976000Y-132711440D01*
X176576000Y-132711440D01*
X176823765Y-132662157D01*
X177033809Y-132521809D01*
X177174157Y-132311765D01*
X177223440Y-132064000D01*
X177223440Y-130064000D01*
X177174157Y-129816235D01*
X177114200Y-129726504D01*
X177114200Y-128943679D01*
X177211000Y-128709983D01*
X177211000Y-128338017D01*
X177068655Y-127994365D01*
X176805635Y-127731345D01*
X176461983Y-127589000D01*
X176090017Y-127589000D01*
X175844200Y-127690821D01*
X175844200Y-125641679D01*
X175941000Y-125407983D01*
X175941000Y-125036017D01*
X175798655Y-124692365D01*
X175535635Y-124429345D01*
X175191983Y-124287000D01*
X174820017Y-124287000D01*
X174574200Y-124388821D01*
X174574200Y-123342400D01*
X195607360Y-123342400D01*
X195607360Y-123404200D01*
X195656643Y-123651965D01*
X195796991Y-123862009D01*
X196007035Y-124002357D01*
X196254800Y-124051640D01*
X198054800Y-124051640D01*
X198302565Y-124002357D01*
X198512609Y-123862009D01*
X198652957Y-123651965D01*
X198702240Y-123404200D01*
X198702240Y-123342400D01*
X202211360Y-123342400D01*
X202211360Y-123404200D01*
X202260643Y-123651965D01*
X202400991Y-123862009D01*
X202611035Y-124002357D01*
X202858800Y-124051640D01*
X204658800Y-124051640D01*
X204906565Y-124002357D01*
X205116609Y-123862009D01*
X205256957Y-123651965D01*
X205306240Y-123404200D01*
X205306240Y-123342400D01*
X208815360Y-123342400D01*
X208815360Y-123404200D01*
X208864643Y-123651965D01*
X209004991Y-123862009D01*
X209215035Y-124002357D01*
X209462800Y-124051640D01*
X211262800Y-124051640D01*
X211510565Y-124002357D01*
X211720609Y-123862009D01*
X211860957Y-123651965D01*
X211910240Y-123404200D01*
X211910240Y-121604200D01*
X211860957Y-121356435D01*
X211720609Y-121146391D01*
X211510565Y-121006043D01*
X211494892Y-121002925D01*
X211664110Y-120833707D01*
X211897800Y-120269530D01*
X211897800Y-119658870D01*
X211664110Y-119094693D01*
X211232307Y-118662890D01*
X210668130Y-118429200D01*
X210057470Y-118429200D01*
X209493293Y-118662890D01*
X209061490Y-119094693D01*
X208827800Y-119658870D01*
X208827800Y-120269530D01*
X209061490Y-120833707D01*
X209230708Y-121002925D01*
X209215035Y-121006043D01*
X209004991Y-121146391D01*
X208864643Y-121356435D01*
X208815360Y-121604200D01*
X208815360Y-121666000D01*
X205306240Y-121666000D01*
X205306240Y-121604200D01*
X205256957Y-121356435D01*
X205116609Y-121146391D01*
X204906565Y-121006043D01*
X204890892Y-121002925D01*
X205060110Y-120833707D01*
X205293800Y-120269530D01*
X205293800Y-119658870D01*
X205060110Y-119094693D01*
X204628307Y-118662890D01*
X204064130Y-118429200D01*
X203453470Y-118429200D01*
X202889293Y-118662890D01*
X202457490Y-119094693D01*
X202223800Y-119658870D01*
X202223800Y-120269530D01*
X202457490Y-120833707D01*
X202626708Y-121002925D01*
X202611035Y-121006043D01*
X202400991Y-121146391D01*
X202260643Y-121356435D01*
X202211360Y-121604200D01*
X202211360Y-121666000D01*
X198702240Y-121666000D01*
X198702240Y-121604200D01*
X198652957Y-121356435D01*
X198512609Y-121146391D01*
X198302565Y-121006043D01*
X198286892Y-121002925D01*
X198456110Y-120833707D01*
X198689800Y-120269530D01*
X198689800Y-119658870D01*
X198456110Y-119094693D01*
X198024307Y-118662890D01*
X197460130Y-118429200D01*
X196849470Y-118429200D01*
X196285293Y-118662890D01*
X195853490Y-119094693D01*
X195619800Y-119658870D01*
X195619800Y-120269530D01*
X195853490Y-120833707D01*
X196022708Y-121002925D01*
X196007035Y-121006043D01*
X195796991Y-121146391D01*
X195656643Y-121356435D01*
X195607360Y-121604200D01*
X195607360Y-121666000D01*
X174047148Y-121666000D01*
X173964599Y-121649580D01*
X173882050Y-121666000D01*
X173882046Y-121666000D01*
X173637551Y-121714633D01*
X173360292Y-121899892D01*
X173313528Y-121969879D01*
X173201679Y-122081728D01*
X173131692Y-122128492D01*
X173050200Y-122250454D01*
X173050200Y-110448615D01*
X189065800Y-110448615D01*
X189065800Y-111039385D01*
X189291878Y-111585185D01*
X189709615Y-112002922D01*
X190255415Y-112229000D01*
X190846185Y-112229000D01*
X191391985Y-112002922D01*
X191809722Y-111585185D01*
X192035800Y-111039385D01*
X192035800Y-110448615D01*
X191809722Y-109902815D01*
X191391985Y-109485078D01*
X190846185Y-109259000D01*
X190255415Y-109259000D01*
X189709615Y-109485078D01*
X189291878Y-109902815D01*
X189065800Y-110448615D01*
X173050200Y-110448615D01*
X173050200Y-105562400D01*
X175795360Y-105562400D01*
X175795360Y-105624200D01*
X175844643Y-105871965D01*
X175984991Y-106082009D01*
X176195035Y-106222357D01*
X176442800Y-106271640D01*
X178242800Y-106271640D01*
X178490565Y-106222357D01*
X178700609Y-106082009D01*
X178840957Y-105871965D01*
X178890240Y-105624200D01*
X178890240Y-105562400D01*
X182399360Y-105562400D01*
X182399360Y-105624200D01*
X182448643Y-105871965D01*
X182588991Y-106082009D01*
X182799035Y-106222357D01*
X183046800Y-106271640D01*
X184846800Y-106271640D01*
X185094565Y-106222357D01*
X185304609Y-106082009D01*
X185444957Y-105871965D01*
X185494240Y-105624200D01*
X185494240Y-105562400D01*
X189003360Y-105562400D01*
X189003360Y-105624200D01*
X189052643Y-105871965D01*
X189192991Y-106082009D01*
X189403035Y-106222357D01*
X189650800Y-106271640D01*
X191450800Y-106271640D01*
X191698565Y-106222357D01*
X191908609Y-106082009D01*
X192048957Y-105871965D01*
X192098240Y-105624200D01*
X192098240Y-105562400D01*
X195607360Y-105562400D01*
X195607360Y-105624200D01*
X195656643Y-105871965D01*
X195796991Y-106082009D01*
X196007035Y-106222357D01*
X196254800Y-106271640D01*
X198054800Y-106271640D01*
X198302565Y-106222357D01*
X198512609Y-106082009D01*
X198652957Y-105871965D01*
X198702240Y-105624200D01*
X198702240Y-105562400D01*
X202211360Y-105562400D01*
X202211360Y-105624200D01*
X202260643Y-105871965D01*
X202400991Y-106082009D01*
X202611035Y-106222357D01*
X202858800Y-106271640D01*
X204658800Y-106271640D01*
X204906565Y-106222357D01*
X205116609Y-106082009D01*
X205256957Y-105871965D01*
X205306240Y-105624200D01*
X205306240Y-105562400D01*
X208815360Y-105562400D01*
X208815360Y-105624200D01*
X208864643Y-105871965D01*
X209004991Y-106082009D01*
X209215035Y-106222357D01*
X209462800Y-106271640D01*
X211262800Y-106271640D01*
X211510565Y-106222357D01*
X211720609Y-106082009D01*
X211860957Y-105871965D01*
X211910240Y-105624200D01*
X211910240Y-103824200D01*
X211860957Y-103576435D01*
X211720609Y-103366391D01*
X211510565Y-103226043D01*
X211494892Y-103222925D01*
X211664110Y-103053707D01*
X211897800Y-102489530D01*
X211897800Y-101878870D01*
X211664110Y-101314693D01*
X211232307Y-100882890D01*
X210668130Y-100649200D01*
X210057470Y-100649200D01*
X209493293Y-100882890D01*
X209061490Y-101314693D01*
X208827800Y-101878870D01*
X208827800Y-102489530D01*
X209061490Y-103053707D01*
X209230708Y-103222925D01*
X209215035Y-103226043D01*
X209004991Y-103366391D01*
X208864643Y-103576435D01*
X208815360Y-103824200D01*
X208815360Y-103886000D01*
X205306240Y-103886000D01*
X205306240Y-103824200D01*
X205256957Y-103576435D01*
X205116609Y-103366391D01*
X204906565Y-103226043D01*
X204890892Y-103222925D01*
X205060110Y-103053707D01*
X205293800Y-102489530D01*
X205293800Y-101878870D01*
X205060110Y-101314693D01*
X204628307Y-100882890D01*
X204064130Y-100649200D01*
X203453470Y-100649200D01*
X202889293Y-100882890D01*
X202457490Y-101314693D01*
X202223800Y-101878870D01*
X202223800Y-102489530D01*
X202457490Y-103053707D01*
X202626708Y-103222925D01*
X202611035Y-103226043D01*
X202400991Y-103366391D01*
X202260643Y-103576435D01*
X202211360Y-103824200D01*
X202211360Y-103886000D01*
X198702240Y-103886000D01*
X198702240Y-103824200D01*
X198652957Y-103576435D01*
X198512609Y-103366391D01*
X198302565Y-103226043D01*
X198286892Y-103222925D01*
X198456110Y-103053707D01*
X198689800Y-102489530D01*
X198689800Y-101878870D01*
X198456110Y-101314693D01*
X198024307Y-100882890D01*
X197460130Y-100649200D01*
X196849470Y-100649200D01*
X196285293Y-100882890D01*
X195853490Y-101314693D01*
X195619800Y-101878870D01*
X195619800Y-102489530D01*
X195853490Y-103053707D01*
X196022708Y-103222925D01*
X196007035Y-103226043D01*
X195796991Y-103366391D01*
X195656643Y-103576435D01*
X195607360Y-103824200D01*
X195607360Y-103886000D01*
X192098240Y-103886000D01*
X192098240Y-103824200D01*
X192048957Y-103576435D01*
X191908609Y-103366391D01*
X191698565Y-103226043D01*
X191682892Y-103222925D01*
X191852110Y-103053707D01*
X192085800Y-102489530D01*
X192085800Y-101878870D01*
X191852110Y-101314693D01*
X191420307Y-100882890D01*
X190856130Y-100649200D01*
X190245470Y-100649200D01*
X189681293Y-100882890D01*
X189249490Y-101314693D01*
X189015800Y-101878870D01*
X189015800Y-102489530D01*
X189249490Y-103053707D01*
X189418708Y-103222925D01*
X189403035Y-103226043D01*
X189192991Y-103366391D01*
X189052643Y-103576435D01*
X189003360Y-103824200D01*
X189003360Y-103886000D01*
X185494240Y-103886000D01*
X185494240Y-103824200D01*
X185444957Y-103576435D01*
X185304609Y-103366391D01*
X185094565Y-103226043D01*
X185078892Y-103222925D01*
X185248110Y-103053707D01*
X185481800Y-102489530D01*
X185481800Y-101878870D01*
X185248110Y-101314693D01*
X184816307Y-100882890D01*
X184252130Y-100649200D01*
X183641470Y-100649200D01*
X183077293Y-100882890D01*
X182645490Y-101314693D01*
X182411800Y-101878870D01*
X182411800Y-102489530D01*
X182645490Y-103053707D01*
X182814708Y-103222925D01*
X182799035Y-103226043D01*
X182588991Y-103366391D01*
X182448643Y-103576435D01*
X182399360Y-103824200D01*
X182399360Y-103886000D01*
X178890240Y-103886000D01*
X178890240Y-103824200D01*
X178840957Y-103576435D01*
X178700609Y-103366391D01*
X178490565Y-103226043D01*
X178474892Y-103222925D01*
X178644110Y-103053707D01*
X178877800Y-102489530D01*
X178877800Y-101878870D01*
X178644110Y-101314693D01*
X178212307Y-100882890D01*
X177648130Y-100649200D01*
X177037470Y-100649200D01*
X176473293Y-100882890D01*
X176041490Y-101314693D01*
X175807800Y-101878870D01*
X175807800Y-102489530D01*
X176041490Y-103053707D01*
X176210708Y-103222925D01*
X176195035Y-103226043D01*
X175984991Y-103366391D01*
X175844643Y-103576435D01*
X175795360Y-103824200D01*
X175795360Y-103886000D01*
X172675548Y-103886000D01*
X172592999Y-103869580D01*
X172510450Y-103886000D01*
X172510446Y-103886000D01*
X172265951Y-103934633D01*
X171988692Y-104119892D01*
X171941928Y-104189879D01*
X171677679Y-104454128D01*
X171607692Y-104500892D01*
X171526200Y-104622854D01*
X171526200Y-96536993D01*
X171644794Y-96418400D01*
X175795360Y-96418400D01*
X175795360Y-96480200D01*
X175844643Y-96727965D01*
X175984991Y-96938009D01*
X176195035Y-97078357D01*
X176442800Y-97127640D01*
X178242800Y-97127640D01*
X178490565Y-97078357D01*
X178700609Y-96938009D01*
X178840957Y-96727965D01*
X178890240Y-96480200D01*
X178890240Y-96418400D01*
X182399360Y-96418400D01*
X182399360Y-96480200D01*
X182448643Y-96727965D01*
X182588991Y-96938009D01*
X182799035Y-97078357D01*
X183046800Y-97127640D01*
X184846800Y-97127640D01*
X185094565Y-97078357D01*
X185304609Y-96938009D01*
X185444957Y-96727965D01*
X185494240Y-96480200D01*
X185494240Y-96418400D01*
X189003360Y-96418400D01*
X189003360Y-96480200D01*
X189052643Y-96727965D01*
X189192991Y-96938009D01*
X189403035Y-97078357D01*
X189650800Y-97127640D01*
X191450800Y-97127640D01*
X191698565Y-97078357D01*
X191908609Y-96938009D01*
X192048957Y-96727965D01*
X192098240Y-96480200D01*
X192098240Y-96418400D01*
X195607360Y-96418400D01*
X195607360Y-96480200D01*
X195656643Y-96727965D01*
X195796991Y-96938009D01*
X196007035Y-97078357D01*
X196254800Y-97127640D01*
X198054800Y-97127640D01*
X198302565Y-97078357D01*
X198512609Y-96938009D01*
X198652957Y-96727965D01*
X198702240Y-96480200D01*
X198702240Y-96418400D01*
X202211360Y-96418400D01*
X202211360Y-96480200D01*
X202260643Y-96727965D01*
X202400991Y-96938009D01*
X202611035Y-97078357D01*
X202858800Y-97127640D01*
X204658800Y-97127640D01*
X204906565Y-97078357D01*
X205116609Y-96938009D01*
X205256957Y-96727965D01*
X205306240Y-96480200D01*
X205306240Y-96418400D01*
X208815360Y-96418400D01*
X208815360Y-96480200D01*
X208864643Y-96727965D01*
X209004991Y-96938009D01*
X209215035Y-97078357D01*
X209462800Y-97127640D01*
X211262800Y-97127640D01*
X211510565Y-97078357D01*
X211720609Y-96938009D01*
X211860957Y-96727965D01*
X211910240Y-96480200D01*
X211910240Y-94680200D01*
X211860957Y-94432435D01*
X211720609Y-94222391D01*
X211510565Y-94082043D01*
X211494892Y-94078925D01*
X211664110Y-93909707D01*
X211897800Y-93345530D01*
X211897800Y-92734870D01*
X211664110Y-92170693D01*
X211232307Y-91738890D01*
X210668130Y-91505200D01*
X210057470Y-91505200D01*
X209493293Y-91738890D01*
X209061490Y-92170693D01*
X208827800Y-92734870D01*
X208827800Y-93345530D01*
X209061490Y-93909707D01*
X209230708Y-94078925D01*
X209215035Y-94082043D01*
X209004991Y-94222391D01*
X208864643Y-94432435D01*
X208815360Y-94680200D01*
X208815360Y-94742000D01*
X205306240Y-94742000D01*
X205306240Y-94680200D01*
X205256957Y-94432435D01*
X205116609Y-94222391D01*
X204906565Y-94082043D01*
X204890892Y-94078925D01*
X205060110Y-93909707D01*
X205293800Y-93345530D01*
X205293800Y-92734870D01*
X205060110Y-92170693D01*
X204628307Y-91738890D01*
X204064130Y-91505200D01*
X203453470Y-91505200D01*
X202889293Y-91738890D01*
X202457490Y-92170693D01*
X202223800Y-92734870D01*
X202223800Y-93345530D01*
X202457490Y-93909707D01*
X202626708Y-94078925D01*
X202611035Y-94082043D01*
X202400991Y-94222391D01*
X202260643Y-94432435D01*
X202211360Y-94680200D01*
X202211360Y-94742000D01*
X198702240Y-94742000D01*
X198702240Y-94680200D01*
X198652957Y-94432435D01*
X198512609Y-94222391D01*
X198302565Y-94082043D01*
X198286892Y-94078925D01*
X198456110Y-93909707D01*
X198689800Y-93345530D01*
X198689800Y-92734870D01*
X198456110Y-92170693D01*
X198024307Y-91738890D01*
X197460130Y-91505200D01*
X196849470Y-91505200D01*
X196285293Y-91738890D01*
X195853490Y-92170693D01*
X195619800Y-92734870D01*
X195619800Y-93345530D01*
X195853490Y-93909707D01*
X196022708Y-94078925D01*
X196007035Y-94082043D01*
X195796991Y-94222391D01*
X195656643Y-94432435D01*
X195607360Y-94680200D01*
X195607360Y-94742000D01*
X192098240Y-94742000D01*
X192098240Y-94680200D01*
X192048957Y-94432435D01*
X191908609Y-94222391D01*
X191698565Y-94082043D01*
X191682892Y-94078925D01*
X191852110Y-93909707D01*
X192085800Y-93345530D01*
X192085800Y-92734870D01*
X191852110Y-92170693D01*
X191420307Y-91738890D01*
X190856130Y-91505200D01*
X190245470Y-91505200D01*
X189681293Y-91738890D01*
X189249490Y-92170693D01*
X189015800Y-92734870D01*
X189015800Y-93345530D01*
X189249490Y-93909707D01*
X189418708Y-94078925D01*
X189403035Y-94082043D01*
X189192991Y-94222391D01*
X189052643Y-94432435D01*
X189003360Y-94680200D01*
X189003360Y-94742000D01*
X185494240Y-94742000D01*
X185494240Y-94680200D01*
X185444957Y-94432435D01*
X185304609Y-94222391D01*
X185094565Y-94082043D01*
X185078892Y-94078925D01*
X185248110Y-93909707D01*
X185481800Y-93345530D01*
X185481800Y-92734870D01*
X185248110Y-92170693D01*
X184816307Y-91738890D01*
X184252130Y-91505200D01*
X183641470Y-91505200D01*
X183077293Y-91738890D01*
X182645490Y-92170693D01*
X182411800Y-92734870D01*
X182411800Y-93345530D01*
X182645490Y-93909707D01*
X182814708Y-94078925D01*
X182799035Y-94082043D01*
X182588991Y-94222391D01*
X182448643Y-94432435D01*
X182399360Y-94680200D01*
X182399360Y-94742000D01*
X178890240Y-94742000D01*
X178890240Y-94680200D01*
X178840957Y-94432435D01*
X178700609Y-94222391D01*
X178490565Y-94082043D01*
X178474892Y-94078925D01*
X178644110Y-93909707D01*
X178877800Y-93345530D01*
X178877800Y-92734870D01*
X178644110Y-92170693D01*
X178212307Y-91738890D01*
X177648130Y-91505200D01*
X177037470Y-91505200D01*
X176473293Y-91738890D01*
X176041490Y-92170693D01*
X175807800Y-92734870D01*
X175807800Y-93345530D01*
X176041490Y-93909707D01*
X176210708Y-94078925D01*
X176195035Y-94082043D01*
X175984991Y-94222391D01*
X175844643Y-94432435D01*
X175795360Y-94680200D01*
X175795360Y-94742000D01*
X171380150Y-94742000D01*
X171297600Y-94725580D01*
X171215049Y-94742000D01*
X171215046Y-94742000D01*
X171025507Y-94779702D01*
X170970550Y-94790633D01*
X170763277Y-94929129D01*
X170763276Y-94929130D01*
X170693292Y-94975892D01*
X170646530Y-95045876D01*
X170153676Y-95538731D01*
X170083693Y-95585492D01*
X170036931Y-95655476D01*
X170036929Y-95655478D01*
X170002200Y-95707454D01*
X170002200Y-87274400D01*
X182399360Y-87274400D01*
X182399360Y-87336200D01*
X182448643Y-87583965D01*
X182588991Y-87794009D01*
X182799035Y-87934357D01*
X183046800Y-87983640D01*
X184846800Y-87983640D01*
X185094565Y-87934357D01*
X185304609Y-87794009D01*
X185444957Y-87583965D01*
X185494240Y-87336200D01*
X185494240Y-87274400D01*
X189003360Y-87274400D01*
X189003360Y-87336200D01*
X189052643Y-87583965D01*
X189192991Y-87794009D01*
X189403035Y-87934357D01*
X189650800Y-87983640D01*
X191450800Y-87983640D01*
X191698565Y-87934357D01*
X191908609Y-87794009D01*
X192048957Y-87583965D01*
X192098240Y-87336200D01*
X192098240Y-87274400D01*
X195607360Y-87274400D01*
X195607360Y-87336200D01*
X195656643Y-87583965D01*
X195796991Y-87794009D01*
X196007035Y-87934357D01*
X196254800Y-87983640D01*
X198054800Y-87983640D01*
X198302565Y-87934357D01*
X198512609Y-87794009D01*
X198652957Y-87583965D01*
X198702240Y-87336200D01*
X198702240Y-87274400D01*
X202211360Y-87274400D01*
X202211360Y-87336200D01*
X202260643Y-87583965D01*
X202400991Y-87794009D01*
X202611035Y-87934357D01*
X202858800Y-87983640D01*
X204658800Y-87983640D01*
X204906565Y-87934357D01*
X205116609Y-87794009D01*
X205256957Y-87583965D01*
X205306240Y-87336200D01*
X205306240Y-87274400D01*
X208815360Y-87274400D01*
X208815360Y-87336200D01*
X208864643Y-87583965D01*
X209004991Y-87794009D01*
X209215035Y-87934357D01*
X209462800Y-87983640D01*
X211262800Y-87983640D01*
X211510565Y-87934357D01*
X211720609Y-87794009D01*
X211860957Y-87583965D01*
X211910240Y-87336200D01*
X211910240Y-85536200D01*
X211860957Y-85288435D01*
X211720609Y-85078391D01*
X211510565Y-84938043D01*
X211494892Y-84934925D01*
X211664110Y-84765707D01*
X211897800Y-84201530D01*
X211897800Y-83590870D01*
X211664110Y-83026693D01*
X211232307Y-82594890D01*
X210668130Y-82361200D01*
X210057470Y-82361200D01*
X209493293Y-82594890D01*
X209061490Y-83026693D01*
X208827800Y-83590870D01*
X208827800Y-84201530D01*
X209061490Y-84765707D01*
X209230708Y-84934925D01*
X209215035Y-84938043D01*
X209004991Y-85078391D01*
X208864643Y-85288435D01*
X208815360Y-85536200D01*
X208815360Y-85598000D01*
X205306240Y-85598000D01*
X205306240Y-85536200D01*
X205256957Y-85288435D01*
X205116609Y-85078391D01*
X204906565Y-84938043D01*
X204890892Y-84934925D01*
X205060110Y-84765707D01*
X205293800Y-84201530D01*
X205293800Y-83590870D01*
X205060110Y-83026693D01*
X204628307Y-82594890D01*
X204064130Y-82361200D01*
X203453470Y-82361200D01*
X202889293Y-82594890D01*
X202457490Y-83026693D01*
X202223800Y-83590870D01*
X202223800Y-84201530D01*
X202457490Y-84765707D01*
X202626708Y-84934925D01*
X202611035Y-84938043D01*
X202400991Y-85078391D01*
X202260643Y-85288435D01*
X202211360Y-85536200D01*
X202211360Y-85598000D01*
X198702240Y-85598000D01*
X198702240Y-85536200D01*
X198652957Y-85288435D01*
X198512609Y-85078391D01*
X198302565Y-84938043D01*
X198286892Y-84934925D01*
X198456110Y-84765707D01*
X198689800Y-84201530D01*
X198689800Y-83590870D01*
X198456110Y-83026693D01*
X198024307Y-82594890D01*
X197460130Y-82361200D01*
X196849470Y-82361200D01*
X196285293Y-82594890D01*
X195853490Y-83026693D01*
X195619800Y-83590870D01*
X195619800Y-84201530D01*
X195853490Y-84765707D01*
X196022708Y-84934925D01*
X196007035Y-84938043D01*
X195796991Y-85078391D01*
X195656643Y-85288435D01*
X195607360Y-85536200D01*
X195607360Y-85598000D01*
X192098240Y-85598000D01*
X192098240Y-85536200D01*
X192048957Y-85288435D01*
X191908609Y-85078391D01*
X191698565Y-84938043D01*
X191682892Y-84934925D01*
X191852110Y-84765707D01*
X192085800Y-84201530D01*
X192085800Y-83590870D01*
X191852110Y-83026693D01*
X191420307Y-82594890D01*
X190856130Y-82361200D01*
X190245470Y-82361200D01*
X189681293Y-82594890D01*
X189249490Y-83026693D01*
X189015800Y-83590870D01*
X189015800Y-84201530D01*
X189249490Y-84765707D01*
X189418708Y-84934925D01*
X189403035Y-84938043D01*
X189192991Y-85078391D01*
X189052643Y-85288435D01*
X189003360Y-85536200D01*
X189003360Y-85598000D01*
X185494240Y-85598000D01*
X185494240Y-85536200D01*
X185444957Y-85288435D01*
X185304609Y-85078391D01*
X185094565Y-84938043D01*
X185078892Y-84934925D01*
X185248110Y-84765707D01*
X185481800Y-84201530D01*
X185481800Y-83590870D01*
X185248110Y-83026693D01*
X184816307Y-82594890D01*
X184252130Y-82361200D01*
X183641470Y-82361200D01*
X183077293Y-82594890D01*
X182645490Y-83026693D01*
X182411800Y-83590870D01*
X182411800Y-84201530D01*
X182645490Y-84765707D01*
X182814708Y-84934925D01*
X182799035Y-84938043D01*
X182588991Y-85078391D01*
X182448643Y-85288435D01*
X182399360Y-85536200D01*
X182399360Y-85598000D01*
X169678348Y-85598000D01*
X169595799Y-85581580D01*
X169513250Y-85598000D01*
X169513246Y-85598000D01*
X169268751Y-85646633D01*
X168991492Y-85831892D01*
X168944728Y-85901879D01*
X168629677Y-86216930D01*
X168559693Y-86263692D01*
X168512931Y-86333676D01*
X168512929Y-86333678D01*
X168402000Y-86499695D01*
X168244308Y-86263692D01*
X168174321Y-86216928D01*
X167859272Y-85901879D01*
X167812508Y-85831892D01*
X167535249Y-85646633D01*
X167290754Y-85598000D01*
X167290749Y-85598000D01*
X167208200Y-85581580D01*
X167125651Y-85598000D01*
X161110240Y-85598000D01*
X161110240Y-85536200D01*
X161060957Y-85288435D01*
X160920609Y-85078391D01*
X160710565Y-84938043D01*
X160694892Y-84934925D01*
X160864110Y-84765707D01*
X161097800Y-84201530D01*
X161097800Y-83590870D01*
X160864110Y-83026693D01*
X160432307Y-82594890D01*
X159868130Y-82361200D01*
X159257470Y-82361200D01*
X158693293Y-82594890D01*
X158261490Y-83026693D01*
X158027800Y-83590870D01*
X158027800Y-84201530D01*
X158261490Y-84765707D01*
X158430708Y-84934925D01*
X158415035Y-84938043D01*
X158204991Y-85078391D01*
X158064643Y-85288435D01*
X158015360Y-85536200D01*
X158015360Y-85598000D01*
X154506240Y-85598000D01*
X154506240Y-85536200D01*
X154456957Y-85288435D01*
X154316609Y-85078391D01*
X154106565Y-84938043D01*
X154090892Y-84934925D01*
X154260110Y-84765707D01*
X154493800Y-84201530D01*
X154493800Y-83590870D01*
X154260110Y-83026693D01*
X153828307Y-82594890D01*
X153264130Y-82361200D01*
X152653470Y-82361200D01*
X152089293Y-82594890D01*
X151657490Y-83026693D01*
X151423800Y-83590870D01*
X151423800Y-84201530D01*
X151657490Y-84765707D01*
X151826708Y-84934925D01*
X151811035Y-84938043D01*
X151600991Y-85078391D01*
X151460643Y-85288435D01*
X151411360Y-85536200D01*
X151411360Y-85598000D01*
X147902240Y-85598000D01*
X147902240Y-85536200D01*
X147852957Y-85288435D01*
X147712609Y-85078391D01*
X147502565Y-84938043D01*
X147486892Y-84934925D01*
X147656110Y-84765707D01*
X147889800Y-84201530D01*
X147889800Y-83590870D01*
X147656110Y-83026693D01*
X147224307Y-82594890D01*
X146660130Y-82361200D01*
X146049470Y-82361200D01*
X145485293Y-82594890D01*
X145053490Y-83026693D01*
X144819800Y-83590870D01*
X144819800Y-84201530D01*
X145053490Y-84765707D01*
X145222708Y-84934925D01*
X145207035Y-84938043D01*
X144996991Y-85078391D01*
X144856643Y-85288435D01*
X144807360Y-85536200D01*
X144807360Y-85598000D01*
X141298240Y-85598000D01*
X141298240Y-85536200D01*
X141248957Y-85288435D01*
X141108609Y-85078391D01*
X140898565Y-84938043D01*
X140882892Y-84934925D01*
X141052110Y-84765707D01*
X141285800Y-84201530D01*
X141285800Y-83590870D01*
X141052110Y-83026693D01*
X140620307Y-82594890D01*
X140056130Y-82361200D01*
X139445470Y-82361200D01*
X138881293Y-82594890D01*
X138449490Y-83026693D01*
X138215800Y-83590870D01*
X138215800Y-84201530D01*
X138449490Y-84765707D01*
X138618708Y-84934925D01*
X138603035Y-84938043D01*
X138392991Y-85078391D01*
X138252643Y-85288435D01*
X138203360Y-85536200D01*
X138203360Y-85598000D01*
X134694240Y-85598000D01*
X134694240Y-85536200D01*
X134644957Y-85288435D01*
X134504609Y-85078391D01*
X134294565Y-84938043D01*
X134278892Y-84934925D01*
X134448110Y-84765707D01*
X134681800Y-84201530D01*
X134681800Y-83590870D01*
X134448110Y-83026693D01*
X134016307Y-82594890D01*
X133452130Y-82361200D01*
X132841470Y-82361200D01*
X132277293Y-82594890D01*
X131845490Y-83026693D01*
X131611800Y-83590870D01*
X131611800Y-84201530D01*
X131845490Y-84765707D01*
X132014708Y-84934925D01*
X131999035Y-84938043D01*
X131788991Y-85078391D01*
X131648643Y-85288435D01*
X131599360Y-85536200D01*
X131599360Y-85598000D01*
X128090240Y-85598000D01*
X128090240Y-85536200D01*
X128040957Y-85288435D01*
X127900609Y-85078391D01*
X127690565Y-84938043D01*
X127674892Y-84934925D01*
X127844110Y-84765707D01*
X128077800Y-84201530D01*
X128077800Y-83590870D01*
X127844110Y-83026693D01*
X127412307Y-82594890D01*
X126848130Y-82361200D01*
X126237470Y-82361200D01*
X125673293Y-82594890D01*
X125241490Y-83026693D01*
X125007800Y-83590870D01*
X125007800Y-84201530D01*
X125241490Y-84765707D01*
X125410708Y-84934925D01*
X125395035Y-84938043D01*
X125184991Y-85078391D01*
X125044643Y-85288435D01*
X124995360Y-85536200D01*
X124995360Y-85598000D01*
X121486240Y-85598000D01*
X121486240Y-85536200D01*
X121436957Y-85288435D01*
X121296609Y-85078391D01*
X121086565Y-84938043D01*
X121070892Y-84934925D01*
X121240110Y-84765707D01*
X121473800Y-84201530D01*
X121473800Y-83590870D01*
X121240110Y-83026693D01*
X120808307Y-82594890D01*
X120244130Y-82361200D01*
X119633470Y-82361200D01*
X119069293Y-82594890D01*
X118637490Y-83026693D01*
X118403800Y-83590870D01*
X118403800Y-84201530D01*
X118637490Y-84765707D01*
X118806708Y-84934925D01*
X118791035Y-84938043D01*
X118580991Y-85078391D01*
X118440643Y-85288435D01*
X118391360Y-85536200D01*
X118391360Y-87336200D01*
X118440643Y-87583965D01*
X118580991Y-87794009D01*
X118791035Y-87934357D01*
X119038800Y-87983640D01*
X120838800Y-87983640D01*
X121086565Y-87934357D01*
X121296609Y-87794009D01*
X121436957Y-87583965D01*
X121486240Y-87336200D01*
X121486240Y-87274400D01*
X124995360Y-87274400D01*
X124995360Y-87336200D01*
X125044643Y-87583965D01*
X125184991Y-87794009D01*
X125395035Y-87934357D01*
X125642800Y-87983640D01*
X127442800Y-87983640D01*
X127690565Y-87934357D01*
X127900609Y-87794009D01*
X128040957Y-87583965D01*
X128090240Y-87336200D01*
X128090240Y-87274400D01*
X131599360Y-87274400D01*
X131599360Y-87336200D01*
X131648643Y-87583965D01*
X131788991Y-87794009D01*
X131999035Y-87934357D01*
X132246800Y-87983640D01*
X134046800Y-87983640D01*
X134294565Y-87934357D01*
X134504609Y-87794009D01*
X134644957Y-87583965D01*
X134694240Y-87336200D01*
X134694240Y-87274400D01*
X138203360Y-87274400D01*
X138203360Y-87336200D01*
X138252643Y-87583965D01*
X138392991Y-87794009D01*
X138603035Y-87934357D01*
X138850800Y-87983640D01*
X140650800Y-87983640D01*
X140898565Y-87934357D01*
X141108609Y-87794009D01*
X141248957Y-87583965D01*
X141298240Y-87336200D01*
X141298240Y-87274400D01*
X144807360Y-87274400D01*
X144807360Y-87336200D01*
X144856643Y-87583965D01*
X144996991Y-87794009D01*
X145207035Y-87934357D01*
X145454800Y-87983640D01*
X147254800Y-87983640D01*
X147502565Y-87934357D01*
X147712609Y-87794009D01*
X147852957Y-87583965D01*
X147902240Y-87336200D01*
X147902240Y-87274400D01*
X151411360Y-87274400D01*
X151411360Y-87336200D01*
X151460643Y-87583965D01*
X151600991Y-87794009D01*
X151811035Y-87934357D01*
X152058800Y-87983640D01*
X153858800Y-87983640D01*
X154106565Y-87934357D01*
X154316609Y-87794009D01*
X154456957Y-87583965D01*
X154506240Y-87336200D01*
X154506240Y-87274400D01*
X158015360Y-87274400D01*
X158015360Y-87336200D01*
X158064643Y-87583965D01*
X158204991Y-87794009D01*
X158415035Y-87934357D01*
X158662800Y-87983640D01*
X160462800Y-87983640D01*
X160710565Y-87934357D01*
X160920609Y-87794009D01*
X161060957Y-87583965D01*
X161110240Y-87336200D01*
X161110240Y-87274400D01*
X166801801Y-87274400D01*
X166801801Y-95580454D01*
X166720308Y-95458492D01*
X166650322Y-95411729D01*
X166284472Y-95045879D01*
X166237708Y-94975892D01*
X165960449Y-94790633D01*
X165715954Y-94742000D01*
X165715949Y-94742000D01*
X165633400Y-94725580D01*
X165550851Y-94742000D01*
X161110240Y-94742000D01*
X161110240Y-94680200D01*
X161060957Y-94432435D01*
X160920609Y-94222391D01*
X160710565Y-94082043D01*
X160694892Y-94078925D01*
X160864110Y-93909707D01*
X161097800Y-93345530D01*
X161097800Y-92734870D01*
X160864110Y-92170693D01*
X160432307Y-91738890D01*
X159868130Y-91505200D01*
X159257470Y-91505200D01*
X158693293Y-91738890D01*
X158261490Y-92170693D01*
X158027800Y-92734870D01*
X158027800Y-93345530D01*
X158261490Y-93909707D01*
X158430708Y-94078925D01*
X158415035Y-94082043D01*
X158204991Y-94222391D01*
X158064643Y-94432435D01*
X158015360Y-94680200D01*
X158015360Y-94742000D01*
X154506240Y-94742000D01*
X154506240Y-94680200D01*
X154456957Y-94432435D01*
X154316609Y-94222391D01*
X154106565Y-94082043D01*
X154090892Y-94078925D01*
X154260110Y-93909707D01*
X154493800Y-93345530D01*
X154493800Y-92734870D01*
X154260110Y-92170693D01*
X153828307Y-91738890D01*
X153264130Y-91505200D01*
X152653470Y-91505200D01*
X152089293Y-91738890D01*
X151657490Y-92170693D01*
X151423800Y-92734870D01*
X151423800Y-93345530D01*
X151657490Y-93909707D01*
X151826708Y-94078925D01*
X151811035Y-94082043D01*
X151600991Y-94222391D01*
X151460643Y-94432435D01*
X151411360Y-94680200D01*
X151411360Y-94742000D01*
X147902240Y-94742000D01*
X147902240Y-94680200D01*
X147852957Y-94432435D01*
X147712609Y-94222391D01*
X147502565Y-94082043D01*
X147486892Y-94078925D01*
X147656110Y-93909707D01*
X147889800Y-93345530D01*
X147889800Y-92734870D01*
X147656110Y-92170693D01*
X147224307Y-91738890D01*
X146660130Y-91505200D01*
X146049470Y-91505200D01*
X145485293Y-91738890D01*
X145053490Y-92170693D01*
X144819800Y-92734870D01*
X144819800Y-93345530D01*
X145053490Y-93909707D01*
X145222708Y-94078925D01*
X145207035Y-94082043D01*
X144996991Y-94222391D01*
X144856643Y-94432435D01*
X144807360Y-94680200D01*
X144807360Y-94742000D01*
X141298240Y-94742000D01*
X141298240Y-94680200D01*
X141248957Y-94432435D01*
X141108609Y-94222391D01*
X140898565Y-94082043D01*
X140882892Y-94078925D01*
X141052110Y-93909707D01*
X141285800Y-93345530D01*
X141285800Y-92734870D01*
X141052110Y-92170693D01*
X140620307Y-91738890D01*
X140056130Y-91505200D01*
X139445470Y-91505200D01*
X138881293Y-91738890D01*
X138449490Y-92170693D01*
X138215800Y-92734870D01*
X138215800Y-93345530D01*
X138449490Y-93909707D01*
X138618708Y-94078925D01*
X138603035Y-94082043D01*
X138392991Y-94222391D01*
X138252643Y-94432435D01*
X138203360Y-94680200D01*
X138203360Y-96480200D01*
X138252643Y-96727965D01*
X138392991Y-96938009D01*
X138603035Y-97078357D01*
X138850800Y-97127640D01*
X140650800Y-97127640D01*
X140898565Y-97078357D01*
X141108609Y-96938009D01*
X141248957Y-96727965D01*
X141298240Y-96480200D01*
X141298240Y-96418400D01*
X144807360Y-96418400D01*
X144807360Y-96480200D01*
X144856643Y-96727965D01*
X144996991Y-96938009D01*
X145207035Y-97078357D01*
X145454800Y-97127640D01*
X147254800Y-97127640D01*
X147502565Y-97078357D01*
X147712609Y-96938009D01*
X147852957Y-96727965D01*
X147902240Y-96480200D01*
X147902240Y-96418400D01*
X151411360Y-96418400D01*
X151411360Y-96480200D01*
X151460643Y-96727965D01*
X151600991Y-96938009D01*
X151811035Y-97078357D01*
X152058800Y-97127640D01*
X153858800Y-97127640D01*
X154106565Y-97078357D01*
X154316609Y-96938009D01*
X154456957Y-96727965D01*
X154506240Y-96480200D01*
X154506240Y-96418400D01*
X158015360Y-96418400D01*
X158015360Y-96480200D01*
X158064643Y-96727965D01*
X158204991Y-96938009D01*
X158415035Y-97078357D01*
X158662800Y-97127640D01*
X160462800Y-97127640D01*
X160710565Y-97078357D01*
X160920609Y-96938009D01*
X161060957Y-96727965D01*
X161110240Y-96480200D01*
X161110240Y-96418400D01*
X165277800Y-96418400D01*
X165277800Y-104622854D01*
X165196308Y-104500892D01*
X165126321Y-104454128D01*
X164862072Y-104189879D01*
X164815308Y-104119892D01*
X164538049Y-103934633D01*
X164293554Y-103886000D01*
X164293549Y-103886000D01*
X164211000Y-103869580D01*
X164128451Y-103886000D01*
X161110240Y-103886000D01*
X161110240Y-103824200D01*
X161060957Y-103576435D01*
X160920609Y-103366391D01*
X160710565Y-103226043D01*
X160694892Y-103222925D01*
X160864110Y-103053707D01*
X161097800Y-102489530D01*
X161097800Y-101878870D01*
X160864110Y-101314693D01*
X160432307Y-100882890D01*
X159868130Y-100649200D01*
X159257470Y-100649200D01*
X158693293Y-100882890D01*
X158261490Y-101314693D01*
X158027800Y-101878870D01*
X158027800Y-102489530D01*
X158261490Y-103053707D01*
X158430708Y-103222925D01*
X158415035Y-103226043D01*
X158204991Y-103366391D01*
X158064643Y-103576435D01*
X158015360Y-103824200D01*
X158015360Y-103886000D01*
X154506240Y-103886000D01*
X154506240Y-103824200D01*
X154456957Y-103576435D01*
X154316609Y-103366391D01*
X154106565Y-103226043D01*
X154090892Y-103222925D01*
X154260110Y-103053707D01*
X154493800Y-102489530D01*
X154493800Y-101878870D01*
X154260110Y-101314693D01*
X153828307Y-100882890D01*
X153264130Y-100649200D01*
X152653470Y-100649200D01*
X152089293Y-100882890D01*
X151657490Y-101314693D01*
X151423800Y-101878870D01*
X151423800Y-102489530D01*
X151657490Y-103053707D01*
X151826708Y-103222925D01*
X151811035Y-103226043D01*
X151600991Y-103366391D01*
X151460643Y-103576435D01*
X151411360Y-103824200D01*
X151411360Y-103886000D01*
X147902240Y-103886000D01*
X147902240Y-103824200D01*
X147852957Y-103576435D01*
X147712609Y-103366391D01*
X147502565Y-103226043D01*
X147486892Y-103222925D01*
X147656110Y-103053707D01*
X147889800Y-102489530D01*
X147889800Y-101878870D01*
X147656110Y-101314693D01*
X147224307Y-100882890D01*
X146660130Y-100649200D01*
X146049470Y-100649200D01*
X145485293Y-100882890D01*
X145053490Y-101314693D01*
X144819800Y-101878870D01*
X144819800Y-102489530D01*
X145053490Y-103053707D01*
X145222708Y-103222925D01*
X145207035Y-103226043D01*
X144996991Y-103366391D01*
X144856643Y-103576435D01*
X144807360Y-103824200D01*
X144807360Y-103886000D01*
X141298240Y-103886000D01*
X141298240Y-103824200D01*
X141248957Y-103576435D01*
X141108609Y-103366391D01*
X140898565Y-103226043D01*
X140882892Y-103222925D01*
X141052110Y-103053707D01*
X141285800Y-102489530D01*
X141285800Y-101878870D01*
X141052110Y-101314693D01*
X140620307Y-100882890D01*
X140056130Y-100649200D01*
X139445470Y-100649200D01*
X138881293Y-100882890D01*
X138449490Y-101314693D01*
X138215800Y-101878870D01*
X138215800Y-102489530D01*
X138449490Y-103053707D01*
X138618708Y-103222925D01*
X138603035Y-103226043D01*
X138392991Y-103366391D01*
X138252643Y-103576435D01*
X138203360Y-103824200D01*
X138203360Y-103886000D01*
X134694240Y-103886000D01*
X134694240Y-103824200D01*
X134644957Y-103576435D01*
X134504609Y-103366391D01*
X134294565Y-103226043D01*
X134278892Y-103222925D01*
X134448110Y-103053707D01*
X134681800Y-102489530D01*
X134681800Y-101878870D01*
X134448110Y-101314693D01*
X134016307Y-100882890D01*
X133452130Y-100649200D01*
X132841470Y-100649200D01*
X132277293Y-100882890D01*
X131845490Y-101314693D01*
X131611800Y-101878870D01*
X131611800Y-102489530D01*
X131845490Y-103053707D01*
X132014708Y-103222925D01*
X131999035Y-103226043D01*
X131788991Y-103366391D01*
X131648643Y-103576435D01*
X131599360Y-103824200D01*
X131599360Y-105624200D01*
X131648643Y-105871965D01*
X131788991Y-106082009D01*
X131999035Y-106222357D01*
X132246800Y-106271640D01*
X134046800Y-106271640D01*
X134294565Y-106222357D01*
X134504609Y-106082009D01*
X134644957Y-105871965D01*
X134694240Y-105624200D01*
X134694240Y-105562400D01*
X138203360Y-105562400D01*
X138203360Y-105624200D01*
X138252643Y-105871965D01*
X138392991Y-106082009D01*
X138603035Y-106222357D01*
X138850800Y-106271640D01*
X140650800Y-106271640D01*
X140898565Y-106222357D01*
X141108609Y-106082009D01*
X141248957Y-105871965D01*
X141298240Y-105624200D01*
X141298240Y-105562400D01*
X144807360Y-105562400D01*
X144807360Y-105624200D01*
X144856643Y-105871965D01*
X144996991Y-106082009D01*
X145207035Y-106222357D01*
X145454800Y-106271640D01*
X147254800Y-106271640D01*
X147502565Y-106222357D01*
X147712609Y-106082009D01*
X147852957Y-105871965D01*
X147902240Y-105624200D01*
X147902240Y-105562400D01*
X151411360Y-105562400D01*
X151411360Y-105624200D01*
X151460643Y-105871965D01*
X151600991Y-106082009D01*
X151811035Y-106222357D01*
X152058800Y-106271640D01*
X153858800Y-106271640D01*
X154106565Y-106222357D01*
X154316609Y-106082009D01*
X154456957Y-105871965D01*
X154506240Y-105624200D01*
X154506240Y-105562400D01*
X158015360Y-105562400D01*
X158015360Y-105624200D01*
X158064643Y-105871965D01*
X158204991Y-106082009D01*
X158415035Y-106222357D01*
X158662800Y-106271640D01*
X160462800Y-106271640D01*
X160710565Y-106222357D01*
X160920609Y-106082009D01*
X161060957Y-105871965D01*
X161110240Y-105624200D01*
X161110240Y-105562400D01*
X163753801Y-105562400D01*
X163753801Y-112349000D01*
X163644017Y-112349000D01*
X163410321Y-112445800D01*
X141010958Y-112445800D01*
X141009722Y-112442815D01*
X140591985Y-112025078D01*
X140565240Y-112014000D01*
X140591985Y-112002922D01*
X141009722Y-111585185D01*
X141010958Y-111582200D01*
X156044321Y-111582200D01*
X156278017Y-111679000D01*
X156649983Y-111679000D01*
X156993635Y-111536655D01*
X157256655Y-111273635D01*
X157399000Y-110929983D01*
X157399000Y-110558017D01*
X157256655Y-110214365D01*
X156993635Y-109951345D01*
X156649983Y-109809000D01*
X156278017Y-109809000D01*
X156044321Y-109905800D01*
X141010958Y-109905800D01*
X141009722Y-109902815D01*
X140591985Y-109485078D01*
X140565240Y-109474000D01*
X140591985Y-109462922D01*
X141009722Y-109045185D01*
X141010958Y-109042200D01*
X157060321Y-109042200D01*
X157294017Y-109139000D01*
X157665983Y-109139000D01*
X158009635Y-108996655D01*
X158272655Y-108733635D01*
X158415000Y-108389983D01*
X158415000Y-108018017D01*
X158272655Y-107674365D01*
X158009635Y-107411345D01*
X157665983Y-107269000D01*
X157294017Y-107269000D01*
X157060321Y-107365800D01*
X141010958Y-107365800D01*
X141009722Y-107362815D01*
X140591985Y-106945078D01*
X140046185Y-106719000D01*
X139455415Y-106719000D01*
X138909615Y-106945078D01*
X138491878Y-107362815D01*
X138265800Y-107908615D01*
X138265800Y-108499385D01*
X138491878Y-109045185D01*
X138909615Y-109462922D01*
X138936360Y-109474000D01*
X138909615Y-109485078D01*
X138491878Y-109902815D01*
X138265800Y-110448615D01*
X138265800Y-111039385D01*
X138491878Y-111585185D01*
X138909615Y-112002922D01*
X138936360Y-112014000D01*
X138909615Y-112025078D01*
X138491878Y-112442815D01*
X138265800Y-112988615D01*
X138265800Y-113579385D01*
X138491878Y-114125185D01*
X138909615Y-114542922D01*
X139455415Y-114769000D01*
X140046185Y-114769000D01*
X140591985Y-114542922D01*
X141009722Y-114125185D01*
X141010958Y-114122200D01*
X163410321Y-114122200D01*
X163644017Y-114219000D01*
X163753801Y-114219000D01*
X163753800Y-122606053D01*
X163719071Y-122554077D01*
X163719070Y-122554076D01*
X163672308Y-122484092D01*
X163602324Y-122437330D01*
X163134871Y-121969878D01*
X163088108Y-121899892D01*
X162810849Y-121714633D01*
X162566354Y-121666000D01*
X162566349Y-121666000D01*
X162483800Y-121649580D01*
X162401251Y-121666000D01*
X161110240Y-121666000D01*
X161110240Y-121604200D01*
X161060957Y-121356435D01*
X160920609Y-121146391D01*
X160710565Y-121006043D01*
X160694892Y-121002925D01*
X160864110Y-120833707D01*
X161097800Y-120269530D01*
X161097800Y-119658870D01*
X160864110Y-119094693D01*
X160432307Y-118662890D01*
X159868130Y-118429200D01*
X159257470Y-118429200D01*
X158693293Y-118662890D01*
X158261490Y-119094693D01*
X158027800Y-119658870D01*
X158027800Y-120269530D01*
X158261490Y-120833707D01*
X158430708Y-121002925D01*
X158415035Y-121006043D01*
X158204991Y-121146391D01*
X158064643Y-121356435D01*
X158015360Y-121604200D01*
X158015360Y-121666000D01*
X154506240Y-121666000D01*
X154506240Y-121604200D01*
X154456957Y-121356435D01*
X154316609Y-121146391D01*
X154106565Y-121006043D01*
X154090892Y-121002925D01*
X154260110Y-120833707D01*
X154493800Y-120269530D01*
X154493800Y-119658870D01*
X154260110Y-119094693D01*
X153828307Y-118662890D01*
X153264130Y-118429200D01*
X152653470Y-118429200D01*
X152089293Y-118662890D01*
X151657490Y-119094693D01*
X151423800Y-119658870D01*
X151423800Y-120269530D01*
X151657490Y-120833707D01*
X151826708Y-121002925D01*
X151811035Y-121006043D01*
X151600991Y-121146391D01*
X151460643Y-121356435D01*
X151411360Y-121604200D01*
X151411360Y-121666000D01*
X147902240Y-121666000D01*
X147902240Y-121604200D01*
X147852957Y-121356435D01*
X147712609Y-121146391D01*
X147502565Y-121006043D01*
X147486892Y-121002925D01*
X147656110Y-120833707D01*
X147889800Y-120269530D01*
X147889800Y-119658870D01*
X147656110Y-119094693D01*
X147224307Y-118662890D01*
X146660130Y-118429200D01*
X146049470Y-118429200D01*
X145485293Y-118662890D01*
X145053490Y-119094693D01*
X144819800Y-119658870D01*
X144819800Y-120269530D01*
X145053490Y-120833707D01*
X145222708Y-121002925D01*
X145207035Y-121006043D01*
X144996991Y-121146391D01*
X144856643Y-121356435D01*
X144807360Y-121604200D01*
X144807360Y-121666000D01*
X141298240Y-121666000D01*
X141298240Y-121604200D01*
X141248957Y-121356435D01*
X141108609Y-121146391D01*
X140898565Y-121006043D01*
X140882892Y-121002925D01*
X141052110Y-120833707D01*
X141285800Y-120269530D01*
X141285800Y-119658870D01*
X141052110Y-119094693D01*
X140620307Y-118662890D01*
X140056130Y-118429200D01*
X139445470Y-118429200D01*
X138881293Y-118662890D01*
X138449490Y-119094693D01*
X138215800Y-119658870D01*
X138215800Y-120269530D01*
X138449490Y-120833707D01*
X138618708Y-121002925D01*
X138603035Y-121006043D01*
X138392991Y-121146391D01*
X138252643Y-121356435D01*
X138203360Y-121604200D01*
X138203360Y-121666000D01*
X134694240Y-121666000D01*
X134694240Y-121604200D01*
X134644957Y-121356435D01*
X134504609Y-121146391D01*
X134294565Y-121006043D01*
X134278892Y-121002925D01*
X134448110Y-120833707D01*
X134681800Y-120269530D01*
X134681800Y-119658870D01*
X134448110Y-119094693D01*
X134016307Y-118662890D01*
X133452130Y-118429200D01*
X132841470Y-118429200D01*
X132277293Y-118662890D01*
X131845490Y-119094693D01*
X131611800Y-119658870D01*
X131611800Y-120269530D01*
X131845490Y-120833707D01*
X132014708Y-121002925D01*
X131999035Y-121006043D01*
X131788991Y-121146391D01*
X131648643Y-121356435D01*
X131599360Y-121604200D01*
X131599360Y-121666000D01*
X128090240Y-121666000D01*
X128090240Y-121604200D01*
X128040957Y-121356435D01*
X127900609Y-121146391D01*
X127690565Y-121006043D01*
X127674892Y-121002925D01*
X127844110Y-120833707D01*
X128077800Y-120269530D01*
X128077800Y-119658870D01*
X127844110Y-119094693D01*
X127412307Y-118662890D01*
X126848130Y-118429200D01*
X126237470Y-118429200D01*
X125673293Y-118662890D01*
X125241490Y-119094693D01*
X125007800Y-119658870D01*
X125007800Y-120269530D01*
X125241490Y-120833707D01*
X125410708Y-121002925D01*
X125395035Y-121006043D01*
X125184991Y-121146391D01*
X125044643Y-121356435D01*
X124995360Y-121604200D01*
X124995360Y-123404200D01*
X125044643Y-123651965D01*
X125184991Y-123862009D01*
X125395035Y-124002357D01*
X125642800Y-124051640D01*
X127442800Y-124051640D01*
X127690565Y-124002357D01*
X127900609Y-123862009D01*
X128040957Y-123651965D01*
X128090240Y-123404200D01*
X128090240Y-123342400D01*
X131599360Y-123342400D01*
X131599360Y-123404200D01*
X131648643Y-123651965D01*
X131788991Y-123862009D01*
X131999035Y-124002357D01*
X132246800Y-124051640D01*
X134046800Y-124051640D01*
X134294565Y-124002357D01*
X134504609Y-123862009D01*
X134644957Y-123651965D01*
X134694240Y-123404200D01*
X134694240Y-123342400D01*
X138203360Y-123342400D01*
X138203360Y-123404200D01*
X138252643Y-123651965D01*
X138392991Y-123862009D01*
X138603035Y-124002357D01*
X138850800Y-124051640D01*
X140650800Y-124051640D01*
X140898565Y-124002357D01*
X141108609Y-123862009D01*
X141248957Y-123651965D01*
X141298240Y-123404200D01*
X141298240Y-123342400D01*
X144807360Y-123342400D01*
X144807360Y-123404200D01*
X144856643Y-123651965D01*
X144996991Y-123862009D01*
X145207035Y-124002357D01*
X145454800Y-124051640D01*
X147254800Y-124051640D01*
X147502565Y-124002357D01*
X147712609Y-123862009D01*
X147852957Y-123651965D01*
X147902240Y-123404200D01*
X147902240Y-123342400D01*
X151411360Y-123342400D01*
X151411360Y-123404200D01*
X151460643Y-123651965D01*
X151600991Y-123862009D01*
X151811035Y-124002357D01*
X152058800Y-124051640D01*
X153858800Y-124051640D01*
X154106565Y-124002357D01*
X154316609Y-123862009D01*
X154456957Y-123651965D01*
X154506240Y-123404200D01*
X154506240Y-123342400D01*
X158015360Y-123342400D01*
X158015360Y-123404200D01*
X158064643Y-123651965D01*
X158204991Y-123862009D01*
X158415035Y-124002357D01*
X158662800Y-124051640D01*
X160462800Y-124051640D01*
X160710565Y-124002357D01*
X160920609Y-123862009D01*
X161060957Y-123651965D01*
X161110240Y-123404200D01*
X161110240Y-123342400D01*
X162136607Y-123342400D01*
X162229801Y-123435594D01*
X162229800Y-126326320D01*
X162133000Y-126560017D01*
X162133000Y-126931983D01*
X162275345Y-127275635D01*
X162538365Y-127538655D01*
X162811315Y-127651714D01*
X162786433Y-127688952D01*
X162737800Y-127933447D01*
X162737800Y-127933451D01*
X162721380Y-128016000D01*
X162737800Y-128098549D01*
X162737800Y-129442776D01*
X162606000Y-129416560D01*
X162006000Y-129416560D01*
X161758235Y-129465843D01*
X161548191Y-129606191D01*
X161407843Y-129816235D01*
X161358560Y-130064000D01*
X161358560Y-130225800D01*
X156883679Y-130225800D01*
X156649983Y-130129000D01*
X156278017Y-130129000D01*
X155934365Y-130271345D01*
X155671345Y-130534365D01*
X155529000Y-130878017D01*
X155529000Y-131249983D01*
X155671345Y-131593635D01*
X155827510Y-131749800D01*
X141897679Y-131749800D01*
X141663983Y-131653000D01*
X141292017Y-131653000D01*
X140948365Y-131795345D01*
X140685345Y-132058365D01*
X140543000Y-132402017D01*
X140543000Y-132765800D01*
X135293679Y-132765800D01*
X135059983Y-132669000D01*
X134688017Y-132669000D01*
X134344365Y-132811345D01*
X134081345Y-133074365D01*
X133939000Y-133418017D01*
X133939000Y-133789983D01*
X134081345Y-134133635D01*
X134344365Y-134396655D01*
X134688017Y-134539000D01*
X135059983Y-134539000D01*
X135293679Y-134442200D01*
X147147000Y-134442200D01*
X147147000Y-134797800D01*
X122085679Y-134797800D01*
X121851983Y-134701000D01*
X121480017Y-134701000D01*
X121136365Y-134843345D01*
X120873345Y-135106365D01*
X120731000Y-135450017D01*
X120731000Y-135821983D01*
X120873345Y-136165635D01*
X121136365Y-136428655D01*
X121480017Y-136571000D01*
X121851983Y-136571000D01*
X122085679Y-136474200D01*
X153751000Y-136474200D01*
X153751000Y-136829800D01*
X128689679Y-136829800D01*
X128455983Y-136733000D01*
X128084017Y-136733000D01*
X127740365Y-136875345D01*
X127477345Y-137138365D01*
X127335000Y-137482017D01*
X127335000Y-137853983D01*
X127477345Y-138197635D01*
X127740365Y-138460655D01*
X128084017Y-138603000D01*
X128455983Y-138603000D01*
X128689679Y-138506200D01*
X160355000Y-138506200D01*
X160355000Y-138869983D01*
X160497345Y-139213635D01*
X160760365Y-139476655D01*
X161104017Y-139619000D01*
X161358560Y-139619000D01*
X161358560Y-139625800D01*
X160061809Y-139625800D01*
X160051754Y-139623800D01*
X160051749Y-139623800D01*
X159969200Y-139607380D01*
X159886651Y-139623800D01*
X157899679Y-139623800D01*
X157665983Y-139527000D01*
X157294017Y-139527000D01*
X156950365Y-139669345D01*
X156687345Y-139932365D01*
X156545000Y-140276017D01*
X156545000Y-140647983D01*
X156687345Y-140991635D01*
X156950365Y-141254655D01*
X157294017Y-141397000D01*
X157665983Y-141397000D01*
X157899679Y-141300200D01*
X159878591Y-141300200D01*
X159888646Y-141302200D01*
X159888650Y-141302200D01*
X159971199Y-141318620D01*
X160053748Y-141302200D01*
X161358560Y-141302200D01*
X161358560Y-141464000D01*
X161407843Y-141711765D01*
X161548191Y-141921809D01*
X161758235Y-142062157D01*
X162006000Y-142111440D01*
X162606000Y-142111440D01*
X162853765Y-142062157D01*
X162941000Y-142003868D01*
X163028235Y-142062157D01*
X163276000Y-142111440D01*
X163876000Y-142111440D01*
X164123765Y-142062157D01*
X164211000Y-142003868D01*
X164298235Y-142062157D01*
X164546000Y-142111440D01*
X165146000Y-142111440D01*
X165393765Y-142062157D01*
X165481000Y-142003868D01*
X165568235Y-142062157D01*
X165816000Y-142111440D01*
X166416000Y-142111440D01*
X166663765Y-142062157D01*
X166751000Y-142003868D01*
X166838235Y-142062157D01*
X167086000Y-142111440D01*
X167686000Y-142111440D01*
X167767001Y-142095328D01*
X167767001Y-142152441D01*
X167749584Y-142240000D01*
X167818582Y-142586870D01*
X167893465Y-142698940D01*
X168015068Y-142880933D01*
X168089294Y-142930529D01*
X168720764Y-143562000D01*
X120736764Y-143562000D01*
X120037336Y-143490954D01*
X119400969Y-143291529D01*
X118817703Y-142968220D01*
X118311359Y-142534230D01*
X117902624Y-142007292D01*
X117608195Y-141408929D01*
X117437888Y-140755114D01*
X117397600Y-140231530D01*
X117397600Y-139834373D01*
X118597680Y-139834373D01*
X118597680Y-140673067D01*
X118918634Y-141447919D01*
X119511681Y-142040966D01*
X120286533Y-142361920D01*
X121125227Y-142361920D01*
X121900079Y-142040966D01*
X122493126Y-141447919D01*
X122814080Y-140673067D01*
X122814080Y-139834373D01*
X122493126Y-139059521D01*
X121900079Y-138466474D01*
X121125227Y-138145520D01*
X120286533Y-138145520D01*
X119511681Y-138466474D01*
X118918634Y-139059521D01*
X118597680Y-139834373D01*
X117397600Y-139834373D01*
X117397600Y-77963164D01*
X117443333Y-77512933D01*
X118597680Y-77512933D01*
X118597680Y-78351627D01*
X118918634Y-79126479D01*
X119511681Y-79719526D01*
X120286533Y-80040480D01*
X121125227Y-80040480D01*
X121900079Y-79719526D01*
X122493126Y-79126479D01*
X122814080Y-78351627D01*
X122814080Y-77512933D01*
X122493126Y-76738081D01*
X121900079Y-76145034D01*
X121125227Y-75824080D01*
X120286533Y-75824080D01*
X119511681Y-76145034D01*
X118918634Y-76738081D01*
X118597680Y-77512933D01*
X117443333Y-77512933D01*
X117468646Y-77263737D01*
X117668071Y-76627369D01*
X117991379Y-76044105D01*
X118425368Y-75537761D01*
X118952305Y-75129027D01*
X119550673Y-74834593D01*
X120204487Y-74664288D01*
X120728070Y-74624000D01*
X209564836Y-74624000D01*
X210264263Y-74695046D01*
X210264263Y-74695046D01*
G37*
X210264263Y-74695046D02*
X210900631Y-74894471D01*
X211483895Y-75217779D01*
X211990239Y-75651768D01*
X212398973Y-76178705D01*
X212693407Y-76777073D01*
X212863712Y-77430887D01*
X212904001Y-77954483D01*
X212904001Y-80801899D01*
X212882655Y-80750365D01*
X212619635Y-80487345D01*
X212275983Y-80345000D01*
X211904017Y-80345000D01*
X211670321Y-80441800D01*
X206421000Y-80441800D01*
X206421000Y-80332017D01*
X206278655Y-79988365D01*
X206015635Y-79725345D01*
X205671983Y-79583000D01*
X205300017Y-79583000D01*
X205066321Y-79679800D01*
X199817000Y-79679800D01*
X199817000Y-79570017D01*
X199674655Y-79226365D01*
X199411635Y-78963345D01*
X199067983Y-78821000D01*
X198696017Y-78821000D01*
X198462321Y-78917800D01*
X193213000Y-78917800D01*
X193213000Y-78833417D01*
X193070655Y-78489765D01*
X192807635Y-78226745D01*
X192463983Y-78084400D01*
X192092017Y-78084400D01*
X191858321Y-78181200D01*
X186609000Y-78181200D01*
X186609000Y-78071417D01*
X186466655Y-77727765D01*
X186251823Y-77512933D01*
X207487520Y-77512933D01*
X207487520Y-78351627D01*
X207808474Y-79126479D01*
X208401521Y-79719526D01*
X209176373Y-80040480D01*
X210015067Y-80040480D01*
X210789919Y-79719526D01*
X211382966Y-79126479D01*
X211703920Y-78351627D01*
X211703920Y-77512933D01*
X211382966Y-76738081D01*
X210789919Y-76145034D01*
X210015067Y-75824080D01*
X209176373Y-75824080D01*
X208401521Y-76145034D01*
X207808474Y-76738081D01*
X207487520Y-77512933D01*
X186251823Y-77512933D01*
X186203635Y-77464745D01*
X185859983Y-77322400D01*
X185488017Y-77322400D01*
X185254321Y-77419200D01*
X180005000Y-77419200D01*
X180005000Y-77284017D01*
X179862655Y-76940365D01*
X179599635Y-76677345D01*
X179255983Y-76535000D01*
X178884017Y-76535000D01*
X178650321Y-76631800D01*
X128689679Y-76631800D01*
X128455983Y-76535000D01*
X128084017Y-76535000D01*
X127740365Y-76677345D01*
X127477345Y-76940365D01*
X127335000Y-77284017D01*
X127335000Y-77655983D01*
X127477345Y-77999635D01*
X127740365Y-78262655D01*
X128084017Y-78405000D01*
X128455983Y-78405000D01*
X128689679Y-78308200D01*
X133939000Y-78308200D01*
X133939000Y-78443383D01*
X134081345Y-78787035D01*
X134344365Y-79050055D01*
X134688017Y-79192400D01*
X135059983Y-79192400D01*
X135293679Y-79095600D01*
X140543000Y-79095600D01*
X140543000Y-79205383D01*
X140685345Y-79549035D01*
X140948365Y-79812055D01*
X141292017Y-79954400D01*
X141663983Y-79954400D01*
X141897679Y-79857600D01*
X147147000Y-79857600D01*
X147147000Y-79941983D01*
X147289345Y-80285635D01*
X147552365Y-80548655D01*
X147896017Y-80691000D01*
X148267983Y-80691000D01*
X148501679Y-80594200D01*
X153751000Y-80594200D01*
X153751000Y-80703983D01*
X153893345Y-81047635D01*
X154156365Y-81310655D01*
X154500017Y-81453000D01*
X154871983Y-81453000D01*
X155105679Y-81356200D01*
X160355000Y-81356200D01*
X160355000Y-81465983D01*
X160497345Y-81809635D01*
X160760365Y-82072655D01*
X161104017Y-82215000D01*
X161475983Y-82215000D01*
X161709679Y-82118200D01*
X211670321Y-82118200D01*
X211904017Y-82215000D01*
X212275983Y-82215000D01*
X212619635Y-82072655D01*
X212882655Y-81809635D01*
X212904001Y-81758101D01*
X212904000Y-140222836D01*
X212832954Y-140922264D01*
X212633529Y-141558631D01*
X212310220Y-142141897D01*
X211876230Y-142648241D01*
X211349292Y-143056976D01*
X210750929Y-143351405D01*
X210097114Y-143521712D01*
X209573530Y-143562000D01*
X183069236Y-143562000D01*
X183192707Y-143438529D01*
X183266933Y-143388933D01*
X183463419Y-143094870D01*
X183515000Y-142835556D01*
X183515000Y-142835555D01*
X183532416Y-142748000D01*
X183515000Y-142660445D01*
X183515000Y-139834373D01*
X207487520Y-139834373D01*
X207487520Y-140673067D01*
X207808474Y-141447919D01*
X208401521Y-142040966D01*
X209176373Y-142361920D01*
X210015067Y-142361920D01*
X210789919Y-142040966D01*
X211382966Y-141447919D01*
X211703920Y-140673067D01*
X211703920Y-139834373D01*
X211382966Y-139059521D01*
X210789919Y-138466474D01*
X210015067Y-138145520D01*
X209176373Y-138145520D01*
X208401521Y-138466474D01*
X207808474Y-139059521D01*
X207487520Y-139834373D01*
X183515000Y-139834373D01*
X183515000Y-138915556D01*
X183532416Y-138828000D01*
X183463419Y-138481130D01*
X183444818Y-138453292D01*
X183266933Y-138187067D01*
X183192704Y-138137469D01*
X183004531Y-137949296D01*
X182954933Y-137875067D01*
X182660870Y-137678581D01*
X182401556Y-137627000D01*
X182401555Y-137627000D01*
X182372780Y-137621276D01*
X182263809Y-137458191D01*
X182053765Y-137317843D01*
X181806000Y-137268560D01*
X180906000Y-137268560D01*
X180658235Y-137317843D01*
X180448191Y-137458191D01*
X180307843Y-137668235D01*
X180258560Y-137916000D01*
X180258560Y-139116000D01*
X180307843Y-139363765D01*
X180448191Y-139573809D01*
X180658235Y-139714157D01*
X180906000Y-139763440D01*
X181737001Y-139763440D01*
X181737000Y-142379764D01*
X181495765Y-142621000D01*
X170294236Y-142621000D01*
X169545000Y-141871765D01*
X169545000Y-141725469D01*
X169554157Y-141711765D01*
X169603440Y-141464000D01*
X169603440Y-139464000D01*
X169554157Y-139216235D01*
X169413809Y-139006191D01*
X169203765Y-138865843D01*
X168956000Y-138816560D01*
X168356000Y-138816560D01*
X168224200Y-138842776D01*
X168224200Y-136226548D01*
X168240620Y-136143999D01*
X168224200Y-136061450D01*
X168224200Y-136061446D01*
X168175567Y-135816951D01*
X167990308Y-135539692D01*
X167920322Y-135492929D01*
X167885593Y-135458200D01*
X170340807Y-135458200D01*
X170357801Y-135475194D01*
X170357800Y-139126504D01*
X170297843Y-139216235D01*
X170248560Y-139464000D01*
X170248560Y-141464000D01*
X170297843Y-141711765D01*
X170438191Y-141921809D01*
X170648235Y-142062157D01*
X170896000Y-142111440D01*
X171496000Y-142111440D01*
X171743765Y-142062157D01*
X171831000Y-142003868D01*
X171918235Y-142062157D01*
X172166000Y-142111440D01*
X172766000Y-142111440D01*
X173013765Y-142062157D01*
X173101000Y-142003868D01*
X173188235Y-142062157D01*
X173436000Y-142111440D01*
X174036000Y-142111440D01*
X174283765Y-142062157D01*
X174371000Y-142003868D01*
X174458235Y-142062157D01*
X174706000Y-142111440D01*
X175306000Y-142111440D01*
X175553765Y-142062157D01*
X175641000Y-142003868D01*
X175728235Y-142062157D01*
X175976000Y-142111440D01*
X176576000Y-142111440D01*
X176823765Y-142062157D01*
X177033809Y-141921809D01*
X177174157Y-141711765D01*
X177223440Y-141464000D01*
X177223440Y-139464000D01*
X177174157Y-139216235D01*
X177033809Y-139006191D01*
X176823765Y-138865843D01*
X176576000Y-138816560D01*
X175976000Y-138816560D01*
X175844200Y-138842776D01*
X175844200Y-138216000D01*
X178047560Y-138216000D01*
X178047560Y-139416000D01*
X178096843Y-139663765D01*
X178237191Y-139873809D01*
X178447235Y-140014157D01*
X178695000Y-140063440D01*
X179445000Y-140063440D01*
X179692765Y-140014157D01*
X179902809Y-139873809D01*
X180043157Y-139663765D01*
X180092440Y-139416000D01*
X180092440Y-138216000D01*
X180043157Y-137968235D01*
X179908200Y-137766259D01*
X179908200Y-137406237D01*
X179954200Y-137295183D01*
X179954200Y-136923217D01*
X179811855Y-136579565D01*
X179548835Y-136316545D01*
X179205183Y-136174200D01*
X178833217Y-136174200D01*
X178489565Y-136316545D01*
X178226545Y-136579565D01*
X178084200Y-136923217D01*
X178084200Y-137295183D01*
X178226545Y-137638835D01*
X178231801Y-137644091D01*
X178231801Y-137766258D01*
X178096843Y-137968235D01*
X178047560Y-138216000D01*
X175844200Y-138216000D01*
X175844200Y-133178548D01*
X175860620Y-133095999D01*
X175844200Y-133013450D01*
X175844200Y-133013446D01*
X175795567Y-132768951D01*
X175720962Y-132657298D01*
X175728235Y-132662157D01*
X175976000Y-132711440D01*
X176576000Y-132711440D01*
X176823765Y-132662157D01*
X177033809Y-132521809D01*
X177174157Y-132311765D01*
X177223440Y-132064000D01*
X177223440Y-130064000D01*
X177174157Y-129816235D01*
X177114200Y-129726504D01*
X177114200Y-128943679D01*
X177211000Y-128709983D01*
X177211000Y-128338017D01*
X177068655Y-127994365D01*
X176805635Y-127731345D01*
X176461983Y-127589000D01*
X176090017Y-127589000D01*
X175844200Y-127690821D01*
X175844200Y-125641679D01*
X175941000Y-125407983D01*
X175941000Y-125036017D01*
X175798655Y-124692365D01*
X175535635Y-124429345D01*
X175191983Y-124287000D01*
X174820017Y-124287000D01*
X174574200Y-124388821D01*
X174574200Y-123342400D01*
X195607360Y-123342400D01*
X195607360Y-123404200D01*
X195656643Y-123651965D01*
X195796991Y-123862009D01*
X196007035Y-124002357D01*
X196254800Y-124051640D01*
X198054800Y-124051640D01*
X198302565Y-124002357D01*
X198512609Y-123862009D01*
X198652957Y-123651965D01*
X198702240Y-123404200D01*
X198702240Y-123342400D01*
X202211360Y-123342400D01*
X202211360Y-123404200D01*
X202260643Y-123651965D01*
X202400991Y-123862009D01*
X202611035Y-124002357D01*
X202858800Y-124051640D01*
X204658800Y-124051640D01*
X204906565Y-124002357D01*
X205116609Y-123862009D01*
X205256957Y-123651965D01*
X205306240Y-123404200D01*
X205306240Y-123342400D01*
X208815360Y-123342400D01*
X208815360Y-123404200D01*
X208864643Y-123651965D01*
X209004991Y-123862009D01*
X209215035Y-124002357D01*
X209462800Y-124051640D01*
X211262800Y-124051640D01*
X211510565Y-124002357D01*
X211720609Y-123862009D01*
X211860957Y-123651965D01*
X211910240Y-123404200D01*
X211910240Y-121604200D01*
X211860957Y-121356435D01*
X211720609Y-121146391D01*
X211510565Y-121006043D01*
X211494892Y-121002925D01*
X211664110Y-120833707D01*
X211897800Y-120269530D01*
X211897800Y-119658870D01*
X211664110Y-119094693D01*
X211232307Y-118662890D01*
X210668130Y-118429200D01*
X210057470Y-118429200D01*
X209493293Y-118662890D01*
X209061490Y-119094693D01*
X208827800Y-119658870D01*
X208827800Y-120269530D01*
X209061490Y-120833707D01*
X209230708Y-121002925D01*
X209215035Y-121006043D01*
X209004991Y-121146391D01*
X208864643Y-121356435D01*
X208815360Y-121604200D01*
X208815360Y-121666000D01*
X205306240Y-121666000D01*
X205306240Y-121604200D01*
X205256957Y-121356435D01*
X205116609Y-121146391D01*
X204906565Y-121006043D01*
X204890892Y-121002925D01*
X205060110Y-120833707D01*
X205293800Y-120269530D01*
X205293800Y-119658870D01*
X205060110Y-119094693D01*
X204628307Y-118662890D01*
X204064130Y-118429200D01*
X203453470Y-118429200D01*
X202889293Y-118662890D01*
X202457490Y-119094693D01*
X202223800Y-119658870D01*
X202223800Y-120269530D01*
X202457490Y-120833707D01*
X202626708Y-121002925D01*
X202611035Y-121006043D01*
X202400991Y-121146391D01*
X202260643Y-121356435D01*
X202211360Y-121604200D01*
X202211360Y-121666000D01*
X198702240Y-121666000D01*
X198702240Y-121604200D01*
X198652957Y-121356435D01*
X198512609Y-121146391D01*
X198302565Y-121006043D01*
X198286892Y-121002925D01*
X198456110Y-120833707D01*
X198689800Y-120269530D01*
X198689800Y-119658870D01*
X198456110Y-119094693D01*
X198024307Y-118662890D01*
X197460130Y-118429200D01*
X196849470Y-118429200D01*
X196285293Y-118662890D01*
X195853490Y-119094693D01*
X195619800Y-119658870D01*
X195619800Y-120269530D01*
X195853490Y-120833707D01*
X196022708Y-121002925D01*
X196007035Y-121006043D01*
X195796991Y-121146391D01*
X195656643Y-121356435D01*
X195607360Y-121604200D01*
X195607360Y-121666000D01*
X174047148Y-121666000D01*
X173964599Y-121649580D01*
X173882050Y-121666000D01*
X173882046Y-121666000D01*
X173637551Y-121714633D01*
X173360292Y-121899892D01*
X173313528Y-121969879D01*
X173201679Y-122081728D01*
X173131692Y-122128492D01*
X173050200Y-122250454D01*
X173050200Y-110448615D01*
X189065800Y-110448615D01*
X189065800Y-111039385D01*
X189291878Y-111585185D01*
X189709615Y-112002922D01*
X190255415Y-112229000D01*
X190846185Y-112229000D01*
X191391985Y-112002922D01*
X191809722Y-111585185D01*
X192035800Y-111039385D01*
X192035800Y-110448615D01*
X191809722Y-109902815D01*
X191391985Y-109485078D01*
X190846185Y-109259000D01*
X190255415Y-109259000D01*
X189709615Y-109485078D01*
X189291878Y-109902815D01*
X189065800Y-110448615D01*
X173050200Y-110448615D01*
X173050200Y-105562400D01*
X175795360Y-105562400D01*
X175795360Y-105624200D01*
X175844643Y-105871965D01*
X175984991Y-106082009D01*
X176195035Y-106222357D01*
X176442800Y-106271640D01*
X178242800Y-106271640D01*
X178490565Y-106222357D01*
X178700609Y-106082009D01*
X178840957Y-105871965D01*
X178890240Y-105624200D01*
X178890240Y-105562400D01*
X182399360Y-105562400D01*
X182399360Y-105624200D01*
X182448643Y-105871965D01*
X182588991Y-106082009D01*
X182799035Y-106222357D01*
X183046800Y-106271640D01*
X184846800Y-106271640D01*
X185094565Y-106222357D01*
X185304609Y-106082009D01*
X185444957Y-105871965D01*
X185494240Y-105624200D01*
X185494240Y-105562400D01*
X189003360Y-105562400D01*
X189003360Y-105624200D01*
X189052643Y-105871965D01*
X189192991Y-106082009D01*
X189403035Y-106222357D01*
X189650800Y-106271640D01*
X191450800Y-106271640D01*
X191698565Y-106222357D01*
X191908609Y-106082009D01*
X192048957Y-105871965D01*
X192098240Y-105624200D01*
X192098240Y-105562400D01*
X195607360Y-105562400D01*
X195607360Y-105624200D01*
X195656643Y-105871965D01*
X195796991Y-106082009D01*
X196007035Y-106222357D01*
X196254800Y-106271640D01*
X198054800Y-106271640D01*
X198302565Y-106222357D01*
X198512609Y-106082009D01*
X198652957Y-105871965D01*
X198702240Y-105624200D01*
X198702240Y-105562400D01*
X202211360Y-105562400D01*
X202211360Y-105624200D01*
X202260643Y-105871965D01*
X202400991Y-106082009D01*
X202611035Y-106222357D01*
X202858800Y-106271640D01*
X204658800Y-106271640D01*
X204906565Y-106222357D01*
X205116609Y-106082009D01*
X205256957Y-105871965D01*
X205306240Y-105624200D01*
X205306240Y-105562400D01*
X208815360Y-105562400D01*
X208815360Y-105624200D01*
X208864643Y-105871965D01*
X209004991Y-106082009D01*
X209215035Y-106222357D01*
X209462800Y-106271640D01*
X211262800Y-106271640D01*
X211510565Y-106222357D01*
X211720609Y-106082009D01*
X211860957Y-105871965D01*
X211910240Y-105624200D01*
X211910240Y-103824200D01*
X211860957Y-103576435D01*
X211720609Y-103366391D01*
X211510565Y-103226043D01*
X211494892Y-103222925D01*
X211664110Y-103053707D01*
X211897800Y-102489530D01*
X211897800Y-101878870D01*
X211664110Y-101314693D01*
X211232307Y-100882890D01*
X210668130Y-100649200D01*
X210057470Y-100649200D01*
X209493293Y-100882890D01*
X209061490Y-101314693D01*
X208827800Y-101878870D01*
X208827800Y-102489530D01*
X209061490Y-103053707D01*
X209230708Y-103222925D01*
X209215035Y-103226043D01*
X209004991Y-103366391D01*
X208864643Y-103576435D01*
X208815360Y-103824200D01*
X208815360Y-103886000D01*
X205306240Y-103886000D01*
X205306240Y-103824200D01*
X205256957Y-103576435D01*
X205116609Y-103366391D01*
X204906565Y-103226043D01*
X204890892Y-103222925D01*
X205060110Y-103053707D01*
X205293800Y-102489530D01*
X205293800Y-101878870D01*
X205060110Y-101314693D01*
X204628307Y-100882890D01*
X204064130Y-100649200D01*
X203453470Y-100649200D01*
X202889293Y-100882890D01*
X202457490Y-101314693D01*
X202223800Y-101878870D01*
X202223800Y-102489530D01*
X202457490Y-103053707D01*
X202626708Y-103222925D01*
X202611035Y-103226043D01*
X202400991Y-103366391D01*
X202260643Y-103576435D01*
X202211360Y-103824200D01*
X202211360Y-103886000D01*
X198702240Y-103886000D01*
X198702240Y-103824200D01*
X198652957Y-103576435D01*
X198512609Y-103366391D01*
X198302565Y-103226043D01*
X198286892Y-103222925D01*
X198456110Y-103053707D01*
X198689800Y-102489530D01*
X198689800Y-101878870D01*
X198456110Y-101314693D01*
X198024307Y-100882890D01*
X197460130Y-100649200D01*
X196849470Y-100649200D01*
X196285293Y-100882890D01*
X195853490Y-101314693D01*
X195619800Y-101878870D01*
X195619800Y-102489530D01*
X195853490Y-103053707D01*
X196022708Y-103222925D01*
X196007035Y-103226043D01*
X195796991Y-103366391D01*
X195656643Y-103576435D01*
X195607360Y-103824200D01*
X195607360Y-103886000D01*
X192098240Y-103886000D01*
X192098240Y-103824200D01*
X192048957Y-103576435D01*
X191908609Y-103366391D01*
X191698565Y-103226043D01*
X191682892Y-103222925D01*
X191852110Y-103053707D01*
X192085800Y-102489530D01*
X192085800Y-101878870D01*
X191852110Y-101314693D01*
X191420307Y-100882890D01*
X190856130Y-100649200D01*
X190245470Y-100649200D01*
X189681293Y-100882890D01*
X189249490Y-101314693D01*
X189015800Y-101878870D01*
X189015800Y-102489530D01*
X189249490Y-103053707D01*
X189418708Y-103222925D01*
X189403035Y-103226043D01*
X189192991Y-103366391D01*
X189052643Y-103576435D01*
X189003360Y-103824200D01*
X189003360Y-103886000D01*
X185494240Y-103886000D01*
X185494240Y-103824200D01*
X185444957Y-103576435D01*
X185304609Y-103366391D01*
X185094565Y-103226043D01*
X185078892Y-103222925D01*
X185248110Y-103053707D01*
X185481800Y-102489530D01*
X185481800Y-101878870D01*
X185248110Y-101314693D01*
X184816307Y-100882890D01*
X184252130Y-100649200D01*
X183641470Y-100649200D01*
X183077293Y-100882890D01*
X182645490Y-101314693D01*
X182411800Y-101878870D01*
X182411800Y-102489530D01*
X182645490Y-103053707D01*
X182814708Y-103222925D01*
X182799035Y-103226043D01*
X182588991Y-103366391D01*
X182448643Y-103576435D01*
X182399360Y-103824200D01*
X182399360Y-103886000D01*
X178890240Y-103886000D01*
X178890240Y-103824200D01*
X178840957Y-103576435D01*
X178700609Y-103366391D01*
X178490565Y-103226043D01*
X178474892Y-103222925D01*
X178644110Y-103053707D01*
X178877800Y-102489530D01*
X178877800Y-101878870D01*
X178644110Y-101314693D01*
X178212307Y-100882890D01*
X177648130Y-100649200D01*
X177037470Y-100649200D01*
X176473293Y-100882890D01*
X176041490Y-101314693D01*
X175807800Y-101878870D01*
X175807800Y-102489530D01*
X176041490Y-103053707D01*
X176210708Y-103222925D01*
X176195035Y-103226043D01*
X175984991Y-103366391D01*
X175844643Y-103576435D01*
X175795360Y-103824200D01*
X175795360Y-103886000D01*
X172675548Y-103886000D01*
X172592999Y-103869580D01*
X172510450Y-103886000D01*
X172510446Y-103886000D01*
X172265951Y-103934633D01*
X171988692Y-104119892D01*
X171941928Y-104189879D01*
X171677679Y-104454128D01*
X171607692Y-104500892D01*
X171526200Y-104622854D01*
X171526200Y-96536993D01*
X171644794Y-96418400D01*
X175795360Y-96418400D01*
X175795360Y-96480200D01*
X175844643Y-96727965D01*
X175984991Y-96938009D01*
X176195035Y-97078357D01*
X176442800Y-97127640D01*
X178242800Y-97127640D01*
X178490565Y-97078357D01*
X178700609Y-96938009D01*
X178840957Y-96727965D01*
X178890240Y-96480200D01*
X178890240Y-96418400D01*
X182399360Y-96418400D01*
X182399360Y-96480200D01*
X182448643Y-96727965D01*
X182588991Y-96938009D01*
X182799035Y-97078357D01*
X183046800Y-97127640D01*
X184846800Y-97127640D01*
X185094565Y-97078357D01*
X185304609Y-96938009D01*
X185444957Y-96727965D01*
X185494240Y-96480200D01*
X185494240Y-96418400D01*
X189003360Y-96418400D01*
X189003360Y-96480200D01*
X189052643Y-96727965D01*
X189192991Y-96938009D01*
X189403035Y-97078357D01*
X189650800Y-97127640D01*
X191450800Y-97127640D01*
X191698565Y-97078357D01*
X191908609Y-96938009D01*
X192048957Y-96727965D01*
X192098240Y-96480200D01*
X192098240Y-96418400D01*
X195607360Y-96418400D01*
X195607360Y-96480200D01*
X195656643Y-96727965D01*
X195796991Y-96938009D01*
X196007035Y-97078357D01*
X196254800Y-97127640D01*
X198054800Y-97127640D01*
X198302565Y-97078357D01*
X198512609Y-96938009D01*
X198652957Y-96727965D01*
X198702240Y-96480200D01*
X198702240Y-96418400D01*
X202211360Y-96418400D01*
X202211360Y-96480200D01*
X202260643Y-96727965D01*
X202400991Y-96938009D01*
X202611035Y-97078357D01*
X202858800Y-97127640D01*
X204658800Y-97127640D01*
X204906565Y-97078357D01*
X205116609Y-96938009D01*
X205256957Y-96727965D01*
X205306240Y-96480200D01*
X205306240Y-96418400D01*
X208815360Y-96418400D01*
X208815360Y-96480200D01*
X208864643Y-96727965D01*
X209004991Y-96938009D01*
X209215035Y-97078357D01*
X209462800Y-97127640D01*
X211262800Y-97127640D01*
X211510565Y-97078357D01*
X211720609Y-96938009D01*
X211860957Y-96727965D01*
X211910240Y-96480200D01*
X211910240Y-94680200D01*
X211860957Y-94432435D01*
X211720609Y-94222391D01*
X211510565Y-94082043D01*
X211494892Y-94078925D01*
X211664110Y-93909707D01*
X211897800Y-93345530D01*
X211897800Y-92734870D01*
X211664110Y-92170693D01*
X211232307Y-91738890D01*
X210668130Y-91505200D01*
X210057470Y-91505200D01*
X209493293Y-91738890D01*
X209061490Y-92170693D01*
X208827800Y-92734870D01*
X208827800Y-93345530D01*
X209061490Y-93909707D01*
X209230708Y-94078925D01*
X209215035Y-94082043D01*
X209004991Y-94222391D01*
X208864643Y-94432435D01*
X208815360Y-94680200D01*
X208815360Y-94742000D01*
X205306240Y-94742000D01*
X205306240Y-94680200D01*
X205256957Y-94432435D01*
X205116609Y-94222391D01*
X204906565Y-94082043D01*
X204890892Y-94078925D01*
X205060110Y-93909707D01*
X205293800Y-93345530D01*
X205293800Y-92734870D01*
X205060110Y-92170693D01*
X204628307Y-91738890D01*
X204064130Y-91505200D01*
X203453470Y-91505200D01*
X202889293Y-91738890D01*
X202457490Y-92170693D01*
X202223800Y-92734870D01*
X202223800Y-93345530D01*
X202457490Y-93909707D01*
X202626708Y-94078925D01*
X202611035Y-94082043D01*
X202400991Y-94222391D01*
X202260643Y-94432435D01*
X202211360Y-94680200D01*
X202211360Y-94742000D01*
X198702240Y-94742000D01*
X198702240Y-94680200D01*
X198652957Y-94432435D01*
X198512609Y-94222391D01*
X198302565Y-94082043D01*
X198286892Y-94078925D01*
X198456110Y-93909707D01*
X198689800Y-93345530D01*
X198689800Y-92734870D01*
X198456110Y-92170693D01*
X198024307Y-91738890D01*
X197460130Y-91505200D01*
X196849470Y-91505200D01*
X196285293Y-91738890D01*
X195853490Y-92170693D01*
X195619800Y-92734870D01*
X195619800Y-93345530D01*
X195853490Y-93909707D01*
X196022708Y-94078925D01*
X196007035Y-94082043D01*
X195796991Y-94222391D01*
X195656643Y-94432435D01*
X195607360Y-94680200D01*
X195607360Y-94742000D01*
X192098240Y-94742000D01*
X192098240Y-94680200D01*
X192048957Y-94432435D01*
X191908609Y-94222391D01*
X191698565Y-94082043D01*
X191682892Y-94078925D01*
X191852110Y-93909707D01*
X192085800Y-93345530D01*
X192085800Y-92734870D01*
X191852110Y-92170693D01*
X191420307Y-91738890D01*
X190856130Y-91505200D01*
X190245470Y-91505200D01*
X189681293Y-91738890D01*
X189249490Y-92170693D01*
X189015800Y-92734870D01*
X189015800Y-93345530D01*
X189249490Y-93909707D01*
X189418708Y-94078925D01*
X189403035Y-94082043D01*
X189192991Y-94222391D01*
X189052643Y-94432435D01*
X189003360Y-94680200D01*
X189003360Y-94742000D01*
X185494240Y-94742000D01*
X185494240Y-94680200D01*
X185444957Y-94432435D01*
X185304609Y-94222391D01*
X185094565Y-94082043D01*
X185078892Y-94078925D01*
X185248110Y-93909707D01*
X185481800Y-93345530D01*
X185481800Y-92734870D01*
X185248110Y-92170693D01*
X184816307Y-91738890D01*
X184252130Y-91505200D01*
X183641470Y-91505200D01*
X183077293Y-91738890D01*
X182645490Y-92170693D01*
X182411800Y-92734870D01*
X182411800Y-93345530D01*
X182645490Y-93909707D01*
X182814708Y-94078925D01*
X182799035Y-94082043D01*
X182588991Y-94222391D01*
X182448643Y-94432435D01*
X182399360Y-94680200D01*
X182399360Y-94742000D01*
X178890240Y-94742000D01*
X178890240Y-94680200D01*
X178840957Y-94432435D01*
X178700609Y-94222391D01*
X178490565Y-94082043D01*
X178474892Y-94078925D01*
X178644110Y-93909707D01*
X178877800Y-93345530D01*
X178877800Y-92734870D01*
X178644110Y-92170693D01*
X178212307Y-91738890D01*
X177648130Y-91505200D01*
X177037470Y-91505200D01*
X176473293Y-91738890D01*
X176041490Y-92170693D01*
X175807800Y-92734870D01*
X175807800Y-93345530D01*
X176041490Y-93909707D01*
X176210708Y-94078925D01*
X176195035Y-94082043D01*
X175984991Y-94222391D01*
X175844643Y-94432435D01*
X175795360Y-94680200D01*
X175795360Y-94742000D01*
X171380150Y-94742000D01*
X171297600Y-94725580D01*
X171215049Y-94742000D01*
X171215046Y-94742000D01*
X171025507Y-94779702D01*
X170970550Y-94790633D01*
X170763277Y-94929129D01*
X170763276Y-94929130D01*
X170693292Y-94975892D01*
X170646530Y-95045876D01*
X170153676Y-95538731D01*
X170083693Y-95585492D01*
X170036931Y-95655476D01*
X170036929Y-95655478D01*
X170002200Y-95707454D01*
X170002200Y-87274400D01*
X182399360Y-87274400D01*
X182399360Y-87336200D01*
X182448643Y-87583965D01*
X182588991Y-87794009D01*
X182799035Y-87934357D01*
X183046800Y-87983640D01*
X184846800Y-87983640D01*
X185094565Y-87934357D01*
X185304609Y-87794009D01*
X185444957Y-87583965D01*
X185494240Y-87336200D01*
X185494240Y-87274400D01*
X189003360Y-87274400D01*
X189003360Y-87336200D01*
X189052643Y-87583965D01*
X189192991Y-87794009D01*
X189403035Y-87934357D01*
X189650800Y-87983640D01*
X191450800Y-87983640D01*
X191698565Y-87934357D01*
X191908609Y-87794009D01*
X192048957Y-87583965D01*
X192098240Y-87336200D01*
X192098240Y-87274400D01*
X195607360Y-87274400D01*
X195607360Y-87336200D01*
X195656643Y-87583965D01*
X195796991Y-87794009D01*
X196007035Y-87934357D01*
X196254800Y-87983640D01*
X198054800Y-87983640D01*
X198302565Y-87934357D01*
X198512609Y-87794009D01*
X198652957Y-87583965D01*
X198702240Y-87336200D01*
X198702240Y-87274400D01*
X202211360Y-87274400D01*
X202211360Y-87336200D01*
X202260643Y-87583965D01*
X202400991Y-87794009D01*
X202611035Y-87934357D01*
X202858800Y-87983640D01*
X204658800Y-87983640D01*
X204906565Y-87934357D01*
X205116609Y-87794009D01*
X205256957Y-87583965D01*
X205306240Y-87336200D01*
X205306240Y-87274400D01*
X208815360Y-87274400D01*
X208815360Y-87336200D01*
X208864643Y-87583965D01*
X209004991Y-87794009D01*
X209215035Y-87934357D01*
X209462800Y-87983640D01*
X211262800Y-87983640D01*
X211510565Y-87934357D01*
X211720609Y-87794009D01*
X211860957Y-87583965D01*
X211910240Y-87336200D01*
X211910240Y-85536200D01*
X211860957Y-85288435D01*
X211720609Y-85078391D01*
X211510565Y-84938043D01*
X211494892Y-84934925D01*
X211664110Y-84765707D01*
X211897800Y-84201530D01*
X211897800Y-83590870D01*
X211664110Y-83026693D01*
X211232307Y-82594890D01*
X210668130Y-82361200D01*
X210057470Y-82361200D01*
X209493293Y-82594890D01*
X209061490Y-83026693D01*
X208827800Y-83590870D01*
X208827800Y-84201530D01*
X209061490Y-84765707D01*
X209230708Y-84934925D01*
X209215035Y-84938043D01*
X209004991Y-85078391D01*
X208864643Y-85288435D01*
X208815360Y-85536200D01*
X208815360Y-85598000D01*
X205306240Y-85598000D01*
X205306240Y-85536200D01*
X205256957Y-85288435D01*
X205116609Y-85078391D01*
X204906565Y-84938043D01*
X204890892Y-84934925D01*
X205060110Y-84765707D01*
X205293800Y-84201530D01*
X205293800Y-83590870D01*
X205060110Y-83026693D01*
X204628307Y-82594890D01*
X204064130Y-82361200D01*
X203453470Y-82361200D01*
X202889293Y-82594890D01*
X202457490Y-83026693D01*
X202223800Y-83590870D01*
X202223800Y-84201530D01*
X202457490Y-84765707D01*
X202626708Y-84934925D01*
X202611035Y-84938043D01*
X202400991Y-85078391D01*
X202260643Y-85288435D01*
X202211360Y-85536200D01*
X202211360Y-85598000D01*
X198702240Y-85598000D01*
X198702240Y-85536200D01*
X198652957Y-85288435D01*
X198512609Y-85078391D01*
X198302565Y-84938043D01*
X198286892Y-84934925D01*
X198456110Y-84765707D01*
X198689800Y-84201530D01*
X198689800Y-83590870D01*
X198456110Y-83026693D01*
X198024307Y-82594890D01*
X197460130Y-82361200D01*
X196849470Y-82361200D01*
X196285293Y-82594890D01*
X195853490Y-83026693D01*
X195619800Y-83590870D01*
X195619800Y-84201530D01*
X195853490Y-84765707D01*
X196022708Y-84934925D01*
X196007035Y-84938043D01*
X195796991Y-85078391D01*
X195656643Y-85288435D01*
X195607360Y-85536200D01*
X195607360Y-85598000D01*
X192098240Y-85598000D01*
X192098240Y-85536200D01*
X192048957Y-85288435D01*
X191908609Y-85078391D01*
X191698565Y-84938043D01*
X191682892Y-84934925D01*
X191852110Y-84765707D01*
X192085800Y-84201530D01*
X192085800Y-83590870D01*
X191852110Y-83026693D01*
X191420307Y-82594890D01*
X190856130Y-82361200D01*
X190245470Y-82361200D01*
X189681293Y-82594890D01*
X189249490Y-83026693D01*
X189015800Y-83590870D01*
X189015800Y-84201530D01*
X189249490Y-84765707D01*
X189418708Y-84934925D01*
X189403035Y-84938043D01*
X189192991Y-85078391D01*
X189052643Y-85288435D01*
X189003360Y-85536200D01*
X189003360Y-85598000D01*
X185494240Y-85598000D01*
X185494240Y-85536200D01*
X185444957Y-85288435D01*
X185304609Y-85078391D01*
X185094565Y-84938043D01*
X185078892Y-84934925D01*
X185248110Y-84765707D01*
X185481800Y-84201530D01*
X185481800Y-83590870D01*
X185248110Y-83026693D01*
X184816307Y-82594890D01*
X184252130Y-82361200D01*
X183641470Y-82361200D01*
X183077293Y-82594890D01*
X182645490Y-83026693D01*
X182411800Y-83590870D01*
X182411800Y-84201530D01*
X182645490Y-84765707D01*
X182814708Y-84934925D01*
X182799035Y-84938043D01*
X182588991Y-85078391D01*
X182448643Y-85288435D01*
X182399360Y-85536200D01*
X182399360Y-85598000D01*
X169678348Y-85598000D01*
X169595799Y-85581580D01*
X169513250Y-85598000D01*
X169513246Y-85598000D01*
X169268751Y-85646633D01*
X168991492Y-85831892D01*
X168944728Y-85901879D01*
X168629677Y-86216930D01*
X168559693Y-86263692D01*
X168512931Y-86333676D01*
X168512929Y-86333678D01*
X168402000Y-86499695D01*
X168244308Y-86263692D01*
X168174321Y-86216928D01*
X167859272Y-85901879D01*
X167812508Y-85831892D01*
X167535249Y-85646633D01*
X167290754Y-85598000D01*
X167290749Y-85598000D01*
X167208200Y-85581580D01*
X167125651Y-85598000D01*
X161110240Y-85598000D01*
X161110240Y-85536200D01*
X161060957Y-85288435D01*
X160920609Y-85078391D01*
X160710565Y-84938043D01*
X160694892Y-84934925D01*
X160864110Y-84765707D01*
X161097800Y-84201530D01*
X161097800Y-83590870D01*
X160864110Y-83026693D01*
X160432307Y-82594890D01*
X159868130Y-82361200D01*
X159257470Y-82361200D01*
X158693293Y-82594890D01*
X158261490Y-83026693D01*
X158027800Y-83590870D01*
X158027800Y-84201530D01*
X158261490Y-84765707D01*
X158430708Y-84934925D01*
X158415035Y-84938043D01*
X158204991Y-85078391D01*
X158064643Y-85288435D01*
X158015360Y-85536200D01*
X158015360Y-85598000D01*
X154506240Y-85598000D01*
X154506240Y-85536200D01*
X154456957Y-85288435D01*
X154316609Y-85078391D01*
X154106565Y-84938043D01*
X154090892Y-84934925D01*
X154260110Y-84765707D01*
X154493800Y-84201530D01*
X154493800Y-83590870D01*
X154260110Y-83026693D01*
X153828307Y-82594890D01*
X153264130Y-82361200D01*
X152653470Y-82361200D01*
X152089293Y-82594890D01*
X151657490Y-83026693D01*
X151423800Y-83590870D01*
X151423800Y-84201530D01*
X151657490Y-84765707D01*
X151826708Y-84934925D01*
X151811035Y-84938043D01*
X151600991Y-85078391D01*
X151460643Y-85288435D01*
X151411360Y-85536200D01*
X151411360Y-85598000D01*
X147902240Y-85598000D01*
X147902240Y-85536200D01*
X147852957Y-85288435D01*
X147712609Y-85078391D01*
X147502565Y-84938043D01*
X147486892Y-84934925D01*
X147656110Y-84765707D01*
X147889800Y-84201530D01*
X147889800Y-83590870D01*
X147656110Y-83026693D01*
X147224307Y-82594890D01*
X146660130Y-82361200D01*
X146049470Y-82361200D01*
X145485293Y-82594890D01*
X145053490Y-83026693D01*
X144819800Y-83590870D01*
X144819800Y-84201530D01*
X145053490Y-84765707D01*
X145222708Y-84934925D01*
X145207035Y-84938043D01*
X144996991Y-85078391D01*
X144856643Y-85288435D01*
X144807360Y-85536200D01*
X144807360Y-85598000D01*
X141298240Y-85598000D01*
X141298240Y-85536200D01*
X141248957Y-85288435D01*
X141108609Y-85078391D01*
X140898565Y-84938043D01*
X140882892Y-84934925D01*
X141052110Y-84765707D01*
X141285800Y-84201530D01*
X141285800Y-83590870D01*
X141052110Y-83026693D01*
X140620307Y-82594890D01*
X140056130Y-82361200D01*
X139445470Y-82361200D01*
X138881293Y-82594890D01*
X138449490Y-83026693D01*
X138215800Y-83590870D01*
X138215800Y-84201530D01*
X138449490Y-84765707D01*
X138618708Y-84934925D01*
X138603035Y-84938043D01*
X138392991Y-85078391D01*
X138252643Y-85288435D01*
X138203360Y-85536200D01*
X138203360Y-85598000D01*
X134694240Y-85598000D01*
X134694240Y-85536200D01*
X134644957Y-85288435D01*
X134504609Y-85078391D01*
X134294565Y-84938043D01*
X134278892Y-84934925D01*
X134448110Y-84765707D01*
X134681800Y-84201530D01*
X134681800Y-83590870D01*
X134448110Y-83026693D01*
X134016307Y-82594890D01*
X133452130Y-82361200D01*
X132841470Y-82361200D01*
X132277293Y-82594890D01*
X131845490Y-83026693D01*
X131611800Y-83590870D01*
X131611800Y-84201530D01*
X131845490Y-84765707D01*
X132014708Y-84934925D01*
X131999035Y-84938043D01*
X131788991Y-85078391D01*
X131648643Y-85288435D01*
X131599360Y-85536200D01*
X131599360Y-85598000D01*
X128090240Y-85598000D01*
X128090240Y-85536200D01*
X128040957Y-85288435D01*
X127900609Y-85078391D01*
X127690565Y-84938043D01*
X127674892Y-84934925D01*
X127844110Y-84765707D01*
X128077800Y-84201530D01*
X128077800Y-83590870D01*
X127844110Y-83026693D01*
X127412307Y-82594890D01*
X126848130Y-82361200D01*
X126237470Y-82361200D01*
X125673293Y-82594890D01*
X125241490Y-83026693D01*
X125007800Y-83590870D01*
X125007800Y-84201530D01*
X125241490Y-84765707D01*
X125410708Y-84934925D01*
X125395035Y-84938043D01*
X125184991Y-85078391D01*
X125044643Y-85288435D01*
X124995360Y-85536200D01*
X124995360Y-85598000D01*
X121486240Y-85598000D01*
X121486240Y-85536200D01*
X121436957Y-85288435D01*
X121296609Y-85078391D01*
X121086565Y-84938043D01*
X121070892Y-84934925D01*
X121240110Y-84765707D01*
X121473800Y-84201530D01*
X121473800Y-83590870D01*
X121240110Y-83026693D01*
X120808307Y-82594890D01*
X120244130Y-82361200D01*
X119633470Y-82361200D01*
X119069293Y-82594890D01*
X118637490Y-83026693D01*
X118403800Y-83590870D01*
X118403800Y-84201530D01*
X118637490Y-84765707D01*
X118806708Y-84934925D01*
X118791035Y-84938043D01*
X118580991Y-85078391D01*
X118440643Y-85288435D01*
X118391360Y-85536200D01*
X118391360Y-87336200D01*
X118440643Y-87583965D01*
X118580991Y-87794009D01*
X118791035Y-87934357D01*
X119038800Y-87983640D01*
X120838800Y-87983640D01*
X121086565Y-87934357D01*
X121296609Y-87794009D01*
X121436957Y-87583965D01*
X121486240Y-87336200D01*
X121486240Y-87274400D01*
X124995360Y-87274400D01*
X124995360Y-87336200D01*
X125044643Y-87583965D01*
X125184991Y-87794009D01*
X125395035Y-87934357D01*
X125642800Y-87983640D01*
X127442800Y-87983640D01*
X127690565Y-87934357D01*
X127900609Y-87794009D01*
X128040957Y-87583965D01*
X128090240Y-87336200D01*
X128090240Y-87274400D01*
X131599360Y-87274400D01*
X131599360Y-87336200D01*
X131648643Y-87583965D01*
X131788991Y-87794009D01*
X131999035Y-87934357D01*
X132246800Y-87983640D01*
X134046800Y-87983640D01*
X134294565Y-87934357D01*
X134504609Y-87794009D01*
X134644957Y-87583965D01*
X134694240Y-87336200D01*
X134694240Y-87274400D01*
X138203360Y-87274400D01*
X138203360Y-87336200D01*
X138252643Y-87583965D01*
X138392991Y-87794009D01*
X138603035Y-87934357D01*
X138850800Y-87983640D01*
X140650800Y-87983640D01*
X140898565Y-87934357D01*
X141108609Y-87794009D01*
X141248957Y-87583965D01*
X141298240Y-87336200D01*
X141298240Y-87274400D01*
X144807360Y-87274400D01*
X144807360Y-87336200D01*
X144856643Y-87583965D01*
X144996991Y-87794009D01*
X145207035Y-87934357D01*
X145454800Y-87983640D01*
X147254800Y-87983640D01*
X147502565Y-87934357D01*
X147712609Y-87794009D01*
X147852957Y-87583965D01*
X147902240Y-87336200D01*
X147902240Y-87274400D01*
X151411360Y-87274400D01*
X151411360Y-87336200D01*
X151460643Y-87583965D01*
X151600991Y-87794009D01*
X151811035Y-87934357D01*
X152058800Y-87983640D01*
X153858800Y-87983640D01*
X154106565Y-87934357D01*
X154316609Y-87794009D01*
X154456957Y-87583965D01*
X154506240Y-87336200D01*
X154506240Y-87274400D01*
X158015360Y-87274400D01*
X158015360Y-87336200D01*
X158064643Y-87583965D01*
X158204991Y-87794009D01*
X158415035Y-87934357D01*
X158662800Y-87983640D01*
X160462800Y-87983640D01*
X160710565Y-87934357D01*
X160920609Y-87794009D01*
X161060957Y-87583965D01*
X161110240Y-87336200D01*
X161110240Y-87274400D01*
X166801801Y-87274400D01*
X166801801Y-95580454D01*
X166720308Y-95458492D01*
X166650322Y-95411729D01*
X166284472Y-95045879D01*
X166237708Y-94975892D01*
X165960449Y-94790633D01*
X165715954Y-94742000D01*
X165715949Y-94742000D01*
X165633400Y-94725580D01*
X165550851Y-94742000D01*
X161110240Y-94742000D01*
X161110240Y-94680200D01*
X161060957Y-94432435D01*
X160920609Y-94222391D01*
X160710565Y-94082043D01*
X160694892Y-94078925D01*
X160864110Y-93909707D01*
X161097800Y-93345530D01*
X161097800Y-92734870D01*
X160864110Y-92170693D01*
X160432307Y-91738890D01*
X159868130Y-91505200D01*
X159257470Y-91505200D01*
X158693293Y-91738890D01*
X158261490Y-92170693D01*
X158027800Y-92734870D01*
X158027800Y-93345530D01*
X158261490Y-93909707D01*
X158430708Y-94078925D01*
X158415035Y-94082043D01*
X158204991Y-94222391D01*
X158064643Y-94432435D01*
X158015360Y-94680200D01*
X158015360Y-94742000D01*
X154506240Y-94742000D01*
X154506240Y-94680200D01*
X154456957Y-94432435D01*
X154316609Y-94222391D01*
X154106565Y-94082043D01*
X154090892Y-94078925D01*
X154260110Y-93909707D01*
X154493800Y-93345530D01*
X154493800Y-92734870D01*
X154260110Y-92170693D01*
X153828307Y-91738890D01*
X153264130Y-91505200D01*
X152653470Y-91505200D01*
X152089293Y-91738890D01*
X151657490Y-92170693D01*
X151423800Y-92734870D01*
X151423800Y-93345530D01*
X151657490Y-93909707D01*
X151826708Y-94078925D01*
X151811035Y-94082043D01*
X151600991Y-94222391D01*
X151460643Y-94432435D01*
X151411360Y-94680200D01*
X151411360Y-94742000D01*
X147902240Y-94742000D01*
X147902240Y-94680200D01*
X147852957Y-94432435D01*
X147712609Y-94222391D01*
X147502565Y-94082043D01*
X147486892Y-94078925D01*
X147656110Y-93909707D01*
X147889800Y-93345530D01*
X147889800Y-92734870D01*
X147656110Y-92170693D01*
X147224307Y-91738890D01*
X146660130Y-91505200D01*
X146049470Y-91505200D01*
X145485293Y-91738890D01*
X145053490Y-92170693D01*
X144819800Y-92734870D01*
X144819800Y-93345530D01*
X145053490Y-93909707D01*
X145222708Y-94078925D01*
X145207035Y-94082043D01*
X144996991Y-94222391D01*
X144856643Y-94432435D01*
X144807360Y-94680200D01*
X144807360Y-94742000D01*
X141298240Y-94742000D01*
X141298240Y-94680200D01*
X141248957Y-94432435D01*
X141108609Y-94222391D01*
X140898565Y-94082043D01*
X140882892Y-94078925D01*
X141052110Y-93909707D01*
X141285800Y-93345530D01*
X141285800Y-92734870D01*
X141052110Y-92170693D01*
X140620307Y-91738890D01*
X140056130Y-91505200D01*
X139445470Y-91505200D01*
X138881293Y-91738890D01*
X138449490Y-92170693D01*
X138215800Y-92734870D01*
X138215800Y-93345530D01*
X138449490Y-93909707D01*
X138618708Y-94078925D01*
X138603035Y-94082043D01*
X138392991Y-94222391D01*
X138252643Y-94432435D01*
X138203360Y-94680200D01*
X138203360Y-96480200D01*
X138252643Y-96727965D01*
X138392991Y-96938009D01*
X138603035Y-97078357D01*
X138850800Y-97127640D01*
X140650800Y-97127640D01*
X140898565Y-97078357D01*
X141108609Y-96938009D01*
X141248957Y-96727965D01*
X141298240Y-96480200D01*
X141298240Y-96418400D01*
X144807360Y-96418400D01*
X144807360Y-96480200D01*
X144856643Y-96727965D01*
X144996991Y-96938009D01*
X145207035Y-97078357D01*
X145454800Y-97127640D01*
X147254800Y-97127640D01*
X147502565Y-97078357D01*
X147712609Y-96938009D01*
X147852957Y-96727965D01*
X147902240Y-96480200D01*
X147902240Y-96418400D01*
X151411360Y-96418400D01*
X151411360Y-96480200D01*
X151460643Y-96727965D01*
X151600991Y-96938009D01*
X151811035Y-97078357D01*
X152058800Y-97127640D01*
X153858800Y-97127640D01*
X154106565Y-97078357D01*
X154316609Y-96938009D01*
X154456957Y-96727965D01*
X154506240Y-96480200D01*
X154506240Y-96418400D01*
X158015360Y-96418400D01*
X158015360Y-96480200D01*
X158064643Y-96727965D01*
X158204991Y-96938009D01*
X158415035Y-97078357D01*
X158662800Y-97127640D01*
X160462800Y-97127640D01*
X160710565Y-97078357D01*
X160920609Y-96938009D01*
X161060957Y-96727965D01*
X161110240Y-96480200D01*
X161110240Y-96418400D01*
X165277800Y-96418400D01*
X165277800Y-104622854D01*
X165196308Y-104500892D01*
X165126321Y-104454128D01*
X164862072Y-104189879D01*
X164815308Y-104119892D01*
X164538049Y-103934633D01*
X164293554Y-103886000D01*
X164293549Y-103886000D01*
X164211000Y-103869580D01*
X164128451Y-103886000D01*
X161110240Y-103886000D01*
X161110240Y-103824200D01*
X161060957Y-103576435D01*
X160920609Y-103366391D01*
X160710565Y-103226043D01*
X160694892Y-103222925D01*
X160864110Y-103053707D01*
X161097800Y-102489530D01*
X161097800Y-101878870D01*
X160864110Y-101314693D01*
X160432307Y-100882890D01*
X159868130Y-100649200D01*
X159257470Y-100649200D01*
X158693293Y-100882890D01*
X158261490Y-101314693D01*
X158027800Y-101878870D01*
X158027800Y-102489530D01*
X158261490Y-103053707D01*
X158430708Y-103222925D01*
X158415035Y-103226043D01*
X158204991Y-103366391D01*
X158064643Y-103576435D01*
X158015360Y-103824200D01*
X158015360Y-103886000D01*
X154506240Y-103886000D01*
X154506240Y-103824200D01*
X154456957Y-103576435D01*
X154316609Y-103366391D01*
X154106565Y-103226043D01*
X154090892Y-103222925D01*
X154260110Y-103053707D01*
X154493800Y-102489530D01*
X154493800Y-101878870D01*
X154260110Y-101314693D01*
X153828307Y-100882890D01*
X153264130Y-100649200D01*
X152653470Y-100649200D01*
X152089293Y-100882890D01*
X151657490Y-101314693D01*
X151423800Y-101878870D01*
X151423800Y-102489530D01*
X151657490Y-103053707D01*
X151826708Y-103222925D01*
X151811035Y-103226043D01*
X151600991Y-103366391D01*
X151460643Y-103576435D01*
X151411360Y-103824200D01*
X151411360Y-103886000D01*
X147902240Y-103886000D01*
X147902240Y-103824200D01*
X147852957Y-103576435D01*
X147712609Y-103366391D01*
X147502565Y-103226043D01*
X147486892Y-103222925D01*
X147656110Y-103053707D01*
X147889800Y-102489530D01*
X147889800Y-101878870D01*
X147656110Y-101314693D01*
X147224307Y-100882890D01*
X146660130Y-100649200D01*
X146049470Y-100649200D01*
X145485293Y-100882890D01*
X145053490Y-101314693D01*
X144819800Y-101878870D01*
X144819800Y-102489530D01*
X145053490Y-103053707D01*
X145222708Y-103222925D01*
X145207035Y-103226043D01*
X144996991Y-103366391D01*
X144856643Y-103576435D01*
X144807360Y-103824200D01*
X144807360Y-103886000D01*
X141298240Y-103886000D01*
X141298240Y-103824200D01*
X141248957Y-103576435D01*
X141108609Y-103366391D01*
X140898565Y-103226043D01*
X140882892Y-103222925D01*
X141052110Y-103053707D01*
X141285800Y-102489530D01*
X141285800Y-101878870D01*
X141052110Y-101314693D01*
X140620307Y-100882890D01*
X140056130Y-100649200D01*
X139445470Y-100649200D01*
X138881293Y-100882890D01*
X138449490Y-101314693D01*
X138215800Y-101878870D01*
X138215800Y-102489530D01*
X138449490Y-103053707D01*
X138618708Y-103222925D01*
X138603035Y-103226043D01*
X138392991Y-103366391D01*
X138252643Y-103576435D01*
X138203360Y-103824200D01*
X138203360Y-103886000D01*
X134694240Y-103886000D01*
X134694240Y-103824200D01*
X134644957Y-103576435D01*
X134504609Y-103366391D01*
X134294565Y-103226043D01*
X134278892Y-103222925D01*
X134448110Y-103053707D01*
X134681800Y-102489530D01*
X134681800Y-101878870D01*
X134448110Y-101314693D01*
X134016307Y-100882890D01*
X133452130Y-100649200D01*
X132841470Y-100649200D01*
X132277293Y-100882890D01*
X131845490Y-101314693D01*
X131611800Y-101878870D01*
X131611800Y-102489530D01*
X131845490Y-103053707D01*
X132014708Y-103222925D01*
X131999035Y-103226043D01*
X131788991Y-103366391D01*
X131648643Y-103576435D01*
X131599360Y-103824200D01*
X131599360Y-105624200D01*
X131648643Y-105871965D01*
X131788991Y-106082009D01*
X131999035Y-106222357D01*
X132246800Y-106271640D01*
X134046800Y-106271640D01*
X134294565Y-106222357D01*
X134504609Y-106082009D01*
X134644957Y-105871965D01*
X134694240Y-105624200D01*
X134694240Y-105562400D01*
X138203360Y-105562400D01*
X138203360Y-105624200D01*
X138252643Y-105871965D01*
X138392991Y-106082009D01*
X138603035Y-106222357D01*
X138850800Y-106271640D01*
X140650800Y-106271640D01*
X140898565Y-106222357D01*
X141108609Y-106082009D01*
X141248957Y-105871965D01*
X141298240Y-105624200D01*
X141298240Y-105562400D01*
X144807360Y-105562400D01*
X144807360Y-105624200D01*
X144856643Y-105871965D01*
X144996991Y-106082009D01*
X145207035Y-106222357D01*
X145454800Y-106271640D01*
X147254800Y-106271640D01*
X147502565Y-106222357D01*
X147712609Y-106082009D01*
X147852957Y-105871965D01*
X147902240Y-105624200D01*
X147902240Y-105562400D01*
X151411360Y-105562400D01*
X151411360Y-105624200D01*
X151460643Y-105871965D01*
X151600991Y-106082009D01*
X151811035Y-106222357D01*
X152058800Y-106271640D01*
X153858800Y-106271640D01*
X154106565Y-106222357D01*
X154316609Y-106082009D01*
X154456957Y-105871965D01*
X154506240Y-105624200D01*
X154506240Y-105562400D01*
X158015360Y-105562400D01*
X158015360Y-105624200D01*
X158064643Y-105871965D01*
X158204991Y-106082009D01*
X158415035Y-106222357D01*
X158662800Y-106271640D01*
X160462800Y-106271640D01*
X160710565Y-106222357D01*
X160920609Y-106082009D01*
X161060957Y-105871965D01*
X161110240Y-105624200D01*
X161110240Y-105562400D01*
X163753801Y-105562400D01*
X163753801Y-112349000D01*
X163644017Y-112349000D01*
X163410321Y-112445800D01*
X141010958Y-112445800D01*
X141009722Y-112442815D01*
X140591985Y-112025078D01*
X140565240Y-112014000D01*
X140591985Y-112002922D01*
X141009722Y-111585185D01*
X141010958Y-111582200D01*
X156044321Y-111582200D01*
X156278017Y-111679000D01*
X156649983Y-111679000D01*
X156993635Y-111536655D01*
X157256655Y-111273635D01*
X157399000Y-110929983D01*
X157399000Y-110558017D01*
X157256655Y-110214365D01*
X156993635Y-109951345D01*
X156649983Y-109809000D01*
X156278017Y-109809000D01*
X156044321Y-109905800D01*
X141010958Y-109905800D01*
X141009722Y-109902815D01*
X140591985Y-109485078D01*
X140565240Y-109474000D01*
X140591985Y-109462922D01*
X141009722Y-109045185D01*
X141010958Y-109042200D01*
X157060321Y-109042200D01*
X157294017Y-109139000D01*
X157665983Y-109139000D01*
X158009635Y-108996655D01*
X158272655Y-108733635D01*
X158415000Y-108389983D01*
X158415000Y-108018017D01*
X158272655Y-107674365D01*
X158009635Y-107411345D01*
X157665983Y-107269000D01*
X157294017Y-107269000D01*
X157060321Y-107365800D01*
X141010958Y-107365800D01*
X141009722Y-107362815D01*
X140591985Y-106945078D01*
X140046185Y-106719000D01*
X139455415Y-106719000D01*
X138909615Y-106945078D01*
X138491878Y-107362815D01*
X138265800Y-107908615D01*
X138265800Y-108499385D01*
X138491878Y-109045185D01*
X138909615Y-109462922D01*
X138936360Y-109474000D01*
X138909615Y-109485078D01*
X138491878Y-109902815D01*
X138265800Y-110448615D01*
X138265800Y-111039385D01*
X138491878Y-111585185D01*
X138909615Y-112002922D01*
X138936360Y-112014000D01*
X138909615Y-112025078D01*
X138491878Y-112442815D01*
X138265800Y-112988615D01*
X138265800Y-113579385D01*
X138491878Y-114125185D01*
X138909615Y-114542922D01*
X139455415Y-114769000D01*
X140046185Y-114769000D01*
X140591985Y-114542922D01*
X141009722Y-114125185D01*
X141010958Y-114122200D01*
X163410321Y-114122200D01*
X163644017Y-114219000D01*
X163753801Y-114219000D01*
X163753800Y-122606053D01*
X163719071Y-122554077D01*
X163719070Y-122554076D01*
X163672308Y-122484092D01*
X163602324Y-122437330D01*
X163134871Y-121969878D01*
X163088108Y-121899892D01*
X162810849Y-121714633D01*
X162566354Y-121666000D01*
X162566349Y-121666000D01*
X162483800Y-121649580D01*
X162401251Y-121666000D01*
X161110240Y-121666000D01*
X161110240Y-121604200D01*
X161060957Y-121356435D01*
X160920609Y-121146391D01*
X160710565Y-121006043D01*
X160694892Y-121002925D01*
X160864110Y-120833707D01*
X161097800Y-120269530D01*
X161097800Y-119658870D01*
X160864110Y-119094693D01*
X160432307Y-118662890D01*
X159868130Y-118429200D01*
X159257470Y-118429200D01*
X158693293Y-118662890D01*
X158261490Y-119094693D01*
X158027800Y-119658870D01*
X158027800Y-120269530D01*
X158261490Y-120833707D01*
X158430708Y-121002925D01*
X158415035Y-121006043D01*
X158204991Y-121146391D01*
X158064643Y-121356435D01*
X158015360Y-121604200D01*
X158015360Y-121666000D01*
X154506240Y-121666000D01*
X154506240Y-121604200D01*
X154456957Y-121356435D01*
X154316609Y-121146391D01*
X154106565Y-121006043D01*
X154090892Y-121002925D01*
X154260110Y-120833707D01*
X154493800Y-120269530D01*
X154493800Y-119658870D01*
X154260110Y-119094693D01*
X153828307Y-118662890D01*
X153264130Y-118429200D01*
X152653470Y-118429200D01*
X152089293Y-118662890D01*
X151657490Y-119094693D01*
X151423800Y-119658870D01*
X151423800Y-120269530D01*
X151657490Y-120833707D01*
X151826708Y-121002925D01*
X151811035Y-121006043D01*
X151600991Y-121146391D01*
X151460643Y-121356435D01*
X151411360Y-121604200D01*
X151411360Y-121666000D01*
X147902240Y-121666000D01*
X147902240Y-121604200D01*
X147852957Y-121356435D01*
X147712609Y-121146391D01*
X147502565Y-121006043D01*
X147486892Y-121002925D01*
X147656110Y-120833707D01*
X147889800Y-120269530D01*
X147889800Y-119658870D01*
X147656110Y-119094693D01*
X147224307Y-118662890D01*
X146660130Y-118429200D01*
X146049470Y-118429200D01*
X145485293Y-118662890D01*
X145053490Y-119094693D01*
X144819800Y-119658870D01*
X144819800Y-120269530D01*
X145053490Y-120833707D01*
X145222708Y-121002925D01*
X145207035Y-121006043D01*
X144996991Y-121146391D01*
X144856643Y-121356435D01*
X144807360Y-121604200D01*
X144807360Y-121666000D01*
X141298240Y-121666000D01*
X141298240Y-121604200D01*
X141248957Y-121356435D01*
X141108609Y-121146391D01*
X140898565Y-121006043D01*
X140882892Y-121002925D01*
X141052110Y-120833707D01*
X141285800Y-120269530D01*
X141285800Y-119658870D01*
X141052110Y-119094693D01*
X140620307Y-118662890D01*
X140056130Y-118429200D01*
X139445470Y-118429200D01*
X138881293Y-118662890D01*
X138449490Y-119094693D01*
X138215800Y-119658870D01*
X138215800Y-120269530D01*
X138449490Y-120833707D01*
X138618708Y-121002925D01*
X138603035Y-121006043D01*
X138392991Y-121146391D01*
X138252643Y-121356435D01*
X138203360Y-121604200D01*
X138203360Y-121666000D01*
X134694240Y-121666000D01*
X134694240Y-121604200D01*
X134644957Y-121356435D01*
X134504609Y-121146391D01*
X134294565Y-121006043D01*
X134278892Y-121002925D01*
X134448110Y-120833707D01*
X134681800Y-120269530D01*
X134681800Y-119658870D01*
X134448110Y-119094693D01*
X134016307Y-118662890D01*
X133452130Y-118429200D01*
X132841470Y-118429200D01*
X132277293Y-118662890D01*
X131845490Y-119094693D01*
X131611800Y-119658870D01*
X131611800Y-120269530D01*
X131845490Y-120833707D01*
X132014708Y-121002925D01*
X131999035Y-121006043D01*
X131788991Y-121146391D01*
X131648643Y-121356435D01*
X131599360Y-121604200D01*
X131599360Y-121666000D01*
X128090240Y-121666000D01*
X128090240Y-121604200D01*
X128040957Y-121356435D01*
X127900609Y-121146391D01*
X127690565Y-121006043D01*
X127674892Y-121002925D01*
X127844110Y-120833707D01*
X128077800Y-120269530D01*
X128077800Y-119658870D01*
X127844110Y-119094693D01*
X127412307Y-118662890D01*
X126848130Y-118429200D01*
X126237470Y-118429200D01*
X125673293Y-118662890D01*
X125241490Y-119094693D01*
X125007800Y-119658870D01*
X125007800Y-120269530D01*
X125241490Y-120833707D01*
X125410708Y-121002925D01*
X125395035Y-121006043D01*
X125184991Y-121146391D01*
X125044643Y-121356435D01*
X124995360Y-121604200D01*
X124995360Y-123404200D01*
X125044643Y-123651965D01*
X125184991Y-123862009D01*
X125395035Y-124002357D01*
X125642800Y-124051640D01*
X127442800Y-124051640D01*
X127690565Y-124002357D01*
X127900609Y-123862009D01*
X128040957Y-123651965D01*
X128090240Y-123404200D01*
X128090240Y-123342400D01*
X131599360Y-123342400D01*
X131599360Y-123404200D01*
X131648643Y-123651965D01*
X131788991Y-123862009D01*
X131999035Y-124002357D01*
X132246800Y-124051640D01*
X134046800Y-124051640D01*
X134294565Y-124002357D01*
X134504609Y-123862009D01*
X134644957Y-123651965D01*
X134694240Y-123404200D01*
X134694240Y-123342400D01*
X138203360Y-123342400D01*
X138203360Y-123404200D01*
X138252643Y-123651965D01*
X138392991Y-123862009D01*
X138603035Y-124002357D01*
X138850800Y-124051640D01*
X140650800Y-124051640D01*
X140898565Y-124002357D01*
X141108609Y-123862009D01*
X141248957Y-123651965D01*
X141298240Y-123404200D01*
X141298240Y-123342400D01*
X144807360Y-123342400D01*
X144807360Y-123404200D01*
X144856643Y-123651965D01*
X144996991Y-123862009D01*
X145207035Y-124002357D01*
X145454800Y-124051640D01*
X147254800Y-124051640D01*
X147502565Y-124002357D01*
X147712609Y-123862009D01*
X147852957Y-123651965D01*
X147902240Y-123404200D01*
X147902240Y-123342400D01*
X151411360Y-123342400D01*
X151411360Y-123404200D01*
X151460643Y-123651965D01*
X151600991Y-123862009D01*
X151811035Y-124002357D01*
X152058800Y-124051640D01*
X153858800Y-124051640D01*
X154106565Y-124002357D01*
X154316609Y-123862009D01*
X154456957Y-123651965D01*
X154506240Y-123404200D01*
X154506240Y-123342400D01*
X158015360Y-123342400D01*
X158015360Y-123404200D01*
X158064643Y-123651965D01*
X158204991Y-123862009D01*
X158415035Y-124002357D01*
X158662800Y-124051640D01*
X160462800Y-124051640D01*
X160710565Y-124002357D01*
X160920609Y-123862009D01*
X161060957Y-123651965D01*
X161110240Y-123404200D01*
X161110240Y-123342400D01*
X162136607Y-123342400D01*
X162229801Y-123435594D01*
X162229800Y-126326320D01*
X162133000Y-126560017D01*
X162133000Y-126931983D01*
X162275345Y-127275635D01*
X162538365Y-127538655D01*
X162811315Y-127651714D01*
X162786433Y-127688952D01*
X162737800Y-127933447D01*
X162737800Y-127933451D01*
X162721380Y-128016000D01*
X162737800Y-128098549D01*
X162737800Y-129442776D01*
X162606000Y-129416560D01*
X162006000Y-129416560D01*
X161758235Y-129465843D01*
X161548191Y-129606191D01*
X161407843Y-129816235D01*
X161358560Y-130064000D01*
X161358560Y-130225800D01*
X156883679Y-130225800D01*
X156649983Y-130129000D01*
X156278017Y-130129000D01*
X155934365Y-130271345D01*
X155671345Y-130534365D01*
X155529000Y-130878017D01*
X155529000Y-131249983D01*
X155671345Y-131593635D01*
X155827510Y-131749800D01*
X141897679Y-131749800D01*
X141663983Y-131653000D01*
X141292017Y-131653000D01*
X140948365Y-131795345D01*
X140685345Y-132058365D01*
X140543000Y-132402017D01*
X140543000Y-132765800D01*
X135293679Y-132765800D01*
X135059983Y-132669000D01*
X134688017Y-132669000D01*
X134344365Y-132811345D01*
X134081345Y-133074365D01*
X133939000Y-133418017D01*
X133939000Y-133789983D01*
X134081345Y-134133635D01*
X134344365Y-134396655D01*
X134688017Y-134539000D01*
X135059983Y-134539000D01*
X135293679Y-134442200D01*
X147147000Y-134442200D01*
X147147000Y-134797800D01*
X122085679Y-134797800D01*
X121851983Y-134701000D01*
X121480017Y-134701000D01*
X121136365Y-134843345D01*
X120873345Y-135106365D01*
X120731000Y-135450017D01*
X120731000Y-135821983D01*
X120873345Y-136165635D01*
X121136365Y-136428655D01*
X121480017Y-136571000D01*
X121851983Y-136571000D01*
X122085679Y-136474200D01*
X153751000Y-136474200D01*
X153751000Y-136829800D01*
X128689679Y-136829800D01*
X128455983Y-136733000D01*
X128084017Y-136733000D01*
X127740365Y-136875345D01*
X127477345Y-137138365D01*
X127335000Y-137482017D01*
X127335000Y-137853983D01*
X127477345Y-138197635D01*
X127740365Y-138460655D01*
X128084017Y-138603000D01*
X128455983Y-138603000D01*
X128689679Y-138506200D01*
X160355000Y-138506200D01*
X160355000Y-138869983D01*
X160497345Y-139213635D01*
X160760365Y-139476655D01*
X161104017Y-139619000D01*
X161358560Y-139619000D01*
X161358560Y-139625800D01*
X160061809Y-139625800D01*
X160051754Y-139623800D01*
X160051749Y-139623800D01*
X159969200Y-139607380D01*
X159886651Y-139623800D01*
X157899679Y-139623800D01*
X157665983Y-139527000D01*
X157294017Y-139527000D01*
X156950365Y-139669345D01*
X156687345Y-139932365D01*
X156545000Y-140276017D01*
X156545000Y-140647983D01*
X156687345Y-140991635D01*
X156950365Y-141254655D01*
X157294017Y-141397000D01*
X157665983Y-141397000D01*
X157899679Y-141300200D01*
X159878591Y-141300200D01*
X159888646Y-141302200D01*
X159888650Y-141302200D01*
X159971199Y-141318620D01*
X160053748Y-141302200D01*
X161358560Y-141302200D01*
X161358560Y-141464000D01*
X161407843Y-141711765D01*
X161548191Y-141921809D01*
X161758235Y-142062157D01*
X162006000Y-142111440D01*
X162606000Y-142111440D01*
X162853765Y-142062157D01*
X162941000Y-142003868D01*
X163028235Y-142062157D01*
X163276000Y-142111440D01*
X163876000Y-142111440D01*
X164123765Y-142062157D01*
X164211000Y-142003868D01*
X164298235Y-142062157D01*
X164546000Y-142111440D01*
X165146000Y-142111440D01*
X165393765Y-142062157D01*
X165481000Y-142003868D01*
X165568235Y-142062157D01*
X165816000Y-142111440D01*
X166416000Y-142111440D01*
X166663765Y-142062157D01*
X166751000Y-142003868D01*
X166838235Y-142062157D01*
X167086000Y-142111440D01*
X167686000Y-142111440D01*
X167767001Y-142095328D01*
X167767001Y-142152441D01*
X167749584Y-142240000D01*
X167818582Y-142586870D01*
X167893465Y-142698940D01*
X168015068Y-142880933D01*
X168089294Y-142930529D01*
X168720764Y-143562000D01*
X120736764Y-143562000D01*
X120037336Y-143490954D01*
X119400969Y-143291529D01*
X118817703Y-142968220D01*
X118311359Y-142534230D01*
X117902624Y-142007292D01*
X117608195Y-141408929D01*
X117437888Y-140755114D01*
X117397600Y-140231530D01*
X117397600Y-139834373D01*
X118597680Y-139834373D01*
X118597680Y-140673067D01*
X118918634Y-141447919D01*
X119511681Y-142040966D01*
X120286533Y-142361920D01*
X121125227Y-142361920D01*
X121900079Y-142040966D01*
X122493126Y-141447919D01*
X122814080Y-140673067D01*
X122814080Y-139834373D01*
X122493126Y-139059521D01*
X121900079Y-138466474D01*
X121125227Y-138145520D01*
X120286533Y-138145520D01*
X119511681Y-138466474D01*
X118918634Y-139059521D01*
X118597680Y-139834373D01*
X117397600Y-139834373D01*
X117397600Y-77963164D01*
X117443333Y-77512933D01*
X118597680Y-77512933D01*
X118597680Y-78351627D01*
X118918634Y-79126479D01*
X119511681Y-79719526D01*
X120286533Y-80040480D01*
X121125227Y-80040480D01*
X121900079Y-79719526D01*
X122493126Y-79126479D01*
X122814080Y-78351627D01*
X122814080Y-77512933D01*
X122493126Y-76738081D01*
X121900079Y-76145034D01*
X121125227Y-75824080D01*
X120286533Y-75824080D01*
X119511681Y-76145034D01*
X118918634Y-76738081D01*
X118597680Y-77512933D01*
X117443333Y-77512933D01*
X117468646Y-77263737D01*
X117668071Y-76627369D01*
X117991379Y-76044105D01*
X118425368Y-75537761D01*
X118952305Y-75129027D01*
X119550673Y-74834593D01*
X120204487Y-74664288D01*
X120728070Y-74624000D01*
X209564836Y-74624000D01*
X210264263Y-74695046D01*
G04 #@! TD*
M02*
