G04 #@! TF.GenerationSoftware,KiCad,Pcbnew,(5.0.2)-1*
G04 #@! TF.CreationDate,2020-05-31T20:05:05-05:00*
G04 #@! TF.ProjectId,Binary_Display,42696e61-7279-45f4-9469-73706c61792e,rev?*
G04 #@! TF.SameCoordinates,Original*
G04 #@! TF.FileFunction,Legend,Bot*
G04 #@! TF.FilePolarity,Positive*
%FSLAX46Y46*%
G04 Gerber Fmt 4.6, Leading zero omitted, Abs format (unit mm)*
G04 Created by KiCad (PCBNEW (5.0.2)-1) date 5/31/2020 8:05:05 PM*
%MOMM*%
%LPD*%
G01*
G04 APERTURE LIST*
%ADD10C,0.300000*%
%ADD11C,0.010000*%
G04 APERTURE END LIST*
D10*
X137572571Y-113962571D02*
X137572571Y-112462571D01*
X137215428Y-112462571D01*
X137001142Y-112534000D01*
X136858285Y-112676857D01*
X136786857Y-112819714D01*
X136715428Y-113105428D01*
X136715428Y-113319714D01*
X136786857Y-113605428D01*
X136858285Y-113748285D01*
X137001142Y-113891142D01*
X137215428Y-113962571D01*
X137572571Y-113962571D01*
X136072571Y-113962571D02*
X136072571Y-112962571D01*
X136072571Y-112462571D02*
X136144000Y-112534000D01*
X136072571Y-112605428D01*
X136001142Y-112534000D01*
X136072571Y-112462571D01*
X136072571Y-112605428D01*
X135358285Y-112962571D02*
X135358285Y-113962571D01*
X135358285Y-113105428D02*
X135286857Y-113034000D01*
X135144000Y-112962571D01*
X134929714Y-112962571D01*
X134786857Y-113034000D01*
X134715428Y-113176857D01*
X134715428Y-113962571D01*
X136953428Y-111422571D02*
X137667714Y-111422571D01*
X137667714Y-109922571D01*
X136239142Y-111422571D02*
X136382000Y-111351142D01*
X136453428Y-111279714D01*
X136524857Y-111136857D01*
X136524857Y-110708285D01*
X136453428Y-110565428D01*
X136382000Y-110494000D01*
X136239142Y-110422571D01*
X136024857Y-110422571D01*
X135882000Y-110494000D01*
X135810571Y-110565428D01*
X135739142Y-110708285D01*
X135739142Y-111136857D01*
X135810571Y-111279714D01*
X135882000Y-111351142D01*
X136024857Y-111422571D01*
X136239142Y-111422571D01*
X134453428Y-111422571D02*
X134453428Y-110636857D01*
X134524857Y-110494000D01*
X134667714Y-110422571D01*
X134953428Y-110422571D01*
X135096285Y-110494000D01*
X134453428Y-111351142D02*
X134596285Y-111422571D01*
X134953428Y-111422571D01*
X135096285Y-111351142D01*
X135167714Y-111208285D01*
X135167714Y-111065428D01*
X135096285Y-110922571D01*
X134953428Y-110851142D01*
X134596285Y-110851142D01*
X134453428Y-110779714D01*
X133096285Y-111422571D02*
X133096285Y-109922571D01*
X133096285Y-111351142D02*
X133239142Y-111422571D01*
X133524857Y-111422571D01*
X133667714Y-111351142D01*
X133739142Y-111279714D01*
X133810571Y-111136857D01*
X133810571Y-110708285D01*
X133739142Y-110565428D01*
X133667714Y-110494000D01*
X133524857Y-110422571D01*
X133239142Y-110422571D01*
X133096285Y-110494000D01*
X136933714Y-108739714D02*
X137005142Y-108811142D01*
X137219428Y-108882571D01*
X137362285Y-108882571D01*
X137576571Y-108811142D01*
X137719428Y-108668285D01*
X137790857Y-108525428D01*
X137862285Y-108239714D01*
X137862285Y-108025428D01*
X137790857Y-107739714D01*
X137719428Y-107596857D01*
X137576571Y-107454000D01*
X137362285Y-107382571D01*
X137219428Y-107382571D01*
X137005142Y-107454000D01*
X136933714Y-107525428D01*
X136076571Y-108882571D02*
X136219428Y-108811142D01*
X136290857Y-108668285D01*
X136290857Y-107382571D01*
X135505142Y-108882571D02*
X135505142Y-107382571D01*
X135362285Y-108311142D02*
X134933714Y-108882571D01*
X134933714Y-107882571D02*
X135505142Y-108454000D01*
X195452857Y-109994000D02*
X195595714Y-109922571D01*
X195810000Y-109922571D01*
X196024285Y-109994000D01*
X196167142Y-110136857D01*
X196238571Y-110279714D01*
X196310000Y-110565428D01*
X196310000Y-110779714D01*
X196238571Y-111065428D01*
X196167142Y-111208285D01*
X196024285Y-111351142D01*
X195810000Y-111422571D01*
X195667142Y-111422571D01*
X195452857Y-111351142D01*
X195381428Y-111279714D01*
X195381428Y-110779714D01*
X195667142Y-110779714D01*
X194738571Y-111422571D02*
X194738571Y-109922571D01*
X193881428Y-111422571D01*
X193881428Y-109922571D01*
X193167142Y-111422571D02*
X193167142Y-109922571D01*
X192810000Y-109922571D01*
X192595714Y-109994000D01*
X192452857Y-110136857D01*
X192381428Y-110279714D01*
X192310000Y-110565428D01*
X192310000Y-110779714D01*
X192381428Y-111065428D01*
X192452857Y-111208285D01*
X192595714Y-111351142D01*
X192810000Y-111422571D01*
X193167142Y-111422571D01*
X196492571Y-108311142D02*
X195349714Y-108311142D01*
X195921142Y-108882571D02*
X195921142Y-107739714D01*
X193921142Y-107382571D02*
X194635428Y-107382571D01*
X194706857Y-108096857D01*
X194635428Y-108025428D01*
X194492571Y-107954000D01*
X194135428Y-107954000D01*
X193992571Y-108025428D01*
X193921142Y-108096857D01*
X193849714Y-108239714D01*
X193849714Y-108596857D01*
X193921142Y-108739714D01*
X193992571Y-108811142D01*
X194135428Y-108882571D01*
X194492571Y-108882571D01*
X194635428Y-108811142D01*
X194706857Y-108739714D01*
X193421142Y-107382571D02*
X192921142Y-108882571D01*
X192421142Y-107382571D01*
X179287857Y-107837857D02*
X179073571Y-107909285D01*
X179002142Y-107980714D01*
X178930714Y-108123571D01*
X178930714Y-108337857D01*
X179002142Y-108480714D01*
X179073571Y-108552142D01*
X179216428Y-108623571D01*
X179787857Y-108623571D01*
X179787857Y-107123571D01*
X179287857Y-107123571D01*
X179145000Y-107195000D01*
X179073571Y-107266428D01*
X179002142Y-107409285D01*
X179002142Y-107552142D01*
X179073571Y-107695000D01*
X179145000Y-107766428D01*
X179287857Y-107837857D01*
X179787857Y-107837857D01*
X178287857Y-108623571D02*
X178287857Y-107623571D01*
X178287857Y-107123571D02*
X178359285Y-107195000D01*
X178287857Y-107266428D01*
X178216428Y-107195000D01*
X178287857Y-107123571D01*
X178287857Y-107266428D01*
X177573571Y-107623571D02*
X177573571Y-108623571D01*
X177573571Y-107766428D02*
X177502142Y-107695000D01*
X177359285Y-107623571D01*
X177145000Y-107623571D01*
X177002142Y-107695000D01*
X176930714Y-107837857D01*
X176930714Y-108623571D01*
X175573571Y-108623571D02*
X175573571Y-107837857D01*
X175645000Y-107695000D01*
X175787857Y-107623571D01*
X176073571Y-107623571D01*
X176216428Y-107695000D01*
X175573571Y-108552142D02*
X175716428Y-108623571D01*
X176073571Y-108623571D01*
X176216428Y-108552142D01*
X176287857Y-108409285D01*
X176287857Y-108266428D01*
X176216428Y-108123571D01*
X176073571Y-108052142D01*
X175716428Y-108052142D01*
X175573571Y-107980714D01*
X174859285Y-108623571D02*
X174859285Y-107623571D01*
X174859285Y-107909285D02*
X174787857Y-107766428D01*
X174716428Y-107695000D01*
X174573571Y-107623571D01*
X174430714Y-107623571D01*
X174073571Y-107623571D02*
X173716428Y-108623571D01*
X173359285Y-107623571D02*
X173716428Y-108623571D01*
X173859285Y-108980714D01*
X173930714Y-109052142D01*
X174073571Y-109123571D01*
X171645000Y-108623571D02*
X171645000Y-107123571D01*
X171287857Y-107123571D01*
X171073571Y-107195000D01*
X170930714Y-107337857D01*
X170859285Y-107480714D01*
X170787857Y-107766428D01*
X170787857Y-107980714D01*
X170859285Y-108266428D01*
X170930714Y-108409285D01*
X171073571Y-108552142D01*
X171287857Y-108623571D01*
X171645000Y-108623571D01*
X170145000Y-108623571D02*
X170145000Y-107623571D01*
X170145000Y-107123571D02*
X170216428Y-107195000D01*
X170145000Y-107266428D01*
X170073571Y-107195000D01*
X170145000Y-107123571D01*
X170145000Y-107266428D01*
X169502142Y-108552142D02*
X169359285Y-108623571D01*
X169073571Y-108623571D01*
X168930714Y-108552142D01*
X168859285Y-108409285D01*
X168859285Y-108337857D01*
X168930714Y-108195000D01*
X169073571Y-108123571D01*
X169287857Y-108123571D01*
X169430714Y-108052142D01*
X169502142Y-107909285D01*
X169502142Y-107837857D01*
X169430714Y-107695000D01*
X169287857Y-107623571D01*
X169073571Y-107623571D01*
X168930714Y-107695000D01*
X168216428Y-107623571D02*
X168216428Y-109123571D01*
X168216428Y-107695000D02*
X168073571Y-107623571D01*
X167787857Y-107623571D01*
X167645000Y-107695000D01*
X167573571Y-107766428D01*
X167502142Y-107909285D01*
X167502142Y-108337857D01*
X167573571Y-108480714D01*
X167645000Y-108552142D01*
X167787857Y-108623571D01*
X168073571Y-108623571D01*
X168216428Y-108552142D01*
X166645000Y-108623571D02*
X166787857Y-108552142D01*
X166859285Y-108409285D01*
X166859285Y-107123571D01*
X165430714Y-108623571D02*
X165430714Y-107837857D01*
X165502142Y-107695000D01*
X165645000Y-107623571D01*
X165930714Y-107623571D01*
X166073571Y-107695000D01*
X165430714Y-108552142D02*
X165573571Y-108623571D01*
X165930714Y-108623571D01*
X166073571Y-108552142D01*
X166145000Y-108409285D01*
X166145000Y-108266428D01*
X166073571Y-108123571D01*
X165930714Y-108052142D01*
X165573571Y-108052142D01*
X165430714Y-107980714D01*
X164859285Y-107623571D02*
X164502142Y-108623571D01*
X164145000Y-107623571D02*
X164502142Y-108623571D01*
X164645000Y-108980714D01*
X164716428Y-109052142D01*
X164859285Y-109123571D01*
X163502142Y-108552142D02*
X163502142Y-108623571D01*
X163573571Y-108766428D01*
X163645000Y-108837857D01*
X160859285Y-108623571D02*
X161359285Y-107909285D01*
X161716428Y-108623571D02*
X161716428Y-107123571D01*
X161145000Y-107123571D01*
X161002142Y-107195000D01*
X160930714Y-107266428D01*
X160859285Y-107409285D01*
X160859285Y-107623571D01*
X160930714Y-107766428D01*
X161002142Y-107837857D01*
X161145000Y-107909285D01*
X161716428Y-107909285D01*
X159645000Y-108552142D02*
X159787857Y-108623571D01*
X160073571Y-108623571D01*
X160216428Y-108552142D01*
X160287857Y-108409285D01*
X160287857Y-107837857D01*
X160216428Y-107695000D01*
X160073571Y-107623571D01*
X159787857Y-107623571D01*
X159645000Y-107695000D01*
X159573571Y-107837857D01*
X159573571Y-107980714D01*
X160287857Y-108123571D01*
X159073571Y-107623571D02*
X158716428Y-108623571D01*
X158359285Y-107623571D01*
X156716428Y-107266428D02*
X156645000Y-107195000D01*
X156502142Y-107123571D01*
X156145000Y-107123571D01*
X156002142Y-107195000D01*
X155930714Y-107266428D01*
X155859285Y-107409285D01*
X155859285Y-107552142D01*
X155930714Y-107766428D01*
X156787857Y-108623571D01*
X155859285Y-108623571D01*
X179859285Y-110745000D02*
X179145000Y-110745000D01*
X180002142Y-111173571D02*
X179502142Y-109673571D01*
X179002142Y-111173571D01*
X178502142Y-110173571D02*
X178502142Y-111173571D01*
X178502142Y-110316428D02*
X178430714Y-110245000D01*
X178287857Y-110173571D01*
X178073571Y-110173571D01*
X177930714Y-110245000D01*
X177859285Y-110387857D01*
X177859285Y-111173571D01*
X176502142Y-111173571D02*
X176502142Y-109673571D01*
X176502142Y-111102142D02*
X176645000Y-111173571D01*
X176930714Y-111173571D01*
X177073571Y-111102142D01*
X177145000Y-111030714D01*
X177216428Y-110887857D01*
X177216428Y-110459285D01*
X177145000Y-110316428D01*
X177073571Y-110245000D01*
X176930714Y-110173571D01*
X176645000Y-110173571D01*
X176502142Y-110245000D01*
X175787857Y-111173571D02*
X175787857Y-110173571D01*
X175787857Y-110459285D02*
X175716428Y-110316428D01*
X175645000Y-110245000D01*
X175502142Y-110173571D01*
X175359285Y-110173571D01*
X174287857Y-111102142D02*
X174430714Y-111173571D01*
X174716428Y-111173571D01*
X174859285Y-111102142D01*
X174930714Y-110959285D01*
X174930714Y-110387857D01*
X174859285Y-110245000D01*
X174716428Y-110173571D01*
X174430714Y-110173571D01*
X174287857Y-110245000D01*
X174216428Y-110387857D01*
X174216428Y-110530714D01*
X174930714Y-110673571D01*
X173716428Y-110173571D02*
X173430714Y-111173571D01*
X173145000Y-110459285D01*
X172859285Y-111173571D01*
X172573571Y-110173571D01*
X171073571Y-109673571D02*
X170573571Y-111173571D01*
X170073571Y-109673571D01*
X168930714Y-111173571D02*
X168930714Y-110387857D01*
X169002142Y-110245000D01*
X169145000Y-110173571D01*
X169430714Y-110173571D01*
X169573571Y-110245000D01*
X168930714Y-111102142D02*
X169073571Y-111173571D01*
X169430714Y-111173571D01*
X169573571Y-111102142D01*
X169645000Y-110959285D01*
X169645000Y-110816428D01*
X169573571Y-110673571D01*
X169430714Y-110602142D01*
X169073571Y-110602142D01*
X168930714Y-110530714D01*
X168216428Y-110173571D02*
X168216428Y-111173571D01*
X168216428Y-110316428D02*
X168145000Y-110245000D01*
X168002142Y-110173571D01*
X167787857Y-110173571D01*
X167645000Y-110245000D01*
X167573571Y-110387857D01*
X167573571Y-111173571D01*
X165716428Y-111173571D02*
X165716428Y-109673571D01*
X165716428Y-110387857D02*
X164859285Y-110387857D01*
X164859285Y-111173571D02*
X164859285Y-109673571D01*
X163930714Y-111173571D02*
X164073571Y-111102142D01*
X164145000Y-111030714D01*
X164216428Y-110887857D01*
X164216428Y-110459285D01*
X164145000Y-110316428D01*
X164073571Y-110245000D01*
X163930714Y-110173571D01*
X163716428Y-110173571D01*
X163573571Y-110245000D01*
X163502142Y-110316428D01*
X163430714Y-110459285D01*
X163430714Y-110887857D01*
X163502142Y-111030714D01*
X163573571Y-111102142D01*
X163716428Y-111173571D01*
X163930714Y-111173571D01*
X162787857Y-111173571D02*
X162787857Y-110173571D01*
X162787857Y-110459285D02*
X162716428Y-110316428D01*
X162645000Y-110245000D01*
X162502142Y-110173571D01*
X162359285Y-110173571D01*
X161859285Y-110173571D02*
X161859285Y-111173571D01*
X161859285Y-110316428D02*
X161787857Y-110245000D01*
X161645000Y-110173571D01*
X161430714Y-110173571D01*
X161287857Y-110245000D01*
X161216428Y-110387857D01*
X161216428Y-111173571D01*
D11*
G04 #@! TO.C,G\002A\002A\002A*
G36*
X171063691Y-112756561D02*
X171030920Y-112777512D01*
X170983993Y-112814470D01*
X170945058Y-112847615D01*
X170928576Y-112874645D01*
X170930260Y-112903198D01*
X170942593Y-112934693D01*
X170967560Y-112982259D01*
X171002202Y-113041098D01*
X171043563Y-113106413D01*
X171088684Y-113173403D01*
X171134607Y-113237272D01*
X171143394Y-113248941D01*
X171179247Y-113298794D01*
X171216104Y-113354484D01*
X171250922Y-113410857D01*
X171280659Y-113462759D01*
X171302272Y-113505036D01*
X171312719Y-113532533D01*
X171313230Y-113536671D01*
X171323142Y-113554302D01*
X171339282Y-113567541D01*
X171359752Y-113586838D01*
X171365333Y-113600802D01*
X171374114Y-113619764D01*
X171396084Y-113646671D01*
X171405421Y-113656050D01*
X171432084Y-113687723D01*
X171462506Y-113733028D01*
X171488404Y-113778974D01*
X171529186Y-113858566D01*
X171561304Y-113918757D01*
X171587238Y-113963697D01*
X171609465Y-113997535D01*
X171630463Y-114024420D01*
X171644020Y-114039487D01*
X171671557Y-114071399D01*
X171703528Y-114112421D01*
X171735898Y-114156821D01*
X171764630Y-114198862D01*
X171785687Y-114232809D01*
X171795034Y-114252928D01*
X171795179Y-114254263D01*
X171803435Y-114270680D01*
X171823708Y-114295699D01*
X171827714Y-114299970D01*
X171852522Y-114329118D01*
X171883840Y-114370255D01*
X171909125Y-114406097D01*
X171954764Y-114471334D01*
X172006598Y-114541958D01*
X172060059Y-114612044D01*
X172110581Y-114675669D01*
X172153597Y-114726908D01*
X172172461Y-114747724D01*
X172206485Y-114784389D01*
X172237364Y-114818916D01*
X172250291Y-114834051D01*
X172272831Y-114861040D01*
X172304915Y-114899082D01*
X172335766Y-114935435D01*
X172373873Y-114986496D01*
X172392778Y-115026953D01*
X172394596Y-115039640D01*
X172405566Y-115086133D01*
X172438303Y-115139912D01*
X172493408Y-115201667D01*
X172571482Y-115272087D01*
X172656075Y-115339061D01*
X172704344Y-115372057D01*
X172744688Y-115388726D01*
X172787093Y-115391655D01*
X172833529Y-115385019D01*
X172862433Y-115370317D01*
X172893184Y-115341949D01*
X172917823Y-115308818D01*
X172928392Y-115279825D01*
X172928410Y-115278883D01*
X172923909Y-115256934D01*
X172911950Y-115218150D01*
X172894845Y-115169845D01*
X172889333Y-115155309D01*
X172871135Y-115105159D01*
X172857455Y-115061948D01*
X172850624Y-115033227D01*
X172850256Y-115028853D01*
X172844889Y-115004790D01*
X172830837Y-114966001D01*
X172811752Y-114922221D01*
X172787709Y-114868341D01*
X172760632Y-114803309D01*
X172736101Y-114740558D01*
X172734535Y-114736359D01*
X172640624Y-114509022D01*
X172590044Y-114404205D01*
X172564737Y-114349943D01*
X172539027Y-114288057D01*
X172525655Y-114252185D01*
X172505993Y-114203745D01*
X172477615Y-114143507D01*
X172445506Y-114081832D01*
X172432953Y-114059461D01*
X172405550Y-114010798D01*
X172383908Y-113970385D01*
X172370852Y-113943612D01*
X172368307Y-113936148D01*
X172361503Y-113920201D01*
X172343891Y-113890232D01*
X172325383Y-113861846D01*
X172297383Y-113816573D01*
X172266070Y-113760018D01*
X172239633Y-113707333D01*
X172215813Y-113659523D01*
X172192845Y-113618277D01*
X172175314Y-113591775D01*
X172173907Y-113590103D01*
X172156278Y-113565120D01*
X172134189Y-113526982D01*
X172110440Y-113481532D01*
X172087829Y-113434611D01*
X172069156Y-113392064D01*
X172057220Y-113359731D01*
X172054821Y-113343456D01*
X172055414Y-113342787D01*
X172075582Y-113343150D01*
X172109910Y-113355367D01*
X172151277Y-113376263D01*
X172192565Y-113402662D01*
X172197072Y-113405971D01*
X172233986Y-113430554D01*
X172281468Y-113458385D01*
X172311463Y-113474345D01*
X172351927Y-113498261D01*
X172400302Y-113531899D01*
X172450654Y-113570506D01*
X172497051Y-113609330D01*
X172533561Y-113643618D01*
X172554252Y-113668619D01*
X172554478Y-113669017D01*
X172556203Y-113683009D01*
X172536909Y-113687705D01*
X172531128Y-113687795D01*
X172485030Y-113695727D01*
X172446833Y-113716369D01*
X172419633Y-113744984D01*
X172406524Y-113776840D01*
X172410602Y-113807201D01*
X172434961Y-113831332D01*
X172436692Y-113832252D01*
X172466225Y-113852205D01*
X172497796Y-113879931D01*
X172499400Y-113881556D01*
X172534525Y-113911851D01*
X172571943Y-113936581D01*
X172603656Y-113963012D01*
X172632937Y-114003156D01*
X172639096Y-114014735D01*
X172687216Y-114092212D01*
X172744357Y-114147220D01*
X172767202Y-114161354D01*
X172791186Y-114178057D01*
X172828599Y-114208616D01*
X172874276Y-114248646D01*
X172921897Y-114292666D01*
X172969528Y-114336333D01*
X173012957Y-114373345D01*
X173047439Y-114399836D01*
X173068225Y-114411941D01*
X173068435Y-114412001D01*
X173091201Y-114422248D01*
X173097743Y-114430782D01*
X173107706Y-114443384D01*
X173133969Y-114466350D01*
X173171096Y-114495689D01*
X173213647Y-114527407D01*
X173256186Y-114557512D01*
X173293276Y-114582013D01*
X173319477Y-114596915D01*
X173327659Y-114599590D01*
X173341775Y-114588694D01*
X173345230Y-114572770D01*
X173349919Y-114554521D01*
X173357356Y-114553444D01*
X173372908Y-114551419D01*
X173385293Y-114526319D01*
X173393890Y-114480995D01*
X173398076Y-114418300D01*
X173398071Y-114366503D01*
X173387437Y-114323715D01*
X173358439Y-114267531D01*
X173313009Y-114200888D01*
X173253078Y-114126724D01*
X173206500Y-114075063D01*
X173170318Y-114035285D01*
X173142172Y-114002045D01*
X173126074Y-113980195D01*
X173123794Y-113974993D01*
X173113080Y-113961841D01*
X173098770Y-113955146D01*
X173081875Y-113943785D01*
X173050003Y-113916987D01*
X173006534Y-113877799D01*
X172970648Y-113844103D01*
X172741667Y-113844103D01*
X172730583Y-113835606D01*
X172713487Y-113818051D01*
X172700200Y-113799346D01*
X172701822Y-113792000D01*
X172717262Y-113801828D01*
X172730002Y-113818051D01*
X172740790Y-113837954D01*
X172741667Y-113844103D01*
X172970648Y-113844103D01*
X172954848Y-113829268D01*
X172899063Y-113775166D01*
X172799734Y-113678101D01*
X172715136Y-113597346D01*
X172642145Y-113530242D01*
X172577637Y-113474128D01*
X172518487Y-113426347D01*
X172461571Y-113384238D01*
X172403763Y-113345143D01*
X172364633Y-113320338D01*
X172298159Y-113280597D01*
X172223231Y-113238128D01*
X172152393Y-113199971D01*
X172127333Y-113187152D01*
X172073161Y-113160512D01*
X172035387Y-113144151D01*
X172007270Y-113136369D01*
X171982072Y-113135470D01*
X171953056Y-113139753D01*
X171945282Y-113141263D01*
X171893514Y-113155218D01*
X171862006Y-113175746D01*
X171844976Y-113208637D01*
X171837752Y-113248974D01*
X171837148Y-113297421D01*
X171843485Y-113353522D01*
X171854973Y-113407804D01*
X171869818Y-113450796D01*
X171878891Y-113466359D01*
X171894017Y-113490027D01*
X171913334Y-113525531D01*
X171919568Y-113538000D01*
X171942740Y-113580187D01*
X171968014Y-113618819D01*
X171973161Y-113625591D01*
X171994247Y-113656804D01*
X172019601Y-113700794D01*
X172037916Y-113736309D01*
X172062553Y-113784326D01*
X172087933Y-113829651D01*
X172103225Y-113854304D01*
X172124728Y-113892932D01*
X172139282Y-113930801D01*
X172140227Y-113934685D01*
X172154937Y-113970139D01*
X172179619Y-114005819D01*
X172182017Y-114008478D01*
X172205339Y-114039216D01*
X172235681Y-114086849D01*
X172269266Y-114144566D01*
X172302318Y-114205552D01*
X172331059Y-114262995D01*
X172351714Y-114310083D01*
X172356394Y-114323038D01*
X172370516Y-114359655D01*
X172392057Y-114408627D01*
X172415939Y-114458509D01*
X172436962Y-114501453D01*
X172452413Y-114534940D01*
X172459360Y-114552574D01*
X172459487Y-114553445D01*
X172464606Y-114567863D01*
X172478484Y-114600762D01*
X172498899Y-114646998D01*
X172519598Y-114692652D01*
X172546896Y-114756098D01*
X172571175Y-114819699D01*
X172590890Y-114878517D01*
X172604495Y-114927614D01*
X172610447Y-114962051D01*
X172608285Y-114976159D01*
X172596824Y-114970499D01*
X172572575Y-114948077D01*
X172538875Y-114912590D01*
X172499062Y-114867737D01*
X172456474Y-114817214D01*
X172414450Y-114764720D01*
X172397693Y-114742872D01*
X172363898Y-114698694D01*
X172334956Y-114661846D01*
X172315157Y-114637742D01*
X172310017Y-114632154D01*
X172295380Y-114615042D01*
X172271592Y-114584003D01*
X172249730Y-114554000D01*
X172219502Y-114512645D01*
X172190747Y-114474986D01*
X172175646Y-114456308D01*
X172120736Y-114390868D01*
X172075857Y-114335185D01*
X172034837Y-114281157D01*
X171991506Y-114220677D01*
X171944974Y-114153362D01*
X171903033Y-114091972D01*
X171862463Y-114032380D01*
X171827481Y-113980793D01*
X171802303Y-113943418D01*
X171799283Y-113938898D01*
X171766666Y-113891288D01*
X171731426Y-113841767D01*
X171716750Y-113821826D01*
X171693487Y-113786619D01*
X171663696Y-113735690D01*
X171631863Y-113676923D01*
X171611893Y-113637628D01*
X171579217Y-113575529D01*
X171543294Y-113513845D01*
X171509502Y-113461553D01*
X171492529Y-113438469D01*
X171459932Y-113394416D01*
X171431304Y-113350400D01*
X171415428Y-113321187D01*
X171394956Y-113286979D01*
X171358700Y-113237966D01*
X171309467Y-113177591D01*
X171250065Y-113109297D01*
X171183406Y-113036640D01*
X171155728Y-113001131D01*
X171124843Y-112952357D01*
X171098369Y-112902724D01*
X171056115Y-112814271D01*
X171081413Y-112782110D01*
X171097303Y-112759938D01*
X171096678Y-112751270D01*
X171084690Y-112749949D01*
X171063691Y-112756561D01*
X171063691Y-112756561D01*
G37*
X171063691Y-112756561D02*
X171030920Y-112777512D01*
X170983993Y-112814470D01*
X170945058Y-112847615D01*
X170928576Y-112874645D01*
X170930260Y-112903198D01*
X170942593Y-112934693D01*
X170967560Y-112982259D01*
X171002202Y-113041098D01*
X171043563Y-113106413D01*
X171088684Y-113173403D01*
X171134607Y-113237272D01*
X171143394Y-113248941D01*
X171179247Y-113298794D01*
X171216104Y-113354484D01*
X171250922Y-113410857D01*
X171280659Y-113462759D01*
X171302272Y-113505036D01*
X171312719Y-113532533D01*
X171313230Y-113536671D01*
X171323142Y-113554302D01*
X171339282Y-113567541D01*
X171359752Y-113586838D01*
X171365333Y-113600802D01*
X171374114Y-113619764D01*
X171396084Y-113646671D01*
X171405421Y-113656050D01*
X171432084Y-113687723D01*
X171462506Y-113733028D01*
X171488404Y-113778974D01*
X171529186Y-113858566D01*
X171561304Y-113918757D01*
X171587238Y-113963697D01*
X171609465Y-113997535D01*
X171630463Y-114024420D01*
X171644020Y-114039487D01*
X171671557Y-114071399D01*
X171703528Y-114112421D01*
X171735898Y-114156821D01*
X171764630Y-114198862D01*
X171785687Y-114232809D01*
X171795034Y-114252928D01*
X171795179Y-114254263D01*
X171803435Y-114270680D01*
X171823708Y-114295699D01*
X171827714Y-114299970D01*
X171852522Y-114329118D01*
X171883840Y-114370255D01*
X171909125Y-114406097D01*
X171954764Y-114471334D01*
X172006598Y-114541958D01*
X172060059Y-114612044D01*
X172110581Y-114675669D01*
X172153597Y-114726908D01*
X172172461Y-114747724D01*
X172206485Y-114784389D01*
X172237364Y-114818916D01*
X172250291Y-114834051D01*
X172272831Y-114861040D01*
X172304915Y-114899082D01*
X172335766Y-114935435D01*
X172373873Y-114986496D01*
X172392778Y-115026953D01*
X172394596Y-115039640D01*
X172405566Y-115086133D01*
X172438303Y-115139912D01*
X172493408Y-115201667D01*
X172571482Y-115272087D01*
X172656075Y-115339061D01*
X172704344Y-115372057D01*
X172744688Y-115388726D01*
X172787093Y-115391655D01*
X172833529Y-115385019D01*
X172862433Y-115370317D01*
X172893184Y-115341949D01*
X172917823Y-115308818D01*
X172928392Y-115279825D01*
X172928410Y-115278883D01*
X172923909Y-115256934D01*
X172911950Y-115218150D01*
X172894845Y-115169845D01*
X172889333Y-115155309D01*
X172871135Y-115105159D01*
X172857455Y-115061948D01*
X172850624Y-115033227D01*
X172850256Y-115028853D01*
X172844889Y-115004790D01*
X172830837Y-114966001D01*
X172811752Y-114922221D01*
X172787709Y-114868341D01*
X172760632Y-114803309D01*
X172736101Y-114740558D01*
X172734535Y-114736359D01*
X172640624Y-114509022D01*
X172590044Y-114404205D01*
X172564737Y-114349943D01*
X172539027Y-114288057D01*
X172525655Y-114252185D01*
X172505993Y-114203745D01*
X172477615Y-114143507D01*
X172445506Y-114081832D01*
X172432953Y-114059461D01*
X172405550Y-114010798D01*
X172383908Y-113970385D01*
X172370852Y-113943612D01*
X172368307Y-113936148D01*
X172361503Y-113920201D01*
X172343891Y-113890232D01*
X172325383Y-113861846D01*
X172297383Y-113816573D01*
X172266070Y-113760018D01*
X172239633Y-113707333D01*
X172215813Y-113659523D01*
X172192845Y-113618277D01*
X172175314Y-113591775D01*
X172173907Y-113590103D01*
X172156278Y-113565120D01*
X172134189Y-113526982D01*
X172110440Y-113481532D01*
X172087829Y-113434611D01*
X172069156Y-113392064D01*
X172057220Y-113359731D01*
X172054821Y-113343456D01*
X172055414Y-113342787D01*
X172075582Y-113343150D01*
X172109910Y-113355367D01*
X172151277Y-113376263D01*
X172192565Y-113402662D01*
X172197072Y-113405971D01*
X172233986Y-113430554D01*
X172281468Y-113458385D01*
X172311463Y-113474345D01*
X172351927Y-113498261D01*
X172400302Y-113531899D01*
X172450654Y-113570506D01*
X172497051Y-113609330D01*
X172533561Y-113643618D01*
X172554252Y-113668619D01*
X172554478Y-113669017D01*
X172556203Y-113683009D01*
X172536909Y-113687705D01*
X172531128Y-113687795D01*
X172485030Y-113695727D01*
X172446833Y-113716369D01*
X172419633Y-113744984D01*
X172406524Y-113776840D01*
X172410602Y-113807201D01*
X172434961Y-113831332D01*
X172436692Y-113832252D01*
X172466225Y-113852205D01*
X172497796Y-113879931D01*
X172499400Y-113881556D01*
X172534525Y-113911851D01*
X172571943Y-113936581D01*
X172603656Y-113963012D01*
X172632937Y-114003156D01*
X172639096Y-114014735D01*
X172687216Y-114092212D01*
X172744357Y-114147220D01*
X172767202Y-114161354D01*
X172791186Y-114178057D01*
X172828599Y-114208616D01*
X172874276Y-114248646D01*
X172921897Y-114292666D01*
X172969528Y-114336333D01*
X173012957Y-114373345D01*
X173047439Y-114399836D01*
X173068225Y-114411941D01*
X173068435Y-114412001D01*
X173091201Y-114422248D01*
X173097743Y-114430782D01*
X173107706Y-114443384D01*
X173133969Y-114466350D01*
X173171096Y-114495689D01*
X173213647Y-114527407D01*
X173256186Y-114557512D01*
X173293276Y-114582013D01*
X173319477Y-114596915D01*
X173327659Y-114599590D01*
X173341775Y-114588694D01*
X173345230Y-114572770D01*
X173349919Y-114554521D01*
X173357356Y-114553444D01*
X173372908Y-114551419D01*
X173385293Y-114526319D01*
X173393890Y-114480995D01*
X173398076Y-114418300D01*
X173398071Y-114366503D01*
X173387437Y-114323715D01*
X173358439Y-114267531D01*
X173313009Y-114200888D01*
X173253078Y-114126724D01*
X173206500Y-114075063D01*
X173170318Y-114035285D01*
X173142172Y-114002045D01*
X173126074Y-113980195D01*
X173123794Y-113974993D01*
X173113080Y-113961841D01*
X173098770Y-113955146D01*
X173081875Y-113943785D01*
X173050003Y-113916987D01*
X173006534Y-113877799D01*
X172970648Y-113844103D01*
X172741667Y-113844103D01*
X172730583Y-113835606D01*
X172713487Y-113818051D01*
X172700200Y-113799346D01*
X172701822Y-113792000D01*
X172717262Y-113801828D01*
X172730002Y-113818051D01*
X172740790Y-113837954D01*
X172741667Y-113844103D01*
X172970648Y-113844103D01*
X172954848Y-113829268D01*
X172899063Y-113775166D01*
X172799734Y-113678101D01*
X172715136Y-113597346D01*
X172642145Y-113530242D01*
X172577637Y-113474128D01*
X172518487Y-113426347D01*
X172461571Y-113384238D01*
X172403763Y-113345143D01*
X172364633Y-113320338D01*
X172298159Y-113280597D01*
X172223231Y-113238128D01*
X172152393Y-113199971D01*
X172127333Y-113187152D01*
X172073161Y-113160512D01*
X172035387Y-113144151D01*
X172007270Y-113136369D01*
X171982072Y-113135470D01*
X171953056Y-113139753D01*
X171945282Y-113141263D01*
X171893514Y-113155218D01*
X171862006Y-113175746D01*
X171844976Y-113208637D01*
X171837752Y-113248974D01*
X171837148Y-113297421D01*
X171843485Y-113353522D01*
X171854973Y-113407804D01*
X171869818Y-113450796D01*
X171878891Y-113466359D01*
X171894017Y-113490027D01*
X171913334Y-113525531D01*
X171919568Y-113538000D01*
X171942740Y-113580187D01*
X171968014Y-113618819D01*
X171973161Y-113625591D01*
X171994247Y-113656804D01*
X172019601Y-113700794D01*
X172037916Y-113736309D01*
X172062553Y-113784326D01*
X172087933Y-113829651D01*
X172103225Y-113854304D01*
X172124728Y-113892932D01*
X172139282Y-113930801D01*
X172140227Y-113934685D01*
X172154937Y-113970139D01*
X172179619Y-114005819D01*
X172182017Y-114008478D01*
X172205339Y-114039216D01*
X172235681Y-114086849D01*
X172269266Y-114144566D01*
X172302318Y-114205552D01*
X172331059Y-114262995D01*
X172351714Y-114310083D01*
X172356394Y-114323038D01*
X172370516Y-114359655D01*
X172392057Y-114408627D01*
X172415939Y-114458509D01*
X172436962Y-114501453D01*
X172452413Y-114534940D01*
X172459360Y-114552574D01*
X172459487Y-114553445D01*
X172464606Y-114567863D01*
X172478484Y-114600762D01*
X172498899Y-114646998D01*
X172519598Y-114692652D01*
X172546896Y-114756098D01*
X172571175Y-114819699D01*
X172590890Y-114878517D01*
X172604495Y-114927614D01*
X172610447Y-114962051D01*
X172608285Y-114976159D01*
X172596824Y-114970499D01*
X172572575Y-114948077D01*
X172538875Y-114912590D01*
X172499062Y-114867737D01*
X172456474Y-114817214D01*
X172414450Y-114764720D01*
X172397693Y-114742872D01*
X172363898Y-114698694D01*
X172334956Y-114661846D01*
X172315157Y-114637742D01*
X172310017Y-114632154D01*
X172295380Y-114615042D01*
X172271592Y-114584003D01*
X172249730Y-114554000D01*
X172219502Y-114512645D01*
X172190747Y-114474986D01*
X172175646Y-114456308D01*
X172120736Y-114390868D01*
X172075857Y-114335185D01*
X172034837Y-114281157D01*
X171991506Y-114220677D01*
X171944974Y-114153362D01*
X171903033Y-114091972D01*
X171862463Y-114032380D01*
X171827481Y-113980793D01*
X171802303Y-113943418D01*
X171799283Y-113938898D01*
X171766666Y-113891288D01*
X171731426Y-113841767D01*
X171716750Y-113821826D01*
X171693487Y-113786619D01*
X171663696Y-113735690D01*
X171631863Y-113676923D01*
X171611893Y-113637628D01*
X171579217Y-113575529D01*
X171543294Y-113513845D01*
X171509502Y-113461553D01*
X171492529Y-113438469D01*
X171459932Y-113394416D01*
X171431304Y-113350400D01*
X171415428Y-113321187D01*
X171394956Y-113286979D01*
X171358700Y-113237966D01*
X171309467Y-113177591D01*
X171250065Y-113109297D01*
X171183406Y-113036640D01*
X171155728Y-113001131D01*
X171124843Y-112952357D01*
X171098369Y-112902724D01*
X171056115Y-112814271D01*
X171081413Y-112782110D01*
X171097303Y-112759938D01*
X171096678Y-112751270D01*
X171084690Y-112749949D01*
X171063691Y-112756561D01*
G36*
X170123494Y-114297382D02*
X170114871Y-114311431D01*
X170106519Y-114325806D01*
X170085443Y-114350808D01*
X170073820Y-114363094D01*
X170032768Y-114405083D01*
X170048648Y-114479541D01*
X170060041Y-114523542D01*
X170078109Y-114582851D01*
X170100029Y-114648515D01*
X170115750Y-114692377D01*
X170136172Y-114748257D01*
X170152728Y-114794913D01*
X170163586Y-114827091D01*
X170166974Y-114839286D01*
X170172229Y-114854181D01*
X170186242Y-114886532D01*
X170206389Y-114930363D01*
X170214920Y-114948396D01*
X170241749Y-115007300D01*
X170267901Y-115069079D01*
X170288154Y-115121348D01*
X170289818Y-115126042D01*
X170316769Y-115203110D01*
X170406353Y-115233208D01*
X170495936Y-115263306D01*
X170489724Y-115208192D01*
X170487942Y-115167080D01*
X170491215Y-115133234D01*
X170492940Y-115127078D01*
X170494637Y-115094905D01*
X170488184Y-115075026D01*
X170476570Y-115051860D01*
X170473012Y-115042462D01*
X170465744Y-115015107D01*
X170451025Y-114971755D01*
X170431864Y-114920269D01*
X170411272Y-114868509D01*
X170392259Y-114824338D01*
X170379791Y-114798995D01*
X170363342Y-114762359D01*
X170360905Y-114740680D01*
X170370686Y-114736888D01*
X170390893Y-114753916D01*
X170400251Y-114765543D01*
X170422666Y-114794921D01*
X170439870Y-114816619D01*
X170440371Y-114817219D01*
X170452269Y-114838593D01*
X170453538Y-114845442D01*
X170461837Y-114861478D01*
X170463307Y-114862273D01*
X170480731Y-114878753D01*
X170503356Y-114910920D01*
X170526277Y-114950451D01*
X170544587Y-114989022D01*
X170552691Y-115013942D01*
X170567693Y-115052836D01*
X170592795Y-115090422D01*
X170595285Y-115093194D01*
X170633953Y-115139729D01*
X170675314Y-115196952D01*
X170711455Y-115253520D01*
X170727498Y-115282740D01*
X170749610Y-115317634D01*
X170779671Y-115354555D01*
X170785692Y-115360894D01*
X170814940Y-115395376D01*
X170837659Y-115430151D01*
X170840772Y-115436487D01*
X170859448Y-115465073D01*
X170877363Y-115470164D01*
X170891142Y-115451175D01*
X170892828Y-115445520D01*
X170905847Y-115426023D01*
X170919129Y-115426136D01*
X170944593Y-115424492D01*
X170976983Y-115409245D01*
X171006888Y-115386637D01*
X171024898Y-115362913D01*
X171026666Y-115354783D01*
X171032898Y-115330292D01*
X171039692Y-115322513D01*
X171051938Y-115305082D01*
X171040682Y-115280769D01*
X171030374Y-115269466D01*
X171013233Y-115243795D01*
X170993850Y-115202873D01*
X170976201Y-115156751D01*
X170964257Y-115115476D01*
X170961419Y-115095064D01*
X170955861Y-115072716D01*
X170941708Y-115036760D01*
X170929262Y-115009897D01*
X170905710Y-114952974D01*
X170897248Y-114909952D01*
X170904341Y-114883742D01*
X170908625Y-114880142D01*
X170923455Y-114884373D01*
X170942964Y-114904869D01*
X170944446Y-114906979D01*
X170972215Y-114942831D01*
X170997359Y-114970613D01*
X171017785Y-114993706D01*
X171026655Y-115009103D01*
X171026666Y-115009380D01*
X171033548Y-115025587D01*
X171050258Y-115052018D01*
X171051686Y-115054039D01*
X171071408Y-115085039D01*
X171096022Y-115128345D01*
X171122375Y-115177779D01*
X171147319Y-115227161D01*
X171167700Y-115270313D01*
X171180368Y-115301055D01*
X171182974Y-115311479D01*
X171192898Y-115330478D01*
X171213383Y-115348350D01*
X171243131Y-115375258D01*
X171260198Y-115398930D01*
X171280786Y-115423865D01*
X171314478Y-115452455D01*
X171333550Y-115465580D01*
X171371321Y-115493095D01*
X171402070Y-115521758D01*
X171411349Y-115533403D01*
X171429663Y-115554450D01*
X171445643Y-115553713D01*
X171449526Y-115550854D01*
X171460603Y-115527849D01*
X171459705Y-115509162D01*
X171458586Y-115489295D01*
X171470819Y-115488474D01*
X171485330Y-115502480D01*
X171485820Y-115509756D01*
X171490210Y-115523049D01*
X171509918Y-115520580D01*
X171540392Y-115503435D01*
X171553458Y-115493612D01*
X171574504Y-115475531D01*
X171584617Y-115459083D01*
X171585711Y-115435787D01*
X171579699Y-115397160D01*
X171577696Y-115386215D01*
X171569881Y-115335352D01*
X171569869Y-115308460D01*
X171577997Y-115304551D01*
X171594603Y-115322639D01*
X171597858Y-115327206D01*
X171623043Y-115359965D01*
X171648641Y-115389670D01*
X171668654Y-115413184D01*
X171677878Y-115427680D01*
X171677948Y-115428230D01*
X171685709Y-115440951D01*
X171705977Y-115467457D01*
X171732090Y-115499278D01*
X171772420Y-115539528D01*
X171808821Y-115561685D01*
X171837822Y-115564226D01*
X171852715Y-115552208D01*
X171869352Y-115545657D01*
X171890462Y-115546813D01*
X171918144Y-115544134D01*
X171946423Y-115522199D01*
X171955901Y-115511503D01*
X171977797Y-115482072D01*
X171989880Y-115459211D01*
X171990700Y-115455026D01*
X171991276Y-115435786D01*
X171992697Y-115397423D01*
X171994703Y-115346840D01*
X171995654Y-115323709D01*
X171996921Y-115259930D01*
X171993856Y-115213964D01*
X171985539Y-115177796D01*
X171976265Y-115154376D01*
X171960794Y-115110792D01*
X171952307Y-115068435D01*
X171951773Y-115059092D01*
X171946090Y-115020654D01*
X171932227Y-114975363D01*
X171926452Y-114961400D01*
X171926172Y-114960769D01*
X171666916Y-114960769D01*
X171659053Y-114964308D01*
X171645909Y-114957795D01*
X171261128Y-114957795D01*
X171254615Y-114964308D01*
X171248102Y-114957795D01*
X171254615Y-114951282D01*
X171261128Y-114957795D01*
X171645909Y-114957795D01*
X171638170Y-114953961D01*
X171625846Y-114938256D01*
X171617802Y-114918142D01*
X171619333Y-114912205D01*
X171619962Y-114902662D01*
X171612820Y-114886154D01*
X171602655Y-114864145D01*
X171605395Y-114861661D01*
X171618935Y-114876934D01*
X171641170Y-114908196D01*
X171643838Y-114912205D01*
X171663264Y-114944650D01*
X171666916Y-114960769D01*
X171926172Y-114960769D01*
X171905851Y-114915120D01*
X171885759Y-114869327D01*
X171881422Y-114859312D01*
X171862850Y-114828033D01*
X171831466Y-114786536D01*
X171793279Y-114742615D01*
X171783512Y-114732312D01*
X171743102Y-114692015D01*
X171713726Y-114667701D01*
X171689479Y-114655559D01*
X171664457Y-114651780D01*
X171658580Y-114651692D01*
X171615793Y-114657658D01*
X171569330Y-114672421D01*
X171559976Y-114676616D01*
X171508391Y-114701539D01*
X171476570Y-114647240D01*
X171448699Y-114607336D01*
X171411028Y-114562730D01*
X171385109Y-114536101D01*
X171350155Y-114504669D01*
X171325143Y-114488867D01*
X171302486Y-114485051D01*
X171284000Y-114487554D01*
X171245324Y-114502696D01*
X171209172Y-114527820D01*
X171208205Y-114528734D01*
X171187852Y-114551622D01*
X171178880Y-114575425D01*
X171178371Y-114610506D01*
X171179833Y-114629451D01*
X171186447Y-114677189D01*
X171198036Y-114736874D01*
X171211937Y-114794974D01*
X171225453Y-114845502D01*
X171237027Y-114888827D01*
X171244418Y-114916556D01*
X171244991Y-114918718D01*
X171245008Y-114930605D01*
X171234613Y-114922954D01*
X171216195Y-114898915D01*
X171192143Y-114861639D01*
X171164843Y-114814276D01*
X171162328Y-114809662D01*
X171134298Y-114765790D01*
X171095118Y-114714153D01*
X171052561Y-114664892D01*
X171046205Y-114658166D01*
X171001774Y-114614332D01*
X170965272Y-114585739D01*
X170928724Y-114566994D01*
X170894405Y-114555555D01*
X170839392Y-114541194D01*
X170800972Y-114536848D01*
X170771146Y-114543936D01*
X170741914Y-114563873D01*
X170716675Y-114587048D01*
X170684243Y-114621159D01*
X170667719Y-114648994D01*
X170662195Y-114679942D01*
X170661948Y-114691711D01*
X170660651Y-114724241D01*
X170654590Y-114736014D01*
X170640507Y-114732278D01*
X170637696Y-114730809D01*
X170619826Y-114713949D01*
X170594025Y-114680776D01*
X170565149Y-114637674D01*
X170557823Y-114625774D01*
X170502641Y-114548530D01*
X170432563Y-114471410D01*
X170354829Y-114401301D01*
X170276681Y-114345089D01*
X170242311Y-114325654D01*
X170191441Y-114303936D01*
X170150410Y-114294353D01*
X170123494Y-114297382D01*
X170123494Y-114297382D01*
G37*
X170123494Y-114297382D02*
X170114871Y-114311431D01*
X170106519Y-114325806D01*
X170085443Y-114350808D01*
X170073820Y-114363094D01*
X170032768Y-114405083D01*
X170048648Y-114479541D01*
X170060041Y-114523542D01*
X170078109Y-114582851D01*
X170100029Y-114648515D01*
X170115750Y-114692377D01*
X170136172Y-114748257D01*
X170152728Y-114794913D01*
X170163586Y-114827091D01*
X170166974Y-114839286D01*
X170172229Y-114854181D01*
X170186242Y-114886532D01*
X170206389Y-114930363D01*
X170214920Y-114948396D01*
X170241749Y-115007300D01*
X170267901Y-115069079D01*
X170288154Y-115121348D01*
X170289818Y-115126042D01*
X170316769Y-115203110D01*
X170406353Y-115233208D01*
X170495936Y-115263306D01*
X170489724Y-115208192D01*
X170487942Y-115167080D01*
X170491215Y-115133234D01*
X170492940Y-115127078D01*
X170494637Y-115094905D01*
X170488184Y-115075026D01*
X170476570Y-115051860D01*
X170473012Y-115042462D01*
X170465744Y-115015107D01*
X170451025Y-114971755D01*
X170431864Y-114920269D01*
X170411272Y-114868509D01*
X170392259Y-114824338D01*
X170379791Y-114798995D01*
X170363342Y-114762359D01*
X170360905Y-114740680D01*
X170370686Y-114736888D01*
X170390893Y-114753916D01*
X170400251Y-114765543D01*
X170422666Y-114794921D01*
X170439870Y-114816619D01*
X170440371Y-114817219D01*
X170452269Y-114838593D01*
X170453538Y-114845442D01*
X170461837Y-114861478D01*
X170463307Y-114862273D01*
X170480731Y-114878753D01*
X170503356Y-114910920D01*
X170526277Y-114950451D01*
X170544587Y-114989022D01*
X170552691Y-115013942D01*
X170567693Y-115052836D01*
X170592795Y-115090422D01*
X170595285Y-115093194D01*
X170633953Y-115139729D01*
X170675314Y-115196952D01*
X170711455Y-115253520D01*
X170727498Y-115282740D01*
X170749610Y-115317634D01*
X170779671Y-115354555D01*
X170785692Y-115360894D01*
X170814940Y-115395376D01*
X170837659Y-115430151D01*
X170840772Y-115436487D01*
X170859448Y-115465073D01*
X170877363Y-115470164D01*
X170891142Y-115451175D01*
X170892828Y-115445520D01*
X170905847Y-115426023D01*
X170919129Y-115426136D01*
X170944593Y-115424492D01*
X170976983Y-115409245D01*
X171006888Y-115386637D01*
X171024898Y-115362913D01*
X171026666Y-115354783D01*
X171032898Y-115330292D01*
X171039692Y-115322513D01*
X171051938Y-115305082D01*
X171040682Y-115280769D01*
X171030374Y-115269466D01*
X171013233Y-115243795D01*
X170993850Y-115202873D01*
X170976201Y-115156751D01*
X170964257Y-115115476D01*
X170961419Y-115095064D01*
X170955861Y-115072716D01*
X170941708Y-115036760D01*
X170929262Y-115009897D01*
X170905710Y-114952974D01*
X170897248Y-114909952D01*
X170904341Y-114883742D01*
X170908625Y-114880142D01*
X170923455Y-114884373D01*
X170942964Y-114904869D01*
X170944446Y-114906979D01*
X170972215Y-114942831D01*
X170997359Y-114970613D01*
X171017785Y-114993706D01*
X171026655Y-115009103D01*
X171026666Y-115009380D01*
X171033548Y-115025587D01*
X171050258Y-115052018D01*
X171051686Y-115054039D01*
X171071408Y-115085039D01*
X171096022Y-115128345D01*
X171122375Y-115177779D01*
X171147319Y-115227161D01*
X171167700Y-115270313D01*
X171180368Y-115301055D01*
X171182974Y-115311479D01*
X171192898Y-115330478D01*
X171213383Y-115348350D01*
X171243131Y-115375258D01*
X171260198Y-115398930D01*
X171280786Y-115423865D01*
X171314478Y-115452455D01*
X171333550Y-115465580D01*
X171371321Y-115493095D01*
X171402070Y-115521758D01*
X171411349Y-115533403D01*
X171429663Y-115554450D01*
X171445643Y-115553713D01*
X171449526Y-115550854D01*
X171460603Y-115527849D01*
X171459705Y-115509162D01*
X171458586Y-115489295D01*
X171470819Y-115488474D01*
X171485330Y-115502480D01*
X171485820Y-115509756D01*
X171490210Y-115523049D01*
X171509918Y-115520580D01*
X171540392Y-115503435D01*
X171553458Y-115493612D01*
X171574504Y-115475531D01*
X171584617Y-115459083D01*
X171585711Y-115435787D01*
X171579699Y-115397160D01*
X171577696Y-115386215D01*
X171569881Y-115335352D01*
X171569869Y-115308460D01*
X171577997Y-115304551D01*
X171594603Y-115322639D01*
X171597858Y-115327206D01*
X171623043Y-115359965D01*
X171648641Y-115389670D01*
X171668654Y-115413184D01*
X171677878Y-115427680D01*
X171677948Y-115428230D01*
X171685709Y-115440951D01*
X171705977Y-115467457D01*
X171732090Y-115499278D01*
X171772420Y-115539528D01*
X171808821Y-115561685D01*
X171837822Y-115564226D01*
X171852715Y-115552208D01*
X171869352Y-115545657D01*
X171890462Y-115546813D01*
X171918144Y-115544134D01*
X171946423Y-115522199D01*
X171955901Y-115511503D01*
X171977797Y-115482072D01*
X171989880Y-115459211D01*
X171990700Y-115455026D01*
X171991276Y-115435786D01*
X171992697Y-115397423D01*
X171994703Y-115346840D01*
X171995654Y-115323709D01*
X171996921Y-115259930D01*
X171993856Y-115213964D01*
X171985539Y-115177796D01*
X171976265Y-115154376D01*
X171960794Y-115110792D01*
X171952307Y-115068435D01*
X171951773Y-115059092D01*
X171946090Y-115020654D01*
X171932227Y-114975363D01*
X171926452Y-114961400D01*
X171926172Y-114960769D01*
X171666916Y-114960769D01*
X171659053Y-114964308D01*
X171645909Y-114957795D01*
X171261128Y-114957795D01*
X171254615Y-114964308D01*
X171248102Y-114957795D01*
X171254615Y-114951282D01*
X171261128Y-114957795D01*
X171645909Y-114957795D01*
X171638170Y-114953961D01*
X171625846Y-114938256D01*
X171617802Y-114918142D01*
X171619333Y-114912205D01*
X171619962Y-114902662D01*
X171612820Y-114886154D01*
X171602655Y-114864145D01*
X171605395Y-114861661D01*
X171618935Y-114876934D01*
X171641170Y-114908196D01*
X171643838Y-114912205D01*
X171663264Y-114944650D01*
X171666916Y-114960769D01*
X171926172Y-114960769D01*
X171905851Y-114915120D01*
X171885759Y-114869327D01*
X171881422Y-114859312D01*
X171862850Y-114828033D01*
X171831466Y-114786536D01*
X171793279Y-114742615D01*
X171783512Y-114732312D01*
X171743102Y-114692015D01*
X171713726Y-114667701D01*
X171689479Y-114655559D01*
X171664457Y-114651780D01*
X171658580Y-114651692D01*
X171615793Y-114657658D01*
X171569330Y-114672421D01*
X171559976Y-114676616D01*
X171508391Y-114701539D01*
X171476570Y-114647240D01*
X171448699Y-114607336D01*
X171411028Y-114562730D01*
X171385109Y-114536101D01*
X171350155Y-114504669D01*
X171325143Y-114488867D01*
X171302486Y-114485051D01*
X171284000Y-114487554D01*
X171245324Y-114502696D01*
X171209172Y-114527820D01*
X171208205Y-114528734D01*
X171187852Y-114551622D01*
X171178880Y-114575425D01*
X171178371Y-114610506D01*
X171179833Y-114629451D01*
X171186447Y-114677189D01*
X171198036Y-114736874D01*
X171211937Y-114794974D01*
X171225453Y-114845502D01*
X171237027Y-114888827D01*
X171244418Y-114916556D01*
X171244991Y-114918718D01*
X171245008Y-114930605D01*
X171234613Y-114922954D01*
X171216195Y-114898915D01*
X171192143Y-114861639D01*
X171164843Y-114814276D01*
X171162328Y-114809662D01*
X171134298Y-114765790D01*
X171095118Y-114714153D01*
X171052561Y-114664892D01*
X171046205Y-114658166D01*
X171001774Y-114614332D01*
X170965272Y-114585739D01*
X170928724Y-114566994D01*
X170894405Y-114555555D01*
X170839392Y-114541194D01*
X170800972Y-114536848D01*
X170771146Y-114543936D01*
X170741914Y-114563873D01*
X170716675Y-114587048D01*
X170684243Y-114621159D01*
X170667719Y-114648994D01*
X170662195Y-114679942D01*
X170661948Y-114691711D01*
X170660651Y-114724241D01*
X170654590Y-114736014D01*
X170640507Y-114732278D01*
X170637696Y-114730809D01*
X170619826Y-114713949D01*
X170594025Y-114680776D01*
X170565149Y-114637674D01*
X170557823Y-114625774D01*
X170502641Y-114548530D01*
X170432563Y-114471410D01*
X170354829Y-114401301D01*
X170276681Y-114345089D01*
X170242311Y-114325654D01*
X170191441Y-114303936D01*
X170150410Y-114294353D01*
X170123494Y-114297382D01*
G36*
X168259052Y-112828583D02*
X168240772Y-112856037D01*
X168239179Y-112867918D01*
X168231035Y-112888629D01*
X168220099Y-112893231D01*
X168201678Y-112902221D01*
X168185526Y-112922059D01*
X168179072Y-112942040D01*
X168181666Y-112948606D01*
X168185984Y-112963800D01*
X168191656Y-112998446D01*
X168197675Y-113046051D01*
X168199647Y-113064293D01*
X168212264Y-113145706D01*
X168233895Y-113216552D01*
X168254953Y-113264462D01*
X168293023Y-113337970D01*
X168333466Y-113407002D01*
X168371836Y-113464296D01*
X168395487Y-113493986D01*
X168431230Y-113534621D01*
X168467165Y-113577182D01*
X168509529Y-113629130D01*
X168535701Y-113661744D01*
X168574395Y-113708568D01*
X168613791Y-113753703D01*
X168646079Y-113788234D01*
X168649239Y-113791373D01*
X168676017Y-113820847D01*
X168692527Y-113845197D01*
X168695076Y-113853245D01*
X168703044Y-113868819D01*
X168708102Y-113870154D01*
X168718721Y-113881052D01*
X168721128Y-113895940D01*
X168708134Y-113921576D01*
X168669238Y-113948183D01*
X168666585Y-113949552D01*
X168629631Y-113970242D01*
X168600859Y-113989545D01*
X168594014Y-113995407D01*
X168574600Y-114010478D01*
X168566396Y-114013436D01*
X168553195Y-114025068D01*
X168538305Y-114055082D01*
X168524272Y-114096157D01*
X168513643Y-114140969D01*
X168509102Y-114178191D01*
X168505035Y-114214246D01*
X168497873Y-114236151D01*
X168493179Y-114239399D01*
X168479593Y-114227607D01*
X168460902Y-114200332D01*
X168453581Y-114187296D01*
X168416489Y-114118025D01*
X168388216Y-114067200D01*
X168365860Y-114030001D01*
X168346518Y-114001609D01*
X168327287Y-113977204D01*
X168326417Y-113976169D01*
X168296908Y-113935687D01*
X168268528Y-113888406D01*
X168261763Y-113875220D01*
X168242851Y-113841953D01*
X168225840Y-113821339D01*
X168219367Y-113818051D01*
X168206341Y-113807129D01*
X168188325Y-113779013D01*
X168175389Y-113753095D01*
X168152630Y-113711042D01*
X168127171Y-113675890D01*
X168114452Y-113663297D01*
X168092141Y-113642159D01*
X168082871Y-113626249D01*
X168072610Y-113611817D01*
X168050901Y-113596933D01*
X168029760Y-113578936D01*
X168000423Y-113545997D01*
X167968444Y-113505305D01*
X167939374Y-113464046D01*
X167918765Y-113429409D01*
X167914813Y-113420769D01*
X167902628Y-113402582D01*
X167882249Y-113379139D01*
X167839857Y-113334036D01*
X167810792Y-113300914D01*
X167789796Y-113273494D01*
X167775269Y-113251436D01*
X167728226Y-113185002D01*
X167682403Y-113137386D01*
X167639936Y-113110091D01*
X167602959Y-113104622D01*
X167581215Y-113114807D01*
X167564786Y-113136398D01*
X167561846Y-113147739D01*
X167552229Y-113166800D01*
X167529488Y-113188478D01*
X167497130Y-113212359D01*
X167535088Y-113291673D01*
X167559589Y-113336048D01*
X167585709Y-113372852D01*
X167605408Y-113392192D01*
X167627544Y-113412710D01*
X167657930Y-113448614D01*
X167691012Y-113493193D01*
X167700756Y-113507440D01*
X167743842Y-113570549D01*
X167778123Y-113617340D01*
X167808320Y-113653764D01*
X167839153Y-113685770D01*
X167851666Y-113697683D01*
X167875199Y-113724183D01*
X167887123Y-113746408D01*
X167887487Y-113749332D01*
X167893302Y-113761837D01*
X167898270Y-113760822D01*
X167910919Y-113766577D01*
X167933320Y-113786726D01*
X167959645Y-113814784D01*
X167984066Y-113844265D01*
X168000756Y-113868684D01*
X168004717Y-113879271D01*
X168014502Y-113893728D01*
X168030530Y-113906058D01*
X168050983Y-113926606D01*
X168075075Y-113961536D01*
X168088541Y-113985720D01*
X168109767Y-114022536D01*
X168129645Y-114048738D01*
X168139212Y-114056350D01*
X168155651Y-114071520D01*
X168176280Y-114101906D01*
X168186048Y-114119848D01*
X168205322Y-114157542D01*
X168221241Y-114187588D01*
X168225837Y-114195795D01*
X168236035Y-114215898D01*
X168253725Y-114253285D01*
X168275844Y-114301425D01*
X168286962Y-114326051D01*
X168312449Y-114379280D01*
X168338011Y-114426741D01*
X168359455Y-114460849D01*
X168366073Y-114469200D01*
X168386689Y-114492935D01*
X168395336Y-114508631D01*
X168389103Y-114517804D01*
X168365077Y-114521965D01*
X168320346Y-114522628D01*
X168265230Y-114521603D01*
X168204198Y-114516731D01*
X168157265Y-114502298D01*
X168113341Y-114473784D01*
X168083086Y-114447358D01*
X168052601Y-114423774D01*
X168024686Y-114409210D01*
X168024256Y-114409077D01*
X167993770Y-114394342D01*
X167972153Y-114378942D01*
X167944070Y-114360678D01*
X167899844Y-114337826D01*
X167847976Y-114314242D01*
X167796970Y-114293780D01*
X167755325Y-114280297D01*
X167753807Y-114279916D01*
X167687460Y-114275537D01*
X167620612Y-114291513D01*
X167563672Y-114325178D01*
X167558331Y-114329968D01*
X167529466Y-114360386D01*
X167509140Y-114387860D01*
X167505158Y-114395903D01*
X167494741Y-114412248D01*
X167478439Y-114405233D01*
X167476932Y-114404000D01*
X167451407Y-114392903D01*
X167414253Y-114386809D01*
X167408386Y-114386549D01*
X167370448Y-114390404D01*
X167339313Y-114408088D01*
X167319146Y-114427298D01*
X167291131Y-114451498D01*
X167260303Y-114465116D01*
X167221790Y-114468309D01*
X167170722Y-114461229D01*
X167102227Y-114444034D01*
X167071585Y-114435165D01*
X166981630Y-114409719D01*
X166900694Y-114389103D01*
X166833326Y-114374366D01*
X166784076Y-114366556D01*
X166769452Y-114365586D01*
X166742637Y-114374676D01*
X166709664Y-114397835D01*
X166678226Y-114427944D01*
X166656020Y-114457880D01*
X166650051Y-114476083D01*
X166642532Y-114493258D01*
X166636256Y-114495385D01*
X166628193Y-114503229D01*
X166629933Y-114507472D01*
X166626067Y-114520616D01*
X166614379Y-114526868D01*
X166598063Y-114542525D01*
X166580526Y-114574030D01*
X166566078Y-114611775D01*
X166559025Y-114646151D01*
X166558871Y-114650674D01*
X166569379Y-114663337D01*
X166596401Y-114682659D01*
X166620743Y-114697011D01*
X166673831Y-114735107D01*
X166719417Y-114784175D01*
X166750467Y-114836011D01*
X166757451Y-114856504D01*
X166760785Y-114875744D01*
X166752759Y-114877821D01*
X166730152Y-114866187D01*
X166673357Y-114829602D01*
X166622117Y-114788048D01*
X166594156Y-114759154D01*
X166572578Y-114737940D01*
X166556862Y-114729846D01*
X166540180Y-114722147D01*
X166511233Y-114702339D01*
X166488081Y-114684256D01*
X166455728Y-114659074D01*
X166431349Y-114642517D01*
X166422771Y-114638667D01*
X166406397Y-114631802D01*
X166379988Y-114615179D01*
X166378523Y-114614146D01*
X166337882Y-114594139D01*
X166282630Y-114577740D01*
X166223747Y-114567243D01*
X166172207Y-114564941D01*
X166154034Y-114567254D01*
X166117070Y-114586016D01*
X166101924Y-114610565D01*
X166087704Y-114646796D01*
X166076923Y-114671231D01*
X166062993Y-114703350D01*
X166051060Y-114734161D01*
X166037088Y-114755994D01*
X166020507Y-114764863D01*
X166009148Y-114759031D01*
X166008861Y-114743532D01*
X166005034Y-114733770D01*
X166000142Y-114735510D01*
X165982330Y-114733657D01*
X165968185Y-114723453D01*
X165949058Y-114707560D01*
X165940701Y-114703795D01*
X165926770Y-114696087D01*
X165896320Y-114674802D01*
X165853126Y-114642700D01*
X165800961Y-114602540D01*
X165783846Y-114589112D01*
X165737228Y-114562262D01*
X165673376Y-114538410D01*
X165600792Y-114519475D01*
X165527978Y-114507376D01*
X165463436Y-114504033D01*
X165425974Y-114508331D01*
X165398978Y-114524406D01*
X165367237Y-114556988D01*
X165335725Y-114598879D01*
X165309416Y-114642881D01*
X165293282Y-114681795D01*
X165290927Y-114703795D01*
X165300460Y-114743343D01*
X165315360Y-114788446D01*
X165332216Y-114830193D01*
X165347617Y-114859669D01*
X165353232Y-114866615D01*
X165371582Y-114885901D01*
X165397993Y-114917009D01*
X165427758Y-114953940D01*
X165456168Y-114990696D01*
X165478517Y-115021278D01*
X165490097Y-115039687D01*
X165490769Y-115041875D01*
X165497904Y-115056045D01*
X165516635Y-115085350D01*
X165542955Y-115124069D01*
X165572855Y-115166478D01*
X165602326Y-115206853D01*
X165627359Y-115239471D01*
X165638674Y-115253043D01*
X165650886Y-115272989D01*
X165650333Y-115282350D01*
X165652700Y-115289368D01*
X165657931Y-115289949D01*
X165670694Y-115300708D01*
X165673128Y-115313395D01*
X165683947Y-115346172D01*
X165716005Y-115364324D01*
X165750992Y-115368103D01*
X165794691Y-115360862D01*
X165821321Y-115337368D01*
X165832878Y-115294964D01*
X165833365Y-115258393D01*
X165829868Y-115216365D01*
X165824286Y-115183176D01*
X165821322Y-115173726D01*
X165812683Y-115150814D01*
X165811022Y-115143833D01*
X165802509Y-115127632D01*
X165789524Y-115110692D01*
X165769464Y-115082162D01*
X165760625Y-115064680D01*
X165747778Y-115045840D01*
X165740187Y-115042462D01*
X165729348Y-115032287D01*
X165709964Y-115006301D01*
X165686415Y-114971312D01*
X165663081Y-114934128D01*
X165644343Y-114901555D01*
X165634580Y-114880403D01*
X165634051Y-114877506D01*
X165626704Y-114861490D01*
X165609860Y-114840151D01*
X165591316Y-114822039D01*
X165578864Y-114815703D01*
X165578125Y-114816165D01*
X165568633Y-114811001D01*
X165554357Y-114790418D01*
X165540191Y-114763183D01*
X165531031Y-114738063D01*
X165529846Y-114729690D01*
X165540491Y-114721051D01*
X165567236Y-114721312D01*
X165602292Y-114728979D01*
X165637871Y-114742555D01*
X165658321Y-114754352D01*
X165691438Y-114774411D01*
X165719155Y-114786736D01*
X165741468Y-114799832D01*
X165774380Y-114826233D01*
X165810335Y-114859802D01*
X165843783Y-114892005D01*
X165870522Y-114915311D01*
X165885021Y-114924913D01*
X165885344Y-114924947D01*
X165903648Y-114932532D01*
X165911395Y-114938060D01*
X165931234Y-114954100D01*
X165961053Y-114978075D01*
X165969717Y-114985023D01*
X165995556Y-115010967D01*
X166008474Y-115034406D01*
X166008794Y-115040057D01*
X166017458Y-115060550D01*
X166044359Y-115078438D01*
X166085522Y-115097503D01*
X166108158Y-115110322D01*
X166117854Y-115120501D01*
X166119828Y-115127128D01*
X166131023Y-115144468D01*
X166157905Y-115172152D01*
X166194856Y-115205527D01*
X166236259Y-115239942D01*
X166276499Y-115270744D01*
X166309959Y-115293281D01*
X166331021Y-115302901D01*
X166332124Y-115302974D01*
X166353362Y-115292490D01*
X166358427Y-115284346D01*
X166375049Y-115266875D01*
X166402326Y-115252906D01*
X166434475Y-115231229D01*
X166447874Y-115200043D01*
X166457576Y-115169671D01*
X166468619Y-115152607D01*
X166468694Y-115152560D01*
X166480992Y-115131120D01*
X166479853Y-115095955D01*
X166467454Y-115054193D01*
X166445972Y-115012962D01*
X166417584Y-114979392D01*
X166415179Y-114977333D01*
X166404090Y-114963747D01*
X166383595Y-114935437D01*
X166365166Y-114908815D01*
X166341510Y-114867387D01*
X166336724Y-114842980D01*
X166348969Y-114836812D01*
X166376404Y-114850101D01*
X166411138Y-114878385D01*
X166472050Y-114932440D01*
X166526433Y-114974856D01*
X166584923Y-115013594D01*
X166619578Y-115034390D01*
X166660403Y-115060465D01*
X166691731Y-115084465D01*
X166706944Y-115101306D01*
X166707076Y-115101629D01*
X166722044Y-115116517D01*
X166754652Y-115137538D01*
X166798536Y-115160703D01*
X166809914Y-115166081D01*
X166858407Y-115190418D01*
X166899950Y-115214720D01*
X166926703Y-115234334D01*
X166929265Y-115236921D01*
X166948837Y-115256097D01*
X166966083Y-115261633D01*
X166988890Y-115252990D01*
X167023960Y-115230424D01*
X167063919Y-115198473D01*
X167088408Y-115163808D01*
X167100579Y-115119174D01*
X167103584Y-115057315D01*
X167103462Y-115047428D01*
X167100905Y-114994895D01*
X167093688Y-114958686D01*
X167079223Y-114929158D01*
X167067189Y-114912205D01*
X167040518Y-114872350D01*
X167018703Y-114831716D01*
X167015513Y-114824282D01*
X167001293Y-114796060D01*
X166988571Y-114782231D01*
X166987137Y-114781949D01*
X166976833Y-114771445D01*
X166975692Y-114763390D01*
X166966819Y-114744871D01*
X166943889Y-114716313D01*
X166920680Y-114692487D01*
X166892593Y-114663261D01*
X166875958Y-114640946D01*
X166873913Y-114631899D01*
X166889131Y-114632438D01*
X166921239Y-114641706D01*
X166963381Y-114657711D01*
X166964745Y-114658282D01*
X167034527Y-114681691D01*
X167108186Y-114696594D01*
X167178463Y-114702302D01*
X167238103Y-114698126D01*
X167272600Y-114687546D01*
X167302477Y-114676437D01*
X167322636Y-114675619D01*
X167323590Y-114676151D01*
X167335642Y-114690635D01*
X167356535Y-114721438D01*
X167382071Y-114762325D01*
X167386031Y-114768923D01*
X167413914Y-114813243D01*
X167439999Y-114850651D01*
X167458994Y-114873596D01*
X167460133Y-114874656D01*
X167478674Y-114899134D01*
X167483692Y-114916248D01*
X167491712Y-114935119D01*
X167513065Y-114967431D01*
X167543691Y-115007230D01*
X167555188Y-115021049D01*
X167606361Y-115075757D01*
X167651733Y-115111162D01*
X167684607Y-115127445D01*
X167720341Y-115144061D01*
X167744475Y-115160796D01*
X167749314Y-115167243D01*
X167764898Y-115183244D01*
X167795156Y-115200970D01*
X167804465Y-115205130D01*
X167840970Y-115225150D01*
X167868695Y-115248478D01*
X167871886Y-115252541D01*
X167904227Y-115281735D01*
X167952974Y-115306851D01*
X168008483Y-115323802D01*
X168051691Y-115328740D01*
X168091825Y-115324237D01*
X168130083Y-115307445D01*
X168166352Y-115282315D01*
X168236827Y-115224991D01*
X168286569Y-115174357D01*
X168318081Y-115125321D01*
X168333867Y-115072794D01*
X168334595Y-115055415D01*
X168134181Y-115055415D01*
X168128680Y-115080789D01*
X168109977Y-115104454D01*
X168082605Y-115118794D01*
X168071809Y-115120201D01*
X168052533Y-115114021D01*
X168018438Y-115097378D01*
X167976687Y-115073789D01*
X167974117Y-115072243D01*
X167925329Y-115039046D01*
X167870122Y-114995415D01*
X167812059Y-114944891D01*
X167754704Y-114891014D01*
X167701621Y-114837324D01*
X167656375Y-114787360D01*
X167622528Y-114744664D01*
X167603645Y-114712775D01*
X167600923Y-114701556D01*
X167593875Y-114678015D01*
X167580087Y-114653793D01*
X167566738Y-114629423D01*
X167570683Y-114611203D01*
X167577568Y-114602049D01*
X167596203Y-114573765D01*
X167611970Y-114542432D01*
X167622052Y-114521823D01*
X167634562Y-114511383D01*
X167656827Y-114508844D01*
X167696171Y-114511940D01*
X167706881Y-114513051D01*
X167755592Y-114521096D01*
X167805102Y-114534051D01*
X167849298Y-114549657D01*
X167882066Y-114565652D01*
X167897291Y-114579778D01*
X167897469Y-114583504D01*
X167903794Y-114598629D01*
X167923790Y-114623973D01*
X167936333Y-114637247D01*
X167961845Y-114666498D01*
X167976923Y-114690814D01*
X167978666Y-114697637D01*
X167988551Y-114719909D01*
X167995700Y-114725942D01*
X168012347Y-114745599D01*
X168033416Y-114783525D01*
X168056140Y-114832951D01*
X168077753Y-114887106D01*
X168095490Y-114939221D01*
X168106583Y-114982523D01*
X168108923Y-115003071D01*
X168115009Y-115027817D01*
X168121948Y-115035949D01*
X168134181Y-115055415D01*
X168334595Y-115055415D01*
X168336430Y-115011685D01*
X168330106Y-114949361D01*
X168321339Y-114893742D01*
X168311535Y-114840963D01*
X168303056Y-114803429D01*
X168295651Y-114770662D01*
X168293740Y-114750536D01*
X168294471Y-114748366D01*
X168309632Y-114743706D01*
X168342358Y-114737718D01*
X168384402Y-114731498D01*
X168427519Y-114726144D01*
X168463462Y-114722752D01*
X168483986Y-114722419D01*
X168485715Y-114722925D01*
X168495909Y-114737527D01*
X168514015Y-114771128D01*
X168537551Y-114818842D01*
X168564030Y-114875780D01*
X168568703Y-114886154D01*
X168583857Y-114922935D01*
X168602684Y-114972665D01*
X168618257Y-115016410D01*
X168635028Y-115062047D01*
X168650611Y-115099163D01*
X168661260Y-115119124D01*
X168674004Y-115142735D01*
X168676086Y-115151688D01*
X168681388Y-115176440D01*
X168684564Y-115185744D01*
X168692293Y-115209819D01*
X168702873Y-115247416D01*
X168707216Y-115263897D01*
X168719108Y-115305583D01*
X168730903Y-115340192D01*
X168734399Y-115348564D01*
X168743240Y-115373182D01*
X168755835Y-115415035D01*
X168769781Y-115466042D01*
X168772928Y-115478223D01*
X168786611Y-115527806D01*
X168799508Y-115567704D01*
X168809339Y-115591042D01*
X168811226Y-115593668D01*
X168830023Y-115599544D01*
X168845906Y-115585719D01*
X168851384Y-115562718D01*
X168855544Y-115541287D01*
X168869836Y-115541434D01*
X168892828Y-115559117D01*
X168910710Y-115572247D01*
X168926146Y-115569788D01*
X168949213Y-115550333D01*
X168972734Y-115520878D01*
X168979666Y-115488120D01*
X168970277Y-115445556D01*
X168955054Y-115408456D01*
X168939740Y-115364501D01*
X168936374Y-115330024D01*
X168937619Y-115324086D01*
X168947360Y-115265099D01*
X168945180Y-115196913D01*
X168932462Y-115129914D01*
X168910592Y-115074489D01*
X168902690Y-115062000D01*
X168895631Y-115044227D01*
X168884544Y-115007527D01*
X168871311Y-114958345D01*
X168864638Y-114931744D01*
X168848147Y-114867737D01*
X168829971Y-114802341D01*
X168813435Y-114747411D01*
X168809832Y-114736359D01*
X168788582Y-114671361D01*
X168775635Y-114625973D01*
X168770620Y-114595240D01*
X168773168Y-114574207D01*
X168782910Y-114557918D01*
X168795561Y-114545041D01*
X168825520Y-114510478D01*
X168847649Y-114475846D01*
X168869899Y-114441919D01*
X168901287Y-114404810D01*
X168911540Y-114394464D01*
X168937912Y-114365216D01*
X168953646Y-114340197D01*
X168955589Y-114332593D01*
X168961009Y-114314405D01*
X168973979Y-114316445D01*
X168989566Y-114336075D01*
X168998179Y-114355359D01*
X169007727Y-114386416D01*
X169010862Y-114405983D01*
X169010682Y-114406996D01*
X169015317Y-114422419D01*
X169030398Y-114455848D01*
X169053477Y-114502650D01*
X169082106Y-114558197D01*
X169113837Y-114617855D01*
X169146220Y-114676995D01*
X169176807Y-114730986D01*
X169203150Y-114775196D01*
X169215816Y-114794974D01*
X169236102Y-114830444D01*
X169255062Y-114871226D01*
X169255603Y-114872569D01*
X169273216Y-114908532D01*
X169292100Y-114936011D01*
X169293798Y-114937799D01*
X169306606Y-114956631D01*
X169328645Y-114995610D01*
X169358148Y-115051263D01*
X169393347Y-115120120D01*
X169432475Y-115198712D01*
X169473765Y-115283568D01*
X169515451Y-115371217D01*
X169526191Y-115394154D01*
X169560850Y-115475003D01*
X169592262Y-115560536D01*
X169618418Y-115644177D01*
X169637304Y-115719348D01*
X169646909Y-115779475D01*
X169647618Y-115791161D01*
X169649689Y-115831400D01*
X169656494Y-115853330D01*
X169673895Y-115861025D01*
X169707754Y-115858565D01*
X169737948Y-115853982D01*
X169772246Y-115839786D01*
X169795682Y-115808153D01*
X169809114Y-115756846D01*
X169813403Y-115683629D01*
X169813075Y-115658599D01*
X169800460Y-115542761D01*
X169770145Y-115422212D01*
X169725156Y-115308026D01*
X169708328Y-115274959D01*
X169622623Y-115115528D01*
X169537529Y-114954448D01*
X169515446Y-114912226D01*
X169484405Y-114854806D01*
X169454530Y-114803106D01*
X169429471Y-114763243D01*
X169414376Y-114742892D01*
X169398213Y-114720074D01*
X169373383Y-114678840D01*
X169342711Y-114624152D01*
X169309022Y-114560974D01*
X169292028Y-114527949D01*
X169252576Y-114448235D01*
X169224913Y-114386974D01*
X169207495Y-114340240D01*
X169198774Y-114304107D01*
X169197111Y-114286974D01*
X169193063Y-114254269D01*
X169181735Y-114219994D01*
X169160448Y-114178111D01*
X169126527Y-114122581D01*
X169119168Y-114111128D01*
X169087404Y-114062514D01*
X169060521Y-114022447D01*
X169041812Y-113995767D01*
X169035036Y-113987385D01*
X169024472Y-113974316D01*
X169003242Y-113944768D01*
X168975066Y-113903980D01*
X168959959Y-113881639D01*
X168926581Y-113828456D01*
X168907104Y-113789500D01*
X168902838Y-113767461D01*
X168903534Y-113765872D01*
X168915760Y-113758305D01*
X168935679Y-113770029D01*
X168942943Y-113776532D01*
X168976120Y-113801739D01*
X169014169Y-113823674D01*
X169048124Y-113843404D01*
X169073113Y-113864031D01*
X169074030Y-113865098D01*
X169100979Y-113886293D01*
X169146435Y-113910522D01*
X169204686Y-113935840D01*
X169270017Y-113960301D01*
X169336718Y-113981960D01*
X169399076Y-113998870D01*
X169451379Y-114009087D01*
X169487914Y-114010665D01*
X169495946Y-114008805D01*
X169510854Y-113990646D01*
X169515692Y-113961742D01*
X169521199Y-113930829D01*
X169535650Y-113922256D01*
X169555977Y-113910680D01*
X169569508Y-113881193D01*
X169573241Y-113841660D01*
X169571794Y-113827646D01*
X169550759Y-113757697D01*
X169531630Y-113726024D01*
X168874242Y-113726024D01*
X168872460Y-113726872D01*
X168860573Y-113717702D01*
X168857897Y-113713846D01*
X168854578Y-113701669D01*
X168856360Y-113700820D01*
X168868247Y-113709990D01*
X168870923Y-113713846D01*
X168874242Y-113726024D01*
X169531630Y-113726024D01*
X169508583Y-113687867D01*
X169503684Y-113682409D01*
X169229128Y-113682409D01*
X169225433Y-113687132D01*
X169211369Y-113682514D01*
X169182466Y-113666648D01*
X169158018Y-113652069D01*
X169119334Y-113626126D01*
X169100120Y-113607361D01*
X169101976Y-113597595D01*
X169109331Y-113596615D01*
X169124321Y-113603566D01*
X169151243Y-113620768D01*
X169182452Y-113642749D01*
X169210307Y-113664034D01*
X169227164Y-113679150D01*
X169229128Y-113682409D01*
X169503684Y-113682409D01*
X169443428Y-113615289D01*
X169423590Y-113596615D01*
X169372177Y-113549215D01*
X169055292Y-113549215D01*
X169050544Y-113552177D01*
X169027471Y-113540575D01*
X169024855Y-113539153D01*
X168999691Y-113521754D01*
X168961909Y-113491224D01*
X168917571Y-113452589D01*
X168890461Y-113427719D01*
X168835598Y-113378411D01*
X168793622Y-113347459D01*
X168759987Y-113333860D01*
X168730145Y-113336613D01*
X168699548Y-113354716D01*
X168671551Y-113379502D01*
X168628486Y-113420769D01*
X168571758Y-113355641D01*
X168520187Y-113289264D01*
X168479524Y-113222563D01*
X168451536Y-113159797D01*
X168437988Y-113105225D01*
X168440644Y-113063108D01*
X168445869Y-113051876D01*
X168463689Y-113046439D01*
X168497664Y-113054825D01*
X168543632Y-113074556D01*
X168597430Y-113103150D01*
X168654895Y-113138128D01*
X168711864Y-113177009D01*
X168764174Y-113217312D01*
X168807663Y-113256558D01*
X168829178Y-113280264D01*
X168849293Y-113303335D01*
X168881363Y-113338250D01*
X168919134Y-113378225D01*
X168926871Y-113386279D01*
X168970719Y-113432175D01*
X169000471Y-113464674D01*
X169020362Y-113488884D01*
X169034629Y-113509918D01*
X169045888Y-113529841D01*
X169055292Y-113549215D01*
X169372177Y-113549215D01*
X169352485Y-113531061D01*
X169295983Y-113477654D01*
X169249085Y-113431386D01*
X169206790Y-113387249D01*
X169164097Y-113340235D01*
X169137948Y-113310553D01*
X169068481Y-113233836D01*
X168995872Y-113158492D01*
X168924447Y-113088682D01*
X168858535Y-113028565D01*
X168802463Y-112982300D01*
X168778356Y-112964913D01*
X168699147Y-112917506D01*
X168616240Y-112877688D01*
X168536175Y-112848026D01*
X168465489Y-112831089D01*
X168430045Y-112828103D01*
X168383186Y-112825917D01*
X168342455Y-112820331D01*
X168326274Y-112816000D01*
X168290574Y-112813437D01*
X168259052Y-112828583D01*
X168259052Y-112828583D01*
G37*
X168259052Y-112828583D02*
X168240772Y-112856037D01*
X168239179Y-112867918D01*
X168231035Y-112888629D01*
X168220099Y-112893231D01*
X168201678Y-112902221D01*
X168185526Y-112922059D01*
X168179072Y-112942040D01*
X168181666Y-112948606D01*
X168185984Y-112963800D01*
X168191656Y-112998446D01*
X168197675Y-113046051D01*
X168199647Y-113064293D01*
X168212264Y-113145706D01*
X168233895Y-113216552D01*
X168254953Y-113264462D01*
X168293023Y-113337970D01*
X168333466Y-113407002D01*
X168371836Y-113464296D01*
X168395487Y-113493986D01*
X168431230Y-113534621D01*
X168467165Y-113577182D01*
X168509529Y-113629130D01*
X168535701Y-113661744D01*
X168574395Y-113708568D01*
X168613791Y-113753703D01*
X168646079Y-113788234D01*
X168649239Y-113791373D01*
X168676017Y-113820847D01*
X168692527Y-113845197D01*
X168695076Y-113853245D01*
X168703044Y-113868819D01*
X168708102Y-113870154D01*
X168718721Y-113881052D01*
X168721128Y-113895940D01*
X168708134Y-113921576D01*
X168669238Y-113948183D01*
X168666585Y-113949552D01*
X168629631Y-113970242D01*
X168600859Y-113989545D01*
X168594014Y-113995407D01*
X168574600Y-114010478D01*
X168566396Y-114013436D01*
X168553195Y-114025068D01*
X168538305Y-114055082D01*
X168524272Y-114096157D01*
X168513643Y-114140969D01*
X168509102Y-114178191D01*
X168505035Y-114214246D01*
X168497873Y-114236151D01*
X168493179Y-114239399D01*
X168479593Y-114227607D01*
X168460902Y-114200332D01*
X168453581Y-114187296D01*
X168416489Y-114118025D01*
X168388216Y-114067200D01*
X168365860Y-114030001D01*
X168346518Y-114001609D01*
X168327287Y-113977204D01*
X168326417Y-113976169D01*
X168296908Y-113935687D01*
X168268528Y-113888406D01*
X168261763Y-113875220D01*
X168242851Y-113841953D01*
X168225840Y-113821339D01*
X168219367Y-113818051D01*
X168206341Y-113807129D01*
X168188325Y-113779013D01*
X168175389Y-113753095D01*
X168152630Y-113711042D01*
X168127171Y-113675890D01*
X168114452Y-113663297D01*
X168092141Y-113642159D01*
X168082871Y-113626249D01*
X168072610Y-113611817D01*
X168050901Y-113596933D01*
X168029760Y-113578936D01*
X168000423Y-113545997D01*
X167968444Y-113505305D01*
X167939374Y-113464046D01*
X167918765Y-113429409D01*
X167914813Y-113420769D01*
X167902628Y-113402582D01*
X167882249Y-113379139D01*
X167839857Y-113334036D01*
X167810792Y-113300914D01*
X167789796Y-113273494D01*
X167775269Y-113251436D01*
X167728226Y-113185002D01*
X167682403Y-113137386D01*
X167639936Y-113110091D01*
X167602959Y-113104622D01*
X167581215Y-113114807D01*
X167564786Y-113136398D01*
X167561846Y-113147739D01*
X167552229Y-113166800D01*
X167529488Y-113188478D01*
X167497130Y-113212359D01*
X167535088Y-113291673D01*
X167559589Y-113336048D01*
X167585709Y-113372852D01*
X167605408Y-113392192D01*
X167627544Y-113412710D01*
X167657930Y-113448614D01*
X167691012Y-113493193D01*
X167700756Y-113507440D01*
X167743842Y-113570549D01*
X167778123Y-113617340D01*
X167808320Y-113653764D01*
X167839153Y-113685770D01*
X167851666Y-113697683D01*
X167875199Y-113724183D01*
X167887123Y-113746408D01*
X167887487Y-113749332D01*
X167893302Y-113761837D01*
X167898270Y-113760822D01*
X167910919Y-113766577D01*
X167933320Y-113786726D01*
X167959645Y-113814784D01*
X167984066Y-113844265D01*
X168000756Y-113868684D01*
X168004717Y-113879271D01*
X168014502Y-113893728D01*
X168030530Y-113906058D01*
X168050983Y-113926606D01*
X168075075Y-113961536D01*
X168088541Y-113985720D01*
X168109767Y-114022536D01*
X168129645Y-114048738D01*
X168139212Y-114056350D01*
X168155651Y-114071520D01*
X168176280Y-114101906D01*
X168186048Y-114119848D01*
X168205322Y-114157542D01*
X168221241Y-114187588D01*
X168225837Y-114195795D01*
X168236035Y-114215898D01*
X168253725Y-114253285D01*
X168275844Y-114301425D01*
X168286962Y-114326051D01*
X168312449Y-114379280D01*
X168338011Y-114426741D01*
X168359455Y-114460849D01*
X168366073Y-114469200D01*
X168386689Y-114492935D01*
X168395336Y-114508631D01*
X168389103Y-114517804D01*
X168365077Y-114521965D01*
X168320346Y-114522628D01*
X168265230Y-114521603D01*
X168204198Y-114516731D01*
X168157265Y-114502298D01*
X168113341Y-114473784D01*
X168083086Y-114447358D01*
X168052601Y-114423774D01*
X168024686Y-114409210D01*
X168024256Y-114409077D01*
X167993770Y-114394342D01*
X167972153Y-114378942D01*
X167944070Y-114360678D01*
X167899844Y-114337826D01*
X167847976Y-114314242D01*
X167796970Y-114293780D01*
X167755325Y-114280297D01*
X167753807Y-114279916D01*
X167687460Y-114275537D01*
X167620612Y-114291513D01*
X167563672Y-114325178D01*
X167558331Y-114329968D01*
X167529466Y-114360386D01*
X167509140Y-114387860D01*
X167505158Y-114395903D01*
X167494741Y-114412248D01*
X167478439Y-114405233D01*
X167476932Y-114404000D01*
X167451407Y-114392903D01*
X167414253Y-114386809D01*
X167408386Y-114386549D01*
X167370448Y-114390404D01*
X167339313Y-114408088D01*
X167319146Y-114427298D01*
X167291131Y-114451498D01*
X167260303Y-114465116D01*
X167221790Y-114468309D01*
X167170722Y-114461229D01*
X167102227Y-114444034D01*
X167071585Y-114435165D01*
X166981630Y-114409719D01*
X166900694Y-114389103D01*
X166833326Y-114374366D01*
X166784076Y-114366556D01*
X166769452Y-114365586D01*
X166742637Y-114374676D01*
X166709664Y-114397835D01*
X166678226Y-114427944D01*
X166656020Y-114457880D01*
X166650051Y-114476083D01*
X166642532Y-114493258D01*
X166636256Y-114495385D01*
X166628193Y-114503229D01*
X166629933Y-114507472D01*
X166626067Y-114520616D01*
X166614379Y-114526868D01*
X166598063Y-114542525D01*
X166580526Y-114574030D01*
X166566078Y-114611775D01*
X166559025Y-114646151D01*
X166558871Y-114650674D01*
X166569379Y-114663337D01*
X166596401Y-114682659D01*
X166620743Y-114697011D01*
X166673831Y-114735107D01*
X166719417Y-114784175D01*
X166750467Y-114836011D01*
X166757451Y-114856504D01*
X166760785Y-114875744D01*
X166752759Y-114877821D01*
X166730152Y-114866187D01*
X166673357Y-114829602D01*
X166622117Y-114788048D01*
X166594156Y-114759154D01*
X166572578Y-114737940D01*
X166556862Y-114729846D01*
X166540180Y-114722147D01*
X166511233Y-114702339D01*
X166488081Y-114684256D01*
X166455728Y-114659074D01*
X166431349Y-114642517D01*
X166422771Y-114638667D01*
X166406397Y-114631802D01*
X166379988Y-114615179D01*
X166378523Y-114614146D01*
X166337882Y-114594139D01*
X166282630Y-114577740D01*
X166223747Y-114567243D01*
X166172207Y-114564941D01*
X166154034Y-114567254D01*
X166117070Y-114586016D01*
X166101924Y-114610565D01*
X166087704Y-114646796D01*
X166076923Y-114671231D01*
X166062993Y-114703350D01*
X166051060Y-114734161D01*
X166037088Y-114755994D01*
X166020507Y-114764863D01*
X166009148Y-114759031D01*
X166008861Y-114743532D01*
X166005034Y-114733770D01*
X166000142Y-114735510D01*
X165982330Y-114733657D01*
X165968185Y-114723453D01*
X165949058Y-114707560D01*
X165940701Y-114703795D01*
X165926770Y-114696087D01*
X165896320Y-114674802D01*
X165853126Y-114642700D01*
X165800961Y-114602540D01*
X165783846Y-114589112D01*
X165737228Y-114562262D01*
X165673376Y-114538410D01*
X165600792Y-114519475D01*
X165527978Y-114507376D01*
X165463436Y-114504033D01*
X165425974Y-114508331D01*
X165398978Y-114524406D01*
X165367237Y-114556988D01*
X165335725Y-114598879D01*
X165309416Y-114642881D01*
X165293282Y-114681795D01*
X165290927Y-114703795D01*
X165300460Y-114743343D01*
X165315360Y-114788446D01*
X165332216Y-114830193D01*
X165347617Y-114859669D01*
X165353232Y-114866615D01*
X165371582Y-114885901D01*
X165397993Y-114917009D01*
X165427758Y-114953940D01*
X165456168Y-114990696D01*
X165478517Y-115021278D01*
X165490097Y-115039687D01*
X165490769Y-115041875D01*
X165497904Y-115056045D01*
X165516635Y-115085350D01*
X165542955Y-115124069D01*
X165572855Y-115166478D01*
X165602326Y-115206853D01*
X165627359Y-115239471D01*
X165638674Y-115253043D01*
X165650886Y-115272989D01*
X165650333Y-115282350D01*
X165652700Y-115289368D01*
X165657931Y-115289949D01*
X165670694Y-115300708D01*
X165673128Y-115313395D01*
X165683947Y-115346172D01*
X165716005Y-115364324D01*
X165750992Y-115368103D01*
X165794691Y-115360862D01*
X165821321Y-115337368D01*
X165832878Y-115294964D01*
X165833365Y-115258393D01*
X165829868Y-115216365D01*
X165824286Y-115183176D01*
X165821322Y-115173726D01*
X165812683Y-115150814D01*
X165811022Y-115143833D01*
X165802509Y-115127632D01*
X165789524Y-115110692D01*
X165769464Y-115082162D01*
X165760625Y-115064680D01*
X165747778Y-115045840D01*
X165740187Y-115042462D01*
X165729348Y-115032287D01*
X165709964Y-115006301D01*
X165686415Y-114971312D01*
X165663081Y-114934128D01*
X165644343Y-114901555D01*
X165634580Y-114880403D01*
X165634051Y-114877506D01*
X165626704Y-114861490D01*
X165609860Y-114840151D01*
X165591316Y-114822039D01*
X165578864Y-114815703D01*
X165578125Y-114816165D01*
X165568633Y-114811001D01*
X165554357Y-114790418D01*
X165540191Y-114763183D01*
X165531031Y-114738063D01*
X165529846Y-114729690D01*
X165540491Y-114721051D01*
X165567236Y-114721312D01*
X165602292Y-114728979D01*
X165637871Y-114742555D01*
X165658321Y-114754352D01*
X165691438Y-114774411D01*
X165719155Y-114786736D01*
X165741468Y-114799832D01*
X165774380Y-114826233D01*
X165810335Y-114859802D01*
X165843783Y-114892005D01*
X165870522Y-114915311D01*
X165885021Y-114924913D01*
X165885344Y-114924947D01*
X165903648Y-114932532D01*
X165911395Y-114938060D01*
X165931234Y-114954100D01*
X165961053Y-114978075D01*
X165969717Y-114985023D01*
X165995556Y-115010967D01*
X166008474Y-115034406D01*
X166008794Y-115040057D01*
X166017458Y-115060550D01*
X166044359Y-115078438D01*
X166085522Y-115097503D01*
X166108158Y-115110322D01*
X166117854Y-115120501D01*
X166119828Y-115127128D01*
X166131023Y-115144468D01*
X166157905Y-115172152D01*
X166194856Y-115205527D01*
X166236259Y-115239942D01*
X166276499Y-115270744D01*
X166309959Y-115293281D01*
X166331021Y-115302901D01*
X166332124Y-115302974D01*
X166353362Y-115292490D01*
X166358427Y-115284346D01*
X166375049Y-115266875D01*
X166402326Y-115252906D01*
X166434475Y-115231229D01*
X166447874Y-115200043D01*
X166457576Y-115169671D01*
X166468619Y-115152607D01*
X166468694Y-115152560D01*
X166480992Y-115131120D01*
X166479853Y-115095955D01*
X166467454Y-115054193D01*
X166445972Y-115012962D01*
X166417584Y-114979392D01*
X166415179Y-114977333D01*
X166404090Y-114963747D01*
X166383595Y-114935437D01*
X166365166Y-114908815D01*
X166341510Y-114867387D01*
X166336724Y-114842980D01*
X166348969Y-114836812D01*
X166376404Y-114850101D01*
X166411138Y-114878385D01*
X166472050Y-114932440D01*
X166526433Y-114974856D01*
X166584923Y-115013594D01*
X166619578Y-115034390D01*
X166660403Y-115060465D01*
X166691731Y-115084465D01*
X166706944Y-115101306D01*
X166707076Y-115101629D01*
X166722044Y-115116517D01*
X166754652Y-115137538D01*
X166798536Y-115160703D01*
X166809914Y-115166081D01*
X166858407Y-115190418D01*
X166899950Y-115214720D01*
X166926703Y-115234334D01*
X166929265Y-115236921D01*
X166948837Y-115256097D01*
X166966083Y-115261633D01*
X166988890Y-115252990D01*
X167023960Y-115230424D01*
X167063919Y-115198473D01*
X167088408Y-115163808D01*
X167100579Y-115119174D01*
X167103584Y-115057315D01*
X167103462Y-115047428D01*
X167100905Y-114994895D01*
X167093688Y-114958686D01*
X167079223Y-114929158D01*
X167067189Y-114912205D01*
X167040518Y-114872350D01*
X167018703Y-114831716D01*
X167015513Y-114824282D01*
X167001293Y-114796060D01*
X166988571Y-114782231D01*
X166987137Y-114781949D01*
X166976833Y-114771445D01*
X166975692Y-114763390D01*
X166966819Y-114744871D01*
X166943889Y-114716313D01*
X166920680Y-114692487D01*
X166892593Y-114663261D01*
X166875958Y-114640946D01*
X166873913Y-114631899D01*
X166889131Y-114632438D01*
X166921239Y-114641706D01*
X166963381Y-114657711D01*
X166964745Y-114658282D01*
X167034527Y-114681691D01*
X167108186Y-114696594D01*
X167178463Y-114702302D01*
X167238103Y-114698126D01*
X167272600Y-114687546D01*
X167302477Y-114676437D01*
X167322636Y-114675619D01*
X167323590Y-114676151D01*
X167335642Y-114690635D01*
X167356535Y-114721438D01*
X167382071Y-114762325D01*
X167386031Y-114768923D01*
X167413914Y-114813243D01*
X167439999Y-114850651D01*
X167458994Y-114873596D01*
X167460133Y-114874656D01*
X167478674Y-114899134D01*
X167483692Y-114916248D01*
X167491712Y-114935119D01*
X167513065Y-114967431D01*
X167543691Y-115007230D01*
X167555188Y-115021049D01*
X167606361Y-115075757D01*
X167651733Y-115111162D01*
X167684607Y-115127445D01*
X167720341Y-115144061D01*
X167744475Y-115160796D01*
X167749314Y-115167243D01*
X167764898Y-115183244D01*
X167795156Y-115200970D01*
X167804465Y-115205130D01*
X167840970Y-115225150D01*
X167868695Y-115248478D01*
X167871886Y-115252541D01*
X167904227Y-115281735D01*
X167952974Y-115306851D01*
X168008483Y-115323802D01*
X168051691Y-115328740D01*
X168091825Y-115324237D01*
X168130083Y-115307445D01*
X168166352Y-115282315D01*
X168236827Y-115224991D01*
X168286569Y-115174357D01*
X168318081Y-115125321D01*
X168333867Y-115072794D01*
X168334595Y-115055415D01*
X168134181Y-115055415D01*
X168128680Y-115080789D01*
X168109977Y-115104454D01*
X168082605Y-115118794D01*
X168071809Y-115120201D01*
X168052533Y-115114021D01*
X168018438Y-115097378D01*
X167976687Y-115073789D01*
X167974117Y-115072243D01*
X167925329Y-115039046D01*
X167870122Y-114995415D01*
X167812059Y-114944891D01*
X167754704Y-114891014D01*
X167701621Y-114837324D01*
X167656375Y-114787360D01*
X167622528Y-114744664D01*
X167603645Y-114712775D01*
X167600923Y-114701556D01*
X167593875Y-114678015D01*
X167580087Y-114653793D01*
X167566738Y-114629423D01*
X167570683Y-114611203D01*
X167577568Y-114602049D01*
X167596203Y-114573765D01*
X167611970Y-114542432D01*
X167622052Y-114521823D01*
X167634562Y-114511383D01*
X167656827Y-114508844D01*
X167696171Y-114511940D01*
X167706881Y-114513051D01*
X167755592Y-114521096D01*
X167805102Y-114534051D01*
X167849298Y-114549657D01*
X167882066Y-114565652D01*
X167897291Y-114579778D01*
X167897469Y-114583504D01*
X167903794Y-114598629D01*
X167923790Y-114623973D01*
X167936333Y-114637247D01*
X167961845Y-114666498D01*
X167976923Y-114690814D01*
X167978666Y-114697637D01*
X167988551Y-114719909D01*
X167995700Y-114725942D01*
X168012347Y-114745599D01*
X168033416Y-114783525D01*
X168056140Y-114832951D01*
X168077753Y-114887106D01*
X168095490Y-114939221D01*
X168106583Y-114982523D01*
X168108923Y-115003071D01*
X168115009Y-115027817D01*
X168121948Y-115035949D01*
X168134181Y-115055415D01*
X168334595Y-115055415D01*
X168336430Y-115011685D01*
X168330106Y-114949361D01*
X168321339Y-114893742D01*
X168311535Y-114840963D01*
X168303056Y-114803429D01*
X168295651Y-114770662D01*
X168293740Y-114750536D01*
X168294471Y-114748366D01*
X168309632Y-114743706D01*
X168342358Y-114737718D01*
X168384402Y-114731498D01*
X168427519Y-114726144D01*
X168463462Y-114722752D01*
X168483986Y-114722419D01*
X168485715Y-114722925D01*
X168495909Y-114737527D01*
X168514015Y-114771128D01*
X168537551Y-114818842D01*
X168564030Y-114875780D01*
X168568703Y-114886154D01*
X168583857Y-114922935D01*
X168602684Y-114972665D01*
X168618257Y-115016410D01*
X168635028Y-115062047D01*
X168650611Y-115099163D01*
X168661260Y-115119124D01*
X168674004Y-115142735D01*
X168676086Y-115151688D01*
X168681388Y-115176440D01*
X168684564Y-115185744D01*
X168692293Y-115209819D01*
X168702873Y-115247416D01*
X168707216Y-115263897D01*
X168719108Y-115305583D01*
X168730903Y-115340192D01*
X168734399Y-115348564D01*
X168743240Y-115373182D01*
X168755835Y-115415035D01*
X168769781Y-115466042D01*
X168772928Y-115478223D01*
X168786611Y-115527806D01*
X168799508Y-115567704D01*
X168809339Y-115591042D01*
X168811226Y-115593668D01*
X168830023Y-115599544D01*
X168845906Y-115585719D01*
X168851384Y-115562718D01*
X168855544Y-115541287D01*
X168869836Y-115541434D01*
X168892828Y-115559117D01*
X168910710Y-115572247D01*
X168926146Y-115569788D01*
X168949213Y-115550333D01*
X168972734Y-115520878D01*
X168979666Y-115488120D01*
X168970277Y-115445556D01*
X168955054Y-115408456D01*
X168939740Y-115364501D01*
X168936374Y-115330024D01*
X168937619Y-115324086D01*
X168947360Y-115265099D01*
X168945180Y-115196913D01*
X168932462Y-115129914D01*
X168910592Y-115074489D01*
X168902690Y-115062000D01*
X168895631Y-115044227D01*
X168884544Y-115007527D01*
X168871311Y-114958345D01*
X168864638Y-114931744D01*
X168848147Y-114867737D01*
X168829971Y-114802341D01*
X168813435Y-114747411D01*
X168809832Y-114736359D01*
X168788582Y-114671361D01*
X168775635Y-114625973D01*
X168770620Y-114595240D01*
X168773168Y-114574207D01*
X168782910Y-114557918D01*
X168795561Y-114545041D01*
X168825520Y-114510478D01*
X168847649Y-114475846D01*
X168869899Y-114441919D01*
X168901287Y-114404810D01*
X168911540Y-114394464D01*
X168937912Y-114365216D01*
X168953646Y-114340197D01*
X168955589Y-114332593D01*
X168961009Y-114314405D01*
X168973979Y-114316445D01*
X168989566Y-114336075D01*
X168998179Y-114355359D01*
X169007727Y-114386416D01*
X169010862Y-114405983D01*
X169010682Y-114406996D01*
X169015317Y-114422419D01*
X169030398Y-114455848D01*
X169053477Y-114502650D01*
X169082106Y-114558197D01*
X169113837Y-114617855D01*
X169146220Y-114676995D01*
X169176807Y-114730986D01*
X169203150Y-114775196D01*
X169215816Y-114794974D01*
X169236102Y-114830444D01*
X169255062Y-114871226D01*
X169255603Y-114872569D01*
X169273216Y-114908532D01*
X169292100Y-114936011D01*
X169293798Y-114937799D01*
X169306606Y-114956631D01*
X169328645Y-114995610D01*
X169358148Y-115051263D01*
X169393347Y-115120120D01*
X169432475Y-115198712D01*
X169473765Y-115283568D01*
X169515451Y-115371217D01*
X169526191Y-115394154D01*
X169560850Y-115475003D01*
X169592262Y-115560536D01*
X169618418Y-115644177D01*
X169637304Y-115719348D01*
X169646909Y-115779475D01*
X169647618Y-115791161D01*
X169649689Y-115831400D01*
X169656494Y-115853330D01*
X169673895Y-115861025D01*
X169707754Y-115858565D01*
X169737948Y-115853982D01*
X169772246Y-115839786D01*
X169795682Y-115808153D01*
X169809114Y-115756846D01*
X169813403Y-115683629D01*
X169813075Y-115658599D01*
X169800460Y-115542761D01*
X169770145Y-115422212D01*
X169725156Y-115308026D01*
X169708328Y-115274959D01*
X169622623Y-115115528D01*
X169537529Y-114954448D01*
X169515446Y-114912226D01*
X169484405Y-114854806D01*
X169454530Y-114803106D01*
X169429471Y-114763243D01*
X169414376Y-114742892D01*
X169398213Y-114720074D01*
X169373383Y-114678840D01*
X169342711Y-114624152D01*
X169309022Y-114560974D01*
X169292028Y-114527949D01*
X169252576Y-114448235D01*
X169224913Y-114386974D01*
X169207495Y-114340240D01*
X169198774Y-114304107D01*
X169197111Y-114286974D01*
X169193063Y-114254269D01*
X169181735Y-114219994D01*
X169160448Y-114178111D01*
X169126527Y-114122581D01*
X169119168Y-114111128D01*
X169087404Y-114062514D01*
X169060521Y-114022447D01*
X169041812Y-113995767D01*
X169035036Y-113987385D01*
X169024472Y-113974316D01*
X169003242Y-113944768D01*
X168975066Y-113903980D01*
X168959959Y-113881639D01*
X168926581Y-113828456D01*
X168907104Y-113789500D01*
X168902838Y-113767461D01*
X168903534Y-113765872D01*
X168915760Y-113758305D01*
X168935679Y-113770029D01*
X168942943Y-113776532D01*
X168976120Y-113801739D01*
X169014169Y-113823674D01*
X169048124Y-113843404D01*
X169073113Y-113864031D01*
X169074030Y-113865098D01*
X169100979Y-113886293D01*
X169146435Y-113910522D01*
X169204686Y-113935840D01*
X169270017Y-113960301D01*
X169336718Y-113981960D01*
X169399076Y-113998870D01*
X169451379Y-114009087D01*
X169487914Y-114010665D01*
X169495946Y-114008805D01*
X169510854Y-113990646D01*
X169515692Y-113961742D01*
X169521199Y-113930829D01*
X169535650Y-113922256D01*
X169555977Y-113910680D01*
X169569508Y-113881193D01*
X169573241Y-113841660D01*
X169571794Y-113827646D01*
X169550759Y-113757697D01*
X169531630Y-113726024D01*
X168874242Y-113726024D01*
X168872460Y-113726872D01*
X168860573Y-113717702D01*
X168857897Y-113713846D01*
X168854578Y-113701669D01*
X168856360Y-113700820D01*
X168868247Y-113709990D01*
X168870923Y-113713846D01*
X168874242Y-113726024D01*
X169531630Y-113726024D01*
X169508583Y-113687867D01*
X169503684Y-113682409D01*
X169229128Y-113682409D01*
X169225433Y-113687132D01*
X169211369Y-113682514D01*
X169182466Y-113666648D01*
X169158018Y-113652069D01*
X169119334Y-113626126D01*
X169100120Y-113607361D01*
X169101976Y-113597595D01*
X169109331Y-113596615D01*
X169124321Y-113603566D01*
X169151243Y-113620768D01*
X169182452Y-113642749D01*
X169210307Y-113664034D01*
X169227164Y-113679150D01*
X169229128Y-113682409D01*
X169503684Y-113682409D01*
X169443428Y-113615289D01*
X169423590Y-113596615D01*
X169372177Y-113549215D01*
X169055292Y-113549215D01*
X169050544Y-113552177D01*
X169027471Y-113540575D01*
X169024855Y-113539153D01*
X168999691Y-113521754D01*
X168961909Y-113491224D01*
X168917571Y-113452589D01*
X168890461Y-113427719D01*
X168835598Y-113378411D01*
X168793622Y-113347459D01*
X168759987Y-113333860D01*
X168730145Y-113336613D01*
X168699548Y-113354716D01*
X168671551Y-113379502D01*
X168628486Y-113420769D01*
X168571758Y-113355641D01*
X168520187Y-113289264D01*
X168479524Y-113222563D01*
X168451536Y-113159797D01*
X168437988Y-113105225D01*
X168440644Y-113063108D01*
X168445869Y-113051876D01*
X168463689Y-113046439D01*
X168497664Y-113054825D01*
X168543632Y-113074556D01*
X168597430Y-113103150D01*
X168654895Y-113138128D01*
X168711864Y-113177009D01*
X168764174Y-113217312D01*
X168807663Y-113256558D01*
X168829178Y-113280264D01*
X168849293Y-113303335D01*
X168881363Y-113338250D01*
X168919134Y-113378225D01*
X168926871Y-113386279D01*
X168970719Y-113432175D01*
X169000471Y-113464674D01*
X169020362Y-113488884D01*
X169034629Y-113509918D01*
X169045888Y-113529841D01*
X169055292Y-113549215D01*
X169372177Y-113549215D01*
X169352485Y-113531061D01*
X169295983Y-113477654D01*
X169249085Y-113431386D01*
X169206790Y-113387249D01*
X169164097Y-113340235D01*
X169137948Y-113310553D01*
X169068481Y-113233836D01*
X168995872Y-113158492D01*
X168924447Y-113088682D01*
X168858535Y-113028565D01*
X168802463Y-112982300D01*
X168778356Y-112964913D01*
X168699147Y-112917506D01*
X168616240Y-112877688D01*
X168536175Y-112848026D01*
X168465489Y-112831089D01*
X168430045Y-112828103D01*
X168383186Y-112825917D01*
X168342455Y-112820331D01*
X168326274Y-112816000D01*
X168290574Y-112813437D01*
X168259052Y-112828583D01*
G36*
X178872213Y-113422291D02*
X178764741Y-113433168D01*
X178679846Y-113454606D01*
X178615850Y-113487655D01*
X178571076Y-113533368D01*
X178543846Y-113592795D01*
X178535508Y-113633390D01*
X178525353Y-113694562D01*
X178514700Y-113730204D01*
X178503116Y-113740838D01*
X178490164Y-113726986D01*
X178479285Y-113700820D01*
X178463018Y-113671568D01*
X178437791Y-113661902D01*
X178432421Y-113661744D01*
X178406396Y-113667727D01*
X178399179Y-113687026D01*
X178391484Y-113714808D01*
X178371458Y-113721093D01*
X178346176Y-113706518D01*
X178324589Y-113690998D01*
X178314263Y-113694925D01*
X178314799Y-113719774D01*
X178325797Y-113767019D01*
X178327816Y-113774319D01*
X178351906Y-113860966D01*
X178370492Y-113929505D01*
X178385362Y-113986835D01*
X178398306Y-114039859D01*
X178411110Y-114095477D01*
X178411701Y-114098103D01*
X178441729Y-114221725D01*
X178475691Y-114340307D01*
X178515831Y-114462820D01*
X178536913Y-114529627D01*
X178557722Y-114604539D01*
X178573729Y-114671231D01*
X178588739Y-114730525D01*
X178607560Y-114788914D01*
X178626320Y-114834492D01*
X178627746Y-114837314D01*
X178645907Y-114876059D01*
X178657479Y-114907606D01*
X178659692Y-114919183D01*
X178666241Y-114945264D01*
X178677485Y-114968022D01*
X178685319Y-114986632D01*
X178695185Y-115021089D01*
X178707438Y-115073072D01*
X178722435Y-115144260D01*
X178740531Y-115236331D01*
X178762080Y-115350964D01*
X178784269Y-115472308D01*
X178795126Y-115527688D01*
X178806262Y-115577024D01*
X178815696Y-115611728D01*
X178817825Y-115617816D01*
X178826203Y-115651999D01*
X178826188Y-115676431D01*
X178817916Y-115684215D01*
X178802702Y-115670222D01*
X178782250Y-115637248D01*
X178758265Y-115588091D01*
X178732453Y-115525548D01*
X178729548Y-115517897D01*
X178709538Y-115469310D01*
X178689348Y-115427654D01*
X178673171Y-115401534D01*
X178672435Y-115400667D01*
X178650525Y-115367079D01*
X178640044Y-115342051D01*
X178629570Y-115313127D01*
X178612013Y-115270691D01*
X178594528Y-115231333D01*
X178568649Y-115174826D01*
X178540807Y-115113787D01*
X178525230Y-115079506D01*
X178506017Y-115039719D01*
X178489672Y-115010405D01*
X178480997Y-114999136D01*
X178471148Y-114984640D01*
X178454893Y-114952333D01*
X178435411Y-114908629D01*
X178431415Y-114899104D01*
X178404372Y-114841269D01*
X178375857Y-114799116D01*
X178338929Y-114762855D01*
X178329093Y-114754781D01*
X178292674Y-114727895D01*
X178262115Y-114709420D01*
X178246395Y-114703795D01*
X178221541Y-114709285D01*
X178181920Y-114723631D01*
X178135864Y-114743644D01*
X178112615Y-114754988D01*
X178098964Y-114774220D01*
X178087358Y-114813891D01*
X178082626Y-114841827D01*
X178074377Y-114892613D01*
X178064485Y-114939996D01*
X178058496Y-114962411D01*
X178052451Y-115000350D01*
X178050538Y-115059689D01*
X178052867Y-115136090D01*
X178053743Y-115151283D01*
X178057336Y-115213699D01*
X178058683Y-115253618D01*
X178057445Y-115274523D01*
X178053278Y-115279901D01*
X178045842Y-115273234D01*
X178042251Y-115268492D01*
X178021888Y-115234958D01*
X177997232Y-115186501D01*
X177972247Y-115131905D01*
X177950897Y-115079954D01*
X177937144Y-115039433D01*
X177935152Y-115031123D01*
X177921016Y-114993073D01*
X177902757Y-114965754D01*
X177884546Y-114942041D01*
X177878153Y-114926698D01*
X177868172Y-114913059D01*
X177842405Y-114891076D01*
X177816976Y-114872762D01*
X177758400Y-114843339D01*
X177703776Y-114838547D01*
X177649008Y-114858239D01*
X177635801Y-114866320D01*
X177623457Y-114875294D01*
X177614561Y-114886112D01*
X177608889Y-114902421D01*
X177606214Y-114927869D01*
X177606310Y-114966104D01*
X177608950Y-115020774D01*
X177613910Y-115095526D01*
X177618023Y-115153179D01*
X177625302Y-115254498D01*
X177630796Y-115332795D01*
X177634555Y-115391036D01*
X177636632Y-115432185D01*
X177637076Y-115459208D01*
X177635941Y-115475069D01*
X177633277Y-115482734D01*
X177629135Y-115485167D01*
X177623776Y-115485333D01*
X177605990Y-115474543D01*
X177598528Y-115460625D01*
X177585128Y-115436591D01*
X177560345Y-115404460D01*
X177547382Y-115390001D01*
X177514441Y-115350312D01*
X177480694Y-115302473D01*
X177467546Y-115281196D01*
X177441612Y-115240454D01*
X177415564Y-115205584D01*
X177403315Y-115192153D01*
X177386323Y-115171377D01*
X177359643Y-115133252D01*
X177337533Y-115099447D01*
X177106466Y-115099447D01*
X177089172Y-115126198D01*
X177055364Y-115146477D01*
X177022345Y-115141740D01*
X176993450Y-115112896D01*
X176985187Y-115097820D01*
X176965973Y-115043800D01*
X176956734Y-114988216D01*
X176958126Y-114939409D01*
X176970165Y-114906544D01*
X176982184Y-114893216D01*
X176991853Y-114894880D01*
X177003880Y-114914953D01*
X177015019Y-114939108D01*
X177038430Y-114981573D01*
X177066059Y-115018899D01*
X177075307Y-115028450D01*
X177103805Y-115065189D01*
X177106466Y-115099447D01*
X177337533Y-115099447D01*
X177326724Y-115082922D01*
X177291018Y-115025534D01*
X177285437Y-115016307D01*
X177234993Y-114935627D01*
X177192137Y-114874727D01*
X177153551Y-114829724D01*
X177115922Y-114796738D01*
X177077313Y-114772610D01*
X177034465Y-114757562D01*
X176990957Y-114754012D01*
X176956832Y-114762313D01*
X176948943Y-114768103D01*
X176922869Y-114782593D01*
X176900188Y-114771873D01*
X176882164Y-114736696D01*
X176879175Y-114726590D01*
X176852279Y-114637905D01*
X176820566Y-114550605D01*
X176787593Y-114474009D01*
X176768519Y-114436769D01*
X176745645Y-114394145D01*
X176714328Y-114333388D01*
X176677252Y-114259923D01*
X176637101Y-114179172D01*
X176596558Y-114096559D01*
X176558308Y-114017507D01*
X176525035Y-113947439D01*
X176505838Y-113905974D01*
X176482963Y-113860094D01*
X176461774Y-113825115D01*
X176445789Y-113806594D01*
X176441929Y-113805026D01*
X176419908Y-113812966D01*
X176388743Y-113832790D01*
X176355947Y-113858503D01*
X176329032Y-113884110D01*
X176315512Y-113903616D01*
X176315076Y-113906250D01*
X176318384Y-113932512D01*
X176326685Y-113973341D01*
X176337551Y-114018335D01*
X176348551Y-114057091D01*
X176353807Y-114072051D01*
X176363671Y-114100569D01*
X176375886Y-114141038D01*
X176380201Y-114156490D01*
X176395895Y-114204221D01*
X176417267Y-114257622D01*
X176427225Y-114279415D01*
X176444747Y-114319206D01*
X176456130Y-114351699D01*
X176458555Y-114364310D01*
X176463067Y-114390537D01*
X176473791Y-114427120D01*
X176487011Y-114463122D01*
X176499012Y-114487608D01*
X176501534Y-114490799D01*
X176508651Y-114509711D01*
X176510461Y-114529351D01*
X176515601Y-114556065D01*
X176523487Y-114567026D01*
X176532382Y-114584390D01*
X176536481Y-114615795D01*
X176536512Y-114618841D01*
X176542292Y-114662258D01*
X176554868Y-114699483D01*
X176568170Y-114730558D01*
X176585394Y-114776571D01*
X176602805Y-114827538D01*
X176623040Y-114883183D01*
X176650373Y-114949578D01*
X176679692Y-115014459D01*
X176686945Y-115029436D01*
X176715997Y-115088873D01*
X176736203Y-115132258D01*
X176750429Y-115166807D01*
X176761541Y-115199738D01*
X176772404Y-115238269D01*
X176777459Y-115257385D01*
X176785625Y-115295316D01*
X176794336Y-115346837D01*
X176802918Y-115406254D01*
X176810696Y-115467876D01*
X176816997Y-115526012D01*
X176821148Y-115574968D01*
X176822473Y-115609055D01*
X176820668Y-115622340D01*
X176802170Y-115623323D01*
X176771638Y-115601986D01*
X176729560Y-115558852D01*
X176676423Y-115494445D01*
X176612717Y-115409290D01*
X176582102Y-115366292D01*
X176545295Y-115315218D01*
X176502594Y-115257811D01*
X176470180Y-115215462D01*
X176436031Y-115167087D01*
X176405490Y-115115950D01*
X176386362Y-115075908D01*
X176363473Y-115030697D01*
X176332766Y-115001023D01*
X176289752Y-114984970D01*
X176229938Y-114980620D01*
X176170901Y-114983925D01*
X176099172Y-114986678D01*
X176048148Y-114979583D01*
X176014067Y-114961747D01*
X175998557Y-114942867D01*
X175967394Y-114913099D01*
X175922177Y-114896309D01*
X175873075Y-114895892D01*
X175864023Y-114897978D01*
X175814331Y-114921436D01*
X175786989Y-114956316D01*
X175782654Y-114999619D01*
X175801982Y-115048343D01*
X175824596Y-115078244D01*
X175865572Y-115142537D01*
X175887696Y-115218406D01*
X175888675Y-115294828D01*
X175882001Y-115345298D01*
X175818245Y-115337746D01*
X175766468Y-115325676D01*
X175712583Y-115303545D01*
X175663215Y-115275236D01*
X175624987Y-115244635D01*
X175604521Y-115215623D01*
X175603425Y-115211795D01*
X175577928Y-115113851D01*
X175545738Y-115016477D01*
X175509177Y-114925161D01*
X175470562Y-114845390D01*
X175432215Y-114782652D01*
X175410701Y-114755897D01*
X175384517Y-114723791D01*
X175365338Y-114694026D01*
X175348388Y-114672135D01*
X175324851Y-114666475D01*
X175289311Y-114676888D01*
X175259671Y-114690937D01*
X175215938Y-114717602D01*
X175188431Y-114747833D01*
X175174366Y-114787754D01*
X175170959Y-114843490D01*
X175172584Y-114882524D01*
X175179459Y-114948760D01*
X175192935Y-115002692D01*
X175216568Y-115057888D01*
X175220713Y-115066142D01*
X175240283Y-115107650D01*
X175252533Y-115139717D01*
X175255021Y-115155871D01*
X175254721Y-115156287D01*
X175244025Y-115156464D01*
X175224731Y-115142406D01*
X175195556Y-115112703D01*
X175155218Y-115065944D01*
X175102436Y-115000720D01*
X175035927Y-114915620D01*
X175035694Y-114915319D01*
X174976527Y-114840215D01*
X174929745Y-114784788D01*
X174893088Y-114747172D01*
X174864296Y-114725497D01*
X174841108Y-114717896D01*
X174821265Y-114722502D01*
X174810950Y-114729568D01*
X174790754Y-114755421D01*
X174784190Y-114770099D01*
X174769576Y-114790588D01*
X174757635Y-114794974D01*
X174743329Y-114797996D01*
X174741731Y-114809773D01*
X174753933Y-114834374D01*
X174778288Y-114871832D01*
X174800321Y-114907465D01*
X174814396Y-114936215D01*
X174817128Y-114946693D01*
X174822825Y-114964911D01*
X174838243Y-115000577D01*
X174860869Y-115048140D01*
X174882114Y-115090329D01*
X174908015Y-115141669D01*
X174928194Y-115183763D01*
X174940381Y-115211731D01*
X174942802Y-115220719D01*
X174931226Y-115215456D01*
X174904255Y-115197669D01*
X174867056Y-115170828D01*
X174855021Y-115161792D01*
X174767198Y-115085600D01*
X174687128Y-114997842D01*
X174623017Y-114907610D01*
X174618020Y-114899179D01*
X174592824Y-114862235D01*
X174555796Y-114815531D01*
X174513740Y-114767509D01*
X174500888Y-114753824D01*
X174461099Y-114713010D01*
X174433629Y-114688108D01*
X174413145Y-114675872D01*
X174394315Y-114673054D01*
X174373257Y-114676113D01*
X174336422Y-114690831D01*
X174309133Y-114721964D01*
X174302820Y-114732969D01*
X174276974Y-114780798D01*
X174314694Y-114852895D01*
X174339765Y-114894843D01*
X174365769Y-114929083D01*
X174382415Y-114944650D01*
X174410727Y-114969415D01*
X174426359Y-114990359D01*
X174433978Y-115011209D01*
X174427068Y-115015860D01*
X174408946Y-115007091D01*
X174382930Y-114987679D01*
X174352335Y-114960406D01*
X174320480Y-114928048D01*
X174290681Y-114893386D01*
X174266255Y-114859198D01*
X174262601Y-114853166D01*
X174225910Y-114804456D01*
X174185044Y-114779848D01*
X174135845Y-114777394D01*
X174111819Y-114782467D01*
X174083353Y-114788635D01*
X174059023Y-114787988D01*
X174030908Y-114778592D01*
X173991086Y-114758517D01*
X173972871Y-114748585D01*
X173923207Y-114719376D01*
X173876594Y-114688730D01*
X173843094Y-114663264D01*
X173843008Y-114663189D01*
X173798991Y-114633321D01*
X173762801Y-114625933D01*
X173736962Y-114640379D01*
X173724001Y-114676017D01*
X173722974Y-114693816D01*
X173732263Y-114724376D01*
X173756287Y-114763654D01*
X173789281Y-114804294D01*
X173825480Y-114838939D01*
X173849974Y-114855869D01*
X173877553Y-114873118D01*
X173891781Y-114886210D01*
X173892307Y-114887887D01*
X173903187Y-114897454D01*
X173931451Y-114914065D01*
X173970535Y-114934511D01*
X174013874Y-114955581D01*
X174054904Y-114974066D01*
X174087061Y-114986756D01*
X174102318Y-114990587D01*
X174120161Y-114999083D01*
X174150286Y-115021233D01*
X174186429Y-115052394D01*
X174189338Y-115055086D01*
X174237099Y-115098283D01*
X174289785Y-115144097D01*
X174326107Y-115174476D01*
X174371256Y-115213295D01*
X174422533Y-115260413D01*
X174465251Y-115302059D01*
X174501033Y-115335912D01*
X174531395Y-115360254D01*
X174550801Y-115370750D01*
X174553026Y-115370776D01*
X174576664Y-115373512D01*
X174596418Y-115381517D01*
X174631196Y-115388280D01*
X174660989Y-115373142D01*
X174681039Y-115340251D01*
X174686871Y-115302674D01*
X174688287Y-115274523D01*
X174693811Y-115256579D01*
X174705361Y-115249962D01*
X174724853Y-115255790D01*
X174754206Y-115275183D01*
X174795335Y-115309257D01*
X174850157Y-115359133D01*
X174920590Y-115425928D01*
X174955313Y-115459321D01*
X174985001Y-115483602D01*
X175010437Y-115497263D01*
X175016416Y-115498359D01*
X175039379Y-115505625D01*
X175045076Y-115511385D01*
X175064787Y-115522205D01*
X175096213Y-115523524D01*
X175127102Y-115516056D01*
X175142048Y-115505740D01*
X175150437Y-115482206D01*
X175151692Y-115438572D01*
X175148473Y-115395022D01*
X175145066Y-115340716D01*
X175148397Y-115310534D01*
X175159060Y-115303281D01*
X175177648Y-115317767D01*
X175183507Y-115324531D01*
X175208013Y-115345411D01*
X175240461Y-115364388D01*
X175298161Y-115393446D01*
X175334578Y-115417032D01*
X175353289Y-115437464D01*
X175353342Y-115437559D01*
X175371854Y-115450466D01*
X175407116Y-115461699D01*
X175430266Y-115465923D01*
X175472284Y-115469896D01*
X175499108Y-115465875D01*
X175520908Y-115451822D01*
X175526669Y-115446591D01*
X175549492Y-115428156D01*
X175568806Y-115426294D01*
X175595602Y-115438159D01*
X175628133Y-115457607D01*
X175669474Y-115485712D01*
X175694737Y-115504309D01*
X175730807Y-115529436D01*
X175760909Y-115546198D01*
X175774625Y-115550462D01*
X175791895Y-115556978D01*
X175794051Y-115562452D01*
X175805507Y-115576187D01*
X175835198Y-115583101D01*
X175876114Y-115582791D01*
X175921239Y-115574852D01*
X175935484Y-115570614D01*
X176000260Y-115538524D01*
X176046561Y-115490806D01*
X176074830Y-115426389D01*
X176085510Y-115344206D01*
X176079046Y-115243185D01*
X176077068Y-115229271D01*
X176067009Y-115162080D01*
X176118426Y-115153393D01*
X176164103Y-115151754D01*
X176200681Y-115161474D01*
X176221472Y-115180182D01*
X176223897Y-115190783D01*
X176232092Y-115210678D01*
X176252487Y-115239010D01*
X176259717Y-115247314D01*
X176283712Y-115277330D01*
X176314967Y-115321326D01*
X176347522Y-115370836D01*
X176354153Y-115381444D01*
X176393508Y-115440001D01*
X176440644Y-115502926D01*
X176485445Y-115556721D01*
X176485992Y-115557328D01*
X176523534Y-115600566D01*
X176556774Y-115641737D01*
X176579582Y-115673185D01*
X176582461Y-115677817D01*
X176607951Y-115708904D01*
X176644850Y-115740978D01*
X176660699Y-115751930D01*
X176702621Y-115781680D01*
X176741724Y-115814545D01*
X176752282Y-115824883D01*
X176773924Y-115849063D01*
X176778002Y-115860211D01*
X176766007Y-115863065D01*
X176764293Y-115863077D01*
X176748196Y-115866470D01*
X176754791Y-115878156D01*
X176773138Y-115886474D01*
X176788096Y-115878108D01*
X176814287Y-115869332D01*
X176845459Y-115870810D01*
X176898756Y-115869370D01*
X176945818Y-115843202D01*
X176985434Y-115793141D01*
X176999879Y-115764470D01*
X177017465Y-115726872D01*
X177031295Y-115701221D01*
X177037377Y-115693744D01*
X177047500Y-115703769D01*
X177058595Y-115721770D01*
X177067201Y-115741522D01*
X177060090Y-115744283D01*
X177052541Y-115741717D01*
X177036133Y-115737148D01*
X177033205Y-115744775D01*
X177042909Y-115769631D01*
X177046499Y-115777570D01*
X177058622Y-115799285D01*
X177068840Y-115799088D01*
X177076689Y-115789763D01*
X177088218Y-115779261D01*
X177101437Y-115784340D01*
X177122376Y-115807796D01*
X177126329Y-115812785D01*
X177153184Y-115846281D01*
X177176610Y-115874505D01*
X177180806Y-115879359D01*
X177196956Y-115907088D01*
X177200820Y-115924862D01*
X177193919Y-115930249D01*
X177173007Y-115914482D01*
X177142409Y-115882529D01*
X177113365Y-115851981D01*
X177092385Y-115833333D01*
X177083818Y-115830427D01*
X177083794Y-115830745D01*
X177092277Y-115855179D01*
X177113998Y-115888637D01*
X177142563Y-115923017D01*
X177171581Y-115950218D01*
X177184912Y-115958928D01*
X177226365Y-115970553D01*
X177280759Y-115973940D01*
X177337201Y-115969564D01*
X177384802Y-115957902D01*
X177401964Y-115949435D01*
X177442112Y-115908934D01*
X177471160Y-115850641D01*
X177486063Y-115781536D01*
X177487384Y-115753647D01*
X177489242Y-115712976D01*
X177494022Y-115684096D01*
X177498417Y-115675437D01*
X177513308Y-115679704D01*
X177537490Y-115698552D01*
X177547263Y-115708200D01*
X177570150Y-115733831D01*
X177576251Y-115748798D01*
X177567538Y-115760509D01*
X177562282Y-115764532D01*
X177542431Y-115783150D01*
X177546195Y-115793800D01*
X177574453Y-115797821D01*
X177584229Y-115797949D01*
X177624936Y-115801325D01*
X177659126Y-115809312D01*
X177694724Y-115814108D01*
X177717907Y-115809984D01*
X177744812Y-115789464D01*
X177769504Y-115754528D01*
X177784930Y-115716355D01*
X177786974Y-115700485D01*
X177792144Y-115675873D01*
X177801348Y-115650568D01*
X177276654Y-115650568D01*
X177271614Y-115677358D01*
X177258265Y-115680038D01*
X177237154Y-115659925D01*
X177219753Y-115640106D01*
X177190679Y-115608618D01*
X177158275Y-115574426D01*
X177121594Y-115532174D01*
X177085356Y-115483680D01*
X177053528Y-115435092D01*
X177030079Y-115392555D01*
X177018975Y-115362216D01*
X177018583Y-115358011D01*
X177029272Y-115341193D01*
X177048503Y-115329985D01*
X177078014Y-115314135D01*
X177112987Y-115289389D01*
X177120336Y-115283397D01*
X177150175Y-115262928D01*
X177174247Y-115254275D01*
X177179374Y-115254850D01*
X177198028Y-115272625D01*
X177219034Y-115308279D01*
X177239255Y-115354223D01*
X177255556Y-115402870D01*
X177264802Y-115446631D01*
X177265806Y-115464002D01*
X177266657Y-115507497D01*
X177270113Y-115562289D01*
X177273603Y-115599308D01*
X177276654Y-115650568D01*
X177801348Y-115650568D01*
X177804967Y-115640621D01*
X177808976Y-115631453D01*
X177823287Y-115597717D01*
X177831710Y-115573611D01*
X177832458Y-115570000D01*
X177837322Y-115550165D01*
X177847590Y-115516953D01*
X177851011Y-115506709D01*
X177860198Y-115470387D01*
X177860752Y-115433378D01*
X177852738Y-115384178D01*
X177851720Y-115379327D01*
X177841305Y-115337284D01*
X177830909Y-115306561D01*
X177824190Y-115295311D01*
X177815182Y-115278163D01*
X177813025Y-115260234D01*
X177814121Y-115240929D01*
X177821538Y-115241979D01*
X177836843Y-115257746D01*
X177853432Y-115282336D01*
X177874699Y-115322896D01*
X177896241Y-115370981D01*
X177897729Y-115374615D01*
X177922003Y-115430664D01*
X177952926Y-115497034D01*
X177984628Y-115561203D01*
X177991142Y-115573815D01*
X178015769Y-115622383D01*
X178034936Y-115662757D01*
X178045916Y-115689068D01*
X178047487Y-115695211D01*
X178055855Y-115720285D01*
X178076813Y-115753215D01*
X178104136Y-115786482D01*
X178131602Y-115812566D01*
X178152988Y-115823948D01*
X178154063Y-115824000D01*
X178188047Y-115819946D01*
X178229080Y-115809804D01*
X178267452Y-115796607D01*
X178293453Y-115783386D01*
X178298031Y-115779044D01*
X178304013Y-115756032D01*
X178306611Y-115712736D01*
X178305982Y-115654683D01*
X178302282Y-115587399D01*
X178295668Y-115516410D01*
X178289145Y-115465795D01*
X178281378Y-115409841D01*
X178278100Y-115373800D01*
X178279589Y-115351874D01*
X178286123Y-115338266D01*
X178295712Y-115329026D01*
X178307594Y-115316318D01*
X178313273Y-115298867D01*
X178313388Y-115270108D01*
X178308578Y-115223474D01*
X178307128Y-115211795D01*
X178299359Y-115154703D01*
X178290876Y-115099500D01*
X178283630Y-115058744D01*
X178278352Y-115021756D01*
X178282382Y-115005226D01*
X178287887Y-115003385D01*
X178301397Y-115014236D01*
X178322854Y-115043114D01*
X178349048Y-115084502D01*
X178376771Y-115132883D01*
X178402816Y-115182741D01*
X178423973Y-115228560D01*
X178433855Y-115254365D01*
X178447361Y-115289308D01*
X178469166Y-115339842D01*
X178495878Y-115398280D01*
X178515666Y-115439744D01*
X178542454Y-115495972D01*
X178565514Y-115546527D01*
X178582002Y-115585047D01*
X178588448Y-115602564D01*
X178599503Y-115629593D01*
X178619887Y-115670538D01*
X178645414Y-115717044D01*
X178648314Y-115722067D01*
X178672323Y-115764584D01*
X178690135Y-115798311D01*
X178698511Y-115817061D01*
X178698769Y-115818461D01*
X178704092Y-115834400D01*
X178717891Y-115866035D01*
X178732861Y-115897599D01*
X178759712Y-115943774D01*
X178782948Y-115965577D01*
X178790391Y-115967282D01*
X178812622Y-115974047D01*
X178818541Y-115981420D01*
X178832616Y-115984975D01*
X178866190Y-115975596D01*
X178895387Y-115963656D01*
X178938579Y-115942173D01*
X178947796Y-115934718D01*
X178802974Y-115934718D01*
X178796461Y-115941231D01*
X178789948Y-115934718D01*
X178796461Y-115928205D01*
X178802974Y-115934718D01*
X178947796Y-115934718D01*
X178963602Y-115921934D01*
X178977289Y-115896873D01*
X178979878Y-115888668D01*
X178992150Y-115858186D01*
X179005615Y-115841262D01*
X179006915Y-115840686D01*
X179022776Y-115846621D01*
X179051745Y-115866740D01*
X179088253Y-115897060D01*
X179097899Y-115905762D01*
X179181555Y-115972680D01*
X179261888Y-116015716D01*
X179342340Y-116036147D01*
X179426352Y-116035249D01*
X179441230Y-116033068D01*
X179542316Y-116003793D01*
X179637904Y-115951816D01*
X179722570Y-115880487D01*
X179761916Y-115835002D01*
X179790486Y-115793616D01*
X179818072Y-115746475D01*
X179841882Y-115699428D01*
X179859122Y-115658325D01*
X179866998Y-115629016D01*
X179865298Y-115618495D01*
X179867039Y-115604643D01*
X179877283Y-115574990D01*
X179886610Y-115552522D01*
X179905961Y-115497851D01*
X179925870Y-115422376D01*
X179926327Y-115420205D01*
X179743706Y-115420205D01*
X179738302Y-115482972D01*
X179720769Y-115553073D01*
X179694195Y-115622892D01*
X179661669Y-115684813D01*
X179626278Y-115731218D01*
X179612778Y-115743156D01*
X179574749Y-115774217D01*
X179538786Y-115807471D01*
X179510309Y-115837464D01*
X179494738Y-115858738D01*
X179493333Y-115863382D01*
X179482562Y-115875212D01*
X179456568Y-115890657D01*
X179424831Y-115905058D01*
X179396831Y-115913756D01*
X179389128Y-115914597D01*
X179365754Y-115909459D01*
X179330464Y-115896556D01*
X179316691Y-115890581D01*
X179274680Y-115865742D01*
X179232962Y-115831724D01*
X179197416Y-115794497D01*
X179173925Y-115760034D01*
X179167750Y-115739333D01*
X179161935Y-115713343D01*
X179147215Y-115675003D01*
X179135073Y-115649203D01*
X179116938Y-115610708D01*
X179105137Y-115580384D01*
X179102564Y-115569067D01*
X179097178Y-115552208D01*
X179082344Y-115516457D01*
X179060042Y-115466329D01*
X179032257Y-115406342D01*
X179017401Y-115375050D01*
X178986125Y-115307284D01*
X178958295Y-115242503D01*
X178936359Y-115186739D01*
X178922766Y-115146019D01*
X178920357Y-115136058D01*
X178908921Y-115090856D01*
X178891237Y-115035201D01*
X178874699Y-114990359D01*
X178860276Y-114953064D01*
X178846374Y-114914191D01*
X178831835Y-114869920D01*
X178815498Y-114816432D01*
X178796203Y-114749910D01*
X178772791Y-114666533D01*
X178744101Y-114562483D01*
X178738208Y-114540974D01*
X178704960Y-114419772D01*
X178677685Y-114320916D01*
X178655584Y-114241596D01*
X178637857Y-114179002D01*
X178623705Y-114130326D01*
X178612328Y-114092758D01*
X178602926Y-114063488D01*
X178599209Y-114052513D01*
X178583683Y-114004088D01*
X178567244Y-113947847D01*
X178560314Y-113922256D01*
X178548695Y-113878408D01*
X178538844Y-113842381D01*
X178534647Y-113827820D01*
X178536393Y-113808626D01*
X178548355Y-113805026D01*
X178572732Y-113797949D01*
X178606843Y-113780419D01*
X178641850Y-113757987D01*
X178668914Y-113736204D01*
X178678880Y-113723059D01*
X178683527Y-113701199D01*
X178689407Y-113664789D01*
X178691664Y-113648718D01*
X178700490Y-113599794D01*
X178714249Y-113571361D01*
X178738428Y-113557866D01*
X178778512Y-113553753D01*
X178785598Y-113553611D01*
X178824835Y-113555908D01*
X178863252Y-113565907D01*
X178909230Y-113586348D01*
X178946756Y-113606322D01*
X178986601Y-113631258D01*
X179033981Y-113665359D01*
X179084500Y-113704884D01*
X179133761Y-113746091D01*
X179177370Y-113785240D01*
X179210930Y-113818589D01*
X179230047Y-113842399D01*
X179232820Y-113849786D01*
X179240498Y-113865403D01*
X179259533Y-113891463D01*
X179265384Y-113898581D01*
X179286512Y-113927646D01*
X179297505Y-113950494D01*
X179297948Y-113953727D01*
X179306927Y-113971577D01*
X179329719Y-113998228D01*
X179344519Y-114012551D01*
X179364659Y-114032339D01*
X179382285Y-114054159D01*
X179399216Y-114081761D01*
X179417269Y-114118894D01*
X179438261Y-114169307D01*
X179464010Y-114236751D01*
X179496334Y-114324975D01*
X179497445Y-114328038D01*
X179523611Y-114399009D01*
X179550837Y-114470821D01*
X179575817Y-114534863D01*
X179594436Y-114580622D01*
X179644670Y-114709928D01*
X179683989Y-114833074D01*
X179711703Y-114946781D01*
X179727120Y-115047770D01*
X179729550Y-115132760D01*
X179722007Y-115185744D01*
X179719871Y-115214928D01*
X179722248Y-115259833D01*
X179728446Y-115309487D01*
X179735873Y-115357777D01*
X179741345Y-115397419D01*
X179743699Y-115419977D01*
X179743706Y-115420205D01*
X179926327Y-115420205D01*
X179945082Y-115331282D01*
X179958071Y-115257121D01*
X179956253Y-115219357D01*
X179937280Y-115193230D01*
X179917999Y-115165758D01*
X179910464Y-115124773D01*
X179910077Y-115108827D01*
X179906903Y-115048824D01*
X179898474Y-114975703D01*
X179886233Y-114897999D01*
X179871620Y-114824248D01*
X179856079Y-114762986D01*
X179847138Y-114736359D01*
X179831733Y-114690639D01*
X179815052Y-114631527D01*
X179800527Y-114571252D01*
X179799621Y-114567026D01*
X179779586Y-114476082D01*
X179762602Y-114407662D01*
X179747559Y-114358571D01*
X179733347Y-114325614D01*
X179718859Y-114305598D01*
X179705646Y-114296441D01*
X179678086Y-114270293D01*
X179660982Y-114229470D01*
X179648561Y-114184522D01*
X179636668Y-114142589D01*
X179634960Y-114136708D01*
X179621048Y-114105681D01*
X179596276Y-114064130D01*
X179569618Y-114025990D01*
X179537169Y-113981572D01*
X179497585Y-113925248D01*
X179457850Y-113867005D01*
X179445468Y-113848421D01*
X179409775Y-113797981D01*
X179369653Y-113746872D01*
X179329006Y-113699440D01*
X179291738Y-113660034D01*
X179261754Y-113632998D01*
X179242959Y-113622680D01*
X179242680Y-113622674D01*
X179229692Y-113614531D01*
X179201474Y-113592365D01*
X179162177Y-113559555D01*
X179115956Y-113519485D01*
X179115780Y-113519329D01*
X178998558Y-113415992D01*
X178872213Y-113422291D01*
X178872213Y-113422291D01*
G37*
X178872213Y-113422291D02*
X178764741Y-113433168D01*
X178679846Y-113454606D01*
X178615850Y-113487655D01*
X178571076Y-113533368D01*
X178543846Y-113592795D01*
X178535508Y-113633390D01*
X178525353Y-113694562D01*
X178514700Y-113730204D01*
X178503116Y-113740838D01*
X178490164Y-113726986D01*
X178479285Y-113700820D01*
X178463018Y-113671568D01*
X178437791Y-113661902D01*
X178432421Y-113661744D01*
X178406396Y-113667727D01*
X178399179Y-113687026D01*
X178391484Y-113714808D01*
X178371458Y-113721093D01*
X178346176Y-113706518D01*
X178324589Y-113690998D01*
X178314263Y-113694925D01*
X178314799Y-113719774D01*
X178325797Y-113767019D01*
X178327816Y-113774319D01*
X178351906Y-113860966D01*
X178370492Y-113929505D01*
X178385362Y-113986835D01*
X178398306Y-114039859D01*
X178411110Y-114095477D01*
X178411701Y-114098103D01*
X178441729Y-114221725D01*
X178475691Y-114340307D01*
X178515831Y-114462820D01*
X178536913Y-114529627D01*
X178557722Y-114604539D01*
X178573729Y-114671231D01*
X178588739Y-114730525D01*
X178607560Y-114788914D01*
X178626320Y-114834492D01*
X178627746Y-114837314D01*
X178645907Y-114876059D01*
X178657479Y-114907606D01*
X178659692Y-114919183D01*
X178666241Y-114945264D01*
X178677485Y-114968022D01*
X178685319Y-114986632D01*
X178695185Y-115021089D01*
X178707438Y-115073072D01*
X178722435Y-115144260D01*
X178740531Y-115236331D01*
X178762080Y-115350964D01*
X178784269Y-115472308D01*
X178795126Y-115527688D01*
X178806262Y-115577024D01*
X178815696Y-115611728D01*
X178817825Y-115617816D01*
X178826203Y-115651999D01*
X178826188Y-115676431D01*
X178817916Y-115684215D01*
X178802702Y-115670222D01*
X178782250Y-115637248D01*
X178758265Y-115588091D01*
X178732453Y-115525548D01*
X178729548Y-115517897D01*
X178709538Y-115469310D01*
X178689348Y-115427654D01*
X178673171Y-115401534D01*
X178672435Y-115400667D01*
X178650525Y-115367079D01*
X178640044Y-115342051D01*
X178629570Y-115313127D01*
X178612013Y-115270691D01*
X178594528Y-115231333D01*
X178568649Y-115174826D01*
X178540807Y-115113787D01*
X178525230Y-115079506D01*
X178506017Y-115039719D01*
X178489672Y-115010405D01*
X178480997Y-114999136D01*
X178471148Y-114984640D01*
X178454893Y-114952333D01*
X178435411Y-114908629D01*
X178431415Y-114899104D01*
X178404372Y-114841269D01*
X178375857Y-114799116D01*
X178338929Y-114762855D01*
X178329093Y-114754781D01*
X178292674Y-114727895D01*
X178262115Y-114709420D01*
X178246395Y-114703795D01*
X178221541Y-114709285D01*
X178181920Y-114723631D01*
X178135864Y-114743644D01*
X178112615Y-114754988D01*
X178098964Y-114774220D01*
X178087358Y-114813891D01*
X178082626Y-114841827D01*
X178074377Y-114892613D01*
X178064485Y-114939996D01*
X178058496Y-114962411D01*
X178052451Y-115000350D01*
X178050538Y-115059689D01*
X178052867Y-115136090D01*
X178053743Y-115151283D01*
X178057336Y-115213699D01*
X178058683Y-115253618D01*
X178057445Y-115274523D01*
X178053278Y-115279901D01*
X178045842Y-115273234D01*
X178042251Y-115268492D01*
X178021888Y-115234958D01*
X177997232Y-115186501D01*
X177972247Y-115131905D01*
X177950897Y-115079954D01*
X177937144Y-115039433D01*
X177935152Y-115031123D01*
X177921016Y-114993073D01*
X177902757Y-114965754D01*
X177884546Y-114942041D01*
X177878153Y-114926698D01*
X177868172Y-114913059D01*
X177842405Y-114891076D01*
X177816976Y-114872762D01*
X177758400Y-114843339D01*
X177703776Y-114838547D01*
X177649008Y-114858239D01*
X177635801Y-114866320D01*
X177623457Y-114875294D01*
X177614561Y-114886112D01*
X177608889Y-114902421D01*
X177606214Y-114927869D01*
X177606310Y-114966104D01*
X177608950Y-115020774D01*
X177613910Y-115095526D01*
X177618023Y-115153179D01*
X177625302Y-115254498D01*
X177630796Y-115332795D01*
X177634555Y-115391036D01*
X177636632Y-115432185D01*
X177637076Y-115459208D01*
X177635941Y-115475069D01*
X177633277Y-115482734D01*
X177629135Y-115485167D01*
X177623776Y-115485333D01*
X177605990Y-115474543D01*
X177598528Y-115460625D01*
X177585128Y-115436591D01*
X177560345Y-115404460D01*
X177547382Y-115390001D01*
X177514441Y-115350312D01*
X177480694Y-115302473D01*
X177467546Y-115281196D01*
X177441612Y-115240454D01*
X177415564Y-115205584D01*
X177403315Y-115192153D01*
X177386323Y-115171377D01*
X177359643Y-115133252D01*
X177337533Y-115099447D01*
X177106466Y-115099447D01*
X177089172Y-115126198D01*
X177055364Y-115146477D01*
X177022345Y-115141740D01*
X176993450Y-115112896D01*
X176985187Y-115097820D01*
X176965973Y-115043800D01*
X176956734Y-114988216D01*
X176958126Y-114939409D01*
X176970165Y-114906544D01*
X176982184Y-114893216D01*
X176991853Y-114894880D01*
X177003880Y-114914953D01*
X177015019Y-114939108D01*
X177038430Y-114981573D01*
X177066059Y-115018899D01*
X177075307Y-115028450D01*
X177103805Y-115065189D01*
X177106466Y-115099447D01*
X177337533Y-115099447D01*
X177326724Y-115082922D01*
X177291018Y-115025534D01*
X177285437Y-115016307D01*
X177234993Y-114935627D01*
X177192137Y-114874727D01*
X177153551Y-114829724D01*
X177115922Y-114796738D01*
X177077313Y-114772610D01*
X177034465Y-114757562D01*
X176990957Y-114754012D01*
X176956832Y-114762313D01*
X176948943Y-114768103D01*
X176922869Y-114782593D01*
X176900188Y-114771873D01*
X176882164Y-114736696D01*
X176879175Y-114726590D01*
X176852279Y-114637905D01*
X176820566Y-114550605D01*
X176787593Y-114474009D01*
X176768519Y-114436769D01*
X176745645Y-114394145D01*
X176714328Y-114333388D01*
X176677252Y-114259923D01*
X176637101Y-114179172D01*
X176596558Y-114096559D01*
X176558308Y-114017507D01*
X176525035Y-113947439D01*
X176505838Y-113905974D01*
X176482963Y-113860094D01*
X176461774Y-113825115D01*
X176445789Y-113806594D01*
X176441929Y-113805026D01*
X176419908Y-113812966D01*
X176388743Y-113832790D01*
X176355947Y-113858503D01*
X176329032Y-113884110D01*
X176315512Y-113903616D01*
X176315076Y-113906250D01*
X176318384Y-113932512D01*
X176326685Y-113973341D01*
X176337551Y-114018335D01*
X176348551Y-114057091D01*
X176353807Y-114072051D01*
X176363671Y-114100569D01*
X176375886Y-114141038D01*
X176380201Y-114156490D01*
X176395895Y-114204221D01*
X176417267Y-114257622D01*
X176427225Y-114279415D01*
X176444747Y-114319206D01*
X176456130Y-114351699D01*
X176458555Y-114364310D01*
X176463067Y-114390537D01*
X176473791Y-114427120D01*
X176487011Y-114463122D01*
X176499012Y-114487608D01*
X176501534Y-114490799D01*
X176508651Y-114509711D01*
X176510461Y-114529351D01*
X176515601Y-114556065D01*
X176523487Y-114567026D01*
X176532382Y-114584390D01*
X176536481Y-114615795D01*
X176536512Y-114618841D01*
X176542292Y-114662258D01*
X176554868Y-114699483D01*
X176568170Y-114730558D01*
X176585394Y-114776571D01*
X176602805Y-114827538D01*
X176623040Y-114883183D01*
X176650373Y-114949578D01*
X176679692Y-115014459D01*
X176686945Y-115029436D01*
X176715997Y-115088873D01*
X176736203Y-115132258D01*
X176750429Y-115166807D01*
X176761541Y-115199738D01*
X176772404Y-115238269D01*
X176777459Y-115257385D01*
X176785625Y-115295316D01*
X176794336Y-115346837D01*
X176802918Y-115406254D01*
X176810696Y-115467876D01*
X176816997Y-115526012D01*
X176821148Y-115574968D01*
X176822473Y-115609055D01*
X176820668Y-115622340D01*
X176802170Y-115623323D01*
X176771638Y-115601986D01*
X176729560Y-115558852D01*
X176676423Y-115494445D01*
X176612717Y-115409290D01*
X176582102Y-115366292D01*
X176545295Y-115315218D01*
X176502594Y-115257811D01*
X176470180Y-115215462D01*
X176436031Y-115167087D01*
X176405490Y-115115950D01*
X176386362Y-115075908D01*
X176363473Y-115030697D01*
X176332766Y-115001023D01*
X176289752Y-114984970D01*
X176229938Y-114980620D01*
X176170901Y-114983925D01*
X176099172Y-114986678D01*
X176048148Y-114979583D01*
X176014067Y-114961747D01*
X175998557Y-114942867D01*
X175967394Y-114913099D01*
X175922177Y-114896309D01*
X175873075Y-114895892D01*
X175864023Y-114897978D01*
X175814331Y-114921436D01*
X175786989Y-114956316D01*
X175782654Y-114999619D01*
X175801982Y-115048343D01*
X175824596Y-115078244D01*
X175865572Y-115142537D01*
X175887696Y-115218406D01*
X175888675Y-115294828D01*
X175882001Y-115345298D01*
X175818245Y-115337746D01*
X175766468Y-115325676D01*
X175712583Y-115303545D01*
X175663215Y-115275236D01*
X175624987Y-115244635D01*
X175604521Y-115215623D01*
X175603425Y-115211795D01*
X175577928Y-115113851D01*
X175545738Y-115016477D01*
X175509177Y-114925161D01*
X175470562Y-114845390D01*
X175432215Y-114782652D01*
X175410701Y-114755897D01*
X175384517Y-114723791D01*
X175365338Y-114694026D01*
X175348388Y-114672135D01*
X175324851Y-114666475D01*
X175289311Y-114676888D01*
X175259671Y-114690937D01*
X175215938Y-114717602D01*
X175188431Y-114747833D01*
X175174366Y-114787754D01*
X175170959Y-114843490D01*
X175172584Y-114882524D01*
X175179459Y-114948760D01*
X175192935Y-115002692D01*
X175216568Y-115057888D01*
X175220713Y-115066142D01*
X175240283Y-115107650D01*
X175252533Y-115139717D01*
X175255021Y-115155871D01*
X175254721Y-115156287D01*
X175244025Y-115156464D01*
X175224731Y-115142406D01*
X175195556Y-115112703D01*
X175155218Y-115065944D01*
X175102436Y-115000720D01*
X175035927Y-114915620D01*
X175035694Y-114915319D01*
X174976527Y-114840215D01*
X174929745Y-114784788D01*
X174893088Y-114747172D01*
X174864296Y-114725497D01*
X174841108Y-114717896D01*
X174821265Y-114722502D01*
X174810950Y-114729568D01*
X174790754Y-114755421D01*
X174784190Y-114770099D01*
X174769576Y-114790588D01*
X174757635Y-114794974D01*
X174743329Y-114797996D01*
X174741731Y-114809773D01*
X174753933Y-114834374D01*
X174778288Y-114871832D01*
X174800321Y-114907465D01*
X174814396Y-114936215D01*
X174817128Y-114946693D01*
X174822825Y-114964911D01*
X174838243Y-115000577D01*
X174860869Y-115048140D01*
X174882114Y-115090329D01*
X174908015Y-115141669D01*
X174928194Y-115183763D01*
X174940381Y-115211731D01*
X174942802Y-115220719D01*
X174931226Y-115215456D01*
X174904255Y-115197669D01*
X174867056Y-115170828D01*
X174855021Y-115161792D01*
X174767198Y-115085600D01*
X174687128Y-114997842D01*
X174623017Y-114907610D01*
X174618020Y-114899179D01*
X174592824Y-114862235D01*
X174555796Y-114815531D01*
X174513740Y-114767509D01*
X174500888Y-114753824D01*
X174461099Y-114713010D01*
X174433629Y-114688108D01*
X174413145Y-114675872D01*
X174394315Y-114673054D01*
X174373257Y-114676113D01*
X174336422Y-114690831D01*
X174309133Y-114721964D01*
X174302820Y-114732969D01*
X174276974Y-114780798D01*
X174314694Y-114852895D01*
X174339765Y-114894843D01*
X174365769Y-114929083D01*
X174382415Y-114944650D01*
X174410727Y-114969415D01*
X174426359Y-114990359D01*
X174433978Y-115011209D01*
X174427068Y-115015860D01*
X174408946Y-115007091D01*
X174382930Y-114987679D01*
X174352335Y-114960406D01*
X174320480Y-114928048D01*
X174290681Y-114893386D01*
X174266255Y-114859198D01*
X174262601Y-114853166D01*
X174225910Y-114804456D01*
X174185044Y-114779848D01*
X174135845Y-114777394D01*
X174111819Y-114782467D01*
X174083353Y-114788635D01*
X174059023Y-114787988D01*
X174030908Y-114778592D01*
X173991086Y-114758517D01*
X173972871Y-114748585D01*
X173923207Y-114719376D01*
X173876594Y-114688730D01*
X173843094Y-114663264D01*
X173843008Y-114663189D01*
X173798991Y-114633321D01*
X173762801Y-114625933D01*
X173736962Y-114640379D01*
X173724001Y-114676017D01*
X173722974Y-114693816D01*
X173732263Y-114724376D01*
X173756287Y-114763654D01*
X173789281Y-114804294D01*
X173825480Y-114838939D01*
X173849974Y-114855869D01*
X173877553Y-114873118D01*
X173891781Y-114886210D01*
X173892307Y-114887887D01*
X173903187Y-114897454D01*
X173931451Y-114914065D01*
X173970535Y-114934511D01*
X174013874Y-114955581D01*
X174054904Y-114974066D01*
X174087061Y-114986756D01*
X174102318Y-114990587D01*
X174120161Y-114999083D01*
X174150286Y-115021233D01*
X174186429Y-115052394D01*
X174189338Y-115055086D01*
X174237099Y-115098283D01*
X174289785Y-115144097D01*
X174326107Y-115174476D01*
X174371256Y-115213295D01*
X174422533Y-115260413D01*
X174465251Y-115302059D01*
X174501033Y-115335912D01*
X174531395Y-115360254D01*
X174550801Y-115370750D01*
X174553026Y-115370776D01*
X174576664Y-115373512D01*
X174596418Y-115381517D01*
X174631196Y-115388280D01*
X174660989Y-115373142D01*
X174681039Y-115340251D01*
X174686871Y-115302674D01*
X174688287Y-115274523D01*
X174693811Y-115256579D01*
X174705361Y-115249962D01*
X174724853Y-115255790D01*
X174754206Y-115275183D01*
X174795335Y-115309257D01*
X174850157Y-115359133D01*
X174920590Y-115425928D01*
X174955313Y-115459321D01*
X174985001Y-115483602D01*
X175010437Y-115497263D01*
X175016416Y-115498359D01*
X175039379Y-115505625D01*
X175045076Y-115511385D01*
X175064787Y-115522205D01*
X175096213Y-115523524D01*
X175127102Y-115516056D01*
X175142048Y-115505740D01*
X175150437Y-115482206D01*
X175151692Y-115438572D01*
X175148473Y-115395022D01*
X175145066Y-115340716D01*
X175148397Y-115310534D01*
X175159060Y-115303281D01*
X175177648Y-115317767D01*
X175183507Y-115324531D01*
X175208013Y-115345411D01*
X175240461Y-115364388D01*
X175298161Y-115393446D01*
X175334578Y-115417032D01*
X175353289Y-115437464D01*
X175353342Y-115437559D01*
X175371854Y-115450466D01*
X175407116Y-115461699D01*
X175430266Y-115465923D01*
X175472284Y-115469896D01*
X175499108Y-115465875D01*
X175520908Y-115451822D01*
X175526669Y-115446591D01*
X175549492Y-115428156D01*
X175568806Y-115426294D01*
X175595602Y-115438159D01*
X175628133Y-115457607D01*
X175669474Y-115485712D01*
X175694737Y-115504309D01*
X175730807Y-115529436D01*
X175760909Y-115546198D01*
X175774625Y-115550462D01*
X175791895Y-115556978D01*
X175794051Y-115562452D01*
X175805507Y-115576187D01*
X175835198Y-115583101D01*
X175876114Y-115582791D01*
X175921239Y-115574852D01*
X175935484Y-115570614D01*
X176000260Y-115538524D01*
X176046561Y-115490806D01*
X176074830Y-115426389D01*
X176085510Y-115344206D01*
X176079046Y-115243185D01*
X176077068Y-115229271D01*
X176067009Y-115162080D01*
X176118426Y-115153393D01*
X176164103Y-115151754D01*
X176200681Y-115161474D01*
X176221472Y-115180182D01*
X176223897Y-115190783D01*
X176232092Y-115210678D01*
X176252487Y-115239010D01*
X176259717Y-115247314D01*
X176283712Y-115277330D01*
X176314967Y-115321326D01*
X176347522Y-115370836D01*
X176354153Y-115381444D01*
X176393508Y-115440001D01*
X176440644Y-115502926D01*
X176485445Y-115556721D01*
X176485992Y-115557328D01*
X176523534Y-115600566D01*
X176556774Y-115641737D01*
X176579582Y-115673185D01*
X176582461Y-115677817D01*
X176607951Y-115708904D01*
X176644850Y-115740978D01*
X176660699Y-115751930D01*
X176702621Y-115781680D01*
X176741724Y-115814545D01*
X176752282Y-115824883D01*
X176773924Y-115849063D01*
X176778002Y-115860211D01*
X176766007Y-115863065D01*
X176764293Y-115863077D01*
X176748196Y-115866470D01*
X176754791Y-115878156D01*
X176773138Y-115886474D01*
X176788096Y-115878108D01*
X176814287Y-115869332D01*
X176845459Y-115870810D01*
X176898756Y-115869370D01*
X176945818Y-115843202D01*
X176985434Y-115793141D01*
X176999879Y-115764470D01*
X177017465Y-115726872D01*
X177031295Y-115701221D01*
X177037377Y-115693744D01*
X177047500Y-115703769D01*
X177058595Y-115721770D01*
X177067201Y-115741522D01*
X177060090Y-115744283D01*
X177052541Y-115741717D01*
X177036133Y-115737148D01*
X177033205Y-115744775D01*
X177042909Y-115769631D01*
X177046499Y-115777570D01*
X177058622Y-115799285D01*
X177068840Y-115799088D01*
X177076689Y-115789763D01*
X177088218Y-115779261D01*
X177101437Y-115784340D01*
X177122376Y-115807796D01*
X177126329Y-115812785D01*
X177153184Y-115846281D01*
X177176610Y-115874505D01*
X177180806Y-115879359D01*
X177196956Y-115907088D01*
X177200820Y-115924862D01*
X177193919Y-115930249D01*
X177173007Y-115914482D01*
X177142409Y-115882529D01*
X177113365Y-115851981D01*
X177092385Y-115833333D01*
X177083818Y-115830427D01*
X177083794Y-115830745D01*
X177092277Y-115855179D01*
X177113998Y-115888637D01*
X177142563Y-115923017D01*
X177171581Y-115950218D01*
X177184912Y-115958928D01*
X177226365Y-115970553D01*
X177280759Y-115973940D01*
X177337201Y-115969564D01*
X177384802Y-115957902D01*
X177401964Y-115949435D01*
X177442112Y-115908934D01*
X177471160Y-115850641D01*
X177486063Y-115781536D01*
X177487384Y-115753647D01*
X177489242Y-115712976D01*
X177494022Y-115684096D01*
X177498417Y-115675437D01*
X177513308Y-115679704D01*
X177537490Y-115698552D01*
X177547263Y-115708200D01*
X177570150Y-115733831D01*
X177576251Y-115748798D01*
X177567538Y-115760509D01*
X177562282Y-115764532D01*
X177542431Y-115783150D01*
X177546195Y-115793800D01*
X177574453Y-115797821D01*
X177584229Y-115797949D01*
X177624936Y-115801325D01*
X177659126Y-115809312D01*
X177694724Y-115814108D01*
X177717907Y-115809984D01*
X177744812Y-115789464D01*
X177769504Y-115754528D01*
X177784930Y-115716355D01*
X177786974Y-115700485D01*
X177792144Y-115675873D01*
X177801348Y-115650568D01*
X177276654Y-115650568D01*
X177271614Y-115677358D01*
X177258265Y-115680038D01*
X177237154Y-115659925D01*
X177219753Y-115640106D01*
X177190679Y-115608618D01*
X177158275Y-115574426D01*
X177121594Y-115532174D01*
X177085356Y-115483680D01*
X177053528Y-115435092D01*
X177030079Y-115392555D01*
X177018975Y-115362216D01*
X177018583Y-115358011D01*
X177029272Y-115341193D01*
X177048503Y-115329985D01*
X177078014Y-115314135D01*
X177112987Y-115289389D01*
X177120336Y-115283397D01*
X177150175Y-115262928D01*
X177174247Y-115254275D01*
X177179374Y-115254850D01*
X177198028Y-115272625D01*
X177219034Y-115308279D01*
X177239255Y-115354223D01*
X177255556Y-115402870D01*
X177264802Y-115446631D01*
X177265806Y-115464002D01*
X177266657Y-115507497D01*
X177270113Y-115562289D01*
X177273603Y-115599308D01*
X177276654Y-115650568D01*
X177801348Y-115650568D01*
X177804967Y-115640621D01*
X177808976Y-115631453D01*
X177823287Y-115597717D01*
X177831710Y-115573611D01*
X177832458Y-115570000D01*
X177837322Y-115550165D01*
X177847590Y-115516953D01*
X177851011Y-115506709D01*
X177860198Y-115470387D01*
X177860752Y-115433378D01*
X177852738Y-115384178D01*
X177851720Y-115379327D01*
X177841305Y-115337284D01*
X177830909Y-115306561D01*
X177824190Y-115295311D01*
X177815182Y-115278163D01*
X177813025Y-115260234D01*
X177814121Y-115240929D01*
X177821538Y-115241979D01*
X177836843Y-115257746D01*
X177853432Y-115282336D01*
X177874699Y-115322896D01*
X177896241Y-115370981D01*
X177897729Y-115374615D01*
X177922003Y-115430664D01*
X177952926Y-115497034D01*
X177984628Y-115561203D01*
X177991142Y-115573815D01*
X178015769Y-115622383D01*
X178034936Y-115662757D01*
X178045916Y-115689068D01*
X178047487Y-115695211D01*
X178055855Y-115720285D01*
X178076813Y-115753215D01*
X178104136Y-115786482D01*
X178131602Y-115812566D01*
X178152988Y-115823948D01*
X178154063Y-115824000D01*
X178188047Y-115819946D01*
X178229080Y-115809804D01*
X178267452Y-115796607D01*
X178293453Y-115783386D01*
X178298031Y-115779044D01*
X178304013Y-115756032D01*
X178306611Y-115712736D01*
X178305982Y-115654683D01*
X178302282Y-115587399D01*
X178295668Y-115516410D01*
X178289145Y-115465795D01*
X178281378Y-115409841D01*
X178278100Y-115373800D01*
X178279589Y-115351874D01*
X178286123Y-115338266D01*
X178295712Y-115329026D01*
X178307594Y-115316318D01*
X178313273Y-115298867D01*
X178313388Y-115270108D01*
X178308578Y-115223474D01*
X178307128Y-115211795D01*
X178299359Y-115154703D01*
X178290876Y-115099500D01*
X178283630Y-115058744D01*
X178278352Y-115021756D01*
X178282382Y-115005226D01*
X178287887Y-115003385D01*
X178301397Y-115014236D01*
X178322854Y-115043114D01*
X178349048Y-115084502D01*
X178376771Y-115132883D01*
X178402816Y-115182741D01*
X178423973Y-115228560D01*
X178433855Y-115254365D01*
X178447361Y-115289308D01*
X178469166Y-115339842D01*
X178495878Y-115398280D01*
X178515666Y-115439744D01*
X178542454Y-115495972D01*
X178565514Y-115546527D01*
X178582002Y-115585047D01*
X178588448Y-115602564D01*
X178599503Y-115629593D01*
X178619887Y-115670538D01*
X178645414Y-115717044D01*
X178648314Y-115722067D01*
X178672323Y-115764584D01*
X178690135Y-115798311D01*
X178698511Y-115817061D01*
X178698769Y-115818461D01*
X178704092Y-115834400D01*
X178717891Y-115866035D01*
X178732861Y-115897599D01*
X178759712Y-115943774D01*
X178782948Y-115965577D01*
X178790391Y-115967282D01*
X178812622Y-115974047D01*
X178818541Y-115981420D01*
X178832616Y-115984975D01*
X178866190Y-115975596D01*
X178895387Y-115963656D01*
X178938579Y-115942173D01*
X178947796Y-115934718D01*
X178802974Y-115934718D01*
X178796461Y-115941231D01*
X178789948Y-115934718D01*
X178796461Y-115928205D01*
X178802974Y-115934718D01*
X178947796Y-115934718D01*
X178963602Y-115921934D01*
X178977289Y-115896873D01*
X178979878Y-115888668D01*
X178992150Y-115858186D01*
X179005615Y-115841262D01*
X179006915Y-115840686D01*
X179022776Y-115846621D01*
X179051745Y-115866740D01*
X179088253Y-115897060D01*
X179097899Y-115905762D01*
X179181555Y-115972680D01*
X179261888Y-116015716D01*
X179342340Y-116036147D01*
X179426352Y-116035249D01*
X179441230Y-116033068D01*
X179542316Y-116003793D01*
X179637904Y-115951816D01*
X179722570Y-115880487D01*
X179761916Y-115835002D01*
X179790486Y-115793616D01*
X179818072Y-115746475D01*
X179841882Y-115699428D01*
X179859122Y-115658325D01*
X179866998Y-115629016D01*
X179865298Y-115618495D01*
X179867039Y-115604643D01*
X179877283Y-115574990D01*
X179886610Y-115552522D01*
X179905961Y-115497851D01*
X179925870Y-115422376D01*
X179926327Y-115420205D01*
X179743706Y-115420205D01*
X179738302Y-115482972D01*
X179720769Y-115553073D01*
X179694195Y-115622892D01*
X179661669Y-115684813D01*
X179626278Y-115731218D01*
X179612778Y-115743156D01*
X179574749Y-115774217D01*
X179538786Y-115807471D01*
X179510309Y-115837464D01*
X179494738Y-115858738D01*
X179493333Y-115863382D01*
X179482562Y-115875212D01*
X179456568Y-115890657D01*
X179424831Y-115905058D01*
X179396831Y-115913756D01*
X179389128Y-115914597D01*
X179365754Y-115909459D01*
X179330464Y-115896556D01*
X179316691Y-115890581D01*
X179274680Y-115865742D01*
X179232962Y-115831724D01*
X179197416Y-115794497D01*
X179173925Y-115760034D01*
X179167750Y-115739333D01*
X179161935Y-115713343D01*
X179147215Y-115675003D01*
X179135073Y-115649203D01*
X179116938Y-115610708D01*
X179105137Y-115580384D01*
X179102564Y-115569067D01*
X179097178Y-115552208D01*
X179082344Y-115516457D01*
X179060042Y-115466329D01*
X179032257Y-115406342D01*
X179017401Y-115375050D01*
X178986125Y-115307284D01*
X178958295Y-115242503D01*
X178936359Y-115186739D01*
X178922766Y-115146019D01*
X178920357Y-115136058D01*
X178908921Y-115090856D01*
X178891237Y-115035201D01*
X178874699Y-114990359D01*
X178860276Y-114953064D01*
X178846374Y-114914191D01*
X178831835Y-114869920D01*
X178815498Y-114816432D01*
X178796203Y-114749910D01*
X178772791Y-114666533D01*
X178744101Y-114562483D01*
X178738208Y-114540974D01*
X178704960Y-114419772D01*
X178677685Y-114320916D01*
X178655584Y-114241596D01*
X178637857Y-114179002D01*
X178623705Y-114130326D01*
X178612328Y-114092758D01*
X178602926Y-114063488D01*
X178599209Y-114052513D01*
X178583683Y-114004088D01*
X178567244Y-113947847D01*
X178560314Y-113922256D01*
X178548695Y-113878408D01*
X178538844Y-113842381D01*
X178534647Y-113827820D01*
X178536393Y-113808626D01*
X178548355Y-113805026D01*
X178572732Y-113797949D01*
X178606843Y-113780419D01*
X178641850Y-113757987D01*
X178668914Y-113736204D01*
X178678880Y-113723059D01*
X178683527Y-113701199D01*
X178689407Y-113664789D01*
X178691664Y-113648718D01*
X178700490Y-113599794D01*
X178714249Y-113571361D01*
X178738428Y-113557866D01*
X178778512Y-113553753D01*
X178785598Y-113553611D01*
X178824835Y-113555908D01*
X178863252Y-113565907D01*
X178909230Y-113586348D01*
X178946756Y-113606322D01*
X178986601Y-113631258D01*
X179033981Y-113665359D01*
X179084500Y-113704884D01*
X179133761Y-113746091D01*
X179177370Y-113785240D01*
X179210930Y-113818589D01*
X179230047Y-113842399D01*
X179232820Y-113849786D01*
X179240498Y-113865403D01*
X179259533Y-113891463D01*
X179265384Y-113898581D01*
X179286512Y-113927646D01*
X179297505Y-113950494D01*
X179297948Y-113953727D01*
X179306927Y-113971577D01*
X179329719Y-113998228D01*
X179344519Y-114012551D01*
X179364659Y-114032339D01*
X179382285Y-114054159D01*
X179399216Y-114081761D01*
X179417269Y-114118894D01*
X179438261Y-114169307D01*
X179464010Y-114236751D01*
X179496334Y-114324975D01*
X179497445Y-114328038D01*
X179523611Y-114399009D01*
X179550837Y-114470821D01*
X179575817Y-114534863D01*
X179594436Y-114580622D01*
X179644670Y-114709928D01*
X179683989Y-114833074D01*
X179711703Y-114946781D01*
X179727120Y-115047770D01*
X179729550Y-115132760D01*
X179722007Y-115185744D01*
X179719871Y-115214928D01*
X179722248Y-115259833D01*
X179728446Y-115309487D01*
X179735873Y-115357777D01*
X179741345Y-115397419D01*
X179743699Y-115419977D01*
X179743706Y-115420205D01*
X179926327Y-115420205D01*
X179945082Y-115331282D01*
X179958071Y-115257121D01*
X179956253Y-115219357D01*
X179937280Y-115193230D01*
X179917999Y-115165758D01*
X179910464Y-115124773D01*
X179910077Y-115108827D01*
X179906903Y-115048824D01*
X179898474Y-114975703D01*
X179886233Y-114897999D01*
X179871620Y-114824248D01*
X179856079Y-114762986D01*
X179847138Y-114736359D01*
X179831733Y-114690639D01*
X179815052Y-114631527D01*
X179800527Y-114571252D01*
X179799621Y-114567026D01*
X179779586Y-114476082D01*
X179762602Y-114407662D01*
X179747559Y-114358571D01*
X179733347Y-114325614D01*
X179718859Y-114305598D01*
X179705646Y-114296441D01*
X179678086Y-114270293D01*
X179660982Y-114229470D01*
X179648561Y-114184522D01*
X179636668Y-114142589D01*
X179634960Y-114136708D01*
X179621048Y-114105681D01*
X179596276Y-114064130D01*
X179569618Y-114025990D01*
X179537169Y-113981572D01*
X179497585Y-113925248D01*
X179457850Y-113867005D01*
X179445468Y-113848421D01*
X179409775Y-113797981D01*
X179369653Y-113746872D01*
X179329006Y-113699440D01*
X179291738Y-113660034D01*
X179261754Y-113632998D01*
X179242959Y-113622680D01*
X179242680Y-113622674D01*
X179229692Y-113614531D01*
X179201474Y-113592365D01*
X179162177Y-113559555D01*
X179115956Y-113519485D01*
X179115780Y-113519329D01*
X178998558Y-113415992D01*
X178872213Y-113422291D01*
G04 #@! TD*
M02*
