G04 #@! TF.GenerationSoftware,KiCad,Pcbnew,(5.0.2)-1*
G04 #@! TF.CreationDate,2020-05-31T20:05:05-05:00*
G04 #@! TF.ProjectId,Binary_Display,42696e61-7279-45f4-9469-73706c61792e,rev?*
G04 #@! TF.SameCoordinates,Original*
G04 #@! TF.FileFunction,Soldermask,Top*
G04 #@! TF.FilePolarity,Negative*
%FSLAX46Y46*%
G04 Gerber Fmt 4.6, Leading zero omitted, Abs format (unit mm)*
G04 Created by KiCad (PCBNEW (5.0.2)-1) date 5/31/2020 8:05:05 PM*
%MOMM*%
%LPD*%
G01*
G04 APERTURE LIST*
%ADD10C,0.100000*%
G04 APERTURE END LIST*
D10*
G36*
X210083774Y-138644820D02*
X210388277Y-138770949D01*
X210660477Y-138952827D01*
X210662326Y-138954063D01*
X210895377Y-139187114D01*
X210895379Y-139187117D01*
X211078491Y-139461163D01*
X211204620Y-139765666D01*
X211268920Y-140088924D01*
X211268920Y-140418516D01*
X211204620Y-140741774D01*
X211078491Y-141046277D01*
X210896613Y-141318477D01*
X210895377Y-141320326D01*
X210662326Y-141553377D01*
X210662323Y-141553379D01*
X210388277Y-141736491D01*
X210083774Y-141862620D01*
X209760517Y-141926920D01*
X209430923Y-141926920D01*
X209107666Y-141862620D01*
X208803163Y-141736491D01*
X208529117Y-141553379D01*
X208529114Y-141553377D01*
X208296063Y-141320326D01*
X208294827Y-141318477D01*
X208112949Y-141046277D01*
X207986820Y-140741774D01*
X207922520Y-140418516D01*
X207922520Y-140088924D01*
X207986820Y-139765666D01*
X208112949Y-139461163D01*
X208296061Y-139187117D01*
X208296063Y-139187114D01*
X208529114Y-138954063D01*
X208530963Y-138952827D01*
X208803163Y-138770949D01*
X209107666Y-138644820D01*
X209430923Y-138580520D01*
X209760517Y-138580520D01*
X210083774Y-138644820D01*
X210083774Y-138644820D01*
G37*
G36*
X121193934Y-138644820D02*
X121498437Y-138770949D01*
X121770637Y-138952827D01*
X121772486Y-138954063D01*
X122005537Y-139187114D01*
X122005539Y-139187117D01*
X122188651Y-139461163D01*
X122314780Y-139765666D01*
X122379080Y-140088924D01*
X122379080Y-140418516D01*
X122314780Y-140741774D01*
X122188651Y-141046277D01*
X122006773Y-141318477D01*
X122005537Y-141320326D01*
X121772486Y-141553377D01*
X121772483Y-141553379D01*
X121498437Y-141736491D01*
X121193934Y-141862620D01*
X120870677Y-141926920D01*
X120541083Y-141926920D01*
X120217826Y-141862620D01*
X119913323Y-141736491D01*
X119639277Y-141553379D01*
X119639274Y-141553377D01*
X119406223Y-141320326D01*
X119404987Y-141318477D01*
X119223109Y-141046277D01*
X119096980Y-140741774D01*
X119032680Y-140418516D01*
X119032680Y-140088924D01*
X119096980Y-139765666D01*
X119223109Y-139461163D01*
X119406221Y-139187117D01*
X119406223Y-139187114D01*
X119639274Y-138954063D01*
X119641123Y-138952827D01*
X119913323Y-138770949D01*
X120217826Y-138644820D01*
X120541083Y-138580520D01*
X120870677Y-138580520D01*
X121193934Y-138644820D01*
X121193934Y-138644820D01*
G37*
G36*
X174236000Y-141664000D02*
X173236000Y-141664000D01*
X173236000Y-139264000D01*
X174236000Y-139264000D01*
X174236000Y-141664000D01*
X174236000Y-141664000D01*
G37*
G36*
X175506000Y-141664000D02*
X174506000Y-141664000D01*
X174506000Y-139264000D01*
X175506000Y-139264000D01*
X175506000Y-141664000D01*
X175506000Y-141664000D01*
G37*
G36*
X171696000Y-141664000D02*
X170696000Y-141664000D01*
X170696000Y-139264000D01*
X171696000Y-139264000D01*
X171696000Y-141664000D01*
X171696000Y-141664000D01*
G37*
G36*
X170426000Y-141664000D02*
X169426000Y-141664000D01*
X169426000Y-139264000D01*
X170426000Y-139264000D01*
X170426000Y-141664000D01*
X170426000Y-141664000D01*
G37*
G36*
X169156000Y-141664000D02*
X168156000Y-141664000D01*
X168156000Y-139264000D01*
X169156000Y-139264000D01*
X169156000Y-141664000D01*
X169156000Y-141664000D01*
G37*
G36*
X167886000Y-141664000D02*
X166886000Y-141664000D01*
X166886000Y-139264000D01*
X167886000Y-139264000D01*
X167886000Y-141664000D01*
X167886000Y-141664000D01*
G37*
G36*
X166616000Y-141664000D02*
X165616000Y-141664000D01*
X165616000Y-139264000D01*
X166616000Y-139264000D01*
X166616000Y-141664000D01*
X166616000Y-141664000D01*
G37*
G36*
X165346000Y-141664000D02*
X164346000Y-141664000D01*
X164346000Y-139264000D01*
X165346000Y-139264000D01*
X165346000Y-141664000D01*
X165346000Y-141664000D01*
G37*
G36*
X164076000Y-141664000D02*
X163076000Y-141664000D01*
X163076000Y-139264000D01*
X164076000Y-139264000D01*
X164076000Y-141664000D01*
X164076000Y-141664000D01*
G37*
G36*
X162806000Y-141664000D02*
X161806000Y-141664000D01*
X161806000Y-139264000D01*
X162806000Y-139264000D01*
X162806000Y-141664000D01*
X162806000Y-141664000D01*
G37*
G36*
X176776000Y-141664000D02*
X175776000Y-141664000D01*
X175776000Y-139264000D01*
X176776000Y-139264000D01*
X176776000Y-141664000D01*
X176776000Y-141664000D01*
G37*
G36*
X172966000Y-141664000D02*
X171966000Y-141664000D01*
X171966000Y-139264000D01*
X172966000Y-139264000D01*
X172966000Y-141664000D01*
X172966000Y-141664000D01*
G37*
G36*
X179645000Y-141516000D02*
X178495000Y-141516000D01*
X178495000Y-139916000D01*
X179645000Y-139916000D01*
X179645000Y-141516000D01*
X179645000Y-141516000D01*
G37*
G36*
X182006000Y-141516000D02*
X180706000Y-141516000D01*
X180706000Y-139916000D01*
X182006000Y-139916000D01*
X182006000Y-141516000D01*
X182006000Y-141516000D01*
G37*
G36*
X179645000Y-139616000D02*
X178495000Y-139616000D01*
X178495000Y-138016000D01*
X179645000Y-138016000D01*
X179645000Y-139616000D01*
X179645000Y-139616000D01*
G37*
G36*
X182006000Y-139316000D02*
X180706000Y-139316000D01*
X180706000Y-137716000D01*
X182006000Y-137716000D01*
X182006000Y-139316000D01*
X182006000Y-139316000D01*
G37*
G36*
X164076000Y-132264000D02*
X163076000Y-132264000D01*
X163076000Y-129864000D01*
X164076000Y-129864000D01*
X164076000Y-132264000D01*
X164076000Y-132264000D01*
G37*
G36*
X166616000Y-132264000D02*
X165616000Y-132264000D01*
X165616000Y-129864000D01*
X166616000Y-129864000D01*
X166616000Y-132264000D01*
X166616000Y-132264000D01*
G37*
G36*
X167886000Y-132264000D02*
X166886000Y-132264000D01*
X166886000Y-129864000D01*
X167886000Y-129864000D01*
X167886000Y-132264000D01*
X167886000Y-132264000D01*
G37*
G36*
X169156000Y-132264000D02*
X168156000Y-132264000D01*
X168156000Y-129864000D01*
X169156000Y-129864000D01*
X169156000Y-132264000D01*
X169156000Y-132264000D01*
G37*
G36*
X170426000Y-132264000D02*
X169426000Y-132264000D01*
X169426000Y-129864000D01*
X170426000Y-129864000D01*
X170426000Y-132264000D01*
X170426000Y-132264000D01*
G37*
G36*
X171696000Y-132264000D02*
X170696000Y-132264000D01*
X170696000Y-129864000D01*
X171696000Y-129864000D01*
X171696000Y-132264000D01*
X171696000Y-132264000D01*
G37*
G36*
X174236000Y-132264000D02*
X173236000Y-132264000D01*
X173236000Y-129864000D01*
X174236000Y-129864000D01*
X174236000Y-132264000D01*
X174236000Y-132264000D01*
G37*
G36*
X176776000Y-132264000D02*
X175776000Y-132264000D01*
X175776000Y-129864000D01*
X176776000Y-129864000D01*
X176776000Y-132264000D01*
X176776000Y-132264000D01*
G37*
G36*
X172966000Y-132264000D02*
X171966000Y-132264000D01*
X171966000Y-129864000D01*
X172966000Y-129864000D01*
X172966000Y-132264000D01*
X172966000Y-132264000D01*
G37*
G36*
X162806000Y-132264000D02*
X161806000Y-132264000D01*
X161806000Y-129864000D01*
X162806000Y-129864000D01*
X162806000Y-132264000D01*
X162806000Y-132264000D01*
G37*
G36*
X175506000Y-132264000D02*
X174506000Y-132264000D01*
X174506000Y-129864000D01*
X175506000Y-129864000D01*
X175506000Y-132264000D01*
X175506000Y-132264000D01*
G37*
G36*
X165346000Y-132264000D02*
X164346000Y-132264000D01*
X164346000Y-129864000D01*
X165346000Y-129864000D01*
X165346000Y-132264000D01*
X165346000Y-132264000D01*
G37*
G36*
X140850800Y-123604200D02*
X138650800Y-123604200D01*
X138650800Y-121404200D01*
X140850800Y-121404200D01*
X140850800Y-123604200D01*
X140850800Y-123604200D01*
G37*
G36*
X211462800Y-123604200D02*
X209262800Y-123604200D01*
X209262800Y-121404200D01*
X211462800Y-121404200D01*
X211462800Y-123604200D01*
X211462800Y-123604200D01*
G37*
G36*
X198254800Y-123604200D02*
X196054800Y-123604200D01*
X196054800Y-121404200D01*
X198254800Y-121404200D01*
X198254800Y-123604200D01*
X198254800Y-123604200D01*
G37*
G36*
X127642800Y-123604200D02*
X125442800Y-123604200D01*
X125442800Y-121404200D01*
X127642800Y-121404200D01*
X127642800Y-123604200D01*
X127642800Y-123604200D01*
G37*
G36*
X134246800Y-123604200D02*
X132046800Y-123604200D01*
X132046800Y-121404200D01*
X134246800Y-121404200D01*
X134246800Y-123604200D01*
X134246800Y-123604200D01*
G37*
G36*
X147454800Y-123604200D02*
X145254800Y-123604200D01*
X145254800Y-121404200D01*
X147454800Y-121404200D01*
X147454800Y-123604200D01*
X147454800Y-123604200D01*
G37*
G36*
X154058800Y-123604200D02*
X151858800Y-123604200D01*
X151858800Y-121404200D01*
X154058800Y-121404200D01*
X154058800Y-123604200D01*
X154058800Y-123604200D01*
G37*
G36*
X204858800Y-123604200D02*
X202658800Y-123604200D01*
X202658800Y-121404200D01*
X204858800Y-121404200D01*
X204858800Y-123604200D01*
X204858800Y-123604200D01*
G37*
G36*
X160662800Y-123604200D02*
X158462800Y-123604200D01*
X158462800Y-121404200D01*
X160662800Y-121404200D01*
X160662800Y-123604200D01*
X160662800Y-123604200D01*
G37*
G36*
X204079657Y-118906472D02*
X204279842Y-118989391D01*
X204460013Y-119109778D01*
X204613222Y-119262987D01*
X204733609Y-119443158D01*
X204816528Y-119643343D01*
X204858800Y-119855858D01*
X204858800Y-120072542D01*
X204816528Y-120285057D01*
X204733609Y-120485242D01*
X204613222Y-120665413D01*
X204460013Y-120818622D01*
X204279842Y-120939009D01*
X204079657Y-121021928D01*
X203867142Y-121064200D01*
X203650458Y-121064200D01*
X203437943Y-121021928D01*
X203237758Y-120939009D01*
X203057587Y-120818622D01*
X202904378Y-120665413D01*
X202783991Y-120485242D01*
X202701072Y-120285057D01*
X202658800Y-120072542D01*
X202658800Y-119855858D01*
X202701072Y-119643343D01*
X202783991Y-119443158D01*
X202904378Y-119262987D01*
X203057587Y-119109778D01*
X203237758Y-118989391D01*
X203437943Y-118906472D01*
X203650458Y-118864200D01*
X203867142Y-118864200D01*
X204079657Y-118906472D01*
X204079657Y-118906472D01*
G37*
G36*
X133467657Y-118906472D02*
X133667842Y-118989391D01*
X133848013Y-119109778D01*
X134001222Y-119262987D01*
X134121609Y-119443158D01*
X134204528Y-119643343D01*
X134246800Y-119855858D01*
X134246800Y-120072542D01*
X134204528Y-120285057D01*
X134121609Y-120485242D01*
X134001222Y-120665413D01*
X133848013Y-120818622D01*
X133667842Y-120939009D01*
X133467657Y-121021928D01*
X133255142Y-121064200D01*
X133038458Y-121064200D01*
X132825943Y-121021928D01*
X132625758Y-120939009D01*
X132445587Y-120818622D01*
X132292378Y-120665413D01*
X132171991Y-120485242D01*
X132089072Y-120285057D01*
X132046800Y-120072542D01*
X132046800Y-119855858D01*
X132089072Y-119643343D01*
X132171991Y-119443158D01*
X132292378Y-119262987D01*
X132445587Y-119109778D01*
X132625758Y-118989391D01*
X132825943Y-118906472D01*
X133038458Y-118864200D01*
X133255142Y-118864200D01*
X133467657Y-118906472D01*
X133467657Y-118906472D01*
G37*
G36*
X140071657Y-118906472D02*
X140271842Y-118989391D01*
X140452013Y-119109778D01*
X140605222Y-119262987D01*
X140725609Y-119443158D01*
X140808528Y-119643343D01*
X140850800Y-119855858D01*
X140850800Y-120072542D01*
X140808528Y-120285057D01*
X140725609Y-120485242D01*
X140605222Y-120665413D01*
X140452013Y-120818622D01*
X140271842Y-120939009D01*
X140071657Y-121021928D01*
X139859142Y-121064200D01*
X139642458Y-121064200D01*
X139429943Y-121021928D01*
X139229758Y-120939009D01*
X139049587Y-120818622D01*
X138896378Y-120665413D01*
X138775991Y-120485242D01*
X138693072Y-120285057D01*
X138650800Y-120072542D01*
X138650800Y-119855858D01*
X138693072Y-119643343D01*
X138775991Y-119443158D01*
X138896378Y-119262987D01*
X139049587Y-119109778D01*
X139229758Y-118989391D01*
X139429943Y-118906472D01*
X139642458Y-118864200D01*
X139859142Y-118864200D01*
X140071657Y-118906472D01*
X140071657Y-118906472D01*
G37*
G36*
X146675657Y-118906472D02*
X146875842Y-118989391D01*
X147056013Y-119109778D01*
X147209222Y-119262987D01*
X147329609Y-119443158D01*
X147412528Y-119643343D01*
X147454800Y-119855858D01*
X147454800Y-120072542D01*
X147412528Y-120285057D01*
X147329609Y-120485242D01*
X147209222Y-120665413D01*
X147056013Y-120818622D01*
X146875842Y-120939009D01*
X146675657Y-121021928D01*
X146463142Y-121064200D01*
X146246458Y-121064200D01*
X146033943Y-121021928D01*
X145833758Y-120939009D01*
X145653587Y-120818622D01*
X145500378Y-120665413D01*
X145379991Y-120485242D01*
X145297072Y-120285057D01*
X145254800Y-120072542D01*
X145254800Y-119855858D01*
X145297072Y-119643343D01*
X145379991Y-119443158D01*
X145500378Y-119262987D01*
X145653587Y-119109778D01*
X145833758Y-118989391D01*
X146033943Y-118906472D01*
X146246458Y-118864200D01*
X146463142Y-118864200D01*
X146675657Y-118906472D01*
X146675657Y-118906472D01*
G37*
G36*
X153279657Y-118906472D02*
X153479842Y-118989391D01*
X153660013Y-119109778D01*
X153813222Y-119262987D01*
X153933609Y-119443158D01*
X154016528Y-119643343D01*
X154058800Y-119855858D01*
X154058800Y-120072542D01*
X154016528Y-120285057D01*
X153933609Y-120485242D01*
X153813222Y-120665413D01*
X153660013Y-120818622D01*
X153479842Y-120939009D01*
X153279657Y-121021928D01*
X153067142Y-121064200D01*
X152850458Y-121064200D01*
X152637943Y-121021928D01*
X152437758Y-120939009D01*
X152257587Y-120818622D01*
X152104378Y-120665413D01*
X151983991Y-120485242D01*
X151901072Y-120285057D01*
X151858800Y-120072542D01*
X151858800Y-119855858D01*
X151901072Y-119643343D01*
X151983991Y-119443158D01*
X152104378Y-119262987D01*
X152257587Y-119109778D01*
X152437758Y-118989391D01*
X152637943Y-118906472D01*
X152850458Y-118864200D01*
X153067142Y-118864200D01*
X153279657Y-118906472D01*
X153279657Y-118906472D01*
G37*
G36*
X159883657Y-118906472D02*
X160083842Y-118989391D01*
X160264013Y-119109778D01*
X160417222Y-119262987D01*
X160537609Y-119443158D01*
X160620528Y-119643343D01*
X160662800Y-119855858D01*
X160662800Y-120072542D01*
X160620528Y-120285057D01*
X160537609Y-120485242D01*
X160417222Y-120665413D01*
X160264013Y-120818622D01*
X160083842Y-120939009D01*
X159883657Y-121021928D01*
X159671142Y-121064200D01*
X159454458Y-121064200D01*
X159241943Y-121021928D01*
X159041758Y-120939009D01*
X158861587Y-120818622D01*
X158708378Y-120665413D01*
X158587991Y-120485242D01*
X158505072Y-120285057D01*
X158462800Y-120072542D01*
X158462800Y-119855858D01*
X158505072Y-119643343D01*
X158587991Y-119443158D01*
X158708378Y-119262987D01*
X158861587Y-119109778D01*
X159041758Y-118989391D01*
X159241943Y-118906472D01*
X159454458Y-118864200D01*
X159671142Y-118864200D01*
X159883657Y-118906472D01*
X159883657Y-118906472D01*
G37*
G36*
X197475657Y-118906472D02*
X197675842Y-118989391D01*
X197856013Y-119109778D01*
X198009222Y-119262987D01*
X198129609Y-119443158D01*
X198212528Y-119643343D01*
X198254800Y-119855858D01*
X198254800Y-120072542D01*
X198212528Y-120285057D01*
X198129609Y-120485242D01*
X198009222Y-120665413D01*
X197856013Y-120818622D01*
X197675842Y-120939009D01*
X197475657Y-121021928D01*
X197263142Y-121064200D01*
X197046458Y-121064200D01*
X196833943Y-121021928D01*
X196633758Y-120939009D01*
X196453587Y-120818622D01*
X196300378Y-120665413D01*
X196179991Y-120485242D01*
X196097072Y-120285057D01*
X196054800Y-120072542D01*
X196054800Y-119855858D01*
X196097072Y-119643343D01*
X196179991Y-119443158D01*
X196300378Y-119262987D01*
X196453587Y-119109778D01*
X196633758Y-118989391D01*
X196833943Y-118906472D01*
X197046458Y-118864200D01*
X197263142Y-118864200D01*
X197475657Y-118906472D01*
X197475657Y-118906472D01*
G37*
G36*
X210683657Y-118906472D02*
X210883842Y-118989391D01*
X211064013Y-119109778D01*
X211217222Y-119262987D01*
X211337609Y-119443158D01*
X211420528Y-119643343D01*
X211462800Y-119855858D01*
X211462800Y-120072542D01*
X211420528Y-120285057D01*
X211337609Y-120485242D01*
X211217222Y-120665413D01*
X211064013Y-120818622D01*
X210883842Y-120939009D01*
X210683657Y-121021928D01*
X210471142Y-121064200D01*
X210254458Y-121064200D01*
X210041943Y-121021928D01*
X209841758Y-120939009D01*
X209661587Y-120818622D01*
X209508378Y-120665413D01*
X209387991Y-120485242D01*
X209305072Y-120285057D01*
X209262800Y-120072542D01*
X209262800Y-119855858D01*
X209305072Y-119643343D01*
X209387991Y-119443158D01*
X209508378Y-119262987D01*
X209661587Y-119109778D01*
X209841758Y-118989391D01*
X210041943Y-118906472D01*
X210254458Y-118864200D01*
X210471142Y-118864200D01*
X210683657Y-118906472D01*
X210683657Y-118906472D01*
G37*
G36*
X126863657Y-118906472D02*
X127063842Y-118989391D01*
X127244013Y-119109778D01*
X127397222Y-119262987D01*
X127517609Y-119443158D01*
X127600528Y-119643343D01*
X127642800Y-119855858D01*
X127642800Y-120072542D01*
X127600528Y-120285057D01*
X127517609Y-120485242D01*
X127397222Y-120665413D01*
X127244013Y-120818622D01*
X127063842Y-120939009D01*
X126863657Y-121021928D01*
X126651142Y-121064200D01*
X126434458Y-121064200D01*
X126221943Y-121021928D01*
X126021758Y-120939009D01*
X125841587Y-120818622D01*
X125688378Y-120665413D01*
X125567991Y-120485242D01*
X125485072Y-120285057D01*
X125442800Y-120072542D01*
X125442800Y-119855858D01*
X125485072Y-119643343D01*
X125567991Y-119443158D01*
X125688378Y-119262987D01*
X125841587Y-119109778D01*
X126021758Y-118989391D01*
X126221943Y-118906472D01*
X126434458Y-118864200D01*
X126651142Y-118864200D01*
X126863657Y-118906472D01*
X126863657Y-118906472D01*
G37*
G36*
X139876688Y-112238470D02*
X140057074Y-112274350D01*
X140248162Y-112353502D01*
X140420136Y-112468411D01*
X140566389Y-112614664D01*
X140681298Y-112786638D01*
X140760450Y-112977726D01*
X140800800Y-113180584D01*
X140800800Y-113387416D01*
X140760450Y-113590274D01*
X140681298Y-113781362D01*
X140566389Y-113953336D01*
X140420136Y-114099589D01*
X140248162Y-114214498D01*
X140057074Y-114293650D01*
X139876688Y-114329530D01*
X139854217Y-114334000D01*
X139647383Y-114334000D01*
X139624912Y-114329530D01*
X139444526Y-114293650D01*
X139253438Y-114214498D01*
X139081464Y-114099589D01*
X138935211Y-113953336D01*
X138820302Y-113781362D01*
X138741150Y-113590274D01*
X138700800Y-113387416D01*
X138700800Y-113180584D01*
X138741150Y-112977726D01*
X138820302Y-112786638D01*
X138935211Y-112614664D01*
X139081464Y-112468411D01*
X139253438Y-112353502D01*
X139444526Y-112274350D01*
X139624912Y-112238470D01*
X139647383Y-112234000D01*
X139854217Y-112234000D01*
X139876688Y-112238470D01*
X139876688Y-112238470D01*
G37*
G36*
X139876688Y-109698470D02*
X140057074Y-109734350D01*
X140248162Y-109813502D01*
X140420136Y-109928411D01*
X140566389Y-110074664D01*
X140681298Y-110246638D01*
X140760450Y-110437726D01*
X140800800Y-110640584D01*
X140800800Y-110847416D01*
X140760450Y-111050274D01*
X140681298Y-111241362D01*
X140566389Y-111413336D01*
X140420136Y-111559589D01*
X140248162Y-111674498D01*
X140057074Y-111753650D01*
X139876688Y-111789530D01*
X139854217Y-111794000D01*
X139647383Y-111794000D01*
X139624912Y-111789530D01*
X139444526Y-111753650D01*
X139253438Y-111674498D01*
X139081464Y-111559589D01*
X138935211Y-111413336D01*
X138820302Y-111241362D01*
X138741150Y-111050274D01*
X138700800Y-110847416D01*
X138700800Y-110640584D01*
X138741150Y-110437726D01*
X138820302Y-110246638D01*
X138935211Y-110074664D01*
X139081464Y-109928411D01*
X139253438Y-109813502D01*
X139444526Y-109734350D01*
X139624912Y-109698470D01*
X139647383Y-109694000D01*
X139854217Y-109694000D01*
X139876688Y-109698470D01*
X139876688Y-109698470D01*
G37*
G36*
X190676688Y-109698470D02*
X190857074Y-109734350D01*
X191048162Y-109813502D01*
X191220136Y-109928411D01*
X191366389Y-110074664D01*
X191481298Y-110246638D01*
X191560450Y-110437726D01*
X191600800Y-110640584D01*
X191600800Y-110847416D01*
X191560450Y-111050274D01*
X191481298Y-111241362D01*
X191366389Y-111413336D01*
X191220136Y-111559589D01*
X191048162Y-111674498D01*
X190857074Y-111753650D01*
X190676688Y-111789530D01*
X190654217Y-111794000D01*
X190447383Y-111794000D01*
X190424912Y-111789530D01*
X190244526Y-111753650D01*
X190053438Y-111674498D01*
X189881464Y-111559589D01*
X189735211Y-111413336D01*
X189620302Y-111241362D01*
X189541150Y-111050274D01*
X189500800Y-110847416D01*
X189500800Y-110640584D01*
X189541150Y-110437726D01*
X189620302Y-110246638D01*
X189735211Y-110074664D01*
X189881464Y-109928411D01*
X190053438Y-109813502D01*
X190244526Y-109734350D01*
X190424912Y-109698470D01*
X190447383Y-109694000D01*
X190654217Y-109694000D01*
X190676688Y-109698470D01*
X190676688Y-109698470D01*
G37*
G36*
X190676688Y-107158470D02*
X190857074Y-107194350D01*
X191048162Y-107273502D01*
X191220136Y-107388411D01*
X191366389Y-107534664D01*
X191481298Y-107706638D01*
X191560450Y-107897726D01*
X191600800Y-108100584D01*
X191600800Y-108307416D01*
X191560450Y-108510274D01*
X191481298Y-108701362D01*
X191366389Y-108873336D01*
X191220136Y-109019589D01*
X191048162Y-109134498D01*
X190857074Y-109213650D01*
X190676688Y-109249530D01*
X190654217Y-109254000D01*
X190447383Y-109254000D01*
X190424912Y-109249530D01*
X190244526Y-109213650D01*
X190053438Y-109134498D01*
X189881464Y-109019589D01*
X189735211Y-108873336D01*
X189620302Y-108701362D01*
X189541150Y-108510274D01*
X189500800Y-108307416D01*
X189500800Y-108100584D01*
X189541150Y-107897726D01*
X189620302Y-107706638D01*
X189735211Y-107534664D01*
X189881464Y-107388411D01*
X190053438Y-107273502D01*
X190244526Y-107194350D01*
X190424912Y-107158470D01*
X190447383Y-107154000D01*
X190654217Y-107154000D01*
X190676688Y-107158470D01*
X190676688Y-107158470D01*
G37*
G36*
X139876688Y-107158470D02*
X140057074Y-107194350D01*
X140248162Y-107273502D01*
X140420136Y-107388411D01*
X140566389Y-107534664D01*
X140681298Y-107706638D01*
X140760450Y-107897726D01*
X140800800Y-108100584D01*
X140800800Y-108307416D01*
X140760450Y-108510274D01*
X140681298Y-108701362D01*
X140566389Y-108873336D01*
X140420136Y-109019589D01*
X140248162Y-109134498D01*
X140057074Y-109213650D01*
X139876688Y-109249530D01*
X139854217Y-109254000D01*
X139647383Y-109254000D01*
X139624912Y-109249530D01*
X139444526Y-109213650D01*
X139253438Y-109134498D01*
X139081464Y-109019589D01*
X138935211Y-108873336D01*
X138820302Y-108701362D01*
X138741150Y-108510274D01*
X138700800Y-108307416D01*
X138700800Y-108100584D01*
X138741150Y-107897726D01*
X138820302Y-107706638D01*
X138935211Y-107534664D01*
X139081464Y-107388411D01*
X139253438Y-107273502D01*
X139444526Y-107194350D01*
X139624912Y-107158470D01*
X139647383Y-107154000D01*
X139854217Y-107154000D01*
X139876688Y-107158470D01*
X139876688Y-107158470D01*
G37*
G36*
X191650800Y-105824200D02*
X189450800Y-105824200D01*
X189450800Y-103624200D01*
X191650800Y-103624200D01*
X191650800Y-105824200D01*
X191650800Y-105824200D01*
G37*
G36*
X198254800Y-105824200D02*
X196054800Y-105824200D01*
X196054800Y-103624200D01*
X198254800Y-103624200D01*
X198254800Y-105824200D01*
X198254800Y-105824200D01*
G37*
G36*
X185046800Y-105824200D02*
X182846800Y-105824200D01*
X182846800Y-103624200D01*
X185046800Y-103624200D01*
X185046800Y-105824200D01*
X185046800Y-105824200D01*
G37*
G36*
X204858800Y-105824200D02*
X202658800Y-105824200D01*
X202658800Y-103624200D01*
X204858800Y-103624200D01*
X204858800Y-105824200D01*
X204858800Y-105824200D01*
G37*
G36*
X211462800Y-105824200D02*
X209262800Y-105824200D01*
X209262800Y-103624200D01*
X211462800Y-103624200D01*
X211462800Y-105824200D01*
X211462800Y-105824200D01*
G37*
G36*
X160662800Y-105824200D02*
X158462800Y-105824200D01*
X158462800Y-103624200D01*
X160662800Y-103624200D01*
X160662800Y-105824200D01*
X160662800Y-105824200D01*
G37*
G36*
X178442800Y-105824200D02*
X176242800Y-105824200D01*
X176242800Y-103624200D01*
X178442800Y-103624200D01*
X178442800Y-105824200D01*
X178442800Y-105824200D01*
G37*
G36*
X140850800Y-105824200D02*
X138650800Y-105824200D01*
X138650800Y-103624200D01*
X140850800Y-103624200D01*
X140850800Y-105824200D01*
X140850800Y-105824200D01*
G37*
G36*
X134246800Y-105824200D02*
X132046800Y-105824200D01*
X132046800Y-103624200D01*
X134246800Y-103624200D01*
X134246800Y-105824200D01*
X134246800Y-105824200D01*
G37*
G36*
X154058800Y-105824200D02*
X151858800Y-105824200D01*
X151858800Y-103624200D01*
X154058800Y-103624200D01*
X154058800Y-105824200D01*
X154058800Y-105824200D01*
G37*
G36*
X147454800Y-105824200D02*
X145254800Y-105824200D01*
X145254800Y-103624200D01*
X147454800Y-103624200D01*
X147454800Y-105824200D01*
X147454800Y-105824200D01*
G37*
G36*
X146675657Y-101126472D02*
X146875842Y-101209391D01*
X147056013Y-101329778D01*
X147209222Y-101482987D01*
X147329609Y-101663158D01*
X147412528Y-101863343D01*
X147454800Y-102075858D01*
X147454800Y-102292542D01*
X147412528Y-102505057D01*
X147329609Y-102705242D01*
X147209222Y-102885413D01*
X147056013Y-103038622D01*
X146875842Y-103159009D01*
X146675657Y-103241928D01*
X146463142Y-103284200D01*
X146246458Y-103284200D01*
X146033943Y-103241928D01*
X145833758Y-103159009D01*
X145653587Y-103038622D01*
X145500378Y-102885413D01*
X145379991Y-102705242D01*
X145297072Y-102505057D01*
X145254800Y-102292542D01*
X145254800Y-102075858D01*
X145297072Y-101863343D01*
X145379991Y-101663158D01*
X145500378Y-101482987D01*
X145653587Y-101329778D01*
X145833758Y-101209391D01*
X146033943Y-101126472D01*
X146246458Y-101084200D01*
X146463142Y-101084200D01*
X146675657Y-101126472D01*
X146675657Y-101126472D01*
G37*
G36*
X184267657Y-101126472D02*
X184467842Y-101209391D01*
X184648013Y-101329778D01*
X184801222Y-101482987D01*
X184921609Y-101663158D01*
X185004528Y-101863343D01*
X185046800Y-102075858D01*
X185046800Y-102292542D01*
X185004528Y-102505057D01*
X184921609Y-102705242D01*
X184801222Y-102885413D01*
X184648013Y-103038622D01*
X184467842Y-103159009D01*
X184267657Y-103241928D01*
X184055142Y-103284200D01*
X183838458Y-103284200D01*
X183625943Y-103241928D01*
X183425758Y-103159009D01*
X183245587Y-103038622D01*
X183092378Y-102885413D01*
X182971991Y-102705242D01*
X182889072Y-102505057D01*
X182846800Y-102292542D01*
X182846800Y-102075858D01*
X182889072Y-101863343D01*
X182971991Y-101663158D01*
X183092378Y-101482987D01*
X183245587Y-101329778D01*
X183425758Y-101209391D01*
X183625943Y-101126472D01*
X183838458Y-101084200D01*
X184055142Y-101084200D01*
X184267657Y-101126472D01*
X184267657Y-101126472D01*
G37*
G36*
X133467657Y-101126472D02*
X133667842Y-101209391D01*
X133848013Y-101329778D01*
X134001222Y-101482987D01*
X134121609Y-101663158D01*
X134204528Y-101863343D01*
X134246800Y-102075858D01*
X134246800Y-102292542D01*
X134204528Y-102505057D01*
X134121609Y-102705242D01*
X134001222Y-102885413D01*
X133848013Y-103038622D01*
X133667842Y-103159009D01*
X133467657Y-103241928D01*
X133255142Y-103284200D01*
X133038458Y-103284200D01*
X132825943Y-103241928D01*
X132625758Y-103159009D01*
X132445587Y-103038622D01*
X132292378Y-102885413D01*
X132171991Y-102705242D01*
X132089072Y-102505057D01*
X132046800Y-102292542D01*
X132046800Y-102075858D01*
X132089072Y-101863343D01*
X132171991Y-101663158D01*
X132292378Y-101482987D01*
X132445587Y-101329778D01*
X132625758Y-101209391D01*
X132825943Y-101126472D01*
X133038458Y-101084200D01*
X133255142Y-101084200D01*
X133467657Y-101126472D01*
X133467657Y-101126472D01*
G37*
G36*
X140071657Y-101126472D02*
X140271842Y-101209391D01*
X140452013Y-101329778D01*
X140605222Y-101482987D01*
X140725609Y-101663158D01*
X140808528Y-101863343D01*
X140850800Y-102075858D01*
X140850800Y-102292542D01*
X140808528Y-102505057D01*
X140725609Y-102705242D01*
X140605222Y-102885413D01*
X140452013Y-103038622D01*
X140271842Y-103159009D01*
X140071657Y-103241928D01*
X139859142Y-103284200D01*
X139642458Y-103284200D01*
X139429943Y-103241928D01*
X139229758Y-103159009D01*
X139049587Y-103038622D01*
X138896378Y-102885413D01*
X138775991Y-102705242D01*
X138693072Y-102505057D01*
X138650800Y-102292542D01*
X138650800Y-102075858D01*
X138693072Y-101863343D01*
X138775991Y-101663158D01*
X138896378Y-101482987D01*
X139049587Y-101329778D01*
X139229758Y-101209391D01*
X139429943Y-101126472D01*
X139642458Y-101084200D01*
X139859142Y-101084200D01*
X140071657Y-101126472D01*
X140071657Y-101126472D01*
G37*
G36*
X153279657Y-101126472D02*
X153479842Y-101209391D01*
X153660013Y-101329778D01*
X153813222Y-101482987D01*
X153933609Y-101663158D01*
X154016528Y-101863343D01*
X154058800Y-102075858D01*
X154058800Y-102292542D01*
X154016528Y-102505057D01*
X153933609Y-102705242D01*
X153813222Y-102885413D01*
X153660013Y-103038622D01*
X153479842Y-103159009D01*
X153279657Y-103241928D01*
X153067142Y-103284200D01*
X152850458Y-103284200D01*
X152637943Y-103241928D01*
X152437758Y-103159009D01*
X152257587Y-103038622D01*
X152104378Y-102885413D01*
X151983991Y-102705242D01*
X151901072Y-102505057D01*
X151858800Y-102292542D01*
X151858800Y-102075858D01*
X151901072Y-101863343D01*
X151983991Y-101663158D01*
X152104378Y-101482987D01*
X152257587Y-101329778D01*
X152437758Y-101209391D01*
X152637943Y-101126472D01*
X152850458Y-101084200D01*
X153067142Y-101084200D01*
X153279657Y-101126472D01*
X153279657Y-101126472D01*
G37*
G36*
X159883657Y-101126472D02*
X160083842Y-101209391D01*
X160264013Y-101329778D01*
X160417222Y-101482987D01*
X160537609Y-101663158D01*
X160620528Y-101863343D01*
X160662800Y-102075858D01*
X160662800Y-102292542D01*
X160620528Y-102505057D01*
X160537609Y-102705242D01*
X160417222Y-102885413D01*
X160264013Y-103038622D01*
X160083842Y-103159009D01*
X159883657Y-103241928D01*
X159671142Y-103284200D01*
X159454458Y-103284200D01*
X159241943Y-103241928D01*
X159041758Y-103159009D01*
X158861587Y-103038622D01*
X158708378Y-102885413D01*
X158587991Y-102705242D01*
X158505072Y-102505057D01*
X158462800Y-102292542D01*
X158462800Y-102075858D01*
X158505072Y-101863343D01*
X158587991Y-101663158D01*
X158708378Y-101482987D01*
X158861587Y-101329778D01*
X159041758Y-101209391D01*
X159241943Y-101126472D01*
X159454458Y-101084200D01*
X159671142Y-101084200D01*
X159883657Y-101126472D01*
X159883657Y-101126472D01*
G37*
G36*
X210683657Y-101126472D02*
X210883842Y-101209391D01*
X211064013Y-101329778D01*
X211217222Y-101482987D01*
X211337609Y-101663158D01*
X211420528Y-101863343D01*
X211462800Y-102075858D01*
X211462800Y-102292542D01*
X211420528Y-102505057D01*
X211337609Y-102705242D01*
X211217222Y-102885413D01*
X211064013Y-103038622D01*
X210883842Y-103159009D01*
X210683657Y-103241928D01*
X210471142Y-103284200D01*
X210254458Y-103284200D01*
X210041943Y-103241928D01*
X209841758Y-103159009D01*
X209661587Y-103038622D01*
X209508378Y-102885413D01*
X209387991Y-102705242D01*
X209305072Y-102505057D01*
X209262800Y-102292542D01*
X209262800Y-102075858D01*
X209305072Y-101863343D01*
X209387991Y-101663158D01*
X209508378Y-101482987D01*
X209661587Y-101329778D01*
X209841758Y-101209391D01*
X210041943Y-101126472D01*
X210254458Y-101084200D01*
X210471142Y-101084200D01*
X210683657Y-101126472D01*
X210683657Y-101126472D01*
G37*
G36*
X204079657Y-101126472D02*
X204279842Y-101209391D01*
X204460013Y-101329778D01*
X204613222Y-101482987D01*
X204733609Y-101663158D01*
X204816528Y-101863343D01*
X204858800Y-102075858D01*
X204858800Y-102292542D01*
X204816528Y-102505057D01*
X204733609Y-102705242D01*
X204613222Y-102885413D01*
X204460013Y-103038622D01*
X204279842Y-103159009D01*
X204079657Y-103241928D01*
X203867142Y-103284200D01*
X203650458Y-103284200D01*
X203437943Y-103241928D01*
X203237758Y-103159009D01*
X203057587Y-103038622D01*
X202904378Y-102885413D01*
X202783991Y-102705242D01*
X202701072Y-102505057D01*
X202658800Y-102292542D01*
X202658800Y-102075858D01*
X202701072Y-101863343D01*
X202783991Y-101663158D01*
X202904378Y-101482987D01*
X203057587Y-101329778D01*
X203237758Y-101209391D01*
X203437943Y-101126472D01*
X203650458Y-101084200D01*
X203867142Y-101084200D01*
X204079657Y-101126472D01*
X204079657Y-101126472D01*
G37*
G36*
X177663657Y-101126472D02*
X177863842Y-101209391D01*
X178044013Y-101329778D01*
X178197222Y-101482987D01*
X178317609Y-101663158D01*
X178400528Y-101863343D01*
X178442800Y-102075858D01*
X178442800Y-102292542D01*
X178400528Y-102505057D01*
X178317609Y-102705242D01*
X178197222Y-102885413D01*
X178044013Y-103038622D01*
X177863842Y-103159009D01*
X177663657Y-103241928D01*
X177451142Y-103284200D01*
X177234458Y-103284200D01*
X177021943Y-103241928D01*
X176821758Y-103159009D01*
X176641587Y-103038622D01*
X176488378Y-102885413D01*
X176367991Y-102705242D01*
X176285072Y-102505057D01*
X176242800Y-102292542D01*
X176242800Y-102075858D01*
X176285072Y-101863343D01*
X176367991Y-101663158D01*
X176488378Y-101482987D01*
X176641587Y-101329778D01*
X176821758Y-101209391D01*
X177021943Y-101126472D01*
X177234458Y-101084200D01*
X177451142Y-101084200D01*
X177663657Y-101126472D01*
X177663657Y-101126472D01*
G37*
G36*
X197475657Y-101126472D02*
X197675842Y-101209391D01*
X197856013Y-101329778D01*
X198009222Y-101482987D01*
X198129609Y-101663158D01*
X198212528Y-101863343D01*
X198254800Y-102075858D01*
X198254800Y-102292542D01*
X198212528Y-102505057D01*
X198129609Y-102705242D01*
X198009222Y-102885413D01*
X197856013Y-103038622D01*
X197675842Y-103159009D01*
X197475657Y-103241928D01*
X197263142Y-103284200D01*
X197046458Y-103284200D01*
X196833943Y-103241928D01*
X196633758Y-103159009D01*
X196453587Y-103038622D01*
X196300378Y-102885413D01*
X196179991Y-102705242D01*
X196097072Y-102505057D01*
X196054800Y-102292542D01*
X196054800Y-102075858D01*
X196097072Y-101863343D01*
X196179991Y-101663158D01*
X196300378Y-101482987D01*
X196453587Y-101329778D01*
X196633758Y-101209391D01*
X196833943Y-101126472D01*
X197046458Y-101084200D01*
X197263142Y-101084200D01*
X197475657Y-101126472D01*
X197475657Y-101126472D01*
G37*
G36*
X190871657Y-101126472D02*
X191071842Y-101209391D01*
X191252013Y-101329778D01*
X191405222Y-101482987D01*
X191525609Y-101663158D01*
X191608528Y-101863343D01*
X191650800Y-102075858D01*
X191650800Y-102292542D01*
X191608528Y-102505057D01*
X191525609Y-102705242D01*
X191405222Y-102885413D01*
X191252013Y-103038622D01*
X191071842Y-103159009D01*
X190871657Y-103241928D01*
X190659142Y-103284200D01*
X190442458Y-103284200D01*
X190229943Y-103241928D01*
X190029758Y-103159009D01*
X189849587Y-103038622D01*
X189696378Y-102885413D01*
X189575991Y-102705242D01*
X189493072Y-102505057D01*
X189450800Y-102292542D01*
X189450800Y-102075858D01*
X189493072Y-101863343D01*
X189575991Y-101663158D01*
X189696378Y-101482987D01*
X189849587Y-101329778D01*
X190029758Y-101209391D01*
X190229943Y-101126472D01*
X190442458Y-101084200D01*
X190659142Y-101084200D01*
X190871657Y-101126472D01*
X190871657Y-101126472D01*
G37*
G36*
X160662800Y-96680200D02*
X158462800Y-96680200D01*
X158462800Y-94480200D01*
X160662800Y-94480200D01*
X160662800Y-96680200D01*
X160662800Y-96680200D01*
G37*
G36*
X204858800Y-96680200D02*
X202658800Y-96680200D01*
X202658800Y-94480200D01*
X204858800Y-94480200D01*
X204858800Y-96680200D01*
X204858800Y-96680200D01*
G37*
G36*
X211462800Y-96680200D02*
X209262800Y-96680200D01*
X209262800Y-94480200D01*
X211462800Y-94480200D01*
X211462800Y-96680200D01*
X211462800Y-96680200D01*
G37*
G36*
X185046800Y-96680200D02*
X182846800Y-96680200D01*
X182846800Y-94480200D01*
X185046800Y-94480200D01*
X185046800Y-96680200D01*
X185046800Y-96680200D01*
G37*
G36*
X178442800Y-96680200D02*
X176242800Y-96680200D01*
X176242800Y-94480200D01*
X178442800Y-94480200D01*
X178442800Y-96680200D01*
X178442800Y-96680200D01*
G37*
G36*
X198254800Y-96680200D02*
X196054800Y-96680200D01*
X196054800Y-94480200D01*
X198254800Y-94480200D01*
X198254800Y-96680200D01*
X198254800Y-96680200D01*
G37*
G36*
X140850800Y-96680200D02*
X138650800Y-96680200D01*
X138650800Y-94480200D01*
X140850800Y-94480200D01*
X140850800Y-96680200D01*
X140850800Y-96680200D01*
G37*
G36*
X147454800Y-96680200D02*
X145254800Y-96680200D01*
X145254800Y-94480200D01*
X147454800Y-94480200D01*
X147454800Y-96680200D01*
X147454800Y-96680200D01*
G37*
G36*
X154058800Y-96680200D02*
X151858800Y-96680200D01*
X151858800Y-94480200D01*
X154058800Y-94480200D01*
X154058800Y-96680200D01*
X154058800Y-96680200D01*
G37*
G36*
X191650800Y-96680200D02*
X189450800Y-96680200D01*
X189450800Y-94480200D01*
X191650800Y-94480200D01*
X191650800Y-96680200D01*
X191650800Y-96680200D01*
G37*
G36*
X177663657Y-91982472D02*
X177863842Y-92065391D01*
X178044013Y-92185778D01*
X178197222Y-92338987D01*
X178317609Y-92519158D01*
X178400528Y-92719343D01*
X178442800Y-92931858D01*
X178442800Y-93148542D01*
X178400528Y-93361057D01*
X178317609Y-93561242D01*
X178197222Y-93741413D01*
X178044013Y-93894622D01*
X177863842Y-94015009D01*
X177663657Y-94097928D01*
X177451142Y-94140200D01*
X177234458Y-94140200D01*
X177021943Y-94097928D01*
X176821758Y-94015009D01*
X176641587Y-93894622D01*
X176488378Y-93741413D01*
X176367991Y-93561242D01*
X176285072Y-93361057D01*
X176242800Y-93148542D01*
X176242800Y-92931858D01*
X176285072Y-92719343D01*
X176367991Y-92519158D01*
X176488378Y-92338987D01*
X176641587Y-92185778D01*
X176821758Y-92065391D01*
X177021943Y-91982472D01*
X177234458Y-91940200D01*
X177451142Y-91940200D01*
X177663657Y-91982472D01*
X177663657Y-91982472D01*
G37*
G36*
X210683657Y-91982472D02*
X210883842Y-92065391D01*
X211064013Y-92185778D01*
X211217222Y-92338987D01*
X211337609Y-92519158D01*
X211420528Y-92719343D01*
X211462800Y-92931858D01*
X211462800Y-93148542D01*
X211420528Y-93361057D01*
X211337609Y-93561242D01*
X211217222Y-93741413D01*
X211064013Y-93894622D01*
X210883842Y-94015009D01*
X210683657Y-94097928D01*
X210471142Y-94140200D01*
X210254458Y-94140200D01*
X210041943Y-94097928D01*
X209841758Y-94015009D01*
X209661587Y-93894622D01*
X209508378Y-93741413D01*
X209387991Y-93561242D01*
X209305072Y-93361057D01*
X209262800Y-93148542D01*
X209262800Y-92931858D01*
X209305072Y-92719343D01*
X209387991Y-92519158D01*
X209508378Y-92338987D01*
X209661587Y-92185778D01*
X209841758Y-92065391D01*
X210041943Y-91982472D01*
X210254458Y-91940200D01*
X210471142Y-91940200D01*
X210683657Y-91982472D01*
X210683657Y-91982472D01*
G37*
G36*
X190871657Y-91982472D02*
X191071842Y-92065391D01*
X191252013Y-92185778D01*
X191405222Y-92338987D01*
X191525609Y-92519158D01*
X191608528Y-92719343D01*
X191650800Y-92931858D01*
X191650800Y-93148542D01*
X191608528Y-93361057D01*
X191525609Y-93561242D01*
X191405222Y-93741413D01*
X191252013Y-93894622D01*
X191071842Y-94015009D01*
X190871657Y-94097928D01*
X190659142Y-94140200D01*
X190442458Y-94140200D01*
X190229943Y-94097928D01*
X190029758Y-94015009D01*
X189849587Y-93894622D01*
X189696378Y-93741413D01*
X189575991Y-93561242D01*
X189493072Y-93361057D01*
X189450800Y-93148542D01*
X189450800Y-92931858D01*
X189493072Y-92719343D01*
X189575991Y-92519158D01*
X189696378Y-92338987D01*
X189849587Y-92185778D01*
X190029758Y-92065391D01*
X190229943Y-91982472D01*
X190442458Y-91940200D01*
X190659142Y-91940200D01*
X190871657Y-91982472D01*
X190871657Y-91982472D01*
G37*
G36*
X204079657Y-91982472D02*
X204279842Y-92065391D01*
X204460013Y-92185778D01*
X204613222Y-92338987D01*
X204733609Y-92519158D01*
X204816528Y-92719343D01*
X204858800Y-92931858D01*
X204858800Y-93148542D01*
X204816528Y-93361057D01*
X204733609Y-93561242D01*
X204613222Y-93741413D01*
X204460013Y-93894622D01*
X204279842Y-94015009D01*
X204079657Y-94097928D01*
X203867142Y-94140200D01*
X203650458Y-94140200D01*
X203437943Y-94097928D01*
X203237758Y-94015009D01*
X203057587Y-93894622D01*
X202904378Y-93741413D01*
X202783991Y-93561242D01*
X202701072Y-93361057D01*
X202658800Y-93148542D01*
X202658800Y-92931858D01*
X202701072Y-92719343D01*
X202783991Y-92519158D01*
X202904378Y-92338987D01*
X203057587Y-92185778D01*
X203237758Y-92065391D01*
X203437943Y-91982472D01*
X203650458Y-91940200D01*
X203867142Y-91940200D01*
X204079657Y-91982472D01*
X204079657Y-91982472D01*
G37*
G36*
X146675657Y-91982472D02*
X146875842Y-92065391D01*
X147056013Y-92185778D01*
X147209222Y-92338987D01*
X147329609Y-92519158D01*
X147412528Y-92719343D01*
X147454800Y-92931858D01*
X147454800Y-93148542D01*
X147412528Y-93361057D01*
X147329609Y-93561242D01*
X147209222Y-93741413D01*
X147056013Y-93894622D01*
X146875842Y-94015009D01*
X146675657Y-94097928D01*
X146463142Y-94140200D01*
X146246458Y-94140200D01*
X146033943Y-94097928D01*
X145833758Y-94015009D01*
X145653587Y-93894622D01*
X145500378Y-93741413D01*
X145379991Y-93561242D01*
X145297072Y-93361057D01*
X145254800Y-93148542D01*
X145254800Y-92931858D01*
X145297072Y-92719343D01*
X145379991Y-92519158D01*
X145500378Y-92338987D01*
X145653587Y-92185778D01*
X145833758Y-92065391D01*
X146033943Y-91982472D01*
X146246458Y-91940200D01*
X146463142Y-91940200D01*
X146675657Y-91982472D01*
X146675657Y-91982472D01*
G37*
G36*
X153279657Y-91982472D02*
X153479842Y-92065391D01*
X153660013Y-92185778D01*
X153813222Y-92338987D01*
X153933609Y-92519158D01*
X154016528Y-92719343D01*
X154058800Y-92931858D01*
X154058800Y-93148542D01*
X154016528Y-93361057D01*
X153933609Y-93561242D01*
X153813222Y-93741413D01*
X153660013Y-93894622D01*
X153479842Y-94015009D01*
X153279657Y-94097928D01*
X153067142Y-94140200D01*
X152850458Y-94140200D01*
X152637943Y-94097928D01*
X152437758Y-94015009D01*
X152257587Y-93894622D01*
X152104378Y-93741413D01*
X151983991Y-93561242D01*
X151901072Y-93361057D01*
X151858800Y-93148542D01*
X151858800Y-92931858D01*
X151901072Y-92719343D01*
X151983991Y-92519158D01*
X152104378Y-92338987D01*
X152257587Y-92185778D01*
X152437758Y-92065391D01*
X152637943Y-91982472D01*
X152850458Y-91940200D01*
X153067142Y-91940200D01*
X153279657Y-91982472D01*
X153279657Y-91982472D01*
G37*
G36*
X140071657Y-91982472D02*
X140271842Y-92065391D01*
X140452013Y-92185778D01*
X140605222Y-92338987D01*
X140725609Y-92519158D01*
X140808528Y-92719343D01*
X140850800Y-92931858D01*
X140850800Y-93148542D01*
X140808528Y-93361057D01*
X140725609Y-93561242D01*
X140605222Y-93741413D01*
X140452013Y-93894622D01*
X140271842Y-94015009D01*
X140071657Y-94097928D01*
X139859142Y-94140200D01*
X139642458Y-94140200D01*
X139429943Y-94097928D01*
X139229758Y-94015009D01*
X139049587Y-93894622D01*
X138896378Y-93741413D01*
X138775991Y-93561242D01*
X138693072Y-93361057D01*
X138650800Y-93148542D01*
X138650800Y-92931858D01*
X138693072Y-92719343D01*
X138775991Y-92519158D01*
X138896378Y-92338987D01*
X139049587Y-92185778D01*
X139229758Y-92065391D01*
X139429943Y-91982472D01*
X139642458Y-91940200D01*
X139859142Y-91940200D01*
X140071657Y-91982472D01*
X140071657Y-91982472D01*
G37*
G36*
X159883657Y-91982472D02*
X160083842Y-92065391D01*
X160264013Y-92185778D01*
X160417222Y-92338987D01*
X160537609Y-92519158D01*
X160620528Y-92719343D01*
X160662800Y-92931858D01*
X160662800Y-93148542D01*
X160620528Y-93361057D01*
X160537609Y-93561242D01*
X160417222Y-93741413D01*
X160264013Y-93894622D01*
X160083842Y-94015009D01*
X159883657Y-94097928D01*
X159671142Y-94140200D01*
X159454458Y-94140200D01*
X159241943Y-94097928D01*
X159041758Y-94015009D01*
X158861587Y-93894622D01*
X158708378Y-93741413D01*
X158587991Y-93561242D01*
X158505072Y-93361057D01*
X158462800Y-93148542D01*
X158462800Y-92931858D01*
X158505072Y-92719343D01*
X158587991Y-92519158D01*
X158708378Y-92338987D01*
X158861587Y-92185778D01*
X159041758Y-92065391D01*
X159241943Y-91982472D01*
X159454458Y-91940200D01*
X159671142Y-91940200D01*
X159883657Y-91982472D01*
X159883657Y-91982472D01*
G37*
G36*
X197475657Y-91982472D02*
X197675842Y-92065391D01*
X197856013Y-92185778D01*
X198009222Y-92338987D01*
X198129609Y-92519158D01*
X198212528Y-92719343D01*
X198254800Y-92931858D01*
X198254800Y-93148542D01*
X198212528Y-93361057D01*
X198129609Y-93561242D01*
X198009222Y-93741413D01*
X197856013Y-93894622D01*
X197675842Y-94015009D01*
X197475657Y-94097928D01*
X197263142Y-94140200D01*
X197046458Y-94140200D01*
X196833943Y-94097928D01*
X196633758Y-94015009D01*
X196453587Y-93894622D01*
X196300378Y-93741413D01*
X196179991Y-93561242D01*
X196097072Y-93361057D01*
X196054800Y-93148542D01*
X196054800Y-92931858D01*
X196097072Y-92719343D01*
X196179991Y-92519158D01*
X196300378Y-92338987D01*
X196453587Y-92185778D01*
X196633758Y-92065391D01*
X196833943Y-91982472D01*
X197046458Y-91940200D01*
X197263142Y-91940200D01*
X197475657Y-91982472D01*
X197475657Y-91982472D01*
G37*
G36*
X184267657Y-91982472D02*
X184467842Y-92065391D01*
X184648013Y-92185778D01*
X184801222Y-92338987D01*
X184921609Y-92519158D01*
X185004528Y-92719343D01*
X185046800Y-92931858D01*
X185046800Y-93148542D01*
X185004528Y-93361057D01*
X184921609Y-93561242D01*
X184801222Y-93741413D01*
X184648013Y-93894622D01*
X184467842Y-94015009D01*
X184267657Y-94097928D01*
X184055142Y-94140200D01*
X183838458Y-94140200D01*
X183625943Y-94097928D01*
X183425758Y-94015009D01*
X183245587Y-93894622D01*
X183092378Y-93741413D01*
X182971991Y-93561242D01*
X182889072Y-93361057D01*
X182846800Y-93148542D01*
X182846800Y-92931858D01*
X182889072Y-92719343D01*
X182971991Y-92519158D01*
X183092378Y-92338987D01*
X183245587Y-92185778D01*
X183425758Y-92065391D01*
X183625943Y-91982472D01*
X183838458Y-91940200D01*
X184055142Y-91940200D01*
X184267657Y-91982472D01*
X184267657Y-91982472D01*
G37*
G36*
X121038800Y-87536200D02*
X118838800Y-87536200D01*
X118838800Y-85336200D01*
X121038800Y-85336200D01*
X121038800Y-87536200D01*
X121038800Y-87536200D01*
G37*
G36*
X127642800Y-87536200D02*
X125442800Y-87536200D01*
X125442800Y-85336200D01*
X127642800Y-85336200D01*
X127642800Y-87536200D01*
X127642800Y-87536200D01*
G37*
G36*
X185046800Y-87536200D02*
X182846800Y-87536200D01*
X182846800Y-85336200D01*
X185046800Y-85336200D01*
X185046800Y-87536200D01*
X185046800Y-87536200D01*
G37*
G36*
X191650800Y-87536200D02*
X189450800Y-87536200D01*
X189450800Y-85336200D01*
X191650800Y-85336200D01*
X191650800Y-87536200D01*
X191650800Y-87536200D01*
G37*
G36*
X211462800Y-87536200D02*
X209262800Y-87536200D01*
X209262800Y-85336200D01*
X211462800Y-85336200D01*
X211462800Y-87536200D01*
X211462800Y-87536200D01*
G37*
G36*
X204858800Y-87536200D02*
X202658800Y-87536200D01*
X202658800Y-85336200D01*
X204858800Y-85336200D01*
X204858800Y-87536200D01*
X204858800Y-87536200D01*
G37*
G36*
X154058800Y-87536200D02*
X151858800Y-87536200D01*
X151858800Y-85336200D01*
X154058800Y-85336200D01*
X154058800Y-87536200D01*
X154058800Y-87536200D01*
G37*
G36*
X147454800Y-87536200D02*
X145254800Y-87536200D01*
X145254800Y-85336200D01*
X147454800Y-85336200D01*
X147454800Y-87536200D01*
X147454800Y-87536200D01*
G37*
G36*
X140850800Y-87536200D02*
X138650800Y-87536200D01*
X138650800Y-85336200D01*
X140850800Y-85336200D01*
X140850800Y-87536200D01*
X140850800Y-87536200D01*
G37*
G36*
X134246800Y-87536200D02*
X132046800Y-87536200D01*
X132046800Y-85336200D01*
X134246800Y-85336200D01*
X134246800Y-87536200D01*
X134246800Y-87536200D01*
G37*
G36*
X198254800Y-87536200D02*
X196054800Y-87536200D01*
X196054800Y-85336200D01*
X198254800Y-85336200D01*
X198254800Y-87536200D01*
X198254800Y-87536200D01*
G37*
G36*
X160662800Y-87536200D02*
X158462800Y-87536200D01*
X158462800Y-85336200D01*
X160662800Y-85336200D01*
X160662800Y-87536200D01*
X160662800Y-87536200D01*
G37*
G36*
X210683657Y-82838472D02*
X210883842Y-82921391D01*
X211064013Y-83041778D01*
X211217222Y-83194987D01*
X211337609Y-83375158D01*
X211420528Y-83575343D01*
X211462800Y-83787858D01*
X211462800Y-84004542D01*
X211420528Y-84217057D01*
X211337609Y-84417242D01*
X211217222Y-84597413D01*
X211064013Y-84750622D01*
X210883842Y-84871009D01*
X210683657Y-84953928D01*
X210471142Y-84996200D01*
X210254458Y-84996200D01*
X210041943Y-84953928D01*
X209841758Y-84871009D01*
X209661587Y-84750622D01*
X209508378Y-84597413D01*
X209387991Y-84417242D01*
X209305072Y-84217057D01*
X209262800Y-84004542D01*
X209262800Y-83787858D01*
X209305072Y-83575343D01*
X209387991Y-83375158D01*
X209508378Y-83194987D01*
X209661587Y-83041778D01*
X209841758Y-82921391D01*
X210041943Y-82838472D01*
X210254458Y-82796200D01*
X210471142Y-82796200D01*
X210683657Y-82838472D01*
X210683657Y-82838472D01*
G37*
G36*
X120259657Y-82838472D02*
X120459842Y-82921391D01*
X120640013Y-83041778D01*
X120793222Y-83194987D01*
X120913609Y-83375158D01*
X120996528Y-83575343D01*
X121038800Y-83787858D01*
X121038800Y-84004542D01*
X120996528Y-84217057D01*
X120913609Y-84417242D01*
X120793222Y-84597413D01*
X120640013Y-84750622D01*
X120459842Y-84871009D01*
X120259657Y-84953928D01*
X120047142Y-84996200D01*
X119830458Y-84996200D01*
X119617943Y-84953928D01*
X119417758Y-84871009D01*
X119237587Y-84750622D01*
X119084378Y-84597413D01*
X118963991Y-84417242D01*
X118881072Y-84217057D01*
X118838800Y-84004542D01*
X118838800Y-83787858D01*
X118881072Y-83575343D01*
X118963991Y-83375158D01*
X119084378Y-83194987D01*
X119237587Y-83041778D01*
X119417758Y-82921391D01*
X119617943Y-82838472D01*
X119830458Y-82796200D01*
X120047142Y-82796200D01*
X120259657Y-82838472D01*
X120259657Y-82838472D01*
G37*
G36*
X126863657Y-82838472D02*
X127063842Y-82921391D01*
X127244013Y-83041778D01*
X127397222Y-83194987D01*
X127517609Y-83375158D01*
X127600528Y-83575343D01*
X127642800Y-83787858D01*
X127642800Y-84004542D01*
X127600528Y-84217057D01*
X127517609Y-84417242D01*
X127397222Y-84597413D01*
X127244013Y-84750622D01*
X127063842Y-84871009D01*
X126863657Y-84953928D01*
X126651142Y-84996200D01*
X126434458Y-84996200D01*
X126221943Y-84953928D01*
X126021758Y-84871009D01*
X125841587Y-84750622D01*
X125688378Y-84597413D01*
X125567991Y-84417242D01*
X125485072Y-84217057D01*
X125442800Y-84004542D01*
X125442800Y-83787858D01*
X125485072Y-83575343D01*
X125567991Y-83375158D01*
X125688378Y-83194987D01*
X125841587Y-83041778D01*
X126021758Y-82921391D01*
X126221943Y-82838472D01*
X126434458Y-82796200D01*
X126651142Y-82796200D01*
X126863657Y-82838472D01*
X126863657Y-82838472D01*
G37*
G36*
X133467657Y-82838472D02*
X133667842Y-82921391D01*
X133848013Y-83041778D01*
X134001222Y-83194987D01*
X134121609Y-83375158D01*
X134204528Y-83575343D01*
X134246800Y-83787858D01*
X134246800Y-84004542D01*
X134204528Y-84217057D01*
X134121609Y-84417242D01*
X134001222Y-84597413D01*
X133848013Y-84750622D01*
X133667842Y-84871009D01*
X133467657Y-84953928D01*
X133255142Y-84996200D01*
X133038458Y-84996200D01*
X132825943Y-84953928D01*
X132625758Y-84871009D01*
X132445587Y-84750622D01*
X132292378Y-84597413D01*
X132171991Y-84417242D01*
X132089072Y-84217057D01*
X132046800Y-84004542D01*
X132046800Y-83787858D01*
X132089072Y-83575343D01*
X132171991Y-83375158D01*
X132292378Y-83194987D01*
X132445587Y-83041778D01*
X132625758Y-82921391D01*
X132825943Y-82838472D01*
X133038458Y-82796200D01*
X133255142Y-82796200D01*
X133467657Y-82838472D01*
X133467657Y-82838472D01*
G37*
G36*
X140071657Y-82838472D02*
X140271842Y-82921391D01*
X140452013Y-83041778D01*
X140605222Y-83194987D01*
X140725609Y-83375158D01*
X140808528Y-83575343D01*
X140850800Y-83787858D01*
X140850800Y-84004542D01*
X140808528Y-84217057D01*
X140725609Y-84417242D01*
X140605222Y-84597413D01*
X140452013Y-84750622D01*
X140271842Y-84871009D01*
X140071657Y-84953928D01*
X139859142Y-84996200D01*
X139642458Y-84996200D01*
X139429943Y-84953928D01*
X139229758Y-84871009D01*
X139049587Y-84750622D01*
X138896378Y-84597413D01*
X138775991Y-84417242D01*
X138693072Y-84217057D01*
X138650800Y-84004542D01*
X138650800Y-83787858D01*
X138693072Y-83575343D01*
X138775991Y-83375158D01*
X138896378Y-83194987D01*
X139049587Y-83041778D01*
X139229758Y-82921391D01*
X139429943Y-82838472D01*
X139642458Y-82796200D01*
X139859142Y-82796200D01*
X140071657Y-82838472D01*
X140071657Y-82838472D01*
G37*
G36*
X146675657Y-82838472D02*
X146875842Y-82921391D01*
X147056013Y-83041778D01*
X147209222Y-83194987D01*
X147329609Y-83375158D01*
X147412528Y-83575343D01*
X147454800Y-83787858D01*
X147454800Y-84004542D01*
X147412528Y-84217057D01*
X147329609Y-84417242D01*
X147209222Y-84597413D01*
X147056013Y-84750622D01*
X146875842Y-84871009D01*
X146675657Y-84953928D01*
X146463142Y-84996200D01*
X146246458Y-84996200D01*
X146033943Y-84953928D01*
X145833758Y-84871009D01*
X145653587Y-84750622D01*
X145500378Y-84597413D01*
X145379991Y-84417242D01*
X145297072Y-84217057D01*
X145254800Y-84004542D01*
X145254800Y-83787858D01*
X145297072Y-83575343D01*
X145379991Y-83375158D01*
X145500378Y-83194987D01*
X145653587Y-83041778D01*
X145833758Y-82921391D01*
X146033943Y-82838472D01*
X146246458Y-82796200D01*
X146463142Y-82796200D01*
X146675657Y-82838472D01*
X146675657Y-82838472D01*
G37*
G36*
X153279657Y-82838472D02*
X153479842Y-82921391D01*
X153660013Y-83041778D01*
X153813222Y-83194987D01*
X153933609Y-83375158D01*
X154016528Y-83575343D01*
X154058800Y-83787858D01*
X154058800Y-84004542D01*
X154016528Y-84217057D01*
X153933609Y-84417242D01*
X153813222Y-84597413D01*
X153660013Y-84750622D01*
X153479842Y-84871009D01*
X153279657Y-84953928D01*
X153067142Y-84996200D01*
X152850458Y-84996200D01*
X152637943Y-84953928D01*
X152437758Y-84871009D01*
X152257587Y-84750622D01*
X152104378Y-84597413D01*
X151983991Y-84417242D01*
X151901072Y-84217057D01*
X151858800Y-84004542D01*
X151858800Y-83787858D01*
X151901072Y-83575343D01*
X151983991Y-83375158D01*
X152104378Y-83194987D01*
X152257587Y-83041778D01*
X152437758Y-82921391D01*
X152637943Y-82838472D01*
X152850458Y-82796200D01*
X153067142Y-82796200D01*
X153279657Y-82838472D01*
X153279657Y-82838472D01*
G37*
G36*
X159883657Y-82838472D02*
X160083842Y-82921391D01*
X160264013Y-83041778D01*
X160417222Y-83194987D01*
X160537609Y-83375158D01*
X160620528Y-83575343D01*
X160662800Y-83787858D01*
X160662800Y-84004542D01*
X160620528Y-84217057D01*
X160537609Y-84417242D01*
X160417222Y-84597413D01*
X160264013Y-84750622D01*
X160083842Y-84871009D01*
X159883657Y-84953928D01*
X159671142Y-84996200D01*
X159454458Y-84996200D01*
X159241943Y-84953928D01*
X159041758Y-84871009D01*
X158861587Y-84750622D01*
X158708378Y-84597413D01*
X158587991Y-84417242D01*
X158505072Y-84217057D01*
X158462800Y-84004542D01*
X158462800Y-83787858D01*
X158505072Y-83575343D01*
X158587991Y-83375158D01*
X158708378Y-83194987D01*
X158861587Y-83041778D01*
X159041758Y-82921391D01*
X159241943Y-82838472D01*
X159454458Y-82796200D01*
X159671142Y-82796200D01*
X159883657Y-82838472D01*
X159883657Y-82838472D01*
G37*
G36*
X204079657Y-82838472D02*
X204279842Y-82921391D01*
X204460013Y-83041778D01*
X204613222Y-83194987D01*
X204733609Y-83375158D01*
X204816528Y-83575343D01*
X204858800Y-83787858D01*
X204858800Y-84004542D01*
X204816528Y-84217057D01*
X204733609Y-84417242D01*
X204613222Y-84597413D01*
X204460013Y-84750622D01*
X204279842Y-84871009D01*
X204079657Y-84953928D01*
X203867142Y-84996200D01*
X203650458Y-84996200D01*
X203437943Y-84953928D01*
X203237758Y-84871009D01*
X203057587Y-84750622D01*
X202904378Y-84597413D01*
X202783991Y-84417242D01*
X202701072Y-84217057D01*
X202658800Y-84004542D01*
X202658800Y-83787858D01*
X202701072Y-83575343D01*
X202783991Y-83375158D01*
X202904378Y-83194987D01*
X203057587Y-83041778D01*
X203237758Y-82921391D01*
X203437943Y-82838472D01*
X203650458Y-82796200D01*
X203867142Y-82796200D01*
X204079657Y-82838472D01*
X204079657Y-82838472D01*
G37*
G36*
X184267657Y-82838472D02*
X184467842Y-82921391D01*
X184648013Y-83041778D01*
X184801222Y-83194987D01*
X184921609Y-83375158D01*
X185004528Y-83575343D01*
X185046800Y-83787858D01*
X185046800Y-84004542D01*
X185004528Y-84217057D01*
X184921609Y-84417242D01*
X184801222Y-84597413D01*
X184648013Y-84750622D01*
X184467842Y-84871009D01*
X184267657Y-84953928D01*
X184055142Y-84996200D01*
X183838458Y-84996200D01*
X183625943Y-84953928D01*
X183425758Y-84871009D01*
X183245587Y-84750622D01*
X183092378Y-84597413D01*
X182971991Y-84417242D01*
X182889072Y-84217057D01*
X182846800Y-84004542D01*
X182846800Y-83787858D01*
X182889072Y-83575343D01*
X182971991Y-83375158D01*
X183092378Y-83194987D01*
X183245587Y-83041778D01*
X183425758Y-82921391D01*
X183625943Y-82838472D01*
X183838458Y-82796200D01*
X184055142Y-82796200D01*
X184267657Y-82838472D01*
X184267657Y-82838472D01*
G37*
G36*
X190871657Y-82838472D02*
X191071842Y-82921391D01*
X191252013Y-83041778D01*
X191405222Y-83194987D01*
X191525609Y-83375158D01*
X191608528Y-83575343D01*
X191650800Y-83787858D01*
X191650800Y-84004542D01*
X191608528Y-84217057D01*
X191525609Y-84417242D01*
X191405222Y-84597413D01*
X191252013Y-84750622D01*
X191071842Y-84871009D01*
X190871657Y-84953928D01*
X190659142Y-84996200D01*
X190442458Y-84996200D01*
X190229943Y-84953928D01*
X190029758Y-84871009D01*
X189849587Y-84750622D01*
X189696378Y-84597413D01*
X189575991Y-84417242D01*
X189493072Y-84217057D01*
X189450800Y-84004542D01*
X189450800Y-83787858D01*
X189493072Y-83575343D01*
X189575991Y-83375158D01*
X189696378Y-83194987D01*
X189849587Y-83041778D01*
X190029758Y-82921391D01*
X190229943Y-82838472D01*
X190442458Y-82796200D01*
X190659142Y-82796200D01*
X190871657Y-82838472D01*
X190871657Y-82838472D01*
G37*
G36*
X197475657Y-82838472D02*
X197675842Y-82921391D01*
X197856013Y-83041778D01*
X198009222Y-83194987D01*
X198129609Y-83375158D01*
X198212528Y-83575343D01*
X198254800Y-83787858D01*
X198254800Y-84004542D01*
X198212528Y-84217057D01*
X198129609Y-84417242D01*
X198009222Y-84597413D01*
X197856013Y-84750622D01*
X197675842Y-84871009D01*
X197475657Y-84953928D01*
X197263142Y-84996200D01*
X197046458Y-84996200D01*
X196833943Y-84953928D01*
X196633758Y-84871009D01*
X196453587Y-84750622D01*
X196300378Y-84597413D01*
X196179991Y-84417242D01*
X196097072Y-84217057D01*
X196054800Y-84004542D01*
X196054800Y-83787858D01*
X196097072Y-83575343D01*
X196179991Y-83375158D01*
X196300378Y-83194987D01*
X196453587Y-83041778D01*
X196633758Y-82921391D01*
X196833943Y-82838472D01*
X197046458Y-82796200D01*
X197263142Y-82796200D01*
X197475657Y-82838472D01*
X197475657Y-82838472D01*
G37*
G36*
X210083774Y-76323380D02*
X210388277Y-76449509D01*
X210660477Y-76631387D01*
X210662326Y-76632623D01*
X210895377Y-76865674D01*
X210895379Y-76865677D01*
X211078491Y-77139723D01*
X211204620Y-77444226D01*
X211268920Y-77767484D01*
X211268920Y-78097076D01*
X211204620Y-78420334D01*
X211078491Y-78724837D01*
X210896613Y-78997037D01*
X210895377Y-78998886D01*
X210662326Y-79231937D01*
X210662323Y-79231939D01*
X210388277Y-79415051D01*
X210083774Y-79541180D01*
X209760517Y-79605480D01*
X209430923Y-79605480D01*
X209107666Y-79541180D01*
X208803163Y-79415051D01*
X208529117Y-79231939D01*
X208529114Y-79231937D01*
X208296063Y-78998886D01*
X208294827Y-78997037D01*
X208112949Y-78724837D01*
X207986820Y-78420334D01*
X207922520Y-78097076D01*
X207922520Y-77767484D01*
X207986820Y-77444226D01*
X208112949Y-77139723D01*
X208296061Y-76865677D01*
X208296063Y-76865674D01*
X208529114Y-76632623D01*
X208530963Y-76631387D01*
X208803163Y-76449509D01*
X209107666Y-76323380D01*
X209430923Y-76259080D01*
X209760517Y-76259080D01*
X210083774Y-76323380D01*
X210083774Y-76323380D01*
G37*
G36*
X121193934Y-76323380D02*
X121498437Y-76449509D01*
X121770637Y-76631387D01*
X121772486Y-76632623D01*
X122005537Y-76865674D01*
X122005539Y-76865677D01*
X122188651Y-77139723D01*
X122314780Y-77444226D01*
X122379080Y-77767484D01*
X122379080Y-78097076D01*
X122314780Y-78420334D01*
X122188651Y-78724837D01*
X122006773Y-78997037D01*
X122005537Y-78998886D01*
X121772486Y-79231937D01*
X121772483Y-79231939D01*
X121498437Y-79415051D01*
X121193934Y-79541180D01*
X120870677Y-79605480D01*
X120541083Y-79605480D01*
X120217826Y-79541180D01*
X119913323Y-79415051D01*
X119639277Y-79231939D01*
X119639274Y-79231937D01*
X119406223Y-78998886D01*
X119404987Y-78997037D01*
X119223109Y-78724837D01*
X119096980Y-78420334D01*
X119032680Y-78097076D01*
X119032680Y-77767484D01*
X119096980Y-77444226D01*
X119223109Y-77139723D01*
X119406221Y-76865677D01*
X119406223Y-76865674D01*
X119639274Y-76632623D01*
X119641123Y-76631387D01*
X119913323Y-76449509D01*
X120217826Y-76323380D01*
X120541083Y-76259080D01*
X120870677Y-76259080D01*
X121193934Y-76323380D01*
X121193934Y-76323380D01*
G37*
M02*
