G04 #@! TF.GenerationSoftware,KiCad,Pcbnew,(5.0.0)*
G04 #@! TF.CreationDate,2018-10-04T20:22:30-05:00*
G04 #@! TF.ProjectId,Binary_Display,42696E6172795F446973706C61792E6B,rev?*
G04 #@! TF.SameCoordinates,Original*
G04 #@! TF.FileFunction,Copper,L2,Bot,Signal*
G04 #@! TF.FilePolarity,Positive*
%FSLAX46Y46*%
G04 Gerber Fmt 4.6, Leading zero omitted, Abs format (unit mm)*
G04 Created by KiCad (PCBNEW (5.0.0)) date 10/04/18 20:22:30*
%MOMM*%
%LPD*%
G01*
G04 APERTURE LIST*
G04 #@! TA.AperFunction,ComponentPad*
%ADD10R,1.800000X1.800000*%
G04 #@! TD*
G04 #@! TA.AperFunction,ComponentPad*
%ADD11C,1.800000*%
G04 #@! TD*
G04 #@! TA.AperFunction,ComponentPad*
%ADD12C,1.700000*%
G04 #@! TD*
G04 #@! TA.AperFunction,ViaPad*
%ADD13C,0.600000*%
G04 #@! TD*
G04 #@! TA.AperFunction,Conductor*
%ADD14C,0.406400*%
G04 #@! TD*
G04 #@! TA.AperFunction,Conductor*
%ADD15C,0.254000*%
G04 #@! TD*
G04 APERTURE END LIST*
D10*
G04 #@! TO.P,D31,1*
G04 #@! TO.N,Min*
X177342800Y-95580200D03*
D11*
G04 #@! TO.P,D31,2*
G04 #@! TO.N,Bit_5*
X177342800Y-93040200D03*
G04 #@! TD*
D10*
G04 #@! TO.P,D1,1*
G04 #@! TO.N,Year*
X159562800Y-86436200D03*
D11*
G04 #@! TO.P,D1,2*
G04 #@! TO.N,Bit_0*
X159562800Y-83896200D03*
G04 #@! TD*
D10*
G04 #@! TO.P,D2,1*
G04 #@! TO.N,Year*
X152958800Y-86436200D03*
D11*
G04 #@! TO.P,D2,2*
G04 #@! TO.N,Bit_1*
X152958800Y-83896200D03*
G04 #@! TD*
D10*
G04 #@! TO.P,D3,1*
G04 #@! TO.N,Year*
X146354800Y-86436200D03*
D11*
G04 #@! TO.P,D3,2*
G04 #@! TO.N,Bit_2*
X146354800Y-83896200D03*
G04 #@! TD*
D10*
G04 #@! TO.P,D4,1*
G04 #@! TO.N,Year*
X139750800Y-86436200D03*
D11*
G04 #@! TO.P,D4,2*
G04 #@! TO.N,Bit_3*
X139750800Y-83896200D03*
G04 #@! TD*
D10*
G04 #@! TO.P,D5,1*
G04 #@! TO.N,Year*
X133146800Y-86436200D03*
D11*
G04 #@! TO.P,D5,2*
G04 #@! TO.N,Bit_4*
X133146800Y-83896200D03*
G04 #@! TD*
D10*
G04 #@! TO.P,D6,1*
G04 #@! TO.N,Year*
X126542800Y-86436200D03*
D11*
G04 #@! TO.P,D6,2*
G04 #@! TO.N,Bit_5*
X126542800Y-83896200D03*
G04 #@! TD*
D10*
G04 #@! TO.P,D7,1*
G04 #@! TO.N,Year*
X119938800Y-86436200D03*
D11*
G04 #@! TO.P,D7,2*
G04 #@! TO.N,Bit_6*
X119938800Y-83896200D03*
G04 #@! TD*
D10*
G04 #@! TO.P,D8,1*
G04 #@! TO.N,Week*
X159562800Y-122504200D03*
D11*
G04 #@! TO.P,D8,2*
G04 #@! TO.N,Bit_0*
X159562800Y-119964200D03*
G04 #@! TD*
D10*
G04 #@! TO.P,D9,1*
G04 #@! TO.N,Week*
X152958800Y-122504200D03*
D11*
G04 #@! TO.P,D9,2*
G04 #@! TO.N,Bit_1*
X152958800Y-119964200D03*
G04 #@! TD*
D10*
G04 #@! TO.P,D10,1*
G04 #@! TO.N,Week*
X146354800Y-122504200D03*
D11*
G04 #@! TO.P,D10,2*
G04 #@! TO.N,Bit_2*
X146354800Y-119964200D03*
G04 #@! TD*
D10*
G04 #@! TO.P,D11,1*
G04 #@! TO.N,Week*
X139750800Y-122504200D03*
D11*
G04 #@! TO.P,D11,2*
G04 #@! TO.N,Bit_3*
X139750800Y-119964200D03*
G04 #@! TD*
D10*
G04 #@! TO.P,D12,1*
G04 #@! TO.N,Week*
X133146800Y-122504200D03*
D11*
G04 #@! TO.P,D12,2*
G04 #@! TO.N,Bit_4*
X133146800Y-119964200D03*
G04 #@! TD*
D10*
G04 #@! TO.P,D13,1*
G04 #@! TO.N,Week*
X126542800Y-122504200D03*
D11*
G04 #@! TO.P,D13,2*
G04 #@! TO.N,Bit_5*
X126542800Y-119964200D03*
G04 #@! TD*
D10*
G04 #@! TO.P,D14,1*
G04 #@! TO.N,Hour*
X210362800Y-86436200D03*
D11*
G04 #@! TO.P,D14,2*
G04 #@! TO.N,Bit_0*
X210362800Y-83896200D03*
G04 #@! TD*
D10*
G04 #@! TO.P,D15,1*
G04 #@! TO.N,Hour*
X203758800Y-86436200D03*
D11*
G04 #@! TO.P,D15,2*
G04 #@! TO.N,Bit_1*
X203758800Y-83896200D03*
G04 #@! TD*
D10*
G04 #@! TO.P,D16,1*
G04 #@! TO.N,Hour*
X197154800Y-86436200D03*
D11*
G04 #@! TO.P,D16,2*
G04 #@! TO.N,Bit_2*
X197154800Y-83896200D03*
G04 #@! TD*
D10*
G04 #@! TO.P,D17,1*
G04 #@! TO.N,Hour*
X190550800Y-86436200D03*
D11*
G04 #@! TO.P,D17,2*
G04 #@! TO.N,Bit_3*
X190550800Y-83896200D03*
G04 #@! TD*
D10*
G04 #@! TO.P,D18,1*
G04 #@! TO.N,Hour*
X183946800Y-86436200D03*
D11*
G04 #@! TO.P,D18,2*
G04 #@! TO.N,Bit_4*
X183946800Y-83896200D03*
G04 #@! TD*
D10*
G04 #@! TO.P,D19,1*
G04 #@! TO.N,Month*
X159562800Y-95580200D03*
D11*
G04 #@! TO.P,D19,2*
G04 #@! TO.N,Bit_0*
X159562800Y-93040200D03*
G04 #@! TD*
D10*
G04 #@! TO.P,D20,1*
G04 #@! TO.N,Month*
X152958800Y-95580200D03*
D11*
G04 #@! TO.P,D20,2*
G04 #@! TO.N,Bit_1*
X152958800Y-93040200D03*
G04 #@! TD*
D10*
G04 #@! TO.P,D21,1*
G04 #@! TO.N,Month*
X146354800Y-95580200D03*
D11*
G04 #@! TO.P,D21,2*
G04 #@! TO.N,Bit_2*
X146354800Y-93040200D03*
G04 #@! TD*
D10*
G04 #@! TO.P,D22,1*
G04 #@! TO.N,Month*
X139750800Y-95580200D03*
D11*
G04 #@! TO.P,D22,2*
G04 #@! TO.N,Bit_3*
X139750800Y-93040200D03*
G04 #@! TD*
D10*
G04 #@! TO.P,D23,1*
G04 #@! TO.N,WkDay*
X210362800Y-122504200D03*
D11*
G04 #@! TO.P,D23,2*
G04 #@! TO.N,Bit_0*
X210362800Y-119964200D03*
G04 #@! TD*
D10*
G04 #@! TO.P,D24,1*
G04 #@! TO.N,WkDay*
X203758800Y-122504200D03*
D11*
G04 #@! TO.P,D24,2*
G04 #@! TO.N,Bit_1*
X203758800Y-119964200D03*
G04 #@! TD*
D10*
G04 #@! TO.P,D25,1*
G04 #@! TO.N,WkDay*
X197154800Y-122504200D03*
D11*
G04 #@! TO.P,D25,2*
G04 #@! TO.N,Bit_2*
X197154800Y-119964200D03*
G04 #@! TD*
D10*
G04 #@! TO.P,D26,1*
G04 #@! TO.N,Min*
X210362800Y-95580200D03*
D11*
G04 #@! TO.P,D26,2*
G04 #@! TO.N,Bit_0*
X210362800Y-93040200D03*
G04 #@! TD*
D10*
G04 #@! TO.P,D27,1*
G04 #@! TO.N,Min*
X203758800Y-95580200D03*
D11*
G04 #@! TO.P,D27,2*
G04 #@! TO.N,Bit_1*
X203758800Y-93040200D03*
G04 #@! TD*
D10*
G04 #@! TO.P,D28,1*
G04 #@! TO.N,Min*
X197154800Y-95580200D03*
D11*
G04 #@! TO.P,D28,2*
G04 #@! TO.N,Bit_2*
X197154800Y-93040200D03*
G04 #@! TD*
D10*
G04 #@! TO.P,D29,1*
G04 #@! TO.N,Min*
X190550800Y-95580200D03*
D11*
G04 #@! TO.P,D29,2*
G04 #@! TO.N,Bit_3*
X190550800Y-93040200D03*
G04 #@! TD*
D10*
G04 #@! TO.P,D30,1*
G04 #@! TO.N,Min*
X183946800Y-95580200D03*
D11*
G04 #@! TO.P,D30,2*
G04 #@! TO.N,Bit_4*
X183946800Y-93040200D03*
G04 #@! TD*
D10*
G04 #@! TO.P,D32,1*
G04 #@! TO.N,Day*
X159562800Y-104724200D03*
D11*
G04 #@! TO.P,D32,2*
G04 #@! TO.N,Bit_0*
X159562800Y-102184200D03*
G04 #@! TD*
D10*
G04 #@! TO.P,D33,1*
G04 #@! TO.N,Day*
X152958800Y-104724200D03*
D11*
G04 #@! TO.P,D33,2*
G04 #@! TO.N,Bit_1*
X152958800Y-102184200D03*
G04 #@! TD*
D10*
G04 #@! TO.P,D34,1*
G04 #@! TO.N,Day*
X146354800Y-104724200D03*
D11*
G04 #@! TO.P,D34,2*
G04 #@! TO.N,Bit_2*
X146354800Y-102184200D03*
G04 #@! TD*
D10*
G04 #@! TO.P,D35,1*
G04 #@! TO.N,Day*
X139750800Y-104724200D03*
D11*
G04 #@! TO.P,D35,2*
G04 #@! TO.N,Bit_3*
X139750800Y-102184200D03*
G04 #@! TD*
D10*
G04 #@! TO.P,D36,1*
G04 #@! TO.N,Day*
X133146800Y-104724200D03*
D11*
G04 #@! TO.P,D36,2*
G04 #@! TO.N,Bit_4*
X133146800Y-102184200D03*
G04 #@! TD*
D10*
G04 #@! TO.P,D37,1*
G04 #@! TO.N,Sec*
X210362800Y-104724200D03*
D11*
G04 #@! TO.P,D37,2*
G04 #@! TO.N,Bit_0*
X210362800Y-102184200D03*
G04 #@! TD*
D10*
G04 #@! TO.P,D38,1*
G04 #@! TO.N,Sec*
X203758800Y-104724200D03*
D11*
G04 #@! TO.P,D38,2*
G04 #@! TO.N,Bit_1*
X203758800Y-102184200D03*
G04 #@! TD*
D10*
G04 #@! TO.P,D39,1*
G04 #@! TO.N,Sec*
X197154800Y-104724200D03*
D11*
G04 #@! TO.P,D39,2*
G04 #@! TO.N,Bit_2*
X197154800Y-102184200D03*
G04 #@! TD*
D10*
G04 #@! TO.P,D40,1*
G04 #@! TO.N,Sec*
X190550800Y-104724200D03*
D11*
G04 #@! TO.P,D40,2*
G04 #@! TO.N,Bit_3*
X190550800Y-102184200D03*
G04 #@! TD*
D10*
G04 #@! TO.P,D41,1*
G04 #@! TO.N,Sec*
X183946800Y-104724200D03*
D11*
G04 #@! TO.P,D41,2*
G04 #@! TO.N,Bit_4*
X183946800Y-102184200D03*
G04 #@! TD*
D10*
G04 #@! TO.P,D42,1*
G04 #@! TO.N,Sec*
X177342800Y-104724200D03*
D11*
G04 #@! TO.P,D42,2*
G04 #@! TO.N,Bit_5*
X177342800Y-102184200D03*
G04 #@! TD*
D12*
G04 #@! TO.P,J1,CS*
G04 #@! TO.N,/Load*
X139750800Y-110744000D03*
G04 #@! TO.P,J1,CLK*
G04 #@! TO.N,/Clk*
X139750800Y-108204000D03*
G04 #@! TO.P,J1,DIN*
G04 #@! TO.N,/Din*
X139750800Y-113284000D03*
G04 #@! TO.P,J1,GND*
G04 #@! TO.N,/GND*
X190550800Y-110744000D03*
G04 #@! TO.P,J1,VCC*
G04 #@! TO.N,/+5V*
X190550800Y-108204000D03*
G04 #@! TD*
D13*
G04 #@! TO.N,/GND*
X179019200Y-137109200D03*
X166116000Y-129032000D03*
X172466000Y-129286000D03*
G04 #@! TO.N,/Din*
X176276000Y-128524000D03*
X163830000Y-113284000D03*
G04 #@! TO.N,/Load*
X156464000Y-131064000D03*
X156464000Y-110744000D03*
G04 #@! TO.N,/Clk*
X157480000Y-140462000D03*
X157480000Y-108204000D03*
G04 #@! TO.N,Year*
X167640000Y-125222000D03*
X175006000Y-125222000D03*
G04 #@! TO.N,Bit_0*
X161290000Y-138684000D03*
X212090000Y-81280000D03*
X161290000Y-81280000D03*
G04 #@! TO.N,Bit_1*
X154686000Y-136652000D03*
X205486000Y-80518000D03*
X154686000Y-80518000D03*
G04 #@! TO.N,Bit_2*
X148082000Y-134620000D03*
X148082000Y-79756000D03*
X198882000Y-79756000D03*
G04 #@! TO.N,Bit_3*
X141478000Y-132588000D03*
X141478000Y-79019400D03*
X192278000Y-79019400D03*
G04 #@! TO.N,Bit_4*
X134874000Y-133604000D03*
X134874000Y-78257400D03*
X185674000Y-78257400D03*
G04 #@! TO.N,Bit_5*
X128270000Y-137668000D03*
X128270000Y-77470000D03*
X179070000Y-77470000D03*
G04 #@! TO.N,Bit_6*
X121666000Y-135636000D03*
G04 #@! TO.N,Week*
X163068000Y-126746000D03*
X168656000Y-126746000D03*
G04 #@! TO.N,Day*
X164592000Y-125984000D03*
X169926000Y-125984000D03*
G04 #@! TO.N,Sec*
X172212000Y-127609600D03*
X167386000Y-128524000D03*
G04 #@! TD*
D14*
G04 #@! TO.N,/GND*
X172466000Y-129286000D02*
X166370000Y-129286000D01*
X166370000Y-129286000D02*
X166116000Y-129032000D01*
G04 #@! TO.N,/Din*
X163830000Y-113284000D02*
X175310800Y-113284000D01*
X175310800Y-113284000D02*
X176276000Y-114249200D01*
X176276000Y-114249200D02*
X176276000Y-128524000D01*
G04 #@! TO.N,/Load*
X156464000Y-119430800D02*
X156464000Y-131064000D01*
X156464000Y-111168264D02*
X156464000Y-119430800D01*
X156464000Y-110744000D02*
X156464000Y-111168264D01*
G04 #@! TO.N,/Clk*
X157480000Y-108628264D02*
X157480000Y-140462000D01*
X157480000Y-108204000D02*
X157480000Y-108628264D01*
G04 #@! TO.N,Year*
X175006000Y-125222000D02*
X167640000Y-125222000D01*
G04 #@! TO.N,Bit_0*
X161290000Y-124460000D02*
X161290000Y-138684000D01*
X161290000Y-119964200D02*
X161290000Y-124460000D01*
X212090000Y-81280000D02*
X212090000Y-83896200D01*
X161290000Y-83896200D02*
X161290000Y-81280000D01*
X212090000Y-83896200D02*
X212090000Y-93040200D01*
X212090000Y-93040200D02*
X212090000Y-102184200D01*
X210362800Y-93040200D02*
X211635592Y-93040200D01*
X211635592Y-93040200D02*
X212090000Y-93040200D01*
X212090000Y-102184200D02*
X212090000Y-119964200D01*
X210362800Y-102184200D02*
X211635592Y-102184200D01*
X211635592Y-102184200D02*
X212090000Y-102184200D01*
X210362800Y-83896200D02*
X212090000Y-83896200D01*
X212090000Y-119964200D02*
X210362800Y-119964200D01*
X161290000Y-83896200D02*
X161290000Y-93040200D01*
X161290000Y-93040200D02*
X161290000Y-102184200D01*
X159562800Y-93040200D02*
X160835592Y-93040200D01*
X160835592Y-93040200D02*
X161290000Y-93040200D01*
X161290000Y-102184200D02*
X161290000Y-119964200D01*
X159562800Y-102184200D02*
X160835592Y-102184200D01*
X160835592Y-102184200D02*
X161290000Y-102184200D01*
X161290000Y-119964200D02*
X159562800Y-119964200D01*
X159562800Y-83896200D02*
X161290000Y-83896200D01*
G04 #@! TO.N,Bit_1*
X154686000Y-124460000D02*
X154686000Y-136652000D01*
X154686000Y-119964200D02*
X154686000Y-124460000D01*
X205486000Y-80518000D02*
X205486000Y-80942264D01*
X205486000Y-80942264D02*
X205486000Y-83896200D01*
X154686000Y-83896200D02*
X154686000Y-80518000D01*
X205486000Y-83896200D02*
X205486000Y-93040200D01*
X205486000Y-93040200D02*
X205486000Y-102184200D01*
X203758800Y-93040200D02*
X205031592Y-93040200D01*
X205031592Y-93040200D02*
X205486000Y-93040200D01*
X205486000Y-102184200D02*
X205486000Y-119964200D01*
X203758800Y-102184200D02*
X205031592Y-102184200D01*
X205031592Y-102184200D02*
X205486000Y-102184200D01*
X205486000Y-119964200D02*
X203758800Y-119964200D01*
X154686000Y-83896200D02*
X154686000Y-93040200D01*
X152958800Y-93040200D02*
X154231592Y-93040200D01*
X154686000Y-93040200D02*
X154686000Y-102184200D01*
X154231592Y-93040200D02*
X154686000Y-93040200D01*
X154686000Y-102184200D02*
X154686000Y-119964200D01*
X152958800Y-102184200D02*
X154231592Y-102184200D01*
X154231592Y-102184200D02*
X154686000Y-102184200D01*
X154686000Y-119964200D02*
X152958800Y-119964200D01*
X154686000Y-83896200D02*
X152958800Y-83896200D01*
X203758800Y-83896200D02*
X205486000Y-83896200D01*
G04 #@! TO.N,Bit_2*
X148082000Y-119964200D02*
X148082000Y-123444000D01*
X148082000Y-123444000D02*
X148082000Y-124460000D01*
X148082000Y-134620000D02*
X148082000Y-123444000D01*
X148082000Y-79756000D02*
X148082000Y-80180264D01*
X148082000Y-80180264D02*
X148082000Y-83896200D01*
X198882000Y-83896200D02*
X198882000Y-79756000D01*
X198882000Y-83896200D02*
X198882000Y-93040200D01*
X198882000Y-93040200D02*
X198882000Y-102184200D01*
X197154800Y-93040200D02*
X198882000Y-93040200D01*
X198882000Y-102184200D02*
X198882000Y-119964200D01*
X197154800Y-102184200D02*
X198427592Y-102184200D01*
X198427592Y-102184200D02*
X198882000Y-102184200D01*
X198882000Y-119964200D02*
X197154800Y-119964200D01*
X148082000Y-83896200D02*
X148082000Y-93040200D01*
X148082000Y-93040200D02*
X148082000Y-102184200D01*
X146354800Y-93040200D02*
X147627592Y-93040200D01*
X147627592Y-93040200D02*
X148082000Y-93040200D01*
X148082000Y-102184200D02*
X148082000Y-119964200D01*
X147627592Y-102184200D02*
X148082000Y-102184200D01*
X146354800Y-102184200D02*
X147627592Y-102184200D01*
X148082000Y-119964200D02*
X146354800Y-119964200D01*
X197154800Y-83896200D02*
X198882000Y-83896200D01*
X148082000Y-83896200D02*
X146354800Y-83896200D01*
G04 #@! TO.N,Bit_3*
X141478000Y-119964200D02*
X141478000Y-123952000D01*
X141478000Y-123952000D02*
X141478000Y-124460000D01*
X141478000Y-132588000D02*
X141478000Y-123952000D01*
X141478000Y-79019400D02*
X141478000Y-79443664D01*
X141478000Y-79443664D02*
X141478000Y-83896200D01*
X192278000Y-83896200D02*
X192278000Y-79019400D01*
X192278000Y-83896200D02*
X192278000Y-93040200D01*
X192278000Y-93040200D02*
X192278000Y-102184200D01*
X190550800Y-93040200D02*
X191823592Y-93040200D01*
X191823592Y-93040200D02*
X192278000Y-93040200D01*
X192278000Y-102184200D02*
X190550800Y-102184200D01*
X141478000Y-83896200D02*
X141478000Y-93040200D01*
X141478000Y-93040200D02*
X141478000Y-102184200D01*
X139750800Y-93040200D02*
X141023592Y-93040200D01*
X141023592Y-93040200D02*
X141478000Y-93040200D01*
X141478000Y-102184200D02*
X141478000Y-119964200D01*
X139750800Y-102184200D02*
X141023592Y-102184200D01*
X141023592Y-102184200D02*
X141478000Y-102184200D01*
X139750800Y-83896200D02*
X141478000Y-83896200D01*
X141478000Y-119964200D02*
X139750800Y-119964200D01*
X190550800Y-83896200D02*
X192278000Y-83896200D01*
G04 #@! TO.N,Bit_4*
X134874000Y-124460000D02*
X134874000Y-133604000D01*
X134874000Y-119964200D02*
X134874000Y-124460000D01*
X134874000Y-78257400D02*
X134874000Y-78681664D01*
X134874000Y-78681664D02*
X134874000Y-83896200D01*
X185674000Y-83896200D02*
X185674000Y-78257400D01*
X185219592Y-93040200D02*
X185674000Y-93040200D01*
X185674000Y-83896200D02*
X185674000Y-93040200D01*
X185674000Y-93040200D02*
X185674000Y-102184200D01*
X183946800Y-93040200D02*
X185219592Y-93040200D01*
X183946800Y-83896200D02*
X185674000Y-83896200D01*
X185674000Y-102184200D02*
X183946800Y-102184200D01*
X134874000Y-83896200D02*
X134874000Y-102184200D01*
X134874000Y-102184200D02*
X134874000Y-119964200D01*
X133146800Y-102184200D02*
X134419592Y-102184200D01*
X134419592Y-102184200D02*
X134874000Y-102184200D01*
X134874000Y-119964200D02*
X133146800Y-119964200D01*
X134874000Y-83896200D02*
X133146800Y-83896200D01*
G04 #@! TO.N,Bit_5*
X128270000Y-137668000D02*
X128270000Y-124460000D01*
X128270000Y-119964200D02*
X128270000Y-124460000D01*
X128270000Y-83896200D02*
X128270000Y-84378800D01*
X128270000Y-84378800D02*
X128270000Y-119964200D01*
X128270000Y-77470000D02*
X128270000Y-77894264D01*
X128270000Y-77894264D02*
X128270000Y-84378800D01*
X179070000Y-93040200D02*
X179070000Y-77470000D01*
X179070000Y-93040200D02*
X179070000Y-102184200D01*
X177342800Y-102184200D02*
X178615592Y-102184200D01*
X178615592Y-102184200D02*
X179070000Y-102184200D01*
X177342800Y-93040200D02*
X179070000Y-93040200D01*
X126542800Y-83896200D02*
X128270000Y-83896200D01*
X128270000Y-119964200D02*
X126542800Y-119964200D01*
G04 #@! TO.N,Bit_6*
X121666000Y-124460000D02*
X121666000Y-135636000D01*
X121666000Y-119888000D02*
X121666000Y-124460000D01*
X121666000Y-83896200D02*
X121666000Y-119888000D01*
X119938800Y-83896200D02*
X121666000Y-83896200D01*
G04 #@! TO.N,Week*
X168656000Y-126746000D02*
X163068000Y-126746000D01*
G04 #@! TO.N,Day*
X169926000Y-125984000D02*
X164592000Y-125984000D01*
G04 #@! TO.N,Sec*
X167782798Y-128270000D02*
X171551600Y-128270000D01*
X172212000Y-127609600D02*
X171912001Y-127909599D01*
X171912001Y-127909599D02*
X171551600Y-128270000D01*
X167736799Y-128224001D02*
X167782798Y-128270000D01*
X167386000Y-128524000D02*
X167685999Y-128224001D01*
X167685999Y-128224001D02*
X167736799Y-128224001D01*
G04 #@! TD*
D15*
G04 #@! TO.N,/GND*
G36*
X210264263Y-74695046D02*
X210900631Y-74894471D01*
X211483895Y-75217779D01*
X211990239Y-75651768D01*
X212398973Y-76178705D01*
X212693407Y-76777073D01*
X212863712Y-77430887D01*
X212904001Y-77954483D01*
X212904001Y-80801899D01*
X212882655Y-80750365D01*
X212619635Y-80487345D01*
X212275983Y-80345000D01*
X211904017Y-80345000D01*
X211560365Y-80487345D01*
X211297345Y-80750365D01*
X211155000Y-81094017D01*
X211155000Y-81465983D01*
X211251800Y-81699680D01*
X211251801Y-82614384D01*
X211232307Y-82594890D01*
X210668130Y-82361200D01*
X210057470Y-82361200D01*
X209493293Y-82594890D01*
X209061490Y-83026693D01*
X208827800Y-83590870D01*
X208827800Y-84201530D01*
X209061490Y-84765707D01*
X209230708Y-84934925D01*
X209215035Y-84938043D01*
X209004991Y-85078391D01*
X208864643Y-85288435D01*
X208815360Y-85536200D01*
X208815360Y-87336200D01*
X208864643Y-87583965D01*
X209004991Y-87794009D01*
X209215035Y-87934357D01*
X209462800Y-87983640D01*
X211251800Y-87983640D01*
X211251801Y-91758384D01*
X211232307Y-91738890D01*
X210668130Y-91505200D01*
X210057470Y-91505200D01*
X209493293Y-91738890D01*
X209061490Y-92170693D01*
X208827800Y-92734870D01*
X208827800Y-93345530D01*
X209061490Y-93909707D01*
X209230708Y-94078925D01*
X209215035Y-94082043D01*
X209004991Y-94222391D01*
X208864643Y-94432435D01*
X208815360Y-94680200D01*
X208815360Y-96480200D01*
X208864643Y-96727965D01*
X209004991Y-96938009D01*
X209215035Y-97078357D01*
X209462800Y-97127640D01*
X211251800Y-97127640D01*
X211251801Y-100902384D01*
X211232307Y-100882890D01*
X210668130Y-100649200D01*
X210057470Y-100649200D01*
X209493293Y-100882890D01*
X209061490Y-101314693D01*
X208827800Y-101878870D01*
X208827800Y-102489530D01*
X209061490Y-103053707D01*
X209230708Y-103222925D01*
X209215035Y-103226043D01*
X209004991Y-103366391D01*
X208864643Y-103576435D01*
X208815360Y-103824200D01*
X208815360Y-105624200D01*
X208864643Y-105871965D01*
X209004991Y-106082009D01*
X209215035Y-106222357D01*
X209462800Y-106271640D01*
X211251800Y-106271640D01*
X211251801Y-118682384D01*
X211232307Y-118662890D01*
X210668130Y-118429200D01*
X210057470Y-118429200D01*
X209493293Y-118662890D01*
X209061490Y-119094693D01*
X208827800Y-119658870D01*
X208827800Y-120269530D01*
X209061490Y-120833707D01*
X209230708Y-121002925D01*
X209215035Y-121006043D01*
X209004991Y-121146391D01*
X208864643Y-121356435D01*
X208815360Y-121604200D01*
X208815360Y-123404200D01*
X208864643Y-123651965D01*
X209004991Y-123862009D01*
X209215035Y-124002357D01*
X209462800Y-124051640D01*
X211262800Y-124051640D01*
X211510565Y-124002357D01*
X211720609Y-123862009D01*
X211860957Y-123651965D01*
X211910240Y-123404200D01*
X211910240Y-121604200D01*
X211860957Y-121356435D01*
X211720609Y-121146391D01*
X211510565Y-121006043D01*
X211494892Y-121002925D01*
X211664110Y-120833707D01*
X211677078Y-120802400D01*
X212007446Y-120802400D01*
X212090000Y-120818821D01*
X212172554Y-120802400D01*
X212417049Y-120753767D01*
X212694308Y-120568508D01*
X212879567Y-120291249D01*
X212904000Y-120168414D01*
X212904000Y-140222836D01*
X212832954Y-140922264D01*
X212633529Y-141558631D01*
X212310220Y-142141897D01*
X211876230Y-142648241D01*
X211349292Y-143056976D01*
X210750929Y-143351405D01*
X210097114Y-143521712D01*
X209573530Y-143562000D01*
X120736764Y-143562000D01*
X120037336Y-143490954D01*
X119400969Y-143291529D01*
X118817703Y-142968220D01*
X118311359Y-142534230D01*
X117902624Y-142007292D01*
X117608195Y-141408929D01*
X117437888Y-140755114D01*
X117397600Y-140231530D01*
X117397600Y-139834373D01*
X118597680Y-139834373D01*
X118597680Y-140673067D01*
X118918634Y-141447919D01*
X119511681Y-142040966D01*
X120286533Y-142361920D01*
X121125227Y-142361920D01*
X121900079Y-142040966D01*
X122493126Y-141447919D01*
X122814080Y-140673067D01*
X122814080Y-139834373D01*
X122493126Y-139059521D01*
X121900079Y-138466474D01*
X121125227Y-138145520D01*
X120286533Y-138145520D01*
X119511681Y-138466474D01*
X118918634Y-139059521D01*
X118597680Y-139834373D01*
X117397600Y-139834373D01*
X117397600Y-85536200D01*
X118391360Y-85536200D01*
X118391360Y-87336200D01*
X118440643Y-87583965D01*
X118580991Y-87794009D01*
X118791035Y-87934357D01*
X119038800Y-87983640D01*
X120827800Y-87983640D01*
X120827801Y-119805442D01*
X120827800Y-119805447D01*
X120827801Y-124377442D01*
X120827800Y-124377447D01*
X120827801Y-135216318D01*
X120731000Y-135450017D01*
X120731000Y-135821983D01*
X120873345Y-136165635D01*
X121136365Y-136428655D01*
X121480017Y-136571000D01*
X121851983Y-136571000D01*
X122195635Y-136428655D01*
X122458655Y-136165635D01*
X122601000Y-135821983D01*
X122601000Y-135450017D01*
X122504200Y-135216321D01*
X122504200Y-85536200D01*
X124995360Y-85536200D01*
X124995360Y-87336200D01*
X125044643Y-87583965D01*
X125184991Y-87794009D01*
X125395035Y-87934357D01*
X125642800Y-87983640D01*
X127431800Y-87983640D01*
X127431801Y-118682384D01*
X127412307Y-118662890D01*
X126848130Y-118429200D01*
X126237470Y-118429200D01*
X125673293Y-118662890D01*
X125241490Y-119094693D01*
X125007800Y-119658870D01*
X125007800Y-120269530D01*
X125241490Y-120833707D01*
X125410708Y-121002925D01*
X125395035Y-121006043D01*
X125184991Y-121146391D01*
X125044643Y-121356435D01*
X124995360Y-121604200D01*
X124995360Y-123404200D01*
X125044643Y-123651965D01*
X125184991Y-123862009D01*
X125395035Y-124002357D01*
X125642800Y-124051640D01*
X127431801Y-124051640D01*
X127431801Y-124377446D01*
X127431800Y-137248321D01*
X127335000Y-137482017D01*
X127335000Y-137853983D01*
X127477345Y-138197635D01*
X127740365Y-138460655D01*
X128084017Y-138603000D01*
X128455983Y-138603000D01*
X128799635Y-138460655D01*
X129062655Y-138197635D01*
X129205000Y-137853983D01*
X129205000Y-137482017D01*
X129108200Y-137248321D01*
X129108200Y-120046754D01*
X129124621Y-119964200D01*
X129108200Y-119881646D01*
X129108200Y-85536200D01*
X131599360Y-85536200D01*
X131599360Y-87336200D01*
X131648643Y-87583965D01*
X131788991Y-87794009D01*
X131999035Y-87934357D01*
X132246800Y-87983640D01*
X134035800Y-87983640D01*
X134035801Y-100902384D01*
X134016307Y-100882890D01*
X133452130Y-100649200D01*
X132841470Y-100649200D01*
X132277293Y-100882890D01*
X131845490Y-101314693D01*
X131611800Y-101878870D01*
X131611800Y-102489530D01*
X131845490Y-103053707D01*
X132014708Y-103222925D01*
X131999035Y-103226043D01*
X131788991Y-103366391D01*
X131648643Y-103576435D01*
X131599360Y-103824200D01*
X131599360Y-105624200D01*
X131648643Y-105871965D01*
X131788991Y-106082009D01*
X131999035Y-106222357D01*
X132246800Y-106271640D01*
X134035800Y-106271640D01*
X134035801Y-118682384D01*
X134016307Y-118662890D01*
X133452130Y-118429200D01*
X132841470Y-118429200D01*
X132277293Y-118662890D01*
X131845490Y-119094693D01*
X131611800Y-119658870D01*
X131611800Y-120269530D01*
X131845490Y-120833707D01*
X132014708Y-121002925D01*
X131999035Y-121006043D01*
X131788991Y-121146391D01*
X131648643Y-121356435D01*
X131599360Y-121604200D01*
X131599360Y-123404200D01*
X131648643Y-123651965D01*
X131788991Y-123862009D01*
X131999035Y-124002357D01*
X132246800Y-124051640D01*
X134035801Y-124051640D01*
X134035801Y-124377442D01*
X134035800Y-124377447D01*
X134035801Y-133184318D01*
X133939000Y-133418017D01*
X133939000Y-133789983D01*
X134081345Y-134133635D01*
X134344365Y-134396655D01*
X134688017Y-134539000D01*
X135059983Y-134539000D01*
X135403635Y-134396655D01*
X135666655Y-134133635D01*
X135809000Y-133789983D01*
X135809000Y-133418017D01*
X135712200Y-133184321D01*
X135712200Y-120046754D01*
X135728621Y-119964200D01*
X135712200Y-119881646D01*
X135712200Y-102266754D01*
X135728621Y-102184200D01*
X135712200Y-102101646D01*
X135712200Y-85536200D01*
X138203360Y-85536200D01*
X138203360Y-87336200D01*
X138252643Y-87583965D01*
X138392991Y-87794009D01*
X138603035Y-87934357D01*
X138850800Y-87983640D01*
X140639800Y-87983640D01*
X140639801Y-91758384D01*
X140620307Y-91738890D01*
X140056130Y-91505200D01*
X139445470Y-91505200D01*
X138881293Y-91738890D01*
X138449490Y-92170693D01*
X138215800Y-92734870D01*
X138215800Y-93345530D01*
X138449490Y-93909707D01*
X138618708Y-94078925D01*
X138603035Y-94082043D01*
X138392991Y-94222391D01*
X138252643Y-94432435D01*
X138203360Y-94680200D01*
X138203360Y-96480200D01*
X138252643Y-96727965D01*
X138392991Y-96938009D01*
X138603035Y-97078357D01*
X138850800Y-97127640D01*
X140639800Y-97127640D01*
X140639801Y-100902384D01*
X140620307Y-100882890D01*
X140056130Y-100649200D01*
X139445470Y-100649200D01*
X138881293Y-100882890D01*
X138449490Y-101314693D01*
X138215800Y-101878870D01*
X138215800Y-102489530D01*
X138449490Y-103053707D01*
X138618708Y-103222925D01*
X138603035Y-103226043D01*
X138392991Y-103366391D01*
X138252643Y-103576435D01*
X138203360Y-103824200D01*
X138203360Y-105624200D01*
X138252643Y-105871965D01*
X138392991Y-106082009D01*
X138603035Y-106222357D01*
X138850800Y-106271640D01*
X140639800Y-106271640D01*
X140639800Y-106992893D01*
X140591985Y-106945078D01*
X140046185Y-106719000D01*
X139455415Y-106719000D01*
X138909615Y-106945078D01*
X138491878Y-107362815D01*
X138265800Y-107908615D01*
X138265800Y-108499385D01*
X138491878Y-109045185D01*
X138909615Y-109462922D01*
X138936360Y-109474000D01*
X138909615Y-109485078D01*
X138491878Y-109902815D01*
X138265800Y-110448615D01*
X138265800Y-111039385D01*
X138491878Y-111585185D01*
X138909615Y-112002922D01*
X138936360Y-112014000D01*
X138909615Y-112025078D01*
X138491878Y-112442815D01*
X138265800Y-112988615D01*
X138265800Y-113579385D01*
X138491878Y-114125185D01*
X138909615Y-114542922D01*
X139455415Y-114769000D01*
X140046185Y-114769000D01*
X140591985Y-114542922D01*
X140639801Y-114495106D01*
X140639801Y-118682384D01*
X140620307Y-118662890D01*
X140056130Y-118429200D01*
X139445470Y-118429200D01*
X138881293Y-118662890D01*
X138449490Y-119094693D01*
X138215800Y-119658870D01*
X138215800Y-120269530D01*
X138449490Y-120833707D01*
X138618708Y-121002925D01*
X138603035Y-121006043D01*
X138392991Y-121146391D01*
X138252643Y-121356435D01*
X138203360Y-121604200D01*
X138203360Y-123404200D01*
X138252643Y-123651965D01*
X138392991Y-123862009D01*
X138603035Y-124002357D01*
X138850800Y-124051640D01*
X140639800Y-124051640D01*
X140639800Y-124542554D01*
X140639801Y-124542559D01*
X140639800Y-132168320D01*
X140543000Y-132402017D01*
X140543000Y-132773983D01*
X140685345Y-133117635D01*
X140948365Y-133380655D01*
X141292017Y-133523000D01*
X141663983Y-133523000D01*
X142007635Y-133380655D01*
X142270655Y-133117635D01*
X142413000Y-132773983D01*
X142413000Y-132402017D01*
X142316200Y-132168321D01*
X142316200Y-120046754D01*
X142332621Y-119964200D01*
X142316200Y-119881646D01*
X142316200Y-102266754D01*
X142332621Y-102184200D01*
X142316200Y-102101646D01*
X142316200Y-93122753D01*
X142332621Y-93040200D01*
X142316200Y-92957646D01*
X142316200Y-85536200D01*
X144807360Y-85536200D01*
X144807360Y-87336200D01*
X144856643Y-87583965D01*
X144996991Y-87794009D01*
X145207035Y-87934357D01*
X145454800Y-87983640D01*
X147243800Y-87983640D01*
X147243801Y-91758384D01*
X147224307Y-91738890D01*
X146660130Y-91505200D01*
X146049470Y-91505200D01*
X145485293Y-91738890D01*
X145053490Y-92170693D01*
X144819800Y-92734870D01*
X144819800Y-93345530D01*
X145053490Y-93909707D01*
X145222708Y-94078925D01*
X145207035Y-94082043D01*
X144996991Y-94222391D01*
X144856643Y-94432435D01*
X144807360Y-94680200D01*
X144807360Y-96480200D01*
X144856643Y-96727965D01*
X144996991Y-96938009D01*
X145207035Y-97078357D01*
X145454800Y-97127640D01*
X147243800Y-97127640D01*
X147243801Y-100902384D01*
X147224307Y-100882890D01*
X146660130Y-100649200D01*
X146049470Y-100649200D01*
X145485293Y-100882890D01*
X145053490Y-101314693D01*
X144819800Y-101878870D01*
X144819800Y-102489530D01*
X145053490Y-103053707D01*
X145222708Y-103222925D01*
X145207035Y-103226043D01*
X144996991Y-103366391D01*
X144856643Y-103576435D01*
X144807360Y-103824200D01*
X144807360Y-105624200D01*
X144856643Y-105871965D01*
X144996991Y-106082009D01*
X145207035Y-106222357D01*
X145454800Y-106271640D01*
X147243800Y-106271640D01*
X147243801Y-118682384D01*
X147224307Y-118662890D01*
X146660130Y-118429200D01*
X146049470Y-118429200D01*
X145485293Y-118662890D01*
X145053490Y-119094693D01*
X144819800Y-119658870D01*
X144819800Y-120269530D01*
X145053490Y-120833707D01*
X145222708Y-121002925D01*
X145207035Y-121006043D01*
X144996991Y-121146391D01*
X144856643Y-121356435D01*
X144807360Y-121604200D01*
X144807360Y-123404200D01*
X144856643Y-123651965D01*
X144996991Y-123862009D01*
X145207035Y-124002357D01*
X145454800Y-124051640D01*
X147243801Y-124051640D01*
X147243800Y-134200320D01*
X147147000Y-134434017D01*
X147147000Y-134805983D01*
X147289345Y-135149635D01*
X147552365Y-135412655D01*
X147896017Y-135555000D01*
X148267983Y-135555000D01*
X148611635Y-135412655D01*
X148874655Y-135149635D01*
X149017000Y-134805983D01*
X149017000Y-134434017D01*
X148920200Y-134200321D01*
X148920200Y-120046754D01*
X148936621Y-119964200D01*
X148920200Y-119881646D01*
X148920200Y-102266754D01*
X148936621Y-102184200D01*
X148920200Y-102101646D01*
X148920200Y-93122753D01*
X148936621Y-93040200D01*
X148920200Y-92957646D01*
X148920200Y-85536200D01*
X151411360Y-85536200D01*
X151411360Y-87336200D01*
X151460643Y-87583965D01*
X151600991Y-87794009D01*
X151811035Y-87934357D01*
X152058800Y-87983640D01*
X153847800Y-87983640D01*
X153847801Y-91758384D01*
X153828307Y-91738890D01*
X153264130Y-91505200D01*
X152653470Y-91505200D01*
X152089293Y-91738890D01*
X151657490Y-92170693D01*
X151423800Y-92734870D01*
X151423800Y-93345530D01*
X151657490Y-93909707D01*
X151826708Y-94078925D01*
X151811035Y-94082043D01*
X151600991Y-94222391D01*
X151460643Y-94432435D01*
X151411360Y-94680200D01*
X151411360Y-96480200D01*
X151460643Y-96727965D01*
X151600991Y-96938009D01*
X151811035Y-97078357D01*
X152058800Y-97127640D01*
X153847800Y-97127640D01*
X153847801Y-100902384D01*
X153828307Y-100882890D01*
X153264130Y-100649200D01*
X152653470Y-100649200D01*
X152089293Y-100882890D01*
X151657490Y-101314693D01*
X151423800Y-101878870D01*
X151423800Y-102489530D01*
X151657490Y-103053707D01*
X151826708Y-103222925D01*
X151811035Y-103226043D01*
X151600991Y-103366391D01*
X151460643Y-103576435D01*
X151411360Y-103824200D01*
X151411360Y-105624200D01*
X151460643Y-105871965D01*
X151600991Y-106082009D01*
X151811035Y-106222357D01*
X152058800Y-106271640D01*
X153847800Y-106271640D01*
X153847801Y-118682384D01*
X153828307Y-118662890D01*
X153264130Y-118429200D01*
X152653470Y-118429200D01*
X152089293Y-118662890D01*
X151657490Y-119094693D01*
X151423800Y-119658870D01*
X151423800Y-120269530D01*
X151657490Y-120833707D01*
X151826708Y-121002925D01*
X151811035Y-121006043D01*
X151600991Y-121146391D01*
X151460643Y-121356435D01*
X151411360Y-121604200D01*
X151411360Y-123404200D01*
X151460643Y-123651965D01*
X151600991Y-123862009D01*
X151811035Y-124002357D01*
X152058800Y-124051640D01*
X153847801Y-124051640D01*
X153847801Y-124377442D01*
X153847800Y-124377447D01*
X153847801Y-136232318D01*
X153751000Y-136466017D01*
X153751000Y-136837983D01*
X153893345Y-137181635D01*
X154156365Y-137444655D01*
X154500017Y-137587000D01*
X154871983Y-137587000D01*
X155215635Y-137444655D01*
X155478655Y-137181635D01*
X155621000Y-136837983D01*
X155621000Y-136466017D01*
X155524200Y-136232321D01*
X155524200Y-120046754D01*
X155540621Y-119964200D01*
X155524200Y-119881646D01*
X155524200Y-110558017D01*
X155529000Y-110558017D01*
X155529000Y-110929983D01*
X155625800Y-111163679D01*
X155625801Y-119348242D01*
X155625800Y-119348247D01*
X155625801Y-130644318D01*
X155529000Y-130878017D01*
X155529000Y-131249983D01*
X155671345Y-131593635D01*
X155934365Y-131856655D01*
X156278017Y-131999000D01*
X156641801Y-131999000D01*
X156641801Y-140042318D01*
X156545000Y-140276017D01*
X156545000Y-140647983D01*
X156687345Y-140991635D01*
X156950365Y-141254655D01*
X157294017Y-141397000D01*
X157665983Y-141397000D01*
X158009635Y-141254655D01*
X158272655Y-140991635D01*
X158415000Y-140647983D01*
X158415000Y-140276017D01*
X158318200Y-140042321D01*
X158318200Y-139834373D01*
X207487520Y-139834373D01*
X207487520Y-140673067D01*
X207808474Y-141447919D01*
X208401521Y-142040966D01*
X209176373Y-142361920D01*
X210015067Y-142361920D01*
X210789919Y-142040966D01*
X211382966Y-141447919D01*
X211703920Y-140673067D01*
X211703920Y-139834373D01*
X211382966Y-139059521D01*
X210789919Y-138466474D01*
X210015067Y-138145520D01*
X209176373Y-138145520D01*
X208401521Y-138466474D01*
X207808474Y-139059521D01*
X207487520Y-139834373D01*
X158318200Y-139834373D01*
X158318200Y-123937653D01*
X158415035Y-124002357D01*
X158662800Y-124051640D01*
X160451801Y-124051640D01*
X160451801Y-124377442D01*
X160451800Y-124377447D01*
X160451801Y-138264318D01*
X160355000Y-138498017D01*
X160355000Y-138869983D01*
X160497345Y-139213635D01*
X160760365Y-139476655D01*
X161104017Y-139619000D01*
X161475983Y-139619000D01*
X161819635Y-139476655D01*
X162082655Y-139213635D01*
X162225000Y-138869983D01*
X162225000Y-138498017D01*
X162128200Y-138264321D01*
X162128200Y-126560017D01*
X162133000Y-126560017D01*
X162133000Y-126931983D01*
X162275345Y-127275635D01*
X162538365Y-127538655D01*
X162882017Y-127681000D01*
X163253983Y-127681000D01*
X163487679Y-127584200D01*
X167134810Y-127584200D01*
X167081691Y-127619693D01*
X167064766Y-127645023D01*
X166856365Y-127731345D01*
X166593345Y-127994365D01*
X166451000Y-128338017D01*
X166451000Y-128709983D01*
X166593345Y-129053635D01*
X166856365Y-129316655D01*
X167200017Y-129459000D01*
X167571983Y-129459000D01*
X167915635Y-129316655D01*
X168124090Y-129108200D01*
X171469051Y-129108200D01*
X171551600Y-129124620D01*
X171634149Y-129108200D01*
X171634154Y-129108200D01*
X171878649Y-129059567D01*
X172155908Y-128874308D01*
X172202672Y-128804321D01*
X172507938Y-128499055D01*
X172741635Y-128402255D01*
X173004655Y-128139235D01*
X173147000Y-127795583D01*
X173147000Y-127423617D01*
X173004655Y-127079965D01*
X172741635Y-126816945D01*
X172397983Y-126674600D01*
X172026017Y-126674600D01*
X171682365Y-126816945D01*
X171419345Y-127079965D01*
X171322545Y-127313662D01*
X171204407Y-127431800D01*
X169292490Y-127431800D01*
X169448655Y-127275635D01*
X169591000Y-126931983D01*
X169591000Y-126857275D01*
X169740017Y-126919000D01*
X170111983Y-126919000D01*
X170455635Y-126776655D01*
X170718655Y-126513635D01*
X170861000Y-126169983D01*
X170861000Y-126060200D01*
X174586321Y-126060200D01*
X174820017Y-126157000D01*
X175191983Y-126157000D01*
X175437801Y-126055179D01*
X175437801Y-128104318D01*
X175341000Y-128338017D01*
X175341000Y-128709983D01*
X175483345Y-129053635D01*
X175746365Y-129316655D01*
X176090017Y-129459000D01*
X176461983Y-129459000D01*
X176805635Y-129316655D01*
X177068655Y-129053635D01*
X177211000Y-128709983D01*
X177211000Y-128338017D01*
X177114200Y-128104321D01*
X177114200Y-114331749D01*
X177130620Y-114249200D01*
X177114200Y-114166651D01*
X177114200Y-114166646D01*
X177065567Y-113922151D01*
X176880308Y-113644892D01*
X176810324Y-113598131D01*
X175961872Y-112749678D01*
X175915108Y-112679692D01*
X175637849Y-112494433D01*
X175393354Y-112445800D01*
X175393349Y-112445800D01*
X175310800Y-112429380D01*
X175228251Y-112445800D01*
X164249679Y-112445800D01*
X164015983Y-112349000D01*
X163644017Y-112349000D01*
X163300365Y-112491345D01*
X163037345Y-112754365D01*
X162895000Y-113098017D01*
X162895000Y-113469983D01*
X163037345Y-113813635D01*
X163300365Y-114076655D01*
X163644017Y-114219000D01*
X164015983Y-114219000D01*
X164249679Y-114122200D01*
X174963607Y-114122200D01*
X175437800Y-114596394D01*
X175437801Y-124388821D01*
X175191983Y-124287000D01*
X174820017Y-124287000D01*
X174586321Y-124383800D01*
X168059679Y-124383800D01*
X167825983Y-124287000D01*
X167454017Y-124287000D01*
X167110365Y-124429345D01*
X166847345Y-124692365D01*
X166705000Y-125036017D01*
X166705000Y-125145800D01*
X165011679Y-125145800D01*
X164777983Y-125049000D01*
X164406017Y-125049000D01*
X164062365Y-125191345D01*
X163799345Y-125454365D01*
X163657000Y-125798017D01*
X163657000Y-125907800D01*
X163487679Y-125907800D01*
X163253983Y-125811000D01*
X162882017Y-125811000D01*
X162538365Y-125953345D01*
X162275345Y-126216365D01*
X162133000Y-126560017D01*
X162128200Y-126560017D01*
X162128200Y-120046754D01*
X162144621Y-119964200D01*
X162128200Y-119881646D01*
X162128200Y-107908615D01*
X189065800Y-107908615D01*
X189065800Y-108499385D01*
X189291878Y-109045185D01*
X189709615Y-109462922D01*
X190255415Y-109689000D01*
X190846185Y-109689000D01*
X191391985Y-109462922D01*
X191809722Y-109045185D01*
X192035800Y-108499385D01*
X192035800Y-107908615D01*
X191809722Y-107362815D01*
X191391985Y-106945078D01*
X190846185Y-106719000D01*
X190255415Y-106719000D01*
X189709615Y-106945078D01*
X189291878Y-107362815D01*
X189065800Y-107908615D01*
X162128200Y-107908615D01*
X162128200Y-102266754D01*
X162144621Y-102184200D01*
X162128200Y-102101646D01*
X162128200Y-94680200D01*
X175795360Y-94680200D01*
X175795360Y-96480200D01*
X175844643Y-96727965D01*
X175984991Y-96938009D01*
X176195035Y-97078357D01*
X176442800Y-97127640D01*
X178231800Y-97127640D01*
X178231801Y-100902384D01*
X178212307Y-100882890D01*
X177648130Y-100649200D01*
X177037470Y-100649200D01*
X176473293Y-100882890D01*
X176041490Y-101314693D01*
X175807800Y-101878870D01*
X175807800Y-102489530D01*
X176041490Y-103053707D01*
X176210708Y-103222925D01*
X176195035Y-103226043D01*
X175984991Y-103366391D01*
X175844643Y-103576435D01*
X175795360Y-103824200D01*
X175795360Y-105624200D01*
X175844643Y-105871965D01*
X175984991Y-106082009D01*
X176195035Y-106222357D01*
X176442800Y-106271640D01*
X178242800Y-106271640D01*
X178490565Y-106222357D01*
X178700609Y-106082009D01*
X178840957Y-105871965D01*
X178890240Y-105624200D01*
X178890240Y-103824200D01*
X178840957Y-103576435D01*
X178700609Y-103366391D01*
X178490565Y-103226043D01*
X178474892Y-103222925D01*
X178644110Y-103053707D01*
X178657078Y-103022400D01*
X178987446Y-103022400D01*
X179070000Y-103038821D01*
X179152554Y-103022400D01*
X179397049Y-102973767D01*
X179674308Y-102788508D01*
X179859567Y-102511249D01*
X179924621Y-102184200D01*
X179908200Y-102101646D01*
X179908200Y-93122753D01*
X179924621Y-93040200D01*
X179908200Y-92957646D01*
X179908200Y-85536200D01*
X182399360Y-85536200D01*
X182399360Y-87336200D01*
X182448643Y-87583965D01*
X182588991Y-87794009D01*
X182799035Y-87934357D01*
X183046800Y-87983640D01*
X184835800Y-87983640D01*
X184835801Y-91758384D01*
X184816307Y-91738890D01*
X184252130Y-91505200D01*
X183641470Y-91505200D01*
X183077293Y-91738890D01*
X182645490Y-92170693D01*
X182411800Y-92734870D01*
X182411800Y-93345530D01*
X182645490Y-93909707D01*
X182814708Y-94078925D01*
X182799035Y-94082043D01*
X182588991Y-94222391D01*
X182448643Y-94432435D01*
X182399360Y-94680200D01*
X182399360Y-96480200D01*
X182448643Y-96727965D01*
X182588991Y-96938009D01*
X182799035Y-97078357D01*
X183046800Y-97127640D01*
X184835800Y-97127640D01*
X184835801Y-100902384D01*
X184816307Y-100882890D01*
X184252130Y-100649200D01*
X183641470Y-100649200D01*
X183077293Y-100882890D01*
X182645490Y-101314693D01*
X182411800Y-101878870D01*
X182411800Y-102489530D01*
X182645490Y-103053707D01*
X182814708Y-103222925D01*
X182799035Y-103226043D01*
X182588991Y-103366391D01*
X182448643Y-103576435D01*
X182399360Y-103824200D01*
X182399360Y-105624200D01*
X182448643Y-105871965D01*
X182588991Y-106082009D01*
X182799035Y-106222357D01*
X183046800Y-106271640D01*
X184846800Y-106271640D01*
X185094565Y-106222357D01*
X185304609Y-106082009D01*
X185444957Y-105871965D01*
X185494240Y-105624200D01*
X185494240Y-103824200D01*
X185444957Y-103576435D01*
X185304609Y-103366391D01*
X185094565Y-103226043D01*
X185078892Y-103222925D01*
X185248110Y-103053707D01*
X185261078Y-103022400D01*
X185591446Y-103022400D01*
X185674000Y-103038821D01*
X185756554Y-103022400D01*
X186001049Y-102973767D01*
X186278308Y-102788508D01*
X186463567Y-102511249D01*
X186528621Y-102184200D01*
X186512200Y-102101646D01*
X186512200Y-93122753D01*
X186528621Y-93040200D01*
X186512200Y-92957646D01*
X186512200Y-85536200D01*
X189003360Y-85536200D01*
X189003360Y-87336200D01*
X189052643Y-87583965D01*
X189192991Y-87794009D01*
X189403035Y-87934357D01*
X189650800Y-87983640D01*
X191439800Y-87983640D01*
X191439801Y-91758384D01*
X191420307Y-91738890D01*
X190856130Y-91505200D01*
X190245470Y-91505200D01*
X189681293Y-91738890D01*
X189249490Y-92170693D01*
X189015800Y-92734870D01*
X189015800Y-93345530D01*
X189249490Y-93909707D01*
X189418708Y-94078925D01*
X189403035Y-94082043D01*
X189192991Y-94222391D01*
X189052643Y-94432435D01*
X189003360Y-94680200D01*
X189003360Y-96480200D01*
X189052643Y-96727965D01*
X189192991Y-96938009D01*
X189403035Y-97078357D01*
X189650800Y-97127640D01*
X191439800Y-97127640D01*
X191439801Y-100902384D01*
X191420307Y-100882890D01*
X190856130Y-100649200D01*
X190245470Y-100649200D01*
X189681293Y-100882890D01*
X189249490Y-101314693D01*
X189015800Y-101878870D01*
X189015800Y-102489530D01*
X189249490Y-103053707D01*
X189418708Y-103222925D01*
X189403035Y-103226043D01*
X189192991Y-103366391D01*
X189052643Y-103576435D01*
X189003360Y-103824200D01*
X189003360Y-105624200D01*
X189052643Y-105871965D01*
X189192991Y-106082009D01*
X189403035Y-106222357D01*
X189650800Y-106271640D01*
X191450800Y-106271640D01*
X191698565Y-106222357D01*
X191908609Y-106082009D01*
X192048957Y-105871965D01*
X192098240Y-105624200D01*
X192098240Y-103824200D01*
X192048957Y-103576435D01*
X191908609Y-103366391D01*
X191698565Y-103226043D01*
X191682892Y-103222925D01*
X191852110Y-103053707D01*
X191865078Y-103022400D01*
X192195446Y-103022400D01*
X192278000Y-103038821D01*
X192360554Y-103022400D01*
X192605049Y-102973767D01*
X192882308Y-102788508D01*
X193067567Y-102511249D01*
X193132621Y-102184200D01*
X193116200Y-102101646D01*
X193116200Y-93122753D01*
X193132621Y-93040200D01*
X193116200Y-92957646D01*
X193116200Y-85536200D01*
X195607360Y-85536200D01*
X195607360Y-87336200D01*
X195656643Y-87583965D01*
X195796991Y-87794009D01*
X196007035Y-87934357D01*
X196254800Y-87983640D01*
X198043800Y-87983640D01*
X198043801Y-91758384D01*
X198024307Y-91738890D01*
X197460130Y-91505200D01*
X196849470Y-91505200D01*
X196285293Y-91738890D01*
X195853490Y-92170693D01*
X195619800Y-92734870D01*
X195619800Y-93345530D01*
X195853490Y-93909707D01*
X196022708Y-94078925D01*
X196007035Y-94082043D01*
X195796991Y-94222391D01*
X195656643Y-94432435D01*
X195607360Y-94680200D01*
X195607360Y-96480200D01*
X195656643Y-96727965D01*
X195796991Y-96938009D01*
X196007035Y-97078357D01*
X196254800Y-97127640D01*
X198043800Y-97127640D01*
X198043801Y-100902384D01*
X198024307Y-100882890D01*
X197460130Y-100649200D01*
X196849470Y-100649200D01*
X196285293Y-100882890D01*
X195853490Y-101314693D01*
X195619800Y-101878870D01*
X195619800Y-102489530D01*
X195853490Y-103053707D01*
X196022708Y-103222925D01*
X196007035Y-103226043D01*
X195796991Y-103366391D01*
X195656643Y-103576435D01*
X195607360Y-103824200D01*
X195607360Y-105624200D01*
X195656643Y-105871965D01*
X195796991Y-106082009D01*
X196007035Y-106222357D01*
X196254800Y-106271640D01*
X198043800Y-106271640D01*
X198043801Y-118682384D01*
X198024307Y-118662890D01*
X197460130Y-118429200D01*
X196849470Y-118429200D01*
X196285293Y-118662890D01*
X195853490Y-119094693D01*
X195619800Y-119658870D01*
X195619800Y-120269530D01*
X195853490Y-120833707D01*
X196022708Y-121002925D01*
X196007035Y-121006043D01*
X195796991Y-121146391D01*
X195656643Y-121356435D01*
X195607360Y-121604200D01*
X195607360Y-123404200D01*
X195656643Y-123651965D01*
X195796991Y-123862009D01*
X196007035Y-124002357D01*
X196254800Y-124051640D01*
X198054800Y-124051640D01*
X198302565Y-124002357D01*
X198512609Y-123862009D01*
X198652957Y-123651965D01*
X198702240Y-123404200D01*
X198702240Y-121604200D01*
X198652957Y-121356435D01*
X198512609Y-121146391D01*
X198302565Y-121006043D01*
X198286892Y-121002925D01*
X198456110Y-120833707D01*
X198469078Y-120802400D01*
X198799446Y-120802400D01*
X198882000Y-120818821D01*
X198964554Y-120802400D01*
X199209049Y-120753767D01*
X199486308Y-120568508D01*
X199671567Y-120291249D01*
X199736621Y-119964200D01*
X199720200Y-119881646D01*
X199720200Y-102266754D01*
X199736621Y-102184200D01*
X199720200Y-102101646D01*
X199720200Y-93122753D01*
X199736621Y-93040200D01*
X199720200Y-92957646D01*
X199720200Y-85536200D01*
X202211360Y-85536200D01*
X202211360Y-87336200D01*
X202260643Y-87583965D01*
X202400991Y-87794009D01*
X202611035Y-87934357D01*
X202858800Y-87983640D01*
X204647800Y-87983640D01*
X204647801Y-91758384D01*
X204628307Y-91738890D01*
X204064130Y-91505200D01*
X203453470Y-91505200D01*
X202889293Y-91738890D01*
X202457490Y-92170693D01*
X202223800Y-92734870D01*
X202223800Y-93345530D01*
X202457490Y-93909707D01*
X202626708Y-94078925D01*
X202611035Y-94082043D01*
X202400991Y-94222391D01*
X202260643Y-94432435D01*
X202211360Y-94680200D01*
X202211360Y-96480200D01*
X202260643Y-96727965D01*
X202400991Y-96938009D01*
X202611035Y-97078357D01*
X202858800Y-97127640D01*
X204647800Y-97127640D01*
X204647801Y-100902384D01*
X204628307Y-100882890D01*
X204064130Y-100649200D01*
X203453470Y-100649200D01*
X202889293Y-100882890D01*
X202457490Y-101314693D01*
X202223800Y-101878870D01*
X202223800Y-102489530D01*
X202457490Y-103053707D01*
X202626708Y-103222925D01*
X202611035Y-103226043D01*
X202400991Y-103366391D01*
X202260643Y-103576435D01*
X202211360Y-103824200D01*
X202211360Y-105624200D01*
X202260643Y-105871965D01*
X202400991Y-106082009D01*
X202611035Y-106222357D01*
X202858800Y-106271640D01*
X204647800Y-106271640D01*
X204647801Y-118682384D01*
X204628307Y-118662890D01*
X204064130Y-118429200D01*
X203453470Y-118429200D01*
X202889293Y-118662890D01*
X202457490Y-119094693D01*
X202223800Y-119658870D01*
X202223800Y-120269530D01*
X202457490Y-120833707D01*
X202626708Y-121002925D01*
X202611035Y-121006043D01*
X202400991Y-121146391D01*
X202260643Y-121356435D01*
X202211360Y-121604200D01*
X202211360Y-123404200D01*
X202260643Y-123651965D01*
X202400991Y-123862009D01*
X202611035Y-124002357D01*
X202858800Y-124051640D01*
X204658800Y-124051640D01*
X204906565Y-124002357D01*
X205116609Y-123862009D01*
X205256957Y-123651965D01*
X205306240Y-123404200D01*
X205306240Y-121604200D01*
X205256957Y-121356435D01*
X205116609Y-121146391D01*
X204906565Y-121006043D01*
X204890892Y-121002925D01*
X205060110Y-120833707D01*
X205073078Y-120802400D01*
X205403446Y-120802400D01*
X205486000Y-120818821D01*
X205568554Y-120802400D01*
X205813049Y-120753767D01*
X206090308Y-120568508D01*
X206275567Y-120291249D01*
X206340621Y-119964200D01*
X206324200Y-119881646D01*
X206324200Y-102266754D01*
X206340621Y-102184200D01*
X206324200Y-102101646D01*
X206324200Y-93122753D01*
X206340621Y-93040200D01*
X206324200Y-92957646D01*
X206324200Y-83978753D01*
X206340621Y-83896200D01*
X206324200Y-83813646D01*
X206324200Y-80937679D01*
X206421000Y-80703983D01*
X206421000Y-80332017D01*
X206278655Y-79988365D01*
X206015635Y-79725345D01*
X205671983Y-79583000D01*
X205300017Y-79583000D01*
X204956365Y-79725345D01*
X204693345Y-79988365D01*
X204551000Y-80332017D01*
X204551000Y-80703983D01*
X204647800Y-80937679D01*
X204647801Y-82614384D01*
X204628307Y-82594890D01*
X204064130Y-82361200D01*
X203453470Y-82361200D01*
X202889293Y-82594890D01*
X202457490Y-83026693D01*
X202223800Y-83590870D01*
X202223800Y-84201530D01*
X202457490Y-84765707D01*
X202626708Y-84934925D01*
X202611035Y-84938043D01*
X202400991Y-85078391D01*
X202260643Y-85288435D01*
X202211360Y-85536200D01*
X199720200Y-85536200D01*
X199720200Y-83978753D01*
X199736621Y-83896200D01*
X199720200Y-83813646D01*
X199720200Y-80175679D01*
X199817000Y-79941983D01*
X199817000Y-79570017D01*
X199674655Y-79226365D01*
X199411635Y-78963345D01*
X199067983Y-78821000D01*
X198696017Y-78821000D01*
X198352365Y-78963345D01*
X198089345Y-79226365D01*
X197947000Y-79570017D01*
X197947000Y-79941983D01*
X198043801Y-80175682D01*
X198043800Y-82614383D01*
X198024307Y-82594890D01*
X197460130Y-82361200D01*
X196849470Y-82361200D01*
X196285293Y-82594890D01*
X195853490Y-83026693D01*
X195619800Y-83590870D01*
X195619800Y-84201530D01*
X195853490Y-84765707D01*
X196022708Y-84934925D01*
X196007035Y-84938043D01*
X195796991Y-85078391D01*
X195656643Y-85288435D01*
X195607360Y-85536200D01*
X193116200Y-85536200D01*
X193116200Y-83978753D01*
X193132621Y-83896200D01*
X193116200Y-83813646D01*
X193116200Y-79439079D01*
X193213000Y-79205383D01*
X193213000Y-78833417D01*
X193070655Y-78489765D01*
X192807635Y-78226745D01*
X192463983Y-78084400D01*
X192092017Y-78084400D01*
X191748365Y-78226745D01*
X191485345Y-78489765D01*
X191343000Y-78833417D01*
X191343000Y-79205383D01*
X191439801Y-79439082D01*
X191439800Y-82614383D01*
X191420307Y-82594890D01*
X190856130Y-82361200D01*
X190245470Y-82361200D01*
X189681293Y-82594890D01*
X189249490Y-83026693D01*
X189015800Y-83590870D01*
X189015800Y-84201530D01*
X189249490Y-84765707D01*
X189418708Y-84934925D01*
X189403035Y-84938043D01*
X189192991Y-85078391D01*
X189052643Y-85288435D01*
X189003360Y-85536200D01*
X186512200Y-85536200D01*
X186512200Y-83978753D01*
X186528621Y-83896200D01*
X186512200Y-83813646D01*
X186512200Y-78677079D01*
X186609000Y-78443383D01*
X186609000Y-78071417D01*
X186466655Y-77727765D01*
X186251823Y-77512933D01*
X207487520Y-77512933D01*
X207487520Y-78351627D01*
X207808474Y-79126479D01*
X208401521Y-79719526D01*
X209176373Y-80040480D01*
X210015067Y-80040480D01*
X210789919Y-79719526D01*
X211382966Y-79126479D01*
X211703920Y-78351627D01*
X211703920Y-77512933D01*
X211382966Y-76738081D01*
X210789919Y-76145034D01*
X210015067Y-75824080D01*
X209176373Y-75824080D01*
X208401521Y-76145034D01*
X207808474Y-76738081D01*
X207487520Y-77512933D01*
X186251823Y-77512933D01*
X186203635Y-77464745D01*
X185859983Y-77322400D01*
X185488017Y-77322400D01*
X185144365Y-77464745D01*
X184881345Y-77727765D01*
X184739000Y-78071417D01*
X184739000Y-78443383D01*
X184835801Y-78677082D01*
X184835800Y-82614383D01*
X184816307Y-82594890D01*
X184252130Y-82361200D01*
X183641470Y-82361200D01*
X183077293Y-82594890D01*
X182645490Y-83026693D01*
X182411800Y-83590870D01*
X182411800Y-84201530D01*
X182645490Y-84765707D01*
X182814708Y-84934925D01*
X182799035Y-84938043D01*
X182588991Y-85078391D01*
X182448643Y-85288435D01*
X182399360Y-85536200D01*
X179908200Y-85536200D01*
X179908200Y-77889679D01*
X180005000Y-77655983D01*
X180005000Y-77284017D01*
X179862655Y-76940365D01*
X179599635Y-76677345D01*
X179255983Y-76535000D01*
X178884017Y-76535000D01*
X178540365Y-76677345D01*
X178277345Y-76940365D01*
X178135000Y-77284017D01*
X178135000Y-77655983D01*
X178231801Y-77889682D01*
X178231800Y-91758383D01*
X178212307Y-91738890D01*
X177648130Y-91505200D01*
X177037470Y-91505200D01*
X176473293Y-91738890D01*
X176041490Y-92170693D01*
X175807800Y-92734870D01*
X175807800Y-93345530D01*
X176041490Y-93909707D01*
X176210708Y-94078925D01*
X176195035Y-94082043D01*
X175984991Y-94222391D01*
X175844643Y-94432435D01*
X175795360Y-94680200D01*
X162128200Y-94680200D01*
X162128200Y-93122753D01*
X162144621Y-93040200D01*
X162128200Y-92957646D01*
X162128200Y-83978753D01*
X162144621Y-83896200D01*
X162128200Y-83813646D01*
X162128200Y-81699679D01*
X162225000Y-81465983D01*
X162225000Y-81094017D01*
X162082655Y-80750365D01*
X161819635Y-80487345D01*
X161475983Y-80345000D01*
X161104017Y-80345000D01*
X160760365Y-80487345D01*
X160497345Y-80750365D01*
X160355000Y-81094017D01*
X160355000Y-81465983D01*
X160451801Y-81699681D01*
X160451800Y-82614383D01*
X160432307Y-82594890D01*
X159868130Y-82361200D01*
X159257470Y-82361200D01*
X158693293Y-82594890D01*
X158261490Y-83026693D01*
X158027800Y-83590870D01*
X158027800Y-84201530D01*
X158261490Y-84765707D01*
X158430708Y-84934925D01*
X158415035Y-84938043D01*
X158204991Y-85078391D01*
X158064643Y-85288435D01*
X158015360Y-85536200D01*
X158015360Y-87336200D01*
X158064643Y-87583965D01*
X158204991Y-87794009D01*
X158415035Y-87934357D01*
X158662800Y-87983640D01*
X160451800Y-87983640D01*
X160451801Y-91758384D01*
X160432307Y-91738890D01*
X159868130Y-91505200D01*
X159257470Y-91505200D01*
X158693293Y-91738890D01*
X158261490Y-92170693D01*
X158027800Y-92734870D01*
X158027800Y-93345530D01*
X158261490Y-93909707D01*
X158430708Y-94078925D01*
X158415035Y-94082043D01*
X158204991Y-94222391D01*
X158064643Y-94432435D01*
X158015360Y-94680200D01*
X158015360Y-96480200D01*
X158064643Y-96727965D01*
X158204991Y-96938009D01*
X158415035Y-97078357D01*
X158662800Y-97127640D01*
X160451800Y-97127640D01*
X160451801Y-100902384D01*
X160432307Y-100882890D01*
X159868130Y-100649200D01*
X159257470Y-100649200D01*
X158693293Y-100882890D01*
X158261490Y-101314693D01*
X158027800Y-101878870D01*
X158027800Y-102489530D01*
X158261490Y-103053707D01*
X158430708Y-103222925D01*
X158415035Y-103226043D01*
X158204991Y-103366391D01*
X158064643Y-103576435D01*
X158015360Y-103824200D01*
X158015360Y-105624200D01*
X158064643Y-105871965D01*
X158204991Y-106082009D01*
X158415035Y-106222357D01*
X158662800Y-106271640D01*
X160451800Y-106271640D01*
X160451801Y-118682384D01*
X160432307Y-118662890D01*
X159868130Y-118429200D01*
X159257470Y-118429200D01*
X158693293Y-118662890D01*
X158318200Y-119037983D01*
X158318200Y-108623679D01*
X158415000Y-108389983D01*
X158415000Y-108018017D01*
X158272655Y-107674365D01*
X158009635Y-107411345D01*
X157665983Y-107269000D01*
X157294017Y-107269000D01*
X156950365Y-107411345D01*
X156687345Y-107674365D01*
X156545000Y-108018017D01*
X156545000Y-108389983D01*
X156641800Y-108623679D01*
X156641800Y-109809000D01*
X156278017Y-109809000D01*
X155934365Y-109951345D01*
X155671345Y-110214365D01*
X155529000Y-110558017D01*
X155524200Y-110558017D01*
X155524200Y-102266754D01*
X155540621Y-102184200D01*
X155524200Y-102101646D01*
X155524200Y-93122753D01*
X155540621Y-93040200D01*
X155524200Y-92957646D01*
X155524200Y-83978753D01*
X155540621Y-83896200D01*
X155524200Y-83813646D01*
X155524200Y-80937679D01*
X155621000Y-80703983D01*
X155621000Y-80332017D01*
X155478655Y-79988365D01*
X155215635Y-79725345D01*
X154871983Y-79583000D01*
X154500017Y-79583000D01*
X154156365Y-79725345D01*
X153893345Y-79988365D01*
X153751000Y-80332017D01*
X153751000Y-80703983D01*
X153847801Y-80937681D01*
X153847800Y-82614383D01*
X153828307Y-82594890D01*
X153264130Y-82361200D01*
X152653470Y-82361200D01*
X152089293Y-82594890D01*
X151657490Y-83026693D01*
X151423800Y-83590870D01*
X151423800Y-84201530D01*
X151657490Y-84765707D01*
X151826708Y-84934925D01*
X151811035Y-84938043D01*
X151600991Y-85078391D01*
X151460643Y-85288435D01*
X151411360Y-85536200D01*
X148920200Y-85536200D01*
X148920200Y-83978753D01*
X148936621Y-83896200D01*
X148920200Y-83813646D01*
X148920200Y-80175679D01*
X149017000Y-79941983D01*
X149017000Y-79570017D01*
X148874655Y-79226365D01*
X148611635Y-78963345D01*
X148267983Y-78821000D01*
X147896017Y-78821000D01*
X147552365Y-78963345D01*
X147289345Y-79226365D01*
X147147000Y-79570017D01*
X147147000Y-79941983D01*
X147243800Y-80175679D01*
X147243801Y-82614384D01*
X147224307Y-82594890D01*
X146660130Y-82361200D01*
X146049470Y-82361200D01*
X145485293Y-82594890D01*
X145053490Y-83026693D01*
X144819800Y-83590870D01*
X144819800Y-84201530D01*
X145053490Y-84765707D01*
X145222708Y-84934925D01*
X145207035Y-84938043D01*
X144996991Y-85078391D01*
X144856643Y-85288435D01*
X144807360Y-85536200D01*
X142316200Y-85536200D01*
X142316200Y-83978753D01*
X142332621Y-83896200D01*
X142316200Y-83813646D01*
X142316200Y-79439079D01*
X142413000Y-79205383D01*
X142413000Y-78833417D01*
X142270655Y-78489765D01*
X142007635Y-78226745D01*
X141663983Y-78084400D01*
X141292017Y-78084400D01*
X140948365Y-78226745D01*
X140685345Y-78489765D01*
X140543000Y-78833417D01*
X140543000Y-79205383D01*
X140639800Y-79439079D01*
X140639801Y-82614384D01*
X140620307Y-82594890D01*
X140056130Y-82361200D01*
X139445470Y-82361200D01*
X138881293Y-82594890D01*
X138449490Y-83026693D01*
X138215800Y-83590870D01*
X138215800Y-84201530D01*
X138449490Y-84765707D01*
X138618708Y-84934925D01*
X138603035Y-84938043D01*
X138392991Y-85078391D01*
X138252643Y-85288435D01*
X138203360Y-85536200D01*
X135712200Y-85536200D01*
X135712200Y-83978753D01*
X135728621Y-83896200D01*
X135712200Y-83813646D01*
X135712200Y-78677079D01*
X135809000Y-78443383D01*
X135809000Y-78071417D01*
X135666655Y-77727765D01*
X135403635Y-77464745D01*
X135059983Y-77322400D01*
X134688017Y-77322400D01*
X134344365Y-77464745D01*
X134081345Y-77727765D01*
X133939000Y-78071417D01*
X133939000Y-78443383D01*
X134035800Y-78677079D01*
X134035801Y-82614384D01*
X134016307Y-82594890D01*
X133452130Y-82361200D01*
X132841470Y-82361200D01*
X132277293Y-82594890D01*
X131845490Y-83026693D01*
X131611800Y-83590870D01*
X131611800Y-84201530D01*
X131845490Y-84765707D01*
X132014708Y-84934925D01*
X131999035Y-84938043D01*
X131788991Y-85078391D01*
X131648643Y-85288435D01*
X131599360Y-85536200D01*
X129108200Y-85536200D01*
X129108200Y-83978753D01*
X129124621Y-83896200D01*
X129108200Y-83813646D01*
X129108200Y-77889679D01*
X129205000Y-77655983D01*
X129205000Y-77284017D01*
X129062655Y-76940365D01*
X128799635Y-76677345D01*
X128455983Y-76535000D01*
X128084017Y-76535000D01*
X127740365Y-76677345D01*
X127477345Y-76940365D01*
X127335000Y-77284017D01*
X127335000Y-77655983D01*
X127431800Y-77889679D01*
X127431801Y-82614384D01*
X127412307Y-82594890D01*
X126848130Y-82361200D01*
X126237470Y-82361200D01*
X125673293Y-82594890D01*
X125241490Y-83026693D01*
X125007800Y-83590870D01*
X125007800Y-84201530D01*
X125241490Y-84765707D01*
X125410708Y-84934925D01*
X125395035Y-84938043D01*
X125184991Y-85078391D01*
X125044643Y-85288435D01*
X124995360Y-85536200D01*
X122504200Y-85536200D01*
X122504200Y-83978753D01*
X122520621Y-83896200D01*
X122455567Y-83569151D01*
X122270308Y-83291892D01*
X121993049Y-83106633D01*
X121748554Y-83058000D01*
X121666000Y-83041579D01*
X121583446Y-83058000D01*
X121253078Y-83058000D01*
X121240110Y-83026693D01*
X120808307Y-82594890D01*
X120244130Y-82361200D01*
X119633470Y-82361200D01*
X119069293Y-82594890D01*
X118637490Y-83026693D01*
X118403800Y-83590870D01*
X118403800Y-84201530D01*
X118637490Y-84765707D01*
X118806708Y-84934925D01*
X118791035Y-84938043D01*
X118580991Y-85078391D01*
X118440643Y-85288435D01*
X118391360Y-85536200D01*
X117397600Y-85536200D01*
X117397600Y-77963164D01*
X117443333Y-77512933D01*
X118597680Y-77512933D01*
X118597680Y-78351627D01*
X118918634Y-79126479D01*
X119511681Y-79719526D01*
X120286533Y-80040480D01*
X121125227Y-80040480D01*
X121900079Y-79719526D01*
X122493126Y-79126479D01*
X122814080Y-78351627D01*
X122814080Y-77512933D01*
X122493126Y-76738081D01*
X121900079Y-76145034D01*
X121125227Y-75824080D01*
X120286533Y-75824080D01*
X119511681Y-76145034D01*
X118918634Y-76738081D01*
X118597680Y-77512933D01*
X117443333Y-77512933D01*
X117468646Y-77263737D01*
X117668071Y-76627369D01*
X117991379Y-76044105D01*
X118425368Y-75537761D01*
X118952305Y-75129027D01*
X119550673Y-74834593D01*
X120204487Y-74664288D01*
X120728070Y-74624000D01*
X209564836Y-74624000D01*
X210264263Y-74695046D01*
X210264263Y-74695046D01*
G37*
X210264263Y-74695046D02*
X210900631Y-74894471D01*
X211483895Y-75217779D01*
X211990239Y-75651768D01*
X212398973Y-76178705D01*
X212693407Y-76777073D01*
X212863712Y-77430887D01*
X212904001Y-77954483D01*
X212904001Y-80801899D01*
X212882655Y-80750365D01*
X212619635Y-80487345D01*
X212275983Y-80345000D01*
X211904017Y-80345000D01*
X211560365Y-80487345D01*
X211297345Y-80750365D01*
X211155000Y-81094017D01*
X211155000Y-81465983D01*
X211251800Y-81699680D01*
X211251801Y-82614384D01*
X211232307Y-82594890D01*
X210668130Y-82361200D01*
X210057470Y-82361200D01*
X209493293Y-82594890D01*
X209061490Y-83026693D01*
X208827800Y-83590870D01*
X208827800Y-84201530D01*
X209061490Y-84765707D01*
X209230708Y-84934925D01*
X209215035Y-84938043D01*
X209004991Y-85078391D01*
X208864643Y-85288435D01*
X208815360Y-85536200D01*
X208815360Y-87336200D01*
X208864643Y-87583965D01*
X209004991Y-87794009D01*
X209215035Y-87934357D01*
X209462800Y-87983640D01*
X211251800Y-87983640D01*
X211251801Y-91758384D01*
X211232307Y-91738890D01*
X210668130Y-91505200D01*
X210057470Y-91505200D01*
X209493293Y-91738890D01*
X209061490Y-92170693D01*
X208827800Y-92734870D01*
X208827800Y-93345530D01*
X209061490Y-93909707D01*
X209230708Y-94078925D01*
X209215035Y-94082043D01*
X209004991Y-94222391D01*
X208864643Y-94432435D01*
X208815360Y-94680200D01*
X208815360Y-96480200D01*
X208864643Y-96727965D01*
X209004991Y-96938009D01*
X209215035Y-97078357D01*
X209462800Y-97127640D01*
X211251800Y-97127640D01*
X211251801Y-100902384D01*
X211232307Y-100882890D01*
X210668130Y-100649200D01*
X210057470Y-100649200D01*
X209493293Y-100882890D01*
X209061490Y-101314693D01*
X208827800Y-101878870D01*
X208827800Y-102489530D01*
X209061490Y-103053707D01*
X209230708Y-103222925D01*
X209215035Y-103226043D01*
X209004991Y-103366391D01*
X208864643Y-103576435D01*
X208815360Y-103824200D01*
X208815360Y-105624200D01*
X208864643Y-105871965D01*
X209004991Y-106082009D01*
X209215035Y-106222357D01*
X209462800Y-106271640D01*
X211251800Y-106271640D01*
X211251801Y-118682384D01*
X211232307Y-118662890D01*
X210668130Y-118429200D01*
X210057470Y-118429200D01*
X209493293Y-118662890D01*
X209061490Y-119094693D01*
X208827800Y-119658870D01*
X208827800Y-120269530D01*
X209061490Y-120833707D01*
X209230708Y-121002925D01*
X209215035Y-121006043D01*
X209004991Y-121146391D01*
X208864643Y-121356435D01*
X208815360Y-121604200D01*
X208815360Y-123404200D01*
X208864643Y-123651965D01*
X209004991Y-123862009D01*
X209215035Y-124002357D01*
X209462800Y-124051640D01*
X211262800Y-124051640D01*
X211510565Y-124002357D01*
X211720609Y-123862009D01*
X211860957Y-123651965D01*
X211910240Y-123404200D01*
X211910240Y-121604200D01*
X211860957Y-121356435D01*
X211720609Y-121146391D01*
X211510565Y-121006043D01*
X211494892Y-121002925D01*
X211664110Y-120833707D01*
X211677078Y-120802400D01*
X212007446Y-120802400D01*
X212090000Y-120818821D01*
X212172554Y-120802400D01*
X212417049Y-120753767D01*
X212694308Y-120568508D01*
X212879567Y-120291249D01*
X212904000Y-120168414D01*
X212904000Y-140222836D01*
X212832954Y-140922264D01*
X212633529Y-141558631D01*
X212310220Y-142141897D01*
X211876230Y-142648241D01*
X211349292Y-143056976D01*
X210750929Y-143351405D01*
X210097114Y-143521712D01*
X209573530Y-143562000D01*
X120736764Y-143562000D01*
X120037336Y-143490954D01*
X119400969Y-143291529D01*
X118817703Y-142968220D01*
X118311359Y-142534230D01*
X117902624Y-142007292D01*
X117608195Y-141408929D01*
X117437888Y-140755114D01*
X117397600Y-140231530D01*
X117397600Y-139834373D01*
X118597680Y-139834373D01*
X118597680Y-140673067D01*
X118918634Y-141447919D01*
X119511681Y-142040966D01*
X120286533Y-142361920D01*
X121125227Y-142361920D01*
X121900079Y-142040966D01*
X122493126Y-141447919D01*
X122814080Y-140673067D01*
X122814080Y-139834373D01*
X122493126Y-139059521D01*
X121900079Y-138466474D01*
X121125227Y-138145520D01*
X120286533Y-138145520D01*
X119511681Y-138466474D01*
X118918634Y-139059521D01*
X118597680Y-139834373D01*
X117397600Y-139834373D01*
X117397600Y-85536200D01*
X118391360Y-85536200D01*
X118391360Y-87336200D01*
X118440643Y-87583965D01*
X118580991Y-87794009D01*
X118791035Y-87934357D01*
X119038800Y-87983640D01*
X120827800Y-87983640D01*
X120827801Y-119805442D01*
X120827800Y-119805447D01*
X120827801Y-124377442D01*
X120827800Y-124377447D01*
X120827801Y-135216318D01*
X120731000Y-135450017D01*
X120731000Y-135821983D01*
X120873345Y-136165635D01*
X121136365Y-136428655D01*
X121480017Y-136571000D01*
X121851983Y-136571000D01*
X122195635Y-136428655D01*
X122458655Y-136165635D01*
X122601000Y-135821983D01*
X122601000Y-135450017D01*
X122504200Y-135216321D01*
X122504200Y-85536200D01*
X124995360Y-85536200D01*
X124995360Y-87336200D01*
X125044643Y-87583965D01*
X125184991Y-87794009D01*
X125395035Y-87934357D01*
X125642800Y-87983640D01*
X127431800Y-87983640D01*
X127431801Y-118682384D01*
X127412307Y-118662890D01*
X126848130Y-118429200D01*
X126237470Y-118429200D01*
X125673293Y-118662890D01*
X125241490Y-119094693D01*
X125007800Y-119658870D01*
X125007800Y-120269530D01*
X125241490Y-120833707D01*
X125410708Y-121002925D01*
X125395035Y-121006043D01*
X125184991Y-121146391D01*
X125044643Y-121356435D01*
X124995360Y-121604200D01*
X124995360Y-123404200D01*
X125044643Y-123651965D01*
X125184991Y-123862009D01*
X125395035Y-124002357D01*
X125642800Y-124051640D01*
X127431801Y-124051640D01*
X127431801Y-124377446D01*
X127431800Y-137248321D01*
X127335000Y-137482017D01*
X127335000Y-137853983D01*
X127477345Y-138197635D01*
X127740365Y-138460655D01*
X128084017Y-138603000D01*
X128455983Y-138603000D01*
X128799635Y-138460655D01*
X129062655Y-138197635D01*
X129205000Y-137853983D01*
X129205000Y-137482017D01*
X129108200Y-137248321D01*
X129108200Y-120046754D01*
X129124621Y-119964200D01*
X129108200Y-119881646D01*
X129108200Y-85536200D01*
X131599360Y-85536200D01*
X131599360Y-87336200D01*
X131648643Y-87583965D01*
X131788991Y-87794009D01*
X131999035Y-87934357D01*
X132246800Y-87983640D01*
X134035800Y-87983640D01*
X134035801Y-100902384D01*
X134016307Y-100882890D01*
X133452130Y-100649200D01*
X132841470Y-100649200D01*
X132277293Y-100882890D01*
X131845490Y-101314693D01*
X131611800Y-101878870D01*
X131611800Y-102489530D01*
X131845490Y-103053707D01*
X132014708Y-103222925D01*
X131999035Y-103226043D01*
X131788991Y-103366391D01*
X131648643Y-103576435D01*
X131599360Y-103824200D01*
X131599360Y-105624200D01*
X131648643Y-105871965D01*
X131788991Y-106082009D01*
X131999035Y-106222357D01*
X132246800Y-106271640D01*
X134035800Y-106271640D01*
X134035801Y-118682384D01*
X134016307Y-118662890D01*
X133452130Y-118429200D01*
X132841470Y-118429200D01*
X132277293Y-118662890D01*
X131845490Y-119094693D01*
X131611800Y-119658870D01*
X131611800Y-120269530D01*
X131845490Y-120833707D01*
X132014708Y-121002925D01*
X131999035Y-121006043D01*
X131788991Y-121146391D01*
X131648643Y-121356435D01*
X131599360Y-121604200D01*
X131599360Y-123404200D01*
X131648643Y-123651965D01*
X131788991Y-123862009D01*
X131999035Y-124002357D01*
X132246800Y-124051640D01*
X134035801Y-124051640D01*
X134035801Y-124377442D01*
X134035800Y-124377447D01*
X134035801Y-133184318D01*
X133939000Y-133418017D01*
X133939000Y-133789983D01*
X134081345Y-134133635D01*
X134344365Y-134396655D01*
X134688017Y-134539000D01*
X135059983Y-134539000D01*
X135403635Y-134396655D01*
X135666655Y-134133635D01*
X135809000Y-133789983D01*
X135809000Y-133418017D01*
X135712200Y-133184321D01*
X135712200Y-120046754D01*
X135728621Y-119964200D01*
X135712200Y-119881646D01*
X135712200Y-102266754D01*
X135728621Y-102184200D01*
X135712200Y-102101646D01*
X135712200Y-85536200D01*
X138203360Y-85536200D01*
X138203360Y-87336200D01*
X138252643Y-87583965D01*
X138392991Y-87794009D01*
X138603035Y-87934357D01*
X138850800Y-87983640D01*
X140639800Y-87983640D01*
X140639801Y-91758384D01*
X140620307Y-91738890D01*
X140056130Y-91505200D01*
X139445470Y-91505200D01*
X138881293Y-91738890D01*
X138449490Y-92170693D01*
X138215800Y-92734870D01*
X138215800Y-93345530D01*
X138449490Y-93909707D01*
X138618708Y-94078925D01*
X138603035Y-94082043D01*
X138392991Y-94222391D01*
X138252643Y-94432435D01*
X138203360Y-94680200D01*
X138203360Y-96480200D01*
X138252643Y-96727965D01*
X138392991Y-96938009D01*
X138603035Y-97078357D01*
X138850800Y-97127640D01*
X140639800Y-97127640D01*
X140639801Y-100902384D01*
X140620307Y-100882890D01*
X140056130Y-100649200D01*
X139445470Y-100649200D01*
X138881293Y-100882890D01*
X138449490Y-101314693D01*
X138215800Y-101878870D01*
X138215800Y-102489530D01*
X138449490Y-103053707D01*
X138618708Y-103222925D01*
X138603035Y-103226043D01*
X138392991Y-103366391D01*
X138252643Y-103576435D01*
X138203360Y-103824200D01*
X138203360Y-105624200D01*
X138252643Y-105871965D01*
X138392991Y-106082009D01*
X138603035Y-106222357D01*
X138850800Y-106271640D01*
X140639800Y-106271640D01*
X140639800Y-106992893D01*
X140591985Y-106945078D01*
X140046185Y-106719000D01*
X139455415Y-106719000D01*
X138909615Y-106945078D01*
X138491878Y-107362815D01*
X138265800Y-107908615D01*
X138265800Y-108499385D01*
X138491878Y-109045185D01*
X138909615Y-109462922D01*
X138936360Y-109474000D01*
X138909615Y-109485078D01*
X138491878Y-109902815D01*
X138265800Y-110448615D01*
X138265800Y-111039385D01*
X138491878Y-111585185D01*
X138909615Y-112002922D01*
X138936360Y-112014000D01*
X138909615Y-112025078D01*
X138491878Y-112442815D01*
X138265800Y-112988615D01*
X138265800Y-113579385D01*
X138491878Y-114125185D01*
X138909615Y-114542922D01*
X139455415Y-114769000D01*
X140046185Y-114769000D01*
X140591985Y-114542922D01*
X140639801Y-114495106D01*
X140639801Y-118682384D01*
X140620307Y-118662890D01*
X140056130Y-118429200D01*
X139445470Y-118429200D01*
X138881293Y-118662890D01*
X138449490Y-119094693D01*
X138215800Y-119658870D01*
X138215800Y-120269530D01*
X138449490Y-120833707D01*
X138618708Y-121002925D01*
X138603035Y-121006043D01*
X138392991Y-121146391D01*
X138252643Y-121356435D01*
X138203360Y-121604200D01*
X138203360Y-123404200D01*
X138252643Y-123651965D01*
X138392991Y-123862009D01*
X138603035Y-124002357D01*
X138850800Y-124051640D01*
X140639800Y-124051640D01*
X140639800Y-124542554D01*
X140639801Y-124542559D01*
X140639800Y-132168320D01*
X140543000Y-132402017D01*
X140543000Y-132773983D01*
X140685345Y-133117635D01*
X140948365Y-133380655D01*
X141292017Y-133523000D01*
X141663983Y-133523000D01*
X142007635Y-133380655D01*
X142270655Y-133117635D01*
X142413000Y-132773983D01*
X142413000Y-132402017D01*
X142316200Y-132168321D01*
X142316200Y-120046754D01*
X142332621Y-119964200D01*
X142316200Y-119881646D01*
X142316200Y-102266754D01*
X142332621Y-102184200D01*
X142316200Y-102101646D01*
X142316200Y-93122753D01*
X142332621Y-93040200D01*
X142316200Y-92957646D01*
X142316200Y-85536200D01*
X144807360Y-85536200D01*
X144807360Y-87336200D01*
X144856643Y-87583965D01*
X144996991Y-87794009D01*
X145207035Y-87934357D01*
X145454800Y-87983640D01*
X147243800Y-87983640D01*
X147243801Y-91758384D01*
X147224307Y-91738890D01*
X146660130Y-91505200D01*
X146049470Y-91505200D01*
X145485293Y-91738890D01*
X145053490Y-92170693D01*
X144819800Y-92734870D01*
X144819800Y-93345530D01*
X145053490Y-93909707D01*
X145222708Y-94078925D01*
X145207035Y-94082043D01*
X144996991Y-94222391D01*
X144856643Y-94432435D01*
X144807360Y-94680200D01*
X144807360Y-96480200D01*
X144856643Y-96727965D01*
X144996991Y-96938009D01*
X145207035Y-97078357D01*
X145454800Y-97127640D01*
X147243800Y-97127640D01*
X147243801Y-100902384D01*
X147224307Y-100882890D01*
X146660130Y-100649200D01*
X146049470Y-100649200D01*
X145485293Y-100882890D01*
X145053490Y-101314693D01*
X144819800Y-101878870D01*
X144819800Y-102489530D01*
X145053490Y-103053707D01*
X145222708Y-103222925D01*
X145207035Y-103226043D01*
X144996991Y-103366391D01*
X144856643Y-103576435D01*
X144807360Y-103824200D01*
X144807360Y-105624200D01*
X144856643Y-105871965D01*
X144996991Y-106082009D01*
X145207035Y-106222357D01*
X145454800Y-106271640D01*
X147243800Y-106271640D01*
X147243801Y-118682384D01*
X147224307Y-118662890D01*
X146660130Y-118429200D01*
X146049470Y-118429200D01*
X145485293Y-118662890D01*
X145053490Y-119094693D01*
X144819800Y-119658870D01*
X144819800Y-120269530D01*
X145053490Y-120833707D01*
X145222708Y-121002925D01*
X145207035Y-121006043D01*
X144996991Y-121146391D01*
X144856643Y-121356435D01*
X144807360Y-121604200D01*
X144807360Y-123404200D01*
X144856643Y-123651965D01*
X144996991Y-123862009D01*
X145207035Y-124002357D01*
X145454800Y-124051640D01*
X147243801Y-124051640D01*
X147243800Y-134200320D01*
X147147000Y-134434017D01*
X147147000Y-134805983D01*
X147289345Y-135149635D01*
X147552365Y-135412655D01*
X147896017Y-135555000D01*
X148267983Y-135555000D01*
X148611635Y-135412655D01*
X148874655Y-135149635D01*
X149017000Y-134805983D01*
X149017000Y-134434017D01*
X148920200Y-134200321D01*
X148920200Y-120046754D01*
X148936621Y-119964200D01*
X148920200Y-119881646D01*
X148920200Y-102266754D01*
X148936621Y-102184200D01*
X148920200Y-102101646D01*
X148920200Y-93122753D01*
X148936621Y-93040200D01*
X148920200Y-92957646D01*
X148920200Y-85536200D01*
X151411360Y-85536200D01*
X151411360Y-87336200D01*
X151460643Y-87583965D01*
X151600991Y-87794009D01*
X151811035Y-87934357D01*
X152058800Y-87983640D01*
X153847800Y-87983640D01*
X153847801Y-91758384D01*
X153828307Y-91738890D01*
X153264130Y-91505200D01*
X152653470Y-91505200D01*
X152089293Y-91738890D01*
X151657490Y-92170693D01*
X151423800Y-92734870D01*
X151423800Y-93345530D01*
X151657490Y-93909707D01*
X151826708Y-94078925D01*
X151811035Y-94082043D01*
X151600991Y-94222391D01*
X151460643Y-94432435D01*
X151411360Y-94680200D01*
X151411360Y-96480200D01*
X151460643Y-96727965D01*
X151600991Y-96938009D01*
X151811035Y-97078357D01*
X152058800Y-97127640D01*
X153847800Y-97127640D01*
X153847801Y-100902384D01*
X153828307Y-100882890D01*
X153264130Y-100649200D01*
X152653470Y-100649200D01*
X152089293Y-100882890D01*
X151657490Y-101314693D01*
X151423800Y-101878870D01*
X151423800Y-102489530D01*
X151657490Y-103053707D01*
X151826708Y-103222925D01*
X151811035Y-103226043D01*
X151600991Y-103366391D01*
X151460643Y-103576435D01*
X151411360Y-103824200D01*
X151411360Y-105624200D01*
X151460643Y-105871965D01*
X151600991Y-106082009D01*
X151811035Y-106222357D01*
X152058800Y-106271640D01*
X153847800Y-106271640D01*
X153847801Y-118682384D01*
X153828307Y-118662890D01*
X153264130Y-118429200D01*
X152653470Y-118429200D01*
X152089293Y-118662890D01*
X151657490Y-119094693D01*
X151423800Y-119658870D01*
X151423800Y-120269530D01*
X151657490Y-120833707D01*
X151826708Y-121002925D01*
X151811035Y-121006043D01*
X151600991Y-121146391D01*
X151460643Y-121356435D01*
X151411360Y-121604200D01*
X151411360Y-123404200D01*
X151460643Y-123651965D01*
X151600991Y-123862009D01*
X151811035Y-124002357D01*
X152058800Y-124051640D01*
X153847801Y-124051640D01*
X153847801Y-124377442D01*
X153847800Y-124377447D01*
X153847801Y-136232318D01*
X153751000Y-136466017D01*
X153751000Y-136837983D01*
X153893345Y-137181635D01*
X154156365Y-137444655D01*
X154500017Y-137587000D01*
X154871983Y-137587000D01*
X155215635Y-137444655D01*
X155478655Y-137181635D01*
X155621000Y-136837983D01*
X155621000Y-136466017D01*
X155524200Y-136232321D01*
X155524200Y-120046754D01*
X155540621Y-119964200D01*
X155524200Y-119881646D01*
X155524200Y-110558017D01*
X155529000Y-110558017D01*
X155529000Y-110929983D01*
X155625800Y-111163679D01*
X155625801Y-119348242D01*
X155625800Y-119348247D01*
X155625801Y-130644318D01*
X155529000Y-130878017D01*
X155529000Y-131249983D01*
X155671345Y-131593635D01*
X155934365Y-131856655D01*
X156278017Y-131999000D01*
X156641801Y-131999000D01*
X156641801Y-140042318D01*
X156545000Y-140276017D01*
X156545000Y-140647983D01*
X156687345Y-140991635D01*
X156950365Y-141254655D01*
X157294017Y-141397000D01*
X157665983Y-141397000D01*
X158009635Y-141254655D01*
X158272655Y-140991635D01*
X158415000Y-140647983D01*
X158415000Y-140276017D01*
X158318200Y-140042321D01*
X158318200Y-139834373D01*
X207487520Y-139834373D01*
X207487520Y-140673067D01*
X207808474Y-141447919D01*
X208401521Y-142040966D01*
X209176373Y-142361920D01*
X210015067Y-142361920D01*
X210789919Y-142040966D01*
X211382966Y-141447919D01*
X211703920Y-140673067D01*
X211703920Y-139834373D01*
X211382966Y-139059521D01*
X210789919Y-138466474D01*
X210015067Y-138145520D01*
X209176373Y-138145520D01*
X208401521Y-138466474D01*
X207808474Y-139059521D01*
X207487520Y-139834373D01*
X158318200Y-139834373D01*
X158318200Y-123937653D01*
X158415035Y-124002357D01*
X158662800Y-124051640D01*
X160451801Y-124051640D01*
X160451801Y-124377442D01*
X160451800Y-124377447D01*
X160451801Y-138264318D01*
X160355000Y-138498017D01*
X160355000Y-138869983D01*
X160497345Y-139213635D01*
X160760365Y-139476655D01*
X161104017Y-139619000D01*
X161475983Y-139619000D01*
X161819635Y-139476655D01*
X162082655Y-139213635D01*
X162225000Y-138869983D01*
X162225000Y-138498017D01*
X162128200Y-138264321D01*
X162128200Y-126560017D01*
X162133000Y-126560017D01*
X162133000Y-126931983D01*
X162275345Y-127275635D01*
X162538365Y-127538655D01*
X162882017Y-127681000D01*
X163253983Y-127681000D01*
X163487679Y-127584200D01*
X167134810Y-127584200D01*
X167081691Y-127619693D01*
X167064766Y-127645023D01*
X166856365Y-127731345D01*
X166593345Y-127994365D01*
X166451000Y-128338017D01*
X166451000Y-128709983D01*
X166593345Y-129053635D01*
X166856365Y-129316655D01*
X167200017Y-129459000D01*
X167571983Y-129459000D01*
X167915635Y-129316655D01*
X168124090Y-129108200D01*
X171469051Y-129108200D01*
X171551600Y-129124620D01*
X171634149Y-129108200D01*
X171634154Y-129108200D01*
X171878649Y-129059567D01*
X172155908Y-128874308D01*
X172202672Y-128804321D01*
X172507938Y-128499055D01*
X172741635Y-128402255D01*
X173004655Y-128139235D01*
X173147000Y-127795583D01*
X173147000Y-127423617D01*
X173004655Y-127079965D01*
X172741635Y-126816945D01*
X172397983Y-126674600D01*
X172026017Y-126674600D01*
X171682365Y-126816945D01*
X171419345Y-127079965D01*
X171322545Y-127313662D01*
X171204407Y-127431800D01*
X169292490Y-127431800D01*
X169448655Y-127275635D01*
X169591000Y-126931983D01*
X169591000Y-126857275D01*
X169740017Y-126919000D01*
X170111983Y-126919000D01*
X170455635Y-126776655D01*
X170718655Y-126513635D01*
X170861000Y-126169983D01*
X170861000Y-126060200D01*
X174586321Y-126060200D01*
X174820017Y-126157000D01*
X175191983Y-126157000D01*
X175437801Y-126055179D01*
X175437801Y-128104318D01*
X175341000Y-128338017D01*
X175341000Y-128709983D01*
X175483345Y-129053635D01*
X175746365Y-129316655D01*
X176090017Y-129459000D01*
X176461983Y-129459000D01*
X176805635Y-129316655D01*
X177068655Y-129053635D01*
X177211000Y-128709983D01*
X177211000Y-128338017D01*
X177114200Y-128104321D01*
X177114200Y-114331749D01*
X177130620Y-114249200D01*
X177114200Y-114166651D01*
X177114200Y-114166646D01*
X177065567Y-113922151D01*
X176880308Y-113644892D01*
X176810324Y-113598131D01*
X175961872Y-112749678D01*
X175915108Y-112679692D01*
X175637849Y-112494433D01*
X175393354Y-112445800D01*
X175393349Y-112445800D01*
X175310800Y-112429380D01*
X175228251Y-112445800D01*
X164249679Y-112445800D01*
X164015983Y-112349000D01*
X163644017Y-112349000D01*
X163300365Y-112491345D01*
X163037345Y-112754365D01*
X162895000Y-113098017D01*
X162895000Y-113469983D01*
X163037345Y-113813635D01*
X163300365Y-114076655D01*
X163644017Y-114219000D01*
X164015983Y-114219000D01*
X164249679Y-114122200D01*
X174963607Y-114122200D01*
X175437800Y-114596394D01*
X175437801Y-124388821D01*
X175191983Y-124287000D01*
X174820017Y-124287000D01*
X174586321Y-124383800D01*
X168059679Y-124383800D01*
X167825983Y-124287000D01*
X167454017Y-124287000D01*
X167110365Y-124429345D01*
X166847345Y-124692365D01*
X166705000Y-125036017D01*
X166705000Y-125145800D01*
X165011679Y-125145800D01*
X164777983Y-125049000D01*
X164406017Y-125049000D01*
X164062365Y-125191345D01*
X163799345Y-125454365D01*
X163657000Y-125798017D01*
X163657000Y-125907800D01*
X163487679Y-125907800D01*
X163253983Y-125811000D01*
X162882017Y-125811000D01*
X162538365Y-125953345D01*
X162275345Y-126216365D01*
X162133000Y-126560017D01*
X162128200Y-126560017D01*
X162128200Y-120046754D01*
X162144621Y-119964200D01*
X162128200Y-119881646D01*
X162128200Y-107908615D01*
X189065800Y-107908615D01*
X189065800Y-108499385D01*
X189291878Y-109045185D01*
X189709615Y-109462922D01*
X190255415Y-109689000D01*
X190846185Y-109689000D01*
X191391985Y-109462922D01*
X191809722Y-109045185D01*
X192035800Y-108499385D01*
X192035800Y-107908615D01*
X191809722Y-107362815D01*
X191391985Y-106945078D01*
X190846185Y-106719000D01*
X190255415Y-106719000D01*
X189709615Y-106945078D01*
X189291878Y-107362815D01*
X189065800Y-107908615D01*
X162128200Y-107908615D01*
X162128200Y-102266754D01*
X162144621Y-102184200D01*
X162128200Y-102101646D01*
X162128200Y-94680200D01*
X175795360Y-94680200D01*
X175795360Y-96480200D01*
X175844643Y-96727965D01*
X175984991Y-96938009D01*
X176195035Y-97078357D01*
X176442800Y-97127640D01*
X178231800Y-97127640D01*
X178231801Y-100902384D01*
X178212307Y-100882890D01*
X177648130Y-100649200D01*
X177037470Y-100649200D01*
X176473293Y-100882890D01*
X176041490Y-101314693D01*
X175807800Y-101878870D01*
X175807800Y-102489530D01*
X176041490Y-103053707D01*
X176210708Y-103222925D01*
X176195035Y-103226043D01*
X175984991Y-103366391D01*
X175844643Y-103576435D01*
X175795360Y-103824200D01*
X175795360Y-105624200D01*
X175844643Y-105871965D01*
X175984991Y-106082009D01*
X176195035Y-106222357D01*
X176442800Y-106271640D01*
X178242800Y-106271640D01*
X178490565Y-106222357D01*
X178700609Y-106082009D01*
X178840957Y-105871965D01*
X178890240Y-105624200D01*
X178890240Y-103824200D01*
X178840957Y-103576435D01*
X178700609Y-103366391D01*
X178490565Y-103226043D01*
X178474892Y-103222925D01*
X178644110Y-103053707D01*
X178657078Y-103022400D01*
X178987446Y-103022400D01*
X179070000Y-103038821D01*
X179152554Y-103022400D01*
X179397049Y-102973767D01*
X179674308Y-102788508D01*
X179859567Y-102511249D01*
X179924621Y-102184200D01*
X179908200Y-102101646D01*
X179908200Y-93122753D01*
X179924621Y-93040200D01*
X179908200Y-92957646D01*
X179908200Y-85536200D01*
X182399360Y-85536200D01*
X182399360Y-87336200D01*
X182448643Y-87583965D01*
X182588991Y-87794009D01*
X182799035Y-87934357D01*
X183046800Y-87983640D01*
X184835800Y-87983640D01*
X184835801Y-91758384D01*
X184816307Y-91738890D01*
X184252130Y-91505200D01*
X183641470Y-91505200D01*
X183077293Y-91738890D01*
X182645490Y-92170693D01*
X182411800Y-92734870D01*
X182411800Y-93345530D01*
X182645490Y-93909707D01*
X182814708Y-94078925D01*
X182799035Y-94082043D01*
X182588991Y-94222391D01*
X182448643Y-94432435D01*
X182399360Y-94680200D01*
X182399360Y-96480200D01*
X182448643Y-96727965D01*
X182588991Y-96938009D01*
X182799035Y-97078357D01*
X183046800Y-97127640D01*
X184835800Y-97127640D01*
X184835801Y-100902384D01*
X184816307Y-100882890D01*
X184252130Y-100649200D01*
X183641470Y-100649200D01*
X183077293Y-100882890D01*
X182645490Y-101314693D01*
X182411800Y-101878870D01*
X182411800Y-102489530D01*
X182645490Y-103053707D01*
X182814708Y-103222925D01*
X182799035Y-103226043D01*
X182588991Y-103366391D01*
X182448643Y-103576435D01*
X182399360Y-103824200D01*
X182399360Y-105624200D01*
X182448643Y-105871965D01*
X182588991Y-106082009D01*
X182799035Y-106222357D01*
X183046800Y-106271640D01*
X184846800Y-106271640D01*
X185094565Y-106222357D01*
X185304609Y-106082009D01*
X185444957Y-105871965D01*
X185494240Y-105624200D01*
X185494240Y-103824200D01*
X185444957Y-103576435D01*
X185304609Y-103366391D01*
X185094565Y-103226043D01*
X185078892Y-103222925D01*
X185248110Y-103053707D01*
X185261078Y-103022400D01*
X185591446Y-103022400D01*
X185674000Y-103038821D01*
X185756554Y-103022400D01*
X186001049Y-102973767D01*
X186278308Y-102788508D01*
X186463567Y-102511249D01*
X186528621Y-102184200D01*
X186512200Y-102101646D01*
X186512200Y-93122753D01*
X186528621Y-93040200D01*
X186512200Y-92957646D01*
X186512200Y-85536200D01*
X189003360Y-85536200D01*
X189003360Y-87336200D01*
X189052643Y-87583965D01*
X189192991Y-87794009D01*
X189403035Y-87934357D01*
X189650800Y-87983640D01*
X191439800Y-87983640D01*
X191439801Y-91758384D01*
X191420307Y-91738890D01*
X190856130Y-91505200D01*
X190245470Y-91505200D01*
X189681293Y-91738890D01*
X189249490Y-92170693D01*
X189015800Y-92734870D01*
X189015800Y-93345530D01*
X189249490Y-93909707D01*
X189418708Y-94078925D01*
X189403035Y-94082043D01*
X189192991Y-94222391D01*
X189052643Y-94432435D01*
X189003360Y-94680200D01*
X189003360Y-96480200D01*
X189052643Y-96727965D01*
X189192991Y-96938009D01*
X189403035Y-97078357D01*
X189650800Y-97127640D01*
X191439800Y-97127640D01*
X191439801Y-100902384D01*
X191420307Y-100882890D01*
X190856130Y-100649200D01*
X190245470Y-100649200D01*
X189681293Y-100882890D01*
X189249490Y-101314693D01*
X189015800Y-101878870D01*
X189015800Y-102489530D01*
X189249490Y-103053707D01*
X189418708Y-103222925D01*
X189403035Y-103226043D01*
X189192991Y-103366391D01*
X189052643Y-103576435D01*
X189003360Y-103824200D01*
X189003360Y-105624200D01*
X189052643Y-105871965D01*
X189192991Y-106082009D01*
X189403035Y-106222357D01*
X189650800Y-106271640D01*
X191450800Y-106271640D01*
X191698565Y-106222357D01*
X191908609Y-106082009D01*
X192048957Y-105871965D01*
X192098240Y-105624200D01*
X192098240Y-103824200D01*
X192048957Y-103576435D01*
X191908609Y-103366391D01*
X191698565Y-103226043D01*
X191682892Y-103222925D01*
X191852110Y-103053707D01*
X191865078Y-103022400D01*
X192195446Y-103022400D01*
X192278000Y-103038821D01*
X192360554Y-103022400D01*
X192605049Y-102973767D01*
X192882308Y-102788508D01*
X193067567Y-102511249D01*
X193132621Y-102184200D01*
X193116200Y-102101646D01*
X193116200Y-93122753D01*
X193132621Y-93040200D01*
X193116200Y-92957646D01*
X193116200Y-85536200D01*
X195607360Y-85536200D01*
X195607360Y-87336200D01*
X195656643Y-87583965D01*
X195796991Y-87794009D01*
X196007035Y-87934357D01*
X196254800Y-87983640D01*
X198043800Y-87983640D01*
X198043801Y-91758384D01*
X198024307Y-91738890D01*
X197460130Y-91505200D01*
X196849470Y-91505200D01*
X196285293Y-91738890D01*
X195853490Y-92170693D01*
X195619800Y-92734870D01*
X195619800Y-93345530D01*
X195853490Y-93909707D01*
X196022708Y-94078925D01*
X196007035Y-94082043D01*
X195796991Y-94222391D01*
X195656643Y-94432435D01*
X195607360Y-94680200D01*
X195607360Y-96480200D01*
X195656643Y-96727965D01*
X195796991Y-96938009D01*
X196007035Y-97078357D01*
X196254800Y-97127640D01*
X198043800Y-97127640D01*
X198043801Y-100902384D01*
X198024307Y-100882890D01*
X197460130Y-100649200D01*
X196849470Y-100649200D01*
X196285293Y-100882890D01*
X195853490Y-101314693D01*
X195619800Y-101878870D01*
X195619800Y-102489530D01*
X195853490Y-103053707D01*
X196022708Y-103222925D01*
X196007035Y-103226043D01*
X195796991Y-103366391D01*
X195656643Y-103576435D01*
X195607360Y-103824200D01*
X195607360Y-105624200D01*
X195656643Y-105871965D01*
X195796991Y-106082009D01*
X196007035Y-106222357D01*
X196254800Y-106271640D01*
X198043800Y-106271640D01*
X198043801Y-118682384D01*
X198024307Y-118662890D01*
X197460130Y-118429200D01*
X196849470Y-118429200D01*
X196285293Y-118662890D01*
X195853490Y-119094693D01*
X195619800Y-119658870D01*
X195619800Y-120269530D01*
X195853490Y-120833707D01*
X196022708Y-121002925D01*
X196007035Y-121006043D01*
X195796991Y-121146391D01*
X195656643Y-121356435D01*
X195607360Y-121604200D01*
X195607360Y-123404200D01*
X195656643Y-123651965D01*
X195796991Y-123862009D01*
X196007035Y-124002357D01*
X196254800Y-124051640D01*
X198054800Y-124051640D01*
X198302565Y-124002357D01*
X198512609Y-123862009D01*
X198652957Y-123651965D01*
X198702240Y-123404200D01*
X198702240Y-121604200D01*
X198652957Y-121356435D01*
X198512609Y-121146391D01*
X198302565Y-121006043D01*
X198286892Y-121002925D01*
X198456110Y-120833707D01*
X198469078Y-120802400D01*
X198799446Y-120802400D01*
X198882000Y-120818821D01*
X198964554Y-120802400D01*
X199209049Y-120753767D01*
X199486308Y-120568508D01*
X199671567Y-120291249D01*
X199736621Y-119964200D01*
X199720200Y-119881646D01*
X199720200Y-102266754D01*
X199736621Y-102184200D01*
X199720200Y-102101646D01*
X199720200Y-93122753D01*
X199736621Y-93040200D01*
X199720200Y-92957646D01*
X199720200Y-85536200D01*
X202211360Y-85536200D01*
X202211360Y-87336200D01*
X202260643Y-87583965D01*
X202400991Y-87794009D01*
X202611035Y-87934357D01*
X202858800Y-87983640D01*
X204647800Y-87983640D01*
X204647801Y-91758384D01*
X204628307Y-91738890D01*
X204064130Y-91505200D01*
X203453470Y-91505200D01*
X202889293Y-91738890D01*
X202457490Y-92170693D01*
X202223800Y-92734870D01*
X202223800Y-93345530D01*
X202457490Y-93909707D01*
X202626708Y-94078925D01*
X202611035Y-94082043D01*
X202400991Y-94222391D01*
X202260643Y-94432435D01*
X202211360Y-94680200D01*
X202211360Y-96480200D01*
X202260643Y-96727965D01*
X202400991Y-96938009D01*
X202611035Y-97078357D01*
X202858800Y-97127640D01*
X204647800Y-97127640D01*
X204647801Y-100902384D01*
X204628307Y-100882890D01*
X204064130Y-100649200D01*
X203453470Y-100649200D01*
X202889293Y-100882890D01*
X202457490Y-101314693D01*
X202223800Y-101878870D01*
X202223800Y-102489530D01*
X202457490Y-103053707D01*
X202626708Y-103222925D01*
X202611035Y-103226043D01*
X202400991Y-103366391D01*
X202260643Y-103576435D01*
X202211360Y-103824200D01*
X202211360Y-105624200D01*
X202260643Y-105871965D01*
X202400991Y-106082009D01*
X202611035Y-106222357D01*
X202858800Y-106271640D01*
X204647800Y-106271640D01*
X204647801Y-118682384D01*
X204628307Y-118662890D01*
X204064130Y-118429200D01*
X203453470Y-118429200D01*
X202889293Y-118662890D01*
X202457490Y-119094693D01*
X202223800Y-119658870D01*
X202223800Y-120269530D01*
X202457490Y-120833707D01*
X202626708Y-121002925D01*
X202611035Y-121006043D01*
X202400991Y-121146391D01*
X202260643Y-121356435D01*
X202211360Y-121604200D01*
X202211360Y-123404200D01*
X202260643Y-123651965D01*
X202400991Y-123862009D01*
X202611035Y-124002357D01*
X202858800Y-124051640D01*
X204658800Y-124051640D01*
X204906565Y-124002357D01*
X205116609Y-123862009D01*
X205256957Y-123651965D01*
X205306240Y-123404200D01*
X205306240Y-121604200D01*
X205256957Y-121356435D01*
X205116609Y-121146391D01*
X204906565Y-121006043D01*
X204890892Y-121002925D01*
X205060110Y-120833707D01*
X205073078Y-120802400D01*
X205403446Y-120802400D01*
X205486000Y-120818821D01*
X205568554Y-120802400D01*
X205813049Y-120753767D01*
X206090308Y-120568508D01*
X206275567Y-120291249D01*
X206340621Y-119964200D01*
X206324200Y-119881646D01*
X206324200Y-102266754D01*
X206340621Y-102184200D01*
X206324200Y-102101646D01*
X206324200Y-93122753D01*
X206340621Y-93040200D01*
X206324200Y-92957646D01*
X206324200Y-83978753D01*
X206340621Y-83896200D01*
X206324200Y-83813646D01*
X206324200Y-80937679D01*
X206421000Y-80703983D01*
X206421000Y-80332017D01*
X206278655Y-79988365D01*
X206015635Y-79725345D01*
X205671983Y-79583000D01*
X205300017Y-79583000D01*
X204956365Y-79725345D01*
X204693345Y-79988365D01*
X204551000Y-80332017D01*
X204551000Y-80703983D01*
X204647800Y-80937679D01*
X204647801Y-82614384D01*
X204628307Y-82594890D01*
X204064130Y-82361200D01*
X203453470Y-82361200D01*
X202889293Y-82594890D01*
X202457490Y-83026693D01*
X202223800Y-83590870D01*
X202223800Y-84201530D01*
X202457490Y-84765707D01*
X202626708Y-84934925D01*
X202611035Y-84938043D01*
X202400991Y-85078391D01*
X202260643Y-85288435D01*
X202211360Y-85536200D01*
X199720200Y-85536200D01*
X199720200Y-83978753D01*
X199736621Y-83896200D01*
X199720200Y-83813646D01*
X199720200Y-80175679D01*
X199817000Y-79941983D01*
X199817000Y-79570017D01*
X199674655Y-79226365D01*
X199411635Y-78963345D01*
X199067983Y-78821000D01*
X198696017Y-78821000D01*
X198352365Y-78963345D01*
X198089345Y-79226365D01*
X197947000Y-79570017D01*
X197947000Y-79941983D01*
X198043801Y-80175682D01*
X198043800Y-82614383D01*
X198024307Y-82594890D01*
X197460130Y-82361200D01*
X196849470Y-82361200D01*
X196285293Y-82594890D01*
X195853490Y-83026693D01*
X195619800Y-83590870D01*
X195619800Y-84201530D01*
X195853490Y-84765707D01*
X196022708Y-84934925D01*
X196007035Y-84938043D01*
X195796991Y-85078391D01*
X195656643Y-85288435D01*
X195607360Y-85536200D01*
X193116200Y-85536200D01*
X193116200Y-83978753D01*
X193132621Y-83896200D01*
X193116200Y-83813646D01*
X193116200Y-79439079D01*
X193213000Y-79205383D01*
X193213000Y-78833417D01*
X193070655Y-78489765D01*
X192807635Y-78226745D01*
X192463983Y-78084400D01*
X192092017Y-78084400D01*
X191748365Y-78226745D01*
X191485345Y-78489765D01*
X191343000Y-78833417D01*
X191343000Y-79205383D01*
X191439801Y-79439082D01*
X191439800Y-82614383D01*
X191420307Y-82594890D01*
X190856130Y-82361200D01*
X190245470Y-82361200D01*
X189681293Y-82594890D01*
X189249490Y-83026693D01*
X189015800Y-83590870D01*
X189015800Y-84201530D01*
X189249490Y-84765707D01*
X189418708Y-84934925D01*
X189403035Y-84938043D01*
X189192991Y-85078391D01*
X189052643Y-85288435D01*
X189003360Y-85536200D01*
X186512200Y-85536200D01*
X186512200Y-83978753D01*
X186528621Y-83896200D01*
X186512200Y-83813646D01*
X186512200Y-78677079D01*
X186609000Y-78443383D01*
X186609000Y-78071417D01*
X186466655Y-77727765D01*
X186251823Y-77512933D01*
X207487520Y-77512933D01*
X207487520Y-78351627D01*
X207808474Y-79126479D01*
X208401521Y-79719526D01*
X209176373Y-80040480D01*
X210015067Y-80040480D01*
X210789919Y-79719526D01*
X211382966Y-79126479D01*
X211703920Y-78351627D01*
X211703920Y-77512933D01*
X211382966Y-76738081D01*
X210789919Y-76145034D01*
X210015067Y-75824080D01*
X209176373Y-75824080D01*
X208401521Y-76145034D01*
X207808474Y-76738081D01*
X207487520Y-77512933D01*
X186251823Y-77512933D01*
X186203635Y-77464745D01*
X185859983Y-77322400D01*
X185488017Y-77322400D01*
X185144365Y-77464745D01*
X184881345Y-77727765D01*
X184739000Y-78071417D01*
X184739000Y-78443383D01*
X184835801Y-78677082D01*
X184835800Y-82614383D01*
X184816307Y-82594890D01*
X184252130Y-82361200D01*
X183641470Y-82361200D01*
X183077293Y-82594890D01*
X182645490Y-83026693D01*
X182411800Y-83590870D01*
X182411800Y-84201530D01*
X182645490Y-84765707D01*
X182814708Y-84934925D01*
X182799035Y-84938043D01*
X182588991Y-85078391D01*
X182448643Y-85288435D01*
X182399360Y-85536200D01*
X179908200Y-85536200D01*
X179908200Y-77889679D01*
X180005000Y-77655983D01*
X180005000Y-77284017D01*
X179862655Y-76940365D01*
X179599635Y-76677345D01*
X179255983Y-76535000D01*
X178884017Y-76535000D01*
X178540365Y-76677345D01*
X178277345Y-76940365D01*
X178135000Y-77284017D01*
X178135000Y-77655983D01*
X178231801Y-77889682D01*
X178231800Y-91758383D01*
X178212307Y-91738890D01*
X177648130Y-91505200D01*
X177037470Y-91505200D01*
X176473293Y-91738890D01*
X176041490Y-92170693D01*
X175807800Y-92734870D01*
X175807800Y-93345530D01*
X176041490Y-93909707D01*
X176210708Y-94078925D01*
X176195035Y-94082043D01*
X175984991Y-94222391D01*
X175844643Y-94432435D01*
X175795360Y-94680200D01*
X162128200Y-94680200D01*
X162128200Y-93122753D01*
X162144621Y-93040200D01*
X162128200Y-92957646D01*
X162128200Y-83978753D01*
X162144621Y-83896200D01*
X162128200Y-83813646D01*
X162128200Y-81699679D01*
X162225000Y-81465983D01*
X162225000Y-81094017D01*
X162082655Y-80750365D01*
X161819635Y-80487345D01*
X161475983Y-80345000D01*
X161104017Y-80345000D01*
X160760365Y-80487345D01*
X160497345Y-80750365D01*
X160355000Y-81094017D01*
X160355000Y-81465983D01*
X160451801Y-81699681D01*
X160451800Y-82614383D01*
X160432307Y-82594890D01*
X159868130Y-82361200D01*
X159257470Y-82361200D01*
X158693293Y-82594890D01*
X158261490Y-83026693D01*
X158027800Y-83590870D01*
X158027800Y-84201530D01*
X158261490Y-84765707D01*
X158430708Y-84934925D01*
X158415035Y-84938043D01*
X158204991Y-85078391D01*
X158064643Y-85288435D01*
X158015360Y-85536200D01*
X158015360Y-87336200D01*
X158064643Y-87583965D01*
X158204991Y-87794009D01*
X158415035Y-87934357D01*
X158662800Y-87983640D01*
X160451800Y-87983640D01*
X160451801Y-91758384D01*
X160432307Y-91738890D01*
X159868130Y-91505200D01*
X159257470Y-91505200D01*
X158693293Y-91738890D01*
X158261490Y-92170693D01*
X158027800Y-92734870D01*
X158027800Y-93345530D01*
X158261490Y-93909707D01*
X158430708Y-94078925D01*
X158415035Y-94082043D01*
X158204991Y-94222391D01*
X158064643Y-94432435D01*
X158015360Y-94680200D01*
X158015360Y-96480200D01*
X158064643Y-96727965D01*
X158204991Y-96938009D01*
X158415035Y-97078357D01*
X158662800Y-97127640D01*
X160451800Y-97127640D01*
X160451801Y-100902384D01*
X160432307Y-100882890D01*
X159868130Y-100649200D01*
X159257470Y-100649200D01*
X158693293Y-100882890D01*
X158261490Y-101314693D01*
X158027800Y-101878870D01*
X158027800Y-102489530D01*
X158261490Y-103053707D01*
X158430708Y-103222925D01*
X158415035Y-103226043D01*
X158204991Y-103366391D01*
X158064643Y-103576435D01*
X158015360Y-103824200D01*
X158015360Y-105624200D01*
X158064643Y-105871965D01*
X158204991Y-106082009D01*
X158415035Y-106222357D01*
X158662800Y-106271640D01*
X160451800Y-106271640D01*
X160451801Y-118682384D01*
X160432307Y-118662890D01*
X159868130Y-118429200D01*
X159257470Y-118429200D01*
X158693293Y-118662890D01*
X158318200Y-119037983D01*
X158318200Y-108623679D01*
X158415000Y-108389983D01*
X158415000Y-108018017D01*
X158272655Y-107674365D01*
X158009635Y-107411345D01*
X157665983Y-107269000D01*
X157294017Y-107269000D01*
X156950365Y-107411345D01*
X156687345Y-107674365D01*
X156545000Y-108018017D01*
X156545000Y-108389983D01*
X156641800Y-108623679D01*
X156641800Y-109809000D01*
X156278017Y-109809000D01*
X155934365Y-109951345D01*
X155671345Y-110214365D01*
X155529000Y-110558017D01*
X155524200Y-110558017D01*
X155524200Y-102266754D01*
X155540621Y-102184200D01*
X155524200Y-102101646D01*
X155524200Y-93122753D01*
X155540621Y-93040200D01*
X155524200Y-92957646D01*
X155524200Y-83978753D01*
X155540621Y-83896200D01*
X155524200Y-83813646D01*
X155524200Y-80937679D01*
X155621000Y-80703983D01*
X155621000Y-80332017D01*
X155478655Y-79988365D01*
X155215635Y-79725345D01*
X154871983Y-79583000D01*
X154500017Y-79583000D01*
X154156365Y-79725345D01*
X153893345Y-79988365D01*
X153751000Y-80332017D01*
X153751000Y-80703983D01*
X153847801Y-80937681D01*
X153847800Y-82614383D01*
X153828307Y-82594890D01*
X153264130Y-82361200D01*
X152653470Y-82361200D01*
X152089293Y-82594890D01*
X151657490Y-83026693D01*
X151423800Y-83590870D01*
X151423800Y-84201530D01*
X151657490Y-84765707D01*
X151826708Y-84934925D01*
X151811035Y-84938043D01*
X151600991Y-85078391D01*
X151460643Y-85288435D01*
X151411360Y-85536200D01*
X148920200Y-85536200D01*
X148920200Y-83978753D01*
X148936621Y-83896200D01*
X148920200Y-83813646D01*
X148920200Y-80175679D01*
X149017000Y-79941983D01*
X149017000Y-79570017D01*
X148874655Y-79226365D01*
X148611635Y-78963345D01*
X148267983Y-78821000D01*
X147896017Y-78821000D01*
X147552365Y-78963345D01*
X147289345Y-79226365D01*
X147147000Y-79570017D01*
X147147000Y-79941983D01*
X147243800Y-80175679D01*
X147243801Y-82614384D01*
X147224307Y-82594890D01*
X146660130Y-82361200D01*
X146049470Y-82361200D01*
X145485293Y-82594890D01*
X145053490Y-83026693D01*
X144819800Y-83590870D01*
X144819800Y-84201530D01*
X145053490Y-84765707D01*
X145222708Y-84934925D01*
X145207035Y-84938043D01*
X144996991Y-85078391D01*
X144856643Y-85288435D01*
X144807360Y-85536200D01*
X142316200Y-85536200D01*
X142316200Y-83978753D01*
X142332621Y-83896200D01*
X142316200Y-83813646D01*
X142316200Y-79439079D01*
X142413000Y-79205383D01*
X142413000Y-78833417D01*
X142270655Y-78489765D01*
X142007635Y-78226745D01*
X141663983Y-78084400D01*
X141292017Y-78084400D01*
X140948365Y-78226745D01*
X140685345Y-78489765D01*
X140543000Y-78833417D01*
X140543000Y-79205383D01*
X140639800Y-79439079D01*
X140639801Y-82614384D01*
X140620307Y-82594890D01*
X140056130Y-82361200D01*
X139445470Y-82361200D01*
X138881293Y-82594890D01*
X138449490Y-83026693D01*
X138215800Y-83590870D01*
X138215800Y-84201530D01*
X138449490Y-84765707D01*
X138618708Y-84934925D01*
X138603035Y-84938043D01*
X138392991Y-85078391D01*
X138252643Y-85288435D01*
X138203360Y-85536200D01*
X135712200Y-85536200D01*
X135712200Y-83978753D01*
X135728621Y-83896200D01*
X135712200Y-83813646D01*
X135712200Y-78677079D01*
X135809000Y-78443383D01*
X135809000Y-78071417D01*
X135666655Y-77727765D01*
X135403635Y-77464745D01*
X135059983Y-77322400D01*
X134688017Y-77322400D01*
X134344365Y-77464745D01*
X134081345Y-77727765D01*
X133939000Y-78071417D01*
X133939000Y-78443383D01*
X134035800Y-78677079D01*
X134035801Y-82614384D01*
X134016307Y-82594890D01*
X133452130Y-82361200D01*
X132841470Y-82361200D01*
X132277293Y-82594890D01*
X131845490Y-83026693D01*
X131611800Y-83590870D01*
X131611800Y-84201530D01*
X131845490Y-84765707D01*
X132014708Y-84934925D01*
X131999035Y-84938043D01*
X131788991Y-85078391D01*
X131648643Y-85288435D01*
X131599360Y-85536200D01*
X129108200Y-85536200D01*
X129108200Y-83978753D01*
X129124621Y-83896200D01*
X129108200Y-83813646D01*
X129108200Y-77889679D01*
X129205000Y-77655983D01*
X129205000Y-77284017D01*
X129062655Y-76940365D01*
X128799635Y-76677345D01*
X128455983Y-76535000D01*
X128084017Y-76535000D01*
X127740365Y-76677345D01*
X127477345Y-76940365D01*
X127335000Y-77284017D01*
X127335000Y-77655983D01*
X127431800Y-77889679D01*
X127431801Y-82614384D01*
X127412307Y-82594890D01*
X126848130Y-82361200D01*
X126237470Y-82361200D01*
X125673293Y-82594890D01*
X125241490Y-83026693D01*
X125007800Y-83590870D01*
X125007800Y-84201530D01*
X125241490Y-84765707D01*
X125410708Y-84934925D01*
X125395035Y-84938043D01*
X125184991Y-85078391D01*
X125044643Y-85288435D01*
X124995360Y-85536200D01*
X122504200Y-85536200D01*
X122504200Y-83978753D01*
X122520621Y-83896200D01*
X122455567Y-83569151D01*
X122270308Y-83291892D01*
X121993049Y-83106633D01*
X121748554Y-83058000D01*
X121666000Y-83041579D01*
X121583446Y-83058000D01*
X121253078Y-83058000D01*
X121240110Y-83026693D01*
X120808307Y-82594890D01*
X120244130Y-82361200D01*
X119633470Y-82361200D01*
X119069293Y-82594890D01*
X118637490Y-83026693D01*
X118403800Y-83590870D01*
X118403800Y-84201530D01*
X118637490Y-84765707D01*
X118806708Y-84934925D01*
X118791035Y-84938043D01*
X118580991Y-85078391D01*
X118440643Y-85288435D01*
X118391360Y-85536200D01*
X117397600Y-85536200D01*
X117397600Y-77963164D01*
X117443333Y-77512933D01*
X118597680Y-77512933D01*
X118597680Y-78351627D01*
X118918634Y-79126479D01*
X119511681Y-79719526D01*
X120286533Y-80040480D01*
X121125227Y-80040480D01*
X121900079Y-79719526D01*
X122493126Y-79126479D01*
X122814080Y-78351627D01*
X122814080Y-77512933D01*
X122493126Y-76738081D01*
X121900079Y-76145034D01*
X121125227Y-75824080D01*
X120286533Y-75824080D01*
X119511681Y-76145034D01*
X118918634Y-76738081D01*
X118597680Y-77512933D01*
X117443333Y-77512933D01*
X117468646Y-77263737D01*
X117668071Y-76627369D01*
X117991379Y-76044105D01*
X118425368Y-75537761D01*
X118952305Y-75129027D01*
X119550673Y-74834593D01*
X120204487Y-74664288D01*
X120728070Y-74624000D01*
X209564836Y-74624000D01*
X210264263Y-74695046D01*
G04 #@! TD*
M02*
