M48
;DRILL file {KiCad (5.0.2)-1} date 5/31/2020 8:05:07 PM
;FORMAT={-:-/ absolute / inch / decimal}
FMAT,2
INCH,TZ
T1C0.0157
T2C0.0354
T3C0.0394
%
G90
G05
T1
X4.79Y-5.34
X5.05Y-3.05
X5.05Y-5.42
X5.31Y-3.081
X5.31Y-5.26
X5.57Y-3.111
X5.57Y-5.22
X5.83Y-3.14
X5.83Y-5.3
X6.09Y-3.17
X6.09Y-5.38
X6.16Y-4.36
X6.16Y-5.16
X6.2Y-4.26
X6.2Y-5.53
X6.35Y-3.2
X6.35Y-5.46
X6.42Y-4.99
X6.45Y-4.46
X6.48Y-4.96
X6.54Y-5.08
X6.59Y-5.06
X6.6Y-4.93
X6.64Y-4.99
X6.69Y-4.96
X6.78Y-5.024
X6.79Y-5.09
X6.89Y-4.93
X6.94Y-5.06
X7.048Y-5.398
X7.05Y-3.05
X7.31Y-3.081
X7.57Y-3.111
X7.83Y-3.14
X8.09Y-3.17
X8.35Y-3.2
T2
X8.282Y-4.023
X8.282Y-4.123
X7.762Y-4.023
X7.762Y-4.123
X8.022Y-3.303
X8.022Y-3.403
X5.762Y-4.723
X5.762Y-4.823
X5.762Y-3.303
X5.762Y-3.403
X7.242Y-3.663
X7.242Y-3.763
X7.502Y-3.663
X7.502Y-3.763
X7.762Y-3.663
X7.762Y-3.763
X7.502Y-4.023
X7.502Y-4.123
X8.282Y-3.303
X8.282Y-3.403
X4.982Y-3.303
X4.982Y-3.403
X6.282Y-3.303
X6.282Y-3.403
X5.502Y-4.023
X5.502Y-4.123
X6.282Y-3.663
X6.282Y-3.763
X6.982Y-3.663
X6.982Y-3.763
X5.502Y-4.723
X5.502Y-4.823
X7.242Y-3.303
X7.242Y-3.403
X6.022Y-3.663
X6.022Y-3.763
X8.282Y-3.663
X8.282Y-3.763
X6.022Y-4.723
X6.022Y-4.823
X4.982Y-4.723
X4.982Y-4.823
X8.282Y-4.723
X8.282Y-4.823
X8.022Y-4.723
X8.022Y-4.823
X6.982Y-4.023
X6.982Y-4.123
X5.242Y-3.303
X5.242Y-3.403
X6.022Y-3.303
X6.022Y-3.403
X5.242Y-4.023
X5.242Y-4.123
X7.762Y-4.723
X7.762Y-4.823
X5.502Y-3.663
X5.502Y-3.763
X7.242Y-4.023
X7.242Y-4.123
X4.722Y-3.303
X4.722Y-3.403
X5.502Y-3.303
X5.502Y-3.403
X5.242Y-4.723
X5.242Y-4.823
X8.022Y-3.663
X8.022Y-3.763
X5.762Y-4.023
X5.762Y-4.123
X5.762Y-3.663
X5.762Y-3.763
X7.502Y-3.303
X7.502Y-3.403
X7.762Y-3.303
X7.762Y-3.403
X6.282Y-4.723
X6.282Y-4.823
X6.282Y-4.023
X6.282Y-4.123
X6.022Y-4.023
X6.022Y-4.123
X8.022Y-4.023
X8.022Y-4.123
T3
X5.502Y-4.26
X5.502Y-4.36
X5.502Y-4.46
X7.502Y-4.26
X7.502Y-4.36
T0
M30
