G04 #@! TF.GenerationSoftware,KiCad,Pcbnew,(5.0.0)*
G04 #@! TF.CreationDate,2018-10-04T20:22:30-05:00*
G04 #@! TF.ProjectId,Binary_Display,42696E6172795F446973706C61792E6B,rev?*
G04 #@! TF.SameCoordinates,Original*
G04 #@! TF.FileFunction,Soldermask,Top*
G04 #@! TF.FilePolarity,Negative*
%FSLAX46Y46*%
G04 Gerber Fmt 4.6, Leading zero omitted, Abs format (unit mm)*
G04 Created by KiCad (PCBNEW (5.0.0)) date 10/04/18 20:22:30*
%MOMM*%
%LPD*%
G01*
G04 APERTURE LIST*
%ADD10C,3.346400*%
%ADD11R,1.000000X2.400000*%
%ADD12R,2.200000X2.200000*%
%ADD13C,2.200000*%
%ADD14R,1.150000X1.600000*%
%ADD15R,1.300000X1.600000*%
%ADD16C,2.100000*%
G04 APERTURE END LIST*
D10*
G04 #@! TO.C,REF\002A\002A*
X209595720Y-77932280D03*
G04 #@! TD*
G04 #@! TO.C,REF\002A\002A*
X120705880Y-140253720D03*
G04 #@! TD*
G04 #@! TO.C,REF\002A\002A*
X209595720Y-140253720D03*
G04 #@! TD*
D11*
G04 #@! TO.C,U1*
X176276000Y-131064000D03*
X175006000Y-131064000D03*
X173736000Y-131064000D03*
X172466000Y-131064000D03*
X171196000Y-131064000D03*
X169926000Y-131064000D03*
X168656000Y-131064000D03*
X167386000Y-131064000D03*
X166116000Y-131064000D03*
X164846000Y-131064000D03*
X163576000Y-131064000D03*
X162306000Y-131064000D03*
X162306000Y-140464000D03*
X163576000Y-140464000D03*
X164846000Y-140464000D03*
X166116000Y-140464000D03*
X167386000Y-140464000D03*
X168656000Y-140464000D03*
X169926000Y-140464000D03*
X171196000Y-140464000D03*
X172466000Y-140464000D03*
X173736000Y-140464000D03*
X175006000Y-140464000D03*
X176276000Y-140464000D03*
G04 #@! TD*
D12*
G04 #@! TO.C,D31*
X177342800Y-95580200D03*
D13*
X177342800Y-93040200D03*
G04 #@! TD*
D14*
G04 #@! TO.C,C1*
X179070000Y-140716000D03*
X179070000Y-138816000D03*
G04 #@! TD*
D12*
G04 #@! TO.C,D1*
X159562800Y-86436200D03*
D13*
X159562800Y-83896200D03*
G04 #@! TD*
D12*
G04 #@! TO.C,D2*
X152958800Y-86436200D03*
D13*
X152958800Y-83896200D03*
G04 #@! TD*
D12*
G04 #@! TO.C,D3*
X146354800Y-86436200D03*
D13*
X146354800Y-83896200D03*
G04 #@! TD*
D12*
G04 #@! TO.C,D4*
X139750800Y-86436200D03*
D13*
X139750800Y-83896200D03*
G04 #@! TD*
D12*
G04 #@! TO.C,D5*
X133146800Y-86436200D03*
D13*
X133146800Y-83896200D03*
G04 #@! TD*
D12*
G04 #@! TO.C,D6*
X126542800Y-86436200D03*
D13*
X126542800Y-83896200D03*
G04 #@! TD*
D12*
G04 #@! TO.C,D7*
X119938800Y-86436200D03*
D13*
X119938800Y-83896200D03*
G04 #@! TD*
D12*
G04 #@! TO.C,D8*
X159562800Y-122504200D03*
D13*
X159562800Y-119964200D03*
G04 #@! TD*
D12*
G04 #@! TO.C,D9*
X152958800Y-122504200D03*
D13*
X152958800Y-119964200D03*
G04 #@! TD*
D12*
G04 #@! TO.C,D10*
X146354800Y-122504200D03*
D13*
X146354800Y-119964200D03*
G04 #@! TD*
D12*
G04 #@! TO.C,D11*
X139750800Y-122504200D03*
D13*
X139750800Y-119964200D03*
G04 #@! TD*
D12*
G04 #@! TO.C,D12*
X133146800Y-122504200D03*
D13*
X133146800Y-119964200D03*
G04 #@! TD*
D12*
G04 #@! TO.C,D13*
X126542800Y-122504200D03*
D13*
X126542800Y-119964200D03*
G04 #@! TD*
D12*
G04 #@! TO.C,D14*
X210362800Y-86436200D03*
D13*
X210362800Y-83896200D03*
G04 #@! TD*
D12*
G04 #@! TO.C,D15*
X203758800Y-86436200D03*
D13*
X203758800Y-83896200D03*
G04 #@! TD*
D12*
G04 #@! TO.C,D16*
X197154800Y-86436200D03*
D13*
X197154800Y-83896200D03*
G04 #@! TD*
D12*
G04 #@! TO.C,D17*
X190550800Y-86436200D03*
D13*
X190550800Y-83896200D03*
G04 #@! TD*
D12*
G04 #@! TO.C,D18*
X183946800Y-86436200D03*
D13*
X183946800Y-83896200D03*
G04 #@! TD*
D12*
G04 #@! TO.C,D19*
X159562800Y-95580200D03*
D13*
X159562800Y-93040200D03*
G04 #@! TD*
D12*
G04 #@! TO.C,D20*
X152958800Y-95580200D03*
D13*
X152958800Y-93040200D03*
G04 #@! TD*
D12*
G04 #@! TO.C,D21*
X146354800Y-95580200D03*
D13*
X146354800Y-93040200D03*
G04 #@! TD*
D12*
G04 #@! TO.C,D22*
X139750800Y-95580200D03*
D13*
X139750800Y-93040200D03*
G04 #@! TD*
D12*
G04 #@! TO.C,D23*
X210362800Y-122504200D03*
D13*
X210362800Y-119964200D03*
G04 #@! TD*
D12*
G04 #@! TO.C,D24*
X203758800Y-122504200D03*
D13*
X203758800Y-119964200D03*
G04 #@! TD*
D12*
G04 #@! TO.C,D25*
X197154800Y-122504200D03*
D13*
X197154800Y-119964200D03*
G04 #@! TD*
D12*
G04 #@! TO.C,D26*
X210362800Y-95580200D03*
D13*
X210362800Y-93040200D03*
G04 #@! TD*
D12*
G04 #@! TO.C,D27*
X203758800Y-95580200D03*
D13*
X203758800Y-93040200D03*
G04 #@! TD*
D12*
G04 #@! TO.C,D28*
X197154800Y-95580200D03*
D13*
X197154800Y-93040200D03*
G04 #@! TD*
D12*
G04 #@! TO.C,D29*
X190550800Y-95580200D03*
D13*
X190550800Y-93040200D03*
G04 #@! TD*
D12*
G04 #@! TO.C,D30*
X183946800Y-95580200D03*
D13*
X183946800Y-93040200D03*
G04 #@! TD*
D12*
G04 #@! TO.C,D32*
X159562800Y-104724200D03*
D13*
X159562800Y-102184200D03*
G04 #@! TD*
D12*
G04 #@! TO.C,D33*
X152958800Y-104724200D03*
D13*
X152958800Y-102184200D03*
G04 #@! TD*
D12*
G04 #@! TO.C,D34*
X146354800Y-104724200D03*
D13*
X146354800Y-102184200D03*
G04 #@! TD*
D12*
G04 #@! TO.C,D35*
X139750800Y-104724200D03*
D13*
X139750800Y-102184200D03*
G04 #@! TD*
D12*
G04 #@! TO.C,D36*
X133146800Y-104724200D03*
D13*
X133146800Y-102184200D03*
G04 #@! TD*
D12*
G04 #@! TO.C,D37*
X210362800Y-104724200D03*
D13*
X210362800Y-102184200D03*
G04 #@! TD*
D12*
G04 #@! TO.C,D38*
X203758800Y-104724200D03*
D13*
X203758800Y-102184200D03*
G04 #@! TD*
D12*
G04 #@! TO.C,D39*
X197154800Y-104724200D03*
D13*
X197154800Y-102184200D03*
G04 #@! TD*
D12*
G04 #@! TO.C,D40*
X190550800Y-104724200D03*
D13*
X190550800Y-102184200D03*
G04 #@! TD*
D12*
G04 #@! TO.C,D41*
X183946800Y-104724200D03*
D13*
X183946800Y-102184200D03*
G04 #@! TD*
D12*
G04 #@! TO.C,D42*
X177342800Y-104724200D03*
D13*
X177342800Y-102184200D03*
G04 #@! TD*
D15*
G04 #@! TO.C,R1*
X181356000Y-140716000D03*
X181356000Y-138516000D03*
G04 #@! TD*
D10*
G04 #@! TO.C,REF\002A\002A*
X120705880Y-77932280D03*
G04 #@! TD*
D16*
G04 #@! TO.C,J1*
X139750800Y-110744000D03*
X139750800Y-108204000D03*
X139750800Y-113284000D03*
X190550800Y-110744000D03*
X190550800Y-108204000D03*
G04 #@! TD*
M02*
